<?xml version="1.0" encoding="UTF-8" standalone="no"?>
<!DOCTYPE svg PUBLIC "-//W3C//DTD SVG 1.1//EN"
 "http://www.w3.org/Graphics/SVG/1.1/DTD/svg11.dtd">
<!-- Generated by graphviz version 2.40.1 (20161225.0304)
 -->
<!-- Title: dependency&#45;cruiser output Pages: 1 -->
<svg width="542pt" height="1080pt"
 viewBox="0.00 0.00 542.00 1080.00" xmlns="http://www.w3.org/2000/svg" xmlns:xlink="http://www.w3.org/1999/xlink">
<g id="graph0" class="graph" transform="scale(1 1) rotate(0) translate(4 1076)">
<title>dependency&#45;cruiser output</title>
<polygon fill="#ffffff" stroke="transparent" points="-4,4 -4,-1076 538,-1076 538,4 -4,4"/>
<g id="clust1" class="cluster">
<title>cluster_..</title>
<path fill="#ffffff" stroke="#000000" stroke-width="2" d="M364,-814C364,-814 410,-814 410,-814 416,-814 422,-820 422,-826 422,-826 422,-854 422,-854 422,-860 416,-866 410,-866 410,-866 364,-866 364,-866 358,-866 352,-860 352,-854 352,-854 352,-826 352,-826 352,-820 358,-814 364,-814"/>
<text text-anchor="middle" x="387" y="-854.8" font-family="Helvetica,sans-Serif" font-weight="bold" font-size="9.00" fill="#000000">..</text>
</g>
<g id="clust2" class="cluster">
<title>cluster_src</title>
<path fill="#ffffff" stroke="#000000" stroke-width="2" d="M20,-116C20,-116 514,-116 514,-116 520,-116 526,-122 526,-128 526,-128 526,-794 526,-794 526,-800 520,-806 514,-806 514,-806 20,-806 20,-806 14,-806 8,-800 8,-794 8,-794 8,-128 8,-128 8,-122 14,-116 20,-116"/>
<text text-anchor="middle" x="267" y="-794.8" font-family="Helvetica,sans-Serif" font-weight="bold" font-size="9.00" fill="#000000">src</text>
</g>
<g id="clust3" class="cluster">
<title>cluster_src/levels</title>
<path fill="#ffffff" stroke="#000000" stroke-width="2" d="M257,-698C257,-698 304,-698 304,-698 310,-698 316,-704 316,-710 316,-710 316,-768 316,-768 316,-774 310,-780 304,-780 304,-780 257,-780 257,-780 251,-780 245,-774 245,-768 245,-768 245,-710 245,-710 245,-704 251,-698 257,-698"/>
<text text-anchor="middle" x="280.5" y="-768.8" font-family="Helvetica,sans-Serif" font-weight="bold" font-size="9.00" fill="#000000">levels</text>
</g>
<g id="clust4" class="cluster">
<title>cluster_src/p2p</title>
<path fill="#ffffff" stroke="#000000" stroke-width="2" d="M257.5,-582C257.5,-582 506,-582 506,-582 512,-582 518,-588 518,-594 518,-594 518,-652 518,-652 518,-658 512,-664 506,-664 506,-664 257.5,-664 257.5,-664 251.5,-664 245.5,-658 245.5,-652 245.5,-652 245.5,-594 245.5,-594 245.5,-588 251.5,-582 257.5,-582"/>
<text text-anchor="middle" x="381.75" y="-652.8" font-family="Helvetica,sans-Serif" font-weight="bold" font-size="9.00" fill="#000000">p2p</text>
</g>
<!-- ../Level.js -->
<g id="node1" class="node">
<title>../Level.js</title>
<path fill="#ffffcc" stroke="#ff0000" d="M408,-840C408,-840 366,-840 366,-840 363,-840 360,-837 360,-834 360,-834 360,-828 360,-828 360,-825 363,-822 366,-822 366,-822 408,-822 408,-822 411,-822 414,-825 414,-828 414,-828 414,-834 414,-834 414,-837 411,-840 408,-840"/>
<text text-anchor="middle" x="387" y="-828.8" font-family="Helvetica,sans-Serif" font-size="9.00" fill="#ff0000">Level.js</text>
</g>
<!-- ./Authority.js -->
<g id="node2" class="node">
<title>./Authority.js</title>
<path fill="#ffffcc" stroke="#ff0000" d="M412,-952C412,-952 362,-952 362,-952 359,-952 356,-949 356,-946 356,-946 356,-940 356,-940 356,-937 359,-934 362,-934 362,-934 412,-934 412,-934 415,-934 418,-937 418,-940 418,-940 418,-946 418,-946 418,-949 415,-952 412,-952"/>
<text text-anchor="middle" x="387" y="-940.8" font-family="Helvetica,sans-Serif" font-size="9.00" fill="#ff0000">Authority.js</text>
</g>
<!-- ./BaseFunction.js -->
<g id="node3" class="node">
<title>./BaseFunction.js</title>
<path fill="#ffffcc" stroke="#ff0000" d="M422,-922C422,-922 352,-922 352,-922 349,-922 346,-919 346,-916 346,-916 346,-910 346,-910 346,-907 349,-904 352,-904 352,-904 422,-904 422,-904 425,-904 428,-907 428,-910 428,-910 428,-916 428,-916 428,-919 425,-922 422,-922"/>
<text text-anchor="middle" x="387" y="-910.8" font-family="Helvetica,sans-Serif" font-size="9.00" fill="#ff0000">BaseFunction.js</text>
</g>
<!-- ./Lval.js -->
<g id="node4" class="node">
<title>./Lval.js</title>
<path fill="#ffffcc" stroke="#ff0000" d="M408,-108C408,-108 366,-108 366,-108 363,-108 360,-105 360,-102 360,-102 360,-96 360,-96 360,-93 363,-90 366,-90 366,-90 408,-90 408,-90 411,-90 414,-93 414,-96 414,-96 414,-102 414,-102 414,-105 411,-108 408,-108"/>
<text text-anchor="middle" x="387" y="-96.8" font-family="Helvetica,sans-Serif" font-size="9.00" fill="#ff0000">Lval.js</text>
</g>
<!-- ./SandboxStatus.js -->
<g id="node5" class="node">
<title>./SandboxStatus.js</title>
<path fill="#ffffcc" stroke="#ff0000" d="M425,-78C425,-78 349,-78 349,-78 346,-78 343,-75 343,-72 343,-72 343,-66 343,-66 343,-63 346,-60 349,-60 349,-60 425,-60 425,-60 428,-60 431,-63 431,-66 431,-66 431,-72 431,-72 431,-75 428,-78 425,-78"/>
<text text-anchor="middle" x="387" y="-66.8" font-family="Helvetica,sans-Serif" font-size="9.00" fill="#ff0000">SandboxStatus.js</text>
</g>
<!-- ./StackCallItem.js -->
<g id="node6" class="node">
<title>./StackCallItem.js</title>
<path fill="#ffffcc" stroke="#ff0000" d="M204,-60C204,-60 134,-60 134,-60 131,-60 128,-57 128,-54 128,-54 128,-48 128,-48 128,-45 131,-42 134,-42 134,-42 204,-42 204,-42 207,-42 210,-45 210,-48 210,-48 210,-54 210,-54 210,-57 207,-60 204,-60"/>
<text text-anchor="middle" x="169" y="-48.8" font-family="Helvetica,sans-Serif" font-size="9.00" fill="#ff0000">StackCallItem.js</text>
</g>
<!-- ./Thread.js -->
<g id="node7" class="node">
<title>./Thread.js</title>
<path fill="#ffffcc" stroke="#ff0000" d="M408.5,-892C408.5,-892 365.5,-892 365.5,-892 362.5,-892 359.5,-889 359.5,-886 359.5,-886 359.5,-880 359.5,-880 359.5,-877 362.5,-874 365.5,-874 365.5,-874 408.5,-874 408.5,-874 411.5,-874 414.5,-877 414.5,-880 414.5,-880 414.5,-886 414.5,-886 414.5,-889 411.5,-892 408.5,-892"/>
<text text-anchor="middle" x="387" y="-880.8" font-family="Helvetica,sans-Serif" font-size="9.00" fill="#ff0000">Thread.js</text>
</g>
<!-- ./ThreadError.js -->
<g id="node8" class="node">
<title>./ThreadError.js</title>
<path fill="#ffffcc" stroke="#ff0000" d="M418.5,-982C418.5,-982 355.5,-982 355.5,-982 352.5,-982 349.5,-979 349.5,-976 349.5,-976 349.5,-970 349.5,-970 349.5,-967 352.5,-964 355.5,-964 355.5,-964 418.5,-964 418.5,-964 421.5,-964 424.5,-967 424.5,-970 424.5,-970 424.5,-976 424.5,-976 424.5,-979 421.5,-982 418.5,-982"/>
<text text-anchor="middle" x="387" y="-970.8" font-family="Helvetica,sans-Serif" font-size="9.00" fill="#ff0000">ThreadError.js</text>
</g>
<!-- ./options.js -->
<g id="node9" class="node">
<title>./options.js</title>
<path fill="#ffffcc" stroke="#ff0000" d="M409,-18C409,-18 365,-18 365,-18 362,-18 359,-15 359,-12 359,-12 359,-6 359,-6 359,-3 362,0 365,0 365,0 409,0 409,0 412,0 415,-3 415,-6 415,-6 415,-12 415,-12 415,-15 412,-18 409,-18"/>
<text text-anchor="middle" x="387" y="-6.8" font-family="Helvetica,sans-Serif" font-size="9.00" fill="#ff0000">options.js</text>
</g>
<!-- assert -->
<g id="node10" class="node">
<title>assert</title>
<path fill="#ffffcc" stroke="#c0c0c0" d="M408,-1042C408,-1042 366,-1042 366,-1042 363,-1042 360,-1039 360,-1036 360,-1036 360,-1030 360,-1030 360,-1027 363,-1024 366,-1024 366,-1024 408,-1024 408,-1024 411,-1024 414,-1027 414,-1030 414,-1030 414,-1036 414,-1036 414,-1039 411,-1042 408,-1042"/>
<text text-anchor="middle" x="387" y="-1030.8" font-family="Helvetica,sans-Serif" font-size="9.00" fill="#c0c0c0">assert</text>
</g>
<!-- child_process -->
<g id="node11" class="node">
<title>child_process</title>
<path fill="#ffffcc" stroke="#c0c0c0" d="M418,-1012C418,-1012 356,-1012 356,-1012 353,-1012 350,-1009 350,-1006 350,-1006 350,-1000 350,-1000 350,-997 353,-994 356,-994 356,-994 418,-994 418,-994 421,-994 424,-997 424,-1000 424,-1000 424,-1006 424,-1006 424,-1009 421,-1012 418,-1012"/>
<text text-anchor="middle" x="387" y="-1000.8" font-family="Helvetica,sans-Serif" font-size="9.00" fill="#c0c0c0">child_process</text>
</g>
<!-- fs -->
<g id="node12" class="node">
<title>fs</title>
<path fill="#ffffcc" stroke="#c0c0c0" d="M408,-48C408,-48 366,-48 366,-48 363,-48 360,-45 360,-42 360,-42 360,-36 360,-36 360,-33 363,-30 366,-30 366,-30 408,-30 408,-30 411,-30 414,-33 414,-36 414,-36 414,-42 414,-42 414,-45 411,-48 408,-48"/>
<text text-anchor="middle" x="387" y="-36.8" font-family="Helvetica,sans-Serif" font-size="9.00" fill="#c0c0c0">fs</text>
</g>
<!-- os -->
<g id="node13" class="node">
<title>os</title>
<path fill="#ffffcc" stroke="#c0c0c0" d="M301.5,-888C301.5,-888 259.5,-888 259.5,-888 256.5,-888 253.5,-885 253.5,-882 253.5,-882 253.5,-876 253.5,-876 253.5,-873 256.5,-870 259.5,-870 259.5,-870 301.5,-870 301.5,-870 304.5,-870 307.5,-873 307.5,-876 307.5,-876 307.5,-882 307.5,-882 307.5,-885 304.5,-888 301.5,-888"/>
<text text-anchor="middle" x="280.5" y="-876.8" font-family="Helvetica,sans-Serif" font-size="9.00" fill="#c0c0c0">os</text>
</g>
<!-- readline -->
<g id="node14" class="node">
<title>readline</title>
<path fill="#ffffcc" stroke="#c0c0c0" d="M301.5,-832C301.5,-832 259.5,-832 259.5,-832 256.5,-832 253.5,-829 253.5,-826 253.5,-826 253.5,-820 253.5,-820 253.5,-817 256.5,-814 259.5,-814 259.5,-814 301.5,-814 301.5,-814 304.5,-814 307.5,-817 307.5,-820 307.5,-820 307.5,-826 307.5,-826 307.5,-829 304.5,-832 301.5,-832"/>
<text text-anchor="middle" x="280.5" y="-820.8" font-family="Helvetica,sans-Serif" font-size="9.00" fill="#c0c0c0">readline</text>
</g>
<!-- src/Authority.ts -->
<g id="node15" class="node">
<title>src/Authority.ts</title>
<g id="a_node15"><a xlink:href="src/Authority.ts" xlink:title="Authority.ts">
<path fill="#ddfeff" stroke="#000000" d="M305.5,-142C305.5,-142 255.5,-142 255.5,-142 252.5,-142 249.5,-139 249.5,-136 249.5,-136 249.5,-130 249.5,-130 249.5,-127 252.5,-124 255.5,-124 255.5,-124 305.5,-124 305.5,-124 308.5,-124 311.5,-127 311.5,-130 311.5,-130 311.5,-136 311.5,-136 311.5,-139 308.5,-142 305.5,-142"/>
<text text-anchor="middle" x="280.5" y="-130.8" font-family="Helvetica,sans-Serif" font-size="9.00" fill="#000000">Authority.ts</text>
</a>
</g>
</g>
<!-- src/BaseFunction.ts -->
<g id="node16" class="node">
<title>src/BaseFunction.ts</title>
<g id="a_node16"><a xlink:href="src/BaseFunction.ts" xlink:title="BaseFunction.ts">
<path fill="#ddfeff" stroke="#000000" d="M315.5,-202C315.5,-202 245.5,-202 245.5,-202 242.5,-202 239.5,-199 239.5,-196 239.5,-196 239.5,-190 239.5,-190 239.5,-187 242.5,-184 245.5,-184 245.5,-184 315.5,-184 315.5,-184 318.5,-184 321.5,-187 321.5,-190 321.5,-190 321.5,-196 321.5,-196 321.5,-199 318.5,-202 315.5,-202"/>
<text text-anchor="middle" x="280.5" y="-190.8" font-family="Helvetica,sans-Serif" font-size="9.00" fill="#000000">BaseFunction.ts</text>
</a>
</g>
</g>
<!-- src/BaseKont.js -->
<g id="node17" class="node">
<title>src/BaseKont.js</title>
<g id="a_node17"><a xlink:href="src/BaseKont.js" xlink:title="BaseKont.js">
<path fill="#ffffcc" stroke="#000000" d="M413.5,-436C413.5,-436 360.5,-436 360.5,-436 357.5,-436 354.5,-433 354.5,-430 354.5,-430 354.5,-424 354.5,-424 354.5,-421 357.5,-418 360.5,-418 360.5,-418 413.5,-418 413.5,-418 416.5,-418 419.5,-421 419.5,-424 419.5,-424 419.5,-430 419.5,-430 419.5,-433 416.5,-436 413.5,-436"/>
<text text-anchor="middle" x="387" y="-424.8" font-family="Helvetica,sans-Serif" font-size="9.00" fill="#000000">BaseKont.js</text>
</a>
</g>
</g>
<!-- src/Level.ts -->
<g id="node18" class="node">
<title>src/Level.ts</title>
<g id="a_node18"><a xlink:href="src/Level.ts" xlink:title="Level.ts">
<path fill="#ddfeff" stroke="#000000" d="M301.5,-232C301.5,-232 259.5,-232 259.5,-232 256.5,-232 253.5,-229 253.5,-226 253.5,-226 253.5,-220 253.5,-220 253.5,-217 256.5,-214 259.5,-214 259.5,-214 301.5,-214 301.5,-214 304.5,-214 307.5,-217 307.5,-220 307.5,-220 307.5,-226 307.5,-226 307.5,-229 304.5,-232 301.5,-232"/>
<text text-anchor="middle" x="280.5" y="-220.8" font-family="Helvetica,sans-Serif" font-size="9.00" fill="#000000">Level.ts</text>
</a>
</g>
</g>
<!-- src/Lval.ts -->
<g id="node19" class="node">
<title>src/Lval.ts</title>
<g id="a_node19"><a xlink:href="src/Lval.ts" xlink:title="Lval.ts">
<path fill="#ddfeff" stroke="#000000" d="M301.5,-336C301.5,-336 259.5,-336 259.5,-336 256.5,-336 253.5,-333 253.5,-330 253.5,-330 253.5,-324 253.5,-324 253.5,-321 256.5,-318 259.5,-318 259.5,-318 301.5,-318 301.5,-318 304.5,-318 307.5,-321 307.5,-324 307.5,-324 307.5,-330 307.5,-330 307.5,-333 304.5,-336 301.5,-336"/>
<text text-anchor="middle" x="280.5" y="-324.8" font-family="Helvetica,sans-Serif" font-size="9.00" fill="#000000">Lval.ts</text>
</a>
</g>
</g>
<!-- src/MailboxProcessor.js -->
<g id="node20" class="node">
<title>src/MailboxProcessor.js</title>
<g id="a_node20"><a xlink:href="src/MailboxProcessor.js" xlink:title="MailboxProcessor.js">
<path fill="#ffffcc" stroke="#000000" d="M324,-292C324,-292 237,-292 237,-292 234,-292 231,-289 231,-286 231,-286 231,-280 231,-280 231,-277 234,-274 237,-274 237,-274 324,-274 324,-274 327,-274 330,-277 330,-280 330,-280 330,-286 330,-286 330,-289 327,-292 324,-292"/>
<text text-anchor="middle" x="280.5" y="-280.8" font-family="Helvetica,sans-Serif" font-size="9.00" fill="#000000">MailboxProcessor.js</text>
</a>
</g>
</g>
<!-- src/MailboxProcessor.js&#45;&gt;./Lval.js -->
<g id="edge2" class="edge">
<title>src/MailboxProcessor.js&#45;&gt;./Lval.js</title>
<path fill="none" stroke="#000000" stroke-width="2" stroke-opacity="0.200000" d="M323.7224,-273.7761C326.0641,-272.1441 328.1929,-270.2341 330,-268 351.7377,-241.1255 321.4485,-140.0241 343,-113 345.952,-109.2984 349.8839,-106.5596 354.1865,-104.5364"/>
<polygon fill="#000000" fill-opacity="0.200000" stroke="#000000" stroke-width="2" stroke-opacity="0.200000" points="354.9707,-106.4846 359.7888,-102.3377 353.4363,-102.5749 354.9707,-106.4846"/>
</g>
<!-- src/MailboxProcessor.js&#45;&gt;./SandboxStatus.js -->
<g id="edge5" class="edge">
<title>src/MailboxProcessor.js&#45;&gt;./SandboxStatus.js</title>
<path fill="none" stroke="#000000" stroke-width="2" stroke-opacity="0.200000" d="M323.7562,-273.8032C326.0899,-272.1648 328.2076,-270.246 330,-268 355.5686,-235.961 317.9849,-116.473 343,-84 343.4433,-83.4246 343.9097,-82.8711 344.3973,-82.3387"/>
<polygon fill="#000000" fill-opacity="0.200000" stroke="#000000" stroke-width="2" stroke-opacity="0.200000" points="346.1357,-83.6109 349.294,-78.094 343.3847,-80.4373 346.1357,-83.6109"/>
</g>
<!-- src/MailboxProcessor.js&#45;&gt;./Thread.js -->
<g id="edge6" class="edge">
<title>src/MailboxProcessor.js&#45;&gt;./Thread.js</title>
<path fill="none" stroke="#000000" stroke-width="2" stroke-opacity="0.200000" d="M306.5714,-292.0897C315.5901,-296.6139 324.7449,-303.0737 330,-312 345.7034,-338.6736 324.4397,-844.2291 343,-869 345.7098,-872.6166 349.3599,-875.3192 353.4048,-877.3351"/>
<polygon fill="#000000" fill-opacity="0.200000" stroke="#000000" stroke-width="2" stroke-opacity="0.200000" points="352.7659,-879.3429 359.1139,-879.6796 354.3614,-875.4577 352.7659,-879.3429"/>
</g>
<!-- src/MailboxProcessor.js&#45;&gt;./options.js -->
<g id="edge3" class="edge">
<title>src/MailboxProcessor.js&#45;&gt;./options.js</title>
<path fill="none" stroke="#000000" stroke-width="2" stroke-opacity="0.200000" d="M323.801,-273.8386C326.124,-272.1918 328.2271,-270.2614 330,-268 363.5013,-225.2676 310.2369,-67.3009 343,-24 345.6783,-20.4603 349.2367,-17.7491 353.1735,-15.674"/>
<polygon fill="#000000" fill-opacity="0.200000" stroke="#000000" stroke-width="2" stroke-opacity="0.200000" points="354.089,-17.5654 358.7291,-13.2203 352.3921,-13.7234 354.089,-17.5654"/>
</g>
<!-- src/logger.js -->
<g id="node21" class="node">
<title>src/logger.js</title>
<g id="a_node21"><a xlink:href="src/logger.js" xlink:title="logger.js">
<path fill="#ffffcc" stroke="#000000" d="M408,-466C408,-466 366,-466 366,-466 363,-466 360,-463 360,-460 360,-460 360,-454 360,-454 360,-451 363,-448 366,-448 366,-448 408,-448 408,-448 411,-448 414,-451 414,-454 414,-454 414,-460 414,-460 414,-463 411,-466 408,-466"/>
<text text-anchor="middle" x="387" y="-454.8" font-family="Helvetica,sans-Serif" font-size="9.00" fill="#000000">logger.js</text>
</a>
</g>
</g>
<!-- src/MailboxProcessor.js&#45;&gt;src/logger.js -->
<g id="edge1" class="edge">
<title>src/MailboxProcessor.js&#45;&gt;src/logger.js</title>
<path fill="none" stroke="#000000" stroke-width="2" stroke-opacity="0.200000" d="M305.6978,-292.0482C314.8343,-296.6136 324.3005,-303.113 330,-312 361.3467,-360.8778 306.8984,-396.5211 343,-442 345.9636,-445.7334 349.9018,-448.5425 354.2071,-450.6552"/>
<polygon fill="#000000" fill-opacity="0.200000" stroke="#000000" stroke-width="2" stroke-opacity="0.200000" points="353.4641,-452.6204 359.8111,-452.9758 355.0711,-448.74 353.4641,-452.6204"/>
</g>
<!-- src/process.js -->
<g id="node22" class="node">
<title>src/process.js</title>
<g id="a_node22"><a xlink:href="src/process.js" xlink:title="process.js">
<path fill="#ffffcc" stroke="#000000" d="M410,-358C410,-358 364,-358 364,-358 361,-358 358,-355 358,-352 358,-352 358,-346 358,-346 358,-343 361,-340 364,-340 364,-340 410,-340 410,-340 413,-340 416,-343 416,-346 416,-346 416,-352 416,-352 416,-355 413,-358 410,-358"/>
<text text-anchor="middle" x="387" y="-346.8" font-family="Helvetica,sans-Serif" font-size="9.00" fill="#000000">process.js</text>
</a>
</g>
</g>
<!-- src/MailboxProcessor.js&#45;&gt;src/process.js -->
<g id="edge4" class="edge">
<title>src/MailboxProcessor.js&#45;&gt;src/process.js</title>
<path fill="none" stroke="#000000" stroke-width="2" stroke-opacity="0.200000" d="M310.5796,-292.0224C317.1773,-294.5209 323.984,-297.5208 330,-301 346.4629,-310.5209 362.8136,-324.9346 373.7527,-335.4826"/>
<polygon fill="#000000" fill-opacity="0.200000" stroke="#000000" stroke-width="2" stroke-opacity="0.200000" points="372.3402,-337.0387 378.0942,-339.741 375.2813,-334.0403 372.3402,-337.0387"/>
</g>
<!-- src/NodeManager.js -->
<g id="node23" class="node">
<title>src/NodeManager.js</title>
<g id="a_node23"><a xlink:href="src/NodeManager.js" xlink:title="NodeManager.js">
<path fill="#ffffcc" stroke="#000000" d="M317,-574C317,-574 244,-574 244,-574 241,-574 238,-571 238,-568 238,-568 238,-562 238,-562 238,-559 241,-556 244,-556 244,-556 317,-556 317,-556 320,-556 323,-559 323,-562 323,-562 323,-568 323,-568 323,-571 320,-574 317,-574"/>
<text text-anchor="middle" x="280.5" y="-562.8" font-family="Helvetica,sans-Serif" font-size="9.00" fill="#000000">NodeManager.js</text>
</a>
</g>
</g>
<!-- src/RtClosure.js -->
<g id="node24" class="node">
<title>src/RtClosure.js</title>
<g id="a_node24"><a xlink:href="src/RtClosure.js" xlink:title="RtClosure.js">
<path fill="#ffffcc" stroke="#000000" d="M308,-380C308,-380 253,-380 253,-380 250,-380 247,-377 247,-374 247,-374 247,-368 247,-368 247,-365 250,-362 253,-362 253,-362 308,-362 308,-362 311,-362 314,-365 314,-368 314,-368 314,-374 314,-374 314,-377 311,-380 308,-380"/>
<text text-anchor="middle" x="280.5" y="-368.8" font-family="Helvetica,sans-Serif" font-size="9.00" fill="#000000">RtClosure.js</text>
</a>
</g>
</g>
<!-- src/SandboxStatus.ts -->
<g id="node25" class="node">
<title>src/SandboxStatus.ts</title>
<g id="a_node25"><a xlink:href="src/SandboxStatus.ts" xlink:title="SandboxStatus.ts">
<path fill="#ddfeff" stroke="#000000" d="M318.5,-410C318.5,-410 242.5,-410 242.5,-410 239.5,-410 236.5,-407 236.5,-404 236.5,-404 236.5,-398 236.5,-398 236.5,-395 239.5,-392 242.5,-392 242.5,-392 318.5,-392 318.5,-392 321.5,-392 324.5,-395 324.5,-398 324.5,-398 324.5,-404 324.5,-404 324.5,-407 321.5,-410 318.5,-410"/>
<text text-anchor="middle" x="280.5" y="-398.8" font-family="Helvetica,sans-Serif" font-size="9.00" fill="#000000">SandboxStatus.ts</text>
</a>
</g>
</g>
<!-- src/Scheduler.js -->
<g id="node26" class="node">
<title>src/Scheduler.js</title>
<g id="a_node26"><a xlink:href="src/Scheduler.js" xlink:title="Scheduler.js">
<path fill="#ffffcc" stroke="#000000" d="M308.5,-440C308.5,-440 252.5,-440 252.5,-440 249.5,-440 246.5,-437 246.5,-434 246.5,-434 246.5,-428 246.5,-428 246.5,-425 249.5,-422 252.5,-422 252.5,-422 308.5,-422 308.5,-422 311.5,-422 314.5,-425 314.5,-428 314.5,-428 314.5,-434 314.5,-434 314.5,-437 311.5,-440 308.5,-440"/>
<text text-anchor="middle" x="280.5" y="-428.8" font-family="Helvetica,sans-Serif" font-size="9.00" fill="#000000">Scheduler.js</text>
</a>
</g>
</g>
<!-- src/Scheduler.js&#45;&gt;./Authority.js -->
<g id="edge7" class="edge">
<title>src/Scheduler.js&#45;&gt;./Authority.js</title>
<path fill="none" stroke="#000000" stroke-width="2" stroke-opacity="0.200000" d="M306.5505,-440.1021C315.5666,-444.6277 324.7251,-451.0854 330,-460 356.4909,-504.7696 312.1426,-886.1203 343,-928 345.0346,-930.7614 347.6064,-933.0193 350.4808,-934.8649"/>
<polygon fill="#000000" fill-opacity="0.200000" stroke="#000000" stroke-width="2" stroke-opacity="0.200000" points="349.6473,-936.8 355.9312,-937.7611 351.6182,-933.0911 349.6473,-936.8"/>
</g>
<!-- src/Scheduler.js&#45;&gt;./BaseFunction.js -->
<g id="edge8" class="edge">
<title>src/Scheduler.js&#45;&gt;./BaseFunction.js</title>
<path fill="none" stroke="#000000" stroke-width="2" stroke-opacity="0.200000" d="M306.5416,-440.1074C315.5565,-444.6337 324.7166,-451.0904 330,-460 354.8339,-501.8785 314.0818,-858.8303 343,-898 343.4314,-898.5844 343.8869,-899.1462 344.3642,-899.6863"/>
<polygon fill="#000000" fill-opacity="0.200000" stroke="#000000" stroke-width="2" stroke-opacity="0.200000" points="343.3122,-901.5616 349.189,-903.9852 346.1062,-898.4258 343.3122,-901.5616"/>
</g>
<!-- src/Scheduler.js&#45;&gt;./Lval.js -->
<g id="edge11" class="edge">
<title>src/Scheduler.js&#45;&gt;./Lval.js</title>
<path fill="none" stroke="#000000" stroke-width="2" stroke-opacity="0.200000" d="M314.5675,-426.714C320.5449,-424.4349 326.0925,-421.0377 330,-416 350.6531,-389.3733 322.5313,-139.7687 343,-113 345.8759,-109.2389 349.7668,-106.4681 354.0514,-104.4308"/>
<polygon fill="#000000" fill-opacity="0.200000" stroke="#000000" stroke-width="2" stroke-opacity="0.200000" points="354.8327,-106.3802 359.6422,-102.2232 353.2902,-102.4737 354.8327,-106.3802"/>
</g>
<!-- src/Scheduler.js&#45;&gt;./SandboxStatus.js -->
<g id="edge14" class="edge">
<title>src/Scheduler.js&#45;&gt;./SandboxStatus.js</title>
<path fill="none" stroke="#000000" stroke-width="2" stroke-opacity="0.200000" d="M314.5823,-426.7254C320.5585,-424.4454 326.1019,-421.045 330,-416 352.5718,-386.7871 320.9328,-113.5959 343,-84 343.4342,-83.4177 343.8922,-82.8578 344.3719,-82.3194"/>
<polygon fill="#000000" fill-opacity="0.200000" stroke="#000000" stroke-width="2" stroke-opacity="0.200000" points="346.1131,-83.5826 349.2134,-78.033 343.329,-80.438 346.1131,-83.5826"/>
</g>
<!-- src/Scheduler.js&#45;&gt;./Thread.js -->
<g id="edge15" class="edge">
<title>src/Scheduler.js&#45;&gt;./Thread.js</title>
<path fill="none" stroke="#000000" stroke-width="2" stroke-opacity="0.200000" d="M306.5316,-440.1132C315.5454,-444.6403 324.7072,-451.0959 330,-460 353.2322,-499.0838 315.5831,-832.7289 343,-869 345.7251,-872.6051 349.3837,-875.3014 353.4326,-877.3142"/>
<polygon fill="#000000" fill-opacity="0.200000" stroke="#000000" stroke-width="2" stroke-opacity="0.200000" points="352.7964,-879.323 359.1446,-879.6565 354.39,-875.437 352.7964,-879.323"/>
</g>
<!-- src/Scheduler.js&#45;&gt;./ThreadError.js -->
<g id="edge16" class="edge">
<title>src/Scheduler.js&#45;&gt;./ThreadError.js</title>
<path fill="none" stroke="#000000" stroke-width="2" stroke-opacity="0.200000" d="M306.5584,-440.0974C315.5754,-444.6225 324.7325,-451.0809 330,-460 358.1479,-507.6609 310.2033,-913.4103 343,-958 343.4304,-958.5851 343.8849,-959.1476 344.3613,-959.6884"/>
<polygon fill="#000000" fill-opacity="0.200000" stroke="#000000" stroke-width="2" stroke-opacity="0.200000" points="343.3058,-961.5614 349.1797,-963.992 346.1036,-958.4289 343.3058,-961.5614"/>
</g>
<!-- src/Scheduler.js&#45;&gt;./options.js -->
<g id="edge12" class="edge">
<title>src/Scheduler.js&#45;&gt;./options.js</title>
<path fill="none" stroke="#000000" stroke-width="2" stroke-opacity="0.200000" d="M314.6059,-426.7437C320.5803,-424.4623 326.117,-421.0567 330,-416 356.5419,-381.4356 317.0551,-59.0148 343,-24 345.6426,-20.4335 349.1807,-17.7072 353.1075,-15.6246"/>
<polygon fill="#000000" fill-opacity="0.200000" stroke="#000000" stroke-width="2" stroke-opacity="0.200000" points="354.0213,-17.5166 358.6555,-13.1652 352.3192,-13.6769 354.0213,-17.5166"/>
</g>
<!-- src/Scheduler.js&#45;&gt;src/BaseKont.js -->
<g id="edge9" class="edge">
<title>src/Scheduler.js&#45;&gt;src/BaseKont.js</title>
<path fill="none" stroke="#000000" stroke-width="2" stroke-opacity="0.200000" d="M314.7835,-429.7124C325.3564,-429.3153 337.0767,-428.8751 347.9459,-428.4668"/>
<polygon fill="#000000" fill-opacity="0.200000" stroke="#000000" stroke-width="2" stroke-opacity="0.200000" points="348.315,-430.5545 354.232,-428.2307 348.1573,-426.3575 348.315,-430.5545"/>
</g>
<!-- src/Scheduler.js&#45;&gt;src/logger.js -->
<g id="edge10" class="edge">
<title>src/Scheduler.js&#45;&gt;src/logger.js</title>
<path fill="none" stroke="#000000" stroke-width="2" stroke-opacity="0.200000" d="M314.7835,-439.3697C327.325,-442.4315 341.4811,-445.8874 353.9158,-448.9231"/>
<polygon fill="#000000" fill-opacity="0.200000" stroke="#000000" stroke-width="2" stroke-opacity="0.200000" points="353.5403,-450.9931 359.8672,-450.376 354.5365,-446.9129 353.5403,-450.9931"/>
</g>
<!-- src/Scheduler.js&#45;&gt;src/process.js -->
<g id="edge13" class="edge">
<title>src/Scheduler.js&#45;&gt;src/process.js</title>
<path fill="none" stroke="#000000" stroke-width="2" stroke-opacity="0.200000" d="M314.6022,-425.4562C320.2877,-423.2687 325.7186,-420.2269 330,-416 343.6036,-402.5696 331.0981,-389.9592 343,-375 347.3141,-369.5777 353.0907,-365.0441 359.036,-361.3615"/>
<polygon fill="#000000" fill-opacity="0.200000" stroke="#000000" stroke-width="2" stroke-opacity="0.200000" points="360.3506,-363.0282 364.5064,-358.2178 358.2578,-359.3867 360.3506,-363.0282"/>
</g>
<!-- src/UnitBase.js -->
<g id="node27" class="node">
<title>src/UnitBase.js</title>
<g id="a_node27"><a xlink:href="src/UnitBase.js" xlink:title="UnitBase.js">
<path fill="#ffffcc" stroke="#000000" d="M412.5,-399C412.5,-399 361.5,-399 361.5,-399 358.5,-399 355.5,-396 355.5,-393 355.5,-393 355.5,-387 355.5,-387 355.5,-384 358.5,-381 361.5,-381 361.5,-381 412.5,-381 412.5,-381 415.5,-381 418.5,-384 418.5,-387 418.5,-387 418.5,-393 418.5,-393 418.5,-396 415.5,-399 412.5,-399"/>
<text text-anchor="middle" x="387" y="-387.8" font-family="Helvetica,sans-Serif" font-size="9.00" fill="#000000">UnitBase.js</text>
</a>
</g>
</g>
<!-- src/Scheduler.js&#45;&gt;src/UnitBase.js -->
<g id="edge17" class="edge">
<title>src/Scheduler.js&#45;&gt;src/UnitBase.js</title>
<path fill="none" stroke="#000000" stroke-width="2" stroke-opacity="0.200000" d="M312.6638,-421.9371C318.4799,-420.105 324.4556,-418.0938 330,-416 341.0577,-411.8241 352.9988,-406.5083 363.0807,-401.7729"/>
<polygon fill="#000000" fill-opacity="0.200000" stroke="#000000" stroke-width="2" stroke-opacity="0.200000" points="364.2628,-403.5364 368.7812,-399.0649 362.4605,-399.7427 364.2628,-403.5364"/>
</g>
<!-- src/StackCallItem.ts -->
<g id="node28" class="node">
<title>src/StackCallItem.ts</title>
<g id="a_node28"><a xlink:href="src/StackCallItem.ts" xlink:title="StackCallItem.ts">
<path fill="#ddfeff" stroke="#000000" d="M96.5,-172C96.5,-172 26.5,-172 26.5,-172 23.5,-172 20.5,-169 20.5,-166 20.5,-166 20.5,-160 20.5,-160 20.5,-157 23.5,-154 26.5,-154 26.5,-154 96.5,-154 96.5,-154 99.5,-154 102.5,-157 102.5,-160 102.5,-160 102.5,-166 102.5,-166 102.5,-169 99.5,-172 96.5,-172"/>
<text text-anchor="middle" x="61.5" y="-160.8" font-family="Helvetica,sans-Serif" font-size="9.00" fill="#000000">StackCallItem.ts</text>
</a>
</g>
</g>
<!-- src/StackCallItem.ts&#45;&gt;./options.js -->
<g id="edge18" class="edge">
<title>src/StackCallItem.ts&#45;&gt;./options.js</title>
<path fill="none" stroke="#000000" stroke-width="2" stroke-opacity="0.200000" d="M91.6207,-153.8511C96.8052,-152.0551 102.0993,-150.0784 107,-148 216.0813,-101.7378 234.1538,-70.8126 343,-24 346.2297,-22.611 349.6343,-21.2603 353.0608,-19.9752"/>
<polygon fill="#000000" fill-opacity="0.200000" stroke="#000000" stroke-width="2" stroke-opacity="0.200000" points="353.9008,-21.9043 358.821,-17.8791 352.4645,-17.9575 353.9008,-21.9043"/>
</g>
<!-- src/StackItem.ts -->
<g id="node29" class="node">
<title>src/StackItem.ts</title>
<g id="a_node29"><a xlink:href="src/StackItem.ts" xlink:title="StackItem.ts">
<path fill="#ddfeff" stroke="#000000" d="M195.5,-187C195.5,-187 142.5,-187 142.5,-187 139.5,-187 136.5,-184 136.5,-181 136.5,-181 136.5,-175 136.5,-175 136.5,-172 139.5,-169 142.5,-169 142.5,-169 195.5,-169 195.5,-169 198.5,-169 201.5,-172 201.5,-175 201.5,-175 201.5,-181 201.5,-181 201.5,-184 198.5,-187 195.5,-187"/>
<text text-anchor="middle" x="169" y="-175.8" font-family="Helvetica,sans-Serif" font-size="9.00" fill="#000000">StackItem.ts</text>
</a>
</g>
</g>
<!-- src/StackCallItem.ts&#45;&gt;src/StackItem.ts -->
<g id="edge19" class="edge">
<title>src/StackCallItem.ts&#45;&gt;src/StackItem.ts</title>
<path fill="none" stroke="#000000" stroke-width="2" stroke-opacity="0.200000" d="M102.7549,-168.7565C111.7992,-170.0185 121.3432,-171.3502 130.2838,-172.5977"/>
<polygon fill="#000000" fill-opacity="0.200000" stroke="#000000" stroke-width="2" stroke-opacity="0.200000" points="130.1308,-174.6966 136.3634,-173.4461 130.7112,-170.5369 130.1308,-174.6966"/>
</g>
<!-- src/StackGuardItem.ts -->
<g id="node30" class="node">
<title>src/StackGuardItem.ts</title>
<g id="a_node30"><a xlink:href="src/StackGuardItem.ts" xlink:title="StackGuardItem.ts">
<path fill="#ddfeff" stroke="#000000" d="M101,-202C101,-202 22,-202 22,-202 19,-202 16,-199 16,-196 16,-196 16,-190 16,-190 16,-187 19,-184 22,-184 22,-184 101,-184 101,-184 104,-184 107,-187 107,-190 107,-190 107,-196 107,-196 107,-199 104,-202 101,-202"/>
<text text-anchor="middle" x="61.5" y="-190.8" font-family="Helvetica,sans-Serif" font-size="9.00" fill="#000000">StackGuardItem.ts</text>
</a>
</g>
</g>
<!-- src/StackGuardItem.ts&#45;&gt;src/StackItem.ts -->
<g id="edge20" class="edge">
<title>src/StackGuardItem.ts&#45;&gt;src/StackItem.ts</title>
<path fill="none" stroke="#000000" stroke-width="2" stroke-opacity="0.200000" d="M107.0897,-186.6386C114.7793,-185.5657 122.697,-184.4609 130.1934,-183.4149"/>
<polygon fill="#000000" fill-opacity="0.200000" stroke="#000000" stroke-width="2" stroke-opacity="0.200000" points="130.7249,-185.4611 136.3771,-182.552 130.1445,-181.3014 130.7249,-185.4611"/>
</g>
<!-- src/StackThread.ts -->
<g id="node31" class="node">
<title>src/StackThread.ts</title>
<g id="a_node31"><a xlink:href="src/StackThread.ts" xlink:title="StackThread.ts">
<path fill="#ddfeff" stroke="#000000" d="M94,-142C94,-142 29,-142 29,-142 26,-142 23,-139 23,-136 23,-136 23,-130 23,-130 23,-127 26,-124 29,-124 29,-124 94,-124 94,-124 97,-124 100,-127 100,-130 100,-130 100,-136 100,-136 100,-139 97,-142 94,-142"/>
<text text-anchor="middle" x="61.5" y="-130.8" font-family="Helvetica,sans-Serif" font-size="9.00" fill="#000000">StackThread.ts</text>
</a>
</g>
</g>
<!-- src/StackThread.ts&#45;&gt;./StackCallItem.js -->
<g id="edge21" class="edge">
<title>src/StackThread.ts&#45;&gt;./StackCallItem.js</title>
<path fill="none" stroke="#000000" stroke-width="2" stroke-opacity="0.200000" d="M67.6361,-123.8762C77.2811,-110.1751 97.2521,-84.2691 120,-69 123.6213,-66.5693 127.6127,-64.4163 131.7071,-62.5226"/>
<polygon fill="#000000" fill-opacity="0.200000" stroke="#000000" stroke-width="2" stroke-opacity="0.200000" points="132.6505,-64.4028 137.3292,-60.0993 130.9879,-60.5459 132.6505,-64.4028"/>
</g>
<!-- src/Thread.ts -->
<g id="node32" class="node">
<title>src/Thread.ts</title>
<g id="a_node32"><a xlink:href="src/Thread.ts" xlink:title="Thread.ts">
<path fill="#ddfeff" stroke="#000000" d="M302,-544C302,-544 259,-544 259,-544 256,-544 253,-541 253,-538 253,-538 253,-532 253,-532 253,-529 256,-526 259,-526 259,-526 302,-526 302,-526 305,-526 308,-529 308,-532 308,-532 308,-538 308,-538 308,-541 305,-544 302,-544"/>
<text text-anchor="middle" x="280.5" y="-532.8" font-family="Helvetica,sans-Serif" font-size="9.00" fill="#000000">Thread.ts</text>
</a>
</g>
</g>
<!-- src/Thread.ts&#45;&gt;./Lval.js -->
<g id="edge23" class="edge">
<title>src/Thread.ts&#45;&gt;./Lval.js</title>
<path fill="none" stroke="#000000" stroke-width="2" stroke-opacity="0.200000" d="M308.1901,-532.7622C316.4815,-530.6599 324.7539,-526.8404 330,-520 357.5345,-484.0975 315.7142,-149.0918 343,-113 345.8553,-109.2232 349.7351,-106.444 354.0147,-104.403"/>
<polygon fill="#000000" fill-opacity="0.200000" stroke="#000000" stroke-width="2" stroke-opacity="0.200000" points="354.7953,-106.3526 359.6024,-102.193 353.2506,-102.447 354.7953,-106.3526"/>
</g>
<!-- src/Thread.ts&#45;&gt;./ThreadError.js -->
<g id="edge24" class="edge">
<title>src/Thread.ts&#45;&gt;./ThreadError.js</title>
<path fill="none" stroke="#000000" stroke-width="2" stroke-opacity="0.200000" d="M308.1905,-537.2376C316.4818,-539.3399 324.7542,-543.1594 330,-550 357.6007,-585.9917 316.0209,-921.5401 343,-958 343.4321,-958.5839 343.8881,-959.1452 344.3659,-959.685"/>
<polygon fill="#000000" fill-opacity="0.200000" stroke="#000000" stroke-width="2" stroke-opacity="0.200000" points="343.316,-961.5617 349.1946,-963.981 346.1078,-958.4238 343.316,-961.5617"/>
</g>
<!-- src/Thread.ts&#45;&gt;src/logger.js -->
<g id="edge22" class="edge">
<title>src/Thread.ts&#45;&gt;src/logger.js</title>
<path fill="none" stroke="#000000" stroke-width="2" stroke-opacity="0.200000" d="M308.1072,-529.4867C315.5703,-527.2533 323.401,-524.1815 330,-520 350.0183,-507.3154 367.3617,-485.7366 377.5023,-471.4247"/>
<polygon fill="#000000" fill-opacity="0.200000" stroke="#000000" stroke-width="2" stroke-opacity="0.200000" points="379.4659,-472.2772 381.1493,-466.1472 376.0106,-469.8894 379.4659,-472.2772"/>
</g>
<!-- src/ThreadError.ts -->
<g id="node33" class="node">
<title>src/ThreadError.ts</title>
<g id="a_node33"><a xlink:href="src/ThreadError.ts" xlink:title="ThreadError.ts">
<path fill="#ddfeff" stroke="#000000" d="M312,-514C312,-514 249,-514 249,-514 246,-514 243,-511 243,-508 243,-508 243,-502 243,-502 243,-499 246,-496 249,-496 249,-496 312,-496 312,-496 315,-496 318,-499 318,-502 318,-502 318,-508 318,-508 318,-511 315,-514 312,-514"/>
<text text-anchor="middle" x="280.5" y="-502.8" font-family="Helvetica,sans-Serif" font-size="9.00" fill="#000000">ThreadError.ts</text>
</a>
</g>
</g>
<!-- src/ValuesUtil.js -->
<g id="node34" class="node">
<title>src/ValuesUtil.js</title>
<g id="a_node34"><a xlink:href="src/ValuesUtil.js" xlink:title="ValuesUtil.js">
<path fill="#ffffcc" stroke="#000000" d="M308.5,-172C308.5,-172 252.5,-172 252.5,-172 249.5,-172 246.5,-169 246.5,-166 246.5,-166 246.5,-160 246.5,-160 246.5,-157 249.5,-154 252.5,-154 252.5,-154 308.5,-154 308.5,-154 311.5,-154 314.5,-157 314.5,-160 314.5,-160 314.5,-166 314.5,-166 314.5,-169 311.5,-172 308.5,-172"/>
<text text-anchor="middle" x="280.5" y="-160.8" font-family="Helvetica,sans-Serif" font-size="9.00" fill="#000000">ValuesUtil.js</text>
</a>
</g>
</g>
<!-- src/levels/lohi.js -->
<g id="node35" class="node">
<title>src/levels/lohi.js</title>
<g id="a_node35"><a xlink:href="src/levels/lohi.js" xlink:title="lohi.js">
<path fill="#ffffcc" stroke="#000000" d="M301.5,-754C301.5,-754 259.5,-754 259.5,-754 256.5,-754 253.5,-751 253.5,-748 253.5,-748 253.5,-742 253.5,-742 253.5,-739 256.5,-736 259.5,-736 259.5,-736 301.5,-736 301.5,-736 304.5,-736 307.5,-739 307.5,-742 307.5,-742 307.5,-748 307.5,-748 307.5,-751 304.5,-754 301.5,-754"/>
<text text-anchor="middle" x="280.5" y="-742.8" font-family="Helvetica,sans-Serif" font-size="9.00" fill="#000000">lohi.js</text>
</a>
</g>
</g>
<!-- src/levels/lohi.js&#45;&gt;../Level.js -->
<g id="edge25" class="edge">
<title>src/levels/lohi.js&#45;&gt;../Level.js</title>
<path fill="none" stroke="#000000" stroke-width="2" stroke-opacity="0.200000" d="M307.5232,-748.7618C315.2207,-750.6896 323.3214,-753.602 330,-758 352.4854,-772.8072 369.9413,-799.4733 379.3279,-816.1513"/>
<polygon fill="#000000" fill-opacity="0.200000" stroke="#000000" stroke-width="2" stroke-opacity="0.200000" points="377.696,-817.5446 382.4153,-821.8035 381.3819,-815.5311 377.696,-817.5446"/>
</g>
<!-- src/levels/tagsets.ts -->
<g id="node36" class="node">
<title>src/levels/tagsets.ts</title>
<g id="a_node36"><a xlink:href="src/levels/tagsets.ts" xlink:title="tagsets.ts">
<path fill="#ddfeff" stroke="#000000" d="M302,-724C302,-724 259,-724 259,-724 256,-724 253,-721 253,-718 253,-718 253,-712 253,-712 253,-709 256,-706 259,-706 259,-706 302,-706 302,-706 305,-706 308,-709 308,-712 308,-712 308,-718 308,-718 308,-721 305,-724 302,-724"/>
<text text-anchor="middle" x="280.5" y="-712.8" font-family="Helvetica,sans-Serif" font-size="9.00" fill="#000000">tagsets.ts</text>
</a>
</g>
</g>
<!-- src/levels/tagsets.ts&#45;&gt;../Level.js -->
<g id="edge26" class="edge">
<title>src/levels/tagsets.ts&#45;&gt;../Level.js</title>
<path fill="none" stroke="#000000" stroke-width="2" stroke-opacity="0.200000" d="M308.2499,-719.441C315.8808,-721.6663 323.7638,-725.002 330,-730 358.4565,-752.8061 375.1789,-793.8981 382.5267,-815.9855"/>
<polygon fill="#000000" fill-opacity="0.200000" stroke="#000000" stroke-width="2" stroke-opacity="0.200000" points="380.6018,-816.8607 384.4309,-821.935 384.602,-815.5804 380.6018,-816.8607"/>
</g>
<!-- src/levels/tagsets.ts&#45;&gt;src/logger.js -->
<g id="edge27" class="edge">
<title>src/levels/tagsets.ts&#45;&gt;src/logger.js</title>
<path fill="none" stroke="#000000" stroke-width="2" stroke-opacity="0.200000" d="M308.0834,-713.64C316.2657,-711.8444 324.5003,-708.4033 330,-702 347.9084,-681.1495 336.8486,-605.7884 343,-579 352.1592,-539.1136 370.4923,-494.3665 380.3556,-471.767"/>
<polygon fill="#000000" fill-opacity="0.200000" stroke="#000000" stroke-width="2" stroke-opacity="0.200000" points="382.2852,-472.5956 382.7842,-466.2583 378.4422,-470.9012 382.2852,-472.5956"/>
</g>
<!-- src/loadLibs.js -->
<g id="node37" class="node">
<title>src/loadLibs.js</title>
<g id="a_node37"><a xlink:href="src/loadLibs.js" xlink:title="loadLibs.js">
<path fill="#ffffcc" stroke="#000000" d="M305,-262C305,-262 256,-262 256,-262 253,-262 250,-259 250,-256 250,-256 250,-250 250,-250 250,-247 253,-244 256,-244 256,-244 305,-244 305,-244 308,-244 311,-247 311,-250 311,-250 311,-256 311,-256 311,-259 308,-262 305,-262"/>
<text text-anchor="middle" x="280.5" y="-250.8" font-family="Helvetica,sans-Serif" font-size="9.00" fill="#000000">loadLibs.js</text>
</a>
</g>
</g>
<!-- src/loadLibs.js&#45;&gt;fs -->
<g id="edge29" class="edge">
<title>src/loadLibs.js&#45;&gt;fs</title>
<path fill="none" stroke="#000000" stroke-dasharray="5,2" stroke-opacity="0.200000" d="M311.1373,-249.7693C318.3482,-247.5373 325.295,-243.8956 330,-238 355.5686,-205.961 317.9849,-86.473 343,-54 345.9089,-50.2238 349.8176,-47.3916 354.11,-45.2689"/>
<polygon fill="#000000" fill-opacity="0.200000" stroke="#000000" stroke-opacity="0.200000" points="354.9721,-47.1848 359.7058,-42.9418 353.3593,-43.3068 354.9721,-47.1848"/>
</g>
<!-- src/loadLibs.js&#45;&gt;src/logger.js -->
<g id="edge28" class="edge">
<title>src/loadLibs.js&#45;&gt;src/logger.js</title>
<path fill="none" stroke="#000000" stroke-width="2" stroke-opacity="0.200000" d="M311.1212,-256.2436C318.3322,-258.4755 325.2831,-262.1139 330,-268 354.2472,-298.2577 319.2755,-411.3307 343,-442 345.9165,-445.7703 349.8294,-448.5993 354.1235,-450.7207"/>
<polygon fill="#000000" fill-opacity="0.200000" stroke="#000000" stroke-width="2" stroke-opacity="0.200000" points="353.3739,-452.6832 359.7204,-453.0469 354.9859,-448.8049 353.3739,-452.6832"/>
</g>
<!-- src/options.ts -->
<g id="node38" class="node">
<title>src/options.ts</title>
<g id="a_node38"><a xlink:href="src/options.ts" xlink:title="options.ts">
<path fill="#ddfeff" stroke="#000000" d="M302.5,-690C302.5,-690 258.5,-690 258.5,-690 255.5,-690 252.5,-687 252.5,-684 252.5,-684 252.5,-678 252.5,-678 252.5,-675 255.5,-672 258.5,-672 258.5,-672 302.5,-672 302.5,-672 305.5,-672 308.5,-675 308.5,-678 308.5,-678 308.5,-684 308.5,-684 308.5,-687 305.5,-690 302.5,-690"/>
<text text-anchor="middle" x="280.5" y="-678.8" font-family="Helvetica,sans-Serif" font-size="9.00" fill="#000000">options.ts</text>
</a>
</g>
</g>
<!-- src/p2p/libp2p&#45;bundle.js -->
<g id="node39" class="node">
<title>src/p2p/libp2p&#45;bundle.js</title>
<g id="a_node39"><a xlink:href="src/p2p/libp2p-bundle.js" xlink:title="libp2p&#45;bundle.js">
<path fill="#ffffcc" stroke="#000000" d="M422.5,-620C422.5,-620 351.5,-620 351.5,-620 348.5,-620 345.5,-617 345.5,-614 345.5,-614 345.5,-608 345.5,-608 345.5,-605 348.5,-602 351.5,-602 351.5,-602 422.5,-602 422.5,-602 425.5,-602 428.5,-605 428.5,-608 428.5,-608 428.5,-614 428.5,-614 428.5,-617 425.5,-620 422.5,-620"/>
<text text-anchor="middle" x="387" y="-608.8" font-family="Helvetica,sans-Serif" font-size="9.00" fill="#000000">libp2p&#45;bundle.js</text>
</a>
</g>
</g>
<!-- src/p2p/p2pconfig.js -->
<g id="node40" class="node">
<title>src/p2p/p2pconfig.js</title>
<g id="a_node40"><a xlink:href="src/p2p/p2pconfig.js" xlink:title="p2pconfig.js">
<path fill="#ffffcc" stroke="#000000" d="M504,-631C504,-631 450,-631 450,-631 447,-631 444,-628 444,-625 444,-625 444,-619 444,-619 444,-616 447,-613 450,-613 450,-613 504,-613 504,-613 507,-613 510,-616 510,-619 510,-619 510,-625 510,-625 510,-628 507,-631 504,-631"/>
<text text-anchor="middle" x="477" y="-619.8" font-family="Helvetica,sans-Serif" font-size="9.00" fill="#000000">p2pconfig.js</text>
</a>
</g>
</g>
<!-- src/p2p/libp2p&#45;bundle.js&#45;&gt;src/p2p/p2pconfig.js -->
<g id="edge30" class="edge">
<title>src/p2p/libp2p&#45;bundle.js&#45;&gt;src/p2p/p2pconfig.js</title>
<path fill="none" stroke="#000000" stroke-width="2" stroke-opacity="0.200000" d="M428.5752,-616.0814C431.6381,-616.4558 434.7222,-616.8327 437.7704,-617.2053"/>
<polygon fill="#000000" fill-opacity="0.200000" stroke="#000000" stroke-width="2" stroke-opacity="0.200000" points="437.748,-619.3181 443.9585,-617.9616 438.2576,-615.1491 437.748,-619.3181"/>
</g>
<!-- src/p2p/mkid.js -->
<g id="node41" class="node">
<title>src/p2p/mkid.js</title>
<g id="a_node41"><a xlink:href="src/p2p/mkid.js" xlink:title="mkid.js">
<path fill="#ffffcc" stroke="#000000" d="M301.5,-608C301.5,-608 259.5,-608 259.5,-608 256.5,-608 253.5,-605 253.5,-602 253.5,-602 253.5,-596 253.5,-596 253.5,-593 256.5,-590 259.5,-590 259.5,-590 301.5,-590 301.5,-590 304.5,-590 307.5,-593 307.5,-596 307.5,-596 307.5,-602 307.5,-602 307.5,-605 304.5,-608 301.5,-608"/>
<text text-anchor="middle" x="280.5" y="-596.8" font-family="Helvetica,sans-Serif" font-size="9.00" fill="#000000">mkid.js</text>
</a>
</g>
</g>
<!-- src/p2p/mkid.js&#45;&gt;fs -->
<g id="edge31" class="edge">
<title>src/p2p/mkid.js&#45;&gt;fs</title>
<path fill="none" stroke="#000000" stroke-dasharray="5,2" stroke-opacity="0.200000" d="M307.6189,-598.0611C316.0782,-596.3352 324.5982,-592.8294 330,-586 366.6811,-539.6243 308.0054,-101.6611 343,-54 345.8883,-50.0663 349.867,-47.154 354.2599,-45.0001"/>
<polygon fill="#000000" fill-opacity="0.200000" stroke="#000000" stroke-opacity="0.200000" points="355.2344,-46.8706 359.9948,-42.6576 353.6462,-42.9824 355.2344,-46.8706"/>
</g>
<!-- src/p2p/p2p.js -->
<g id="node42" class="node">
<title>src/p2p/p2p.js</title>
<g id="a_node42"><a xlink:href="src/p2p/p2p.js" xlink:title="p2p.js">
<path fill="#ffffcc" stroke="#000000" d="M301.5,-638C301.5,-638 259.5,-638 259.5,-638 256.5,-638 253.5,-635 253.5,-632 253.5,-632 253.5,-626 253.5,-626 253.5,-623 256.5,-620 259.5,-620 259.5,-620 301.5,-620 301.5,-620 304.5,-620 307.5,-623 307.5,-626 307.5,-626 307.5,-632 307.5,-632 307.5,-635 304.5,-638 301.5,-638"/>
<text text-anchor="middle" x="280.5" y="-626.8" font-family="Helvetica,sans-Serif" font-size="9.00" fill="#000000">p2p.js</text>
</a>
</g>
</g>
<!-- src/p2p/p2p.js&#45;&gt;src/logger.js -->
<g id="edge32" class="edge">
<title>src/p2p/p2p.js&#45;&gt;src/logger.js</title>
<path fill="none" stroke="#000000" stroke-width="2" stroke-opacity="0.200000" d="M307.5179,-625.5561C315.5708,-623.3696 323.8724,-619.8052 330,-614 330.6806,-613.3552 367.5036,-511.1722 381.5951,-472.0228"/>
<polygon fill="#000000" fill-opacity="0.200000" stroke="#000000" stroke-width="2" stroke-opacity="0.200000" points="383.5966,-472.6627 383.6525,-466.306 379.6447,-471.2404 383.5966,-472.6627"/>
</g>
<!-- src/p2p/p2p.js&#45;&gt;src/p2p/libp2p&#45;bundle.js -->
<g id="edge33" class="edge">
<title>src/p2p/p2p.js&#45;&gt;src/p2p/libp2p&#45;bundle.js</title>
<path fill="none" stroke="#000000" stroke-width="2" stroke-opacity="0.200000" d="M307.65,-624.4113C317.3217,-622.7766 328.5195,-620.884 339.3991,-619.0452"/>
<polygon fill="#000000" fill-opacity="0.200000" stroke="#000000" stroke-width="2" stroke-opacity="0.200000" points="339.8328,-621.1018 345.399,-618.0312 339.1329,-616.9605 339.8328,-621.1018"/>
</g>
<!-- src/p2p/p2p.js&#45;&gt;src/p2p/p2pconfig.js -->
<g id="edge34" class="edge">
<title>src/p2p/p2p.js&#45;&gt;src/p2p/p2pconfig.js</title>
<path fill="none" stroke="#000000" stroke-width="2" stroke-opacity="0.200000" d="M307.7082,-629.0037C337.8668,-628.8805 387.9408,-628.2987 431,-626 433.2113,-625.8819 435.4811,-625.7428 437.7709,-625.5885"/>
<polygon fill="#000000" fill-opacity="0.200000" stroke="#000000" stroke-width="2" stroke-opacity="0.200000" points="438.0197,-627.6761 443.8525,-625.1486 437.7166,-623.487 438.0197,-627.6761"/>
</g>
<!-- util -->
<g id="node43" class="node">
<title>util</title>
<path fill="#ffffcc" stroke="#c0c0c0" d="M408,-1072C408,-1072 366,-1072 366,-1072 363,-1072 360,-1069 360,-1066 360,-1066 360,-1060 360,-1060 360,-1057 363,-1054 366,-1054 366,-1054 408,-1054 408,-1054 411,-1054 414,-1057 414,-1060 414,-1060 414,-1066 414,-1066 414,-1069 411,-1072 408,-1072"/>
<text text-anchor="middle" x="387" y="-1060.8" font-family="Helvetica,sans-Serif" font-size="9.00" fill="#c0c0c0">util</text>
</g>
<!-- src/p2p/p2p.js&#45;&gt;util -->
<g id="edge35" class="edge">
<title>src/p2p/p2p.js&#45;&gt;util</title>
<path fill="none" stroke="#000000" stroke-dasharray="5,2" stroke-opacity="0.200000" d="M307.5894,-629.9624C316.0463,-631.6902 324.5724,-635.1911 330,-642 358.1334,-677.2932 316.1502,-1011.7207 343,-1048 345.8356,-1051.8315 349.7049,-1054.6935 353.9799,-1056.8294"/>
<polygon fill="#000000" fill-opacity="0.200000" stroke="#000000" stroke-opacity="0.200000" points="353.2189,-1058.7873 359.5646,-1059.1648 354.8393,-1054.9125 353.2189,-1058.7873"/>
</g>
<!-- src/runtimeMonitored.js -->
<g id="node44" class="node">
<title>src/runtimeMonitored.js</title>
<g id="a_node44"><a xlink:href="src/runtimeMonitored.js" xlink:title="runtimeMonitored.js">
<path fill="#ffffcc" stroke="#000000" d="M212,-410C212,-410 126,-410 126,-410 123,-410 120,-407 120,-404 120,-404 120,-398 120,-398 120,-395 123,-392 126,-392 126,-392 212,-392 212,-392 215,-392 218,-395 218,-398 218,-398 218,-404 218,-404 218,-407 215,-410 212,-410"/>
<text text-anchor="middle" x="169" y="-398.8" font-family="Helvetica,sans-Serif" font-size="9.00" fill="#000000">runtimeMonitored.js</text>
</a>
</g>
</g>
<!-- src/runtimeMonitored.js&#45;&gt;assert -->
<g id="edge54" class="edge">
<title>src/runtimeMonitored.js&#45;&gt;assert</title>
<path fill="none" stroke="#000000" stroke-dasharray="5,2" stroke-opacity="0.200000" d="M169.6927,-410.1411C174.3068,-470.0058 201.3186,-804.6629 231,-838 261.2509,-871.9767 300.7248,-829.1792 330,-864 352.1011,-890.2878 321.8556,-990.9367 343,-1018 345.9347,-1021.7562 349.8573,-1024.5776 354.1557,-1026.6956"/>
<polygon fill="#000000" fill-opacity="0.200000" stroke="#000000" stroke-opacity="0.200000" points="353.4087,-1028.6592 359.7554,-1029.0197 355.0187,-1024.7801 353.4087,-1028.6592"/>
</g>
<!-- src/runtimeMonitored.js&#45;&gt;fs -->
<g id="edge55" class="edge">
<title>src/runtimeMonitored.js&#45;&gt;fs</title>
<path fill="none" stroke="#000000" stroke-dasharray="5,2" stroke-opacity="0.200000" d="M171.3444,-391.9194C178.7657,-363.0028 202.1851,-270.4234 218,-193 224.7706,-159.8541 208.4715,-143.2381 231,-118 261.532,-83.7959 296.4547,-120.2544 330,-89 342.1409,-77.6882 331.1085,-65.5737 343,-54 346.1809,-50.9041 350.026,-48.4461 354.103,-46.4947"/>
<polygon fill="#000000" fill-opacity="0.200000" stroke="#000000" stroke-opacity="0.200000" points="355.0348,-48.3816 359.7658,-44.1356 353.4196,-44.5046 355.0348,-48.3816"/>
</g>
<!-- src/runtimeMonitored.js&#45;&gt;os -->
<g id="edge56" class="edge">
<title>src/runtimeMonitored.js&#45;&gt;os</title>
<path fill="none" stroke="#000000" stroke-dasharray="5,2" stroke-opacity="0.200000" d="M169.6688,-410.1865C174.233,-471.866 201.4945,-824.3635 231,-861 235.2596,-866.2891 241.2136,-870.0243 247.5205,-872.662"/>
<polygon fill="#000000" fill-opacity="0.200000" stroke="#000000" stroke-opacity="0.200000" points="247.0167,-874.7133 253.3731,-874.789 248.4513,-870.7659 247.0167,-874.7133"/>
</g>
<!-- src/runtimeMonitored.js&#45;&gt;readline -->
<g id="edge57" class="edge">
<title>src/runtimeMonitored.js&#45;&gt;readline</title>
<path fill="none" stroke="#000000" stroke-dasharray="5,2" stroke-opacity="0.200000" d="M169.0919,-410.1378C169.8246,-464.6774 176.2492,-746.95 231,-809 235.343,-813.922 241.2726,-817.1718 247.5197,-819.3038"/>
<polygon fill="#000000" fill-opacity="0.200000" stroke="#000000" stroke-opacity="0.200000" points="246.9632,-821.3288 253.3096,-820.9634 248.1205,-817.2914 246.9632,-821.3288"/>
</g>
<!-- src/runtimeMonitored.js&#45;&gt;src/Authority.ts -->
<g id="edge36" class="edge">
<title>src/runtimeMonitored.js&#45;&gt;src/Authority.ts</title>
<path fill="none" stroke="#000000" stroke-width="2" stroke-opacity="0.200000" d="M171.1047,-391.8807C181.451,-347.122 226.5968,-152.6472 231,-148 234.5513,-144.2519 239.0045,-141.4308 243.7753,-139.3093"/>
<polygon fill="#000000" fill-opacity="0.200000" stroke="#000000" stroke-width="2" stroke-opacity="0.200000" points="244.6317,-141.2302 249.4868,-137.1267 243.1324,-137.307 244.6317,-141.2302"/>
</g>
<!-- src/runtimeMonitored.js&#45;&gt;src/BaseFunction.ts -->
<g id="edge37" class="edge">
<title>src/runtimeMonitored.js&#45;&gt;src/BaseFunction.ts</title>
<path fill="none" stroke="#000000" stroke-width="2" stroke-opacity="0.200000" d="M170.7892,-391.7639C177.6848,-357.0538 203.5252,-235.0226 231,-208 231.9883,-207.028 233.0374,-206.1186 234.1364,-205.2679"/>
<polygon fill="#000000" fill-opacity="0.200000" stroke="#000000" stroke-width="2" stroke-opacity="0.200000" points="235.3883,-206.9579 239.2407,-201.9013 233.0757,-203.4519 235.3883,-206.9579"/>
</g>
<!-- src/runtimeMonitored.js&#45;&gt;src/Level.ts -->
<g id="edge38" class="edge">
<title>src/runtimeMonitored.js&#45;&gt;src/Level.ts</title>
<path fill="none" stroke="#000000" stroke-width="2" stroke-opacity="0.200000" d="M169.7439,-391.701C172.46,-364.0537 184.2911,-281.5821 231,-238 235.5795,-233.7271 241.3381,-230.6691 247.2934,-228.4811"/>
<polygon fill="#000000" fill-opacity="0.200000" stroke="#000000" stroke-width="2" stroke-opacity="0.200000" points="248.2009,-230.3959 253.2779,-226.5704 246.9234,-226.3949 248.2009,-230.3959"/>
</g>
<!-- src/runtimeMonitored.js&#45;&gt;src/Lval.ts -->
<g id="edge41" class="edge">
<title>src/runtimeMonitored.js&#45;&gt;src/Lval.ts</title>
<path fill="none" stroke="#000000" stroke-width="2" stroke-opacity="0.200000" d="M176.9716,-391.8677C188.0244,-379.6948 209.1265,-358.1617 231,-345 236.1712,-341.8884 241.9662,-339.1848 247.7195,-336.8856"/>
<polygon fill="#000000" fill-opacity="0.200000" stroke="#000000" stroke-width="2" stroke-opacity="0.200000" points="248.5672,-338.8102 253.4344,-334.7211 247.0795,-334.8825 248.5672,-338.8102"/>
</g>
<!-- src/runtimeMonitored.js&#45;&gt;src/MailboxProcessor.js -->
<g id="edge42" class="edge">
<title>src/runtimeMonitored.js&#45;&gt;src/MailboxProcessor.js</title>
<path fill="none" stroke="#000000" stroke-width="2" stroke-opacity="0.200000" d="M172.2714,-391.8541C179.6871,-372.377 199.6087,-326.5039 231,-301 233.9342,-298.6161 237.2118,-296.5327 240.6452,-294.7149"/>
<polygon fill="#000000" fill-opacity="0.200000" stroke="#000000" stroke-width="2" stroke-opacity="0.200000" points="241.6445,-296.5646 246.142,-292.0721 239.8245,-292.7794 241.6445,-296.5646"/>
</g>
<!-- src/runtimeMonitored.js&#45;&gt;src/logger.js -->
<g id="edge40" class="edge">
<title>src/runtimeMonitored.js&#45;&gt;src/logger.js</title>
<path fill="none" stroke="#000000" stroke-width="2" stroke-opacity="0.200000" d="M178.0965,-410.2047C189.3843,-420.9595 209.7536,-438.2657 231,-446 252.7954,-453.9341 314.9875,-456.1774 353.9444,-456.792"/>
<polygon fill="#000000" fill-opacity="0.200000" stroke="#000000" stroke-width="2" stroke-opacity="0.200000" points="353.9585,-458.8923 359.9875,-456.8772 354.0178,-454.6927 353.9585,-458.8923"/>
</g>
<!-- src/runtimeMonitored.js&#45;&gt;src/process.js -->
<g id="edge46" class="edge">
<title>src/runtimeMonitored.js&#45;&gt;src/process.js</title>
<path fill="none" stroke="#000000" stroke-width="2" stroke-opacity="0.200000" d="M178.0637,-391.7032C189.3191,-380.8577 209.6565,-363.4622 231,-356 270.5869,-342.1595 319.2913,-342.4894 351.6408,-344.9182"/>
<polygon fill="#000000" fill-opacity="0.200000" stroke="#000000" stroke-width="2" stroke-opacity="0.200000" points="351.734,-347.0327 357.8851,-345.4283 352.0761,-342.8466 351.734,-347.0327"/>
</g>
<!-- src/runtimeMonitored.js&#45;&gt;src/NodeManager.js -->
<g id="edge43" class="edge">
<title>src/runtimeMonitored.js&#45;&gt;src/NodeManager.js</title>
<path fill="none" stroke="#000000" stroke-width="2" stroke-opacity="0.200000" d="M170.1108,-410.2504C173.7303,-436.2641 187.574,-510.7162 231,-550 232.028,-550.93 233.1121,-551.8023 234.2416,-552.6206"/>
<polygon fill="#000000" fill-opacity="0.200000" stroke="#000000" stroke-width="2" stroke-opacity="0.200000" points="233.2514,-554.478 239.4533,-555.8733 235.4752,-550.915 233.2514,-554.478"/>
</g>
<!-- src/runtimeMonitored.js&#45;&gt;src/RtClosure.js -->
<g id="edge47" class="edge">
<title>src/runtimeMonitored.js&#45;&gt;src/RtClosure.js</title>
<path fill="none" stroke="#000000" stroke-width="2" stroke-opacity="0.200000" d="M202.4537,-391.999C214.4711,-388.7656 228.1435,-385.087 240.6506,-381.7218"/>
<polygon fill="#000000" fill-opacity="0.200000" stroke="#000000" stroke-width="2" stroke-opacity="0.200000" points="241.4363,-383.6852 246.6846,-380.0983 240.345,-379.6294 241.4363,-383.6852"/>
</g>
<!-- src/runtimeMonitored.js&#45;&gt;src/SandboxStatus.ts -->
<g id="edge48" class="edge">
<title>src/runtimeMonitored.js&#45;&gt;src/SandboxStatus.ts</title>
<path fill="none" stroke="#000000" stroke-width="2" stroke-opacity="0.200000" d="M218.2301,-401C222.2117,-401 226.2383,-401 230.2271,-401"/>
<polygon fill="#000000" fill-opacity="0.200000" stroke="#000000" stroke-width="2" stroke-opacity="0.200000" points="230.4523,-403.1001 236.4523,-401 230.4522,-398.9001 230.4523,-403.1001"/>
</g>
<!-- src/runtimeMonitored.js&#45;&gt;src/Scheduler.js -->
<g id="edge49" class="edge">
<title>src/runtimeMonitored.js&#45;&gt;src/Scheduler.js</title>
<path fill="none" stroke="#000000" stroke-width="2" stroke-opacity="0.200000" d="M202.4537,-410.001C214.4711,-413.2344 228.1435,-416.913 240.6506,-420.2782"/>
<polygon fill="#000000" fill-opacity="0.200000" stroke="#000000" stroke-width="2" stroke-opacity="0.200000" points="240.345,-422.3706 246.6846,-421.9017 241.4363,-418.3148 240.345,-422.3706"/>
</g>
<!-- src/runtimeMonitored.js&#45;&gt;src/UnitBase.js -->
<g id="edge52" class="edge">
<title>src/runtimeMonitored.js&#45;&gt;src/UnitBase.js</title>
<path fill="none" stroke="#000000" stroke-width="2" stroke-opacity="0.200000" d="M172.1215,-391.7329C179.1271,-372.6177 198.1151,-329.1691 231,-312 250.502,-301.8181 312.6595,-298.4609 330,-312 348.7769,-326.6606 328.7536,-344.9069 343,-364 347.1438,-369.5536 352.854,-374.1384 358.7893,-377.8286"/>
<polygon fill="#000000" fill-opacity="0.200000" stroke="#000000" stroke-width="2" stroke-opacity="0.200000" points="358.0152,-379.8055 364.2648,-380.9683 360.1044,-376.162 358.0152,-379.8055"/>
</g>
<!-- src/runtimeMonitored.js&#45;&gt;src/ThreadError.ts -->
<g id="edge51" class="edge">
<title>src/runtimeMonitored.js&#45;&gt;src/ThreadError.ts</title>
<path fill="none" stroke="#000000" stroke-width="2" stroke-opacity="0.200000" d="M172.8228,-410.0753C180.8688,-428.0753 201.2918,-468.4172 231,-490 233.0432,-491.4844 235.235,-492.8237 237.518,-494.0318"/>
<polygon fill="#000000" fill-opacity="0.200000" stroke="#000000" stroke-width="2" stroke-opacity="0.200000" points="236.6619,-495.95 242.9835,-496.6194 238.4591,-492.1539 236.6619,-495.95"/>
</g>
<!-- src/runtimeMonitored.js&#45;&gt;src/ValuesUtil.js -->
<g id="edge53" class="edge">
<title>src/runtimeMonitored.js&#45;&gt;src/ValuesUtil.js</title>
<path fill="none" stroke="#000000" stroke-width="2" stroke-opacity="0.200000" d="M170.3407,-391.9324C176.0945,-354.1729 199.8259,-209.9013 231,-178 233.7595,-175.1762 237.0312,-172.8799 240.5579,-171.0132"/>
<polygon fill="#000000" fill-opacity="0.200000" stroke="#000000" stroke-width="2" stroke-opacity="0.200000" points="241.6771,-172.8114 246.2727,-168.4193 239.9412,-168.9869 241.6771,-172.8114"/>
</g>
<!-- src/runtimeMonitored.js&#45;&gt;src/loadLibs.js -->
<g id="edge39" class="edge">
<title>src/runtimeMonitored.js&#45;&gt;src/loadLibs.js</title>
<path fill="none" stroke="#000000" stroke-width="2" stroke-opacity="0.200000" d="M170.6341,-391.6961C175.3662,-367.5515 191.352,-302.3836 231,-268 234.852,-264.6594 239.4305,-262.0628 244.2236,-260.0445"/>
<polygon fill="#000000" fill-opacity="0.200000" stroke="#000000" stroke-width="2" stroke-opacity="0.200000" points="245.024,-261.9875 249.9183,-257.9308 243.5625,-258.0499 245.024,-261.9875"/>
</g>
<!-- src/runtimeMonitored.js&#45;&gt;src/options.ts -->
<g id="edge44" class="edge">
<title>src/runtimeMonitored.js&#45;&gt;src/options.ts</title>
<path fill="none" stroke="#000000" stroke-width="2" stroke-opacity="0.200000" d="M169.887,-410.0593C174.1864,-452.1752 194.1686,-628.4097 231,-667 235.2084,-671.4094 240.6911,-674.4627 246.4696,-676.5697"/>
<polygon fill="#000000" fill-opacity="0.200000" stroke="#000000" stroke-width="2" stroke-opacity="0.200000" points="245.9578,-678.6094 252.3104,-678.3763 247.199,-674.597 245.9578,-678.6094"/>
</g>
<!-- src/runtimeMonitored.js&#45;&gt;src/p2p/p2p.js -->
<g id="edge45" class="edge">
<title>src/runtimeMonitored.js&#45;&gt;src/p2p/p2p.js</title>
<path fill="none" stroke="#000000" stroke-width="2" stroke-opacity="0.200000" d="M170.4816,-410.1588C176.611,-446.9872 201.0727,-583.7423 231,-614 235.4518,-618.501 241.2057,-621.6605 247.2069,-623.876"/>
<polygon fill="#000000" fill-opacity="0.200000" stroke="#000000" stroke-width="2" stroke-opacity="0.200000" points="246.8974,-625.9808 253.2515,-625.7917 248.1663,-621.9771 246.8974,-625.9808"/>
</g>
<!-- src/runtimeMonitored.js&#45;&gt;util -->
<g id="edge58" class="edge">
<title>src/runtimeMonitored.js&#45;&gt;util</title>
<path fill="none" stroke="#000000" stroke-dasharray="5,2" stroke-opacity="0.200000" d="M169.1726,-410.2584C170.3465,-463.0865 178.7771,-726.0552 231,-783 261.6727,-816.4461 301.1559,-772.9646 330,-808 363.9481,-849.2349 310.7536,-1005.4211 343,-1048 345.8778,-1051.7999 349.7698,-1054.6449 354.0548,-1056.7733"/>
<polygon fill="#000000" fill-opacity="0.200000" stroke="#000000" stroke-opacity="0.200000" points="353.2997,-1058.7337 359.6459,-1059.104 354.9158,-1054.857 353.2997,-1058.7337"/>
</g>
<!-- src/serialize.js -->
<g id="node45" class="node">
<title>src/serialize.js</title>
<g id="a_node45"><a xlink:href="src/serialize.js" xlink:title="serialize.js">
<path fill="#ffffcc" stroke="#000000" d="M304.5,-484C304.5,-484 256.5,-484 256.5,-484 253.5,-484 250.5,-481 250.5,-478 250.5,-478 250.5,-472 250.5,-472 250.5,-469 253.5,-466 256.5,-466 256.5,-466 304.5,-466 304.5,-466 307.5,-466 310.5,-469 310.5,-472 310.5,-472 310.5,-478 310.5,-478 310.5,-481 307.5,-484 304.5,-484"/>
<text text-anchor="middle" x="280.5" y="-472.8" font-family="Helvetica,sans-Serif" font-size="9.00" fill="#000000">serialize.js</text>
</a>
</g>
</g>
<!-- src/runtimeMonitored.js&#45;&gt;src/serialize.js -->
<g id="edge50" class="edge">
<title>src/runtimeMonitored.js&#45;&gt;src/serialize.js</title>
<path fill="none" stroke="#000000" stroke-width="2" stroke-opacity="0.200000" d="M176.9716,-410.1323C188.0244,-422.3052 209.1265,-443.8383 231,-457 235.28,-459.5754 239.9872,-461.8712 244.7445,-463.8896"/>
<polygon fill="#000000" fill-opacity="0.200000" stroke="#000000" stroke-width="2" stroke-opacity="0.200000" points="243.9791,-465.8451 250.3295,-466.1316 245.5438,-461.9475 243.9791,-465.8451"/>
</g>
<!-- src/serialize.js&#45;&gt;assert -->
<g id="edge59" class="edge">
<title>src/serialize.js&#45;&gt;assert</title>
<path fill="none" stroke="#000000" stroke-dasharray="5,2" stroke-opacity="0.200000" d="M310.5488,-477.8528C318.0359,-480.0599 325.2684,-483.7835 330,-490 365.5425,-536.6968 308.2639,-970.7002 343,-1018 345.8886,-1021.9334 349.8676,-1024.8456 354.2605,-1026.9994"/>
<polygon fill="#000000" fill-opacity="0.200000" stroke="#000000" stroke-opacity="0.200000" points="353.6469,-1029.0171 359.9955,-1029.3419 355.235,-1025.129 353.6469,-1029.0171"/>
</g>
<!-- src/serialize.js&#45;&gt;child_process -->
<g id="edge60" class="edge">
<title>src/serialize.js&#45;&gt;child_process</title>
<path fill="none" stroke="#000000" stroke-dasharray="5,2" stroke-opacity="0.200000" d="M310.5428,-477.8573C318.0298,-480.0646 325.2638,-483.787 330,-490 363.557,-534.0204 310.2033,-943.4103 343,-988 343.5977,-988.8127 344.242,-989.5817 344.9268,-990.3095"/>
<polygon fill="#000000" fill-opacity="0.200000" stroke="#000000" stroke-opacity="0.200000" points="344.0247,-992.2935 349.9721,-994.5383 346.7227,-989.0746 344.0247,-992.2935"/>
</g>
<!-- src/troupe.ts -->
<g id="node46" class="node">
<title>src/troupe.ts</title>
<g id="a_node46"><a xlink:href="src/troupe.ts" xlink:title="troupe.ts">
<path fill="#ddfeff" stroke="#000000" d="M82.5,-410C82.5,-410 40.5,-410 40.5,-410 37.5,-410 34.5,-407 34.5,-404 34.5,-404 34.5,-398 34.5,-398 34.5,-395 37.5,-392 40.5,-392 40.5,-392 82.5,-392 82.5,-392 85.5,-392 88.5,-395 88.5,-398 88.5,-398 88.5,-404 88.5,-404 88.5,-407 85.5,-410 82.5,-410"/>
<text text-anchor="middle" x="61.5" y="-398.8" font-family="Helvetica,sans-Serif" font-size="9.00" fill="#000000">troupe.ts</text>
</a>
</g>
</g>
<!-- src/troupe.ts&#45;&gt;src/runtimeMonitored.js -->
<g id="edge61" class="edge">
<title>src/troupe.ts&#45;&gt;src/runtimeMonitored.js</title>
<path fill="none" stroke="#000000" stroke-width="2" stroke-opacity="0.200000" d="M88.6268,-401C96.3084,-401 104.9606,-401 113.6681,-401"/>
<polygon fill="#000000" fill-opacity="0.200000" stroke="#000000" stroke-width="2" stroke-opacity="0.200000" points="113.6941,-403.1001 119.694,-401 113.694,-398.9001 113.6941,-403.1001"/>
</g>
</g>
</svg>
