<?xml version="1.0" encoding="UTF-8" standalone="no"?>
<!DOCTYPE svg PUBLIC "-//W3C//DTD SVG 1.1//EN"
 "http://www.w3.org/Graphics/SVG/1.1/DTD/svg11.dtd">
<!-- Generated by graphviz version 2.40.1 (20161225.0304)
 -->
<!-- Title: dependency&#45;cruiser output Pages: 1 -->
<svg width="533pt" height="745pt"
 viewBox="0.00 0.00 532.50 745.48" xmlns="http://www.w3.org/2000/svg" xmlns:xlink="http://www.w3.org/1999/xlink">
<g id="graph0" class="graph" transform="scale(1 1) rotate(0) translate(4 741.4772)">
<title>dependency&#45;cruiser output</title>
<polygon fill="#ffffff" stroke="transparent" points="-4,4 -4,-741.4772 528.5,-741.4772 528.5,4 -4,4"/>
<g id="clust1" class="cluster">
<title>cluster_src</title>
<path fill="#ffffff" stroke="#000000" stroke-width="2" d="M20,-155.4772C20,-155.4772 504.5,-155.4772 504.5,-155.4772 510.5,-155.4772 516.5,-161.4772 516.5,-167.4772 516.5,-167.4772 516.5,-665.4772 516.5,-665.4772 516.5,-671.4772 510.5,-677.4772 504.5,-677.4772 504.5,-677.4772 20,-677.4772 20,-677.4772 14,-677.4772 8,-671.4772 8,-665.4772 8,-665.4772 8,-167.4772 8,-167.4772 8,-161.4772 14,-155.4772 20,-155.4772"/>
<text text-anchor="middle" x="262.25" y="-666.2772" font-family="Helvetica,sans-Serif" font-weight="bold" font-size="9.00" fill="#000000">src</text>
</g>
<g id="clust2" class="cluster">
<title>cluster_src/levels</title>
<path fill="#ffffff" stroke="#000000" stroke-width="2" d="M131.5,-543.4772C131.5,-543.4772 178.5,-543.4772 178.5,-543.4772 184.5,-543.4772 190.5,-549.4772 190.5,-555.4772 190.5,-555.4772 190.5,-613.4772 190.5,-613.4772 190.5,-619.4772 184.5,-625.4772 178.5,-625.4772 178.5,-625.4772 131.5,-625.4772 131.5,-625.4772 125.5,-625.4772 119.5,-619.4772 119.5,-613.4772 119.5,-613.4772 119.5,-555.4772 119.5,-555.4772 119.5,-549.4772 125.5,-543.4772 131.5,-543.4772"/>
<text text-anchor="middle" x="155" y="-614.2772" font-family="Helvetica,sans-Serif" font-weight="bold" font-size="9.00" fill="#000000">levels</text>
</g>
<g id="clust3" class="cluster">
<title>cluster_src/p2p</title>
<path fill="#ffffff" stroke="#000000" stroke-width="2" d="M243.5,-163.4772C243.5,-163.4772 496.5,-163.4772 496.5,-163.4772 502.5,-163.4772 508.5,-169.4772 508.5,-175.4772 508.5,-175.4772 508.5,-233.4772 508.5,-233.4772 508.5,-239.4772 502.5,-245.4772 496.5,-245.4772 496.5,-245.4772 243.5,-245.4772 243.5,-245.4772 237.5,-245.4772 231.5,-239.4772 231.5,-233.4772 231.5,-233.4772 231.5,-175.4772 231.5,-175.4772 231.5,-169.4772 237.5,-163.4772 243.5,-163.4772"/>
<text text-anchor="middle" x="370" y="-234.2772" font-family="Helvetica,sans-Serif" font-weight="bold" font-size="9.00" fill="#000000">p2p</text>
</g>
<!-- ./Lval.js -->
<g id="node1" class="node">
<title>./Lval.js</title>
<path fill="#ffffcc" stroke="#ff0000" d="M488.5,-703.4772C488.5,-703.4772 446.5,-703.4772 446.5,-703.4772 443.5,-703.4772 440.5,-700.4772 440.5,-697.4772 440.5,-697.4772 440.5,-691.4772 440.5,-691.4772 440.5,-688.4772 443.5,-685.4772 446.5,-685.4772 446.5,-685.4772 488.5,-685.4772 488.5,-685.4772 491.5,-685.4772 494.5,-688.4772 494.5,-691.4772 494.5,-691.4772 494.5,-697.4772 494.5,-697.4772 494.5,-700.4772 491.5,-703.4772 488.5,-703.4772"/>
<text text-anchor="middle" x="467.5" y="-692.2772" font-family="Helvetica,sans-Serif" font-size="9.00" fill="#ff0000">Lval.js</text>
</g>
<!-- ./SandboxStatus.js -->
<g id="node2" class="node">
<title>./SandboxStatus.js</title>
<path fill="#ffffcc" stroke="#ff0000" d="M411,-147.4772C411,-147.4772 335,-147.4772 335,-147.4772 332,-147.4772 329,-144.4772 329,-141.4772 329,-141.4772 329,-135.4772 329,-135.4772 329,-132.4772 332,-129.4772 335,-129.4772 335,-129.4772 411,-129.4772 411,-129.4772 414,-129.4772 417,-132.4772 417,-135.4772 417,-135.4772 417,-141.4772 417,-141.4772 417,-144.4772 414,-147.4772 411,-147.4772"/>
<text text-anchor="middle" x="373" y="-136.2772" font-family="Helvetica,sans-Serif" font-size="9.00" fill="#ff0000">SandboxStatus.js</text>
</g>
<!-- ./Thread.js -->
<g id="node3" class="node">
<title>./Thread.js</title>
<path fill="#ffffcc" stroke="#ff0000" d="M394.5,-707.4772C394.5,-707.4772 351.5,-707.4772 351.5,-707.4772 348.5,-707.4772 345.5,-704.4772 345.5,-701.4772 345.5,-701.4772 345.5,-695.4772 345.5,-695.4772 345.5,-692.4772 348.5,-689.4772 351.5,-689.4772 351.5,-689.4772 394.5,-689.4772 394.5,-689.4772 397.5,-689.4772 400.5,-692.4772 400.5,-695.4772 400.5,-695.4772 400.5,-701.4772 400.5,-701.4772 400.5,-704.4772 397.5,-707.4772 394.5,-707.4772"/>
<text text-anchor="middle" x="373" y="-696.2772" font-family="Helvetica,sans-Serif" font-size="9.00" fill="#ff0000">Thread.js</text>
</g>
<!-- ./ThreadError.js -->
<g id="node4" class="node">
<title>./ThreadError.js</title>
<path fill="#ffffcc" stroke="#ff0000" d="M499,-147.4772C499,-147.4772 436,-147.4772 436,-147.4772 433,-147.4772 430,-144.4772 430,-141.4772 430,-141.4772 430,-135.4772 430,-135.4772 430,-132.4772 433,-129.4772 436,-129.4772 436,-129.4772 499,-129.4772 499,-129.4772 502,-129.4772 505,-132.4772 505,-135.4772 505,-135.4772 505,-141.4772 505,-141.4772 505,-144.4772 502,-147.4772 499,-147.4772"/>
<text text-anchor="middle" x="467.5" y="-136.2772" font-family="Helvetica,sans-Serif" font-size="9.00" fill="#ff0000">ThreadError.js</text>
</g>
<!-- ./options.js -->
<g id="node5" class="node">
<title>./options.js</title>
<path fill="#ffffcc" stroke="#ff0000" d="M395,-87.4772C395,-87.4772 351,-87.4772 351,-87.4772 348,-87.4772 345,-84.4772 345,-81.4772 345,-81.4772 345,-75.4772 345,-75.4772 345,-72.4772 348,-69.4772 351,-69.4772 351,-69.4772 395,-69.4772 395,-69.4772 398,-69.4772 401,-72.4772 401,-75.4772 401,-75.4772 401,-81.4772 401,-81.4772 401,-84.4772 398,-87.4772 395,-87.4772"/>
<text text-anchor="middle" x="373" y="-76.2772" font-family="Helvetica,sans-Serif" font-size="9.00" fill="#ff0000">options.js</text>
</g>
<!-- assert -->
<g id="node6" class="node">
<title>assert</title>
<path fill="#ffffcc" stroke="#c0c0c0" d="M394,-57.4772C394,-57.4772 352,-57.4772 352,-57.4772 349,-57.4772 346,-54.4772 346,-51.4772 346,-51.4772 346,-45.4772 346,-45.4772 346,-42.4772 349,-39.4772 352,-39.4772 352,-39.4772 394,-39.4772 394,-39.4772 397,-39.4772 400,-42.4772 400,-45.4772 400,-45.4772 400,-51.4772 400,-51.4772 400,-54.4772 397,-57.4772 394,-57.4772"/>
<text text-anchor="middle" x="373" y="-46.2772" font-family="Helvetica,sans-Serif" font-size="9.00" fill="#c0c0c0">assert</text>
</g>
<!-- child_process -->
<g id="node7" class="node">
<title>child_process</title>
<path fill="#ffffcc" stroke="#c0c0c0" d="M404,-737.4772C404,-737.4772 342,-737.4772 342,-737.4772 339,-737.4772 336,-734.4772 336,-731.4772 336,-731.4772 336,-725.4772 336,-725.4772 336,-722.4772 339,-719.4772 342,-719.4772 342,-719.4772 404,-719.4772 404,-719.4772 407,-719.4772 410,-722.4772 410,-725.4772 410,-725.4772 410,-731.4772 410,-731.4772 410,-734.4772 407,-737.4772 404,-737.4772"/>
<text text-anchor="middle" x="373" y="-726.2772" font-family="Helvetica,sans-Serif" font-size="9.00" fill="#c0c0c0">child_process</text>
</g>
<!-- fs -->
<g id="node8" class="node">
<title>fs</title>
<path fill="#ffffcc" stroke="#c0c0c0" d="M394,-117.4772C394,-117.4772 352,-117.4772 352,-117.4772 349,-117.4772 346,-114.4772 346,-111.4772 346,-111.4772 346,-105.4772 346,-105.4772 346,-102.4772 349,-99.4772 352,-99.4772 352,-99.4772 394,-99.4772 394,-99.4772 397,-99.4772 400,-102.4772 400,-105.4772 400,-105.4772 400,-111.4772 400,-111.4772 400,-114.4772 397,-117.4772 394,-117.4772"/>
<text text-anchor="middle" x="373" y="-106.2772" font-family="Helvetica,sans-Serif" font-size="9.00" fill="#c0c0c0">fs</text>
</g>
<!-- os -->
<g id="node9" class="node">
<title>os</title>
<path fill="#ffffcc" stroke="#c0c0c0" d="M287.5,-77.4772C287.5,-77.4772 245.5,-77.4772 245.5,-77.4772 242.5,-77.4772 239.5,-74.4772 239.5,-71.4772 239.5,-71.4772 239.5,-65.4772 239.5,-65.4772 239.5,-62.4772 242.5,-59.4772 245.5,-59.4772 245.5,-59.4772 287.5,-59.4772 287.5,-59.4772 290.5,-59.4772 293.5,-62.4772 293.5,-65.4772 293.5,-65.4772 293.5,-71.4772 293.5,-71.4772 293.5,-74.4772 290.5,-77.4772 287.5,-77.4772"/>
<text text-anchor="middle" x="266.5" y="-66.2772" font-family="Helvetica,sans-Serif" font-size="9.00" fill="#c0c0c0">os</text>
</g>
<!-- readline -->
<g id="node10" class="node">
<title>readline</title>
<path fill="#ffffcc" stroke="#c0c0c0" d="M287.5,-47.4772C287.5,-47.4772 245.5,-47.4772 245.5,-47.4772 242.5,-47.4772 239.5,-44.4772 239.5,-41.4772 239.5,-41.4772 239.5,-35.4772 239.5,-35.4772 239.5,-32.4772 242.5,-29.4772 245.5,-29.4772 245.5,-29.4772 287.5,-29.4772 287.5,-29.4772 290.5,-29.4772 293.5,-32.4772 293.5,-35.4772 293.5,-35.4772 293.5,-41.4772 293.5,-41.4772 293.5,-44.4772 290.5,-47.4772 287.5,-47.4772"/>
<text text-anchor="middle" x="266.5" y="-36.2772" font-family="Helvetica,sans-Serif" font-size="9.00" fill="#c0c0c0">readline</text>
</g>
<!-- src/Authority.ts -->
<g id="node11" class="node">
<title>src/Authority.ts</title>
<g id="a_node11"><a xlink:href="src/Authority.ts" xlink:title="Authority.ts">
<path fill="#ddfeff" stroke="#000000" d="M398,-426.4772C398,-426.4772 348,-426.4772 348,-426.4772 345,-426.4772 342,-423.4772 342,-420.4772 342,-420.4772 342,-414.4772 342,-414.4772 342,-411.4772 345,-408.4772 348,-408.4772 348,-408.4772 398,-408.4772 398,-408.4772 401,-408.4772 404,-411.4772 404,-414.4772 404,-414.4772 404,-420.4772 404,-420.4772 404,-423.4772 401,-426.4772 398,-426.4772"/>
<text text-anchor="middle" x="373" y="-415.2772" font-family="Helvetica,sans-Serif" font-size="9.00" fill="#000000">Authority.ts</text>
</a>
</g>
</g>
<!-- src/BaseFunction.ts -->
<g id="node12" class="node">
<title>src/BaseFunction.ts</title>
<g id="a_node12"><a xlink:href="src/BaseFunction.ts" xlink:title="BaseFunction.ts">
<path fill="#ddfeff" stroke="#000000" d="M408,-530.4772C408,-530.4772 338,-530.4772 338,-530.4772 335,-530.4772 332,-527.4772 332,-524.4772 332,-524.4772 332,-518.4772 332,-518.4772 332,-515.4772 335,-512.4772 338,-512.4772 338,-512.4772 408,-512.4772 408,-512.4772 411,-512.4772 414,-515.4772 414,-518.4772 414,-518.4772 414,-524.4772 414,-524.4772 414,-527.4772 411,-530.4772 408,-530.4772"/>
<text text-anchor="middle" x="373" y="-519.2772" font-family="Helvetica,sans-Serif" font-size="9.00" fill="#000000">BaseFunction.ts</text>
</a>
</g>
</g>
<!-- src/BaseKont.js -->
<g id="node13" class="node">
<title>src/BaseKont.js</title>
<g id="a_node13"><a xlink:href="src/BaseKont.js" xlink:title="BaseKont.js">
<path fill="#ffffcc" stroke="#000000" d="M399.5,-470.4772C399.5,-470.4772 346.5,-470.4772 346.5,-470.4772 343.5,-470.4772 340.5,-467.4772 340.5,-464.4772 340.5,-464.4772 340.5,-458.4772 340.5,-458.4772 340.5,-455.4772 343.5,-452.4772 346.5,-452.4772 346.5,-452.4772 399.5,-452.4772 399.5,-452.4772 402.5,-452.4772 405.5,-455.4772 405.5,-458.4772 405.5,-458.4772 405.5,-464.4772 405.5,-464.4772 405.5,-467.4772 402.5,-470.4772 399.5,-470.4772"/>
<text text-anchor="middle" x="373" y="-459.2772" font-family="Helvetica,sans-Serif" font-size="9.00" fill="#000000">BaseKont.js</text>
</a>
</g>
</g>
<!-- src/Level.ts -->
<g id="node14" class="node">
<title>src/Level.ts</title>
<g id="a_node14"><a xlink:href="src/Level.ts" xlink:title="Level.ts">
<path fill="#ddfeff" stroke="#000000" d="M287.5,-607.4772C287.5,-607.4772 245.5,-607.4772 245.5,-607.4772 242.5,-607.4772 239.5,-604.4772 239.5,-601.4772 239.5,-601.4772 239.5,-595.4772 239.5,-595.4772 239.5,-592.4772 242.5,-589.4772 245.5,-589.4772 245.5,-589.4772 287.5,-589.4772 287.5,-589.4772 290.5,-589.4772 293.5,-592.4772 293.5,-595.4772 293.5,-595.4772 293.5,-601.4772 293.5,-601.4772 293.5,-604.4772 290.5,-607.4772 287.5,-607.4772"/>
<text text-anchor="middle" x="266.5" y="-596.2772" font-family="Helvetica,sans-Serif" font-size="9.00" fill="#000000">Level.ts</text>
</a>
</g>
</g>
<!-- src/Lval.ts -->
<g id="node15" class="node">
<title>src/Lval.ts</title>
<g id="a_node15"><a xlink:href="src/Lval.ts" xlink:title="Lval.ts">
<path fill="#ddfeff" stroke="#000000" d="M394,-292.4772C394,-292.4772 352,-292.4772 352,-292.4772 349,-292.4772 346,-289.4772 346,-286.4772 346,-286.4772 346,-280.4772 346,-280.4772 346,-277.4772 349,-274.4772 352,-274.4772 352,-274.4772 394,-274.4772 394,-274.4772 397,-274.4772 400,-277.4772 400,-280.4772 400,-280.4772 400,-286.4772 400,-286.4772 400,-289.4772 397,-292.4772 394,-292.4772"/>
<text text-anchor="middle" x="373" y="-281.2772" font-family="Helvetica,sans-Serif" font-size="9.00" fill="#000000">Lval.ts</text>
</a>
</g>
</g>
<!-- src/MailboxProcessor.js -->
<g id="node16" class="node">
<title>src/MailboxProcessor.js</title>
<g id="a_node16"><a xlink:href="src/MailboxProcessor.js" xlink:title="MailboxProcessor.js">
<path fill="#ffffcc" stroke="#000000" d="M310,-345.4772C310,-345.4772 223,-345.4772 223,-345.4772 220,-345.4772 217,-342.4772 217,-339.4772 217,-339.4772 217,-333.4772 217,-333.4772 217,-330.4772 220,-327.4772 223,-327.4772 223,-327.4772 310,-327.4772 310,-327.4772 313,-327.4772 316,-330.4772 316,-333.4772 316,-333.4772 316,-339.4772 316,-339.4772 316,-342.4772 313,-345.4772 310,-345.4772"/>
<text text-anchor="middle" x="266.5" y="-334.2772" font-family="Helvetica,sans-Serif" font-size="9.00" fill="#000000">MailboxProcessor.js</text>
</a>
</g>
</g>
<!-- src/MailboxProcessor.js&#45;&gt;./Lval.js -->
<g id="edge2" class="edge">
<title>src/MailboxProcessor.js&#45;&gt;./Lval.js</title>
<path fill="none" stroke="#000000" stroke-width="2" stroke-opacity="0.200000" d="M277.9213,-345.5665C289.8184,-355.7924 307.8375,-373.5927 316,-393.4772 333.1659,-435.2946 308.5081,-556.1853 329,-596.4772 355.4673,-648.5183 379.4939,-651.1869 430,-680.4772 431.5217,-681.3597 433.1091,-682.2045 434.7343,-683.0105"/>
<polygon fill="#000000" fill-opacity="0.200000" stroke="#000000" stroke-width="2" stroke-opacity="0.200000" points="434.0366,-685.001 440.3652,-685.5996 435.7912,-681.1851 434.0366,-685.001"/>
</g>
<!-- src/MailboxProcessor.js&#45;&gt;./SandboxStatus.js -->
<g id="edge5" class="edge">
<title>src/MailboxProcessor.js&#45;&gt;./SandboxStatus.js</title>
<path fill="none" stroke="#000000" stroke-width="2" stroke-opacity="0.200000" d="M291.7503,-327.4625C300.8941,-322.9017 310.3516,-316.3967 316,-307.4772 351.0906,-252.0653 292.0919,-214.6954 329,-160.4772 331.5772,-156.6913 335.0054,-153.5261 338.8149,-150.8878"/>
<polygon fill="#000000" fill-opacity="0.200000" stroke="#000000" stroke-width="2" stroke-opacity="0.200000" points="340.1693,-152.5218 344.202,-147.6078 337.985,-148.9344 340.1693,-152.5218"/>
</g>
<!-- src/MailboxProcessor.js&#45;&gt;./Thread.js -->
<g id="edge6" class="edge">
<title>src/MailboxProcessor.js&#45;&gt;./Thread.js</title>
<path fill="none" stroke="#000000" stroke-width="2" stroke-opacity="0.200000" d="M277.9935,-345.5373C289.9522,-355.7382 308.0236,-373.5173 316,-393.4772 327.8457,-423.1195 310.612,-654.3837 329,-680.4772 331.7411,-684.367 335.4794,-687.4177 339.6266,-689.81"/>
<polygon fill="#000000" fill-opacity="0.200000" stroke="#000000" stroke-width="2" stroke-opacity="0.200000" points="338.7458,-691.7172 345.0542,-692.5016 340.6119,-687.9545 338.7458,-691.7172"/>
</g>
<!-- src/MailboxProcessor.js&#45;&gt;./options.js -->
<g id="edge3" class="edge">
<title>src/MailboxProcessor.js&#45;&gt;./options.js</title>
<path fill="none" stroke="#000000" stroke-width="2" stroke-opacity="0.200000" d="M292.1367,-327.4124C301.2163,-322.8686 310.527,-316.3887 316,-307.4772 340.9332,-266.879 300.1117,-131.3631 329,-93.4772 331.6915,-89.9474 335.2574,-87.242 339.1978,-85.1696"/>
<polygon fill="#000000" fill-opacity="0.200000" stroke="#000000" stroke-width="2" stroke-opacity="0.200000" points="340.1139,-87.0608 344.7562,-82.7181 338.419,-83.218 340.1139,-87.0608"/>
</g>
<!-- src/logger.js -->
<g id="node17" class="node">
<title>src/logger.js</title>
<g id="a_node17"><a xlink:href="src/logger.js" xlink:title="logger.js">
<path fill="#ffffcc" stroke="#000000" d="M488.5,-448.4772C488.5,-448.4772 446.5,-448.4772 446.5,-448.4772 443.5,-448.4772 440.5,-445.4772 440.5,-442.4772 440.5,-442.4772 440.5,-436.4772 440.5,-436.4772 440.5,-433.4772 443.5,-430.4772 446.5,-430.4772 446.5,-430.4772 488.5,-430.4772 488.5,-430.4772 491.5,-430.4772 494.5,-433.4772 494.5,-436.4772 494.5,-436.4772 494.5,-442.4772 494.5,-442.4772 494.5,-445.4772 491.5,-448.4772 488.5,-448.4772"/>
<text text-anchor="middle" x="467.5" y="-437.2772" font-family="Helvetica,sans-Serif" font-size="9.00" fill="#000000">logger.js</text>
</a>
</g>
</g>
<!-- src/MailboxProcessor.js&#45;&gt;src/logger.js -->
<g id="edge1" class="edge">
<title>src/MailboxProcessor.js&#45;&gt;src/logger.js</title>
<path fill="none" stroke="#000000" stroke-width="2" stroke-opacity="0.200000" d="M292.604,-327.447C300.1988,-324.6954 308.4745,-321.5758 316,-318.4772 321.8842,-316.0544 322.7847,-313.8423 329,-312.4772 367.2006,-304.087 384.6357,-290.5174 417,-312.4772 454.6272,-338.008 464.2192,-396.4825 466.664,-424.2718"/>
<polygon fill="#000000" fill-opacity="0.200000" stroke="#000000" stroke-width="2" stroke-opacity="0.200000" points="464.5758,-424.5075 467.125,-430.3309 468.7637,-424.1889 464.5758,-424.5075"/>
</g>
<!-- src/process.js -->
<g id="node18" class="node">
<title>src/process.js</title>
<g id="a_node18"><a xlink:href="src/process.js" xlink:title="process.js">
<path fill="#ffffcc" stroke="#000000" d="M396,-336.4772C396,-336.4772 350,-336.4772 350,-336.4772 347,-336.4772 344,-333.4772 344,-330.4772 344,-330.4772 344,-324.4772 344,-324.4772 344,-321.4772 347,-318.4772 350,-318.4772 350,-318.4772 396,-318.4772 396,-318.4772 399,-318.4772 402,-321.4772 402,-324.4772 402,-324.4772 402,-330.4772 402,-330.4772 402,-333.4772 399,-336.4772 396,-336.4772"/>
<text text-anchor="middle" x="373" y="-325.2772" font-family="Helvetica,sans-Serif" font-size="9.00" fill="#000000">process.js</text>
</a>
</g>
</g>
<!-- src/MailboxProcessor.js&#45;&gt;src/process.js -->
<g id="edge4" class="edge">
<title>src/MailboxProcessor.js&#45;&gt;src/process.js</title>
<path fill="none" stroke="#000000" stroke-width="2" stroke-opacity="0.200000" d="M316.0086,-332.2934C323.3282,-331.6748 330.7426,-331.0483 337.6948,-330.4607"/>
<polygon fill="#000000" fill-opacity="0.200000" stroke="#000000" stroke-width="2" stroke-opacity="0.200000" points="338.1318,-332.5314 343.9336,-329.9335 337.778,-328.3463 338.1318,-332.5314"/>
</g>
<!-- src/NodeManager.js -->
<g id="node19" class="node">
<title>src/NodeManager.js</title>
<g id="a_node19"><a xlink:href="src/NodeManager.js" xlink:title="NodeManager.js">
<path fill="#ffffcc" stroke="#000000" d="M303,-577.4772C303,-577.4772 230,-577.4772 230,-577.4772 227,-577.4772 224,-574.4772 224,-571.4772 224,-571.4772 224,-565.4772 224,-565.4772 224,-562.4772 227,-559.4772 230,-559.4772 230,-559.4772 303,-559.4772 303,-559.4772 306,-559.4772 309,-562.4772 309,-565.4772 309,-565.4772 309,-571.4772 309,-571.4772 309,-574.4772 306,-577.4772 303,-577.4772"/>
<text text-anchor="middle" x="266.5" y="-566.2772" font-family="Helvetica,sans-Serif" font-size="9.00" fill="#000000">NodeManager.js</text>
</a>
</g>
</g>
<!-- src/RtClosure.js -->
<g id="node20" class="node">
<title>src/RtClosure.js</title>
<g id="a_node20"><a xlink:href="src/RtClosure.js" xlink:title="RtClosure.js">
<path fill="#ffffcc" stroke="#000000" d="M294,-301.4772C294,-301.4772 239,-301.4772 239,-301.4772 236,-301.4772 233,-298.4772 233,-295.4772 233,-295.4772 233,-289.4772 233,-289.4772 233,-286.4772 236,-283.4772 239,-283.4772 239,-283.4772 294,-283.4772 294,-283.4772 297,-283.4772 300,-286.4772 300,-289.4772 300,-289.4772 300,-295.4772 300,-295.4772 300,-298.4772 297,-301.4772 294,-301.4772"/>
<text text-anchor="middle" x="266.5" y="-290.2772" font-family="Helvetica,sans-Serif" font-size="9.00" fill="#000000">RtClosure.js</text>
</a>
</g>
</g>
<!-- src/SandboxStatus.ts -->
<g id="node21" class="node">
<title>src/SandboxStatus.ts</title>
<g id="a_node21"><a xlink:href="src/SandboxStatus.ts" xlink:title="SandboxStatus.ts">
<path fill="#ddfeff" stroke="#000000" d="M411,-396.4772C411,-396.4772 335,-396.4772 335,-396.4772 332,-396.4772 329,-393.4772 329,-390.4772 329,-390.4772 329,-384.4772 329,-384.4772 329,-381.4772 332,-378.4772 335,-378.4772 335,-378.4772 411,-378.4772 411,-378.4772 414,-378.4772 417,-381.4772 417,-384.4772 417,-384.4772 417,-390.4772 417,-390.4772 417,-393.4772 414,-396.4772 411,-396.4772"/>
<text text-anchor="middle" x="373" y="-385.2772" font-family="Helvetica,sans-Serif" font-size="9.00" fill="#000000">SandboxStatus.ts</text>
</a>
</g>
</g>
<!-- src/Scheduler.js -->
<g id="node22" class="node">
<title>src/Scheduler.js</title>
<g id="a_node22"><a xlink:href="src/Scheduler.js" xlink:title="Scheduler.js">
<path fill="#ffffcc" stroke="#000000" d="M294.5,-461.4772C294.5,-461.4772 238.5,-461.4772 238.5,-461.4772 235.5,-461.4772 232.5,-458.4772 232.5,-455.4772 232.5,-455.4772 232.5,-449.4772 232.5,-449.4772 232.5,-446.4772 235.5,-443.4772 238.5,-443.4772 238.5,-443.4772 294.5,-443.4772 294.5,-443.4772 297.5,-443.4772 300.5,-446.4772 300.5,-449.4772 300.5,-449.4772 300.5,-455.4772 300.5,-455.4772 300.5,-458.4772 297.5,-461.4772 294.5,-461.4772"/>
<text text-anchor="middle" x="266.5" y="-450.2772" font-family="Helvetica,sans-Serif" font-size="9.00" fill="#000000">Scheduler.js</text>
</a>
</g>
</g>
<!-- src/Scheduler.js&#45;&gt;src/Authority.ts -->
<g id="edge7" class="edge">
<title>src/Scheduler.js&#45;&gt;src/Authority.ts</title>
<path fill="none" stroke="#000000" stroke-width="2" stroke-opacity="0.200000" d="M293.9264,-443.4638C307.8551,-438.8863 324.894,-433.2867 339.5835,-428.4591"/>
<polygon fill="#000000" fill-opacity="0.200000" stroke="#000000" stroke-width="2" stroke-opacity="0.200000" points="340.252,-430.45 345.2964,-426.5817 338.9406,-426.46 340.252,-430.45"/>
</g>
<!-- src/Scheduler.js&#45;&gt;src/BaseFunction.ts -->
<g id="edge8" class="edge">
<title>src/Scheduler.js&#45;&gt;src/BaseFunction.ts</title>
<path fill="none" stroke="#000000" stroke-width="2" stroke-opacity="0.200000" d="M300.527,-460.3319C306.2198,-462.8403 311.6726,-466.1402 316,-470.4772 328.0153,-482.5194 316.8635,-494.5571 329,-506.4772 329.8637,-507.3255 330.7772,-508.1259 331.7318,-508.881"/>
<polygon fill="#000000" fill-opacity="0.200000" stroke="#000000" stroke-width="2" stroke-opacity="0.200000" points="330.6549,-510.6875 336.8059,-512.2926 332.9984,-507.2021 330.6549,-510.6875"/>
</g>
<!-- src/Scheduler.js&#45;&gt;src/BaseKont.js -->
<g id="edge9" class="edge">
<title>src/Scheduler.js&#45;&gt;src/BaseKont.js</title>
<path fill="none" stroke="#000000" stroke-width="2" stroke-opacity="0.200000" d="M300.7835,-455.3744C311.4552,-456.2762 323.2959,-457.2769 334.2504,-458.2026"/>
<polygon fill="#000000" fill-opacity="0.200000" stroke="#000000" stroke-width="2" stroke-opacity="0.200000" points="334.0764,-460.2953 340.232,-458.7081 334.4301,-456.1102 334.0764,-460.2953"/>
</g>
<!-- src/Scheduler.js&#45;&gt;src/Lval.ts -->
<g id="edge11" class="edge">
<title>src/Scheduler.js&#45;&gt;src/Lval.ts</title>
<path fill="none" stroke="#000000" stroke-width="2" stroke-opacity="0.200000" d="M291.6205,-443.3791C300.7464,-438.8067 310.2256,-432.3157 316,-423.4772 343.1671,-381.8947 302.9396,-354.7622 329,-312.4772 333.1251,-305.784 339.439,-300.3165 346.0073,-296.006"/>
<polygon fill="#000000" fill-opacity="0.200000" stroke="#000000" stroke-width="2" stroke-opacity="0.200000" points="347.4966,-297.5594 351.5421,-292.6559 345.3217,-293.9663 347.4966,-297.5594"/>
</g>
<!-- src/Scheduler.js&#45;&gt;src/logger.js -->
<g id="edge10" class="edge">
<title>src/Scheduler.js&#45;&gt;src/logger.js</title>
<path fill="none" stroke="#000000" stroke-width="2" stroke-opacity="0.200000" d="M300.5355,-448.9282C309.7646,-448.0427 319.7593,-447.1539 329,-446.4772 364.9404,-443.8452 406.2004,-441.898 434.2729,-440.7345"/>
<polygon fill="#000000" fill-opacity="0.200000" stroke="#000000" stroke-width="2" stroke-opacity="0.200000" points="434.4987,-442.8272 440.408,-440.4841 434.3273,-438.6307 434.4987,-442.8272"/>
</g>
<!-- src/Scheduler.js&#45;&gt;src/process.js -->
<g id="edge13" class="edge">
<title>src/Scheduler.js&#45;&gt;src/process.js</title>
<path fill="none" stroke="#000000" stroke-width="2" stroke-opacity="0.200000" d="M291.1708,-443.3799C300.3478,-438.7823 309.9826,-432.273 316,-423.4772 336.5869,-393.3846 305.4921,-370.3477 329,-342.4772 331.5269,-339.4813 334.6785,-337.0823 338.1268,-335.1615"/>
<polygon fill="#000000" fill-opacity="0.200000" stroke="#000000" stroke-width="2" stroke-opacity="0.200000" points="339.2073,-336.974 343.7427,-332.5196 337.4195,-333.1735 339.2073,-336.974"/>
</g>
<!-- src/Scheduler.js&#45;&gt;src/SandboxStatus.ts -->
<g id="edge14" class="edge">
<title>src/Scheduler.js&#45;&gt;src/SandboxStatus.ts</title>
<path fill="none" stroke="#000000" stroke-width="2" stroke-opacity="0.200000" d="M286.8121,-443.4375C296.4149,-438.4886 307.589,-431.6859 316,-423.4772 323.8558,-415.8104 320.4132,-409.3154 329,-402.4772 330.3613,-401.3931 331.8054,-400.3852 333.3088,-399.4484"/>
<polygon fill="#000000" fill-opacity="0.200000" stroke="#000000" stroke-width="2" stroke-opacity="0.200000" points="334.3694,-401.2618 338.614,-396.5295 332.3448,-397.5819 334.3694,-401.2618"/>
</g>
<!-- src/options.ts -->
<g id="node23" class="node">
<title>src/options.ts</title>
<g id="a_node23"><a xlink:href="src/options.ts" xlink:title="options.ts">
<path fill="#ddfeff" stroke="#000000" d="M395,-366.4772C395,-366.4772 351,-366.4772 351,-366.4772 348,-366.4772 345,-363.4772 345,-360.4772 345,-360.4772 345,-354.4772 345,-354.4772 345,-351.4772 348,-348.4772 351,-348.4772 351,-348.4772 395,-348.4772 395,-348.4772 398,-348.4772 401,-351.4772 401,-354.4772 401,-354.4772 401,-360.4772 401,-360.4772 401,-363.4772 398,-366.4772 395,-366.4772"/>
<text text-anchor="middle" x="373" y="-355.2772" font-family="Helvetica,sans-Serif" font-size="9.00" fill="#000000">options.ts</text>
</a>
</g>
</g>
<!-- src/Scheduler.js&#45;&gt;src/options.ts -->
<g id="edge12" class="edge">
<title>src/Scheduler.js&#45;&gt;src/options.ts</title>
<path fill="none" stroke="#000000" stroke-width="2" stroke-opacity="0.200000" d="M290.2622,-443.3525C299.5284,-438.6961 309.4713,-432.1511 316,-423.4772 330.0669,-404.7881 313.1255,-389.6575 329,-372.4772 331.8703,-369.3708 335.4094,-366.9076 339.2231,-364.9545"/>
<polygon fill="#000000" fill-opacity="0.200000" stroke="#000000" stroke-width="2" stroke-opacity="0.200000" points="340.307,-366.7724 344.9612,-362.4424 338.6226,-362.925 340.307,-366.7724"/>
</g>
<!-- src/Thread.ts -->
<g id="node24" class="node">
<title>src/Thread.ts</title>
<g id="a_node24"><a xlink:href="src/Thread.ts" xlink:title="Thread.ts">
<path fill="#ddfeff" stroke="#000000" d="M394.5,-500.4772C394.5,-500.4772 351.5,-500.4772 351.5,-500.4772 348.5,-500.4772 345.5,-497.4772 345.5,-494.4772 345.5,-494.4772 345.5,-488.4772 345.5,-488.4772 345.5,-485.4772 348.5,-482.4772 351.5,-482.4772 351.5,-482.4772 394.5,-482.4772 394.5,-482.4772 397.5,-482.4772 400.5,-485.4772 400.5,-488.4772 400.5,-488.4772 400.5,-494.4772 400.5,-494.4772 400.5,-497.4772 397.5,-500.4772 394.5,-500.4772"/>
<text text-anchor="middle" x="373" y="-489.2772" font-family="Helvetica,sans-Serif" font-size="9.00" fill="#000000">Thread.ts</text>
</a>
</g>
</g>
<!-- src/Scheduler.js&#45;&gt;src/Thread.ts -->
<g id="edge15" class="edge">
<title>src/Scheduler.js&#45;&gt;src/Thread.ts</title>
<path fill="none" stroke="#000000" stroke-width="2" stroke-opacity="0.200000" d="M292.604,-461.5074C300.1988,-464.259 308.4745,-467.3786 316,-470.4772 321.8842,-472.9 323.0916,-474.114 329,-476.4772 332.4423,-477.854 336.066,-479.2197 339.6951,-480.5339"/>
<polygon fill="#000000" fill-opacity="0.200000" stroke="#000000" stroke-width="2" stroke-opacity="0.200000" points="339.0205,-482.5228 345.3773,-482.551 340.4255,-478.5647 339.0205,-482.5228"/>
</g>
<!-- src/ThreadError.ts -->
<g id="node25" class="node">
<title>src/ThreadError.ts</title>
<g id="a_node25"><a xlink:href="src/ThreadError.ts" xlink:title="ThreadError.ts">
<path fill="#ddfeff" stroke="#000000" d="M404.5,-560.4772C404.5,-560.4772 341.5,-560.4772 341.5,-560.4772 338.5,-560.4772 335.5,-557.4772 335.5,-554.4772 335.5,-554.4772 335.5,-548.4772 335.5,-548.4772 335.5,-545.4772 338.5,-542.4772 341.5,-542.4772 341.5,-542.4772 404.5,-542.4772 404.5,-542.4772 407.5,-542.4772 410.5,-545.4772 410.5,-548.4772 410.5,-548.4772 410.5,-554.4772 410.5,-554.4772 410.5,-557.4772 407.5,-560.4772 404.5,-560.4772"/>
<text text-anchor="middle" x="373" y="-549.2772" font-family="Helvetica,sans-Serif" font-size="9.00" fill="#000000">ThreadError.ts</text>
</a>
</g>
</g>
<!-- src/Scheduler.js&#45;&gt;src/ThreadError.ts -->
<g id="edge16" class="edge">
<title>src/Scheduler.js&#45;&gt;src/ThreadError.ts</title>
<path fill="none" stroke="#000000" stroke-width="2" stroke-opacity="0.200000" d="M287.5183,-461.5191C297.5326,-466.8343 308.8556,-474.4897 316,-484.4772 329.86,-503.8526 312.8734,-518.9432 329,-536.4772 329.6488,-537.1826 330.332,-537.8548 331.0452,-538.4955"/>
<polygon fill="#000000" fill-opacity="0.200000" stroke="#000000" stroke-width="2" stroke-opacity="0.200000" points="330.0691,-540.3865 336.1371,-542.2812 332.5751,-537.016 330.0691,-540.3865"/>
</g>
<!-- src/UnitBase.js -->
<g id="node26" class="node">
<title>src/UnitBase.js</title>
<g id="a_node26"><a xlink:href="src/UnitBase.js" xlink:title="UnitBase.js">
<path fill="#ffffcc" stroke="#000000" d="M398.5,-590.4772C398.5,-590.4772 347.5,-590.4772 347.5,-590.4772 344.5,-590.4772 341.5,-587.4772 341.5,-584.4772 341.5,-584.4772 341.5,-578.4772 341.5,-578.4772 341.5,-575.4772 344.5,-572.4772 347.5,-572.4772 347.5,-572.4772 398.5,-572.4772 398.5,-572.4772 401.5,-572.4772 404.5,-575.4772 404.5,-578.4772 404.5,-578.4772 404.5,-584.4772 404.5,-584.4772 404.5,-587.4772 401.5,-590.4772 398.5,-590.4772"/>
<text text-anchor="middle" x="373" y="-579.2772" font-family="Helvetica,sans-Serif" font-size="9.00" fill="#000000">UnitBase.js</text>
</a>
</g>
</g>
<!-- src/Scheduler.js&#45;&gt;src/UnitBase.js -->
<g id="edge17" class="edge">
<title>src/Scheduler.js&#45;&gt;src/UnitBase.js</title>
<path fill="none" stroke="#000000" stroke-width="2" stroke-opacity="0.200000" d="M280.5493,-461.6866C291.9492,-469.9338 307.4791,-483.0804 316,-498.4772 330.899,-525.399 308.8137,-543.2548 329,-566.4772 330.9491,-568.7195 333.2475,-570.627 335.7544,-572.2498"/>
<polygon fill="#000000" fill-opacity="0.200000" stroke="#000000" stroke-width="2" stroke-opacity="0.200000" points="334.8757,-574.1626 341.1479,-575.1967 336.8895,-570.4769 334.8757,-574.1626"/>
</g>
<!-- src/Thread.ts&#45;&gt;./Lval.js -->
<g id="edge23" class="edge">
<title>src/Thread.ts&#45;&gt;./Lval.js</title>
<path fill="none" stroke="#000000" stroke-width="2" stroke-opacity="0.200000" d="M400.7369,-495.5915C406.9812,-497.8225 412.9508,-501.2427 417,-506.4772 440.7245,-537.1465 406.7189,-649.47 430,-680.4772 431.4187,-682.3667 433.122,-684.0012 435.0093,-685.4152"/>
<polygon fill="#000000" fill-opacity="0.200000" stroke="#000000" stroke-width="2" stroke-opacity="0.200000" points="434.147,-687.3483 440.3657,-688.6665 436.3263,-683.758 434.147,-687.3483"/>
</g>
<!-- src/Thread.ts&#45;&gt;./ThreadError.js -->
<g id="edge24" class="edge">
<title>src/Thread.ts&#45;&gt;./ThreadError.js</title>
<path fill="none" stroke="#000000" stroke-width="2" stroke-opacity="0.200000" d="M400.8591,-487.4558C407.101,-485.223 413.0389,-481.7787 417,-476.4772 438.0332,-448.3262 411.9124,-190.6055 430,-160.4772 432.1417,-156.9098 435.0998,-153.8587 438.4235,-151.2669"/>
<polygon fill="#000000" fill-opacity="0.200000" stroke="#000000" stroke-width="2" stroke-opacity="0.200000" points="440.0958,-152.6701 443.8824,-147.564 437.7381,-149.1943 440.0958,-152.6701"/>
</g>
<!-- src/Thread.ts&#45;&gt;src/logger.js -->
<g id="edge22" class="edge">
<title>src/Thread.ts&#45;&gt;src/logger.js</title>
<path fill="none" stroke="#000000" stroke-width="2" stroke-opacity="0.200000" d="M400.5302,-483.5315C406.1121,-481.5242 411.847,-479.1628 417,-476.4772 429.6398,-469.8898 442.5818,-460.3419 452.1994,-452.5954"/>
<polygon fill="#000000" fill-opacity="0.200000" stroke="#000000" stroke-width="2" stroke-opacity="0.200000" points="453.5997,-454.1629 456.9066,-448.7338 450.9359,-450.9157 453.5997,-454.1629"/>
</g>
<!-- src/StackCallItem.ts -->
<g id="node27" class="node">
<title>src/StackCallItem.ts</title>
<g id="a_node27"><a xlink:href="src/StackCallItem.ts" xlink:title="StackCallItem.ts">
<path fill="#ddfeff" stroke="#000000" d="M190,-473.4772C190,-473.4772 120,-473.4772 120,-473.4772 117,-473.4772 114,-470.4772 114,-467.4772 114,-467.4772 114,-461.4772 114,-461.4772 114,-458.4772 117,-455.4772 120,-455.4772 120,-455.4772 190,-455.4772 190,-455.4772 193,-455.4772 196,-458.4772 196,-461.4772 196,-461.4772 196,-467.4772 196,-467.4772 196,-470.4772 193,-473.4772 190,-473.4772"/>
<text text-anchor="middle" x="155" y="-462.2772" font-family="Helvetica,sans-Serif" font-size="9.00" fill="#000000">StackCallItem.ts</text>
</a>
</g>
</g>
<!-- src/StackCallItem.ts&#45;&gt;./options.js -->
<g id="edge18" class="edge">
<title>src/StackCallItem.ts&#45;&gt;./options.js</title>
<path fill="none" stroke="#000000" stroke-width="2" stroke-opacity="0.200000" d="M163.077,-455.3247C174.5774,-441.6621 195.2458,-414.622 204,-387.4772 219.5084,-339.389 189.6413,-202.9565 217,-160.4772 243.911,-118.693 277.0492,-139.3472 316,-108.4772 322.9139,-102.9977 321.6824,-98.4047 329,-93.4772 332.1631,-91.3473 335.6574,-89.4926 339.2531,-87.8841"/>
<polygon fill="#000000" fill-opacity="0.200000" stroke="#000000" stroke-width="2" stroke-opacity="0.200000" points="340.1936,-89.7684 344.9536,-85.555 338.605,-85.8804 340.1936,-89.7684"/>
</g>
<!-- src/StackItem.ts -->
<g id="node28" class="node">
<title>src/StackItem.ts</title>
<g id="a_node28"><a xlink:href="src/StackItem.ts" xlink:title="StackItem.ts">
<path fill="#ddfeff" stroke="#000000" d="M293,-637.4772C293,-637.4772 240,-637.4772 240,-637.4772 237,-637.4772 234,-634.4772 234,-631.4772 234,-631.4772 234,-625.4772 234,-625.4772 234,-622.4772 237,-619.4772 240,-619.4772 240,-619.4772 293,-619.4772 293,-619.4772 296,-619.4772 299,-622.4772 299,-625.4772 299,-625.4772 299,-631.4772 299,-631.4772 299,-634.4772 296,-637.4772 293,-637.4772"/>
<text text-anchor="middle" x="266.5" y="-626.2772" font-family="Helvetica,sans-Serif" font-size="9.00" fill="#000000">StackItem.ts</text>
</a>
</g>
</g>
<!-- src/StackCallItem.ts&#45;&gt;src/StackItem.ts -->
<g id="edge19" class="edge">
<title>src/StackCallItem.ts&#45;&gt;src/StackItem.ts</title>
<path fill="none" stroke="#000000" stroke-width="2" stroke-opacity="0.200000" d="M162.6588,-473.6409C173.6383,-487.2882 193.6642,-514.1769 204,-540.4772 216.0536,-571.1486 195.112,-588.8411 217,-613.4772 220.1451,-617.0172 224.095,-619.7353 228.3845,-621.8199"/>
<polygon fill="#000000" fill-opacity="0.200000" stroke="#000000" stroke-width="2" stroke-opacity="0.200000" points="227.6179,-623.7753 233.9646,-624.1356 229.2279,-619.8961 227.6179,-623.7753"/>
</g>
<!-- src/StackGuardItem.ts -->
<g id="node29" class="node">
<title>src/StackGuardItem.ts</title>
<g id="a_node29"><a xlink:href="src/StackGuardItem.ts" xlink:title="StackGuardItem.ts">
<path fill="#ddfeff" stroke="#000000" d="M194.5,-651.4772C194.5,-651.4772 115.5,-651.4772 115.5,-651.4772 112.5,-651.4772 109.5,-648.4772 109.5,-645.4772 109.5,-645.4772 109.5,-639.4772 109.5,-639.4772 109.5,-636.4772 112.5,-633.4772 115.5,-633.4772 115.5,-633.4772 194.5,-633.4772 194.5,-633.4772 197.5,-633.4772 200.5,-636.4772 200.5,-639.4772 200.5,-639.4772 200.5,-645.4772 200.5,-645.4772 200.5,-648.4772 197.5,-651.4772 194.5,-651.4772"/>
<text text-anchor="middle" x="155" y="-640.2772" font-family="Helvetica,sans-Serif" font-size="9.00" fill="#000000">StackGuardItem.ts</text>
</a>
</g>
</g>
<!-- src/StackGuardItem.ts&#45;&gt;src/StackItem.ts -->
<g id="edge20" class="edge">
<title>src/StackGuardItem.ts&#45;&gt;src/StackItem.ts</title>
<path fill="none" stroke="#000000" stroke-width="2" stroke-opacity="0.200000" d="M200.673,-636.7425C209.5777,-635.6244 218.8371,-634.4618 227.5014,-633.3739"/>
<polygon fill="#000000" fill-opacity="0.200000" stroke="#000000" stroke-width="2" stroke-opacity="0.200000" points="228.0001,-635.4278 233.6917,-632.5966 227.4768,-631.2606 228.0001,-635.4278"/>
</g>
<!-- src/StackThread.ts -->
<g id="node30" class="node">
<title>src/StackThread.ts</title>
<g id="a_node30"><a xlink:href="src/StackThread.ts" xlink:title="StackThread.ts">
<path fill="#ddfeff" stroke="#000000" d="M87,-473.4772C87,-473.4772 22,-473.4772 22,-473.4772 19,-473.4772 16,-470.4772 16,-467.4772 16,-467.4772 16,-461.4772 16,-461.4772 16,-458.4772 19,-455.4772 22,-455.4772 22,-455.4772 87,-455.4772 87,-455.4772 90,-455.4772 93,-458.4772 93,-461.4772 93,-461.4772 93,-467.4772 93,-467.4772 93,-470.4772 90,-473.4772 87,-473.4772"/>
<text text-anchor="middle" x="54.5" y="-462.2772" font-family="Helvetica,sans-Serif" font-size="9.00" fill="#000000">StackThread.ts</text>
</a>
</g>
</g>
<!-- src/StackThread.ts&#45;&gt;src/StackCallItem.ts -->
<g id="edge21" class="edge">
<title>src/StackThread.ts&#45;&gt;src/StackCallItem.ts</title>
<path fill="none" stroke="#000000" stroke-width="2" stroke-opacity="0.200000" d="M93.0685,-464.4772C97.8169,-464.4772 102.7126,-464.4772 107.573,-464.4772"/>
<polygon fill="#000000" fill-opacity="0.200000" stroke="#000000" stroke-width="2" stroke-opacity="0.200000" points="107.6968,-466.5773 113.6968,-464.4772 107.6968,-462.3773 107.6968,-466.5773"/>
</g>
<!-- src/ValuesUtil.js -->
<g id="node31" class="node">
<title>src/ValuesUtil.js</title>
<g id="a_node31"><a xlink:href="src/ValuesUtil.js" xlink:title="ValuesUtil.js">
<path fill="#ffffcc" stroke="#000000" d="M294.5,-417.4772C294.5,-417.4772 238.5,-417.4772 238.5,-417.4772 235.5,-417.4772 232.5,-414.4772 232.5,-411.4772 232.5,-411.4772 232.5,-405.4772 232.5,-405.4772 232.5,-402.4772 235.5,-399.4772 238.5,-399.4772 238.5,-399.4772 294.5,-399.4772 294.5,-399.4772 297.5,-399.4772 300.5,-402.4772 300.5,-405.4772 300.5,-405.4772 300.5,-411.4772 300.5,-411.4772 300.5,-414.4772 297.5,-417.4772 294.5,-417.4772"/>
<text text-anchor="middle" x="266.5" y="-406.2772" font-family="Helvetica,sans-Serif" font-size="9.00" fill="#000000">ValuesUtil.js</text>
</a>
</g>
</g>
<!-- src/levels/lohi.js -->
<g id="node32" class="node">
<title>src/levels/lohi.js</title>
<g id="a_node32"><a xlink:href="src/levels/lohi.js" xlink:title="lohi.js">
<path fill="#ffffcc" stroke="#000000" d="M176,-569.4772C176,-569.4772 134,-569.4772 134,-569.4772 131,-569.4772 128,-566.4772 128,-563.4772 128,-563.4772 128,-557.4772 128,-557.4772 128,-554.4772 131,-551.4772 134,-551.4772 134,-551.4772 176,-551.4772 176,-551.4772 179,-551.4772 182,-554.4772 182,-557.4772 182,-557.4772 182,-563.4772 182,-563.4772 182,-566.4772 179,-569.4772 176,-569.4772"/>
<text text-anchor="middle" x="155" y="-558.2772" font-family="Helvetica,sans-Serif" font-size="9.00" fill="#000000">lohi.js</text>
</a>
</g>
</g>
<!-- src/levels/lohi.js&#45;&gt;src/Level.ts -->
<g id="edge25" class="edge">
<title>src/levels/lohi.js&#45;&gt;src/Level.ts</title>
<path fill="none" stroke="#000000" stroke-width="2" stroke-opacity="0.200000" d="M182.1568,-567.4466C189.3915,-569.6639 197.1086,-572.3636 204,-575.4772 210.1824,-578.2705 210.8136,-580.6927 217,-583.4772 222.1715,-585.8049 227.804,-587.8971 233.3554,-589.7282"/>
<polygon fill="#000000" fill-opacity="0.200000" stroke="#000000" stroke-width="2" stroke-opacity="0.200000" points="232.9678,-591.808 239.3217,-591.6116 234.2322,-587.8028 232.9678,-591.808"/>
</g>
<!-- src/levels/tagsets.ts -->
<g id="node33" class="node">
<title>src/levels/tagsets.ts</title>
<g id="a_node33"><a xlink:href="src/levels/tagsets.ts" xlink:title="tagsets.ts">
<path fill="#ddfeff" stroke="#000000" d="M176.5,-599.4772C176.5,-599.4772 133.5,-599.4772 133.5,-599.4772 130.5,-599.4772 127.5,-596.4772 127.5,-593.4772 127.5,-593.4772 127.5,-587.4772 127.5,-587.4772 127.5,-584.4772 130.5,-581.4772 133.5,-581.4772 133.5,-581.4772 176.5,-581.4772 176.5,-581.4772 179.5,-581.4772 182.5,-584.4772 182.5,-587.4772 182.5,-587.4772 182.5,-593.4772 182.5,-593.4772 182.5,-596.4772 179.5,-599.4772 176.5,-599.4772"/>
<text text-anchor="middle" x="155" y="-588.2772" font-family="Helvetica,sans-Serif" font-size="9.00" fill="#000000">tagsets.ts</text>
</a>
</g>
</g>
<!-- src/levels/tagsets.ts&#45;&gt;src/Level.ts -->
<g id="edge26" class="edge">
<title>src/levels/tagsets.ts&#45;&gt;src/Level.ts</title>
<path fill="none" stroke="#000000" stroke-width="2" stroke-opacity="0.200000" d="M182.5618,-592.4547C197.8195,-593.5495 216.8997,-594.9184 233.0117,-596.0745"/>
<polygon fill="#000000" fill-opacity="0.200000" stroke="#000000" stroke-width="2" stroke-opacity="0.200000" points="233.1203,-598.1876 239.2552,-596.5224 233.4209,-593.9983 233.1203,-598.1876"/>
</g>
<!-- src/levels/tagsets.ts&#45;&gt;src/logger.js -->
<g id="edge27" class="edge">
<title>src/levels/tagsets.ts&#45;&gt;src/logger.js</title>
<path fill="none" stroke="#000000" stroke-width="2" stroke-opacity="0.200000" d="M182.5781,-592.8555C190.3105,-594.7373 198.1834,-597.9715 204,-603.4772 217.5758,-616.3275 201.8766,-632.4902 217,-643.4772 290.0074,-696.5161 354.5844,-673.65 417,-608.4772 438.5344,-585.9915 457.7208,-492.5998 464.7025,-455.1319"/>
<polygon fill="#000000" fill-opacity="0.200000" stroke="#000000" stroke-width="2" stroke-opacity="0.200000" points="466.844,-455.097 465.8619,-448.8164 462.713,-454.3385 466.844,-455.097"/>
</g>
<!-- src/loadLibs.js -->
<g id="node34" class="node">
<title>src/loadLibs.js</title>
<g id="a_node34"><a xlink:href="src/loadLibs.js" xlink:title="loadLibs.js">
<path fill="#ffffcc" stroke="#000000" d="M291,-271.4772C291,-271.4772 242,-271.4772 242,-271.4772 239,-271.4772 236,-268.4772 236,-265.4772 236,-265.4772 236,-259.4772 236,-259.4772 236,-256.4772 239,-253.4772 242,-253.4772 242,-253.4772 291,-253.4772 291,-253.4772 294,-253.4772 297,-256.4772 297,-259.4772 297,-259.4772 297,-265.4772 297,-265.4772 297,-268.4772 294,-271.4772 291,-271.4772"/>
<text text-anchor="middle" x="266.5" y="-260.2772" font-family="Helvetica,sans-Serif" font-size="9.00" fill="#000000">loadLibs.js</text>
</a>
</g>
</g>
<!-- src/loadLibs.js&#45;&gt;fs -->
<g id="edge29" class="edge">
<title>src/loadLibs.js&#45;&gt;fs</title>
<path fill="none" stroke="#000000" stroke-dasharray="5,2" stroke-opacity="0.200000" d="M297.2263,-259.7092C304.3471,-257.6154 311.2281,-254.1496 316,-248.4772 351.9571,-205.7351 294.1863,-167.1557 329,-123.4772 331.971,-119.7497 335.9132,-116.9437 340.2202,-114.8325"/>
<polygon fill="#000000" fill-opacity="0.200000" stroke="#000000" stroke-opacity="0.200000" points="341.0844,-116.7476 345.8253,-112.5127 339.4783,-112.8668 341.0844,-116.7476"/>
</g>
<!-- src/loadLibs.js&#45;&gt;src/logger.js -->
<g id="edge28" class="edge">
<title>src/loadLibs.js&#45;&gt;src/logger.js</title>
<path fill="none" stroke="#000000" stroke-width="2" stroke-opacity="0.200000" d="M297.1275,-254.1623C330.2796,-247.1356 382.9609,-241.9642 417,-268.4772 442.0479,-287.987 459.3792,-386.0264 465.2777,-424.2169"/>
<polygon fill="#000000" fill-opacity="0.200000" stroke="#000000" stroke-width="2" stroke-opacity="0.200000" points="463.2115,-424.5992 466.1859,-430.2174 467.3642,-423.9706 463.2115,-424.5992"/>
</g>
<!-- src/p2p/libp2p&#45;bundle.js -->
<g id="node35" class="node">
<title>src/p2p/libp2p&#45;bundle.js</title>
<g id="a_node35"><a xlink:href="src/p2p/libp2p-bundle.js" xlink:title="libp2p&#45;bundle.js">
<path fill="#ffffcc" stroke="#000000" d="M408.5,-201.4772C408.5,-201.4772 337.5,-201.4772 337.5,-201.4772 334.5,-201.4772 331.5,-198.4772 331.5,-195.4772 331.5,-195.4772 331.5,-189.4772 331.5,-189.4772 331.5,-186.4772 334.5,-183.4772 337.5,-183.4772 337.5,-183.4772 408.5,-183.4772 408.5,-183.4772 411.5,-183.4772 414.5,-186.4772 414.5,-189.4772 414.5,-189.4772 414.5,-195.4772 414.5,-195.4772 414.5,-198.4772 411.5,-201.4772 408.5,-201.4772"/>
<text text-anchor="middle" x="373" y="-190.2772" font-family="Helvetica,sans-Serif" font-size="9.00" fill="#000000">libp2p&#45;bundle.js</text>
</a>
</g>
</g>
<!-- src/p2p/p2pconfig.js -->
<g id="node36" class="node">
<title>src/p2p/p2pconfig.js</title>
<g id="a_node36"><a xlink:href="src/p2p/p2pconfig.js" xlink:title="p2pconfig.js">
<path fill="#ffffcc" stroke="#000000" d="M494.5,-212.4772C494.5,-212.4772 440.5,-212.4772 440.5,-212.4772 437.5,-212.4772 434.5,-209.4772 434.5,-206.4772 434.5,-206.4772 434.5,-200.4772 434.5,-200.4772 434.5,-197.4772 437.5,-194.4772 440.5,-194.4772 440.5,-194.4772 494.5,-194.4772 494.5,-194.4772 497.5,-194.4772 500.5,-197.4772 500.5,-200.4772 500.5,-200.4772 500.5,-206.4772 500.5,-206.4772 500.5,-209.4772 497.5,-212.4772 494.5,-212.4772"/>
<text text-anchor="middle" x="467.5" y="-201.2772" font-family="Helvetica,sans-Serif" font-size="9.00" fill="#000000">p2pconfig.js</text>
</a>
</g>
</g>
<!-- src/p2p/libp2p&#45;bundle.js&#45;&gt;src/p2p/p2pconfig.js -->
<g id="edge30" class="edge">
<title>src/p2p/libp2p&#45;bundle.js&#45;&gt;src/p2p/p2pconfig.js</title>
<path fill="none" stroke="#000000" stroke-width="2" stroke-opacity="0.200000" d="M414.7242,-197.334C419.2112,-197.8563 423.7656,-198.3864 428.2226,-198.9052"/>
<polygon fill="#000000" fill-opacity="0.200000" stroke="#000000" stroke-width="2" stroke-opacity="0.200000" points="428.0218,-200.9959 434.2244,-199.6038 428.5074,-196.8241 428.0218,-200.9959"/>
</g>
<!-- src/p2p/mkid.js -->
<g id="node37" class="node">
<title>src/p2p/mkid.js</title>
<g id="a_node37"><a xlink:href="src/p2p/mkid.js" xlink:title="mkid.js">
<path fill="#ffffcc" stroke="#000000" d="M287.5,-189.4772C287.5,-189.4772 245.5,-189.4772 245.5,-189.4772 242.5,-189.4772 239.5,-186.4772 239.5,-183.4772 239.5,-183.4772 239.5,-177.4772 239.5,-177.4772 239.5,-174.4772 242.5,-171.4772 245.5,-171.4772 245.5,-171.4772 287.5,-171.4772 287.5,-171.4772 290.5,-171.4772 293.5,-174.4772 293.5,-177.4772 293.5,-177.4772 293.5,-183.4772 293.5,-183.4772 293.5,-186.4772 290.5,-189.4772 287.5,-189.4772"/>
<text text-anchor="middle" x="266.5" y="-178.2772" font-family="Helvetica,sans-Serif" font-size="9.00" fill="#000000">mkid.js</text>
</a>
</g>
</g>
<!-- src/p2p/mkid.js&#45;&gt;fs -->
<g id="edge31" class="edge">
<title>src/p2p/mkid.js&#45;&gt;fs</title>
<path fill="none" stroke="#000000" stroke-dasharray="5,2" stroke-opacity="0.200000" d="M293.6086,-172.9382C301.6663,-169.5983 309.9478,-164.9206 316,-158.4772 327.3608,-146.3821 317.1085,-135.0509 329,-123.4772 332.1809,-120.3813 336.026,-117.9233 340.103,-115.972"/>
<polygon fill="#000000" fill-opacity="0.200000" stroke="#000000" stroke-opacity="0.200000" points="341.0348,-117.8588 345.7658,-113.6128 339.4196,-113.9818 341.0348,-117.8588"/>
</g>
<!-- src/p2p/p2p.js -->
<g id="node38" class="node">
<title>src/p2p/p2p.js</title>
<g id="a_node38"><a xlink:href="src/p2p/p2p.js" xlink:title="p2p.js">
<path fill="#ffffcc" stroke="#000000" d="M287.5,-219.4772C287.5,-219.4772 245.5,-219.4772 245.5,-219.4772 242.5,-219.4772 239.5,-216.4772 239.5,-213.4772 239.5,-213.4772 239.5,-207.4772 239.5,-207.4772 239.5,-204.4772 242.5,-201.4772 245.5,-201.4772 245.5,-201.4772 287.5,-201.4772 287.5,-201.4772 290.5,-201.4772 293.5,-204.4772 293.5,-207.4772 293.5,-207.4772 293.5,-213.4772 293.5,-213.4772 293.5,-216.4772 290.5,-219.4772 287.5,-219.4772"/>
<text text-anchor="middle" x="266.5" y="-208.2772" font-family="Helvetica,sans-Serif" font-size="9.00" fill="#000000">p2p.js</text>
</a>
</g>
</g>
<!-- src/p2p/p2p.js&#45;&gt;src/logger.js -->
<g id="edge32" class="edge">
<title>src/p2p/p2p.js&#45;&gt;src/logger.js</title>
<path fill="none" stroke="#000000" stroke-width="2" stroke-opacity="0.200000" d="M293.5247,-213.4061C331.9523,-218.1128 399.6583,-228.5834 417,-245.4772 442.9113,-270.7193 460.0403,-382.8881 465.5644,-424.1656"/>
<polygon fill="#000000" fill-opacity="0.200000" stroke="#000000" stroke-width="2" stroke-opacity="0.200000" points="463.4878,-424.4819 466.3509,-430.1576 467.6521,-423.9353 463.4878,-424.4819"/>
</g>
<!-- src/p2p/p2p.js&#45;&gt;src/p2p/libp2p&#45;bundle.js -->
<g id="edge33" class="edge">
<title>src/p2p/p2p.js&#45;&gt;src/p2p/libp2p&#45;bundle.js</title>
<path fill="none" stroke="#000000" stroke-width="2" stroke-opacity="0.200000" d="M293.65,-205.8885C303.3217,-204.2538 314.5195,-202.3612 325.3991,-200.5224"/>
<polygon fill="#000000" fill-opacity="0.200000" stroke="#000000" stroke-width="2" stroke-opacity="0.200000" points="325.8328,-202.579 331.399,-199.5084 325.1329,-198.4377 325.8328,-202.579"/>
</g>
<!-- src/p2p/p2p.js&#45;&gt;src/p2p/p2pconfig.js -->
<g id="edge34" class="edge">
<title>src/p2p/p2p.js&#45;&gt;src/p2p/p2pconfig.js</title>
<path fill="none" stroke="#000000" stroke-width="2" stroke-opacity="0.200000" d="M293.705,-210.4181C323.8607,-210.2399 373.9322,-209.6102 417,-207.4772 420.6893,-207.2945 424.5273,-207.064 428.366,-206.8065"/>
<polygon fill="#000000" fill-opacity="0.200000" stroke="#000000" stroke-width="2" stroke-opacity="0.200000" points="428.5401,-208.8995 434.3774,-206.3823 428.2445,-204.7099 428.5401,-208.8995"/>
</g>
<!-- util -->
<g id="node39" class="node">
<title>util</title>
<path fill="#ffffcc" stroke="#c0c0c0" d="M394,-23.4772C394,-23.4772 352,-23.4772 352,-23.4772 349,-23.4772 346,-20.4772 346,-17.4772 346,-17.4772 346,-11.4772 346,-11.4772 346,-8.4772 349,-5.4772 352,-5.4772 352,-5.4772 394,-5.4772 394,-5.4772 397,-5.4772 400,-8.4772 400,-11.4772 400,-11.4772 400,-17.4772 400,-17.4772 400,-20.4772 397,-23.4772 394,-23.4772"/>
<text text-anchor="middle" x="373" y="-12.2772" font-family="Helvetica,sans-Serif" font-size="9.00" fill="#c0c0c0">util</text>
</g>
<!-- src/p2p/p2p.js&#45;&gt;util -->
<g id="edge35" class="edge">
<title>src/p2p/p2p.js&#45;&gt;util</title>
<path fill="none" stroke="#000000" stroke-dasharray="5,2" stroke-opacity="0.200000" d="M293.7403,-208.1546C302.104,-206.0553 310.5344,-202.2593 316,-195.4772 338.6621,-167.3565 307.9679,-62.837 329,-33.4772 331.8619,-29.4821 335.7453,-26.3191 340.0265,-23.8169"/>
<polygon fill="#000000" fill-opacity="0.200000" stroke="#000000" stroke-opacity="0.200000" points="341.2104,-25.5714 345.6152,-20.988 339.3135,-21.8242 341.2104,-25.5714"/>
</g>
<!-- src/runtimeMonitored.js -->
<g id="node40" class="node">
<title>src/runtimeMonitored.js</title>
<g id="a_node40"><a xlink:href="src/runtimeMonitored.js" xlink:title="runtimeMonitored.js">
<path fill="#ffffcc" stroke="#000000" d="M198,-381.4772C198,-381.4772 112,-381.4772 112,-381.4772 109,-381.4772 106,-378.4772 106,-375.4772 106,-375.4772 106,-369.4772 106,-369.4772 106,-366.4772 109,-363.4772 112,-363.4772 112,-363.4772 198,-363.4772 198,-363.4772 201,-363.4772 204,-366.4772 204,-369.4772 204,-369.4772 204,-375.4772 204,-375.4772 204,-378.4772 201,-381.4772 198,-381.4772"/>
<text text-anchor="middle" x="155" y="-370.2772" font-family="Helvetica,sans-Serif" font-size="9.00" fill="#000000">runtimeMonitored.js</text>
</a>
</g>
</g>
<!-- src/runtimeMonitored.js&#45;&gt;assert -->
<g id="edge54" class="edge">
<title>src/runtimeMonitored.js&#45;&gt;assert</title>
<path fill="none" stroke="#000000" stroke-dasharray="5,2" stroke-opacity="0.200000" d="M155.9552,-363.3513C160.4883,-321.7212 181.1161,-150.2345 217,-112.4772 248.5851,-79.2431 279.2163,-110.8465 316,-83.4772 324.5055,-77.1486 320.6345,-69.9897 329,-63.4772 332.415,-60.8186 336.33,-58.6157 340.3856,-56.7941"/>
<polygon fill="#000000" fill-opacity="0.200000" stroke="#000000" stroke-opacity="0.200000" points="341.1921,-58.7333 345.9695,-54.5396 339.6196,-54.8388 341.1921,-58.7333"/>
</g>
<!-- src/runtimeMonitored.js&#45;&gt;fs -->
<g id="edge55" class="edge">
<title>src/runtimeMonitored.js&#45;&gt;fs</title>
<path fill="none" stroke="#000000" stroke-dasharray="5,2" stroke-opacity="0.200000" d="M156.5112,-363.3838C162.7552,-326.8152 187.6002,-190.9925 217,-160.4772 249.4455,-126.8006 304.2398,-114.9307 339.4986,-110.749"/>
<polygon fill="#000000" fill-opacity="0.200000" stroke="#000000" stroke-opacity="0.200000" points="340.1093,-112.7948 345.8451,-110.0541 339.6521,-108.6197 340.1093,-112.7948"/>
</g>
<!-- src/runtimeMonitored.js&#45;&gt;os -->
<g id="edge56" class="edge">
<title>src/runtimeMonitored.js&#45;&gt;os</title>
<path fill="none" stroke="#000000" stroke-dasharray="5,2" stroke-opacity="0.200000" d="M155.7992,-363.3966C159.8301,-319.5095 179.2412,-129.724 217,-86.4772 221.4204,-81.4143 227.3829,-77.7749 233.6376,-75.1588"/>
<polygon fill="#000000" fill-opacity="0.200000" stroke="#000000" stroke-opacity="0.200000" points="234.5196,-77.0721 239.428,-73.0326 233.0718,-73.1295 234.5196,-77.0721"/>
</g>
<!-- src/runtimeMonitored.js&#45;&gt;readline -->
<g id="edge57" class="edge">
<title>src/runtimeMonitored.js&#45;&gt;readline</title>
<path fill="none" stroke="#000000" stroke-dasharray="5,2" stroke-opacity="0.200000" d="M155.5353,-363.2678C158.462,-316.0107 173.9996,-101.1165 217,-53.4772 221.4223,-48.5778 227.3856,-45.2553 233.6405,-43.008"/>
<polygon fill="#000000" fill-opacity="0.200000" stroke="#000000" stroke-opacity="0.200000" points="234.3104,-44.9991 239.4309,-41.2321 233.0789,-40.9838 234.3104,-44.9991"/>
</g>
<!-- src/runtimeMonitored.js&#45;&gt;src/Authority.ts -->
<g id="edge36" class="edge">
<title>src/runtimeMonitored.js&#45;&gt;src/Authority.ts</title>
<path fill="none" stroke="#000000" stroke-width="2" stroke-opacity="0.200000" d="M162.6148,-381.8809C173.2631,-394.1985 193.9084,-415.2001 217,-423.4772 255.6295,-437.3238 303.1329,-432.6931 335.5015,-426.5977"/>
<polygon fill="#000000" fill-opacity="0.200000" stroke="#000000" stroke-width="2" stroke-opacity="0.200000" points="336.285,-428.5838 341.7662,-425.3641 335.4735,-424.4629 336.285,-428.5838"/>
</g>
<!-- src/runtimeMonitored.js&#45;&gt;src/BaseFunction.ts -->
<g id="edge37" class="edge">
<title>src/runtimeMonitored.js&#45;&gt;src/BaseFunction.ts</title>
<path fill="none" stroke="#000000" stroke-width="2" stroke-opacity="0.200000" d="M160.9289,-381.7741C176.0258,-405.4187 214.8808,-466.0848 217,-467.4772 254.3108,-491.9923 279.244,-459.1378 316,-484.4772 325.3506,-490.9235 320.1891,-499.3109 329,-506.4772 330.2053,-507.4575 331.4781,-508.3752 332.8014,-509.2341"/>
<polygon fill="#000000" fill-opacity="0.200000" stroke="#000000" stroke-width="2" stroke-opacity="0.200000" points="331.8675,-511.1189 338.1205,-512.2641 333.9465,-507.4695 331.8675,-511.1189"/>
</g>
<!-- src/runtimeMonitored.js&#45;&gt;src/Level.ts -->
<g id="edge38" class="edge">
<title>src/runtimeMonitored.js&#45;&gt;src/Level.ts</title>
<path fill="none" stroke="#000000" stroke-width="2" stroke-opacity="0.200000" d="M162.9357,-381.6768C174.26,-395.3981 194.7114,-422.5106 204,-449.4772 213.7433,-477.7638 198.0341,-560.3395 217,-583.4772 221.2276,-588.6347 227.1682,-592.0622 233.4721,-594.3294"/>
<polygon fill="#000000" fill-opacity="0.200000" stroke="#000000" stroke-width="2" stroke-opacity="0.200000" points="232.9737,-596.3726 239.3248,-596.1017 234.1909,-592.3528 232.9737,-596.3726"/>
</g>
<!-- src/runtimeMonitored.js&#45;&gt;src/Lval.ts -->
<g id="edge41" class="edge">
<title>src/runtimeMonitored.js&#45;&gt;src/Lval.ts</title>
<path fill="none" stroke="#000000" stroke-width="2" stroke-opacity="0.200000" d="M163.1757,-363.1372C174.1366,-351.2937 194.8014,-331.2423 217,-321.4772 257.6761,-303.5839 273.3729,-320.0328 316,-307.4772 322.1042,-305.6792 323.1648,-304.0159 329,-301.4772 333.8956,-299.3473 339.1266,-297.1445 344.2108,-295.0416"/>
<polygon fill="#000000" fill-opacity="0.200000" stroke="#000000" stroke-width="2" stroke-opacity="0.200000" points="345.3309,-296.8518 350.0828,-292.6292 343.7349,-292.9668 345.3309,-296.8518"/>
</g>
<!-- src/runtimeMonitored.js&#45;&gt;src/MailboxProcessor.js -->
<g id="edge42" class="edge">
<title>src/runtimeMonitored.js&#45;&gt;src/MailboxProcessor.js</title>
<path fill="none" stroke="#000000" stroke-width="2" stroke-opacity="0.200000" d="M183.1362,-363.3929C198.0579,-358.5751 216.5107,-352.6172 232.259,-347.5326"/>
<polygon fill="#000000" fill-opacity="0.200000" stroke="#000000" stroke-width="2" stroke-opacity="0.200000" points="233.3083,-349.4006 238.3728,-345.5586 232.0178,-345.4038 233.3083,-349.4006"/>
</g>
<!-- src/runtimeMonitored.js&#45;&gt;src/logger.js -->
<g id="edge40" class="edge">
<title>src/runtimeMonitored.js&#45;&gt;src/logger.js</title>
<path fill="none" stroke="#000000" stroke-width="2" stroke-opacity="0.200000" d="M162.7697,-381.7362C173.8874,-395.5314 194.0838,-422.735 204,-449.4772 211.0257,-468.4241 202.6899,-525.2095 217,-539.4772 248.4689,-570.8528 282.2667,-524.5501 316,-553.4772 331.156,-566.4738 312.9692,-584.5763 329,-596.4772 360.4034,-619.7904 385.3924,-619.5129 417,-596.4772 440.4171,-579.4108 458.3731,-491.1899 464.8654,-454.9971"/>
<polygon fill="#000000" fill-opacity="0.200000" stroke="#000000" stroke-width="2" stroke-opacity="0.200000" points="466.9713,-455.1466 465.943,-448.8734 462.8349,-454.4187 466.9713,-455.1466"/>
</g>
<!-- src/runtimeMonitored.js&#45;&gt;src/process.js -->
<g id="edge46" class="edge">
<title>src/runtimeMonitored.js&#45;&gt;src/process.js</title>
<path fill="none" stroke="#000000" stroke-width="2" stroke-opacity="0.200000" d="M204.0579,-365.2472C208.4326,-364.6354 212.7952,-364.0371 217,-363.4772 260.9342,-357.6266 274.5675,-367.2186 316,-351.4772 322.5691,-348.9814 322.7253,-345.6413 329,-342.4772 331.8825,-341.0237 334.9384,-339.6582 338.0432,-338.3887"/>
<polygon fill="#000000" fill-opacity="0.200000" stroke="#000000" stroke-width="2" stroke-opacity="0.200000" points="338.8245,-340.3381 343.6577,-336.2089 337.3044,-336.4228 338.8245,-340.3381"/>
</g>
<!-- src/runtimeMonitored.js&#45;&gt;src/NodeManager.js -->
<g id="edge43" class="edge">
<title>src/runtimeMonitored.js&#45;&gt;src/NodeManager.js</title>
<path fill="none" stroke="#000000" stroke-width="2" stroke-opacity="0.200000" d="M162.8244,-381.7161C174.0102,-395.4864 194.2906,-422.6592 204,-449.4772 219.4074,-492.0331 188.717,-515.1435 217,-550.4772 218.6715,-552.5653 220.6072,-554.4113 222.7249,-556.0431"/>
<polygon fill="#000000" fill-opacity="0.200000" stroke="#000000" stroke-width="2" stroke-opacity="0.200000" points="221.7892,-557.9408 227.9581,-559.4754 224.0927,-554.4288 221.7892,-557.9408"/>
</g>
<!-- src/runtimeMonitored.js&#45;&gt;src/RtClosure.js -->
<g id="edge47" class="edge">
<title>src/runtimeMonitored.js&#45;&gt;src/RtClosure.js</title>
<path fill="none" stroke="#000000" stroke-width="2" stroke-opacity="0.200000" d="M162.0378,-363.2203C172.6257,-349.8684 193.8886,-325.196 217,-310.4772 220.9047,-307.9905 225.2008,-305.7833 229.5809,-303.8425"/>
<polygon fill="#000000" fill-opacity="0.200000" stroke="#000000" stroke-width="2" stroke-opacity="0.200000" points="230.4175,-305.7689 235.1507,-301.5254 228.8043,-301.8911 230.4175,-305.7689"/>
</g>
<!-- src/runtimeMonitored.js&#45;&gt;src/SandboxStatus.ts -->
<g id="edge48" class="edge">
<title>src/runtimeMonitored.js&#45;&gt;src/SandboxStatus.ts</title>
<path fill="none" stroke="#000000" stroke-width="2" stroke-opacity="0.200000" d="M204.1953,-375.8622C239.5715,-378.2963 287.1205,-381.5681 322.7381,-384.0188"/>
<polygon fill="#000000" fill-opacity="0.200000" stroke="#000000" stroke-width="2" stroke-opacity="0.200000" points="322.6652,-386.1187 328.7952,-384.4356 322.9535,-381.9286 322.6652,-386.1187"/>
</g>
<!-- src/runtimeMonitored.js&#45;&gt;src/Scheduler.js -->
<g id="edge49" class="edge">
<title>src/runtimeMonitored.js&#45;&gt;src/Scheduler.js</title>
<path fill="none" stroke="#000000" stroke-width="2" stroke-opacity="0.200000" d="M162.0378,-381.7341C172.6257,-395.0861 193.8886,-419.7584 217,-434.4772 220.9047,-436.9639 225.2008,-439.1711 229.5809,-441.112"/>
<polygon fill="#000000" fill-opacity="0.200000" stroke="#000000" stroke-width="2" stroke-opacity="0.200000" points="228.8043,-443.0633 235.1507,-443.429 230.4175,-439.1855 228.8043,-443.0633"/>
</g>
<!-- src/runtimeMonitored.js&#45;&gt;src/options.ts -->
<g id="edge44" class="edge">
<title>src/runtimeMonitored.js&#45;&gt;src/options.ts</title>
<path fill="none" stroke="#000000" stroke-width="2" stroke-opacity="0.200000" d="M204.3469,-369.7383C236.2201,-367.8887 278.5778,-365.2802 316,-362.4772 323.3522,-361.9265 331.2323,-361.2749 338.7162,-360.6271"/>
<polygon fill="#000000" fill-opacity="0.200000" stroke="#000000" stroke-width="2" stroke-opacity="0.200000" points="339.0955,-362.702 344.8892,-360.0862 338.7288,-358.518 339.0955,-362.702"/>
</g>
<!-- src/runtimeMonitored.js&#45;&gt;src/ThreadError.ts -->
<g id="edge51" class="edge">
<title>src/runtimeMonitored.js&#45;&gt;src/ThreadError.ts</title>
<path fill="none" stroke="#000000" stroke-width="2" stroke-opacity="0.200000" d="M161.5277,-381.6735C171.4196,-395.8314 190.4834,-424.0026 204,-449.4772 210.8108,-462.3136 205.6621,-470.3881 217,-479.4772 251.957,-507.5007 282.1811,-469.0903 316,-498.4772 329.4737,-510.1852 316.3715,-523.8622 329,-536.4772 329.8565,-537.3328 330.7636,-538.1396 331.7126,-538.9004"/>
<polygon fill="#000000" fill-opacity="0.200000" stroke="#000000" stroke-width="2" stroke-opacity="0.200000" points="330.622,-540.6982 336.7648,-542.3341 332.9829,-537.2245 330.622,-540.6982"/>
</g>
<!-- src/runtimeMonitored.js&#45;&gt;src/UnitBase.js -->
<g id="edge52" class="edge">
<title>src/runtimeMonitored.js&#45;&gt;src/UnitBase.js</title>
<path fill="none" stroke="#000000" stroke-width="2" stroke-opacity="0.200000" d="M161.9013,-381.4889C172.2813,-395.4056 191.9739,-423.266 204,-449.4772 212.3259,-467.6237 202.0378,-479.2579 217,-492.4772 250.4564,-522.0365 283.5885,-478.7757 316,-509.4772 334.8643,-527.3462 311.6095,-547.1709 329,-566.4772 330.9884,-568.6847 333.3148,-570.5675 335.8409,-572.1733"/>
<polygon fill="#000000" fill-opacity="0.200000" stroke="#000000" stroke-width="2" stroke-opacity="0.200000" points="334.984,-574.097 341.262,-575.0958 336.9771,-570.4 334.984,-574.097"/>
</g>
<!-- src/runtimeMonitored.js&#45;&gt;src/ValuesUtil.js -->
<g id="edge53" class="edge">
<title>src/runtimeMonitored.js&#45;&gt;src/ValuesUtil.js</title>
<path fill="none" stroke="#000000" stroke-width="2" stroke-opacity="0.200000" d="M183.1362,-381.5615C198.0579,-386.3793 216.5107,-392.3372 232.259,-397.4218"/>
<polygon fill="#000000" fill-opacity="0.200000" stroke="#000000" stroke-width="2" stroke-opacity="0.200000" points="232.0178,-399.5506 238.3728,-399.3958 233.3083,-395.5538 232.0178,-399.5506"/>
</g>
<!-- src/runtimeMonitored.js&#45;&gt;src/loadLibs.js -->
<g id="edge39" class="edge">
<title>src/runtimeMonitored.js&#45;&gt;src/loadLibs.js</title>
<path fill="none" stroke="#000000" stroke-width="2" stroke-opacity="0.200000" d="M158.4153,-363.3741C165.9769,-344.463 185.9589,-300.7534 217,-277.4772 220.8896,-274.5606 225.348,-272.2067 229.9606,-270.308"/>
<polygon fill="#000000" fill-opacity="0.200000" stroke="#000000" stroke-width="2" stroke-opacity="0.200000" points="230.9493,-272.1819 235.8545,-268.1384 229.4984,-268.2405 230.9493,-272.1819"/>
</g>
<!-- src/runtimeMonitored.js&#45;&gt;src/p2p/p2p.js -->
<g id="edge45" class="edge">
<title>src/runtimeMonitored.js&#45;&gt;src/p2p/p2p.js</title>
<path fill="none" stroke="#000000" stroke-width="2" stroke-opacity="0.200000" d="M156.0373,-363.144C159.4633,-336.9123 172.8468,-261.9419 217,-223.4772 221.6729,-219.4063 227.4741,-216.5887 233.4418,-214.6436"/>
<polygon fill="#000000" fill-opacity="0.200000" stroke="#000000" stroke-width="2" stroke-opacity="0.200000" points="234.2132,-216.6087 239.4294,-212.9753 233.0859,-212.5629 234.2132,-216.6087"/>
</g>
<!-- src/runtimeMonitored.js&#45;&gt;util -->
<g id="edge58" class="edge">
<title>src/runtimeMonitored.js&#45;&gt;util</title>
<path fill="none" stroke="#000000" stroke-dasharray="5,2" stroke-opacity="0.200000" d="M155.1655,-363.2112C156.2763,-312.6129 164.3201,-70.2719 217,-23.4772 250.265,6.0716 304.9378,1.4524 339.9337,-5.6825"/>
<polygon fill="#000000" fill-opacity="0.200000" stroke="#000000" stroke-opacity="0.200000" points="339.4951,-7.7361 345.8019,-6.9399 340.3751,-3.6293 339.4951,-7.7361"/>
</g>
<!-- src/serialize.js -->
<g id="node41" class="node">
<title>src/serialize.js</title>
<g id="a_node41"><a xlink:href="src/serialize.js" xlink:title="serialize.js">
<path fill="#ffffcc" stroke="#000000" d="M290.5,-533.4772C290.5,-533.4772 242.5,-533.4772 242.5,-533.4772 239.5,-533.4772 236.5,-530.4772 236.5,-527.4772 236.5,-527.4772 236.5,-521.4772 236.5,-521.4772 236.5,-518.4772 239.5,-515.4772 242.5,-515.4772 242.5,-515.4772 290.5,-515.4772 290.5,-515.4772 293.5,-515.4772 296.5,-518.4772 296.5,-521.4772 296.5,-521.4772 296.5,-527.4772 296.5,-527.4772 296.5,-530.4772 293.5,-533.4772 290.5,-533.4772"/>
<text text-anchor="middle" x="266.5" y="-522.2772" font-family="Helvetica,sans-Serif" font-size="9.00" fill="#000000">serialize.js</text>
</a>
</g>
</g>
<!-- src/runtimeMonitored.js&#45;&gt;src/serialize.js -->
<g id="edge50" class="edge">
<title>src/runtimeMonitored.js&#45;&gt;src/serialize.js</title>
<path fill="none" stroke="#000000" stroke-width="2" stroke-opacity="0.200000" d="M162.4864,-381.8478C173.251,-395.7821 193.012,-423.1572 204,-449.4772 214.0104,-473.4554 199.8056,-486.9961 217,-506.4772 220.7328,-510.7064 225.5408,-513.9426 230.6892,-516.4187"/>
<polygon fill="#000000" fill-opacity="0.200000" stroke="#000000" stroke-width="2" stroke-opacity="0.200000" points="230.0301,-518.4199 236.3745,-518.8183 231.6633,-514.5504 230.0301,-518.4199"/>
</g>
<!-- src/serialize.js&#45;&gt;assert -->
<g id="edge59" class="edge">
<title>src/serialize.js&#45;&gt;assert</title>
<path fill="none" stroke="#000000" stroke-dasharray="5,2" stroke-opacity="0.200000" d="M278.0442,-515.4372C290.0462,-505.2534 308.1545,-487.4889 316,-467.4772 332.3928,-425.6636 302.2795,-99.5758 329,-63.4772 331.8359,-59.6459 335.7054,-56.7841 339.9804,-54.6482"/>
<polygon fill="#000000" fill-opacity="0.200000" stroke="#000000" stroke-opacity="0.200000" points="340.8399,-56.5651 345.5652,-52.3129 339.2195,-52.6903 340.8399,-56.5651"/>
</g>
<!-- src/serialize.js&#45;&gt;child_process -->
<g id="edge60" class="edge">
<title>src/serialize.js&#45;&gt;child_process</title>
<path fill="none" stroke="#000000" stroke-dasharray="5,2" stroke-opacity="0.200000" d="M292.0421,-533.6007C301.1094,-538.1522 310.4364,-544.622 316,-553.4772 334.9777,-583.683 307.0818,-685.3323 329,-713.4772 329.5889,-714.2333 330.2178,-714.9516 330.8817,-715.6339"/>
<polygon fill="#000000" fill-opacity="0.200000" stroke="#000000" stroke-opacity="0.200000" points="329.7577,-717.4294 335.72,-719.6345 332.4342,-714.1926 329.7577,-717.4294"/>
</g>
<!-- src/troupe.ts -->
<g id="node42" class="node">
<title>src/troupe.ts</title>
<g id="a_node42"><a xlink:href="src/troupe.ts" xlink:title="troupe.ts">
<path fill="#ddfeff" stroke="#000000" d="M75.5,-381.4772C75.5,-381.4772 33.5,-381.4772 33.5,-381.4772 30.5,-381.4772 27.5,-378.4772 27.5,-375.4772 27.5,-375.4772 27.5,-369.4772 27.5,-369.4772 27.5,-366.4772 30.5,-363.4772 33.5,-363.4772 33.5,-363.4772 75.5,-363.4772 75.5,-363.4772 78.5,-363.4772 81.5,-366.4772 81.5,-369.4772 81.5,-369.4772 81.5,-375.4772 81.5,-375.4772 81.5,-378.4772 78.5,-381.4772 75.5,-381.4772"/>
<text text-anchor="middle" x="54.5" y="-370.2772" font-family="Helvetica,sans-Serif" font-size="9.00" fill="#000000">troupe.ts</text>
</a>
</g>
</g>
<!-- src/troupe.ts&#45;&gt;src/runtimeMonitored.js -->
<g id="edge61" class="edge">
<title>src/troupe.ts&#45;&gt;src/runtimeMonitored.js</title>
<path fill="none" stroke="#000000" stroke-width="2" stroke-opacity="0.200000" d="M81.6967,-372.4772C87.2774,-372.4772 93.3424,-372.4772 99.5139,-372.4772"/>
<polygon fill="#000000" fill-opacity="0.200000" stroke="#000000" stroke-width="2" stroke-opacity="0.200000" points="99.7069,-374.5773 105.7069,-372.4772 99.7068,-370.3773 99.7069,-374.5773"/>
</g>
</g>
</svg>
