<?xml version="1.0" encoding="UTF-8" standalone="no"?>
<!DOCTYPE svg PUBLIC "-//W3C//DTD SVG 1.1//EN"
 "http://www.w3.org/Graphics/SVG/1.1/DTD/svg11.dtd">
<!-- Generated by graphviz version 2.40.1 (20161225.0304)
 -->
<!-- Title: dependency&#45;cruiser output Pages: 1 -->
<svg width="510pt" height="717pt"
 viewBox="0.00 0.00 509.50 716.56" xmlns="http://www.w3.org/2000/svg" xmlns:xlink="http://www.w3.org/1999/xlink">
<g id="graph0" class="graph" transform="scale(1 1) rotate(0) translate(4 712.5647)">
<title>dependency&#45;cruiser output</title>
<polygon fill="#ffffff" stroke="transparent" points="-4,4 -4,-712.5647 505.5,-712.5647 505.5,4 -4,4"/>
<g id="clust1" class="cluster">
<title>cluster_src</title>
<path fill="#ffffff" stroke="#000000" stroke-width="2" d="M20,-100.5647C20,-100.5647 481.5,-100.5647 481.5,-100.5647 487.5,-100.5647 493.5,-106.5647 493.5,-112.5647 493.5,-112.5647 493.5,-640.5647 493.5,-640.5647 493.5,-646.5647 487.5,-652.5647 481.5,-652.5647 481.5,-652.5647 20,-652.5647 20,-652.5647 14,-652.5647 8,-646.5647 8,-640.5647 8,-640.5647 8,-112.5647 8,-112.5647 8,-106.5647 14,-100.5647 20,-100.5647"/>
<text text-anchor="middle" x="250.75" y="-641.3647" font-family="Helvetica,sans-Serif" font-weight="bold" font-size="9.00" fill="#000000">src</text>
</g>
<g id="clust2" class="cluster">
<title>cluster_src/levels</title>
<path fill="#ffffff" stroke="#000000" stroke-width="2" d="M108.5,-544.5647C108.5,-544.5647 155.5,-544.5647 155.5,-544.5647 161.5,-544.5647 167.5,-550.5647 167.5,-556.5647 167.5,-556.5647 167.5,-614.5647 167.5,-614.5647 167.5,-620.5647 161.5,-626.5647 155.5,-626.5647 155.5,-626.5647 108.5,-626.5647 108.5,-626.5647 102.5,-626.5647 96.5,-620.5647 96.5,-614.5647 96.5,-614.5647 96.5,-556.5647 96.5,-556.5647 96.5,-550.5647 102.5,-544.5647 108.5,-544.5647"/>
<text text-anchor="middle" x="132" y="-615.3647" font-family="Helvetica,sans-Serif" font-weight="bold" font-size="9.00" fill="#000000">levels</text>
</g>
<g id="clust3" class="cluster">
<title>cluster_src/p2p</title>
<path fill="#ffffff" stroke="#000000" stroke-width="2" d="M220.5,-108.5647C220.5,-108.5647 473.5,-108.5647 473.5,-108.5647 479.5,-108.5647 485.5,-114.5647 485.5,-120.5647 485.5,-120.5647 485.5,-178.5647 485.5,-178.5647 485.5,-184.5647 479.5,-190.5647 473.5,-190.5647 473.5,-190.5647 220.5,-190.5647 220.5,-190.5647 214.5,-190.5647 208.5,-184.5647 208.5,-178.5647 208.5,-178.5647 208.5,-120.5647 208.5,-120.5647 208.5,-114.5647 214.5,-108.5647 220.5,-108.5647"/>
<text text-anchor="middle" x="347" y="-179.3647" font-family="Helvetica,sans-Serif" font-weight="bold" font-size="9.00" fill="#000000">p2p</text>
</g>
<!-- assert -->
<g id="node1" class="node">
<title>assert</title>
<path fill="#ffffcc" stroke="#c0c0c0" d="M371,-708.5647C371,-708.5647 329,-708.5647 329,-708.5647 326,-708.5647 323,-705.5647 323,-702.5647 323,-702.5647 323,-696.5647 323,-696.5647 323,-693.5647 326,-690.5647 329,-690.5647 329,-690.5647 371,-690.5647 371,-690.5647 374,-690.5647 377,-693.5647 377,-696.5647 377,-696.5647 377,-702.5647 377,-702.5647 377,-705.5647 374,-708.5647 371,-708.5647"/>
<text text-anchor="middle" x="350" y="-697.3647" font-family="Helvetica,sans-Serif" font-size="9.00" fill="#c0c0c0">assert</text>
</g>
<!-- child_process -->
<g id="node2" class="node">
<title>child_process</title>
<path fill="#ffffcc" stroke="#c0c0c0" d="M381,-678.5647C381,-678.5647 319,-678.5647 319,-678.5647 316,-678.5647 313,-675.5647 313,-672.5647 313,-672.5647 313,-666.5647 313,-666.5647 313,-663.5647 316,-660.5647 319,-660.5647 319,-660.5647 381,-660.5647 381,-660.5647 384,-660.5647 387,-663.5647 387,-666.5647 387,-666.5647 387,-672.5647 387,-672.5647 387,-675.5647 384,-678.5647 381,-678.5647"/>
<text text-anchor="middle" x="350" y="-667.3647" font-family="Helvetica,sans-Serif" font-size="9.00" fill="#c0c0c0">child_process</text>
</g>
<!-- fs -->
<g id="node3" class="node">
<title>fs</title>
<path fill="#ffffcc" stroke="#c0c0c0" d="M371,-92.5647C371,-92.5647 329,-92.5647 329,-92.5647 326,-92.5647 323,-89.5647 323,-86.5647 323,-86.5647 323,-80.5647 323,-80.5647 323,-77.5647 326,-74.5647 329,-74.5647 329,-74.5647 371,-74.5647 371,-74.5647 374,-74.5647 377,-77.5647 377,-80.5647 377,-80.5647 377,-86.5647 377,-86.5647 377,-89.5647 374,-92.5647 371,-92.5647"/>
<text text-anchor="middle" x="350" y="-81.3647" font-family="Helvetica,sans-Serif" font-size="9.00" fill="#c0c0c0">fs</text>
</g>
<!-- os -->
<g id="node4" class="node">
<title>os</title>
<path fill="#ffffcc" stroke="#c0c0c0" d="M264.5,-74.5647C264.5,-74.5647 222.5,-74.5647 222.5,-74.5647 219.5,-74.5647 216.5,-71.5647 216.5,-68.5647 216.5,-68.5647 216.5,-62.5647 216.5,-62.5647 216.5,-59.5647 219.5,-56.5647 222.5,-56.5647 222.5,-56.5647 264.5,-56.5647 264.5,-56.5647 267.5,-56.5647 270.5,-59.5647 270.5,-62.5647 270.5,-62.5647 270.5,-68.5647 270.5,-68.5647 270.5,-71.5647 267.5,-74.5647 264.5,-74.5647"/>
<text text-anchor="middle" x="243.5" y="-63.3647" font-family="Helvetica,sans-Serif" font-size="9.00" fill="#c0c0c0">os</text>
</g>
<!-- readline -->
<g id="node5" class="node">
<title>readline</title>
<path fill="#ffffcc" stroke="#c0c0c0" d="M264.5,-44.5647C264.5,-44.5647 222.5,-44.5647 222.5,-44.5647 219.5,-44.5647 216.5,-41.5647 216.5,-38.5647 216.5,-38.5647 216.5,-32.5647 216.5,-32.5647 216.5,-29.5647 219.5,-26.5647 222.5,-26.5647 222.5,-26.5647 264.5,-26.5647 264.5,-26.5647 267.5,-26.5647 270.5,-29.5647 270.5,-32.5647 270.5,-32.5647 270.5,-38.5647 270.5,-38.5647 270.5,-41.5647 267.5,-44.5647 264.5,-44.5647"/>
<text text-anchor="middle" x="243.5" y="-33.3647" font-family="Helvetica,sans-Serif" font-size="9.00" fill="#c0c0c0">readline</text>
</g>
<!-- src/Authority.ts -->
<g id="node6" class="node">
<title>src/Authority.ts</title>
<g id="a_node6"><a xlink:href="src/Authority.ts" xlink:title="Authority.ts">
<path fill="#ddfeff" stroke="#000000" d="M375,-272.5647C375,-272.5647 325,-272.5647 325,-272.5647 322,-272.5647 319,-269.5647 319,-266.5647 319,-266.5647 319,-260.5647 319,-260.5647 319,-257.5647 322,-254.5647 325,-254.5647 325,-254.5647 375,-254.5647 375,-254.5647 378,-254.5647 381,-257.5647 381,-260.5647 381,-260.5647 381,-266.5647 381,-266.5647 381,-269.5647 378,-272.5647 375,-272.5647"/>
<text text-anchor="middle" x="350" y="-261.3647" font-family="Helvetica,sans-Serif" font-size="9.00" fill="#000000">Authority.ts</text>
</a>
</g>
</g>
<!-- src/BaseFunction.ts -->
<g id="node7" class="node">
<title>src/BaseFunction.ts</title>
<g id="a_node7"><a xlink:href="src/BaseFunction.ts" xlink:title="BaseFunction.ts">
<path fill="#ddfeff" stroke="#000000" d="M385,-302.5647C385,-302.5647 315,-302.5647 315,-302.5647 312,-302.5647 309,-299.5647 309,-296.5647 309,-296.5647 309,-290.5647 309,-290.5647 309,-287.5647 312,-284.5647 315,-284.5647 315,-284.5647 385,-284.5647 385,-284.5647 388,-284.5647 391,-287.5647 391,-290.5647 391,-290.5647 391,-296.5647 391,-296.5647 391,-299.5647 388,-302.5647 385,-302.5647"/>
<text text-anchor="middle" x="350" y="-291.3647" font-family="Helvetica,sans-Serif" font-size="9.00" fill="#000000">BaseFunction.ts</text>
</a>
</g>
</g>
<!-- src/BaseKont.js -->
<g id="node8" class="node">
<title>src/BaseKont.js</title>
<g id="a_node8"><a xlink:href="src/BaseKont.js" xlink:title="BaseKont.js">
<path fill="#ffffcc" stroke="#000000" d="M376.5,-374.5647C376.5,-374.5647 323.5,-374.5647 323.5,-374.5647 320.5,-374.5647 317.5,-371.5647 317.5,-368.5647 317.5,-368.5647 317.5,-362.5647 317.5,-362.5647 317.5,-359.5647 320.5,-356.5647 323.5,-356.5647 323.5,-356.5647 376.5,-356.5647 376.5,-356.5647 379.5,-356.5647 382.5,-359.5647 382.5,-362.5647 382.5,-362.5647 382.5,-368.5647 382.5,-368.5647 382.5,-371.5647 379.5,-374.5647 376.5,-374.5647"/>
<text text-anchor="middle" x="350" y="-363.3647" font-family="Helvetica,sans-Serif" font-size="9.00" fill="#000000">BaseKont.js</text>
</a>
</g>
</g>
<!-- src/Level.ts -->
<g id="node9" class="node">
<title>src/Level.ts</title>
<g id="a_node9"><a xlink:href="src/Level.ts" xlink:title="Level.ts">
<path fill="#ddfeff" stroke="#000000" d="M264.5,-612.5647C264.5,-612.5647 222.5,-612.5647 222.5,-612.5647 219.5,-612.5647 216.5,-609.5647 216.5,-606.5647 216.5,-606.5647 216.5,-600.5647 216.5,-600.5647 216.5,-597.5647 219.5,-594.5647 222.5,-594.5647 222.5,-594.5647 264.5,-594.5647 264.5,-594.5647 267.5,-594.5647 270.5,-597.5647 270.5,-600.5647 270.5,-600.5647 270.5,-606.5647 270.5,-606.5647 270.5,-609.5647 267.5,-612.5647 264.5,-612.5647"/>
<text text-anchor="middle" x="243.5" y="-601.3647" font-family="Helvetica,sans-Serif" font-size="9.00" fill="#000000">Level.ts</text>
</a>
</g>
</g>
<!-- src/Lval.ts -->
<g id="node10" class="node">
<title>src/Lval.ts</title>
<g id="a_node10"><a xlink:href="src/Lval.ts" xlink:title="Lval.ts">
<path fill="#ddfeff" stroke="#000000" d="M465.5,-409.5647C465.5,-409.5647 423.5,-409.5647 423.5,-409.5647 420.5,-409.5647 417.5,-406.5647 417.5,-403.5647 417.5,-403.5647 417.5,-397.5647 417.5,-397.5647 417.5,-394.5647 420.5,-391.5647 423.5,-391.5647 423.5,-391.5647 465.5,-391.5647 465.5,-391.5647 468.5,-391.5647 471.5,-394.5647 471.5,-397.5647 471.5,-397.5647 471.5,-403.5647 471.5,-403.5647 471.5,-406.5647 468.5,-409.5647 465.5,-409.5647"/>
<text text-anchor="middle" x="444.5" y="-398.3647" font-family="Helvetica,sans-Serif" font-size="9.00" fill="#000000">Lval.ts</text>
</a>
</g>
</g>
<!-- src/MailboxProcessor.js -->
<g id="node11" class="node">
<title>src/MailboxProcessor.js</title>
<g id="a_node11"><a xlink:href="src/MailboxProcessor.js" xlink:title="MailboxProcessor.js">
<path fill="#ffffcc" stroke="#000000" d="M287,-464.5647C287,-464.5647 200,-464.5647 200,-464.5647 197,-464.5647 194,-461.5647 194,-458.5647 194,-458.5647 194,-452.5647 194,-452.5647 194,-449.5647 197,-446.5647 200,-446.5647 200,-446.5647 287,-446.5647 287,-446.5647 290,-446.5647 293,-449.5647 293,-452.5647 293,-452.5647 293,-458.5647 293,-458.5647 293,-461.5647 290,-464.5647 287,-464.5647"/>
<text text-anchor="middle" x="243.5" y="-453.3647" font-family="Helvetica,sans-Serif" font-size="9.00" fill="#000000">MailboxProcessor.js</text>
</a>
</g>
</g>
<!-- src/MailboxProcessor.js&#45;&gt;src/Lval.ts -->
<g id="edge2" class="edge">
<title>src/MailboxProcessor.js&#45;&gt;src/Lval.ts</title>
<path fill="none" stroke="#000000" stroke-width="2" stroke-opacity="0.200000" d="M278.9625,-464.5888C284.0509,-466.9395 288.9314,-469.8837 293,-473.5647 302.8763,-482.5001 294.7232,-493.4784 306,-500.5647 322.5578,-510.9695 377.6526,-511.297 394,-500.5647 406.1474,-492.5897 400.6747,-483.6471 407,-470.5647 416.3469,-451.2328 428.2011,-429.5135 436.052,-415.4674"/>
<polygon fill="#000000" fill-opacity="0.200000" stroke="#000000" stroke-width="2" stroke-opacity="0.200000" points="438.0454,-416.2066 439.1526,-409.9468 434.3834,-414.1498 438.0454,-416.2066"/>
</g>
<!-- src/logger.ts -->
<g id="node12" class="node">
<title>src/logger.ts</title>
<g id="a_node12"><a xlink:href="src/logger.ts" xlink:title="logger.ts">
<path fill="#ddfeff" stroke="#000000" d="M465.5,-494.5647C465.5,-494.5647 423.5,-494.5647 423.5,-494.5647 420.5,-494.5647 417.5,-491.5647 417.5,-488.5647 417.5,-488.5647 417.5,-482.5647 417.5,-482.5647 417.5,-479.5647 420.5,-476.5647 423.5,-476.5647 423.5,-476.5647 465.5,-476.5647 465.5,-476.5647 468.5,-476.5647 471.5,-479.5647 471.5,-482.5647 471.5,-482.5647 471.5,-488.5647 471.5,-488.5647 471.5,-491.5647 468.5,-494.5647 465.5,-494.5647"/>
<text text-anchor="middle" x="444.5" y="-483.3647" font-family="Helvetica,sans-Serif" font-size="9.00" fill="#000000">logger.ts</text>
</a>
</g>
</g>
<!-- src/MailboxProcessor.js&#45;&gt;src/logger.ts -->
<g id="edge1" class="edge">
<title>src/MailboxProcessor.js&#45;&gt;src/logger.ts</title>
<path fill="none" stroke="#000000" stroke-width="2" stroke-opacity="0.200000" d="M280.3639,-464.6642C285.028,-466.9917 289.4139,-469.9092 293,-473.5647 305.5003,-486.3067 291.4785,-501.1848 306,-511.5647 341.826,-537.1729 395.744,-513.9156 424.6003,-497.8495"/>
<polygon fill="#000000" fill-opacity="0.200000" stroke="#000000" stroke-width="2" stroke-opacity="0.200000" points="425.8577,-499.5497 430.0246,-494.7488 423.7734,-495.9033 425.8577,-499.5497"/>
</g>
<!-- src/options.ts -->
<g id="node13" class="node">
<title>src/options.ts</title>
<g id="a_node13"><a xlink:href="src/options.ts" xlink:title="options.ts">
<path fill="#ddfeff" stroke="#000000" d="M372,-552.5647C372,-552.5647 328,-552.5647 328,-552.5647 325,-552.5647 322,-549.5647 322,-546.5647 322,-546.5647 322,-540.5647 322,-540.5647 322,-537.5647 325,-534.5647 328,-534.5647 328,-534.5647 372,-534.5647 372,-534.5647 375,-534.5647 378,-537.5647 378,-540.5647 378,-540.5647 378,-546.5647 378,-546.5647 378,-549.5647 375,-552.5647 372,-552.5647"/>
<text text-anchor="middle" x="350" y="-541.3647" font-family="Helvetica,sans-Serif" font-size="9.00" fill="#000000">options.ts</text>
</a>
</g>
</g>
<!-- src/MailboxProcessor.js&#45;&gt;src/options.ts -->
<g id="edge3" class="edge">
<title>src/MailboxProcessor.js&#45;&gt;src/options.ts</title>
<path fill="none" stroke="#000000" stroke-width="2" stroke-opacity="0.200000" d="M281.1469,-464.6484C285.5805,-466.9751 289.6942,-469.8966 293,-473.5647 308.9485,-491.2608 290.4045,-507.5567 306,-525.5647 308.8974,-528.9103 312.5117,-531.6441 316.4153,-533.8756"/>
<polygon fill="#000000" fill-opacity="0.200000" stroke="#000000" stroke-width="2" stroke-opacity="0.200000" points="315.5731,-535.8026 321.8776,-536.6176 317.4573,-532.049 315.5731,-535.8026"/>
</g>
<!-- src/process.js -->
<g id="node14" class="node">
<title>src/process.js</title>
<g id="a_node14"><a xlink:href="src/process.js" xlink:title="process.js">
<path fill="#ffffcc" stroke="#000000" d="M373,-434.5647C373,-434.5647 327,-434.5647 327,-434.5647 324,-434.5647 321,-431.5647 321,-428.5647 321,-428.5647 321,-422.5647 321,-422.5647 321,-419.5647 324,-416.5647 327,-416.5647 327,-416.5647 373,-416.5647 373,-416.5647 376,-416.5647 379,-419.5647 379,-422.5647 379,-422.5647 379,-428.5647 379,-428.5647 379,-431.5647 376,-434.5647 373,-434.5647"/>
<text text-anchor="middle" x="350" y="-423.3647" font-family="Helvetica,sans-Serif" font-size="9.00" fill="#000000">process.js</text>
</a>
</g>
</g>
<!-- src/MailboxProcessor.js&#45;&gt;src/process.js -->
<g id="edge4" class="edge">
<title>src/MailboxProcessor.js&#45;&gt;src/process.js</title>
<path fill="none" stroke="#000000" stroke-width="2" stroke-opacity="0.200000" d="M275.4535,-446.5637C287.8798,-443.0633 302.1586,-439.0411 314.8725,-435.4598"/>
<polygon fill="#000000" fill-opacity="0.200000" stroke="#000000" stroke-width="2" stroke-opacity="0.200000" points="315.7673,-437.3895 320.9732,-433.7413 314.6285,-433.3468 315.7673,-437.3895"/>
</g>
<!-- src/SandboxStatus.ts -->
<g id="node15" class="node">
<title>src/SandboxStatus.ts</title>
<g id="a_node15"><a xlink:href="src/SandboxStatus.ts" xlink:title="SandboxStatus.ts">
<path fill="#ddfeff" stroke="#000000" d="M388,-464.5647C388,-464.5647 312,-464.5647 312,-464.5647 309,-464.5647 306,-461.5647 306,-458.5647 306,-458.5647 306,-452.5647 306,-452.5647 306,-449.5647 309,-446.5647 312,-446.5647 312,-446.5647 388,-446.5647 388,-446.5647 391,-446.5647 394,-449.5647 394,-452.5647 394,-452.5647 394,-458.5647 394,-458.5647 394,-461.5647 391,-464.5647 388,-464.5647"/>
<text text-anchor="middle" x="350" y="-453.3647" font-family="Helvetica,sans-Serif" font-size="9.00" fill="#000000">SandboxStatus.ts</text>
</a>
</g>
</g>
<!-- src/MailboxProcessor.js&#45;&gt;src/SandboxStatus.ts -->
<g id="edge5" class="edge">
<title>src/MailboxProcessor.js&#45;&gt;src/SandboxStatus.ts</title>
<path fill="none" stroke="#000000" stroke-width="2" stroke-opacity="0.200000" d="M293.0086,-455.5647C295.1271,-455.5647 297.2535,-455.5647 299.3743,-455.5647"/>
<polygon fill="#000000" fill-opacity="0.200000" stroke="#000000" stroke-width="2" stroke-opacity="0.200000" points="299.7067,-457.6648 305.7067,-455.5647 299.7067,-453.4648 299.7067,-457.6648"/>
</g>
<!-- src/Thread.ts -->
<g id="node16" class="node">
<title>src/Thread.ts</title>
<g id="a_node16"><a xlink:href="src/Thread.ts" xlink:title="Thread.ts">
<path fill="#ddfeff" stroke="#000000" d="M371.5,-494.5647C371.5,-494.5647 328.5,-494.5647 328.5,-494.5647 325.5,-494.5647 322.5,-491.5647 322.5,-488.5647 322.5,-488.5647 322.5,-482.5647 322.5,-482.5647 322.5,-479.5647 325.5,-476.5647 328.5,-476.5647 328.5,-476.5647 371.5,-476.5647 371.5,-476.5647 374.5,-476.5647 377.5,-479.5647 377.5,-482.5647 377.5,-482.5647 377.5,-488.5647 377.5,-488.5647 377.5,-491.5647 374.5,-494.5647 371.5,-494.5647"/>
<text text-anchor="middle" x="350" y="-483.3647" font-family="Helvetica,sans-Serif" font-size="9.00" fill="#000000">Thread.ts</text>
</a>
</g>
</g>
<!-- src/MailboxProcessor.js&#45;&gt;src/Thread.ts -->
<g id="edge6" class="edge">
<title>src/MailboxProcessor.js&#45;&gt;src/Thread.ts</title>
<path fill="none" stroke="#000000" stroke-width="2" stroke-opacity="0.200000" d="M275.4535,-464.5657C288.4179,-468.2176 303.3986,-472.4375 316.5149,-476.1322"/>
<polygon fill="#000000" fill-opacity="0.200000" stroke="#000000" stroke-width="2" stroke-opacity="0.200000" points="316.0514,-478.1834 322.3961,-477.7889 317.1903,-474.1407 316.0514,-478.1834"/>
</g>
<!-- src/Thread.ts&#45;&gt;src/Lval.ts -->
<g id="edge23" class="edge">
<title>src/Thread.ts&#45;&gt;src/Lval.ts</title>
<path fill="none" stroke="#000000" stroke-width="2" stroke-opacity="0.200000" d="M377.8173,-478.9878C383.4981,-476.8701 389.1997,-474.1178 394,-470.5647 413.9527,-455.7959 429.2288,-430.8295 437.5258,-415.0473"/>
<polygon fill="#000000" fill-opacity="0.200000" stroke="#000000" stroke-width="2" stroke-opacity="0.200000" points="439.4059,-415.9832 440.2626,-409.6842 435.6648,-414.0741 439.4059,-415.9832"/>
</g>
<!-- src/Thread.ts&#45;&gt;src/logger.ts -->
<g id="edge22" class="edge">
<title>src/Thread.ts&#45;&gt;src/logger.ts</title>
<path fill="none" stroke="#000000" stroke-width="2" stroke-opacity="0.200000" d="M377.5873,-485.5647C388.0617,-485.5647 400.105,-485.5647 411.062,-485.5647"/>
<polygon fill="#000000" fill-opacity="0.200000" stroke="#000000" stroke-width="2" stroke-opacity="0.200000" points="411.3677,-487.6648 417.3677,-485.5647 411.3676,-483.4648 411.3677,-487.6648"/>
</g>
<!-- src/ThreadError.ts -->
<g id="node20" class="node">
<title>src/ThreadError.ts</title>
<g id="a_node20"><a xlink:href="src/ThreadError.ts" xlink:title="ThreadError.ts">
<path fill="#ddfeff" stroke="#000000" d="M476,-324.5647C476,-324.5647 413,-324.5647 413,-324.5647 410,-324.5647 407,-321.5647 407,-318.5647 407,-318.5647 407,-312.5647 407,-312.5647 407,-309.5647 410,-306.5647 413,-306.5647 413,-306.5647 476,-306.5647 476,-306.5647 479,-306.5647 482,-309.5647 482,-312.5647 482,-312.5647 482,-318.5647 482,-318.5647 482,-321.5647 479,-324.5647 476,-324.5647"/>
<text text-anchor="middle" x="444.5" y="-313.3647" font-family="Helvetica,sans-Serif" font-size="9.00" fill="#000000">ThreadError.ts</text>
</a>
</g>
</g>
<!-- src/Thread.ts&#45;&gt;src/ThreadError.ts -->
<g id="edge24" class="edge">
<title>src/Thread.ts&#45;&gt;src/ThreadError.ts</title>
<path fill="none" stroke="#000000" stroke-width="2" stroke-opacity="0.200000" d="M377.9181,-481.0635C384.0044,-478.8366 389.8554,-475.5153 394,-470.5647 418.5324,-441.261 394.9134,-421.8201 407,-385.5647 413.7911,-365.1939 426.1994,-343.6998 434.8762,-329.9895"/>
<polygon fill="#000000" fill-opacity="0.200000" stroke="#000000" stroke-width="2" stroke-opacity="0.200000" points="436.8539,-330.7972 438.3391,-324.6162 433.3236,-328.5219 436.8539,-330.7972"/>
</g>
<!-- src/NodeManager.ts -->
<g id="node17" class="node">
<title>src/NodeManager.ts</title>
<g id="a_node17"><a xlink:href="src/NodeManager.ts" xlink:title="NodeManager.ts">
<path fill="#ddfeff" stroke="#000000" d="M280,-216.5647C280,-216.5647 207,-216.5647 207,-216.5647 204,-216.5647 201,-213.5647 201,-210.5647 201,-210.5647 201,-204.5647 201,-204.5647 201,-201.5647 204,-198.5647 207,-198.5647 207,-198.5647 280,-198.5647 280,-198.5647 283,-198.5647 286,-201.5647 286,-204.5647 286,-204.5647 286,-210.5647 286,-210.5647 286,-213.5647 283,-216.5647 280,-216.5647"/>
<text text-anchor="middle" x="243.5" y="-205.3647" font-family="Helvetica,sans-Serif" font-size="9.00" fill="#000000">NodeManager.ts</text>
</a>
</g>
</g>
<!-- src/RtClosure.js -->
<g id="node18" class="node">
<title>src/RtClosure.js</title>
<g id="a_node18"><a xlink:href="src/RtClosure.js" xlink:title="RtClosure.js">
<path fill="#ffffcc" stroke="#000000" d="M271,-274.5647C271,-274.5647 216,-274.5647 216,-274.5647 213,-274.5647 210,-271.5647 210,-268.5647 210,-268.5647 210,-262.5647 210,-262.5647 210,-259.5647 213,-256.5647 216,-256.5647 216,-256.5647 271,-256.5647 271,-256.5647 274,-256.5647 277,-259.5647 277,-262.5647 277,-262.5647 277,-268.5647 277,-268.5647 277,-271.5647 274,-274.5647 271,-274.5647"/>
<text text-anchor="middle" x="243.5" y="-263.3647" font-family="Helvetica,sans-Serif" font-size="9.00" fill="#000000">RtClosure.js</text>
</a>
</g>
</g>
<!-- src/Scheduler.js -->
<g id="node19" class="node">
<title>src/Scheduler.js</title>
<g id="a_node19"><a xlink:href="src/Scheduler.js" xlink:title="Scheduler.js">
<path fill="#ffffcc" stroke="#000000" d="M271.5,-392.5647C271.5,-392.5647 215.5,-392.5647 215.5,-392.5647 212.5,-392.5647 209.5,-389.5647 209.5,-386.5647 209.5,-386.5647 209.5,-380.5647 209.5,-380.5647 209.5,-377.5647 212.5,-374.5647 215.5,-374.5647 215.5,-374.5647 271.5,-374.5647 271.5,-374.5647 274.5,-374.5647 277.5,-377.5647 277.5,-380.5647 277.5,-380.5647 277.5,-386.5647 277.5,-386.5647 277.5,-389.5647 274.5,-392.5647 271.5,-392.5647"/>
<text text-anchor="middle" x="243.5" y="-381.3647" font-family="Helvetica,sans-Serif" font-size="9.00" fill="#000000">Scheduler.js</text>
</a>
</g>
</g>
<!-- src/Scheduler.js&#45;&gt;src/Authority.ts -->
<g id="edge7" class="edge">
<title>src/Scheduler.js&#45;&gt;src/Authority.ts</title>
<path fill="none" stroke="#000000" stroke-width="2" stroke-opacity="0.200000" d="M277.6853,-378.7679C283.5036,-376.519 288.9612,-373.2634 293,-368.5647 319.3442,-337.9156 280.1856,-309.6613 306,-278.5647 308.1264,-276.0032 310.71,-273.8777 313.5481,-272.1142"/>
<polygon fill="#000000" fill-opacity="0.200000" stroke="#000000" stroke-width="2" stroke-opacity="0.200000" points="314.5489,-273.9607 318.888,-269.315 312.5989,-270.2408 314.5489,-273.9607"/>
</g>
<!-- src/Scheduler.js&#45;&gt;src/BaseFunction.ts -->
<g id="edge8" class="edge">
<title>src/Scheduler.js&#45;&gt;src/BaseFunction.ts</title>
<path fill="none" stroke="#000000" stroke-width="2" stroke-opacity="0.200000" d="M277.6408,-378.4034C283.3916,-376.1827 288.836,-373.0308 293,-368.5647 310.7192,-349.5596 289.1941,-331.3819 306,-311.5647 307.7416,-309.5111 309.7539,-307.6885 311.9396,-306.0715"/>
<polygon fill="#000000" fill-opacity="0.200000" stroke="#000000" stroke-width="2" stroke-opacity="0.200000" points="313.371,-307.6501 317.3086,-302.6595 311.1182,-304.1053 313.371,-307.6501"/>
</g>
<!-- src/Scheduler.js&#45;&gt;src/BaseKont.js -->
<g id="edge9" class="edge">
<title>src/Scheduler.js&#45;&gt;src/BaseKont.js</title>
<path fill="none" stroke="#000000" stroke-width="2" stroke-opacity="0.200000" d="M277.7835,-377.7703C288.4552,-375.9666 300.2959,-373.9654 311.2504,-372.1139"/>
<polygon fill="#000000" fill-opacity="0.200000" stroke="#000000" stroke-width="2" stroke-opacity="0.200000" points="311.6659,-374.1736 317.232,-371.1029 310.9659,-370.0323 311.6659,-374.1736"/>
</g>
<!-- src/Scheduler.js&#45;&gt;src/Lval.ts -->
<g id="edge11" class="edge">
<title>src/Scheduler.js&#45;&gt;src/Lval.ts</title>
<path fill="none" stroke="#000000" stroke-width="2" stroke-opacity="0.200000" d="M277.7306,-377.4151C283.2713,-375.2865 288.6188,-372.4213 293,-368.5647 303.6022,-359.2319 294.1443,-347.2425 306,-339.5647 338.8284,-318.3049 358.6083,-322.9183 394,-339.5647 414.2089,-349.0699 429.104,-371.0723 437.2923,-385.8854"/>
<polygon fill="#000000" fill-opacity="0.200000" stroke="#000000" stroke-width="2" stroke-opacity="0.200000" points="435.5286,-387.0419 440.1954,-391.3583 439.2389,-385.0738 435.5286,-387.0419"/>
</g>
<!-- src/Scheduler.js&#45;&gt;src/logger.ts -->
<g id="edge10" class="edge">
<title>src/Scheduler.js&#45;&gt;src/logger.ts</title>
<path fill="none" stroke="#000000" stroke-width="2" stroke-opacity="0.200000" d="M277.6299,-376.4459C283.0587,-374.4278 288.395,-371.8507 293,-368.5647 301.0329,-362.8327 297.2137,-355.0572 306,-350.5647 323.4115,-341.662 378.8769,-338.1667 394,-350.5647 416.7834,-369.2426 397.0474,-387.8357 407,-415.5647 414.254,-435.7752 426.562,-457.304 435.0891,-471.0662"/>
<polygon fill="#000000" fill-opacity="0.200000" stroke="#000000" stroke-width="2" stroke-opacity="0.200000" points="433.5125,-472.5036 438.4864,-476.4622 437.0668,-470.2658 433.5125,-472.5036"/>
</g>
<!-- src/Scheduler.js&#45;&gt;src/options.ts -->
<g id="edge12" class="edge">
<title>src/Scheduler.js&#45;&gt;src/options.ts</title>
<path fill="none" stroke="#000000" stroke-width="2" stroke-opacity="0.200000" d="M254.3551,-392.9115C265.768,-403.3576 283.3761,-421.3449 293,-440.5647 305.2166,-464.9624 292.796,-476.6869 306,-500.5647 312.5142,-512.3449 323.2787,-522.9479 332.5296,-530.6777"/>
<polygon fill="#000000" fill-opacity="0.200000" stroke="#000000" stroke-width="2" stroke-opacity="0.200000" points="331.2116,-532.3126 337.1988,-534.449 333.8506,-529.0452 331.2116,-532.3126"/>
</g>
<!-- src/Scheduler.js&#45;&gt;src/process.js -->
<g id="edge13" class="edge">
<title>src/Scheduler.js&#45;&gt;src/process.js</title>
<path fill="none" stroke="#000000" stroke-width="2" stroke-opacity="0.200000" d="M263.3187,-392.6042C275.5261,-398.0523 291.5535,-404.9918 306,-410.5647 309.459,-411.899 313.0934,-413.2375 316.7289,-414.5356"/>
<polygon fill="#000000" fill-opacity="0.200000" stroke="#000000" stroke-width="2" stroke-opacity="0.200000" points="316.0607,-416.5266 322.4176,-416.536 317.454,-412.5645 316.0607,-416.5266"/>
</g>
<!-- src/Scheduler.js&#45;&gt;src/SandboxStatus.ts -->
<g id="edge14" class="edge">
<title>src/Scheduler.js&#45;&gt;src/SandboxStatus.ts</title>
<path fill="none" stroke="#000000" stroke-width="2" stroke-opacity="0.200000" d="M253.2219,-392.6231C270.0243,-408.2514 302.9977,-438.7895 306,-440.5647 307.9929,-441.7431 310.0918,-442.8457 312.2477,-443.8748"/>
<polygon fill="#000000" fill-opacity="0.200000" stroke="#000000" stroke-width="2" stroke-opacity="0.200000" points="311.7167,-445.9353 318.0545,-446.4285 313.4076,-442.0907 311.7167,-445.9353"/>
</g>
<!-- src/Scheduler.js&#45;&gt;src/Thread.ts -->
<g id="edge15" class="edge">
<title>src/Scheduler.js&#45;&gt;src/Thread.ts</title>
<path fill="none" stroke="#000000" stroke-width="2" stroke-opacity="0.200000" d="M253.2535,-392.9198C264.0348,-403.653 281.4063,-422.1543 293,-440.5647 300.7435,-452.861 295.3203,-460.7105 306,-470.5647 309.1084,-473.4328 312.7881,-475.7553 316.6748,-477.6353"/>
<polygon fill="#000000" fill-opacity="0.200000" stroke="#000000" stroke-width="2" stroke-opacity="0.200000" points="316.1308,-479.6851 322.4752,-480.0852 317.765,-475.8161 316.1308,-479.6851"/>
</g>
<!-- src/Scheduler.js&#45;&gt;src/ThreadError.ts -->
<g id="edge16" class="edge">
<title>src/Scheduler.js&#45;&gt;src/ThreadError.ts</title>
<path fill="none" stroke="#000000" stroke-width="2" stroke-opacity="0.200000" d="M277.7319,-378.1499C283.4049,-375.9499 288.798,-372.8705 293,-368.5647 308.1373,-353.0537 289.0406,-335.0594 306,-321.5647 320.1393,-310.3139 365.3401,-310.197 400.3005,-312.0237"/>
<polygon fill="#000000" fill-opacity="0.200000" stroke="#000000" stroke-width="2" stroke-opacity="0.200000" points="400.5905,-314.1433 406.6994,-312.3851 400.8274,-309.95 400.5905,-314.1433"/>
</g>
<!-- src/UnitBase.js -->
<g id="node21" class="node">
<title>src/UnitBase.js</title>
<g id="a_node21"><a xlink:href="src/UnitBase.js" xlink:title="UnitBase.js">
<path fill="#ffffcc" stroke="#000000" d="M375.5,-404.5647C375.5,-404.5647 324.5,-404.5647 324.5,-404.5647 321.5,-404.5647 318.5,-401.5647 318.5,-398.5647 318.5,-398.5647 318.5,-392.5647 318.5,-392.5647 318.5,-389.5647 321.5,-386.5647 324.5,-386.5647 324.5,-386.5647 375.5,-386.5647 375.5,-386.5647 378.5,-386.5647 381.5,-389.5647 381.5,-392.5647 381.5,-392.5647 381.5,-398.5647 381.5,-398.5647 381.5,-401.5647 378.5,-404.5647 375.5,-404.5647"/>
<text text-anchor="middle" x="350" y="-393.3647" font-family="Helvetica,sans-Serif" font-size="9.00" fill="#000000">UnitBase.js</text>
</a>
</g>
</g>
<!-- src/Scheduler.js&#45;&gt;src/UnitBase.js -->
<g id="edge17" class="edge">
<title>src/Scheduler.js&#45;&gt;src/UnitBase.js</title>
<path fill="none" stroke="#000000" stroke-width="2" stroke-opacity="0.200000" d="M277.7835,-387.4276C288.763,-388.6647 300.98,-390.0413 312.1961,-391.3051"/>
<polygon fill="#000000" fill-opacity="0.200000" stroke="#000000" stroke-width="2" stroke-opacity="0.200000" points="312.1126,-393.4089 318.3101,-391.994 312.583,-389.2353 312.1126,-393.4089"/>
</g>
<!-- src/StackCallItem.ts -->
<g id="node22" class="node">
<title>src/StackCallItem.ts</title>
<g id="a_node22"><a xlink:href="src/StackCallItem.ts" xlink:title="StackCallItem.ts">
<path fill="#ddfeff" stroke="#000000" d="M278.5,-522.5647C278.5,-522.5647 208.5,-522.5647 208.5,-522.5647 205.5,-522.5647 202.5,-519.5647 202.5,-516.5647 202.5,-516.5647 202.5,-510.5647 202.5,-510.5647 202.5,-507.5647 205.5,-504.5647 208.5,-504.5647 208.5,-504.5647 278.5,-504.5647 278.5,-504.5647 281.5,-504.5647 284.5,-507.5647 284.5,-510.5647 284.5,-510.5647 284.5,-516.5647 284.5,-516.5647 284.5,-519.5647 281.5,-522.5647 278.5,-522.5647"/>
<text text-anchor="middle" x="243.5" y="-511.3647" font-family="Helvetica,sans-Serif" font-size="9.00" fill="#000000">StackCallItem.ts</text>
</a>
</g>
</g>
<!-- src/StackCallItem.ts&#45;&gt;src/options.ts -->
<g id="edge18" class="edge">
<title>src/StackCallItem.ts&#45;&gt;src/options.ts</title>
<path fill="none" stroke="#000000" stroke-width="2" stroke-opacity="0.200000" d="M275.4535,-522.5657C288.2053,-526.1577 302.9079,-530.2993 315.8683,-533.9501"/>
<polygon fill="#000000" fill-opacity="0.200000" stroke="#000000" stroke-width="2" stroke-opacity="0.200000" points="315.3425,-535.9837 321.6872,-535.5892 316.4814,-531.941 315.3425,-535.9837"/>
</g>
<!-- src/StackItem.ts -->
<g id="node23" class="node">
<title>src/StackItem.ts</title>
<g id="a_node23"><a xlink:href="src/StackItem.ts" xlink:title="StackItem.ts">
<path fill="#ddfeff" stroke="#000000" d="M376.5,-596.5647C376.5,-596.5647 323.5,-596.5647 323.5,-596.5647 320.5,-596.5647 317.5,-593.5647 317.5,-590.5647 317.5,-590.5647 317.5,-584.5647 317.5,-584.5647 317.5,-581.5647 320.5,-578.5647 323.5,-578.5647 323.5,-578.5647 376.5,-578.5647 376.5,-578.5647 379.5,-578.5647 382.5,-581.5647 382.5,-584.5647 382.5,-584.5647 382.5,-590.5647 382.5,-590.5647 382.5,-593.5647 379.5,-596.5647 376.5,-596.5647"/>
<text text-anchor="middle" x="350" y="-585.3647" font-family="Helvetica,sans-Serif" font-size="9.00" fill="#000000">StackItem.ts</text>
</a>
</g>
</g>
<!-- src/StackCallItem.ts&#45;&gt;src/StackItem.ts -->
<g id="edge19" class="edge">
<title>src/StackCallItem.ts&#45;&gt;src/StackItem.ts</title>
<path fill="none" stroke="#000000" stroke-width="2" stroke-opacity="0.200000" d="M284.7692,-522.4559C287.7737,-524.1512 290.5718,-526.1674 293,-528.5647 306.6036,-541.9951 293.0431,-555.5095 306,-569.5647 307.9929,-571.7265 310.2832,-573.6352 312.7496,-575.3194"/>
<polygon fill="#000000" fill-opacity="0.200000" stroke="#000000" stroke-width="2" stroke-opacity="0.200000" points="311.793,-577.1942 318.0205,-578.4703 313.948,-573.5892 311.793,-577.1942"/>
</g>
<!-- src/StackGuardItem.ts -->
<g id="node24" class="node">
<title>src/StackGuardItem.ts</title>
<g id="a_node24"><a xlink:href="src/StackGuardItem.ts" xlink:title="StackGuardItem.ts">
<path fill="#ddfeff" stroke="#000000" d="M283,-552.5647C283,-552.5647 204,-552.5647 204,-552.5647 201,-552.5647 198,-549.5647 198,-546.5647 198,-546.5647 198,-540.5647 198,-540.5647 198,-537.5647 201,-534.5647 204,-534.5647 204,-534.5647 283,-534.5647 283,-534.5647 286,-534.5647 289,-537.5647 289,-540.5647 289,-540.5647 289,-546.5647 289,-546.5647 289,-549.5647 286,-552.5647 283,-552.5647"/>
<text text-anchor="middle" x="243.5" y="-541.3647" font-family="Helvetica,sans-Serif" font-size="9.00" fill="#000000">StackGuardItem.ts</text>
</a>
</g>
</g>
<!-- src/StackGuardItem.ts&#45;&gt;src/StackItem.ts -->
<g id="edge20" class="edge">
<title>src/StackGuardItem.ts&#45;&gt;src/StackItem.ts</title>
<path fill="none" stroke="#000000" stroke-width="2" stroke-opacity="0.200000" d="M279.6272,-552.6118C284.2482,-554.3148 288.8194,-556.2903 293,-558.5647 299.6484,-562.1816 299.529,-565.6391 306,-569.5647 309.784,-571.8602 313.9134,-573.9839 318.0774,-575.9069"/>
<polygon fill="#000000" fill-opacity="0.200000" stroke="#000000" stroke-width="2" stroke-opacity="0.200000" points="317.4103,-577.9077 323.748,-578.4022 319.102,-574.0634 317.4103,-577.9077"/>
</g>
<!-- src/StackThread.ts -->
<g id="node25" class="node">
<title>src/StackThread.ts</title>
<g id="a_node25"><a xlink:href="src/StackThread.ts" xlink:title="StackThread.ts">
<path fill="#ddfeff" stroke="#000000" d="M164.5,-522.5647C164.5,-522.5647 99.5,-522.5647 99.5,-522.5647 96.5,-522.5647 93.5,-519.5647 93.5,-516.5647 93.5,-516.5647 93.5,-510.5647 93.5,-510.5647 93.5,-507.5647 96.5,-504.5647 99.5,-504.5647 99.5,-504.5647 164.5,-504.5647 164.5,-504.5647 167.5,-504.5647 170.5,-507.5647 170.5,-510.5647 170.5,-510.5647 170.5,-516.5647 170.5,-516.5647 170.5,-519.5647 167.5,-522.5647 164.5,-522.5647"/>
<text text-anchor="middle" x="132" y="-511.3647" font-family="Helvetica,sans-Serif" font-size="9.00" fill="#000000">StackThread.ts</text>
</a>
</g>
</g>
<!-- src/StackThread.ts&#45;&gt;src/StackCallItem.ts -->
<g id="edge21" class="edge">
<title>src/StackThread.ts&#45;&gt;src/StackCallItem.ts</title>
<path fill="none" stroke="#000000" stroke-width="2" stroke-opacity="0.200000" d="M170.6844,-513.5647C178.8041,-513.5647 187.4584,-513.5647 195.8615,-513.5647"/>
<polygon fill="#000000" fill-opacity="0.200000" stroke="#000000" stroke-width="2" stroke-opacity="0.200000" points="196.2254,-515.6648 202.2253,-513.5647 196.2253,-511.4648 196.2254,-515.6648"/>
</g>
<!-- src/ValuesUtil.js -->
<g id="node26" class="node">
<title>src/ValuesUtil.js</title>
<g id="a_node26"><a xlink:href="src/ValuesUtil.js" xlink:title="ValuesUtil.js">
<path fill="#ffffcc" stroke="#000000" d="M271.5,-362.5647C271.5,-362.5647 215.5,-362.5647 215.5,-362.5647 212.5,-362.5647 209.5,-359.5647 209.5,-356.5647 209.5,-356.5647 209.5,-350.5647 209.5,-350.5647 209.5,-347.5647 212.5,-344.5647 215.5,-344.5647 215.5,-344.5647 271.5,-344.5647 271.5,-344.5647 274.5,-344.5647 277.5,-347.5647 277.5,-350.5647 277.5,-350.5647 277.5,-356.5647 277.5,-356.5647 277.5,-359.5647 274.5,-362.5647 271.5,-362.5647"/>
<text text-anchor="middle" x="243.5" y="-351.3647" font-family="Helvetica,sans-Serif" font-size="9.00" fill="#000000">ValuesUtil.js</text>
</a>
</g>
</g>
<!-- src/levels/lohi.ts -->
<g id="node27" class="node">
<title>src/levels/lohi.ts</title>
<g id="a_node27"><a xlink:href="src/levels/lohi.ts" xlink:title="lohi.ts">
<path fill="#ddfeff" stroke="#000000" d="M153,-570.5647C153,-570.5647 111,-570.5647 111,-570.5647 108,-570.5647 105,-567.5647 105,-564.5647 105,-564.5647 105,-558.5647 105,-558.5647 105,-555.5647 108,-552.5647 111,-552.5647 111,-552.5647 153,-552.5647 153,-552.5647 156,-552.5647 159,-555.5647 159,-558.5647 159,-558.5647 159,-564.5647 159,-564.5647 159,-567.5647 156,-570.5647 153,-570.5647"/>
<text text-anchor="middle" x="132" y="-559.3647" font-family="Helvetica,sans-Serif" font-size="9.00" fill="#000000">lohi.ts</text>
</a>
</g>
</g>
<!-- src/levels/lohi.ts&#45;&gt;src/Level.ts -->
<g id="edge25" class="edge">
<title>src/levels/lohi.ts&#45;&gt;src/Level.ts</title>
<path fill="none" stroke="#000000" stroke-width="2" stroke-opacity="0.200000" d="M159.0933,-567.5059C166.4786,-569.7435 174.2878,-572.7105 181,-576.5647 187.8188,-580.4801 187.1756,-584.6589 194,-588.5647 199.0365,-591.4473 204.6847,-593.8304 210.3147,-595.7825"/>
<polygon fill="#000000" fill-opacity="0.200000" stroke="#000000" stroke-width="2" stroke-opacity="0.200000" points="210.0321,-597.8975 216.3869,-597.7348 211.3177,-593.899 210.0321,-597.8975"/>
</g>
<!-- src/levels/tagsets.ts -->
<g id="node28" class="node">
<title>src/levels/tagsets.ts</title>
<g id="a_node28"><a xlink:href="src/levels/tagsets.ts" xlink:title="tagsets.ts">
<path fill="#ddfeff" stroke="#000000" d="M153.5,-600.5647C153.5,-600.5647 110.5,-600.5647 110.5,-600.5647 107.5,-600.5647 104.5,-597.5647 104.5,-594.5647 104.5,-594.5647 104.5,-588.5647 104.5,-588.5647 104.5,-585.5647 107.5,-582.5647 110.5,-582.5647 110.5,-582.5647 153.5,-582.5647 153.5,-582.5647 156.5,-582.5647 159.5,-585.5647 159.5,-588.5647 159.5,-588.5647 159.5,-594.5647 159.5,-594.5647 159.5,-597.5647 156.5,-600.5647 153.5,-600.5647"/>
<text text-anchor="middle" x="132" y="-589.3647" font-family="Helvetica,sans-Serif" font-size="9.00" fill="#000000">tagsets.ts</text>
</a>
</g>
</g>
<!-- src/levels/tagsets.ts&#45;&gt;src/Level.ts -->
<g id="edge26" class="edge">
<title>src/levels/tagsets.ts&#45;&gt;src/Level.ts</title>
<path fill="none" stroke="#000000" stroke-width="2" stroke-opacity="0.200000" d="M159.5618,-594.531C174.8195,-596.1731 193.8997,-598.2265 210.0117,-599.9606"/>
<polygon fill="#000000" fill-opacity="0.200000" stroke="#000000" stroke-width="2" stroke-opacity="0.200000" points="210.0649,-602.0783 216.2552,-600.6325 210.5144,-597.9025 210.0649,-602.0783"/>
</g>
<!-- src/levels/tagsets.ts&#45;&gt;src/logger.ts -->
<g id="edge27" class="edge">
<title>src/levels/tagsets.ts&#45;&gt;src/logger.ts</title>
<path fill="none" stroke="#000000" stroke-width="2" stroke-opacity="0.200000" d="M147.714,-600.567C159.9009,-607.0052 177.4492,-615.1172 194,-618.5647 281.2992,-636.7487 323.5661,-657.2535 394,-602.5647 426.7241,-577.1559 438.595,-526.3136 442.6106,-500.8436"/>
<polygon fill="#000000" fill-opacity="0.200000" stroke="#000000" stroke-width="2" stroke-opacity="0.200000" points="444.7244,-500.8991 443.5081,-494.6596 440.568,-500.2957 444.7244,-500.8991"/>
</g>
<!-- src/loadLibs.js -->
<g id="node29" class="node">
<title>src/loadLibs.js</title>
<g id="a_node29"><a xlink:href="src/loadLibs.js" xlink:title="loadLibs.js">
<path fill="#ffffcc" stroke="#000000" d="M268,-304.5647C268,-304.5647 219,-304.5647 219,-304.5647 216,-304.5647 213,-301.5647 213,-298.5647 213,-298.5647 213,-292.5647 213,-292.5647 213,-289.5647 216,-286.5647 219,-286.5647 219,-286.5647 268,-286.5647 268,-286.5647 271,-286.5647 274,-289.5647 274,-292.5647 274,-292.5647 274,-298.5647 274,-298.5647 274,-301.5647 271,-304.5647 268,-304.5647"/>
<text text-anchor="middle" x="243.5" y="-293.3647" font-family="Helvetica,sans-Serif" font-size="9.00" fill="#000000">loadLibs.js</text>
</a>
</g>
</g>
<!-- src/loadLibs.js&#45;&gt;fs -->
<g id="edge29" class="edge">
<title>src/loadLibs.js&#45;&gt;fs</title>
<path fill="none" stroke="#000000" stroke-dasharray="5,2" stroke-opacity="0.200000" d="M274.1229,-292.3224C281.3339,-290.0905 288.2844,-286.4518 293,-280.5647 317.3793,-250.1289 284.2831,-137.954 306,-105.5647 308.9399,-101.18 313.0254,-97.63 317.5317,-94.7674"/>
<polygon fill="#000000" fill-opacity="0.200000" stroke="#000000" stroke-opacity="0.200000" points="318.7676,-96.482 322.9718,-91.7139 316.7117,-92.8195 318.7676,-96.482"/>
</g>
<!-- src/loadLibs.js&#45;&gt;src/logger.ts -->
<g id="edge28" class="edge">
<title>src/loadLibs.js&#45;&gt;src/logger.ts</title>
<path fill="none" stroke="#000000" stroke-width="2" stroke-opacity="0.200000" d="M274.2519,-290.8252C281.0392,-288.6045 287.7593,-285.3458 293,-280.5647 304.3407,-270.2185 293.2652,-257.1367 306,-248.5647 322.2227,-237.6448 379.6456,-235.2842 394,-248.5647 407.6616,-261.2041 401.7717,-397.7024 407,-415.5647 413.0176,-436.1233 425.5444,-457.5123 434.4625,-471.1505"/>
<polygon fill="#000000" fill-opacity="0.200000" stroke="#000000" stroke-width="2" stroke-opacity="0.200000" points="432.7225,-472.3264 437.7995,-476.1519 436.2162,-469.9953 432.7225,-472.3264"/>
</g>
<!-- src/p2p/libp2p&#45;bundle.ts -->
<g id="node30" class="node">
<title>src/p2p/libp2p&#45;bundle.ts</title>
<g id="a_node30"><a xlink:href="src/p2p/libp2p-bundle.ts" xlink:title="libp2p&#45;bundle.ts">
<path fill="#ddfeff" stroke="#000000" d="M385.5,-146.5647C385.5,-146.5647 314.5,-146.5647 314.5,-146.5647 311.5,-146.5647 308.5,-143.5647 308.5,-140.5647 308.5,-140.5647 308.5,-134.5647 308.5,-134.5647 308.5,-131.5647 311.5,-128.5647 314.5,-128.5647 314.5,-128.5647 385.5,-128.5647 385.5,-128.5647 388.5,-128.5647 391.5,-131.5647 391.5,-134.5647 391.5,-134.5647 391.5,-140.5647 391.5,-140.5647 391.5,-143.5647 388.5,-146.5647 385.5,-146.5647"/>
<text text-anchor="middle" x="350" y="-135.3647" font-family="Helvetica,sans-Serif" font-size="9.00" fill="#000000">libp2p&#45;bundle.ts</text>
</a>
</g>
</g>
<!-- src/p2p/p2pconfig.ts -->
<g id="node31" class="node">
<title>src/p2p/p2pconfig.ts</title>
<g id="a_node31"><a xlink:href="src/p2p/p2pconfig.ts" xlink:title="p2pconfig.ts">
<path fill="#ddfeff" stroke="#000000" d="M471.5,-157.5647C471.5,-157.5647 417.5,-157.5647 417.5,-157.5647 414.5,-157.5647 411.5,-154.5647 411.5,-151.5647 411.5,-151.5647 411.5,-145.5647 411.5,-145.5647 411.5,-142.5647 414.5,-139.5647 417.5,-139.5647 417.5,-139.5647 471.5,-139.5647 471.5,-139.5647 474.5,-139.5647 477.5,-142.5647 477.5,-145.5647 477.5,-145.5647 477.5,-151.5647 477.5,-151.5647 477.5,-154.5647 474.5,-157.5647 471.5,-157.5647"/>
<text text-anchor="middle" x="444.5" y="-146.3647" font-family="Helvetica,sans-Serif" font-size="9.00" fill="#000000">p2pconfig.ts</text>
</a>
</g>
</g>
<!-- src/p2p/libp2p&#45;bundle.ts&#45;&gt;src/p2p/p2pconfig.ts -->
<g id="edge30" class="edge">
<title>src/p2p/libp2p&#45;bundle.ts&#45;&gt;src/p2p/p2pconfig.ts</title>
<path fill="none" stroke="#000000" stroke-width="2" stroke-opacity="0.200000" d="M391.7242,-142.4215C396.2112,-142.9438 400.7656,-143.4739 405.2226,-143.9927"/>
<polygon fill="#000000" fill-opacity="0.200000" stroke="#000000" stroke-width="2" stroke-opacity="0.200000" points="405.0218,-146.0834 411.2244,-144.6913 405.5074,-141.9116 405.0218,-146.0834"/>
</g>
<!-- src/p2p/mkid.js -->
<g id="node32" class="node">
<title>src/p2p/mkid.js</title>
<g id="a_node32"><a xlink:href="src/p2p/mkid.js" xlink:title="mkid.js">
<path fill="#ffffcc" stroke="#000000" d="M264.5,-134.5647C264.5,-134.5647 222.5,-134.5647 222.5,-134.5647 219.5,-134.5647 216.5,-131.5647 216.5,-128.5647 216.5,-128.5647 216.5,-122.5647 216.5,-122.5647 216.5,-119.5647 219.5,-116.5647 222.5,-116.5647 222.5,-116.5647 264.5,-116.5647 264.5,-116.5647 267.5,-116.5647 270.5,-119.5647 270.5,-122.5647 270.5,-122.5647 270.5,-128.5647 270.5,-128.5647 270.5,-131.5647 267.5,-134.5647 264.5,-134.5647"/>
<text text-anchor="middle" x="243.5" y="-123.3647" font-family="Helvetica,sans-Serif" font-size="9.00" fill="#000000">mkid.js</text>
</a>
</g>
</g>
<!-- src/p2p/mkid.js&#45;&gt;fs -->
<g id="edge31" class="edge">
<title>src/p2p/mkid.js&#45;&gt;fs</title>
<path fill="none" stroke="#000000" stroke-dasharray="5,2" stroke-opacity="0.200000" d="M266.3469,-116.5546C282.3813,-110.2312 303.9465,-101.7266 321.165,-94.9362"/>
<polygon fill="#000000" fill-opacity="0.200000" stroke="#000000" stroke-opacity="0.200000" points="322.0122,-96.8596 326.8234,-92.7048 320.4713,-92.9525 322.0122,-96.8596"/>
</g>
<!-- src/p2p/p2p.js -->
<g id="node33" class="node">
<title>src/p2p/p2p.js</title>
<g id="a_node33"><a xlink:href="src/p2p/p2p.js" xlink:title="p2p.js">
<path fill="#ffffcc" stroke="#000000" d="M264.5,-164.5647C264.5,-164.5647 222.5,-164.5647 222.5,-164.5647 219.5,-164.5647 216.5,-161.5647 216.5,-158.5647 216.5,-158.5647 216.5,-152.5647 216.5,-152.5647 216.5,-149.5647 219.5,-146.5647 222.5,-146.5647 222.5,-146.5647 264.5,-146.5647 264.5,-146.5647 267.5,-146.5647 270.5,-149.5647 270.5,-152.5647 270.5,-152.5647 270.5,-158.5647 270.5,-158.5647 270.5,-161.5647 267.5,-164.5647 264.5,-164.5647"/>
<text text-anchor="middle" x="243.5" y="-153.3647" font-family="Helvetica,sans-Serif" font-size="9.00" fill="#000000">p2p.js</text>
</a>
</g>
</g>
<!-- src/p2p/p2p.js&#45;&gt;src/logger.ts -->
<g id="edge32" class="edge">
<title>src/p2p/p2p.js&#45;&gt;src/logger.ts</title>
<path fill="none" stroke="#000000" stroke-width="2" stroke-opacity="0.200000" d="M270.7114,-160.9441C306.45,-169.645 367.7356,-190.5932 394,-235.5647 414.2252,-270.1954 395.8417,-377.0441 407,-415.5647 412.9601,-436.1401 425.4992,-457.5255 434.4358,-471.1583"/>
<polygon fill="#000000" fill-opacity="0.200000" stroke="#000000" stroke-width="2" stroke-opacity="0.200000" points="432.6986,-472.3383 437.7804,-476.1574 436.1894,-470.0028 432.6986,-472.3383"/>
</g>
<!-- src/p2p/p2p.js&#45;&gt;src/p2p/libp2p&#45;bundle.ts -->
<g id="edge33" class="edge">
<title>src/p2p/p2p.js&#45;&gt;src/p2p/libp2p&#45;bundle.ts</title>
<path fill="none" stroke="#000000" stroke-width="2" stroke-opacity="0.200000" d="M270.65,-150.976C280.3217,-149.3413 291.5195,-147.4487 302.3991,-145.6099"/>
<polygon fill="#000000" fill-opacity="0.200000" stroke="#000000" stroke-width="2" stroke-opacity="0.200000" points="302.8328,-147.6665 308.399,-144.5958 302.1329,-143.5252 302.8328,-147.6665"/>
</g>
<!-- src/p2p/p2p.js&#45;&gt;src/p2p/p2pconfig.ts -->
<g id="edge34" class="edge">
<title>src/p2p/p2p.js&#45;&gt;src/p2p/p2pconfig.ts</title>
<path fill="none" stroke="#000000" stroke-width="2" stroke-opacity="0.200000" d="M270.705,-155.5055C300.8607,-155.3274 350.9322,-154.6977 394,-152.5647 397.6893,-152.382 401.5273,-152.1515 405.366,-151.894"/>
<polygon fill="#000000" fill-opacity="0.200000" stroke="#000000" stroke-width="2" stroke-opacity="0.200000" points="405.5401,-153.987 411.3774,-151.4698 405.2445,-149.7974 405.5401,-153.987"/>
</g>
<!-- util -->
<g id="node34" class="node">
<title>util</title>
<path fill="#ffffcc" stroke="#c0c0c0" d="M371,-62.5647C371,-62.5647 329,-62.5647 329,-62.5647 326,-62.5647 323,-59.5647 323,-56.5647 323,-56.5647 323,-50.5647 323,-50.5647 323,-47.5647 326,-44.5647 329,-44.5647 329,-44.5647 371,-44.5647 371,-44.5647 374,-44.5647 377,-47.5647 377,-50.5647 377,-50.5647 377,-56.5647 377,-56.5647 377,-59.5647 374,-62.5647 371,-62.5647"/>
<text text-anchor="middle" x="350" y="-51.3647" font-family="Helvetica,sans-Serif" font-size="9.00" fill="#c0c0c0">util</text>
</g>
<!-- src/p2p/p2p.js&#45;&gt;util -->
<g id="edge35" class="edge">
<title>src/p2p/p2p.js&#45;&gt;util</title>
<path fill="none" stroke="#000000" stroke-dasharray="5,2" stroke-opacity="0.200000" d="M270.6192,-152.8548C278.8725,-150.721 287.2667,-147.0022 293,-140.5647 314.6266,-116.2815 284.7933,-93.2154 306,-68.5647 308.9672,-65.1156 312.7613,-62.4582 316.8743,-60.411"/>
<polygon fill="#000000" fill-opacity="0.200000" stroke="#000000" stroke-opacity="0.200000" points="317.9215,-62.2485 322.6328,-57.9806 316.2883,-58.379 317.9215,-62.2485"/>
</g>
<!-- src/runtimeMonitored.js -->
<g id="node35" class="node">
<title>src/runtimeMonitored.js</title>
<g id="a_node35"><a xlink:href="src/runtimeMonitored.js" xlink:title="runtimeMonitored.js">
<path fill="#ffffcc" stroke="#000000" d="M175,-340.5647C175,-340.5647 89,-340.5647 89,-340.5647 86,-340.5647 83,-337.5647 83,-334.5647 83,-334.5647 83,-328.5647 83,-328.5647 83,-325.5647 86,-322.5647 89,-322.5647 89,-322.5647 175,-322.5647 175,-322.5647 178,-322.5647 181,-325.5647 181,-328.5647 181,-328.5647 181,-334.5647 181,-334.5647 181,-337.5647 178,-340.5647 175,-340.5647"/>
<text text-anchor="middle" x="132" y="-329.3647" font-family="Helvetica,sans-Serif" font-size="9.00" fill="#000000">runtimeMonitored.js</text>
</a>
</g>
</g>
<!-- src/runtimeMonitored.js&#45;&gt;assert -->
<g id="edge54" class="edge">
<title>src/runtimeMonitored.js&#45;&gt;assert</title>
<path fill="none" stroke="#000000" stroke-dasharray="5,2" stroke-opacity="0.200000" d="M135.3551,-340.8355C144.2843,-365.8943 168.779,-437.2245 181,-498.5647 186.241,-524.8704 179.4556,-596.0276 194,-618.5647 221.6871,-661.4668 279.823,-682.8898 316.7777,-692.5838"/>
<polygon fill="#000000" fill-opacity="0.200000" stroke="#000000" stroke-opacity="0.200000" points="316.6369,-694.7142 322.9687,-694.1503 317.6672,-690.6426 316.6369,-694.7142"/>
</g>
<!-- src/runtimeMonitored.js&#45;&gt;fs -->
<g id="edge55" class="edge">
<title>src/runtimeMonitored.js&#45;&gt;fs</title>
<path fill="none" stroke="#000000" stroke-dasharray="5,2" stroke-opacity="0.200000" d="M132.3339,-322.3362C134.2555,-275.0168 145.5812,-60.2836 194,-20.5647 228.0184,7.3413 258.0565,6.1739 293,-20.5647 310.5527,-33.9959 290.8801,-52.4438 306,-68.5647 309.1125,-71.8833 312.9879,-74.4677 317.1393,-76.4803"/>
<polygon fill="#000000" fill-opacity="0.200000" stroke="#000000" stroke-opacity="0.200000" points="316.5792,-78.5216 322.9256,-78.8857 318.1914,-74.6433 316.5792,-78.5216"/>
</g>
<!-- src/runtimeMonitored.js&#45;&gt;os -->
<g id="edge56" class="edge">
<title>src/runtimeMonitored.js&#45;&gt;os</title>
<path fill="none" stroke="#000000" stroke-dasharray="5,2" stroke-opacity="0.200000" d="M133.1387,-322.3698C138.3125,-281.9472 160.7971,-120.4058 194,-83.5647 198.4527,-78.6241 204.371,-75.0379 210.5627,-72.4353"/>
<polygon fill="#000000" fill-opacity="0.200000" stroke="#000000" stroke-opacity="0.200000" points="211.396,-74.3661 216.2916,-70.311 209.9358,-70.4281 211.396,-74.3661"/>
</g>
<!-- src/runtimeMonitored.js&#45;&gt;readline -->
<g id="edge57" class="edge">
<title>src/runtimeMonitored.js&#45;&gt;readline</title>
<path fill="none" stroke="#000000" stroke-dasharray="5,2" stroke-opacity="0.200000" d="M132.801,-322.3093C136.7754,-278.4456 155.7344,-91.8994 194,-50.5647 198.3464,-45.8697 204.1078,-42.6262 210.1599,-40.3899"/>
<polygon fill="#000000" fill-opacity="0.200000" stroke="#000000" stroke-opacity="0.200000" points="211.1715,-42.2734 216.2672,-38.4729 209.9136,-38.2662 211.1715,-42.2734"/>
</g>
<!-- src/runtimeMonitored.js&#45;&gt;src/Authority.ts -->
<g id="edge36" class="edge">
<title>src/runtimeMonitored.js&#45;&gt;src/Authority.ts</title>
<path fill="none" stroke="#000000" stroke-width="2" stroke-opacity="0.200000" d="M181.0579,-324.3347C185.4326,-323.7228 189.7952,-323.1246 194,-322.5647 215.9671,-319.6394 275.3952,-324.025 293,-310.5647 305.1949,-301.2406 294.8385,-289.1039 306,-278.5647 308.1602,-276.525 310.6089,-274.7617 313.2185,-273.2375"/>
<polygon fill="#000000" fill-opacity="0.200000" stroke="#000000" stroke-width="2" stroke-opacity="0.200000" points="314.3551,-275.016 318.7603,-270.4329 312.4585,-271.2686 314.3551,-275.016"/>
</g>
<!-- src/runtimeMonitored.js&#45;&gt;src/BaseFunction.ts -->
<g id="edge37" class="edge">
<title>src/runtimeMonitored.js&#45;&gt;src/BaseFunction.ts</title>
<path fill="none" stroke="#000000" stroke-width="2" stroke-opacity="0.200000" d="M181.0961,-335.8384C213.8116,-336.942 257.208,-334.9905 293,-321.5647 299.8251,-319.0046 299.6814,-315.1993 306,-311.5647 310.0242,-309.2498 314.4043,-307.0832 318.7896,-305.1114"/>
<polygon fill="#000000" fill-opacity="0.200000" stroke="#000000" stroke-width="2" stroke-opacity="0.200000" points="319.6457,-307.0292 324.3206,-302.7216 317.9798,-303.1737 319.6457,-307.0292"/>
</g>
<!-- src/runtimeMonitored.js&#45;&gt;src/Level.ts -->
<g id="edge38" class="edge">
<title>src/runtimeMonitored.js&#45;&gt;src/Level.ts</title>
<path fill="none" stroke="#000000" stroke-width="2" stroke-opacity="0.200000" d="M135.2355,-340.8604C143.8678,-365.9812 167.691,-437.4514 181,-498.5647 185.2999,-518.3095 180.8279,-573.2401 194,-588.5647 198.3022,-593.5699 204.2143,-596.9375 210.4573,-599.1952"/>
<polygon fill="#000000" fill-opacity="0.200000" stroke="#000000" stroke-width="2" stroke-opacity="0.200000" points="209.895,-601.2192 216.2471,-600.9718 211.1271,-597.204 209.895,-601.2192"/>
</g>
<!-- src/runtimeMonitored.js&#45;&gt;src/Lval.ts -->
<g id="edge41" class="edge">
<title>src/runtimeMonitored.js&#45;&gt;src/Lval.ts</title>
<path fill="none" stroke="#000000" stroke-width="2" stroke-opacity="0.200000" d="M136.0439,-322.3767C144.2066,-305.0392 164.4297,-267.7048 194,-250.5647 237.4506,-225.379 255.889,-238.9054 306,-235.5647 345.0245,-232.9631 364.5291,-209.852 394,-235.5647 410.0559,-249.5731 400.4207,-310.298 407,-330.5647 413.6303,-350.9883 426.0734,-372.471 434.8022,-386.1642"/>
<polygon fill="#000000" fill-opacity="0.200000" stroke="#000000" stroke-width="2" stroke-opacity="0.200000" points="433.2582,-387.6425 438.2879,-391.5301 436.7803,-385.3545 433.2582,-387.6425"/>
</g>
<!-- src/runtimeMonitored.js&#45;&gt;src/MailboxProcessor.js -->
<g id="edge42" class="edge">
<title>src/runtimeMonitored.js&#45;&gt;src/MailboxProcessor.js</title>
<path fill="none" stroke="#000000" stroke-width="2" stroke-opacity="0.200000" d="M134.9018,-340.6418C141.8324,-360.919 161.2552,-410.254 194,-437.5647 196.7212,-439.8343 199.7527,-441.8292 202.9383,-443.5806"/>
<polygon fill="#000000" fill-opacity="0.200000" stroke="#000000" stroke-width="2" stroke-opacity="0.200000" points="202.4952,-445.7038 208.8049,-446.4769 204.3545,-441.9377 202.4952,-445.7038"/>
</g>
<!-- src/runtimeMonitored.js&#45;&gt;src/logger.ts -->
<g id="edge40" class="edge">
<title>src/runtimeMonitored.js&#45;&gt;src/logger.ts</title>
<path fill="none" stroke="#000000" stroke-width="2" stroke-opacity="0.200000" d="M132.7703,-340.856C135.5252,-367.6619 147.3794,-445.5755 194,-482.5647 228.916,-510.2674 260.6575,-467.8967 293,-498.5647 312.7994,-517.339 284.7616,-541.4351 306,-558.5647 321.2217,-570.8415 376.6797,-567.6436 394,-558.5647 417.2184,-546.394 431.8782,-518.165 439.1015,-500.5928"/>
<polygon fill="#000000" fill-opacity="0.200000" stroke="#000000" stroke-width="2" stroke-opacity="0.200000" points="441.196,-501.0031 441.4283,-494.6505 437.2852,-499.4717 441.196,-501.0031"/>
</g>
<!-- src/runtimeMonitored.js&#45;&gt;src/options.ts -->
<g id="edge44" class="edge">
<title>src/runtimeMonitored.js&#45;&gt;src/options.ts</title>
<path fill="none" stroke="#000000" stroke-width="2" stroke-opacity="0.200000" d="M133.1446,-340.8353C136.7964,-366.1558 150.6029,-436.8388 194,-470.5647 229.2507,-497.9595 258.3646,-459.396 293,-487.5647 305.2297,-497.511 295.4618,-508.8412 306,-520.5647 309.8085,-524.8016 314.5833,-528.3838 319.5716,-531.367"/>
<polygon fill="#000000" fill-opacity="0.200000" stroke="#000000" stroke-width="2" stroke-opacity="0.200000" points="318.7635,-533.3192 325.0327,-534.3716 320.7881,-529.6394 318.7635,-533.3192"/>
</g>
<!-- src/runtimeMonitored.js&#45;&gt;src/process.js -->
<g id="edge46" class="edge">
<title>src/runtimeMonitored.js&#45;&gt;src/process.js</title>
<path fill="none" stroke="#000000" stroke-width="2" stroke-opacity="0.200000" d="M136.4433,-340.7559C144.9987,-357.3307 165.4686,-391.9524 194,-407.5647 231.4878,-428.0779 281.5521,-430.2194 314.7384,-428.7963"/>
<polygon fill="#000000" fill-opacity="0.200000" stroke="#000000" stroke-width="2" stroke-opacity="0.200000" points="314.8457,-430.8937 320.7317,-428.4927 314.6332,-426.699 314.8457,-430.8937"/>
</g>
<!-- src/runtimeMonitored.js&#45;&gt;src/SandboxStatus.ts -->
<g id="edge48" class="edge">
<title>src/runtimeMonitored.js&#45;&gt;src/SandboxStatus.ts</title>
<path fill="none" stroke="#000000" stroke-width="2" stroke-opacity="0.200000" d="M135.4899,-340.7275C143.062,-359.2757 162.8645,-401.2284 194,-421.5647 231.5106,-446.0649 249.311,-430.6357 293,-440.5647 298.9121,-441.9083 305.1409,-443.4335 311.2231,-444.9842"/>
<polygon fill="#000000" fill-opacity="0.200000" stroke="#000000" stroke-width="2" stroke-opacity="0.200000" points="310.9047,-447.0708 317.2392,-446.5376 311.9548,-443.0042 310.9047,-447.0708"/>
</g>
<!-- src/runtimeMonitored.js&#45;&gt;src/NodeManager.ts -->
<g id="edge43" class="edge">
<title>src/runtimeMonitored.js&#45;&gt;src/NodeManager.ts</title>
<path fill="none" stroke="#000000" stroke-width="2" stroke-opacity="0.200000" d="M134.9018,-322.4876C141.8324,-302.2104 161.2552,-252.8754 194,-225.5647 196.7212,-223.2951 199.7527,-221.3002 202.9383,-219.5488"/>
<polygon fill="#000000" fill-opacity="0.200000" stroke="#000000" stroke-width="2" stroke-opacity="0.200000" points="204.3545,-221.1916 208.8049,-216.6525 202.4952,-217.4256 204.3545,-221.1916"/>
</g>
<!-- src/runtimeMonitored.js&#45;&gt;src/RtClosure.js -->
<g id="edge47" class="edge">
<title>src/runtimeMonitored.js&#45;&gt;src/RtClosure.js</title>
<path fill="none" stroke="#000000" stroke-width="2" stroke-opacity="0.200000" d="M140.8179,-322.3482C152.1409,-311.0088 172.8627,-291.8743 194,-280.5647 197.1448,-278.8821 200.5052,-277.3605 203.9388,-275.9905"/>
<polygon fill="#000000" fill-opacity="0.200000" stroke="#000000" stroke-width="2" stroke-opacity="0.200000" points="204.8688,-277.8853 209.7611,-273.8263 203.4054,-273.9484 204.8688,-277.8853"/>
</g>
<!-- src/runtimeMonitored.js&#45;&gt;src/Scheduler.js -->
<g id="edge49" class="edge">
<title>src/runtimeMonitored.js&#45;&gt;src/Scheduler.js</title>
<path fill="none" stroke="#000000" stroke-width="2" stroke-opacity="0.200000" d="M145.2756,-340.7892C157.4937,-348.957 176.3437,-360.7615 194,-368.5647 197.08,-369.9259 200.3198,-371.2102 203.6065,-372.4108"/>
<polygon fill="#000000" fill-opacity="0.200000" stroke="#000000" stroke-width="2" stroke-opacity="0.200000" points="203.1919,-374.4901 209.5488,-374.4803 204.5733,-370.5238 203.1919,-374.4901"/>
</g>
<!-- src/runtimeMonitored.js&#45;&gt;src/ThreadError.ts -->
<g id="edge51" class="edge">
<title>src/runtimeMonitored.js&#45;&gt;src/ThreadError.ts</title>
<path fill="none" stroke="#000000" stroke-width="2" stroke-opacity="0.200000" d="M135.2841,-322.4398C142.5976,-303.5408 162.136,-260.1655 194,-239.5647 231.4909,-215.326 253.3543,-243.0903 293,-222.5647 300.2562,-218.808 298.451,-212.6916 306,-209.5647 342.134,-194.5975 360.9274,-188.6869 394,-209.5647 425.827,-229.6562 438.0138,-275.9073 442.3348,-300.131"/>
<polygon fill="#000000" fill-opacity="0.200000" stroke="#000000" stroke-width="2" stroke-opacity="0.200000" points="440.3098,-300.759 443.3548,-306.3392 444.4542,-300.0781 440.3098,-300.759"/>
</g>
<!-- src/runtimeMonitored.js&#45;&gt;src/UnitBase.js -->
<g id="edge52" class="edge">
<title>src/runtimeMonitored.js&#45;&gt;src/UnitBase.js</title>
<path fill="none" stroke="#000000" stroke-width="2" stroke-opacity="0.200000" d="M137.0209,-340.7094C146.0596,-356.0918 166.6995,-386.6318 194,-398.5647 231.737,-415.0593 279.6733,-410.9036 312.384,-404.808"/>
<polygon fill="#000000" fill-opacity="0.200000" stroke="#000000" stroke-width="2" stroke-opacity="0.200000" points="312.8221,-406.8623 318.3088,-403.6518 312.0176,-402.74 312.8221,-406.8623"/>
</g>
<!-- src/runtimeMonitored.js&#45;&gt;src/ValuesUtil.js -->
<g id="edge53" class="edge">
<title>src/runtimeMonitored.js&#45;&gt;src/ValuesUtil.js</title>
<path fill="none" stroke="#000000" stroke-width="2" stroke-opacity="0.200000" d="M177.673,-340.5764C186.1078,-342.2407 194.8609,-343.9677 203.1251,-345.5983"/>
<polygon fill="#000000" fill-opacity="0.200000" stroke="#000000" stroke-width="2" stroke-opacity="0.200000" points="203.043,-347.7226 209.3361,-346.8238 203.8561,-343.602 203.043,-347.7226"/>
</g>
<!-- src/runtimeMonitored.js&#45;&gt;src/loadLibs.js -->
<g id="edge39" class="edge">
<title>src/runtimeMonitored.js&#45;&gt;src/loadLibs.js</title>
<path fill="none" stroke="#000000" stroke-width="2" stroke-opacity="0.200000" d="M160.1362,-322.4804C175.0579,-317.6626 193.5107,-311.7047 209.259,-306.6201"/>
<polygon fill="#000000" fill-opacity="0.200000" stroke="#000000" stroke-width="2" stroke-opacity="0.200000" points="210.3083,-308.4881 215.3728,-304.6461 209.0178,-304.4913 210.3083,-308.4881"/>
</g>
<!-- src/runtimeMonitored.js&#45;&gt;src/p2p/p2p.js -->
<g id="edge45" class="edge">
<title>src/runtimeMonitored.js&#45;&gt;src/p2p/p2p.js</title>
<path fill="none" stroke="#000000" stroke-width="2" stroke-opacity="0.200000" d="M132.6691,-322.184C135.1763,-294.3086 146.4841,-211.2655 194,-168.5647 198.6096,-164.4222 204.3819,-161.572 210.3412,-159.6174"/>
<polygon fill="#000000" fill-opacity="0.200000" stroke="#000000" stroke-width="2" stroke-opacity="0.200000" points="211.1122,-161.5826 216.3267,-157.9467 209.983,-157.5372 211.1122,-161.5826"/>
</g>
<!-- src/runtimeMonitored.js&#45;&gt;util -->
<g id="edge58" class="edge">
<title>src/runtimeMonitored.js&#45;&gt;util</title>
<path fill="none" stroke="#000000" stroke-dasharray="5,2" stroke-opacity="0.200000" d="M133.2834,-322.3368C138.8066,-283.9154 161.7422,-137.1712 194,-105.5647 226.4149,-73.8042 253.0959,-102.1776 293,-80.5647 299.914,-76.8199 299.2437,-72.587 306,-68.5647 309.4478,-66.512 313.2161,-64.6909 317.0502,-63.0888"/>
<polygon fill="#000000" fill-opacity="0.200000" stroke="#000000" stroke-opacity="0.200000" points="317.8547,-65.0292 322.6852,-60.8968 316.332,-61.115 317.8547,-65.0292"/>
</g>
<!-- src/serialize.js -->
<g id="node36" class="node">
<title>src/serialize.js</title>
<g id="a_node36"><a xlink:href="src/serialize.js" xlink:title="serialize.js">
<path fill="#ffffcc" stroke="#000000" d="M267.5,-582.5647C267.5,-582.5647 219.5,-582.5647 219.5,-582.5647 216.5,-582.5647 213.5,-579.5647 213.5,-576.5647 213.5,-576.5647 213.5,-570.5647 213.5,-570.5647 213.5,-567.5647 216.5,-564.5647 219.5,-564.5647 219.5,-564.5647 267.5,-564.5647 267.5,-564.5647 270.5,-564.5647 273.5,-567.5647 273.5,-570.5647 273.5,-570.5647 273.5,-576.5647 273.5,-576.5647 273.5,-579.5647 270.5,-582.5647 267.5,-582.5647"/>
<text text-anchor="middle" x="243.5" y="-571.3647" font-family="Helvetica,sans-Serif" font-size="9.00" fill="#000000">serialize.js</text>
</a>
</g>
</g>
<!-- src/runtimeMonitored.js&#45;&gt;src/serialize.js -->
<g id="edge50" class="edge">
<title>src/runtimeMonitored.js&#45;&gt;src/serialize.js</title>
<path fill="none" stroke="#000000" stroke-width="2" stroke-opacity="0.200000" d="M135.0017,-340.9157C143.0532,-366.1735 165.5632,-437.9539 181,-498.5647 187.7343,-525.006 175.502,-538.5069 194,-558.5647 197.7554,-562.6367 202.5751,-565.6173 207.7282,-567.7959"/>
<polygon fill="#000000" fill-opacity="0.200000" stroke="#000000" stroke-width="2" stroke-opacity="0.200000" points="207.0596,-569.7872 213.4161,-569.859 208.4918,-565.8389 207.0596,-569.7872"/>
</g>
<!-- src/serialize.js&#45;&gt;assert -->
<g id="edge59" class="edge">
<title>src/serialize.js&#45;&gt;assert</title>
<path fill="none" stroke="#000000" stroke-dasharray="5,2" stroke-opacity="0.200000" d="M273.6272,-576.9245C280.9305,-579.1488 288.0504,-582.7544 293,-588.5647 320.9208,-621.3405 278.6457,-651.3146 306,-684.5647 309.0284,-688.2458 313.0014,-691.0267 317.3221,-693.127"/>
<polygon fill="#000000" fill-opacity="0.200000" stroke="#000000" stroke-opacity="0.200000" points="316.5882,-695.0958 322.9358,-695.4397 318.1881,-691.2125 316.5882,-695.0958"/>
</g>
<!-- src/serialize.js&#45;&gt;child_process -->
<g id="edge60" class="edge">
<title>src/serialize.js&#45;&gt;child_process</title>
<path fill="none" stroke="#000000" stroke-dasharray="5,2" stroke-opacity="0.200000" d="M273.6658,-577.1956C280.8803,-579.4246 287.9468,-582.9646 293,-588.5647 313.3209,-611.0849 285.8352,-632.9046 306,-655.5647 306.4796,-656.1036 306.9799,-656.622 307.4988,-657.1206"/>
<polygon fill="#000000" fill-opacity="0.200000" stroke="#000000" stroke-opacity="0.200000" points="306.589,-659.0729 312.6161,-661.0938 309.1648,-655.7554 306.589,-659.0729"/>
</g>
<!-- src/troupe.ts -->
<g id="node37" class="node">
<title>src/troupe.ts</title>
<g id="a_node37"><a xlink:href="src/troupe.ts" xlink:title="troupe.ts">
<path fill="#ddfeff" stroke="#000000" d="M64,-340.5647C64,-340.5647 22,-340.5647 22,-340.5647 19,-340.5647 16,-337.5647 16,-334.5647 16,-334.5647 16,-328.5647 16,-328.5647 16,-325.5647 19,-322.5647 22,-322.5647 22,-322.5647 64,-322.5647 64,-322.5647 67,-322.5647 70,-325.5647 70,-328.5647 70,-328.5647 70,-334.5647 70,-334.5647 70,-337.5647 67,-340.5647 64,-340.5647"/>
<text text-anchor="middle" x="43" y="-329.3647" font-family="Helvetica,sans-Serif" font-size="9.00" fill="#000000">troupe.ts</text>
</a>
</g>
</g>
<!-- src/troupe.ts&#45;&gt;src/runtimeMonitored.js -->
<g id="edge61" class="edge">
<title>src/troupe.ts&#45;&gt;src/runtimeMonitored.js</title>
<path fill="none" stroke="#000000" stroke-width="2" stroke-opacity="0.200000" d="M70.1865,-331.5647C72.3591,-331.5647 74.5969,-331.5647 76.8742,-331.5647"/>
<polygon fill="#000000" fill-opacity="0.200000" stroke="#000000" stroke-width="2" stroke-opacity="0.200000" points="76.9766,-333.6648 82.9766,-331.5647 76.9765,-329.4648 76.9766,-333.6648"/>
</g>
</g>
</svg>
