<?xml version="1.0" encoding="UTF-8" standalone="no"?>
<!DOCTYPE svg PUBLIC "-//W3C//DTD SVG 1.1//EN"
 "http://www.w3.org/Graphics/SVG/1.1/DTD/svg11.dtd">
<!-- Generated by graphviz version 2.40.1 (20161225.0304)
 -->
<!-- Title: dependency&#45;cruiser output Pages: 1 -->
<svg width="757pt" height="739pt"
 viewBox="0.00 0.00 757.00 738.82" xmlns="http://www.w3.org/2000/svg" xmlns:xlink="http://www.w3.org/1999/xlink">
<g id="graph0" class="graph" transform="scale(1 1) rotate(0) translate(4 734.8156)">
<title>dependency&#45;cruiser output</title>
<polygon fill="#ffffff" stroke="transparent" points="-4,4 -4,-734.8156 753,-734.8156 753,4 -4,4"/>
<g id="clust1" class="cluster">
<title>cluster_src</title>
<path fill="#ffffff" stroke="#000000" stroke-width="2" d="M20,-64C20,-64 729,-64 729,-64 735,-64 741,-70 741,-76 741,-76 741,-612 741,-612 741,-618 735,-624 729,-624 729,-624 20,-624 20,-624 14,-624 8,-618 8,-612 8,-612 8,-76 8,-76 8,-70 14,-64 20,-64"/>
<text text-anchor="middle" x="374.5" y="-612.8" font-family="Helvetica,sans-Serif" font-weight="bold" font-size="9.00" fill="#000000">src</text>
</g>
<g id="clust2" class="cluster">
<title>cluster_src/levels</title>
<path fill="#ffffff" stroke="#000000" stroke-width="2" d="M610,-85C610,-85 657,-85 657,-85 663,-85 669,-91 669,-97 669,-97 669,-155 669,-155 669,-161 663,-167 657,-167 657,-167 610,-167 610,-167 604,-167 598,-161 598,-155 598,-155 598,-97 598,-97 598,-91 604,-85 610,-85"/>
<text text-anchor="middle" x="633.5" y="-155.8" font-family="Helvetica,sans-Serif" font-weight="bold" font-size="9.00" fill="#000000">levels</text>
</g>
<g id="clust3" class="cluster">
<title>cluster_src/p2p</title>
<path fill="#ffffff" stroke="#000000" stroke-width="2" d="M214,-430C214,-430 474.5,-430 474.5,-430 480.5,-430 486.5,-436 486.5,-442 486.5,-442 486.5,-530 486.5,-530 486.5,-536 480.5,-542 474.5,-542 474.5,-542 214,-542 214,-542 208,-542 202,-536 202,-530 202,-530 202,-442 202,-442 202,-436 208,-430 214,-430"/>
<text text-anchor="middle" x="344.25" y="-530.8" font-family="Helvetica,sans-Serif" font-weight="bold" font-size="9.00" fill="#000000">p2p</text>
</g>
<!-- assert -->
<g id="node1" class="node">
<title>assert</title>
<path fill="#ffffcc" stroke="#c0c0c0" d="M371,-692C371,-692 329,-692 329,-692 326,-692 323,-689 323,-686 323,-686 323,-680 323,-680 323,-677 326,-674 329,-674 329,-674 371,-674 371,-674 374,-674 377,-677 377,-680 377,-680 377,-686 377,-686 377,-689 374,-692 371,-692"/>
<text text-anchor="middle" x="350" y="-680.8" font-family="Helvetica,sans-Serif" font-size="9.00" fill="#c0c0c0">assert</text>
</g>
<!-- child_process -->
<g id="node2" class="node">
<title>child_process</title>
<path fill="#ffffcc" stroke="#c0c0c0" d="M381,-650C381,-650 319,-650 319,-650 316,-650 313,-647 313,-644 313,-644 313,-638 313,-638 313,-635 316,-632 319,-632 319,-632 381,-632 381,-632 384,-632 387,-635 387,-638 387,-638 387,-644 387,-644 387,-647 384,-650 381,-650"/>
<text text-anchor="middle" x="350" y="-638.8" font-family="Helvetica,sans-Serif" font-size="9.00" fill="#c0c0c0">child_process</text>
</g>
<!-- fs -->
<g id="node3" class="node">
<title>fs</title>
<path fill="#ffffcc" stroke="#c0c0c0" d="M371,-56C371,-56 329,-56 329,-56 326,-56 323,-53 323,-50 323,-50 323,-44 323,-44 323,-41 326,-38 329,-38 329,-38 371,-38 371,-38 374,-38 377,-41 377,-44 377,-44 377,-50 377,-50 377,-53 374,-56 371,-56"/>
<text text-anchor="middle" x="350" y="-44.8" font-family="Helvetica,sans-Serif" font-size="9.00" fill="#c0c0c0">fs</text>
</g>
<!-- os -->
<g id="node4" class="node">
<title>os</title>
<path fill="#ffffcc" stroke="#c0c0c0" d="M264.5,-680C264.5,-680 222.5,-680 222.5,-680 219.5,-680 216.5,-677 216.5,-674 216.5,-674 216.5,-668 216.5,-668 216.5,-665 219.5,-662 222.5,-662 222.5,-662 264.5,-662 264.5,-662 267.5,-662 270.5,-665 270.5,-668 270.5,-668 270.5,-674 270.5,-674 270.5,-677 267.5,-680 264.5,-680"/>
<text text-anchor="middle" x="243.5" y="-668.8" font-family="Helvetica,sans-Serif" font-size="9.00" fill="#c0c0c0">os</text>
</g>
<!-- path -->
<g id="node5" class="node">
<title>path</title>
<path fill="#ffffcc" stroke="#c0c0c0" d="M371,-18C371,-18 329,-18 329,-18 326,-18 323,-15 323,-12 323,-12 323,-6 323,-6 323,-3 326,0 329,0 329,0 371,0 371,0 374,0 377,-3 377,-6 377,-6 377,-12 377,-12 377,-15 374,-18 371,-18"/>
<text text-anchor="middle" x="350" y="-6.8" font-family="Helvetica,sans-Serif" font-size="9.00" fill="#c0c0c0">path</text>
</g>
<!-- readline -->
<g id="node6" class="node">
<title>readline</title>
<path fill="#ffffcc" stroke="#c0c0c0" d="M264.5,-650C264.5,-650 222.5,-650 222.5,-650 219.5,-650 216.5,-647 216.5,-644 216.5,-644 216.5,-638 216.5,-638 216.5,-635 219.5,-632 222.5,-632 222.5,-632 264.5,-632 264.5,-632 267.5,-632 270.5,-635 270.5,-638 270.5,-638 270.5,-644 270.5,-644 270.5,-647 267.5,-650 264.5,-650"/>
<text text-anchor="middle" x="243.5" y="-638.8" font-family="Helvetica,sans-Serif" font-size="9.00" fill="#c0c0c0">readline</text>
</g>
<!-- src/Authority.ts -->
<g id="node7" class="node">
<title>src/Authority.ts</title>
<g id="a_node7"><a xlink:href="src/Authority.ts" xlink:title="Authority.ts">
<path fill="#ddfeff" stroke="#000000" d="M268.5,-90C268.5,-90 218.5,-90 218.5,-90 215.5,-90 212.5,-87 212.5,-84 212.5,-84 212.5,-78 212.5,-78 212.5,-75 215.5,-72 218.5,-72 218.5,-72 268.5,-72 268.5,-72 271.5,-72 274.5,-75 274.5,-78 274.5,-78 274.5,-84 274.5,-84 274.5,-87 271.5,-90 268.5,-90"/>
<text text-anchor="middle" x="243.5" y="-78.8" font-family="Helvetica,sans-Serif" font-size="9.00" fill="#000000">Authority.ts</text>
</a>
</g>
</g>
<!-- src/BaseFunction.ts -->
<g id="node8" class="node">
<title>src/BaseFunction.ts</title>
<g id="a_node8"><a xlink:href="src/BaseFunction.ts" xlink:title="BaseFunction.ts">
<path fill="#ddfeff" stroke="#000000" d="M385,-188C385,-188 315,-188 315,-188 312,-188 309,-185 309,-182 309,-182 309,-176 309,-176 309,-173 312,-170 315,-170 315,-170 385,-170 385,-170 388,-170 391,-173 391,-176 391,-176 391,-182 391,-182 391,-185 388,-188 385,-188"/>
<text text-anchor="middle" x="350" y="-176.8" font-family="Helvetica,sans-Serif" font-size="9.00" fill="#000000">BaseFunction.ts</text>
</a>
</g>
</g>
<!-- src/BaseKont.ts -->
<g id="node9" class="node">
<title>src/BaseKont.ts</title>
<g id="a_node9"><a xlink:href="src/BaseKont.ts" xlink:title="BaseKont.ts">
<path fill="#ddfeff" stroke="#000000" d="M376.5,-336C376.5,-336 323.5,-336 323.5,-336 320.5,-336 317.5,-333 317.5,-330 317.5,-330 317.5,-324 317.5,-324 317.5,-321 320.5,-318 323.5,-318 323.5,-318 376.5,-318 376.5,-318 379.5,-318 382.5,-321 382.5,-324 382.5,-324 382.5,-330 382.5,-330 382.5,-333 379.5,-336 376.5,-336"/>
<text text-anchor="middle" x="350" y="-324.8" font-family="Helvetica,sans-Serif" font-size="9.00" fill="#000000">BaseKont.ts</text>
</a>
</g>
</g>
<!-- src/Level.ts -->
<g id="node10" class="node">
<title>src/Level.ts</title>
<g id="a_node10"><a xlink:href="src/Level.ts" xlink:title="Level.ts">
<path fill="#ddfeff" stroke="#000000" d="M727,-111C727,-111 685,-111 685,-111 682,-111 679,-108 679,-105 679,-105 679,-99 679,-99 679,-96 682,-93 685,-93 685,-93 727,-93 727,-93 730,-93 733,-96 733,-99 733,-99 733,-105 733,-105 733,-108 730,-111 727,-111"/>
<text text-anchor="middle" x="706" y="-99.8" font-family="Helvetica,sans-Serif" font-size="9.00" fill="#000000">Level.ts</text>
</a>
</g>
</g>
<!-- src/Lval.ts -->
<g id="node11" class="node">
<title>src/Lval.ts</title>
<g id="a_node11"><a xlink:href="src/Lval.ts" xlink:title="Lval.ts">
<path fill="#ddfeff" stroke="#000000" d="M466.5,-225C466.5,-225 424.5,-225 424.5,-225 421.5,-225 418.5,-222 418.5,-219 418.5,-219 418.5,-213 418.5,-213 418.5,-210 421.5,-207 424.5,-207 424.5,-207 466.5,-207 466.5,-207 469.5,-207 472.5,-210 472.5,-213 472.5,-213 472.5,-219 472.5,-219 472.5,-222 469.5,-225 466.5,-225"/>
<text text-anchor="middle" x="445.5" y="-213.8" font-family="Helvetica,sans-Serif" font-size="9.00" fill="#000000">Lval.ts</text>
</a>
</g>
</g>
<!-- src/options.ts -->
<g id="node12" class="node">
<title>src/options.ts</title>
<g id="a_node12"><a xlink:href="src/options.ts" xlink:title="options.ts">
<path fill="#ddfeff" stroke="#000000" d="M564.5,-225C564.5,-225 520.5,-225 520.5,-225 517.5,-225 514.5,-222 514.5,-219 514.5,-219 514.5,-213 514.5,-213 514.5,-210 517.5,-207 520.5,-207 520.5,-207 564.5,-207 564.5,-207 567.5,-207 570.5,-210 570.5,-213 570.5,-213 570.5,-219 570.5,-219 570.5,-222 567.5,-225 564.5,-225"/>
<text text-anchor="middle" x="542.5" y="-213.8" font-family="Helvetica,sans-Serif" font-size="9.00" fill="#000000">options.ts</text>
</a>
</g>
</g>
<!-- src/Lval.ts&#45;&gt;src/options.ts -->
<g id="edge1" class="edge">
<title>src/Lval.ts&#45;&gt;src/options.ts</title>
<path fill="none" stroke="#000000" stroke-width="2" stroke-opacity="0.200000" d="M472.5199,-216C483.5948,-216 496.5423,-216 508.2683,-216"/>
<polygon fill="#000000" fill-opacity="0.200000" stroke="#000000" stroke-width="2" stroke-opacity="0.200000" points="508.2726,-218.1001 514.2725,-216 508.2725,-213.9001 508.2726,-218.1001"/>
</g>
<!-- src/levels/tagsets.ts -->
<g id="node29" class="node">
<title>src/levels/tagsets.ts</title>
<g id="a_node29"><a xlink:href="src/levels/tagsets.ts" xlink:title="tagsets.ts">
<path fill="#ddfeff" stroke="#000000" d="M655,-141C655,-141 612,-141 612,-141 609,-141 606,-138 606,-135 606,-135 606,-129 606,-129 606,-126 609,-123 612,-123 612,-123 655,-123 655,-123 658,-123 661,-126 661,-129 661,-129 661,-135 661,-135 661,-138 658,-141 655,-141"/>
<text text-anchor="middle" x="633.5" y="-129.8" font-family="Helvetica,sans-Serif" font-size="9.00" fill="#000000">tagsets.ts</text>
</a>
</g>
</g>
<!-- src/options.ts&#45;&gt;src/levels/tagsets.ts -->
<g id="edge29" class="edge">
<title>src/options.ts&#45;&gt;src/levels/tagsets.ts</title>
<path fill="none" stroke="#000000" stroke-width="2" stroke-opacity="0.200000" d="M547.4021,-206.8187C555.8349,-191.8457 574.4718,-162.1251 598,-145 598.7628,-144.4448 599.5519,-143.9109 600.3619,-143.3978"/>
<polygon fill="#000000" fill-opacity="0.200000" stroke="#000000" stroke-width="2" stroke-opacity="0.200000" points="601.7203,-145.0464 605.9545,-140.3049 599.6877,-141.3709 601.7203,-145.0464"/>
</g>
<!-- src/MailboxProcessor.ts -->
<g id="node13" class="node">
<title>src/MailboxProcessor.ts</title>
<g id="a_node13"><a xlink:href="src/MailboxProcessor.ts" xlink:title="MailboxProcessor.ts">
<path fill="#ddfeff" stroke="#000000" d="M287,-178C287,-178 200,-178 200,-178 197,-178 194,-175 194,-172 194,-172 194,-166 194,-166 194,-163 197,-160 200,-160 200,-160 287,-160 287,-160 290,-160 293,-163 293,-166 293,-166 293,-172 293,-172 293,-175 290,-178 287,-178"/>
<text text-anchor="middle" x="243.5" y="-166.8" font-family="Helvetica,sans-Serif" font-size="9.00" fill="#000000">MailboxProcessor.ts</text>
</a>
</g>
</g>
<!-- src/MailboxProcessor.ts&#45;&gt;src/Lval.ts -->
<g id="edge3" class="edge">
<title>src/MailboxProcessor.ts&#45;&gt;src/Lval.ts</title>
<path fill="none" stroke="#000000" stroke-width="2" stroke-opacity="0.200000" d="M272.4606,-159.9763C282.9195,-157.1475 294.8872,-154.3999 306,-153 344.8044,-148.1118 358.6601,-136.2438 394,-153 414.9601,-162.9381 430.2198,-186.0466 438.4685,-201.3412"/>
<polygon fill="#000000" fill-opacity="0.200000" stroke="#000000" stroke-width="2" stroke-opacity="0.200000" points="436.7579,-202.6052 441.3796,-206.9699 440.4885,-200.6757 436.7579,-202.6052"/>
</g>
<!-- src/MailboxProcessor.ts&#45;&gt;src/options.ts -->
<g id="edge4" class="edge">
<title>src/MailboxProcessor.ts&#45;&gt;src/options.ts</title>
<path fill="none" stroke="#000000" stroke-width="2" stroke-opacity="0.200000" d="M272.9469,-159.9747C279.7109,-157.4457 286.7482,-154.4335 293,-151 299.3893,-147.491 299.0988,-143.3472 306,-141 343.028,-128.406 355.9878,-131.7938 394,-141 444.0362,-153.1183 450.933,-171.0152 497,-194 503.7471,-197.3664 511.0917,-200.9519 517.8723,-204.2299"/>
<polygon fill="#000000" fill-opacity="0.200000" stroke="#000000" stroke-width="2" stroke-opacity="0.200000" points="517.0932,-206.1856 523.4099,-206.8996 518.9172,-202.4023 517.0932,-206.1856"/>
</g>
<!-- src/logger.ts -->
<g id="node14" class="node">
<title>src/logger.ts</title>
<g id="a_node14"><a xlink:href="src/logger.ts" xlink:title="logger.ts">
<path fill="#ddfeff" stroke="#000000" d="M727,-320C727,-320 685,-320 685,-320 682,-320 679,-317 679,-314 679,-314 679,-308 679,-308 679,-305 682,-302 685,-302 685,-302 727,-302 727,-302 730,-302 733,-305 733,-308 733,-308 733,-314 733,-314 733,-317 730,-320 727,-320"/>
<text text-anchor="middle" x="706" y="-308.8" font-family="Helvetica,sans-Serif" font-size="9.00" fill="#000000">logger.ts</text>
</a>
</g>
</g>
<!-- src/MailboxProcessor.ts&#45;&gt;src/logger.ts -->
<g id="edge2" class="edge">
<title>src/MailboxProcessor.ts&#45;&gt;src/logger.ts</title>
<path fill="none" stroke="#000000" stroke-width="2" stroke-opacity="0.200000" d="M257.5974,-159.8392C275.6089,-148.155 304.6399,-129.398 306,-129 383.1639,-106.4216 410.4765,-114.8375 486.5,-141 577.8321,-172.4307 600.8034,-190.5993 669,-259 680.3249,-270.3588 690.6734,-285.4996 697.5283,-296.5126"/>
<polygon fill="#000000" fill-opacity="0.200000" stroke="#000000" stroke-width="2" stroke-opacity="0.200000" points="695.8666,-297.8216 700.7812,-301.8536 699.4537,-295.6368 695.8666,-297.8216"/>
</g>
<!-- src/SandboxStatus.ts -->
<g id="node15" class="node">
<title>src/SandboxStatus.ts</title>
<g id="a_node15"><a xlink:href="src/SandboxStatus.ts" xlink:title="SandboxStatus.ts">
<path fill="#ddfeff" stroke="#000000" d="M388,-276C388,-276 312,-276 312,-276 309,-276 306,-273 306,-270 306,-270 306,-264 306,-264 306,-261 309,-258 312,-258 312,-258 388,-258 388,-258 391,-258 394,-261 394,-264 394,-264 394,-270 394,-270 394,-273 391,-276 388,-276"/>
<text text-anchor="middle" x="350" y="-264.8" font-family="Helvetica,sans-Serif" font-size="9.00" fill="#000000">SandboxStatus.ts</text>
</a>
</g>
</g>
<!-- src/MailboxProcessor.ts&#45;&gt;src/SandboxStatus.ts -->
<g id="edge5" class="edge">
<title>src/MailboxProcessor.ts&#45;&gt;src/SandboxStatus.ts</title>
<path fill="none" stroke="#000000" stroke-width="2" stroke-opacity="0.200000" d="M254.263,-178.0682C264.3866,-186.6634 279.9028,-200.0076 293,-212 308.0864,-225.8138 324.8854,-242.1438 336.3131,-253.402"/>
<polygon fill="#000000" fill-opacity="0.200000" stroke="#000000" stroke-width="2" stroke-opacity="0.200000" points="335.1168,-255.172 340.8613,-257.8944 338.0682,-252.1839 335.1168,-255.172"/>
</g>
<!-- src/NodeManager.ts -->
<g id="node16" class="node">
<title>src/NodeManager.ts</title>
<g id="a_node16"><a xlink:href="src/NodeManager.ts" xlink:title="NodeManager.ts">
<path fill="#ddfeff" stroke="#000000" d="M280,-236C280,-236 207,-236 207,-236 204,-236 201,-233 201,-230 201,-230 201,-224 201,-224 201,-221 204,-218 207,-218 207,-218 280,-218 280,-218 283,-218 286,-221 286,-224 286,-224 286,-230 286,-230 286,-233 283,-236 280,-236"/>
<text text-anchor="middle" x="243.5" y="-224.8" font-family="Helvetica,sans-Serif" font-size="9.00" fill="#000000">NodeManager.ts</text>
</a>
</g>
</g>
<!-- src/RtClosure.ts -->
<g id="node17" class="node">
<title>src/RtClosure.ts</title>
<g id="a_node17"><a xlink:href="src/RtClosure.ts" xlink:title="RtClosure.ts">
<path fill="#ddfeff" stroke="#000000" d="M271,-310C271,-310 216,-310 216,-310 213,-310 210,-307 210,-304 210,-304 210,-298 210,-298 210,-295 213,-292 216,-292 216,-292 271,-292 271,-292 274,-292 277,-295 277,-298 277,-298 277,-304 277,-304 277,-307 274,-310 271,-310"/>
<text text-anchor="middle" x="243.5" y="-298.8" font-family="Helvetica,sans-Serif" font-size="9.00" fill="#000000">RtClosure.ts</text>
</a>
</g>
</g>
<!-- src/Scheduler.ts -->
<g id="node18" class="node">
<title>src/Scheduler.ts</title>
<g id="a_node18"><a xlink:href="src/Scheduler.ts" xlink:title="Scheduler.ts">
<path fill="#ddfeff" stroke="#000000" d="M271.5,-280C271.5,-280 215.5,-280 215.5,-280 212.5,-280 209.5,-277 209.5,-274 209.5,-274 209.5,-268 209.5,-268 209.5,-265 212.5,-262 215.5,-262 215.5,-262 271.5,-262 271.5,-262 274.5,-262 277.5,-265 277.5,-268 277.5,-268 277.5,-274 277.5,-274 277.5,-277 274.5,-280 271.5,-280"/>
<text text-anchor="middle" x="243.5" y="-268.8" font-family="Helvetica,sans-Serif" font-size="9.00" fill="#000000">Scheduler.ts</text>
</a>
</g>
</g>
<!-- src/Scheduler.ts&#45;&gt;src/BaseFunction.ts -->
<g id="edge6" class="edge">
<title>src/Scheduler.ts&#45;&gt;src/BaseFunction.ts</title>
<path fill="none" stroke="#000000" stroke-width="2" stroke-opacity="0.200000" d="M266.9439,-261.9548C276.2715,-257.2825 286.3464,-250.7042 293,-242 306.4226,-224.4407 290.8801,-210.1209 306,-194 306.6556,-193.301 307.3451,-192.6345 308.0639,-191.9991"/>
<polygon fill="#000000" fill-opacity="0.200000" stroke="#000000" stroke-width="2" stroke-opacity="0.200000" points="309.5906,-193.4835 313.1848,-188.2403 307.1053,-190.0977 309.5906,-193.4835"/>
</g>
<!-- src/Scheduler.ts&#45;&gt;src/BaseKont.ts -->
<g id="edge7" class="edge">
<title>src/Scheduler.ts&#45;&gt;src/BaseKont.ts</title>
<path fill="none" stroke="#000000" stroke-width="2" stroke-opacity="0.200000" d="M277.5962,-277.3055C283.1513,-279.4175 288.5384,-282.2368 293,-286 302.8756,-294.3298 296.2688,-303.502 306,-312 307.7439,-313.5229 309.6495,-314.8928 311.6586,-316.125"/>
<polygon fill="#000000" fill-opacity="0.200000" stroke="#000000" stroke-width="2" stroke-opacity="0.200000" points="310.8973,-318.0992 317.1788,-319.0751 312.8769,-314.395 310.8973,-318.0992"/>
</g>
<!-- src/Scheduler.ts&#45;&gt;src/Lval.ts -->
<g id="edge9" class="edge">
<title>src/Scheduler.ts&#45;&gt;src/Lval.ts</title>
<path fill="none" stroke="#000000" stroke-width="2" stroke-opacity="0.200000" d="M274.2201,-261.9801C280.6468,-259.5092 287.2209,-256.5201 293,-253 299.7153,-248.9096 298.9591,-244.5005 306,-241 310.7447,-238.6411 372.2833,-228.1346 412.0244,-221.5152"/>
<polygon fill="#000000" fill-opacity="0.200000" stroke="#000000" stroke-width="2" stroke-opacity="0.200000" points="412.629,-223.5436 418.2034,-220.4881 411.9403,-219.4005 412.629,-223.5436"/>
</g>
<!-- src/Scheduler.ts&#45;&gt;src/options.ts -->
<g id="edge10" class="edge">
<title>src/Scheduler.ts&#45;&gt;src/options.ts</title>
<path fill="none" stroke="#000000" stroke-width="2" stroke-opacity="0.200000" d="M269.3816,-261.9929C280.5304,-258.4112 293.7873,-254.5453 306,-252 385.0644,-235.5219 407.1713,-246.1552 486.5,-231 493.6829,-229.6278 501.2994,-227.8262 508.5248,-225.9495"/>
<polygon fill="#000000" fill-opacity="0.200000" stroke="#000000" stroke-width="2" stroke-opacity="0.200000" points="509.2262,-227.936 514.484,-224.3632 508.1457,-223.8774 509.2262,-227.936"/>
</g>
<!-- src/Scheduler.ts&#45;&gt;src/logger.ts -->
<g id="edge8" class="edge">
<title>src/Scheduler.ts&#45;&gt;src/logger.ts</title>
<path fill="none" stroke="#000000" stroke-width="2" stroke-opacity="0.200000" d="M277.5161,-275.9456C283.3491,-278.1815 288.8555,-281.3942 293,-286 313.5818,-308.8726 282.9316,-333.638 306,-354 329.2895,-374.5572 414.4356,-363 445.5,-363 445.5,-363 445.5,-363 542.5,-363 595.2174,-363 653.1891,-338.1462 683.9533,-322.8037"/>
<polygon fill="#000000" fill-opacity="0.200000" stroke="#000000" stroke-width="2" stroke-opacity="0.200000" points="684.9704,-324.6426 689.3737,-320.0577 683.0723,-320.896 684.9704,-324.6426"/>
</g>
<!-- src/Scheduler.ts&#45;&gt;src/SandboxStatus.ts -->
<g id="edge12" class="edge">
<title>src/Scheduler.ts&#45;&gt;src/SandboxStatus.ts</title>
<path fill="none" stroke="#000000" stroke-width="2" stroke-opacity="0.200000" d="M277.7835,-269.7124C284.7193,-269.4519 292.149,-269.1728 299.5082,-268.8964"/>
<polygon fill="#000000" fill-opacity="0.200000" stroke="#000000" stroke-width="2" stroke-opacity="0.200000" points="299.744,-270.9891 305.661,-268.6653 299.5863,-266.7921 299.744,-270.9891"/>
</g>
<!-- src/process.ts -->
<g id="node19" class="node">
<title>src/process.ts</title>
<g id="a_node19"><a xlink:href="src/process.ts" xlink:title="process.ts">
<path fill="#ddfeff" stroke="#000000" d="M373,-218C373,-218 327,-218 327,-218 324,-218 321,-215 321,-212 321,-212 321,-206 321,-206 321,-203 324,-200 327,-200 327,-200 373,-200 373,-200 376,-200 379,-203 379,-206 379,-206 379,-212 379,-212 379,-215 376,-218 373,-218"/>
<text text-anchor="middle" x="350" y="-206.8" font-family="Helvetica,sans-Serif" font-size="9.00" fill="#000000">process.ts</text>
</a>
</g>
</g>
<!-- src/Scheduler.ts&#45;&gt;src/process.ts -->
<g id="edge11" class="edge">
<title>src/Scheduler.ts&#45;&gt;src/process.ts</title>
<path fill="none" stroke="#000000" stroke-width="2" stroke-opacity="0.200000" d="M277.6369,-262.4962C283.1876,-260.0616 288.5628,-256.9547 293,-253 302.6448,-244.404 296.527,-235.785 306,-227 308.78,-224.4219 311.979,-222.1895 315.3573,-220.2617"/>
<polygon fill="#000000" fill-opacity="0.200000" stroke="#000000" stroke-width="2" stroke-opacity="0.200000" points="316.4012,-222.0864 320.779,-217.4771 314.4823,-218.3503 316.4012,-222.0864"/>
</g>
<!-- src/Thread.ts -->
<g id="node20" class="node">
<title>src/Thread.ts</title>
<g id="a_node20"><a xlink:href="src/Thread.ts" xlink:title="Thread.ts">
<path fill="#ddfeff" stroke="#000000" d="M371.5,-306C371.5,-306 328.5,-306 328.5,-306 325.5,-306 322.5,-303 322.5,-300 322.5,-300 322.5,-294 322.5,-294 322.5,-291 325.5,-288 328.5,-288 328.5,-288 371.5,-288 371.5,-288 374.5,-288 377.5,-291 377.5,-294 377.5,-294 377.5,-300 377.5,-300 377.5,-303 374.5,-306 371.5,-306"/>
<text text-anchor="middle" x="350" y="-294.8" font-family="Helvetica,sans-Serif" font-size="9.00" fill="#000000">Thread.ts</text>
</a>
</g>
</g>
<!-- src/Scheduler.ts&#45;&gt;src/Thread.ts -->
<g id="edge13" class="edge">
<title>src/Scheduler.ts&#45;&gt;src/Thread.ts</title>
<path fill="none" stroke="#000000" stroke-width="2" stroke-opacity="0.200000" d="M277.7835,-279.3697C290.116,-282.3804 304.0097,-285.7723 316.2927,-288.771"/>
<polygon fill="#000000" fill-opacity="0.200000" stroke="#000000" stroke-width="2" stroke-opacity="0.200000" points="315.8523,-290.8251 322.1792,-290.2081 316.8485,-286.7449 315.8523,-290.8251"/>
</g>
<!-- src/ThreadError.ts -->
<g id="node21" class="node">
<title>src/ThreadError.ts</title>
<g id="a_node21"><a xlink:href="src/ThreadError.ts" xlink:title="ThreadError.ts">
<path fill="#ddfeff" stroke="#000000" d="M477,-350C477,-350 414,-350 414,-350 411,-350 408,-347 408,-344 408,-344 408,-338 408,-338 408,-335 411,-332 414,-332 414,-332 477,-332 477,-332 480,-332 483,-335 483,-338 483,-338 483,-344 483,-344 483,-347 480,-350 477,-350"/>
<text text-anchor="middle" x="445.5" y="-338.8" font-family="Helvetica,sans-Serif" font-size="9.00" fill="#000000">ThreadError.ts</text>
</a>
</g>
</g>
<!-- src/Scheduler.ts&#45;&gt;src/ThreadError.ts -->
<g id="edge14" class="edge">
<title>src/Scheduler.ts&#45;&gt;src/ThreadError.ts</title>
<path fill="none" stroke="#000000" stroke-width="2" stroke-opacity="0.200000" d="M277.6268,-276.1744C283.3789,-278.3938 288.8274,-281.5419 293,-286 310.4599,-304.6545 285.9942,-326.1064 306,-342 336.134,-365.9399 382.6077,-359.7742 413.5254,-351.6535"/>
<polygon fill="#000000" fill-opacity="0.200000" stroke="#000000" stroke-width="2" stroke-opacity="0.200000" points="414.2643,-353.6284 419.4921,-350.0117 413.1499,-349.5789 414.2643,-353.6284"/>
</g>
<!-- src/UnitBase.ts -->
<g id="node22" class="node">
<title>src/UnitBase.ts</title>
<g id="a_node22"><a xlink:href="src/UnitBase.ts" xlink:title="UnitBase.ts">
<path fill="#ddfeff" stroke="#000000" d="M375.5,-394C375.5,-394 324.5,-394 324.5,-394 321.5,-394 318.5,-391 318.5,-388 318.5,-388 318.5,-382 318.5,-382 318.5,-379 321.5,-376 324.5,-376 324.5,-376 375.5,-376 375.5,-376 378.5,-376 381.5,-379 381.5,-382 381.5,-382 381.5,-388 381.5,-388 381.5,-391 378.5,-394 375.5,-394"/>
<text text-anchor="middle" x="350" y="-382.8" font-family="Helvetica,sans-Serif" font-size="9.00" fill="#000000">UnitBase.ts</text>
</a>
</g>
</g>
<!-- src/Scheduler.ts&#45;&gt;src/UnitBase.ts -->
<g id="edge15" class="edge">
<title>src/Scheduler.ts&#45;&gt;src/UnitBase.ts</title>
<path fill="none" stroke="#000000" stroke-width="2" stroke-opacity="0.200000" d="M277.6265,-275.8477C283.4499,-278.0922 288.9245,-281.3331 293,-286 316.9826,-313.463 283.3354,-338.4396 306,-367 308.0522,-369.586 310.5373,-371.8034 313.2699,-373.7041"/>
<polygon fill="#000000" fill-opacity="0.200000" stroke="#000000" stroke-width="2" stroke-opacity="0.200000" points="312.191,-375.5057 318.4159,-376.7947 314.3535,-371.9052 312.191,-375.5057"/>
</g>
<!-- src/Thread.ts&#45;&gt;src/Lval.ts -->
<g id="edge21" class="edge">
<title>src/Thread.ts&#45;&gt;src/Lval.ts</title>
<path fill="none" stroke="#000000" stroke-width="2" stroke-opacity="0.200000" d="M377.8614,-291.2159C383.6677,-289.0439 389.4102,-286.0689 394,-282 403.9661,-273.1649 399.3285,-265.8872 407,-255 413.626,-245.5967 422.5809,-236.3763 430.1869,-229.2635"/>
<polygon fill="#000000" fill-opacity="0.200000" stroke="#000000" stroke-width="2" stroke-opacity="0.200000" points="431.7035,-230.7224 434.7156,-225.1244 428.87,-227.6222 431.7035,-230.7224"/>
</g>
<!-- src/Thread.ts&#45;&gt;src/options.ts -->
<g id="edge22" class="edge">
<title>src/Thread.ts&#45;&gt;src/options.ts</title>
<path fill="none" stroke="#000000" stroke-width="2" stroke-opacity="0.200000" d="M377.6658,-290.2122C383.356,-288.1077 389.0998,-285.414 394,-282 401.5178,-276.7623 399.1867,-270.7858 407,-266 437.8116,-247.1274 452.8338,-262.1193 486.5,-249 493.8602,-246.1318 509.9182,-236.5313 522.9596,-228.4198"/>
<polygon fill="#000000" fill-opacity="0.200000" stroke="#000000" stroke-width="2" stroke-opacity="0.200000" points="524.3581,-230.0219 528.3299,-225.0585 522.1298,-226.4618 524.3581,-230.0219"/>
</g>
<!-- src/Thread.ts&#45;&gt;src/logger.ts -->
<g id="edge20" class="edge">
<title>src/Thread.ts&#45;&gt;src/logger.ts</title>
<path fill="none" stroke="#000000" stroke-width="2" stroke-opacity="0.200000" d="M377.6299,-298.4321C407.171,-299.936 455.3881,-302.3125 497,-304 559.1072,-306.5187 631.623,-308.7994 672.8455,-310.0339"/>
<polygon fill="#000000" fill-opacity="0.200000" stroke="#000000" stroke-width="2" stroke-opacity="0.200000" points="672.8809,-312.1358 678.9409,-310.2156 673.0062,-307.9376 672.8809,-312.1358"/>
</g>
<!-- src/Thread.ts&#45;&gt;src/ThreadError.ts -->
<g id="edge23" class="edge">
<title>src/Thread.ts&#45;&gt;src/ThreadError.ts</title>
<path fill="none" stroke="#000000" stroke-width="2" stroke-opacity="0.200000" d="M377.763,-305.5949C383.2167,-307.5258 388.8432,-309.6928 394,-312 404.8049,-316.8343 416.3296,-323.2005 425.7313,-328.7363"/>
<polygon fill="#000000" fill-opacity="0.200000" stroke="#000000" stroke-width="2" stroke-opacity="0.200000" points="424.7718,-330.6092 431,-331.8818 426.9248,-327.003 424.7718,-330.6092"/>
</g>
<!-- src/StackCallItem.ts -->
<g id="node23" class="node">
<title>src/StackCallItem.ts</title>
<g id="a_node23"><a xlink:href="src/StackCallItem.ts" xlink:title="StackCallItem.ts">
<path fill="#ddfeff" stroke="#000000" d="M577.5,-268C577.5,-268 507.5,-268 507.5,-268 504.5,-268 501.5,-265 501.5,-262 501.5,-262 501.5,-256 501.5,-256 501.5,-253 504.5,-250 507.5,-250 507.5,-250 577.5,-250 577.5,-250 580.5,-250 583.5,-253 583.5,-256 583.5,-256 583.5,-262 583.5,-262 583.5,-265 580.5,-268 577.5,-268"/>
<text text-anchor="middle" x="542.5" y="-256.8" font-family="Helvetica,sans-Serif" font-size="9.00" fill="#000000">StackCallItem.ts</text>
</a>
</g>
</g>
<!-- src/StackItem.ts -->
<g id="node24" class="node">
<title>src/StackItem.ts</title>
<g id="a_node24"><a xlink:href="src/StackItem.ts" xlink:title="StackItem.ts">
<path fill="#ddfeff" stroke="#000000" d="M660,-283C660,-283 607,-283 607,-283 604,-283 601,-280 601,-277 601,-277 601,-271 601,-271 601,-268 604,-265 607,-265 607,-265 660,-265 660,-265 663,-265 666,-268 666,-271 666,-271 666,-277 666,-277 666,-280 663,-283 660,-283"/>
<text text-anchor="middle" x="633.5" y="-271.8" font-family="Helvetica,sans-Serif" font-size="9.00" fill="#000000">StackItem.ts</text>
</a>
</g>
</g>
<!-- src/StackCallItem.ts&#45;&gt;src/StackItem.ts -->
<g id="edge16" class="edge">
<title>src/StackCallItem.ts&#45;&gt;src/StackItem.ts</title>
<path fill="none" stroke="#000000" stroke-width="2" stroke-opacity="0.200000" d="M583.7399,-265.7978C587.4153,-266.4036 591.1281,-267.0156 594.7813,-267.6178"/>
<polygon fill="#000000" fill-opacity="0.200000" stroke="#000000" stroke-width="2" stroke-opacity="0.200000" points="594.5941,-269.7152 600.8558,-268.6191 595.2772,-265.5711 594.5941,-269.7152"/>
</g>
<!-- src/StackGuardItem.ts -->
<g id="node25" class="node">
<title>src/StackGuardItem.ts</title>
<g id="a_node25"><a xlink:href="src/StackGuardItem.ts" xlink:title="StackGuardItem.ts">
<path fill="#ddfeff" stroke="#000000" d="M582,-298C582,-298 503,-298 503,-298 500,-298 497,-295 497,-292 497,-292 497,-286 497,-286 497,-283 500,-280 503,-280 503,-280 582,-280 582,-280 585,-280 588,-283 588,-286 588,-286 588,-292 588,-292 588,-295 585,-298 582,-298"/>
<text text-anchor="middle" x="542.5" y="-286.8" font-family="Helvetica,sans-Serif" font-size="9.00" fill="#000000">StackGuardItem.ts</text>
</a>
</g>
</g>
<!-- src/StackGuardItem.ts&#45;&gt;src/StackItem.ts -->
<g id="edge17" class="edge">
<title>src/StackGuardItem.ts&#45;&gt;src/StackItem.ts</title>
<path fill="none" stroke="#000000" stroke-width="2" stroke-opacity="0.200000" d="M588.2666,-281.4561C590.391,-281.1059 592.5147,-280.7558 594.6191,-280.4089"/>
<polygon fill="#000000" fill-opacity="0.200000" stroke="#000000" stroke-width="2" stroke-opacity="0.200000" points="595.2772,-282.4289 600.8558,-279.3809 594.5941,-278.2848 595.2772,-282.4289"/>
</g>
<!-- src/StackThread.ts -->
<g id="node26" class="node">
<title>src/StackThread.ts</title>
<g id="a_node26"><a xlink:href="src/StackThread.ts" xlink:title="StackThread.ts">
<path fill="#ddfeff" stroke="#000000" d="M478,-290C478,-290 413,-290 413,-290 410,-290 407,-287 407,-284 407,-284 407,-278 407,-278 407,-275 410,-272 413,-272 413,-272 478,-272 478,-272 481,-272 484,-275 484,-278 484,-278 484,-284 484,-284 484,-287 481,-290 478,-290"/>
<text text-anchor="middle" x="445.5" y="-278.8" font-family="Helvetica,sans-Serif" font-size="9.00" fill="#000000">StackThread.ts</text>
</a>
</g>
</g>
<!-- src/StackThread.ts&#45;&gt;src/options.ts -->
<g id="edge18" class="edge">
<title>src/StackThread.ts&#45;&gt;src/options.ts</title>
<path fill="none" stroke="#000000" stroke-width="2" stroke-opacity="0.200000" d="M473.0414,-271.9011C477.8726,-269.5042 482.5956,-266.5637 486.5,-263 493.6261,-256.4957 490.3392,-250.98 497,-244 502.817,-237.9042 510.2352,-232.6088 517.3856,-228.3134"/>
<polygon fill="#000000" fill-opacity="0.200000" stroke="#000000" stroke-width="2" stroke-opacity="0.200000" points="518.6092,-230.0326 522.7704,-225.2268 516.5206,-226.3887 518.6092,-230.0326"/>
</g>
<!-- src/StackThread.ts&#45;&gt;src/StackCallItem.ts -->
<g id="edge19" class="edge">
<title>src/StackThread.ts&#45;&gt;src/StackCallItem.ts</title>
<path fill="none" stroke="#000000" stroke-width="2" stroke-opacity="0.200000" d="M484.1157,-272.2418C488.2333,-271.3079 492.4502,-270.3515 496.6407,-269.4011"/>
<polygon fill="#000000" fill-opacity="0.200000" stroke="#000000" stroke-width="2" stroke-opacity="0.200000" points="497.3599,-271.3914 502.7468,-268.0162 496.4309,-267.2954 497.3599,-271.3914"/>
</g>
<!-- src/ValuesUtil.ts -->
<g id="node27" class="node">
<title>src/ValuesUtil.ts</title>
<g id="a_node27"><a xlink:href="src/ValuesUtil.ts" xlink:title="ValuesUtil.ts">
<path fill="#ddfeff" stroke="#000000" d="M271.5,-568C271.5,-568 215.5,-568 215.5,-568 212.5,-568 209.5,-565 209.5,-562 209.5,-562 209.5,-556 209.5,-556 209.5,-553 212.5,-550 215.5,-550 215.5,-550 271.5,-550 271.5,-550 274.5,-550 277.5,-553 277.5,-556 277.5,-556 277.5,-562 277.5,-562 277.5,-565 274.5,-568 271.5,-568"/>
<text text-anchor="middle" x="243.5" y="-556.8" font-family="Helvetica,sans-Serif" font-size="9.00" fill="#000000">ValuesUtil.ts</text>
</a>
</g>
</g>
<!-- src/levels/lohi.ts -->
<g id="node28" class="node">
<title>src/levels/lohi.ts</title>
<g id="a_node28"><a xlink:href="src/levels/lohi.ts" xlink:title="lohi.ts">
<path fill="#ddfeff" stroke="#000000" d="M654.5,-111C654.5,-111 612.5,-111 612.5,-111 609.5,-111 606.5,-108 606.5,-105 606.5,-105 606.5,-99 606.5,-99 606.5,-96 609.5,-93 612.5,-93 612.5,-93 654.5,-93 654.5,-93 657.5,-93 660.5,-96 660.5,-99 660.5,-99 660.5,-105 660.5,-105 660.5,-108 657.5,-111 654.5,-111"/>
<text text-anchor="middle" x="633.5" y="-99.8" font-family="Helvetica,sans-Serif" font-size="9.00" fill="#000000">lohi.ts</text>
</a>
</g>
</g>
<!-- src/levels/lohi.ts&#45;&gt;src/Level.ts -->
<g id="edge24" class="edge">
<title>src/levels/lohi.ts&#45;&gt;src/Level.ts</title>
<path fill="none" stroke="#000000" stroke-width="2" stroke-opacity="0.200000" d="M660.9091,-102C664.6985,-102 668.6251,-102 672.5093,-102"/>
<polygon fill="#000000" fill-opacity="0.200000" stroke="#000000" stroke-width="2" stroke-opacity="0.200000" points="672.5521,-104.1001 678.5521,-102 672.5521,-99.9001 672.5521,-104.1001"/>
</g>
<!-- src/levels/tagsets.ts&#45;&gt;src/Level.ts -->
<g id="edge25" class="edge">
<title>src/levels/tagsets.ts&#45;&gt;src/Level.ts</title>
<path fill="none" stroke="#000000" stroke-width="2" stroke-opacity="0.200000" d="M655.2524,-122.999C662.4981,-120.0008 670.6691,-116.6197 678.3033,-113.4607"/>
<polygon fill="#000000" fill-opacity="0.200000" stroke="#000000" stroke-width="2" stroke-opacity="0.200000" points="679.2712,-115.3329 684.0124,-111.0983 677.6653,-111.4521 679.2712,-115.3329"/>
</g>
<!-- src/levels/tagsets.ts&#45;&gt;src/logger.ts -->
<g id="edge26" class="edge">
<title>src/levels/tagsets.ts&#45;&gt;src/logger.ts</title>
<path fill="none" stroke="#000000" stroke-width="2" stroke-opacity="0.200000" d="M661.265,-138.9113C664.1651,-140.5318 666.8372,-142.5318 669,-145 688.7845,-167.5786 700.4833,-259.0228 704.4589,-295.6856"/>
<polygon fill="#000000" fill-opacity="0.200000" stroke="#000000" stroke-width="2" stroke-opacity="0.200000" points="702.3929,-296.1187 705.1116,-301.8649 706.5696,-295.6775 702.3929,-296.1187"/>
</g>
<!-- src/loadLibs.js -->
<g id="node30" class="node">
<title>src/loadLibs.js</title>
<g id="a_node30"><a xlink:href="src/loadLibs.js" xlink:title="loadLibs.js">
<path fill="#ffffcc" stroke="#000000" d="M268,-120C268,-120 219,-120 219,-120 216,-120 213,-117 213,-114 213,-114 213,-108 213,-108 213,-105 216,-102 219,-102 219,-102 268,-102 268,-102 271,-102 274,-105 274,-108 274,-108 274,-114 274,-114 274,-117 271,-120 268,-120"/>
<text text-anchor="middle" x="243.5" y="-108.8" font-family="Helvetica,sans-Serif" font-size="9.00" fill="#000000">loadLibs.js</text>
</a>
</g>
</g>
<!-- src/loadLibs.js&#45;&gt;fs -->
<g id="edge28" class="edge">
<title>src/loadLibs.js&#45;&gt;fs</title>
<path fill="none" stroke="#000000" stroke-dasharray="5,2" stroke-opacity="0.200000" d="M274.0988,-106.4573C280.9704,-104.2317 287.7668,-100.9213 293,-96 305.0883,-84.632 293.9905,-72.4512 306,-61 309.1909,-57.9575 313.0416,-55.5761 317.1214,-53.7121"/>
<polygon fill="#000000" fill-opacity="0.200000" stroke="#000000" stroke-opacity="0.200000" points="317.9753,-55.6328 322.7863,-51.4777 316.4342,-51.7258 317.9753,-55.6328"/>
</g>
<!-- src/loadLibs.js&#45;&gt;src/logger.ts -->
<g id="edge27" class="edge">
<title>src/loadLibs.js&#45;&gt;src/logger.ts</title>
<path fill="none" stroke="#000000" stroke-width="2" stroke-opacity="0.200000" d="M274.0529,-102.8912C340.6731,-87.2332 500.0657,-61.0802 588,-142 597.7237,-150.948 588.4007,-160.9187 598,-170 621.9048,-192.6147 645.5978,-167.8656 669,-191 684.0627,-205.8903 697.5753,-267.3073 703.2134,-296.0451"/>
<polygon fill="#000000" fill-opacity="0.200000" stroke="#000000" stroke-width="2" stroke-opacity="0.200000" points="701.1577,-296.4759 704.3548,-301.9704 705.2819,-295.6815 701.1577,-296.4759"/>
</g>
<!-- src/p2p/libp2p&#45;bundle.ts -->
<g id="node31" class="node">
<title>src/p2p/libp2p&#45;bundle.ts</title>
<g id="a_node31"><a xlink:href="src/p2p/libp2p-bundle.ts" xlink:title="libp2p&#45;bundle.ts">
<path fill="#ddfeff" stroke="#000000" d="M385.5,-498C385.5,-498 314.5,-498 314.5,-498 311.5,-498 308.5,-495 308.5,-492 308.5,-492 308.5,-486 308.5,-486 308.5,-483 311.5,-480 314.5,-480 314.5,-480 385.5,-480 385.5,-480 388.5,-480 391.5,-483 391.5,-486 391.5,-486 391.5,-492 391.5,-492 391.5,-495 388.5,-498 385.5,-498"/>
<text text-anchor="middle" x="350" y="-486.8" font-family="Helvetica,sans-Serif" font-size="9.00" fill="#000000">libp2p&#45;bundle.ts</text>
</a>
</g>
</g>
<!-- src/p2p/p2pconfig.ts -->
<g id="node32" class="node">
<title>src/p2p/p2pconfig.ts</title>
<g id="a_node32"><a xlink:href="src/p2p/p2pconfig.ts" xlink:title="p2pconfig.ts">
<path fill="#ddfeff" stroke="#000000" d="M472.5,-509C472.5,-509 418.5,-509 418.5,-509 415.5,-509 412.5,-506 412.5,-503 412.5,-503 412.5,-497 412.5,-497 412.5,-494 415.5,-491 418.5,-491 418.5,-491 472.5,-491 472.5,-491 475.5,-491 478.5,-494 478.5,-497 478.5,-497 478.5,-503 478.5,-503 478.5,-506 475.5,-509 472.5,-509"/>
<text text-anchor="middle" x="445.5" y="-497.8" font-family="Helvetica,sans-Serif" font-size="9.00" fill="#000000">p2pconfig.ts</text>
</a>
</g>
</g>
<!-- src/p2p/libp2p&#45;bundle.ts&#45;&gt;src/p2p/p2pconfig.ts -->
<g id="edge30" class="edge">
<title>src/p2p/libp2p&#45;bundle.ts&#45;&gt;src/p2p/p2pconfig.ts</title>
<path fill="none" stroke="#000000" stroke-width="2" stroke-opacity="0.200000" d="M391.6099,-493.7928C396.4871,-494.3545 401.4512,-494.9263 406.2941,-495.4841"/>
<polygon fill="#000000" fill-opacity="0.200000" stroke="#000000" stroke-width="2" stroke-opacity="0.200000" points="406.147,-497.581 412.3479,-496.1814 406.6277,-493.4086 406.147,-497.581"/>
</g>
<!-- src/p2p/mkaliases.ts -->
<g id="node33" class="node">
<title>src/p2p/mkaliases.ts</title>
<g id="a_node33"><a xlink:href="src/p2p/mkaliases.ts" xlink:title="mkaliases.ts">
<path fill="#ddfeff" stroke="#000000" d="M271,-456C271,-456 216,-456 216,-456 213,-456 210,-453 210,-450 210,-450 210,-444 210,-444 210,-441 213,-438 216,-438 216,-438 271,-438 271,-438 274,-438 277,-441 277,-444 277,-444 277,-450 277,-450 277,-453 274,-456 271,-456"/>
<text text-anchor="middle" x="243.5" y="-444.8" font-family="Helvetica,sans-Serif" font-size="9.00" fill="#000000">mkaliases.ts</text>
</a>
</g>
</g>
<!-- src/p2p/mkaliases.ts&#45;&gt;fs -->
<g id="edge31" class="edge">
<title>src/p2p/mkaliases.ts&#45;&gt;fs</title>
<path fill="none" stroke="#000000" stroke-dasharray="5,2" stroke-opacity="0.200000" d="M277.0115,-444.3349C283.1845,-442.3002 288.9498,-439.0662 293,-434 318.895,-401.609 280.9431,-94.0436 306,-61 308.8608,-57.2274 312.7435,-54.4504 317.0245,-52.4104"/>
<polygon fill="#000000" fill-opacity="0.200000" stroke="#000000" stroke-opacity="0.200000" points="317.8053,-54.3599 322.613,-50.201 316.2611,-50.454 317.8053,-54.3599"/>
</g>
<!-- src/p2p/mkaliases.ts&#45;&gt;path -->
<g id="edge32" class="edge">
<title>src/p2p/mkaliases.ts&#45;&gt;path</title>
<path fill="none" stroke="#000000" stroke-dasharray="5,2" stroke-opacity="0.200000" d="M277.0212,-444.3427C283.1936,-442.3075 288.9562,-439.0713 293,-434 320.862,-399.0585 282.2337,-69.8465 306,-32 308.8334,-27.4879 312.8638,-23.8138 317.3479,-20.8362"/>
<polygon fill="#000000" fill-opacity="0.200000" stroke="#000000" stroke-opacity="0.200000" points="318.6631,-22.4994 322.7757,-17.652 316.5379,-18.8767 318.6631,-22.4994"/>
</g>
<!-- src/p2p/mkid.ts -->
<g id="node34" class="node">
<title>src/p2p/mkid.ts</title>
<g id="a_node34"><a xlink:href="src/p2p/mkid.ts" xlink:title="mkid.ts">
<path fill="#ddfeff" stroke="#000000" d="M264.5,-486C264.5,-486 222.5,-486 222.5,-486 219.5,-486 216.5,-483 216.5,-480 216.5,-480 216.5,-474 216.5,-474 216.5,-471 219.5,-468 222.5,-468 222.5,-468 264.5,-468 264.5,-468 267.5,-468 270.5,-471 270.5,-474 270.5,-474 270.5,-480 270.5,-480 270.5,-483 267.5,-486 264.5,-486"/>
<text text-anchor="middle" x="243.5" y="-474.8" font-family="Helvetica,sans-Serif" font-size="9.00" fill="#000000">mkid.ts</text>
</a>
</g>
</g>
<!-- src/p2p/mkid.ts&#45;&gt;fs -->
<g id="edge33" class="edge">
<title>src/p2p/mkid.ts&#45;&gt;fs</title>
<path fill="none" stroke="#000000" stroke-dasharray="5,2" stroke-opacity="0.200000" d="M270.67,-474.8899C279.1334,-472.8161 287.643,-468.9816 293,-462 320.1375,-426.6328 279.1075,-96.5539 306,-61 308.8562,-57.2239 312.7365,-54.445 317.0163,-52.4042"/>
<polygon fill="#000000" fill-opacity="0.200000" stroke="#000000" stroke-opacity="0.200000" points="317.7969,-54.3538 322.6042,-50.1943 316.2523,-50.4481 317.7969,-54.3538"/>
</g>
<!-- src/p2p/p2p.js -->
<g id="node35" class="node">
<title>src/p2p/p2p.js</title>
<g id="a_node35"><a xlink:href="src/p2p/p2p.js" xlink:title="p2p.js">
<path fill="#ffffcc" stroke="#000000" d="M264.5,-516C264.5,-516 222.5,-516 222.5,-516 219.5,-516 216.5,-513 216.5,-510 216.5,-510 216.5,-504 216.5,-504 216.5,-501 219.5,-498 222.5,-498 222.5,-498 264.5,-498 264.5,-498 267.5,-498 270.5,-501 270.5,-504 270.5,-504 270.5,-510 270.5,-510 270.5,-513 267.5,-516 264.5,-516"/>
<text text-anchor="middle" x="243.5" y="-504.8" font-family="Helvetica,sans-Serif" font-size="9.00" fill="#000000">p2p.js</text>
</a>
</g>
</g>
<!-- src/p2p/p2p.js&#45;&gt;src/logger.ts -->
<g id="edge34" class="edge">
<title>src/p2p/p2p.js&#45;&gt;src/logger.ts</title>
<path fill="none" stroke="#000000" stroke-width="2" stroke-opacity="0.200000" d="M270.6494,-502.1797C278.3504,-499.9418 286.4214,-496.6943 293,-492 301.0329,-486.268 297.646,-479.2529 306,-474 359.3225,-440.4714 382.5122,-449 445.5,-449 445.5,-449 445.5,-449 542.5,-449 599.7251,-449 626.062,-462.8291 669,-425 684.0324,-411.7562 697.3847,-353.935 703.0792,-326.0918"/>
<polygon fill="#000000" fill-opacity="0.200000" stroke="#000000" stroke-width="2" stroke-opacity="0.200000" points="705.1777,-326.3075 704.298,-320.0117 701.0596,-325.4819 705.1777,-326.3075"/>
</g>
<!-- src/p2p/p2p.js&#45;&gt;src/p2p/libp2p&#45;bundle.ts -->
<g id="edge35" class="edge">
<title>src/p2p/p2p.js&#45;&gt;src/p2p/libp2p&#45;bundle.ts</title>
<path fill="none" stroke="#000000" stroke-width="2" stroke-opacity="0.200000" d="M270.65,-502.4113C280.3217,-500.7766 291.5195,-498.884 302.3991,-497.0452"/>
<polygon fill="#000000" fill-opacity="0.200000" stroke="#000000" stroke-width="2" stroke-opacity="0.200000" points="302.8328,-499.1018 308.399,-496.0312 302.1329,-494.9605 302.8328,-499.1018"/>
</g>
<!-- src/p2p/p2p.js&#45;&gt;src/p2p/p2pconfig.ts -->
<g id="edge36" class="edge">
<title>src/p2p/p2p.js&#45;&gt;src/p2p/p2pconfig.ts</title>
<path fill="none" stroke="#000000" stroke-width="2" stroke-opacity="0.200000" d="M270.7044,-506.9284C300.8596,-506.7393 350.9306,-506.1001 394,-504 397.972,-503.8063 402.1132,-503.5597 406.2457,-503.2843"/>
<polygon fill="#000000" fill-opacity="0.200000" stroke="#000000" stroke-width="2" stroke-opacity="0.200000" points="406.4346,-505.3764 412.2736,-502.8631 406.1417,-501.1866 406.4346,-505.3764"/>
</g>
<!-- util -->
<g id="node36" class="node">
<title>util</title>
<path fill="#ffffcc" stroke="#c0c0c0" d="M371,-728C371,-728 329,-728 329,-728 326,-728 323,-725 323,-722 323,-722 323,-716 323,-716 323,-713 326,-710 329,-710 329,-710 371,-710 371,-710 374,-710 377,-713 377,-716 377,-716 377,-722 377,-722 377,-725 374,-728 371,-728"/>
<text text-anchor="middle" x="350" y="-716.8" font-family="Helvetica,sans-Serif" font-size="9.00" fill="#c0c0c0">util</text>
</g>
<!-- src/p2p/p2p.js&#45;&gt;util -->
<g id="edge37" class="edge">
<title>src/p2p/p2p.js&#45;&gt;util</title>
<path fill="none" stroke="#000000" stroke-dasharray="5,2" stroke-opacity="0.200000" d="M270.6901,-508.1445C279.0502,-509.9001 287.4911,-513.3718 293,-520 318.3506,-550.5014 283.632,-665.2485 306,-698 308.9508,-702.3205 313.0418,-705.7789 317.5504,-708.5397"/>
<polygon fill="#000000" fill-opacity="0.200000" stroke="#000000" stroke-opacity="0.200000" points="316.7132,-710.474 322.9917,-711.4699 318.7047,-706.7761 316.7132,-710.474"/>
</g>
<!-- src/runtimeMonitored.ts -->
<g id="node37" class="node">
<title>src/runtimeMonitored.ts</title>
<g id="a_node37"><a xlink:href="src/runtimeMonitored.ts" xlink:title="runtimeMonitored.ts">
<path fill="#ddfeff" stroke="#000000" d="M175,-295C175,-295 89,-295 89,-295 86,-295 83,-292 83,-289 83,-289 83,-283 83,-283 83,-280 86,-277 89,-277 89,-277 175,-277 175,-277 178,-277 181,-280 181,-283 181,-283 181,-289 181,-289 181,-292 178,-295 175,-295"/>
<text text-anchor="middle" x="132" y="-283.8" font-family="Helvetica,sans-Serif" font-size="9.00" fill="#000000">runtimeMonitored.ts</text>
</a>
</g>
</g>
<!-- src/runtimeMonitored.ts&#45;&gt;assert -->
<g id="edge56" class="edge">
<title>src/runtimeMonitored.ts&#45;&gt;assert</title>
<path fill="none" stroke="#000000" stroke-dasharray="5,2" stroke-opacity="0.200000" d="M132.7165,-295.1884C137.2771,-352.5115 163.0506,-659.4782 194,-686 228.9995,-715.9925 286.3918,-704.7893 320.9467,-693.9032"/>
<polygon fill="#000000" fill-opacity="0.200000" stroke="#000000" stroke-opacity="0.200000" points="321.6526,-695.882 326.7058,-692.0251 320.3503,-691.8889 321.6526,-695.882"/>
</g>
<!-- src/runtimeMonitored.ts&#45;&gt;fs -->
<g id="edge57" class="edge">
<title>src/runtimeMonitored.ts&#45;&gt;fs</title>
<path fill="none" stroke="#000000" stroke-dasharray="5,2" stroke-opacity="0.200000" d="M133.2207,-276.9059C138.492,-239.0576 160.5575,-94.6664 194,-66 227.7367,-37.0814 281.6859,-37.2681 316.4755,-41.2316"/>
<polygon fill="#000000" fill-opacity="0.200000" stroke="#000000" stroke-opacity="0.200000" points="316.5263,-43.3539 322.7393,-42.0095 317.0439,-39.186 316.5263,-43.3539"/>
</g>
<!-- src/runtimeMonitored.ts&#45;&gt;os -->
<g id="edge58" class="edge">
<title>src/runtimeMonitored.ts&#45;&gt;os</title>
<path fill="none" stroke="#000000" stroke-dasharray="5,2" stroke-opacity="0.200000" d="M132.269,-295.2691C133.9537,-347.0172 144.6459,-599.8749 194,-656 198.3584,-660.9563 204.2945,-664.3031 210.5431,-666.556"/>
<polygon fill="#000000" fill-opacity="0.200000" stroke="#000000" stroke-opacity="0.200000" points="209.981,-668.5801 216.3331,-668.3323 211.2129,-664.5648 209.981,-668.5801"/>
</g>
<!-- src/runtimeMonitored.ts&#45;&gt;readline -->
<g id="edge59" class="edge">
<title>src/runtimeMonitored.ts&#45;&gt;readline</title>
<path fill="none" stroke="#000000" stroke-dasharray="5,2" stroke-opacity="0.200000" d="M132.3923,-295.198C134.673,-344.395 147.7716,-576.1176 194,-627 198.4141,-631.8584 204.3739,-635.0811 210.6279,-637.2068"/>
<polygon fill="#000000" fill-opacity="0.200000" stroke="#000000" stroke-opacity="0.200000" points="210.072,-639.232 216.4183,-638.8661 211.229,-635.1945 210.072,-639.232"/>
</g>
<!-- src/runtimeMonitored.ts&#45;&gt;src/Authority.ts -->
<g id="edge38" class="edge">
<title>src/runtimeMonitored.ts&#45;&gt;src/Authority.ts</title>
<path fill="none" stroke="#000000" stroke-width="2" stroke-opacity="0.200000" d="M133.8097,-276.9061C140.779,-242.7303 166.8509,-122.5799 194,-96 197.519,-92.5547 201.8021,-89.8972 206.3604,-87.848"/>
<polygon fill="#000000" fill-opacity="0.200000" stroke="#000000" stroke-width="2" stroke-opacity="0.200000" points="207.411,-89.693 212.2446,-85.5643 205.8913,-85.7776 207.411,-89.693"/>
</g>
<!-- src/runtimeMonitored.ts&#45;&gt;src/BaseFunction.ts -->
<g id="edge39" class="edge">
<title>src/runtimeMonitored.ts&#45;&gt;src/BaseFunction.ts</title>
<path fill="none" stroke="#000000" stroke-width="2" stroke-opacity="0.200000" d="M136.7329,-276.9451C145.6123,-260.9458 166.3919,-227.8709 194,-212 232.7044,-189.7502 249.4502,-204.8236 293,-195 299.8931,-193.4451 307.1948,-191.5714 314.1885,-189.6623"/>
<polygon fill="#000000" fill-opacity="0.200000" stroke="#000000" stroke-width="2" stroke-opacity="0.200000" points="314.7551,-191.6845 319.975,-188.0565 313.6319,-187.6374 314.7551,-191.6845"/>
</g>
<!-- src/runtimeMonitored.ts&#45;&gt;src/Level.ts -->
<g id="edge40" class="edge">
<title>src/runtimeMonitored.ts&#45;&gt;src/Level.ts</title>
<path fill="none" stroke="#000000" stroke-width="2" stroke-opacity="0.200000" d="M132.7659,-276.799C135.5089,-250.2702 147.3343,-173.2812 194,-138 229.3549,-111.2703 254.8253,-148.5197 293,-126 301.4996,-120.986 297.4217,-112.8781 306,-108 419.2591,-43.5937 467.8372,-87.7835 598,-82 629.5245,-80.5993 638.4081,-74.2611 669,-82 675.3711,-83.6117 681.8356,-86.5621 687.5403,-89.7107"/>
<polygon fill="#000000" fill-opacity="0.200000" stroke="#000000" stroke-width="2" stroke-opacity="0.200000" points="686.7212,-91.6646 692.9603,-92.8832 688.8429,-88.0398 686.7212,-91.6646"/>
</g>
<!-- src/runtimeMonitored.ts&#45;&gt;src/Lval.ts -->
<g id="edge43" class="edge">
<title>src/runtimeMonitored.ts&#45;&gt;src/Lval.ts</title>
<path fill="none" stroke="#000000" stroke-width="2" stroke-opacity="0.200000" d="M135.2656,-276.9454C142.5439,-258.2146 162.0193,-215.3486 194,-196 231.9218,-173.057 255.3897,-207.4502 293,-184 301.9962,-178.3908 296.682,-169.0567 306,-164 323.1877,-154.6725 375.9512,-156.4728 394,-164 412.2648,-171.6173 427.3677,-189.2136 436.3954,-201.827"/>
<polygon fill="#000000" fill-opacity="0.200000" stroke="#000000" stroke-width="2" stroke-opacity="0.200000" points="434.7483,-203.1376 439.884,-206.884 438.2055,-200.7527 434.7483,-203.1376"/>
</g>
<!-- src/runtimeMonitored.ts&#45;&gt;src/options.ts -->
<g id="edge46" class="edge">
<title>src/runtimeMonitored.ts&#45;&gt;src/options.ts</title>
<path fill="none" stroke="#000000" stroke-width="2" stroke-opacity="0.200000" d="M133.3622,-276.8333C137.5016,-252.4606 152.3052,-185.7539 194,-154 229.5168,-126.9511 251.2313,-152.7627 293,-137 299.3472,-134.6047 299.4723,-130.8476 306,-129 383.3602,-107.1038 417.0992,-100.4095 486.5,-141 510.5706,-155.0782 527.5336,-183.9822 536.1021,-201.5102"/>
<polygon fill="#000000" fill-opacity="0.200000" stroke="#000000" stroke-width="2" stroke-opacity="0.200000" points="534.224,-202.4511 538.6843,-206.9805 538.0221,-200.6582 534.224,-202.4511"/>
</g>
<!-- src/runtimeMonitored.ts&#45;&gt;src/MailboxProcessor.ts -->
<g id="edge44" class="edge">
<title>src/runtimeMonitored.ts&#45;&gt;src/MailboxProcessor.ts</title>
<path fill="none" stroke="#000000" stroke-width="2" stroke-opacity="0.200000" d="M135.2975,-276.9457C142.7638,-257.6635 162.7781,-212.2495 194,-187 196.9396,-184.6227 200.2208,-182.5438 203.6565,-180.7289"/>
<polygon fill="#000000" fill-opacity="0.200000" stroke="#000000" stroke-width="2" stroke-opacity="0.200000" points="204.6555,-182.5789 209.1559,-178.0893 202.838,-178.7924 204.6555,-182.5789"/>
</g>
<!-- src/runtimeMonitored.ts&#45;&gt;src/logger.ts -->
<g id="edge42" class="edge">
<title>src/runtimeMonitored.ts&#45;&gt;src/logger.ts</title>
<path fill="none" stroke="#000000" stroke-width="2" stroke-opacity="0.200000" d="M135.7693,-295.2115C143.7193,-313.4755 163.9781,-354.3761 194,-376 252.553,-418.1741 277.8397,-421 350,-421 350,-421 350,-421 542.5,-421 610.7388,-421 671.8971,-354.2228 695.583,-324.7265"/>
<polygon fill="#000000" fill-opacity="0.200000" stroke="#000000" stroke-width="2" stroke-opacity="0.200000" points="697.2431,-326.0127 699.3116,-320.0018 693.9461,-323.4108 697.2431,-326.0127"/>
</g>
<!-- src/runtimeMonitored.ts&#45;&gt;src/SandboxStatus.ts -->
<g id="edge50" class="edge">
<title>src/runtimeMonitored.ts&#45;&gt;src/SandboxStatus.ts</title>
<path fill="none" stroke="#000000" stroke-width="2" stroke-opacity="0.200000" d="M146.3609,-295.1062C176.3916,-312.8722 246.8599,-347.756 293,-316 306.3267,-306.8279 294.3527,-293.2281 306,-282 306.8716,-281.1598 307.792,-280.3666 308.7527,-279.6177"/>
<polygon fill="#000000" fill-opacity="0.200000" stroke="#000000" stroke-width="2" stroke-opacity="0.200000" points="310.0153,-281.3002 313.8507,-276.2307 307.691,-277.8019 310.0153,-281.3002"/>
</g>
<!-- src/runtimeMonitored.ts&#45;&gt;src/NodeManager.ts -->
<g id="edge45" class="edge">
<title>src/runtimeMonitored.ts&#45;&gt;src/NodeManager.ts</title>
<path fill="none" stroke="#000000" stroke-width="2" stroke-opacity="0.200000" d="M143.8374,-276.9452C155.9506,-267.9807 175.5591,-254.2868 194,-245 198.8582,-242.5534 204.1312,-240.272 209.364,-238.211"/>
<polygon fill="#000000" fill-opacity="0.200000" stroke="#000000" stroke-width="2" stroke-opacity="0.200000" points="210.1445,-240.161 215.0049,-236.0638 208.6503,-236.2358 210.1445,-240.161"/>
</g>
<!-- src/runtimeMonitored.ts&#45;&gt;src/RtClosure.ts -->
<g id="edge49" class="edge">
<title>src/runtimeMonitored.ts&#45;&gt;src/RtClosure.ts</title>
<path fill="none" stroke="#000000" stroke-width="2" stroke-opacity="0.200000" d="M181.2301,-292.6229C188.7959,-293.6407 196.524,-294.6804 203.8469,-295.6655"/>
<polygon fill="#000000" fill-opacity="0.200000" stroke="#000000" stroke-width="2" stroke-opacity="0.200000" points="203.6639,-297.7597 209.8904,-296.4785 204.224,-293.5972 203.6639,-297.7597"/>
</g>
<!-- src/runtimeMonitored.ts&#45;&gt;src/Scheduler.ts -->
<g id="edge51" class="edge">
<title>src/runtimeMonitored.ts&#45;&gt;src/Scheduler.ts</title>
<path fill="none" stroke="#000000" stroke-width="2" stroke-opacity="0.200000" d="M181.2301,-279.3771C188.4659,-278.4037 195.8502,-277.4103 202.8865,-276.4637"/>
<polygon fill="#000000" fill-opacity="0.200000" stroke="#000000" stroke-width="2" stroke-opacity="0.200000" points="203.5699,-278.4908 209.2363,-275.6095 203.0099,-274.3283 203.5699,-278.4908"/>
</g>
<!-- src/runtimeMonitored.ts&#45;&gt;src/process.ts -->
<g id="edge48" class="edge">
<title>src/runtimeMonitored.ts&#45;&gt;src/process.ts</title>
<path fill="none" stroke="#000000" stroke-width="2" stroke-opacity="0.200000" d="M147.2533,-276.96C159.4815,-270.1279 177.2987,-261.0854 194,-256 236.5108,-243.0558 255.5268,-265.8846 293,-242 301.9401,-236.3018 297.5019,-228.3385 306,-222 308.7136,-219.976 311.7389,-218.2658 314.8976,-216.8209"/>
<polygon fill="#000000" fill-opacity="0.200000" stroke="#000000" stroke-width="2" stroke-opacity="0.200000" points="315.903,-218.6802 320.6888,-214.4962 314.3383,-214.7825 315.903,-218.6802"/>
</g>
<!-- src/runtimeMonitored.ts&#45;&gt;src/ThreadError.ts -->
<g id="edge53" class="edge">
<title>src/runtimeMonitored.ts&#45;&gt;src/ThreadError.ts</title>
<path fill="none" stroke="#000000" stroke-width="2" stroke-opacity="0.200000" d="M139.1638,-295.1747C149.9086,-308.4536 171.365,-333.1682 194,-349 238.8202,-380.349 252.548,-388.403 306,-400 344.2219,-408.2927 358.3938,-416.1827 394,-400 413.8878,-390.9611 429.098,-370.0274 437.668,-355.6904"/>
<polygon fill="#000000" fill-opacity="0.200000" stroke="#000000" stroke-width="2" stroke-opacity="0.200000" points="439.5552,-356.6213 440.7253,-350.373 435.9141,-354.5278 439.5552,-356.6213"/>
</g>
<!-- src/runtimeMonitored.ts&#45;&gt;src/UnitBase.ts -->
<g id="edge54" class="edge">
<title>src/runtimeMonitored.ts&#45;&gt;src/UnitBase.ts</title>
<path fill="none" stroke="#000000" stroke-width="2" stroke-opacity="0.200000" d="M144.3571,-295.0894C156.5484,-303.7831 175.9304,-316.8832 194,-326 234.0341,-346.1987 282.7189,-363.5502 314.9384,-374.1078"/>
<polygon fill="#000000" fill-opacity="0.200000" stroke="#000000" stroke-width="2" stroke-opacity="0.200000" points="314.4017,-376.1414 320.7571,-375.9992 315.7002,-372.1471 314.4017,-376.1414"/>
</g>
<!-- src/runtimeMonitored.ts&#45;&gt;src/ValuesUtil.ts -->
<g id="edge55" class="edge">
<title>src/runtimeMonitored.ts&#45;&gt;src/ValuesUtil.ts</title>
<path fill="none" stroke="#000000" stroke-width="2" stroke-opacity="0.200000" d="M132.9525,-295.0987C137.4733,-336.6038 158.0553,-507.5629 194,-545 196.8259,-547.9433 200.2198,-550.2819 203.8889,-552.1379"/>
<polygon fill="#000000" fill-opacity="0.200000" stroke="#000000" stroke-width="2" stroke-opacity="0.200000" points="203.0861,-554.0787 209.4273,-554.5262 204.7493,-550.222 203.0861,-554.0787"/>
</g>
<!-- src/runtimeMonitored.ts&#45;&gt;src/loadLibs.js -->
<g id="edge41" class="edge">
<title>src/runtimeMonitored.ts&#45;&gt;src/loadLibs.js</title>
<path fill="none" stroke="#000000" stroke-width="2" stroke-opacity="0.200000" d="M133.0138,-276.7714C136.4285,-250.0707 149.8931,-171.9174 194,-129 197.7684,-125.3332 202.3412,-122.4055 207.167,-120.0699"/>
<polygon fill="#000000" fill-opacity="0.200000" stroke="#000000" stroke-width="2" stroke-opacity="0.200000" points="208.2371,-121.8955 212.9151,-117.5913 206.574,-118.0387 208.2371,-121.8955"/>
</g>
<!-- src/runtimeMonitored.ts&#45;&gt;src/p2p/p2p.js -->
<g id="edge47" class="edge">
<title>src/runtimeMonitored.ts&#45;&gt;src/p2p/p2p.js</title>
<path fill="none" stroke="#000000" stroke-width="2" stroke-opacity="0.200000" d="M133.6116,-295.3504C140.0487,-331.6856 164.977,-462.9222 194,-492 198.4722,-496.4807 204.2353,-499.6311 210.2391,-501.8441"/>
<polygon fill="#000000" fill-opacity="0.200000" stroke="#000000" stroke-width="2" stroke-opacity="0.200000" points="209.9302,-503.949 216.2842,-503.7592 211.1986,-499.9451 209.9302,-503.949"/>
</g>
<!-- src/runtimeMonitored.ts&#45;&gt;util -->
<g id="edge60" class="edge">
<title>src/runtimeMonitored.ts&#45;&gt;util</title>
<path fill="none" stroke="#000000" stroke-dasharray="5,2" stroke-opacity="0.200000" d="M132.6858,-295.2023C137.1546,-354.0077 162.9218,-675.6564 194,-705 226.5212,-735.7061 281.6528,-732.7334 316.9139,-726.684"/>
<polygon fill="#000000" fill-opacity="0.200000" stroke="#000000" stroke-opacity="0.200000" points="317.2983,-728.7486 322.8259,-725.6091 316.547,-724.6163 317.2983,-728.7486"/>
</g>
<!-- src/serialize.js -->
<g id="node38" class="node">
<title>src/serialize.js</title>
<g id="a_node38"><a xlink:href="src/serialize.js" xlink:title="serialize.js">
<path fill="#ffffcc" stroke="#000000" d="M267.5,-598C267.5,-598 219.5,-598 219.5,-598 216.5,-598 213.5,-595 213.5,-592 213.5,-592 213.5,-586 213.5,-586 213.5,-583 216.5,-580 219.5,-580 219.5,-580 267.5,-580 267.5,-580 270.5,-580 273.5,-583 273.5,-586 273.5,-586 273.5,-592 273.5,-592 273.5,-595 270.5,-598 267.5,-598"/>
<text text-anchor="middle" x="243.5" y="-586.8" font-family="Helvetica,sans-Serif" font-size="9.00" fill="#000000">serialize.js</text>
</a>
</g>
</g>
<!-- src/runtimeMonitored.ts&#45;&gt;src/serialize.js -->
<g id="edge52" class="edge">
<title>src/runtimeMonitored.ts&#45;&gt;src/serialize.js</title>
<path fill="none" stroke="#000000" stroke-width="2" stroke-opacity="0.200000" d="M132.7417,-295.1869C136.5033,-339.5813 154.8467,-531.4887 194,-574 197.7527,-578.0745 202.571,-581.0564 207.7235,-583.2355"/>
<polygon fill="#000000" fill-opacity="0.200000" stroke="#000000" stroke-width="2" stroke-opacity="0.200000" points="207.0547,-585.2267 213.4112,-585.2989 208.487,-581.2785 207.0547,-585.2267"/>
</g>
<!-- src/serialize.js&#45;&gt;assert -->
<g id="edge61" class="edge">
<title>src/serialize.js&#45;&gt;assert</title>
<path fill="none" stroke="#000000" stroke-dasharray="5,2" stroke-opacity="0.200000" d="M259.9679,-598.2222C270.5466,-604.8259 283.9512,-614.5529 293,-626 302.0114,-637.3998 296.4767,-645.0242 306,-656 311.0476,-661.8175 317.6647,-666.7719 324.2287,-670.787"/>
<polygon fill="#000000" fill-opacity="0.200000" stroke="#000000" stroke-opacity="0.200000" points="323.4473,-672.7604 329.6944,-673.9371 325.5446,-669.1215 323.4473,-672.7604"/>
</g>
<!-- src/serialize.js&#45;&gt;child_process -->
<g id="edge62" class="edge">
<title>src/serialize.js&#45;&gt;child_process</title>
<path fill="none" stroke="#000000" stroke-dasharray="5,2" stroke-opacity="0.200000" d="M262.0509,-598.0577C279.6577,-606.6544 306.2288,-619.6281 325.5566,-629.0652"/>
<polygon fill="#000000" fill-opacity="0.200000" stroke="#000000" stroke-opacity="0.200000" points="324.9913,-631.1261 331.3044,-631.8716 326.8341,-627.3519 324.9913,-631.1261"/>
</g>
<!-- src/troupe.ts -->
<g id="node39" class="node">
<title>src/troupe.ts</title>
<g id="a_node39"><a xlink:href="src/troupe.ts" xlink:title="troupe.ts">
<path fill="#ddfeff" stroke="#000000" d="M64,-90C64,-90 22,-90 22,-90 19,-90 16,-87 16,-84 16,-84 16,-78 16,-78 16,-75 19,-72 22,-72 22,-72 64,-72 64,-72 67,-72 70,-75 70,-78 70,-78 70,-84 70,-84 70,-87 67,-90 64,-90"/>
<text text-anchor="middle" x="43" y="-78.8" font-family="Helvetica,sans-Serif" font-size="9.00" fill="#000000">troupe.ts</text>
</a>
</g>
</g>
<!-- src/troupe.ts&#45;&gt;fs -->
<g id="edge64" class="edge">
<title>src/troupe.ts&#45;&gt;fs</title>
<path fill="none" stroke="#000000" stroke-dasharray="5,2" stroke-opacity="0.200000" d="M66.8768,-71.9648C96.2749,-61.3661 147.9724,-44.4259 194,-38 237.5774,-31.9162 249.1348,-34.5583 293,-38 300.6469,-38.6 308.8181,-39.6461 316.5161,-40.8178"/>
<polygon fill="#000000" fill-opacity="0.200000" stroke="#000000" stroke-opacity="0.200000" points="316.5939,-42.9565 322.8493,-41.8246 317.2534,-38.8085 316.5939,-42.9565"/>
</g>
<!-- src/troupe.ts&#45;&gt;path -->
<g id="edge65" class="edge">
<title>src/troupe.ts&#45;&gt;path</title>
<path fill="none" stroke="#000000" stroke-dasharray="5,2" stroke-opacity="0.200000" d="M48.5024,-71.9722C55.2468,-61.7978 67.6886,-45.6789 83,-38 159.6975,.4649 264.0925,-1.3847 316.7352,-5.4659"/>
<polygon fill="#000000" fill-opacity="0.200000" stroke="#000000" stroke-opacity="0.200000" points="316.7413,-7.5734 322.8932,-5.9721 317.0854,-3.3875 316.7413,-7.5734"/>
</g>
<!-- src/troupe.ts&#45;&gt;src/runtimeMonitored.ts -->
<g id="edge63" class="edge">
<title>src/troupe.ts&#45;&gt;src/runtimeMonitored.ts</title>
<path fill="none" stroke="#000000" stroke-width="2" stroke-opacity="0.200000" d="M46.9391,-90.0731C60.8903,-122.2081 108.0471,-230.8275 125.4646,-270.9465"/>
<polygon fill="#000000" fill-opacity="0.200000" stroke="#000000" stroke-width="2" stroke-opacity="0.200000" points="123.5876,-271.8964 127.9033,-276.5638 127.4401,-270.2238 123.5876,-271.8964"/>
</g>
</g>
</svg>
