<?xml version="1.0" encoding="UTF-8" standalone="no"?>
<!DOCTYPE svg PUBLIC "-//W3C//DTD SVG 1.1//EN"
 "http://www.w3.org/Graphics/SVG/1.1/DTD/svg11.dtd">
<!-- Generated by graphviz version 2.40.1 (20161225.0304)
 -->
<!-- Title: dependency&#45;cruiser output Pages: 1 -->
<svg width="510pt" height="792pt"
 viewBox="0.00 0.00 509.50 792.00" xmlns="http://www.w3.org/2000/svg" xmlns:xlink="http://www.w3.org/1999/xlink">
<g id="graph0" class="graph" transform="scale(1 1) rotate(0) translate(4 788)">
<title>dependency&#45;cruiser output</title>
<polygon fill="#ffffff" stroke="transparent" points="-4,4 -4,-788 505.5,-788 505.5,4 -4,4"/>
<g id="clust1" class="cluster">
<title>cluster_..</title>
<path fill="#ffffff" stroke="#000000" stroke-width="2" d="M327,-706C327,-706 373,-706 373,-706 379,-706 385,-712 385,-718 385,-718 385,-746 385,-746 385,-752 379,-758 373,-758 373,-758 327,-758 327,-758 321,-758 315,-752 315,-746 315,-746 315,-718 315,-718 315,-712 321,-706 327,-706"/>
<text text-anchor="middle" x="350" y="-746.8" font-family="Helvetica,sans-Serif" font-weight="bold" font-size="9.00" fill="#000000">..</text>
</g>
<g id="clust2" class="cluster">
<title>cluster_src</title>
<path fill="#ffffff" stroke="#000000" stroke-width="2" d="M20,-134C20,-134 481.5,-134 481.5,-134 487.5,-134 493.5,-140 493.5,-146 493.5,-146 493.5,-686 493.5,-686 493.5,-692 487.5,-698 481.5,-698 481.5,-698 20,-698 20,-698 14,-698 8,-692 8,-686 8,-686 8,-146 8,-146 8,-140 14,-134 20,-134"/>
<text text-anchor="middle" x="250.75" y="-686.8" font-family="Helvetica,sans-Serif" font-weight="bold" font-size="9.00" fill="#000000">src</text>
</g>
<g id="clust3" class="cluster">
<title>cluster_src/levels</title>
<path fill="#ffffff" stroke="#000000" stroke-width="2" d="M108.5,-588C108.5,-588 155.5,-588 155.5,-588 161.5,-588 167.5,-594 167.5,-600 167.5,-600 167.5,-658 167.5,-658 167.5,-664 161.5,-670 155.5,-670 155.5,-670 108.5,-670 108.5,-670 102.5,-670 96.5,-664 96.5,-658 96.5,-658 96.5,-600 96.5,-600 96.5,-594 102.5,-588 108.5,-588"/>
<text text-anchor="middle" x="132" y="-658.8" font-family="Helvetica,sans-Serif" font-weight="bold" font-size="9.00" fill="#000000">levels</text>
</g>
<g id="clust4" class="cluster">
<title>cluster_src/p2p</title>
<path fill="#ffffff" stroke="#000000" stroke-width="2" d="M220.5,-504C220.5,-504 473.5,-504 473.5,-504 479.5,-504 485.5,-510 485.5,-516 485.5,-516 485.5,-574 485.5,-574 485.5,-580 479.5,-586 473.5,-586 473.5,-586 220.5,-586 220.5,-586 214.5,-586 208.5,-580 208.5,-574 208.5,-574 208.5,-516 208.5,-516 208.5,-510 214.5,-504 220.5,-504"/>
<text text-anchor="middle" x="347" y="-574.8" font-family="Helvetica,sans-Serif" font-weight="bold" font-size="9.00" fill="#000000">p2p</text>
</g>
<!-- ../logger.js -->
<g id="node1" class="node">
<title>../logger.js</title>
<path fill="#ffffcc" stroke="#ff0000" d="M371,-732C371,-732 329,-732 329,-732 326,-732 323,-729 323,-726 323,-726 323,-720 323,-720 323,-717 326,-714 329,-714 329,-714 371,-714 371,-714 374,-714 377,-717 377,-720 377,-720 377,-726 377,-726 377,-729 374,-732 371,-732"/>
<text text-anchor="middle" x="350" y="-720.8" font-family="Helvetica,sans-Serif" font-size="9.00" fill="#ff0000">logger.js</text>
</g>
<!-- ./logger.js -->
<g id="node2" class="node">
<title>./logger.js</title>
<path fill="#ffffcc" stroke="#ff0000" d="M371,-96C371,-96 329,-96 329,-96 326,-96 323,-93 323,-90 323,-90 323,-84 323,-84 323,-81 326,-78 329,-78 329,-78 371,-78 371,-78 374,-78 377,-81 377,-84 377,-84 377,-90 377,-90 377,-93 374,-96 371,-96"/>
<text text-anchor="middle" x="350" y="-84.8" font-family="Helvetica,sans-Serif" font-size="9.00" fill="#ff0000">logger.js</text>
</g>
<!-- assert -->
<g id="node3" class="node">
<title>assert</title>
<path fill="#ffffcc" stroke="#c0c0c0" d="M371,-36C371,-36 329,-36 329,-36 326,-36 323,-33 323,-30 323,-30 323,-24 323,-24 323,-21 326,-18 329,-18 329,-18 371,-18 371,-18 374,-18 377,-21 377,-24 377,-24 377,-30 377,-30 377,-33 374,-36 371,-36"/>
<text text-anchor="middle" x="350" y="-24.8" font-family="Helvetica,sans-Serif" font-size="9.00" fill="#c0c0c0">assert</text>
</g>
<!-- child_process -->
<g id="node4" class="node">
<title>child_process</title>
<path fill="#ffffcc" stroke="#c0c0c0" d="M381,-784C381,-784 319,-784 319,-784 316,-784 313,-781 313,-778 313,-778 313,-772 313,-772 313,-769 316,-766 319,-766 319,-766 381,-766 381,-766 384,-766 387,-769 387,-772 387,-772 387,-778 387,-778 387,-781 384,-784 381,-784"/>
<text text-anchor="middle" x="350" y="-772.8" font-family="Helvetica,sans-Serif" font-size="9.00" fill="#c0c0c0">child_process</text>
</g>
<!-- fs -->
<g id="node5" class="node">
<title>fs</title>
<path fill="#ffffcc" stroke="#c0c0c0" d="M371,-66C371,-66 329,-66 329,-66 326,-66 323,-63 323,-60 323,-60 323,-54 323,-54 323,-51 326,-48 329,-48 329,-48 371,-48 371,-48 374,-48 377,-51 377,-54 377,-54 377,-60 377,-60 377,-63 374,-66 371,-66"/>
<text text-anchor="middle" x="350" y="-54.8" font-family="Helvetica,sans-Serif" font-size="9.00" fill="#c0c0c0">fs</text>
</g>
<!-- os -->
<g id="node6" class="node">
<title>os</title>
<path fill="#ffffcc" stroke="#c0c0c0" d="M264.5,-18C264.5,-18 222.5,-18 222.5,-18 219.5,-18 216.5,-15 216.5,-12 216.5,-12 216.5,-6 216.5,-6 216.5,-3 219.5,0 222.5,0 222.5,0 264.5,0 264.5,0 267.5,0 270.5,-3 270.5,-6 270.5,-6 270.5,-12 270.5,-12 270.5,-15 267.5,-18 264.5,-18"/>
<text text-anchor="middle" x="243.5" y="-6.8" font-family="Helvetica,sans-Serif" font-size="9.00" fill="#c0c0c0">os</text>
</g>
<!-- readline -->
<g id="node7" class="node">
<title>readline</title>
<path fill="#ffffcc" stroke="#c0c0c0" d="M264.5,-126C264.5,-126 222.5,-126 222.5,-126 219.5,-126 216.5,-123 216.5,-120 216.5,-120 216.5,-114 216.5,-114 216.5,-111 219.5,-108 222.5,-108 222.5,-108 264.5,-108 264.5,-108 267.5,-108 270.5,-111 270.5,-114 270.5,-114 270.5,-120 270.5,-120 270.5,-123 267.5,-126 264.5,-126"/>
<text text-anchor="middle" x="243.5" y="-114.8" font-family="Helvetica,sans-Serif" font-size="9.00" fill="#c0c0c0">readline</text>
</g>
<!-- src/Authority.ts -->
<g id="node8" class="node">
<title>src/Authority.ts</title>
<g id="a_node8"><a xlink:href="src/Authority.ts" xlink:title="Authority.ts">
<path fill="#ddfeff" stroke="#000000" d="M375,-410C375,-410 325,-410 325,-410 322,-410 319,-407 319,-404 319,-404 319,-398 319,-398 319,-395 322,-392 325,-392 325,-392 375,-392 375,-392 378,-392 381,-395 381,-398 381,-398 381,-404 381,-404 381,-407 378,-410 375,-410"/>
<text text-anchor="middle" x="350" y="-398.8" font-family="Helvetica,sans-Serif" font-size="9.00" fill="#000000">Authority.ts</text>
</a>
</g>
</g>
<!-- src/BaseFunction.ts -->
<g id="node9" class="node">
<title>src/BaseFunction.ts</title>
<g id="a_node9"><a xlink:href="src/BaseFunction.ts" xlink:title="BaseFunction.ts">
<path fill="#ddfeff" stroke="#000000" d="M385,-320C385,-320 315,-320 315,-320 312,-320 309,-317 309,-314 309,-314 309,-308 309,-308 309,-305 312,-302 315,-302 315,-302 385,-302 385,-302 388,-302 391,-305 391,-308 391,-308 391,-314 391,-314 391,-317 388,-320 385,-320"/>
<text text-anchor="middle" x="350" y="-308.8" font-family="Helvetica,sans-Serif" font-size="9.00" fill="#000000">BaseFunction.ts</text>
</a>
</g>
</g>
<!-- src/BaseKont.js -->
<g id="node10" class="node">
<title>src/BaseKont.js</title>
<g id="a_node10"><a xlink:href="src/BaseKont.js" xlink:title="BaseKont.js">
<path fill="#ffffcc" stroke="#000000" d="M376.5,-440C376.5,-440 323.5,-440 323.5,-440 320.5,-440 317.5,-437 317.5,-434 317.5,-434 317.5,-428 317.5,-428 317.5,-425 320.5,-422 323.5,-422 323.5,-422 376.5,-422 376.5,-422 379.5,-422 382.5,-425 382.5,-428 382.5,-428 382.5,-434 382.5,-434 382.5,-437 379.5,-440 376.5,-440"/>
<text text-anchor="middle" x="350" y="-428.8" font-family="Helvetica,sans-Serif" font-size="9.00" fill="#000000">BaseKont.js</text>
</a>
</g>
</g>
<!-- src/Level.ts -->
<g id="node11" class="node">
<title>src/Level.ts</title>
<g id="a_node11"><a xlink:href="src/Level.ts" xlink:title="Level.ts">
<path fill="#ddfeff" stroke="#000000" d="M264.5,-642C264.5,-642 222.5,-642 222.5,-642 219.5,-642 216.5,-639 216.5,-636 216.5,-636 216.5,-630 216.5,-630 216.5,-627 219.5,-624 222.5,-624 222.5,-624 264.5,-624 264.5,-624 267.5,-624 270.5,-627 270.5,-630 270.5,-630 270.5,-636 270.5,-636 270.5,-639 267.5,-642 264.5,-642"/>
<text text-anchor="middle" x="243.5" y="-630.8" font-family="Helvetica,sans-Serif" font-size="9.00" fill="#000000">Level.ts</text>
</a>
</g>
</g>
<!-- src/Lval.ts -->
<g id="node12" class="node">
<title>src/Lval.ts</title>
<g id="a_node12"><a xlink:href="src/Lval.ts" xlink:title="Lval.ts">
<path fill="#ddfeff" stroke="#000000" d="M465.5,-203C465.5,-203 423.5,-203 423.5,-203 420.5,-203 417.5,-200 417.5,-197 417.5,-197 417.5,-191 417.5,-191 417.5,-188 420.5,-185 423.5,-185 423.5,-185 465.5,-185 465.5,-185 468.5,-185 471.5,-188 471.5,-191 471.5,-191 471.5,-197 471.5,-197 471.5,-200 468.5,-203 465.5,-203"/>
<text text-anchor="middle" x="444.5" y="-191.8" font-family="Helvetica,sans-Serif" font-size="9.00" fill="#000000">Lval.ts</text>
</a>
</g>
</g>
<!-- src/MailboxProcessor.js -->
<g id="node13" class="node">
<title>src/MailboxProcessor.js</title>
<g id="a_node13"><a xlink:href="src/MailboxProcessor.js" xlink:title="MailboxProcessor.js">
<path fill="#ffffcc" stroke="#000000" d="M287,-306C287,-306 200,-306 200,-306 197,-306 194,-303 194,-300 194,-300 194,-294 194,-294 194,-291 197,-288 200,-288 200,-288 287,-288 287,-288 290,-288 293,-291 293,-294 293,-294 293,-300 293,-300 293,-303 290,-306 287,-306"/>
<text text-anchor="middle" x="243.5" y="-294.8" font-family="Helvetica,sans-Serif" font-size="9.00" fill="#000000">MailboxProcessor.js</text>
</a>
</g>
</g>
<!-- src/MailboxProcessor.js&#45;&gt;src/Lval.ts -->
<g id="edge2" class="edge">
<title>src/MailboxProcessor.js&#45;&gt;src/Lval.ts</title>
<path fill="none" stroke="#000000" stroke-width="2" stroke-opacity="0.200000" d="M253.273,-287.7176C264.4035,-276.6345 282.4129,-257.065 293,-237 302.715,-218.588 289.3617,-204.512 306,-192 336.361,-169.1684 381.9892,-175.2755 412.4823,-183.3008"/>
<polygon fill="#000000" fill-opacity="0.200000" stroke="#000000" stroke-width="2" stroke-opacity="0.200000" points="412.0277,-185.3538 418.3701,-184.9234 413.1437,-181.3047 412.0277,-185.3538"/>
</g>
<!-- src/logger.ts -->
<g id="node14" class="node">
<title>src/logger.ts</title>
<g id="a_node14"><a xlink:href="src/logger.ts" xlink:title="logger.ts">
<path fill="#ddfeff" stroke="#000000" d="M465.5,-272C465.5,-272 423.5,-272 423.5,-272 420.5,-272 417.5,-269 417.5,-266 417.5,-266 417.5,-260 417.5,-260 417.5,-257 420.5,-254 423.5,-254 423.5,-254 465.5,-254 465.5,-254 468.5,-254 471.5,-257 471.5,-260 471.5,-260 471.5,-266 471.5,-266 471.5,-269 468.5,-272 465.5,-272"/>
<text text-anchor="middle" x="444.5" y="-260.8" font-family="Helvetica,sans-Serif" font-size="9.00" fill="#000000">logger.ts</text>
</a>
</g>
</g>
<!-- src/MailboxProcessor.js&#45;&gt;src/logger.ts -->
<g id="edge1" class="edge">
<title>src/MailboxProcessor.js&#45;&gt;src/logger.ts</title>
<path fill="none" stroke="#000000" stroke-width="2" stroke-opacity="0.200000" d="M274.8493,-287.9518C281.1016,-285.5078 287.4467,-282.5367 293,-279 299.892,-274.6107 298.4853,-269.2085 306,-266 339.7631,-251.5846 382.5034,-253.2933 411.5117,-257.0228"/>
<polygon fill="#000000" fill-opacity="0.200000" stroke="#000000" stroke-width="2" stroke-opacity="0.200000" points="411.255,-259.1072 417.4852,-257.8442 411.8272,-254.9463 411.255,-259.1072"/>
</g>
<!-- src/options.ts -->
<g id="node15" class="node">
<title>src/options.ts</title>
<g id="a_node15"><a xlink:href="src/options.ts" xlink:title="options.ts">
<path fill="#ddfeff" stroke="#000000" d="M372,-380C372,-380 328,-380 328,-380 325,-380 322,-377 322,-374 322,-374 322,-368 322,-368 322,-365 325,-362 328,-362 328,-362 372,-362 372,-362 375,-362 378,-365 378,-368 378,-368 378,-374 378,-374 378,-377 375,-380 372,-380"/>
<text text-anchor="middle" x="350" y="-368.8" font-family="Helvetica,sans-Serif" font-size="9.00" fill="#000000">options.ts</text>
</a>
</g>
</g>
<!-- src/MailboxProcessor.js&#45;&gt;src/options.ts -->
<g id="edge3" class="edge">
<title>src/MailboxProcessor.js&#45;&gt;src/options.ts</title>
<path fill="none" stroke="#000000" stroke-width="2" stroke-opacity="0.200000" d="M251.0359,-306.2745C261.9229,-319.1187 283.2539,-342.2856 306,-356 309.175,-357.9143 312.6273,-359.6246 316.1552,-361.1424"/>
<polygon fill="#000000" fill-opacity="0.200000" stroke="#000000" stroke-width="2" stroke-opacity="0.200000" points="315.3813,-363.0946 321.7322,-363.3709 316.9397,-359.1944 315.3813,-363.0946"/>
</g>
<!-- src/process.js -->
<g id="node16" class="node">
<title>src/process.js</title>
<g id="a_node16"><a xlink:href="src/process.js" xlink:title="process.js">
<path fill="#ffffcc" stroke="#000000" d="M373,-216C373,-216 327,-216 327,-216 324,-216 321,-213 321,-210 321,-210 321,-204 321,-204 321,-201 324,-198 327,-198 327,-198 373,-198 373,-198 376,-198 379,-201 379,-204 379,-204 379,-210 379,-210 379,-213 376,-216 373,-216"/>
<text text-anchor="middle" x="350" y="-204.8" font-family="Helvetica,sans-Serif" font-size="9.00" fill="#000000">process.js</text>
</a>
</g>
</g>
<!-- src/MailboxProcessor.js&#45;&gt;src/process.js -->
<g id="edge4" class="edge">
<title>src/MailboxProcessor.js&#45;&gt;src/process.js</title>
<path fill="none" stroke="#000000" stroke-width="2" stroke-opacity="0.200000" d="M281.2183,-287.9799C285.6408,-285.6434 289.7324,-282.7021 293,-279 310.1944,-259.5189 288.6095,-241.3063 306,-222 308.6231,-219.0879 311.8343,-216.7409 315.3162,-214.8494"/>
<polygon fill="#000000" fill-opacity="0.200000" stroke="#000000" stroke-width="2" stroke-opacity="0.200000" points="316.4011,-216.6613 320.9648,-212.2361 314.6376,-212.8495 316.4011,-216.6613"/>
</g>
<!-- src/SandboxStatus.ts -->
<g id="node17" class="node">
<title>src/SandboxStatus.ts</title>
<g id="a_node17"><a xlink:href="src/SandboxStatus.ts" xlink:title="SandboxStatus.ts">
<path fill="#ddfeff" stroke="#000000" d="M388,-290C388,-290 312,-290 312,-290 309,-290 306,-287 306,-284 306,-284 306,-278 306,-278 306,-275 309,-272 312,-272 312,-272 388,-272 388,-272 391,-272 394,-275 394,-278 394,-278 394,-284 394,-284 394,-287 391,-290 388,-290"/>
<text text-anchor="middle" x="350" y="-278.8" font-family="Helvetica,sans-Serif" font-size="9.00" fill="#000000">SandboxStatus.ts</text>
</a>
</g>
</g>
<!-- src/MailboxProcessor.js&#45;&gt;src/SandboxStatus.ts -->
<g id="edge5" class="edge">
<title>src/MailboxProcessor.js&#45;&gt;src/SandboxStatus.ts</title>
<path fill="none" stroke="#000000" stroke-width="2" stroke-opacity="0.200000" d="M293.0086,-289.5621C295.2595,-289.2239 297.5193,-288.8844 299.7719,-288.546"/>
<polygon fill="#000000" fill-opacity="0.200000" stroke="#000000" stroke-width="2" stroke-opacity="0.200000" points="300.0853,-290.6226 305.7067,-287.6544 299.4613,-286.4692 300.0853,-290.6226"/>
</g>
<!-- src/Thread.ts -->
<g id="node18" class="node">
<title>src/Thread.ts</title>
<g id="a_node18"><a xlink:href="src/Thread.ts" xlink:title="Thread.ts">
<path fill="#ddfeff" stroke="#000000" d="M371.5,-246C371.5,-246 328.5,-246 328.5,-246 325.5,-246 322.5,-243 322.5,-240 322.5,-240 322.5,-234 322.5,-234 322.5,-231 325.5,-228 328.5,-228 328.5,-228 371.5,-228 371.5,-228 374.5,-228 377.5,-231 377.5,-234 377.5,-234 377.5,-240 377.5,-240 377.5,-243 374.5,-246 371.5,-246"/>
<text text-anchor="middle" x="350" y="-234.8" font-family="Helvetica,sans-Serif" font-size="9.00" fill="#000000">Thread.ts</text>
</a>
</g>
</g>
<!-- src/MailboxProcessor.js&#45;&gt;src/Thread.ts -->
<g id="edge6" class="edge">
<title>src/MailboxProcessor.js&#45;&gt;src/Thread.ts</title>
<path fill="none" stroke="#000000" stroke-width="2" stroke-opacity="0.200000" d="M278.5546,-287.9194C283.7538,-285.5713 288.7756,-282.6426 293,-279 302.1872,-271.0782 296.9712,-263.1019 306,-255 309.2096,-252.1199 312.942,-249.6656 316.85,-247.5833"/>
<polygon fill="#000000" fill-opacity="0.200000" stroke="#000000" stroke-width="2" stroke-opacity="0.200000" points="317.7681,-249.472 322.2554,-244.9693 315.9396,-245.6909 317.7681,-249.472"/>
</g>
<!-- src/Thread.ts&#45;&gt;src/Lval.ts -->
<g id="edge23" class="edge">
<title>src/Thread.ts&#45;&gt;src/Lval.ts</title>
<path fill="none" stroke="#000000" stroke-width="2" stroke-opacity="0.200000" d="M377.751,-228.3782C383.2057,-226.4495 388.8356,-224.2902 394,-222 404.3211,-217.423 415.335,-211.4538 424.4346,-206.2034"/>
<polygon fill="#000000" fill-opacity="0.200000" stroke="#000000" stroke-width="2" stroke-opacity="0.200000" points="425.712,-207.889 429.8296,-203.0459 423.5905,-204.2642 425.712,-207.889"/>
</g>
<!-- src/Thread.ts&#45;&gt;src/logger.ts -->
<g id="edge22" class="edge">
<title>src/Thread.ts&#45;&gt;src/logger.ts</title>
<path fill="none" stroke="#000000" stroke-width="2" stroke-opacity="0.200000" d="M377.5873,-244.5902C388.1596,-247.4989 400.3303,-250.8475 411.3689,-253.8846"/>
<polygon fill="#000000" fill-opacity="0.200000" stroke="#000000" stroke-width="2" stroke-opacity="0.200000" points="411.0255,-255.9681 417.3677,-255.535 412.1397,-251.9185 411.0255,-255.9681"/>
</g>
<!-- src/ThreadError.ts -->
<g id="node22" class="node">
<title>src/ThreadError.ts</title>
<g id="a_node22"><a xlink:href="src/ThreadError.ts" xlink:title="ThreadError.ts">
<path fill="#ddfeff" stroke="#000000" d="M476,-242C476,-242 413,-242 413,-242 410,-242 407,-239 407,-236 407,-236 407,-230 407,-230 407,-227 410,-224 413,-224 413,-224 476,-224 476,-224 479,-224 482,-227 482,-230 482,-230 482,-236 482,-236 482,-239 479,-242 476,-242"/>
<text text-anchor="middle" x="444.5" y="-230.8" font-family="Helvetica,sans-Serif" font-size="9.00" fill="#000000">ThreadError.ts</text>
</a>
</g>
</g>
<!-- src/Thread.ts&#45;&gt;src/ThreadError.ts -->
<g id="edge24" class="edge">
<title>src/Thread.ts&#45;&gt;src/ThreadError.ts</title>
<path fill="none" stroke="#000000" stroke-width="2" stroke-opacity="0.200000" d="M377.5873,-235.8323C384.8807,-235.5236 392.9347,-235.1827 400.853,-234.8475"/>
<polygon fill="#000000" fill-opacity="0.200000" stroke="#000000" stroke-width="2" stroke-opacity="0.200000" points="400.961,-236.9449 406.8668,-234.5929 400.7834,-232.7487 400.961,-236.9449"/>
</g>
<!-- src/NodeManager.js -->
<g id="node19" class="node">
<title>src/NodeManager.js</title>
<g id="a_node19"><a xlink:href="src/NodeManager.js" xlink:title="NodeManager.js">
<path fill="#ffffcc" stroke="#000000" d="M280,-406C280,-406 207,-406 207,-406 204,-406 201,-403 201,-400 201,-400 201,-394 201,-394 201,-391 204,-388 207,-388 207,-388 280,-388 280,-388 283,-388 286,-391 286,-394 286,-394 286,-400 286,-400 286,-403 283,-406 280,-406"/>
<text text-anchor="middle" x="243.5" y="-394.8" font-family="Helvetica,sans-Serif" font-size="9.00" fill="#000000">NodeManager.js</text>
</a>
</g>
</g>
<!-- src/RtClosure.js -->
<g id="node20" class="node">
<title>src/RtClosure.js</title>
<g id="a_node20"><a xlink:href="src/RtClosure.js" xlink:title="RtClosure.js">
<path fill="#ffffcc" stroke="#000000" d="M271,-190C271,-190 216,-190 216,-190 213,-190 210,-187 210,-184 210,-184 210,-178 210,-178 210,-175 213,-172 216,-172 216,-172 271,-172 271,-172 274,-172 277,-175 277,-178 277,-178 277,-184 277,-184 277,-187 274,-190 271,-190"/>
<text text-anchor="middle" x="243.5" y="-178.8" font-family="Helvetica,sans-Serif" font-size="9.00" fill="#000000">RtClosure.js</text>
</a>
</g>
</g>
<!-- src/Scheduler.js -->
<g id="node21" class="node">
<title>src/Scheduler.js</title>
<g id="a_node21"><a xlink:href="src/Scheduler.js" xlink:title="Scheduler.js">
<path fill="#ffffcc" stroke="#000000" d="M271.5,-466C271.5,-466 215.5,-466 215.5,-466 212.5,-466 209.5,-463 209.5,-460 209.5,-460 209.5,-454 209.5,-454 209.5,-451 212.5,-448 215.5,-448 215.5,-448 271.5,-448 271.5,-448 274.5,-448 277.5,-451 277.5,-454 277.5,-454 277.5,-460 277.5,-460 277.5,-463 274.5,-466 271.5,-466"/>
<text text-anchor="middle" x="243.5" y="-454.8" font-family="Helvetica,sans-Serif" font-size="9.00" fill="#000000">Scheduler.js</text>
</a>
</g>
</g>
<!-- src/Scheduler.js&#45;&gt;src/Authority.ts -->
<g id="edge7" class="edge">
<title>src/Scheduler.js&#45;&gt;src/Authority.ts</title>
<path fill="none" stroke="#000000" stroke-width="2" stroke-opacity="0.200000" d="M277.5962,-450.6945C283.1513,-448.5825 288.5384,-445.7632 293,-442 302.8756,-433.6702 296.2688,-424.498 306,-416 308.2378,-414.0458 310.7419,-412.3434 313.3893,-410.8609"/>
<polygon fill="#000000" fill-opacity="0.200000" stroke="#000000" stroke-width="2" stroke-opacity="0.200000" points="314.5233,-412.6438 318.9856,-408.1163 312.6739,-408.8729 314.5233,-412.6438"/>
</g>
<!-- src/Scheduler.js&#45;&gt;src/BaseFunction.ts -->
<g id="edge8" class="edge">
<title>src/Scheduler.js&#45;&gt;src/BaseFunction.ts</title>
<path fill="none" stroke="#000000" stroke-width="2" stroke-opacity="0.200000" d="M277.5532,-452.4028C283.4561,-450.1423 288.9791,-446.8315 293,-442 326.1855,-402.1242 273.5036,-366.4393 306,-326 306.455,-325.4338 306.9324,-324.8889 307.43,-324.3644"/>
<polygon fill="#000000" fill-opacity="0.200000" stroke="#000000" stroke-width="2" stroke-opacity="0.200000" points="309.1644,-325.6489 312.3979,-320.1757 306.4571,-322.4379 309.1644,-325.6489"/>
</g>
<!-- src/Scheduler.js&#45;&gt;src/BaseKont.js -->
<g id="edge9" class="edge">
<title>src/Scheduler.js&#45;&gt;src/BaseKont.js</title>
<path fill="none" stroke="#000000" stroke-width="2" stroke-opacity="0.200000" d="M277.7835,-448.6303C288.4552,-446.025 300.2959,-443.1343 311.2504,-440.46"/>
<polygon fill="#000000" fill-opacity="0.200000" stroke="#000000" stroke-width="2" stroke-opacity="0.200000" points="311.9012,-442.4629 317.232,-438.9997 310.9051,-438.3827 311.9012,-442.4629"/>
</g>
<!-- src/Scheduler.js&#45;&gt;src/Lval.ts -->
<g id="edge11" class="edge">
<title>src/Scheduler.js&#45;&gt;src/Lval.ts</title>
<path fill="none" stroke="#000000" stroke-width="2" stroke-opacity="0.200000" d="M277.8331,-456.8325C319.7344,-456.2728 386.0294,-454.0992 394,-446 411.7983,-427.9145 394.1894,-239.9033 407,-218 409.6365,-213.4921 413.4934,-209.692 417.7427,-206.54"/>
<polygon fill="#000000" fill-opacity="0.200000" stroke="#000000" stroke-width="2" stroke-opacity="0.200000" points="419.0297,-208.2061 422.8618,-203.1341 416.7032,-204.7093 419.0297,-208.2061"/>
</g>
<!-- src/Scheduler.js&#45;&gt;src/logger.ts -->
<g id="edge10" class="edge">
<title>src/Scheduler.js&#45;&gt;src/logger.ts</title>
<path fill="none" stroke="#000000" stroke-width="2" stroke-opacity="0.200000" d="M261.9992,-466.1131C292.901,-479.8798 355.4247,-501.3303 394,-471 424.7031,-446.8593 439.0335,-322.1193 443.1778,-278.2669"/>
<polygon fill="#000000" fill-opacity="0.200000" stroke="#000000" stroke-width="2" stroke-opacity="0.200000" points="445.2795,-278.3443 443.7364,-272.1775 441.097,-277.9606 445.2795,-278.3443"/>
</g>
<!-- src/Scheduler.js&#45;&gt;src/options.ts -->
<g id="edge12" class="edge">
<title>src/Scheduler.js&#45;&gt;src/options.ts</title>
<path fill="none" stroke="#000000" stroke-width="2" stroke-opacity="0.200000" d="M277.6268,-451.8256C283.3789,-449.6062 288.8274,-446.4581 293,-442 310.4599,-423.3455 288.8627,-404.9514 306,-386 308.8368,-382.8629 312.356,-380.3816 316.1594,-378.4191"/>
<polygon fill="#000000" fill-opacity="0.200000" stroke="#000000" stroke-width="2" stroke-opacity="0.200000" points="317.2422,-380.2371 321.8888,-375.899 315.5511,-376.3926 317.2422,-380.2371"/>
</g>
<!-- src/Scheduler.js&#45;&gt;src/process.js -->
<g id="edge13" class="edge">
<title>src/Scheduler.js&#45;&gt;src/process.js</title>
<path fill="none" stroke="#000000" stroke-width="2" stroke-opacity="0.200000" d="M277.504,-452.6643C283.4863,-450.3891 289.0519,-447.006 293,-442 323.3274,-403.5459 276.3368,-260.9688 306,-222 308.4961,-218.7209 311.747,-216.1531 315.3522,-214.1434"/>
<polygon fill="#000000" fill-opacity="0.200000" stroke="#000000" stroke-width="2" stroke-opacity="0.200000" points="316.2933,-216.0217 320.8413,-211.5803 314.5163,-212.2161 316.2933,-216.0217"/>
</g>
<!-- src/Scheduler.js&#45;&gt;src/SandboxStatus.ts -->
<g id="edge14" class="edge">
<title>src/Scheduler.js&#45;&gt;src/SandboxStatus.ts</title>
<path fill="none" stroke="#000000" stroke-width="2" stroke-opacity="0.200000" d="M277.6408,-452.4748C283.5365,-450.2084 289.0345,-446.877 293,-442 313.5495,-416.7273 285.8872,-321.6215 306,-296 306.4485,-295.4287 306.9199,-294.8789 307.4119,-294.3501"/>
<polygon fill="#000000" fill-opacity="0.200000" stroke="#000000" stroke-width="2" stroke-opacity="0.200000" points="309.1486,-295.6277 312.3404,-290.1301 306.4169,-292.4373 309.1486,-295.6277"/>
</g>
<!-- src/Scheduler.js&#45;&gt;src/Thread.ts -->
<g id="edge15" class="edge">
<title>src/Scheduler.js&#45;&gt;src/Thread.ts</title>
<path fill="none" stroke="#000000" stroke-width="2" stroke-opacity="0.200000" d="M277.6992,-452.522C283.5901,-450.2517 289.0713,-446.9068 293,-442 317.5115,-411.3861 286.1439,-299.8195 306,-266 310.0603,-259.0843 316.4987,-253.5046 323.2107,-249.1567"/>
<polygon fill="#000000" fill-opacity="0.200000" stroke="#000000" stroke-width="2" stroke-opacity="0.200000" points="324.2943,-250.9555 328.3618,-246.0702 322.1356,-247.3528 324.2943,-250.9555"/>
</g>
<!-- src/Scheduler.js&#45;&gt;src/ThreadError.ts -->
<g id="edge16" class="edge">
<title>src/Scheduler.js&#45;&gt;src/ThreadError.ts</title>
<path fill="none" stroke="#000000" stroke-width="2" stroke-opacity="0.200000" d="M277.5627,-462.1492C316.7588,-467.2185 377.8156,-472.209 394,-457 427.9106,-425.1331 379.7275,-285.7047 407,-248 407.411,-247.4319 407.847,-246.8852 408.3056,-246.3592"/>
<polygon fill="#000000" fill-opacity="0.200000" stroke="#000000" stroke-width="2" stroke-opacity="0.200000" points="409.915,-247.7362 412.9712,-242.1621 407.106,-244.6137 409.915,-247.7362"/>
</g>
<!-- src/UnitBase.js -->
<g id="node23" class="node">
<title>src/UnitBase.js</title>
<g id="a_node23"><a xlink:href="src/UnitBase.js" xlink:title="UnitBase.js">
<path fill="#ffffcc" stroke="#000000" d="M375.5,-350C375.5,-350 324.5,-350 324.5,-350 321.5,-350 318.5,-347 318.5,-344 318.5,-344 318.5,-338 318.5,-338 318.5,-335 321.5,-332 324.5,-332 324.5,-332 375.5,-332 375.5,-332 378.5,-332 381.5,-335 381.5,-338 381.5,-338 381.5,-344 381.5,-344 381.5,-347 378.5,-350 375.5,-350"/>
<text text-anchor="middle" x="350" y="-338.8" font-family="Helvetica,sans-Serif" font-size="9.00" fill="#000000">UnitBase.js</text>
</a>
</g>
</g>
<!-- src/Scheduler.js&#45;&gt;src/UnitBase.js -->
<g id="edge17" class="edge">
<title>src/Scheduler.js&#45;&gt;src/UnitBase.js</title>
<path fill="none" stroke="#000000" stroke-width="2" stroke-opacity="0.200000" d="M277.6606,-452.182C283.481,-449.9349 288.9458,-446.6855 293,-442 318.294,-412.7676 281.2113,-385.6621 306,-356 307.9666,-353.6467 310.3189,-351.6616 312.899,-349.9872"/>
<polygon fill="#000000" fill-opacity="0.200000" stroke="#000000" stroke-width="2" stroke-opacity="0.200000" points="314.1917,-351.675 318.4643,-346.9681 312.189,-347.9832 314.1917,-351.675"/>
</g>
<!-- src/StackCallItem.ts -->
<g id="node24" class="node">
<title>src/StackCallItem.ts</title>
<g id="a_node24"><a xlink:href="src/StackCallItem.ts" xlink:title="StackCallItem.ts">
<path fill="#ddfeff" stroke="#000000" d="M278.5,-612C278.5,-612 208.5,-612 208.5,-612 205.5,-612 202.5,-609 202.5,-606 202.5,-606 202.5,-600 202.5,-600 202.5,-597 205.5,-594 208.5,-594 208.5,-594 278.5,-594 278.5,-594 281.5,-594 284.5,-597 284.5,-600 284.5,-600 284.5,-606 284.5,-606 284.5,-609 281.5,-612 278.5,-612"/>
<text text-anchor="middle" x="243.5" y="-600.8" font-family="Helvetica,sans-Serif" font-size="9.00" fill="#000000">StackCallItem.ts</text>
</a>
</g>
</g>
<!-- src/StackCallItem.ts&#45;&gt;src/options.ts -->
<g id="edge18" class="edge">
<title>src/StackCallItem.ts&#45;&gt;src/options.ts</title>
<path fill="none" stroke="#000000" stroke-width="2" stroke-opacity="0.200000" d="M284.9573,-595.8533C288.003,-594.0309 290.755,-591.7787 293,-589 321.4082,-553.8385 278.5321,-421.9009 306,-386 308.6972,-382.4747 312.2665,-379.7718 316.2085,-377.7006"/>
<polygon fill="#000000" fill-opacity="0.200000" stroke="#000000" stroke-width="2" stroke-opacity="0.200000" points="317.1249,-379.5917 321.7681,-375.25 315.4308,-375.7485 317.1249,-379.5917"/>
</g>
<!-- src/StackItem.ts -->
<g id="node25" class="node">
<title>src/StackItem.ts</title>
<g id="a_node25"><a xlink:href="src/StackItem.ts" xlink:title="StackItem.ts">
<path fill="#ddfeff" stroke="#000000" d="M376.5,-642C376.5,-642 323.5,-642 323.5,-642 320.5,-642 317.5,-639 317.5,-636 317.5,-636 317.5,-630 317.5,-630 317.5,-627 320.5,-624 323.5,-624 323.5,-624 376.5,-624 376.5,-624 379.5,-624 382.5,-627 382.5,-630 382.5,-630 382.5,-636 382.5,-636 382.5,-639 379.5,-642 376.5,-642"/>
<text text-anchor="middle" x="350" y="-630.8" font-family="Helvetica,sans-Serif" font-size="9.00" fill="#000000">StackItem.ts</text>
</a>
</g>
</g>
<!-- src/StackCallItem.ts&#45;&gt;src/StackItem.ts -->
<g id="edge19" class="edge">
<title>src/StackCallItem.ts&#45;&gt;src/StackItem.ts</title>
<path fill="none" stroke="#000000" stroke-width="2" stroke-opacity="0.200000" d="M275.4535,-612.001C286.8277,-615.205 299.754,-618.8462 311.6115,-622.1863"/>
<polygon fill="#000000" fill-opacity="0.200000" stroke="#000000" stroke-width="2" stroke-opacity="0.200000" points="311.3563,-624.2961 317.7009,-623.9017 312.4951,-620.2534 311.3563,-624.2961"/>
</g>
<!-- src/StackGuardItem.ts -->
<g id="node26" class="node">
<title>src/StackGuardItem.ts</title>
<g id="a_node26"><a xlink:href="src/StackGuardItem.ts" xlink:title="StackGuardItem.ts">
<path fill="#ddfeff" stroke="#000000" d="M283,-672C283,-672 204,-672 204,-672 201,-672 198,-669 198,-666 198,-666 198,-660 198,-660 198,-657 201,-654 204,-654 204,-654 283,-654 283,-654 286,-654 289,-657 289,-660 289,-660 289,-666 289,-666 289,-669 286,-672 283,-672"/>
<text text-anchor="middle" x="243.5" y="-660.8" font-family="Helvetica,sans-Serif" font-size="9.00" fill="#000000">StackGuardItem.ts</text>
</a>
</g>
</g>
<!-- src/StackGuardItem.ts&#45;&gt;src/StackItem.ts -->
<g id="edge20" class="edge">
<title>src/StackGuardItem.ts&#45;&gt;src/StackItem.ts</title>
<path fill="none" stroke="#000000" stroke-width="2" stroke-opacity="0.200000" d="M275.4535,-653.999C286.8277,-650.795 299.754,-647.1538 311.6115,-643.8137"/>
<polygon fill="#000000" fill-opacity="0.200000" stroke="#000000" stroke-width="2" stroke-opacity="0.200000" points="312.4951,-645.7466 317.7009,-642.0983 311.3563,-641.7039 312.4951,-645.7466"/>
</g>
<!-- src/StackThread.ts -->
<g id="node27" class="node">
<title>src/StackThread.ts</title>
<g id="a_node27"><a xlink:href="src/StackThread.ts" xlink:title="StackThread.ts">
<path fill="#ddfeff" stroke="#000000" d="M164.5,-580C164.5,-580 99.5,-580 99.5,-580 96.5,-580 93.5,-577 93.5,-574 93.5,-574 93.5,-568 93.5,-568 93.5,-565 96.5,-562 99.5,-562 99.5,-562 164.5,-562 164.5,-562 167.5,-562 170.5,-565 170.5,-568 170.5,-568 170.5,-574 170.5,-574 170.5,-577 167.5,-580 164.5,-580"/>
<text text-anchor="middle" x="132" y="-568.8" font-family="Helvetica,sans-Serif" font-size="9.00" fill="#000000">StackThread.ts</text>
</a>
</g>
</g>
<!-- src/StackThread.ts&#45;&gt;src/StackCallItem.ts -->
<g id="edge21" class="edge">
<title>src/StackThread.ts&#45;&gt;src/StackCallItem.ts</title>
<path fill="none" stroke="#000000" stroke-width="2" stroke-opacity="0.200000" d="M163.9203,-580.0192C169.6142,-581.6568 175.4867,-583.3644 181,-585 186.7954,-586.7193 188.2023,-587.2884 194,-589 197.6537,-590.0786 201.4641,-591.1865 205.2776,-592.2839"/>
<polygon fill="#000000" fill-opacity="0.200000" stroke="#000000" stroke-width="2" stroke-opacity="0.200000" points="204.9043,-594.3614 211.2506,-593.9942 206.0604,-590.3236 204.9043,-594.3614"/>
</g>
<!-- src/ValuesUtil.js -->
<g id="node28" class="node">
<title>src/ValuesUtil.js</title>
<g id="a_node28"><a xlink:href="src/ValuesUtil.js" xlink:title="ValuesUtil.js">
<path fill="#ffffcc" stroke="#000000" d="M271.5,-436C271.5,-436 215.5,-436 215.5,-436 212.5,-436 209.5,-433 209.5,-430 209.5,-430 209.5,-424 209.5,-424 209.5,-421 212.5,-418 215.5,-418 215.5,-418 271.5,-418 271.5,-418 274.5,-418 277.5,-421 277.5,-424 277.5,-424 277.5,-430 277.5,-430 277.5,-433 274.5,-436 271.5,-436"/>
<text text-anchor="middle" x="243.5" y="-424.8" font-family="Helvetica,sans-Serif" font-size="9.00" fill="#000000">ValuesUtil.js</text>
</a>
</g>
</g>
<!-- src/levels/lohi.js -->
<g id="node29" class="node">
<title>src/levels/lohi.js</title>
<g id="a_node29"><a xlink:href="src/levels/lohi.js" xlink:title="lohi.js">
<path fill="#ffffcc" stroke="#000000" d="M153,-644C153,-644 111,-644 111,-644 108,-644 105,-641 105,-638 105,-638 105,-632 105,-632 105,-629 108,-626 111,-626 111,-626 153,-626 153,-626 156,-626 159,-629 159,-632 159,-632 159,-638 159,-638 159,-641 156,-644 153,-644"/>
<text text-anchor="middle" x="132" y="-632.8" font-family="Helvetica,sans-Serif" font-size="9.00" fill="#000000">lohi.js</text>
</a>
</g>
</g>
<!-- src/levels/lohi.js&#45;&gt;src/Level.ts -->
<g id="edge25" class="edge">
<title>src/levels/lohi.js&#45;&gt;src/Level.ts</title>
<path fill="none" stroke="#000000" stroke-width="2" stroke-opacity="0.200000" d="M159.276,-634.5107C174.5295,-634.2371 193.6705,-633.8938 209.849,-633.6036"/>
<polygon fill="#000000" fill-opacity="0.200000" stroke="#000000" stroke-width="2" stroke-opacity="0.200000" points="210.1578,-635.6985 216.1192,-633.4911 210.0825,-631.4992 210.1578,-635.6985"/>
</g>
<!-- src/levels/tagsets.ts -->
<g id="node30" class="node">
<title>src/levels/tagsets.ts</title>
<g id="a_node30"><a xlink:href="src/levels/tagsets.ts" xlink:title="tagsets.ts">
<path fill="#ddfeff" stroke="#000000" d="M153.5,-614C153.5,-614 110.5,-614 110.5,-614 107.5,-614 104.5,-611 104.5,-608 104.5,-608 104.5,-602 104.5,-602 104.5,-599 107.5,-596 110.5,-596 110.5,-596 153.5,-596 153.5,-596 156.5,-596 159.5,-599 159.5,-602 159.5,-602 159.5,-608 159.5,-608 159.5,-611 156.5,-614 153.5,-614"/>
<text text-anchor="middle" x="132" y="-602.8" font-family="Helvetica,sans-Serif" font-size="9.00" fill="#000000">tagsets.ts</text>
</a>
</g>
</g>
<!-- src/levels/tagsets.ts&#45;&gt;src/Level.ts -->
<g id="edge26" class="edge">
<title>src/levels/tagsets.ts&#45;&gt;src/Level.ts</title>
<path fill="none" stroke="#000000" stroke-width="2" stroke-opacity="0.200000" d="M159.5618,-611.9214C174.8195,-615.7529 193.8997,-620.5443 210.0117,-624.5904"/>
<polygon fill="#000000" fill-opacity="0.200000" stroke="#000000" stroke-width="2" stroke-opacity="0.200000" points="209.9244,-626.7336 216.2552,-626.1583 210.9474,-622.6601 209.9244,-626.7336"/>
</g>
<!-- src/levels/tagsets.ts&#45;&gt;src/logger.ts -->
<g id="edge27" class="edge">
<title>src/levels/tagsets.ts&#45;&gt;src/logger.ts</title>
<path fill="none" stroke="#000000" stroke-width="2" stroke-opacity="0.200000" d="M159.6843,-603.3407C167.6082,-601.5058 175.5618,-598.1175 181,-592 208.1438,-561.4656 164.4377,-529.1994 194,-501 226.3043,-470.185 360.4195,-511.4191 394,-482 424.9865,-454.8534 439.2135,-323.4896 443.2467,-278.3042"/>
<polygon fill="#000000" fill-opacity="0.200000" stroke="#000000" stroke-width="2" stroke-opacity="0.200000" points="445.3626,-278.2114 443.7882,-272.0526 441.1782,-277.849 445.3626,-278.2114"/>
</g>
<!-- src/loadLibs.js -->
<g id="node31" class="node">
<title>src/loadLibs.js</title>
<g id="a_node31"><a xlink:href="src/loadLibs.js" xlink:title="loadLibs.js">
<path fill="#ffffcc" stroke="#000000" d="M268,-220C268,-220 219,-220 219,-220 216,-220 213,-217 213,-214 213,-214 213,-208 213,-208 213,-205 216,-202 219,-202 219,-202 268,-202 268,-202 271,-202 274,-205 274,-208 274,-208 274,-214 274,-214 274,-217 271,-220 268,-220"/>
<text text-anchor="middle" x="243.5" y="-208.8" font-family="Helvetica,sans-Serif" font-size="9.00" fill="#000000">loadLibs.js</text>
</a>
</g>
</g>
<!-- src/loadLibs.js&#45;&gt;./logger.js -->
<g id="edge28" class="edge">
<title>src/loadLibs.js&#45;&gt;./logger.js</title>
<path fill="none" stroke="#000000" stroke-width="2" stroke-opacity="0.200000" d="M274.1314,-207.4715C281.2535,-205.2357 288.1588,-201.6667 293,-196 320.3951,-163.9333 279.1592,-134.5321 306,-102 309.0336,-98.3232 313.0094,-95.5446 317.3313,-93.4453"/>
<polygon fill="#000000" fill-opacity="0.200000" stroke="#000000" stroke-width="2" stroke-opacity="0.200000" points="318.1975,-95.3598 322.9458,-91.1332 316.5982,-91.4762 318.1975,-95.3598"/>
</g>
<!-- src/loadLibs.js&#45;&gt;fs -->
<g id="edge29" class="edge">
<title>src/loadLibs.js&#45;&gt;fs</title>
<path fill="none" stroke="#000000" stroke-dasharray="5,2" stroke-opacity="0.200000" d="M274.0028,-207.6601C281.2147,-205.4289 288.1957,-201.815 293,-196 328.2943,-153.2808 271.4439,-115.3185 306,-72 308.9725,-68.2737 312.9155,-65.4684 317.223,-63.3574"/>
<polygon fill="#000000" fill-opacity="0.200000" stroke="#000000" stroke-opacity="0.200000" points="318.0872,-65.2726 322.8283,-61.0379 316.4812,-61.3917 318.0872,-65.2726"/>
</g>
<!-- src/p2p/libp2p&#45;bundle.js -->
<g id="node32" class="node">
<title>src/p2p/libp2p&#45;bundle.js</title>
<g id="a_node32"><a xlink:href="src/p2p/libp2p-bundle.js" xlink:title="libp2p&#45;bundle.js">
<path fill="#ffffcc" stroke="#000000" d="M385.5,-542C385.5,-542 314.5,-542 314.5,-542 311.5,-542 308.5,-539 308.5,-536 308.5,-536 308.5,-530 308.5,-530 308.5,-527 311.5,-524 314.5,-524 314.5,-524 385.5,-524 385.5,-524 388.5,-524 391.5,-527 391.5,-530 391.5,-530 391.5,-536 391.5,-536 391.5,-539 388.5,-542 385.5,-542"/>
<text text-anchor="middle" x="350" y="-530.8" font-family="Helvetica,sans-Serif" font-size="9.00" fill="#000000">libp2p&#45;bundle.js</text>
</a>
</g>
</g>
<!-- src/p2p/p2pconfig.js -->
<g id="node33" class="node">
<title>src/p2p/p2pconfig.js</title>
<g id="a_node33"><a xlink:href="src/p2p/p2pconfig.js" xlink:title="p2pconfig.js">
<path fill="#ffffcc" stroke="#000000" d="M471.5,-553C471.5,-553 417.5,-553 417.5,-553 414.5,-553 411.5,-550 411.5,-547 411.5,-547 411.5,-541 411.5,-541 411.5,-538 414.5,-535 417.5,-535 417.5,-535 471.5,-535 471.5,-535 474.5,-535 477.5,-538 477.5,-541 477.5,-541 477.5,-547 477.5,-547 477.5,-550 474.5,-553 471.5,-553"/>
<text text-anchor="middle" x="444.5" y="-541.8" font-family="Helvetica,sans-Serif" font-size="9.00" fill="#000000">p2pconfig.js</text>
</a>
</g>
</g>
<!-- src/p2p/libp2p&#45;bundle.js&#45;&gt;src/p2p/p2pconfig.js -->
<g id="edge30" class="edge">
<title>src/p2p/libp2p&#45;bundle.js&#45;&gt;src/p2p/p2pconfig.js</title>
<path fill="none" stroke="#000000" stroke-width="2" stroke-opacity="0.200000" d="M391.7242,-537.8568C396.2112,-538.3791 400.7656,-538.9092 405.2226,-539.428"/>
<polygon fill="#000000" fill-opacity="0.200000" stroke="#000000" stroke-width="2" stroke-opacity="0.200000" points="405.0218,-541.5187 411.2244,-540.1266 405.5074,-537.3469 405.0218,-541.5187"/>
</g>
<!-- src/p2p/mkid.js -->
<g id="node34" class="node">
<title>src/p2p/mkid.js</title>
<g id="a_node34"><a xlink:href="src/p2p/mkid.js" xlink:title="mkid.js">
<path fill="#ffffcc" stroke="#000000" d="M264.5,-530C264.5,-530 222.5,-530 222.5,-530 219.5,-530 216.5,-527 216.5,-524 216.5,-524 216.5,-518 216.5,-518 216.5,-515 219.5,-512 222.5,-512 222.5,-512 264.5,-512 264.5,-512 267.5,-512 270.5,-515 270.5,-518 270.5,-518 270.5,-524 270.5,-524 270.5,-527 267.5,-530 264.5,-530"/>
<text text-anchor="middle" x="243.5" y="-518.8" font-family="Helvetica,sans-Serif" font-size="9.00" fill="#000000">mkid.js</text>
</a>
</g>
</g>
<!-- src/p2p/mkid.js&#45;&gt;fs -->
<g id="edge31" class="edge">
<title>src/p2p/mkid.js&#45;&gt;fs</title>
<path fill="none" stroke="#000000" stroke-dasharray="5,2" stroke-opacity="0.200000" d="M270.598,-520.0445C279.0556,-518.3172 287.5799,-514.8149 293,-508 323.1684,-470.0682 277.2111,-110.9891 306,-72 308.8314,-68.1654 312.6984,-65.3017 316.9724,-63.1651"/>
<polygon fill="#000000" fill-opacity="0.200000" stroke="#000000" stroke-opacity="0.200000" points="317.8317,-65.0821 322.5565,-60.8292 316.2108,-61.2074 317.8317,-65.0821"/>
</g>
<!-- src/p2p/p2p.js -->
<g id="node35" class="node">
<title>src/p2p/p2p.js</title>
<g id="a_node35"><a xlink:href="src/p2p/p2p.js" xlink:title="p2p.js">
<path fill="#ffffcc" stroke="#000000" d="M264.5,-560C264.5,-560 222.5,-560 222.5,-560 219.5,-560 216.5,-557 216.5,-554 216.5,-554 216.5,-548 216.5,-548 216.5,-545 219.5,-542 222.5,-542 222.5,-542 264.5,-542 264.5,-542 267.5,-542 270.5,-545 270.5,-548 270.5,-548 270.5,-554 270.5,-554 270.5,-557 267.5,-560 264.5,-560"/>
<text text-anchor="middle" x="243.5" y="-548.8" font-family="Helvetica,sans-Serif" font-size="9.00" fill="#000000">p2p.js</text>
</a>
</g>
</g>
<!-- src/p2p/p2p.js&#45;&gt;../logger.js -->
<g id="edge32" class="edge">
<title>src/p2p/p2p.js&#45;&gt;../logger.js</title>
<path fill="none" stroke="#000000" stroke-width="2" stroke-opacity="0.200000" d="M270.6073,-552.2142C278.9613,-553.9749 287.4195,-557.432 293,-564 312.8011,-587.3051 288.7104,-675.7754 306,-701 308.9152,-705.2532 312.9027,-708.7238 317.2945,-711.5446"/>
<polygon fill="#000000" fill-opacity="0.200000" stroke="#000000" stroke-width="2" stroke-opacity="0.200000" points="316.343,-713.4194 322.5958,-714.5652 318.4224,-709.7702 316.343,-713.4194"/>
</g>
<!-- src/p2p/p2p.js&#45;&gt;src/p2p/libp2p&#45;bundle.js -->
<g id="edge33" class="edge">
<title>src/p2p/p2p.js&#45;&gt;src/p2p/libp2p&#45;bundle.js</title>
<path fill="none" stroke="#000000" stroke-width="2" stroke-opacity="0.200000" d="M270.65,-546.4113C280.3217,-544.7766 291.5195,-542.884 302.3991,-541.0452"/>
<polygon fill="#000000" fill-opacity="0.200000" stroke="#000000" stroke-width="2" stroke-opacity="0.200000" points="302.8328,-543.1018 308.399,-540.0312 302.1329,-538.9605 302.8328,-543.1018"/>
</g>
<!-- src/p2p/p2p.js&#45;&gt;src/p2p/p2pconfig.js -->
<g id="edge34" class="edge">
<title>src/p2p/p2p.js&#45;&gt;src/p2p/p2pconfig.js</title>
<path fill="none" stroke="#000000" stroke-width="2" stroke-opacity="0.200000" d="M270.705,-550.9409C300.8607,-550.7627 350.9322,-550.133 394,-548 397.6893,-547.8173 401.5273,-547.5868 405.366,-547.3293"/>
<polygon fill="#000000" fill-opacity="0.200000" stroke="#000000" stroke-width="2" stroke-opacity="0.200000" points="405.5401,-549.4223 411.3774,-546.9051 405.2445,-545.2327 405.5401,-549.4223"/>
</g>
<!-- util -->
<g id="node36" class="node">
<title>util</title>
<path fill="#ffffcc" stroke="#c0c0c0" d="M371,-126C371,-126 329,-126 329,-126 326,-126 323,-123 323,-120 323,-120 323,-114 323,-114 323,-111 326,-108 329,-108 329,-108 371,-108 371,-108 374,-108 377,-111 377,-114 377,-114 377,-120 377,-120 377,-123 374,-126 371,-126"/>
<text text-anchor="middle" x="350" y="-114.8" font-family="Helvetica,sans-Serif" font-size="9.00" fill="#c0c0c0">util</text>
</g>
<!-- src/p2p/p2p.js&#45;&gt;util -->
<g id="edge35" class="edge">
<title>src/p2p/p2p.js&#45;&gt;util</title>
<path fill="none" stroke="#000000" stroke-dasharray="5,2" stroke-opacity="0.200000" d="M270.6713,-548.8909C279.1348,-546.8172 287.6441,-542.9825 293,-536 320.4022,-500.276 278.8453,-166.9125 306,-131 308.8556,-127.2235 312.7355,-124.4443 317.0153,-122.4034"/>
<polygon fill="#000000" fill-opacity="0.200000" stroke="#000000" stroke-opacity="0.200000" points="317.7959,-124.353 322.603,-120.1935 316.2511,-120.4474 317.7959,-124.353"/>
</g>
<!-- src/runtimeMonitored.js -->
<g id="node37" class="node">
<title>src/runtimeMonitored.js</title>
<g id="a_node37"><a xlink:href="src/runtimeMonitored.js" xlink:title="runtimeMonitored.js">
<path fill="#ffffcc" stroke="#000000" d="M175,-284C175,-284 89,-284 89,-284 86,-284 83,-281 83,-278 83,-278 83,-272 83,-272 83,-269 86,-266 89,-266 89,-266 175,-266 175,-266 178,-266 181,-269 181,-272 181,-272 181,-278 181,-278 181,-281 178,-284 175,-284"/>
<text text-anchor="middle" x="132" y="-272.8" font-family="Helvetica,sans-Serif" font-size="9.00" fill="#000000">runtimeMonitored.js</text>
</a>
</g>
</g>
<!-- src/runtimeMonitored.js&#45;&gt;assert -->
<g id="edge54" class="edge">
<title>src/runtimeMonitored.js&#45;&gt;assert</title>
<path fill="none" stroke="#000000" stroke-dasharray="5,2" stroke-opacity="0.200000" d="M133.2304,-265.817C138.5405,-227.5937 160.7403,-81.7205 194,-52 211.6184,-36.2564 276.1761,-30.3805 316.5151,-28.2211"/>
<polygon fill="#000000" fill-opacity="0.200000" stroke="#000000" stroke-opacity="0.200000" points="316.8839,-30.3052 322.7704,-27.9055 316.6722,-26.1106 316.8839,-30.3052"/>
</g>
<!-- src/runtimeMonitored.js&#45;&gt;fs -->
<g id="edge55" class="edge">
<title>src/runtimeMonitored.js&#45;&gt;fs</title>
<path fill="none" stroke="#000000" stroke-dasharray="5,2" stroke-opacity="0.200000" d="M133.7397,-265.9107C140.4564,-231.7655 165.735,-111.8461 194,-87 227.7358,-57.3448 281.6853,-53.28 316.4752,-54.2476"/>
<polygon fill="#000000" fill-opacity="0.200000" stroke="#000000" stroke-opacity="0.200000" points="316.6648,-56.3561 322.7391,-54.4818 316.8217,-52.159 316.6648,-56.3561"/>
</g>
<!-- src/runtimeMonitored.js&#45;&gt;os -->
<g id="edge56" class="edge">
<title>src/runtimeMonitored.js&#45;&gt;os</title>
<path fill="none" stroke="#000000" stroke-dasharray="5,2" stroke-opacity="0.200000" d="M133.1387,-265.8051C138.3125,-225.3825 160.7971,-63.8412 194,-27 198.4527,-22.0594 204.371,-18.4732 210.5627,-15.8706"/>
<polygon fill="#000000" fill-opacity="0.200000" stroke="#000000" stroke-opacity="0.200000" points="211.396,-17.8014 216.2916,-13.7463 209.9358,-13.8634 211.396,-17.8014"/>
</g>
<!-- src/runtimeMonitored.js&#45;&gt;readline -->
<g id="edge57" class="edge">
<title>src/runtimeMonitored.js&#45;&gt;readline</title>
<path fill="none" stroke="#000000" stroke-dasharray="5,2" stroke-opacity="0.200000" d="M133.2323,-265.6479C137.108,-240.0605 151.4339,-168.3281 194,-131 198.6835,-126.8928 204.4895,-123.9845 210.4586,-121.9266"/>
<polygon fill="#000000" fill-opacity="0.200000" stroke="#000000" stroke-opacity="0.200000" points="211.2979,-123.8677 216.4466,-120.1392 210.0966,-119.8431 211.2979,-123.8677"/>
</g>
<!-- src/runtimeMonitored.js&#45;&gt;src/Authority.ts -->
<g id="edge36" class="edge">
<title>src/runtimeMonitored.js&#45;&gt;src/Authority.ts</title>
<path fill="none" stroke="#000000" stroke-width="2" stroke-opacity="0.200000" d="M136.3322,-284.2626C144.8442,-301.4085 165.4384,-338.067 194,-357 231.8254,-382.0738 249.4437,-369.2602 293,-382 297.9796,-383.4565 307.696,-386.65 317.716,-390.0106"/>
<polygon fill="#000000" fill-opacity="0.200000" stroke="#000000" stroke-width="2" stroke-opacity="0.200000" points="317.2607,-392.073 323.6172,-391.9967 318.6005,-388.0924 317.2607,-392.073"/>
</g>
<!-- src/runtimeMonitored.js&#45;&gt;src/BaseFunction.ts -->
<g id="edge37" class="edge">
<title>src/runtimeMonitored.js&#45;&gt;src/BaseFunction.ts</title>
<path fill="none" stroke="#000000" stroke-width="2" stroke-opacity="0.200000" d="M140.5751,-284.2714C151.6476,-295.488 172.1111,-313.7667 194,-321 232.411,-333.6932 278.9814,-328.2141 311.1861,-321.4217"/>
<polygon fill="#000000" fill-opacity="0.200000" stroke="#000000" stroke-width="2" stroke-opacity="0.200000" points="312.019,-323.3889 317.4289,-320.0507 311.118,-319.2866 312.019,-323.3889"/>
</g>
<!-- src/runtimeMonitored.js&#45;&gt;src/Level.ts -->
<g id="edge38" class="edge">
<title>src/runtimeMonitored.js&#45;&gt;src/Level.ts</title>
<path fill="none" stroke="#000000" stroke-width="2" stroke-opacity="0.200000" d="M133.5752,-284.0811C142.9506,-338.084 191.0944,-614.7381 194,-618 198.39,-622.9283 204.3396,-626.2632 210.5913,-628.5133"/>
<polygon fill="#000000" fill-opacity="0.200000" stroke="#000000" stroke-width="2" stroke-opacity="0.200000" points="210.0295,-630.5375 216.3815,-630.2894 211.2612,-626.5222 210.0295,-630.5375"/>
</g>
<!-- src/runtimeMonitored.js&#45;&gt;src/Lval.ts -->
<g id="edge41" class="edge">
<title>src/runtimeMonitored.js&#45;&gt;src/Lval.ts</title>
<path fill="none" stroke="#000000" stroke-width="2" stroke-opacity="0.200000" d="M144.062,-265.7008C156.0345,-256.9981 175.2592,-244.4052 194,-238 214.97,-230.8328 276.9687,-241.3006 293,-226 318.1067,-202.0376 279.4946,-171.4055 306,-149 335.8692,-123.751 357.4505,-135.0782 394,-149 410.3684,-155.2348 424.8063,-169.4805 434.0067,-180.2856"/>
<polygon fill="#000000" fill-opacity="0.200000" stroke="#000000" stroke-width="2" stroke-opacity="0.200000" points="432.4216,-181.6644 437.8534,-184.9668 435.6666,-178.9979 432.4216,-181.6644"/>
</g>
<!-- src/runtimeMonitored.js&#45;&gt;src/MailboxProcessor.js -->
<g id="edge42" class="edge">
<title>src/runtimeMonitored.js&#45;&gt;src/MailboxProcessor.js</title>
<path fill="none" stroke="#000000" stroke-width="2" stroke-opacity="0.200000" d="M177.673,-284.0117C182.3246,-284.9295 187.0729,-285.8664 191.7827,-286.7957"/>
<polygon fill="#000000" fill-opacity="0.200000" stroke="#000000" stroke-width="2" stroke-opacity="0.200000" points="191.4245,-288.8654 197.7176,-287.9667 192.2376,-284.7449 191.4245,-288.8654"/>
</g>
<!-- src/runtimeMonitored.js&#45;&gt;src/logger.ts -->
<g id="edge40" class="edge">
<title>src/runtimeMonitored.js&#45;&gt;src/logger.ts</title>
<path fill="none" stroke="#000000" stroke-width="2" stroke-opacity="0.200000" d="M181.4059,-267.8023C228.5398,-260.9108 292.4787,-251.4866 293,-251 312.6293,-232.6785 285.07,-208.8203 306,-192 336.4863,-167.4997 363.3766,-167.6713 394,-192 414.0058,-207.8936 390.3608,-228.6099 407,-248 408.504,-249.7527 410.2418,-251.3027 412.1283,-252.6731"/>
<polygon fill="#000000" fill-opacity="0.200000" stroke="#000000" stroke-width="2" stroke-opacity="0.200000" points="411.1953,-254.5639 417.4108,-255.8973 413.3834,-250.9789 411.1953,-254.5639"/>
</g>
<!-- src/runtimeMonitored.js&#45;&gt;src/options.ts -->
<g id="edge44" class="edge">
<title>src/runtimeMonitored.js&#45;&gt;src/options.ts</title>
<path fill="none" stroke="#000000" stroke-width="2" stroke-opacity="0.200000" d="M137.9868,-284.2526C147.8258,-298.6459 168.8535,-326.1778 194,-340 232.1122,-360.9491 282.3766,-367.8549 315.4144,-370.0677"/>
<polygon fill="#000000" fill-opacity="0.200000" stroke="#000000" stroke-width="2" stroke-opacity="0.200000" points="315.6683,-372.1867 321.7835,-370.4505 315.9203,-367.9943 315.6683,-372.1867"/>
</g>
<!-- src/runtimeMonitored.js&#45;&gt;src/process.js -->
<g id="edge46" class="edge">
<title>src/runtimeMonitored.js&#45;&gt;src/process.js</title>
<path fill="none" stroke="#000000" stroke-width="2" stroke-opacity="0.200000" d="M181.0583,-277.9041C221.9751,-279.2724 276.2023,-278.2976 293,-265 308.654,-252.6077 292.1313,-236.3623 306,-222 308.6489,-219.2568 311.8189,-217.0153 315.2274,-215.1836"/>
<polygon fill="#000000" fill-opacity="0.200000" stroke="#000000" stroke-width="2" stroke-opacity="0.200000" points="316.1783,-217.0576 320.7393,-212.6296 314.4124,-213.2468 316.1783,-217.0576"/>
</g>
<!-- src/runtimeMonitored.js&#45;&gt;src/SandboxStatus.ts -->
<g id="edge48" class="edge">
<title>src/runtimeMonitored.js&#45;&gt;src/SandboxStatus.ts</title>
<path fill="none" stroke="#000000" stroke-width="2" stroke-opacity="0.200000" d="M143.0208,-284.1192C154.7958,-293.2197 174.4238,-306.6027 194,-312 236.4174,-323.6947 253.2707,-330.91 293,-312 301.2731,-308.0622 298.4822,-301.2377 306,-296 307.6555,-294.8466 309.4072,-293.7754 311.2207,-292.7814"/>
<polygon fill="#000000" fill-opacity="0.200000" stroke="#000000" stroke-width="2" stroke-opacity="0.200000" points="312.3581,-294.5621 316.8115,-290.0258 310.5012,-290.7948 312.3581,-294.5621"/>
</g>
<!-- src/runtimeMonitored.js&#45;&gt;src/NodeManager.js -->
<g id="edge43" class="edge">
<title>src/runtimeMonitored.js&#45;&gt;src/NodeManager.js</title>
<path fill="none" stroke="#000000" stroke-width="2" stroke-opacity="0.200000" d="M135.058,-284.2068C142.1808,-304.2851 161.7644,-352.3411 194,-379 196.9134,-381.4094 200.1768,-383.51 203.6012,-385.3388"/>
<polygon fill="#000000" fill-opacity="0.200000" stroke="#000000" stroke-width="2" stroke-opacity="0.200000" points="202.7722,-387.2705 209.0878,-387.9941 204.6018,-383.49 202.7722,-387.2705"/>
</g>
<!-- src/runtimeMonitored.js&#45;&gt;src/RtClosure.js -->
<g id="edge47" class="edge">
<title>src/runtimeMonitored.js&#45;&gt;src/RtClosure.js</title>
<path fill="none" stroke="#000000" stroke-width="2" stroke-opacity="0.200000" d="M136.6451,-265.9428C145.5288,-249.5215 166.5125,-214.7976 194,-196 197.1618,-193.8378 200.6442,-191.9797 204.2526,-190.3844"/>
<polygon fill="#000000" fill-opacity="0.200000" stroke="#000000" stroke-width="2" stroke-opacity="0.200000" points="205.2067,-192.2647 209.9988,-188.0878 203.6479,-188.3646 205.2067,-192.2647"/>
</g>
<!-- src/runtimeMonitored.js&#45;&gt;src/Scheduler.js -->
<g id="edge49" class="edge">
<title>src/runtimeMonitored.js&#45;&gt;src/Scheduler.js</title>
<path fill="none" stroke="#000000" stroke-width="2" stroke-opacity="0.200000" d="M132.6325,-284.1233C135.0638,-312.0317 146.241,-397.0802 194,-442 196.8331,-444.6647 200.1245,-446.857 203.6379,-448.6606"/>
<polygon fill="#000000" fill-opacity="0.200000" stroke="#000000" stroke-width="2" stroke-opacity="0.200000" points="202.9727,-450.6632 209.308,-451.1869 204.682,-446.8268 202.9727,-450.6632"/>
</g>
<!-- src/runtimeMonitored.js&#45;&gt;src/ThreadError.ts -->
<g id="edge51" class="edge">
<title>src/runtimeMonitored.js&#45;&gt;src/ThreadError.ts</title>
<path fill="none" stroke="#000000" stroke-width="2" stroke-opacity="0.200000" d="M153.1744,-265.9155C164.9977,-261.1571 180.1053,-255.5894 194,-252 215.5439,-246.4346 276.9448,-252.4058 293,-237 314.8868,-215.9984 282.5975,-189.2982 306,-170 336.1749,-145.1172 362.2714,-147.1313 394,-170 408.8222,-180.6832 395.7745,-194.5842 407,-209 410.4876,-213.4787 415.0601,-217.3628 419.8082,-220.625"/>
<polygon fill="#000000" fill-opacity="0.200000" stroke="#000000" stroke-width="2" stroke-opacity="0.200000" points="418.7967,-222.4703 424.9863,-223.9193 421.0512,-218.9267 418.7967,-222.4703"/>
</g>
<!-- src/runtimeMonitored.js&#45;&gt;src/UnitBase.js -->
<g id="edge52" class="edge">
<title>src/runtimeMonitored.js&#45;&gt;src/UnitBase.js</title>
<path fill="none" stroke="#000000" stroke-width="2" stroke-opacity="0.200000" d="M139.281,-284.0596C149.8496,-296.4629 170.7369,-318.2954 194,-328 231.976,-343.8424 279.5989,-345.4927 312.1742,-344.1967"/>
<polygon fill="#000000" fill-opacity="0.200000" stroke="#000000" stroke-width="2" stroke-opacity="0.200000" points="312.586,-346.2798 318.4813,-343.9015 312.3896,-342.0844 312.586,-346.2798"/>
</g>
<!-- src/runtimeMonitored.js&#45;&gt;src/ValuesUtil.js -->
<g id="edge53" class="edge">
<title>src/runtimeMonitored.js&#45;&gt;src/ValuesUtil.js</title>
<path fill="none" stroke="#000000" stroke-width="2" stroke-opacity="0.200000" d="M133.4795,-284.2195C137.9101,-308.7845 153.3723,-376.3648 194,-412 196.8796,-414.5258 200.174,-416.6263 203.6648,-418.3731"/>
<polygon fill="#000000" fill-opacity="0.200000" stroke="#000000" stroke-width="2" stroke-opacity="0.200000" points="202.9427,-420.3495 209.2809,-420.8374 204.6303,-416.5035 202.9427,-420.3495"/>
</g>
<!-- src/runtimeMonitored.js&#45;&gt;src/loadLibs.js -->
<g id="edge39" class="edge">
<title>src/runtimeMonitored.js&#45;&gt;src/loadLibs.js</title>
<path fill="none" stroke="#000000" stroke-width="2" stroke-opacity="0.200000" d="M142.3358,-265.8496C154.154,-255.7529 174.4063,-239.5404 194,-229 198.5726,-226.5402 203.552,-224.286 208.5327,-222.2673"/>
<polygon fill="#000000" fill-opacity="0.200000" stroke="#000000" stroke-width="2" stroke-opacity="0.200000" points="209.5223,-224.1359 214.3561,-220.0074 208.0027,-220.2204 209.5223,-224.1359"/>
</g>
<!-- src/runtimeMonitored.js&#45;&gt;src/p2p/p2p.js -->
<g id="edge45" class="edge">
<title>src/runtimeMonitored.js&#45;&gt;src/p2p/p2p.js</title>
<path fill="none" stroke="#000000" stroke-width="2" stroke-opacity="0.200000" d="M132.958,-284.153C137.5035,-325.9083 158.1781,-497.9231 194,-536 198.384,-540.66 204.162,-543.8879 210.2186,-546.12"/>
<polygon fill="#000000" fill-opacity="0.200000" stroke="#000000" stroke-width="2" stroke-opacity="0.200000" points="209.9731,-548.2439 216.3266,-548.0363 211.2304,-544.2365 209.9731,-548.2439"/>
</g>
<!-- src/runtimeMonitored.js&#45;&gt;util -->
<g id="edge58" class="edge">
<title>src/runtimeMonitored.js&#45;&gt;util</title>
<path fill="none" stroke="#000000" stroke-dasharray="5,2" stroke-opacity="0.200000" d="M133.9074,-265.5654C140.8267,-232.3753 165.6924,-121.9257 194,-102 229.9802,-76.6736 249.3637,-96.3545 293,-102 300.8442,-103.0149 309.1481,-104.7844 316.9188,-106.7603"/>
<polygon fill="#000000" fill-opacity="0.200000" stroke="#000000" stroke-opacity="0.200000" points="316.4031,-108.7961 322.7408,-108.3025 317.4786,-104.7361 316.4031,-108.7961"/>
</g>
<!-- src/serialize.js -->
<g id="node38" class="node">
<title>src/serialize.js</title>
<g id="a_node38"><a xlink:href="src/serialize.js" xlink:title="serialize.js">
<path fill="#ffffcc" stroke="#000000" d="M267.5,-160C267.5,-160 219.5,-160 219.5,-160 216.5,-160 213.5,-157 213.5,-154 213.5,-154 213.5,-148 213.5,-148 213.5,-145 216.5,-142 219.5,-142 219.5,-142 267.5,-142 267.5,-142 270.5,-142 273.5,-145 273.5,-148 273.5,-148 273.5,-154 273.5,-154 273.5,-157 270.5,-160 267.5,-160"/>
<text text-anchor="middle" x="243.5" y="-148.8" font-family="Helvetica,sans-Serif" font-size="9.00" fill="#000000">serialize.js</text>
</a>
</g>
</g>
<!-- src/runtimeMonitored.js&#45;&gt;src/serialize.js -->
<g id="edge50" class="edge">
<title>src/runtimeMonitored.js&#45;&gt;src/serialize.js</title>
<path fill="none" stroke="#000000" stroke-width="2" stroke-opacity="0.200000" d="M134.621,-265.8497C141.0868,-244.9294 159.8077,-193.3085 194,-166 198.0345,-162.7778 202.7538,-160.2463 207.6469,-158.2578"/>
<polygon fill="#000000" fill-opacity="0.200000" stroke="#000000" stroke-width="2" stroke-opacity="0.200000" points="208.511,-160.1785 213.44,-156.1641 207.0834,-156.2286 208.511,-160.1785"/>
</g>
<!-- src/serialize.js&#45;&gt;assert -->
<g id="edge59" class="edge">
<title>src/serialize.js&#45;&gt;assert</title>
<path fill="none" stroke="#000000" stroke-dasharray="5,2" stroke-opacity="0.200000" d="M273.717,-145.0768C281.0201,-142.2626 288.1175,-138.114 293,-132 318.2198,-100.4193 280.1856,-73.0966 306,-42 309.0446,-38.3324 313.0264,-35.5586 317.3509,-33.4616"/>
<polygon fill="#000000" fill-opacity="0.200000" stroke="#000000" stroke-opacity="0.200000" points="318.2175,-35.3759 322.9671,-31.1509 316.6194,-31.4918 318.2175,-35.3759"/>
</g>
<!-- src/serialize.js&#45;&gt;child_process -->
<g id="edge60" class="edge">
<title>src/serialize.js&#45;&gt;child_process</title>
<path fill="none" stroke="#000000" stroke-dasharray="5,2" stroke-opacity="0.200000" d="M273.56,-153.8442C281.0473,-156.0513 288.2771,-159.777 293,-166 312.9886,-192.3372 286.1939,-734.5253 306,-761 306.6003,-761.8023 307.2468,-762.5597 307.9337,-763.2746"/>
<polygon fill="#000000" fill-opacity="0.200000" stroke="#000000" stroke-opacity="0.200000" points="307.0134,-765.2343 312.9893,-767.4021 309.6696,-761.9809 307.0134,-765.2343"/>
</g>
<!-- src/troupe.ts -->
<g id="node39" class="node">
<title>src/troupe.ts</title>
<g id="a_node39"><a xlink:href="src/troupe.ts" xlink:title="troupe.ts">
<path fill="#ddfeff" stroke="#000000" d="M64,-284C64,-284 22,-284 22,-284 19,-284 16,-281 16,-278 16,-278 16,-272 16,-272 16,-269 19,-266 22,-266 22,-266 64,-266 64,-266 67,-266 70,-269 70,-272 70,-272 70,-278 70,-278 70,-281 67,-284 64,-284"/>
<text text-anchor="middle" x="43" y="-272.8" font-family="Helvetica,sans-Serif" font-size="9.00" fill="#000000">troupe.ts</text>
</a>
</g>
</g>
<!-- src/troupe.ts&#45;&gt;src/runtimeMonitored.js -->
<g id="edge61" class="edge">
<title>src/troupe.ts&#45;&gt;src/runtimeMonitored.js</title>
<path fill="none" stroke="#000000" stroke-width="2" stroke-opacity="0.200000" d="M70.1865,-275C72.3591,-275 74.5969,-275 76.8742,-275"/>
<polygon fill="#000000" fill-opacity="0.200000" stroke="#000000" stroke-width="2" stroke-opacity="0.200000" points="76.9766,-277.1001 82.9766,-275 76.9765,-272.9001 76.9766,-277.1001"/>
</g>
</g>
</svg>
