<?xml version="1.0" encoding="UTF-8" standalone="no"?>
<!DOCTYPE svg PUBLIC "-//W3C//DTD SVG 1.1//EN"
 "http://www.w3.org/Graphics/SVG/1.1/DTD/svg11.dtd">
<!-- Generated by graphviz version 2.40.1 (20161225.0304)
 -->
<!-- Title: dependency&#45;cruiser output Pages: 1 -->
<svg width="507pt" height="711pt"
 viewBox="0.00 0.00 506.50 710.72" xmlns="http://www.w3.org/2000/svg" xmlns:xlink="http://www.w3.org/1999/xlink">
<g id="graph0" class="graph" transform="scale(1 1) rotate(0) translate(4 706.7208)">
<title>dependency&#45;cruiser output</title>
<polygon fill="#ffffff" stroke="transparent" points="-4,4 -4,-706.7208 502.5,-706.7208 502.5,4 -4,4"/>
<g id="clust1" class="cluster">
<title>cluster_src</title>
<path fill="#ffffff" stroke="#000000" stroke-width="2" d="M20,-118.7208C20,-118.7208 478.5,-118.7208 478.5,-118.7208 484.5,-118.7208 490.5,-124.7208 490.5,-130.7208 490.5,-130.7208 490.5,-664.7208 490.5,-664.7208 490.5,-670.7208 484.5,-676.7208 478.5,-676.7208 478.5,-676.7208 20,-676.7208 20,-676.7208 14,-676.7208 8,-670.7208 8,-664.7208 8,-664.7208 8,-130.7208 8,-130.7208 8,-124.7208 14,-118.7208 20,-118.7208"/>
<text text-anchor="middle" x="249.25" y="-665.5208" font-family="Helvetica,sans-Serif" font-weight="bold" font-size="9.00" fill="#000000">src</text>
</g>
<g id="clust2" class="cluster">
<title>cluster_src/levels</title>
<path fill="#ffffff" stroke="#000000" stroke-width="2" d="M108.5,-568.7208C108.5,-568.7208 155.5,-568.7208 155.5,-568.7208 161.5,-568.7208 167.5,-574.7208 167.5,-580.7208 167.5,-580.7208 167.5,-638.7208 167.5,-638.7208 167.5,-644.7208 161.5,-650.7208 155.5,-650.7208 155.5,-650.7208 108.5,-650.7208 108.5,-650.7208 102.5,-650.7208 96.5,-644.7208 96.5,-638.7208 96.5,-638.7208 96.5,-580.7208 96.5,-580.7208 96.5,-574.7208 102.5,-568.7208 108.5,-568.7208"/>
<text text-anchor="middle" x="132" y="-639.5208" font-family="Helvetica,sans-Serif" font-weight="bold" font-size="9.00" fill="#000000">levels</text>
</g>
<g id="clust3" class="cluster">
<title>cluster_src/p2p</title>
<path fill="#ffffff" stroke="#000000" stroke-width="2" d="M220.5,-132.7208C220.5,-132.7208 387.5,-132.7208 387.5,-132.7208 393.5,-132.7208 399.5,-138.7208 399.5,-144.7208 399.5,-144.7208 399.5,-202.7208 399.5,-202.7208 399.5,-208.7208 393.5,-214.7208 387.5,-214.7208 387.5,-214.7208 220.5,-214.7208 220.5,-214.7208 214.5,-214.7208 208.5,-208.7208 208.5,-202.7208 208.5,-202.7208 208.5,-144.7208 208.5,-144.7208 208.5,-138.7208 214.5,-132.7208 220.5,-132.7208"/>
<text text-anchor="middle" x="304" y="-203.5208" font-family="Helvetica,sans-Serif" font-weight="bold" font-size="9.00" fill="#000000">p2p</text>
</g>
<!-- ./p2pconfig.js -->
<g id="node1" class="node">
<title>./p2pconfig.js</title>
<path fill="#ffffcc" stroke="#ff0000" d="M472,-702.7208C472,-702.7208 418,-702.7208 418,-702.7208 415,-702.7208 412,-699.7208 412,-696.7208 412,-696.7208 412,-690.7208 412,-690.7208 412,-687.7208 415,-684.7208 418,-684.7208 418,-684.7208 472,-684.7208 472,-684.7208 475,-684.7208 478,-687.7208 478,-690.7208 478,-690.7208 478,-696.7208 478,-696.7208 478,-699.7208 475,-702.7208 472,-702.7208"/>
<text text-anchor="middle" x="445" y="-691.5208" font-family="Helvetica,sans-Serif" font-size="9.00" fill="#ff0000">p2pconfig.js</text>
</g>
<!-- assert -->
<g id="node2" class="node">
<title>assert</title>
<path fill="#ffffcc" stroke="#c0c0c0" d="M371,-80.7208C371,-80.7208 329,-80.7208 329,-80.7208 326,-80.7208 323,-77.7208 323,-74.7208 323,-74.7208 323,-68.7208 323,-68.7208 323,-65.7208 326,-62.7208 329,-62.7208 329,-62.7208 371,-62.7208 371,-62.7208 374,-62.7208 377,-65.7208 377,-68.7208 377,-68.7208 377,-74.7208 377,-74.7208 377,-77.7208 374,-80.7208 371,-80.7208"/>
<text text-anchor="middle" x="350" y="-69.5208" font-family="Helvetica,sans-Serif" font-size="9.00" fill="#c0c0c0">assert</text>
</g>
<!-- child_process -->
<g id="node3" class="node">
<title>child_process</title>
<path fill="#ffffcc" stroke="#c0c0c0" d="M381,-702.7208C381,-702.7208 319,-702.7208 319,-702.7208 316,-702.7208 313,-699.7208 313,-696.7208 313,-696.7208 313,-690.7208 313,-690.7208 313,-687.7208 316,-684.7208 319,-684.7208 319,-684.7208 381,-684.7208 381,-684.7208 384,-684.7208 387,-687.7208 387,-690.7208 387,-690.7208 387,-696.7208 387,-696.7208 387,-699.7208 384,-702.7208 381,-702.7208"/>
<text text-anchor="middle" x="350" y="-691.5208" font-family="Helvetica,sans-Serif" font-size="9.00" fill="#c0c0c0">child_process</text>
</g>
<!-- fs -->
<g id="node4" class="node">
<title>fs</title>
<path fill="#ffffcc" stroke="#c0c0c0" d="M371,-110.7208C371,-110.7208 329,-110.7208 329,-110.7208 326,-110.7208 323,-107.7208 323,-104.7208 323,-104.7208 323,-98.7208 323,-98.7208 323,-95.7208 326,-92.7208 329,-92.7208 329,-92.7208 371,-92.7208 371,-92.7208 374,-92.7208 377,-95.7208 377,-98.7208 377,-98.7208 377,-104.7208 377,-104.7208 377,-107.7208 374,-110.7208 371,-110.7208"/>
<text text-anchor="middle" x="350" y="-99.5208" font-family="Helvetica,sans-Serif" font-size="9.00" fill="#c0c0c0">fs</text>
</g>
<!-- os -->
<g id="node5" class="node">
<title>os</title>
<path fill="#ffffcc" stroke="#c0c0c0" d="M264.5,-72.7208C264.5,-72.7208 222.5,-72.7208 222.5,-72.7208 219.5,-72.7208 216.5,-69.7208 216.5,-66.7208 216.5,-66.7208 216.5,-60.7208 216.5,-60.7208 216.5,-57.7208 219.5,-54.7208 222.5,-54.7208 222.5,-54.7208 264.5,-54.7208 264.5,-54.7208 267.5,-54.7208 270.5,-57.7208 270.5,-60.7208 270.5,-60.7208 270.5,-66.7208 270.5,-66.7208 270.5,-69.7208 267.5,-72.7208 264.5,-72.7208"/>
<text text-anchor="middle" x="243.5" y="-61.5208" font-family="Helvetica,sans-Serif" font-size="9.00" fill="#c0c0c0">os</text>
</g>
<!-- readline -->
<g id="node6" class="node">
<title>readline</title>
<path fill="#ffffcc" stroke="#c0c0c0" d="M264.5,-42.7208C264.5,-42.7208 222.5,-42.7208 222.5,-42.7208 219.5,-42.7208 216.5,-39.7208 216.5,-36.7208 216.5,-36.7208 216.5,-30.7208 216.5,-30.7208 216.5,-27.7208 219.5,-24.7208 222.5,-24.7208 222.5,-24.7208 264.5,-24.7208 264.5,-24.7208 267.5,-24.7208 270.5,-27.7208 270.5,-30.7208 270.5,-30.7208 270.5,-36.7208 270.5,-36.7208 270.5,-39.7208 267.5,-42.7208 264.5,-42.7208"/>
<text text-anchor="middle" x="243.5" y="-31.5208" font-family="Helvetica,sans-Serif" font-size="9.00" fill="#c0c0c0">readline</text>
</g>
<!-- src/Authority.ts -->
<g id="node7" class="node">
<title>src/Authority.ts</title>
<g id="a_node7"><a xlink:href="src/Authority.ts" xlink:title="Authority.ts">
<path fill="#ddfeff" stroke="#000000" d="M375,-306.7208C375,-306.7208 325,-306.7208 325,-306.7208 322,-306.7208 319,-303.7208 319,-300.7208 319,-300.7208 319,-294.7208 319,-294.7208 319,-291.7208 322,-288.7208 325,-288.7208 325,-288.7208 375,-288.7208 375,-288.7208 378,-288.7208 381,-291.7208 381,-294.7208 381,-294.7208 381,-300.7208 381,-300.7208 381,-303.7208 378,-306.7208 375,-306.7208"/>
<text text-anchor="middle" x="350" y="-295.5208" font-family="Helvetica,sans-Serif" font-size="9.00" fill="#000000">Authority.ts</text>
</a>
</g>
</g>
<!-- src/BaseFunction.ts -->
<g id="node8" class="node">
<title>src/BaseFunction.ts</title>
<g id="a_node8"><a xlink:href="src/BaseFunction.ts" xlink:title="BaseFunction.ts">
<path fill="#ddfeff" stroke="#000000" d="M385,-528.7208C385,-528.7208 315,-528.7208 315,-528.7208 312,-528.7208 309,-525.7208 309,-522.7208 309,-522.7208 309,-516.7208 309,-516.7208 309,-513.7208 312,-510.7208 315,-510.7208 315,-510.7208 385,-510.7208 385,-510.7208 388,-510.7208 391,-513.7208 391,-516.7208 391,-516.7208 391,-522.7208 391,-522.7208 391,-525.7208 388,-528.7208 385,-528.7208"/>
<text text-anchor="middle" x="350" y="-517.5208" font-family="Helvetica,sans-Serif" font-size="9.00" fill="#000000">BaseFunction.ts</text>
</a>
</g>
</g>
<!-- src/BaseKont.js -->
<g id="node9" class="node">
<title>src/BaseKont.js</title>
<g id="a_node9"><a xlink:href="src/BaseKont.js" xlink:title="BaseKont.js">
<path fill="#ffffcc" stroke="#000000" d="M376.5,-470.7208C376.5,-470.7208 323.5,-470.7208 323.5,-470.7208 320.5,-470.7208 317.5,-467.7208 317.5,-464.7208 317.5,-464.7208 317.5,-458.7208 317.5,-458.7208 317.5,-455.7208 320.5,-452.7208 323.5,-452.7208 323.5,-452.7208 376.5,-452.7208 376.5,-452.7208 379.5,-452.7208 382.5,-455.7208 382.5,-458.7208 382.5,-458.7208 382.5,-464.7208 382.5,-464.7208 382.5,-467.7208 379.5,-470.7208 376.5,-470.7208"/>
<text text-anchor="middle" x="350" y="-459.5208" font-family="Helvetica,sans-Serif" font-size="9.00" fill="#000000">BaseKont.js</text>
</a>
</g>
</g>
<!-- src/Level.ts -->
<g id="node10" class="node">
<title>src/Level.ts</title>
<g id="a_node10"><a xlink:href="src/Level.ts" xlink:title="Level.ts">
<path fill="#ddfeff" stroke="#000000" d="M264.5,-606.7208C264.5,-606.7208 222.5,-606.7208 222.5,-606.7208 219.5,-606.7208 216.5,-603.7208 216.5,-600.7208 216.5,-600.7208 216.5,-594.7208 216.5,-594.7208 216.5,-591.7208 219.5,-588.7208 222.5,-588.7208 222.5,-588.7208 264.5,-588.7208 264.5,-588.7208 267.5,-588.7208 270.5,-591.7208 270.5,-594.7208 270.5,-594.7208 270.5,-600.7208 270.5,-600.7208 270.5,-603.7208 267.5,-606.7208 264.5,-606.7208"/>
<text text-anchor="middle" x="243.5" y="-595.5208" font-family="Helvetica,sans-Serif" font-size="9.00" fill="#000000">Level.ts</text>
</a>
</g>
</g>
<!-- src/Lval.ts -->
<g id="node11" class="node">
<title>src/Lval.ts</title>
<g id="a_node11"><a xlink:href="src/Lval.ts" xlink:title="Lval.ts">
<path fill="#ddfeff" stroke="#000000" d="M466,-458.7208C466,-458.7208 424,-458.7208 424,-458.7208 421,-458.7208 418,-455.7208 418,-452.7208 418,-452.7208 418,-446.7208 418,-446.7208 418,-443.7208 421,-440.7208 424,-440.7208 424,-440.7208 466,-440.7208 466,-440.7208 469,-440.7208 472,-443.7208 472,-446.7208 472,-446.7208 472,-452.7208 472,-452.7208 472,-455.7208 469,-458.7208 466,-458.7208"/>
<text text-anchor="middle" x="445" y="-447.5208" font-family="Helvetica,sans-Serif" font-size="9.00" fill="#000000">Lval.ts</text>
</a>
</g>
</g>
<!-- src/MailboxProcessor.js -->
<g id="node12" class="node">
<title>src/MailboxProcessor.js</title>
<g id="a_node12"><a xlink:href="src/MailboxProcessor.js" xlink:title="MailboxProcessor.js">
<path fill="#ffffcc" stroke="#000000" d="M287,-372.7208C287,-372.7208 200,-372.7208 200,-372.7208 197,-372.7208 194,-369.7208 194,-366.7208 194,-366.7208 194,-360.7208 194,-360.7208 194,-357.7208 197,-354.7208 200,-354.7208 200,-354.7208 287,-354.7208 287,-354.7208 290,-354.7208 293,-357.7208 293,-360.7208 293,-360.7208 293,-366.7208 293,-366.7208 293,-369.7208 290,-372.7208 287,-372.7208"/>
<text text-anchor="middle" x="243.5" y="-361.5208" font-family="Helvetica,sans-Serif" font-size="9.00" fill="#000000">MailboxProcessor.js</text>
</a>
</g>
</g>
<!-- src/MailboxProcessor.js&#45;&gt;src/Lval.ts -->
<g id="edge2" class="edge">
<title>src/MailboxProcessor.js&#45;&gt;src/Lval.ts</title>
<path fill="none" stroke="#000000" stroke-width="2" stroke-opacity="0.200000" d="M267.282,-354.6109C276.5514,-349.9569 286.4913,-343.4097 293,-334.7208 307.2822,-315.6544 287.2231,-297.3814 306,-282.7208 322.3772,-269.9339 382.9894,-270.1067 399.5,-282.7208 423.8902,-301.3548 438.3279,-396.5927 443.1658,-434.3104"/>
<polygon fill="#000000" fill-opacity="0.200000" stroke="#000000" stroke-width="2" stroke-opacity="0.200000" points="441.1304,-434.9588 443.9577,-440.6524 445.298,-434.4384 441.1304,-434.9588"/>
</g>
<!-- src/logger.ts -->
<g id="node13" class="node">
<title>src/logger.ts</title>
<g id="a_node13"><a xlink:href="src/logger.ts" xlink:title="logger.ts">
<path fill="#ddfeff" stroke="#000000" d="M466,-270.7208C466,-270.7208 424,-270.7208 424,-270.7208 421,-270.7208 418,-267.7208 418,-264.7208 418,-264.7208 418,-258.7208 418,-258.7208 418,-255.7208 421,-252.7208 424,-252.7208 424,-252.7208 466,-252.7208 466,-252.7208 469,-252.7208 472,-255.7208 472,-258.7208 472,-258.7208 472,-264.7208 472,-264.7208 472,-267.7208 469,-270.7208 466,-270.7208"/>
<text text-anchor="middle" x="445" y="-259.5208" font-family="Helvetica,sans-Serif" font-size="9.00" fill="#000000">logger.ts</text>
</a>
</g>
</g>
<!-- src/MailboxProcessor.js&#45;&gt;src/logger.ts -->
<g id="edge1" class="edge">
<title>src/MailboxProcessor.js&#45;&gt;src/logger.ts</title>
<path fill="none" stroke="#000000" stroke-width="2" stroke-opacity="0.200000" d="M267.7445,-354.6338C276.9724,-350.0112 286.7577,-343.481 293,-334.7208 310.0967,-310.728 283.7628,-289.0459 306,-269.7208 321.2206,-256.4934 375.6451,-257.1097 411.706,-259.1431"/>
<polygon fill="#000000" fill-opacity="0.200000" stroke="#000000" stroke-width="2" stroke-opacity="0.200000" points="411.6536,-261.2437 417.769,-259.5079 411.9059,-257.0513 411.6536,-261.2437"/>
</g>
<!-- src/options.ts -->
<g id="node14" class="node">
<title>src/options.ts</title>
<g id="a_node14"><a xlink:href="src/options.ts" xlink:title="options.ts">
<path fill="#ddfeff" stroke="#000000" d="M372,-336.7208C372,-336.7208 328,-336.7208 328,-336.7208 325,-336.7208 322,-333.7208 322,-330.7208 322,-330.7208 322,-324.7208 322,-324.7208 322,-321.7208 325,-318.7208 328,-318.7208 328,-318.7208 372,-318.7208 372,-318.7208 375,-318.7208 378,-321.7208 378,-324.7208 378,-324.7208 378,-330.7208 378,-330.7208 378,-333.7208 375,-336.7208 372,-336.7208"/>
<text text-anchor="middle" x="350" y="-325.5208" font-family="Helvetica,sans-Serif" font-size="9.00" fill="#000000">options.ts</text>
</a>
</g>
</g>
<!-- src/MailboxProcessor.js&#45;&gt;src/options.ts -->
<g id="edge3" class="edge">
<title>src/MailboxProcessor.js&#45;&gt;src/options.ts</title>
<path fill="none" stroke="#000000" stroke-width="2" stroke-opacity="0.200000" d="M270.3744,-354.6365C284.6271,-349.8187 302.2524,-343.8608 317.2944,-338.7762"/>
<polygon fill="#000000" fill-opacity="0.200000" stroke="#000000" stroke-width="2" stroke-opacity="0.200000" points="318.1226,-340.7131 323.1342,-336.8022 316.7776,-336.7342 318.1226,-340.7131"/>
</g>
<!-- src/process.js -->
<g id="node15" class="node">
<title>src/process.js</title>
<g id="a_node15"><a xlink:href="src/process.js" xlink:title="process.js">
<path fill="#ffffcc" stroke="#000000" d="M373,-366.7208C373,-366.7208 327,-366.7208 327,-366.7208 324,-366.7208 321,-363.7208 321,-360.7208 321,-360.7208 321,-354.7208 321,-354.7208 321,-351.7208 324,-348.7208 327,-348.7208 327,-348.7208 373,-348.7208 373,-348.7208 376,-348.7208 379,-351.7208 379,-354.7208 379,-354.7208 379,-360.7208 379,-360.7208 379,-363.7208 376,-366.7208 373,-366.7208"/>
<text text-anchor="middle" x="350" y="-355.5208" font-family="Helvetica,sans-Serif" font-size="9.00" fill="#000000">process.js</text>
</a>
</g>
</g>
<!-- src/MailboxProcessor.js&#45;&gt;src/process.js -->
<g id="edge4" class="edge">
<title>src/MailboxProcessor.js&#45;&gt;src/process.js</title>
<path fill="none" stroke="#000000" stroke-width="2" stroke-opacity="0.200000" d="M293.0086,-360.9316C300.3282,-360.5192 307.7426,-360.1015 314.6948,-359.7098"/>
<polygon fill="#000000" fill-opacity="0.200000" stroke="#000000" stroke-width="2" stroke-opacity="0.200000" points="315.0612,-361.7926 320.9336,-359.3583 314.8249,-357.5993 315.0612,-361.7926"/>
</g>
<!-- src/SandboxStatus.ts -->
<g id="node16" class="node">
<title>src/SandboxStatus.ts</title>
<g id="a_node16"><a xlink:href="src/SandboxStatus.ts" xlink:title="SandboxStatus.ts">
<path fill="#ddfeff" stroke="#000000" d="M388,-396.7208C388,-396.7208 312,-396.7208 312,-396.7208 309,-396.7208 306,-393.7208 306,-390.7208 306,-390.7208 306,-384.7208 306,-384.7208 306,-381.7208 309,-378.7208 312,-378.7208 312,-378.7208 388,-378.7208 388,-378.7208 391,-378.7208 394,-381.7208 394,-384.7208 394,-384.7208 394,-390.7208 394,-390.7208 394,-393.7208 391,-396.7208 388,-396.7208"/>
<text text-anchor="middle" x="350" y="-385.5208" font-family="Helvetica,sans-Serif" font-size="9.00" fill="#000000">SandboxStatus.ts</text>
</a>
</g>
</g>
<!-- src/MailboxProcessor.js&#45;&gt;src/SandboxStatus.ts -->
<g id="edge5" class="edge">
<title>src/MailboxProcessor.js&#45;&gt;src/SandboxStatus.ts</title>
<path fill="none" stroke="#000000" stroke-width="2" stroke-opacity="0.200000" d="M283.4597,-372.7258C290.0573,-374.2126 296.9458,-375.7649 303.6836,-377.2833"/>
<polygon fill="#000000" fill-opacity="0.200000" stroke="#000000" stroke-width="2" stroke-opacity="0.200000" points="303.5015,-379.3949 309.8164,-378.6653 304.4248,-375.2976 303.5015,-379.3949"/>
</g>
<!-- src/Thread.ts -->
<g id="node17" class="node">
<title>src/Thread.ts</title>
<g id="a_node17"><a xlink:href="src/Thread.ts" xlink:title="Thread.ts">
<path fill="#ddfeff" stroke="#000000" d="M371.5,-440.7208C371.5,-440.7208 328.5,-440.7208 328.5,-440.7208 325.5,-440.7208 322.5,-437.7208 322.5,-434.7208 322.5,-434.7208 322.5,-428.7208 322.5,-428.7208 322.5,-425.7208 325.5,-422.7208 328.5,-422.7208 328.5,-422.7208 371.5,-422.7208 371.5,-422.7208 374.5,-422.7208 377.5,-425.7208 377.5,-428.7208 377.5,-428.7208 377.5,-434.7208 377.5,-434.7208 377.5,-437.7208 374.5,-440.7208 371.5,-440.7208"/>
<text text-anchor="middle" x="350" y="-429.5208" font-family="Helvetica,sans-Serif" font-size="9.00" fill="#000000">Thread.ts</text>
</a>
</g>
</g>
<!-- src/MailboxProcessor.js&#45;&gt;src/Thread.ts -->
<g id="edge6" class="edge">
<title>src/MailboxProcessor.js&#45;&gt;src/Thread.ts</title>
<path fill="none" stroke="#000000" stroke-width="2" stroke-opacity="0.200000" d="M257.8631,-372.8916C276.6262,-384.8718 309.5525,-405.8952 330.5421,-419.297"/>
<polygon fill="#000000" fill-opacity="0.200000" stroke="#000000" stroke-width="2" stroke-opacity="0.200000" points="329.6773,-421.2363 335.8645,-422.6953 331.9375,-417.6964 329.6773,-421.2363"/>
</g>
<!-- src/Thread.ts&#45;&gt;src/Lval.ts -->
<g id="edge23" class="edge">
<title>src/Thread.ts&#45;&gt;src/Lval.ts</title>
<path fill="none" stroke="#000000" stroke-width="2" stroke-opacity="0.200000" d="M377.7333,-436.9755C388.3615,-438.9893 400.5966,-441.3075 411.6936,-443.4101"/>
<polygon fill="#000000" fill-opacity="0.200000" stroke="#000000" stroke-width="2" stroke-opacity="0.200000" points="411.438,-445.499 417.7241,-444.5527 412.22,-441.3724 411.438,-445.499"/>
</g>
<!-- src/Thread.ts&#45;&gt;src/logger.ts -->
<g id="edge22" class="edge">
<title>src/Thread.ts&#45;&gt;src/logger.ts</title>
<path fill="none" stroke="#000000" stroke-width="2" stroke-opacity="0.200000" d="M377.5495,-426.6438C385.5346,-423.9725 393.6633,-419.9058 399.5,-413.7208 418.4648,-393.6245 435.6493,-311.6726 442.1963,-277.1591"/>
<polygon fill="#000000" fill-opacity="0.200000" stroke="#000000" stroke-width="2" stroke-opacity="0.200000" points="444.324,-277.2049 443.3612,-270.9213 440.1954,-276.4338 444.324,-277.2049"/>
</g>
<!-- src/ThreadError.ts -->
<g id="node21" class="node">
<title>src/ThreadError.ts</title>
<g id="a_node21"><a xlink:href="src/ThreadError.ts" xlink:title="ThreadError.ts">
<path fill="#ddfeff" stroke="#000000" d="M476.5,-506.7208C476.5,-506.7208 413.5,-506.7208 413.5,-506.7208 410.5,-506.7208 407.5,-503.7208 407.5,-500.7208 407.5,-500.7208 407.5,-494.7208 407.5,-494.7208 407.5,-491.7208 410.5,-488.7208 413.5,-488.7208 413.5,-488.7208 476.5,-488.7208 476.5,-488.7208 479.5,-488.7208 482.5,-491.7208 482.5,-494.7208 482.5,-494.7208 482.5,-500.7208 482.5,-500.7208 482.5,-503.7208 479.5,-506.7208 476.5,-506.7208"/>
<text text-anchor="middle" x="445" y="-495.5208" font-family="Helvetica,sans-Serif" font-size="9.00" fill="#000000">ThreadError.ts</text>
</a>
</g>
</g>
<!-- src/Thread.ts&#45;&gt;src/ThreadError.ts -->
<g id="edge24" class="edge">
<title>src/Thread.ts&#45;&gt;src/ThreadError.ts</title>
<path fill="none" stroke="#000000" stroke-width="2" stroke-opacity="0.200000" d="M377.5492,-435.6411C385.3498,-437.8529 393.375,-441.3118 399.5,-446.7208 406.062,-452.5158 402.3163,-457.6659 407.5,-464.7208 412.9014,-472.0719 420.1952,-478.9534 426.9143,-484.5102"/>
<polygon fill="#000000" fill-opacity="0.200000" stroke="#000000" stroke-width="2" stroke-opacity="0.200000" points="425.8995,-486.387 431.8995,-488.487 428.5187,-483.1037 425.8995,-486.387"/>
</g>
<!-- src/NodeManager.js -->
<g id="node18" class="node">
<title>src/NodeManager.js</title>
<g id="a_node18"><a xlink:href="src/NodeManager.js" xlink:title="NodeManager.js">
<path fill="#ffffcc" stroke="#000000" d="M280,-518.7208C280,-518.7208 207,-518.7208 207,-518.7208 204,-518.7208 201,-515.7208 201,-512.7208 201,-512.7208 201,-506.7208 201,-506.7208 201,-503.7208 204,-500.7208 207,-500.7208 207,-500.7208 280,-500.7208 280,-500.7208 283,-500.7208 286,-503.7208 286,-506.7208 286,-506.7208 286,-512.7208 286,-512.7208 286,-515.7208 283,-518.7208 280,-518.7208"/>
<text text-anchor="middle" x="243.5" y="-507.5208" font-family="Helvetica,sans-Serif" font-size="9.00" fill="#000000">NodeManager.js</text>
</a>
</g>
</g>
<!-- src/RtClosure.js -->
<g id="node19" class="node">
<title>src/RtClosure.js</title>
<g id="a_node19"><a xlink:href="src/RtClosure.js" xlink:title="RtClosure.js">
<path fill="#ffffcc" stroke="#000000" d="M271,-240.7208C271,-240.7208 216,-240.7208 216,-240.7208 213,-240.7208 210,-237.7208 210,-234.7208 210,-234.7208 210,-228.7208 210,-228.7208 210,-225.7208 213,-222.7208 216,-222.7208 216,-222.7208 271,-222.7208 271,-222.7208 274,-222.7208 277,-225.7208 277,-228.7208 277,-228.7208 277,-234.7208 277,-234.7208 277,-237.7208 274,-240.7208 271,-240.7208"/>
<text text-anchor="middle" x="243.5" y="-229.5208" font-family="Helvetica,sans-Serif" font-size="9.00" fill="#000000">RtClosure.js</text>
</a>
</g>
</g>
<!-- src/Scheduler.js -->
<g id="node20" class="node">
<title>src/Scheduler.js</title>
<g id="a_node20"><a xlink:href="src/Scheduler.js" xlink:title="Scheduler.js">
<path fill="#ffffcc" stroke="#000000" d="M271.5,-430.7208C271.5,-430.7208 215.5,-430.7208 215.5,-430.7208 212.5,-430.7208 209.5,-427.7208 209.5,-424.7208 209.5,-424.7208 209.5,-418.7208 209.5,-418.7208 209.5,-415.7208 212.5,-412.7208 215.5,-412.7208 215.5,-412.7208 271.5,-412.7208 271.5,-412.7208 274.5,-412.7208 277.5,-415.7208 277.5,-418.7208 277.5,-418.7208 277.5,-424.7208 277.5,-424.7208 277.5,-427.7208 274.5,-430.7208 271.5,-430.7208"/>
<text text-anchor="middle" x="243.5" y="-419.5208" font-family="Helvetica,sans-Serif" font-size="9.00" fill="#000000">Scheduler.js</text>
</a>
</g>
</g>
<!-- src/Scheduler.js&#45;&gt;src/Authority.ts -->
<g id="edge7" class="edge">
<title>src/Scheduler.js&#45;&gt;src/Authority.ts</title>
<path fill="none" stroke="#000000" stroke-width="2" stroke-opacity="0.200000" d="M258.4496,-412.6918C269.7409,-405.0658 284.6697,-393.1022 293,-378.7208 307.9852,-352.8505 286.3233,-335.2298 306,-312.7208 308.0184,-310.4118 310.4071,-308.4578 313.0117,-306.8043"/>
<polygon fill="#000000" fill-opacity="0.200000" stroke="#000000" stroke-width="2" stroke-opacity="0.200000" points="314.3076,-308.493 318.6116,-303.8147 312.3296,-304.7879 314.3076,-308.493"/>
</g>
<!-- src/Scheduler.js&#45;&gt;src/BaseFunction.ts -->
<g id="edge8" class="edge">
<title>src/Scheduler.js&#45;&gt;src/BaseFunction.ts</title>
<path fill="none" stroke="#000000" stroke-width="2" stroke-opacity="0.200000" d="M277.7383,-426.7924C283.4802,-429.0213 288.8963,-432.1992 293,-436.7208 312.7994,-458.5367 287.2484,-478.9979 306,-501.7208 307.7138,-503.7976 309.7055,-505.6374 311.8763,-507.2669"/>
<polygon fill="#000000" fill-opacity="0.200000" stroke="#000000" stroke-width="2" stroke-opacity="0.200000" points="311.037,-509.2237 317.2201,-510.6999 313.3071,-505.6901 311.037,-509.2237"/>
</g>
<!-- src/Scheduler.js&#45;&gt;src/BaseKont.js -->
<g id="edge9" class="edge">
<title>src/Scheduler.js&#45;&gt;src/BaseKont.js</title>
<path fill="none" stroke="#000000" stroke-width="2" stroke-opacity="0.200000" d="M277.6913,-430.3023C282.944,-432.124 288.2086,-434.2569 293,-436.7208 299.4826,-440.0543 299.5756,-443.2766 306,-446.7208 308.3206,-447.9649 310.7643,-449.1355 313.2621,-450.2312"/>
<polygon fill="#000000" fill-opacity="0.200000" stroke="#000000" stroke-width="2" stroke-opacity="0.200000" points="312.8078,-452.3148 319.1558,-452.651 314.4031,-448.4295 312.8078,-452.3148"/>
</g>
<!-- src/Scheduler.js&#45;&gt;src/Lval.ts -->
<g id="edge11" class="edge">
<title>src/Scheduler.js&#45;&gt;src/Lval.ts</title>
<path fill="none" stroke="#000000" stroke-width="2" stroke-opacity="0.200000" d="M277.5774,-427.2898C283.2653,-429.4749 288.7035,-432.5093 293,-436.7208 306.3495,-449.806 290.8766,-465.7338 306,-476.7208 339.62,-501.1453 359.4254,-487.716 399.5,-476.7208 409.72,-473.9168 419.9698,-468.1561 428.1467,-462.6733"/>
<polygon fill="#000000" fill-opacity="0.200000" stroke="#000000" stroke-width="2" stroke-opacity="0.200000" points="429.7387,-464.1224 433.4506,-458.9617 427.3306,-460.6812 429.7387,-464.1224"/>
</g>
<!-- src/Scheduler.js&#45;&gt;src/logger.ts -->
<g id="edge10" class="edge">
<title>src/Scheduler.js&#45;&gt;src/logger.ts</title>
<path fill="none" stroke="#000000" stroke-width="2" stroke-opacity="0.200000" d="M277.5687,-418.5071C322.0518,-414.1749 394.8441,-406.5629 399.5,-402.7208 419.3083,-386.3748 435.8988,-309.7387 442.2391,-276.8142"/>
<polygon fill="#000000" fill-opacity="0.200000" stroke="#000000" stroke-width="2" stroke-opacity="0.200000" points="444.3168,-277.1287 443.3685,-270.8429 440.19,-276.3482 444.3168,-277.1287"/>
</g>
<!-- src/Scheduler.js&#45;&gt;src/options.ts -->
<g id="edge12" class="edge">
<title>src/Scheduler.js&#45;&gt;src/options.ts</title>
<path fill="none" stroke="#000000" stroke-width="2" stroke-opacity="0.200000" d="M257.4094,-412.6378C268.417,-404.8164 283.4726,-392.6157 293,-378.7208 302.62,-364.6909 293.8635,-354.6409 306,-342.7208 308.9401,-339.8331 312.4579,-337.5006 316.2059,-335.6167"/>
<polygon fill="#000000" fill-opacity="0.200000" stroke="#000000" stroke-width="2" stroke-opacity="0.200000" points="317.1629,-337.4904 321.8215,-333.1651 315.4824,-333.6412 317.1629,-337.4904"/>
</g>
<!-- src/Scheduler.js&#45;&gt;src/process.js -->
<g id="edge13" class="edge">
<title>src/Scheduler.js&#45;&gt;src/process.js</title>
<path fill="none" stroke="#000000" stroke-width="2" stroke-opacity="0.200000" d="M260.5692,-412.6569C270.6173,-406.8598 283.2294,-398.7489 293,-389.7208 299.9859,-383.2658 298.2768,-378.2725 306,-372.7208 308.7851,-370.7188 311.8582,-368.9681 315.0468,-367.4404"/>
<polygon fill="#000000" fill-opacity="0.200000" stroke="#000000" stroke-width="2" stroke-opacity="0.200000" points="316.1973,-369.2312 320.8739,-364.9254 314.5329,-365.375 316.1973,-369.2312"/>
</g>
<!-- src/Scheduler.js&#45;&gt;src/SandboxStatus.ts -->
<g id="edge14" class="edge">
<title>src/Scheduler.js&#45;&gt;src/SandboxStatus.ts</title>
<path fill="none" stroke="#000000" stroke-width="2" stroke-opacity="0.200000" d="M271.7604,-412.6987C285.2405,-408.3952 301.4838,-403.2095 315.6685,-398.6811"/>
<polygon fill="#000000" fill-opacity="0.200000" stroke="#000000" stroke-width="2" stroke-opacity="0.200000" points="316.5304,-400.6104 321.6075,-396.7851 315.253,-396.6094 316.5304,-400.6104"/>
</g>
<!-- src/Scheduler.js&#45;&gt;src/Thread.ts -->
<g id="edge15" class="edge">
<title>src/Scheduler.js&#45;&gt;src/Thread.ts</title>
<path fill="none" stroke="#000000" stroke-width="2" stroke-opacity="0.200000" d="M277.7835,-424.9399C290.0039,-426.0874 303.7572,-427.3788 315.9573,-428.5243"/>
<polygon fill="#000000" fill-opacity="0.200000" stroke="#000000" stroke-width="2" stroke-opacity="0.200000" points="316.0091,-430.6383 322.1792,-429.1085 316.4018,-426.4567 316.0091,-430.6383"/>
</g>
<!-- src/Scheduler.js&#45;&gt;src/ThreadError.ts -->
<g id="edge16" class="edge">
<title>src/Scheduler.js&#45;&gt;src/ThreadError.ts</title>
<path fill="none" stroke="#000000" stroke-width="2" stroke-opacity="0.200000" d="M277.5327,-426.9844C283.2935,-429.1957 288.7692,-432.3179 293,-436.7208 308.9091,-453.2771 288.4044,-471.9693 306,-486.7208 320.0289,-498.4822 366.0012,-500.1856 401.2743,-499.6104"/>
<polygon fill="#000000" fill-opacity="0.200000" stroke="#000000" stroke-width="2" stroke-opacity="0.200000" points="401.324,-501.7099 407.2804,-499.4892 401.2392,-497.5108 401.324,-501.7099"/>
</g>
<!-- src/UnitBase.js -->
<g id="node22" class="node">
<title>src/UnitBase.js</title>
<g id="a_node22"><a xlink:href="src/UnitBase.js" xlink:title="UnitBase.js">
<path fill="#ffffcc" stroke="#000000" d="M375.5,-558.7208C375.5,-558.7208 324.5,-558.7208 324.5,-558.7208 321.5,-558.7208 318.5,-555.7208 318.5,-552.7208 318.5,-552.7208 318.5,-546.7208 318.5,-546.7208 318.5,-543.7208 321.5,-540.7208 324.5,-540.7208 324.5,-540.7208 375.5,-540.7208 375.5,-540.7208 378.5,-540.7208 381.5,-543.7208 381.5,-546.7208 381.5,-546.7208 381.5,-552.7208 381.5,-552.7208 381.5,-555.7208 378.5,-558.7208 375.5,-558.7208"/>
<text text-anchor="middle" x="350" y="-547.5208" font-family="Helvetica,sans-Serif" font-size="9.00" fill="#000000">UnitBase.js</text>
</a>
</g>
</g>
<!-- src/Scheduler.js&#45;&gt;src/UnitBase.js -->
<g id="edge17" class="edge">
<title>src/Scheduler.js&#45;&gt;src/UnitBase.js</title>
<path fill="none" stroke="#000000" stroke-width="2" stroke-opacity="0.200000" d="M277.7289,-426.4803C283.5434,-428.7325 288.9885,-431.9988 293,-436.7208 321.4467,-470.2059 278.132,-500.7525 306,-534.7208 307.9452,-537.0918 310.2824,-539.0894 312.8523,-540.7722"/>
<polygon fill="#000000" fill-opacity="0.200000" stroke="#000000" stroke-width="2" stroke-opacity="0.200000" points="312.1309,-542.7709 318.4034,-543.8032 314.1437,-539.0846 312.1309,-542.7709"/>
</g>
<!-- src/StackCallItem.ts -->
<g id="node23" class="node">
<title>src/StackCallItem.ts</title>
<g id="a_node23"><a xlink:href="src/StackCallItem.ts" xlink:title="StackCallItem.ts">
<path fill="#ddfeff" stroke="#000000" d="M278.5,-576.7208C278.5,-576.7208 208.5,-576.7208 208.5,-576.7208 205.5,-576.7208 202.5,-573.7208 202.5,-570.7208 202.5,-570.7208 202.5,-564.7208 202.5,-564.7208 202.5,-561.7208 205.5,-558.7208 208.5,-558.7208 208.5,-558.7208 278.5,-558.7208 278.5,-558.7208 281.5,-558.7208 284.5,-561.7208 284.5,-564.7208 284.5,-564.7208 284.5,-570.7208 284.5,-570.7208 284.5,-573.7208 281.5,-576.7208 278.5,-576.7208"/>
<text text-anchor="middle" x="243.5" y="-565.5208" font-family="Helvetica,sans-Serif" font-size="9.00" fill="#000000">StackCallItem.ts</text>
</a>
</g>
</g>
<!-- src/StackCallItem.ts&#45;&gt;src/options.ts -->
<g id="edge18" class="edge">
<title>src/StackCallItem.ts&#45;&gt;src/options.ts</title>
<path fill="none" stroke="#000000" stroke-width="2" stroke-opacity="0.200000" d="M259.4259,-558.6509C270.9262,-551.1566 285.6724,-539.384 293,-524.7208 311.1255,-488.4501 281.2431,-374.833 306,-342.7208 308.7102,-339.2054 312.2868,-336.5082 316.2324,-334.4398"/>
<polygon fill="#000000" fill-opacity="0.200000" stroke="#000000" stroke-width="2" stroke-opacity="0.200000" points="317.1494,-336.3307 321.7949,-331.9913 315.4573,-332.4866 317.1494,-336.3307"/>
</g>
<!-- src/StackItem.ts -->
<g id="node24" class="node">
<title>src/StackItem.ts</title>
<g id="a_node24"><a xlink:href="src/StackItem.ts" xlink:title="StackItem.ts">
<path fill="#ddfeff" stroke="#000000" d="M376.5,-626.7208C376.5,-626.7208 323.5,-626.7208 323.5,-626.7208 320.5,-626.7208 317.5,-623.7208 317.5,-620.7208 317.5,-620.7208 317.5,-614.7208 317.5,-614.7208 317.5,-611.7208 320.5,-608.7208 323.5,-608.7208 323.5,-608.7208 376.5,-608.7208 376.5,-608.7208 379.5,-608.7208 382.5,-611.7208 382.5,-614.7208 382.5,-614.7208 382.5,-620.7208 382.5,-620.7208 382.5,-623.7208 379.5,-626.7208 376.5,-626.7208"/>
<text text-anchor="middle" x="350" y="-615.5208" font-family="Helvetica,sans-Serif" font-size="9.00" fill="#000000">StackItem.ts</text>
</a>
</g>
</g>
<!-- src/StackCallItem.ts&#45;&gt;src/StackItem.ts -->
<g id="edge19" class="edge">
<title>src/StackCallItem.ts&#45;&gt;src/StackItem.ts</title>
<path fill="none" stroke="#000000" stroke-width="2" stroke-opacity="0.200000" d="M277.4755,-576.7505C282.7561,-578.5143 288.0859,-580.5118 293,-582.7208 300.5738,-586.1254 317.4748,-596.6493 330.9178,-605.2755"/>
<polygon fill="#000000" fill-opacity="0.200000" stroke="#000000" stroke-width="2" stroke-opacity="0.200000" points="329.8777,-607.1035 336.0585,-608.5894 332.1533,-603.5734 329.8777,-607.1035"/>
</g>
<!-- src/StackGuardItem.ts -->
<g id="node25" class="node">
<title>src/StackGuardItem.ts</title>
<g id="a_node25"><a xlink:href="src/StackGuardItem.ts" xlink:title="StackGuardItem.ts">
<path fill="#ddfeff" stroke="#000000" d="M283,-636.7208C283,-636.7208 204,-636.7208 204,-636.7208 201,-636.7208 198,-633.7208 198,-630.7208 198,-630.7208 198,-624.7208 198,-624.7208 198,-621.7208 201,-618.7208 204,-618.7208 204,-618.7208 283,-618.7208 283,-618.7208 286,-618.7208 289,-621.7208 289,-624.7208 289,-624.7208 289,-630.7208 289,-630.7208 289,-633.7208 286,-636.7208 283,-636.7208"/>
<text text-anchor="middle" x="243.5" y="-625.5208" font-family="Helvetica,sans-Serif" font-size="9.00" fill="#000000">StackGuardItem.ts</text>
</a>
</g>
</g>
<!-- src/StackGuardItem.ts&#45;&gt;src/StackItem.ts -->
<g id="edge20" class="edge">
<title>src/StackGuardItem.ts&#45;&gt;src/StackItem.ts</title>
<path fill="none" stroke="#000000" stroke-width="2" stroke-opacity="0.200000" d="M289.2837,-623.4219C296.5352,-622.741 303.9752,-622.0424 311.0512,-621.378"/>
<polygon fill="#000000" fill-opacity="0.200000" stroke="#000000" stroke-width="2" stroke-opacity="0.200000" points="311.6542,-623.4307 317.4315,-620.7789 311.2615,-619.2491 311.6542,-623.4307"/>
</g>
<!-- src/StackThread.ts -->
<g id="node26" class="node">
<title>src/StackThread.ts</title>
<g id="a_node26"><a xlink:href="src/StackThread.ts" xlink:title="StackThread.ts">
<path fill="#ddfeff" stroke="#000000" d="M164.5,-560.7208C164.5,-560.7208 99.5,-560.7208 99.5,-560.7208 96.5,-560.7208 93.5,-557.7208 93.5,-554.7208 93.5,-554.7208 93.5,-548.7208 93.5,-548.7208 93.5,-545.7208 96.5,-542.7208 99.5,-542.7208 99.5,-542.7208 164.5,-542.7208 164.5,-542.7208 167.5,-542.7208 170.5,-545.7208 170.5,-548.7208 170.5,-548.7208 170.5,-554.7208 170.5,-554.7208 170.5,-557.7208 167.5,-560.7208 164.5,-560.7208"/>
<text text-anchor="middle" x="132" y="-549.5208" font-family="Helvetica,sans-Serif" font-size="9.00" fill="#000000">StackThread.ts</text>
</a>
</g>
</g>
<!-- src/StackThread.ts&#45;&gt;src/StackCallItem.ts -->
<g id="edge21" class="edge">
<title>src/StackThread.ts&#45;&gt;src/StackCallItem.ts</title>
<path fill="none" stroke="#000000" stroke-width="2" stroke-opacity="0.200000" d="M170.6844,-557.2719C178.8041,-558.4371 187.4584,-559.679 195.8615,-560.8848"/>
<polygon fill="#000000" fill-opacity="0.200000" stroke="#000000" stroke-width="2" stroke-opacity="0.200000" points="195.9879,-563.0244 202.2253,-561.798 196.5845,-558.8669 195.9879,-563.0244"/>
</g>
<!-- src/ValuesUtil.js -->
<g id="node27" class="node">
<title>src/ValuesUtil.js</title>
<g id="a_node27"><a xlink:href="src/ValuesUtil.js" xlink:title="ValuesUtil.js">
<path fill="#ffffcc" stroke="#000000" d="M271.5,-328.7208C271.5,-328.7208 215.5,-328.7208 215.5,-328.7208 212.5,-328.7208 209.5,-325.7208 209.5,-322.7208 209.5,-322.7208 209.5,-316.7208 209.5,-316.7208 209.5,-313.7208 212.5,-310.7208 215.5,-310.7208 215.5,-310.7208 271.5,-310.7208 271.5,-310.7208 274.5,-310.7208 277.5,-313.7208 277.5,-316.7208 277.5,-316.7208 277.5,-322.7208 277.5,-322.7208 277.5,-325.7208 274.5,-328.7208 271.5,-328.7208"/>
<text text-anchor="middle" x="243.5" y="-317.5208" font-family="Helvetica,sans-Serif" font-size="9.00" fill="#000000">ValuesUtil.js</text>
</a>
</g>
</g>
<!-- src/levels/lohi.js -->
<g id="node28" class="node">
<title>src/levels/lohi.js</title>
<g id="a_node28"><a xlink:href="src/levels/lohi.js" xlink:title="lohi.js">
<path fill="#ffffcc" stroke="#000000" d="M153,-594.7208C153,-594.7208 111,-594.7208 111,-594.7208 108,-594.7208 105,-591.7208 105,-588.7208 105,-588.7208 105,-582.7208 105,-582.7208 105,-579.7208 108,-576.7208 111,-576.7208 111,-576.7208 153,-576.7208 153,-576.7208 156,-576.7208 159,-579.7208 159,-582.7208 159,-582.7208 159,-588.7208 159,-588.7208 159,-591.7208 156,-594.7208 153,-594.7208"/>
<text text-anchor="middle" x="132" y="-583.5208" font-family="Helvetica,sans-Serif" font-size="9.00" fill="#000000">lohi.js</text>
</a>
</g>
</g>
<!-- src/levels/lohi.js&#45;&gt;src/Level.ts -->
<g id="edge25" class="edge">
<title>src/levels/lohi.js&#45;&gt;src/Level.ts</title>
<path fill="none" stroke="#000000" stroke-width="2" stroke-opacity="0.200000" d="M159.276,-588.6563C174.5295,-590.298 193.6705,-592.358 209.849,-594.0992"/>
<polygon fill="#000000" fill-opacity="0.200000" stroke="#000000" stroke-width="2" stroke-opacity="0.200000" points="209.9289,-596.2198 216.1192,-594.774 210.3784,-592.0439 209.9289,-596.2198"/>
</g>
<!-- src/levels/tagsets.ts -->
<g id="node29" class="node">
<title>src/levels/tagsets.ts</title>
<g id="a_node29"><a xlink:href="src/levels/tagsets.ts" xlink:title="tagsets.ts">
<path fill="#ddfeff" stroke="#000000" d="M153.5,-624.7208C153.5,-624.7208 110.5,-624.7208 110.5,-624.7208 107.5,-624.7208 104.5,-621.7208 104.5,-618.7208 104.5,-618.7208 104.5,-612.7208 104.5,-612.7208 104.5,-609.7208 107.5,-606.7208 110.5,-606.7208 110.5,-606.7208 153.5,-606.7208 153.5,-606.7208 156.5,-606.7208 159.5,-609.7208 159.5,-612.7208 159.5,-612.7208 159.5,-618.7208 159.5,-618.7208 159.5,-621.7208 156.5,-624.7208 153.5,-624.7208"/>
<text text-anchor="middle" x="132" y="-613.5208" font-family="Helvetica,sans-Serif" font-size="9.00" fill="#000000">tagsets.ts</text>
</a>
</g>
</g>
<!-- src/levels/tagsets.ts&#45;&gt;src/Level.ts -->
<g id="edge26" class="edge">
<title>src/levels/tagsets.ts&#45;&gt;src/Level.ts</title>
<path fill="none" stroke="#000000" stroke-width="2" stroke-opacity="0.200000" d="M159.5618,-611.2714C174.8195,-608.8082 193.8997,-605.728 210.0117,-603.127"/>
<polygon fill="#000000" fill-opacity="0.200000" stroke="#000000" stroke-width="2" stroke-opacity="0.200000" points="210.6666,-605.1485 216.2552,-602.1191 209.9972,-601.0022 210.6666,-605.1485"/>
</g>
<!-- src/levels/tagsets.ts&#45;&gt;src/logger.ts -->
<g id="edge27" class="edge">
<title>src/levels/tagsets.ts&#45;&gt;src/logger.ts</title>
<path fill="none" stroke="#000000" stroke-width="2" stroke-opacity="0.200000" d="M150.0121,-624.8652C198.5831,-648.1024 333.0637,-702.7918 399.5,-632.7208 407.0746,-624.7318 406.1065,-445.6412 407.5,-434.7208 415.0225,-375.7704 432.5774,-307.1676 440.7161,-277.1309"/>
<polygon fill="#000000" fill-opacity="0.200000" stroke="#000000" stroke-width="2" stroke-opacity="0.200000" points="442.836,-277.3399 442.3927,-270.9985 438.7846,-276.2322 442.836,-277.3399"/>
</g>
<!-- src/loadLibs.js -->
<g id="node30" class="node">
<title>src/loadLibs.js</title>
<g id="a_node30"><a xlink:href="src/loadLibs.js" xlink:title="loadLibs.js">
<path fill="#ffffcc" stroke="#000000" d="M268,-270.7208C268,-270.7208 219,-270.7208 219,-270.7208 216,-270.7208 213,-267.7208 213,-264.7208 213,-264.7208 213,-258.7208 213,-258.7208 213,-255.7208 216,-252.7208 219,-252.7208 219,-252.7208 268,-252.7208 268,-252.7208 271,-252.7208 274,-255.7208 274,-258.7208 274,-258.7208 274,-264.7208 274,-264.7208 274,-267.7208 271,-270.7208 268,-270.7208"/>
<text text-anchor="middle" x="243.5" y="-259.5208" font-family="Helvetica,sans-Serif" font-size="9.00" fill="#000000">loadLibs.js</text>
</a>
</g>
</g>
<!-- src/loadLibs.js&#45;&gt;fs -->
<g id="edge29" class="edge">
<title>src/loadLibs.js&#45;&gt;fs</title>
<path fill="none" stroke="#000000" stroke-dasharray="5,2" stroke-opacity="0.200000" d="M274.2359,-258.2804C281.3566,-256.0434 288.2351,-252.4518 293,-246.7208 326.4491,-206.4897 278.3254,-174.1223 306,-129.7208 309.9662,-123.3574 315.9707,-118.181 322.2797,-114.0894"/>
<polygon fill="#000000" fill-opacity="0.200000" stroke="#000000" stroke-opacity="0.200000" points="323.5376,-115.7842 327.6128,-110.9054 321.3846,-112.178 323.5376,-115.7842"/>
</g>
<!-- src/loadLibs.js&#45;&gt;src/logger.ts -->
<g id="edge28" class="edge">
<title>src/loadLibs.js&#45;&gt;src/logger.ts</title>
<path fill="none" stroke="#000000" stroke-width="2" stroke-opacity="0.200000" d="M273.4498,-252.6892C287.7619,-248.4484 302.5339,-244.21 306,-243.7208 347.1478,-237.9135 358.6794,-235.9398 399.5,-243.7208 406.5278,-245.0604 413.856,-247.4667 420.5263,-250.0929"/>
<polygon fill="#000000" fill-opacity="0.200000" stroke="#000000" stroke-width="2" stroke-opacity="0.200000" points="420.0926,-252.1862 426.4396,-252.5422 421.6999,-248.3059 420.0926,-252.1862"/>
</g>
<!-- src/p2p/libp2p&#45;bundle.js -->
<g id="node31" class="node">
<title>src/p2p/libp2p&#45;bundle.js</title>
<g id="a_node31"><a xlink:href="src/p2p/libp2p-bundle.js" xlink:title="libp2p&#45;bundle.js">
<path fill="#ffffcc" stroke="#000000" d="M385.5,-158.7208C385.5,-158.7208 314.5,-158.7208 314.5,-158.7208 311.5,-158.7208 308.5,-155.7208 308.5,-152.7208 308.5,-152.7208 308.5,-146.7208 308.5,-146.7208 308.5,-143.7208 311.5,-140.7208 314.5,-140.7208 314.5,-140.7208 385.5,-140.7208 385.5,-140.7208 388.5,-140.7208 391.5,-143.7208 391.5,-146.7208 391.5,-146.7208 391.5,-152.7208 391.5,-152.7208 391.5,-155.7208 388.5,-158.7208 385.5,-158.7208"/>
<text text-anchor="middle" x="350" y="-147.5208" font-family="Helvetica,sans-Serif" font-size="9.00" fill="#000000">libp2p&#45;bundle.js</text>
</a>
</g>
</g>
<!-- src/p2p/libp2p&#45;bundle.js&#45;&gt;./p2pconfig.js -->
<g id="edge30" class="edge">
<title>src/p2p/libp2p&#45;bundle.js&#45;&gt;./p2pconfig.js</title>
<path fill="none" stroke="#000000" stroke-width="2" stroke-opacity="0.200000" d="M391.6338,-157.6113C394.6424,-159.5149 397.3376,-161.8528 399.5,-164.7208 416.727,-187.5687 391.002,-656.3411 407.5,-679.7208 407.5801,-679.8344 407.6613,-679.947 407.7435,-680.0587"/>
<polygon fill="#000000" fill-opacity="0.200000" stroke="#000000" stroke-width="2" stroke-opacity="0.200000" points="406.3684,-681.6569 412.0562,-684.4957 409.3801,-678.7295 406.3684,-681.6569"/>
</g>
<!-- src/p2p/mkid.js -->
<g id="node32" class="node">
<title>src/p2p/mkid.js</title>
<g id="a_node32"><a xlink:href="src/p2p/mkid.js" xlink:title="mkid.js">
<path fill="#ffffcc" stroke="#000000" d="M264.5,-158.7208C264.5,-158.7208 222.5,-158.7208 222.5,-158.7208 219.5,-158.7208 216.5,-155.7208 216.5,-152.7208 216.5,-152.7208 216.5,-146.7208 216.5,-146.7208 216.5,-143.7208 219.5,-140.7208 222.5,-140.7208 222.5,-140.7208 264.5,-140.7208 264.5,-140.7208 267.5,-140.7208 270.5,-143.7208 270.5,-146.7208 270.5,-146.7208 270.5,-152.7208 270.5,-152.7208 270.5,-155.7208 267.5,-158.7208 264.5,-158.7208"/>
<text text-anchor="middle" x="243.5" y="-147.5208" font-family="Helvetica,sans-Serif" font-size="9.00" fill="#000000">mkid.js</text>
</a>
</g>
</g>
<!-- src/p2p/mkid.js&#45;&gt;fs -->
<g id="edge31" class="edge">
<title>src/p2p/mkid.js&#45;&gt;fs</title>
<path fill="none" stroke="#000000" stroke-dasharray="5,2" stroke-opacity="0.200000" d="M267.9928,-140.7122C276.2416,-137.1966 285.3002,-132.7855 293,-127.7208 299.5693,-123.3997 299.2028,-119.6737 306,-115.7208 309.4453,-113.7172 313.2121,-111.9638 317.0454,-110.4389"/>
<polygon fill="#000000" fill-opacity="0.200000" stroke="#000000" stroke-opacity="0.200000" points="317.7738,-112.4086 322.6796,-108.3659 316.3234,-108.467 317.7738,-112.4086"/>
</g>
<!-- src/p2p/p2p.js -->
<g id="node33" class="node">
<title>src/p2p/p2p.js</title>
<g id="a_node33"><a xlink:href="src/p2p/p2p.js" xlink:title="p2p.js">
<path fill="#ffffcc" stroke="#000000" d="M264.5,-188.7208C264.5,-188.7208 222.5,-188.7208 222.5,-188.7208 219.5,-188.7208 216.5,-185.7208 216.5,-182.7208 216.5,-182.7208 216.5,-176.7208 216.5,-176.7208 216.5,-173.7208 219.5,-170.7208 222.5,-170.7208 222.5,-170.7208 264.5,-170.7208 264.5,-170.7208 267.5,-170.7208 270.5,-173.7208 270.5,-176.7208 270.5,-176.7208 270.5,-182.7208 270.5,-182.7208 270.5,-185.7208 267.5,-188.7208 264.5,-188.7208"/>
<text text-anchor="middle" x="243.5" y="-177.5208" font-family="Helvetica,sans-Serif" font-size="9.00" fill="#000000">p2p.js</text>
</a>
</g>
</g>
<!-- src/p2p/p2p.js&#45;&gt;src/logger.ts -->
<g id="edge32" class="edge">
<title>src/p2p/p2p.js&#45;&gt;src/logger.ts</title>
<path fill="none" stroke="#000000" stroke-width="2" stroke-opacity="0.200000" d="M270.5666,-175.9799C278.529,-173.7769 286.7662,-170.2778 293,-164.7208 303.8472,-155.0513 293.8526,-142.6958 306,-134.7208 340.7382,-111.9146 365.5199,-110.7997 399.5,-134.7208 418.363,-147.9998 435.1373,-216.0405 441.8684,-246.7037"/>
<polygon fill="#000000" fill-opacity="0.200000" stroke="#000000" stroke-width="2" stroke-opacity="0.200000" points="439.8322,-247.2236 443.1495,-252.6463 443.9379,-246.3385 439.8322,-247.2236"/>
</g>
<!-- src/p2p/p2p.js&#45;&gt;src/p2p/libp2p&#45;bundle.js -->
<g id="edge33" class="edge">
<title>src/p2p/p2p.js&#45;&gt;src/p2p/libp2p&#45;bundle.js</title>
<path fill="none" stroke="#000000" stroke-width="2" stroke-opacity="0.200000" d="M270.65,-172.0729C283.2682,-168.5185 298.4842,-164.2323 312.2022,-160.3681"/>
<polygon fill="#000000" fill-opacity="0.200000" stroke="#000000" stroke-width="2" stroke-opacity="0.200000" points="312.7719,-162.3894 317.9777,-158.7412 311.633,-158.3467 312.7719,-162.3894"/>
</g>
<!-- src/p2p/p2pconfig.ts -->
<g id="node34" class="node">
<title>src/p2p/p2pconfig.ts</title>
<g id="a_node34"><a xlink:href="src/p2p/p2pconfig.ts" xlink:title="p2pconfig.ts">
<path fill="#ddfeff" stroke="#000000" d="M377,-188.7208C377,-188.7208 323,-188.7208 323,-188.7208 320,-188.7208 317,-185.7208 317,-182.7208 317,-182.7208 317,-176.7208 317,-176.7208 317,-173.7208 320,-170.7208 323,-170.7208 323,-170.7208 377,-170.7208 377,-170.7208 380,-170.7208 383,-173.7208 383,-176.7208 383,-176.7208 383,-182.7208 383,-182.7208 383,-185.7208 380,-188.7208 377,-188.7208"/>
<text text-anchor="middle" x="350" y="-177.5208" font-family="Helvetica,sans-Serif" font-size="9.00" fill="#000000">p2pconfig.ts</text>
</a>
</g>
</g>
<!-- src/p2p/p2p.js&#45;&gt;src/p2p/p2pconfig.ts -->
<g id="edge34" class="edge">
<title>src/p2p/p2p.js&#45;&gt;src/p2p/p2pconfig.ts</title>
<path fill="none" stroke="#000000" stroke-width="2" stroke-opacity="0.200000" d="M270.65,-179.7208C282.8349,-179.7208 297.4422,-179.7208 310.7838,-179.7208"/>
<polygon fill="#000000" fill-opacity="0.200000" stroke="#000000" stroke-width="2" stroke-opacity="0.200000" points="310.8114,-181.8209 316.8114,-179.7208 310.8114,-177.6209 310.8114,-181.8209"/>
</g>
<!-- util -->
<g id="node35" class="node">
<title>util</title>
<path fill="#ffffcc" stroke="#c0c0c0" d="M371,-32.7208C371,-32.7208 329,-32.7208 329,-32.7208 326,-32.7208 323,-29.7208 323,-26.7208 323,-26.7208 323,-20.7208 323,-20.7208 323,-17.7208 326,-14.7208 329,-14.7208 329,-14.7208 371,-14.7208 371,-14.7208 374,-14.7208 377,-17.7208 377,-20.7208 377,-20.7208 377,-26.7208 377,-26.7208 377,-29.7208 374,-32.7208 371,-32.7208"/>
<text text-anchor="middle" x="350" y="-21.5208" font-family="Helvetica,sans-Serif" font-size="9.00" fill="#c0c0c0">util</text>
</g>
<!-- src/p2p/p2p.js&#45;&gt;util -->
<g id="edge35" class="edge">
<title>src/p2p/p2p.js&#45;&gt;util</title>
<path fill="none" stroke="#000000" stroke-dasharray="5,2" stroke-opacity="0.200000" d="M270.5857,-177.271C278.9381,-175.1625 287.4008,-171.393 293,-164.7208 324.0782,-127.6867 281.829,-98.5914 306,-56.7208 310.8097,-48.3892 318.6485,-41.5042 326.3874,-36.2177"/>
<polygon fill="#000000" fill-opacity="0.200000" stroke="#000000" stroke-opacity="0.200000" points="327.7747,-37.8227 331.6906,-32.8151 325.5066,-34.2878 327.7747,-37.8227"/>
</g>
<!-- src/runtimeMonitored.js -->
<g id="node36" class="node">
<title>src/runtimeMonitored.js</title>
<g id="a_node36"><a xlink:href="src/runtimeMonitored.js" xlink:title="runtimeMonitored.js">
<path fill="#ffffcc" stroke="#000000" d="M175,-350.7208C175,-350.7208 89,-350.7208 89,-350.7208 86,-350.7208 83,-347.7208 83,-344.7208 83,-344.7208 83,-338.7208 83,-338.7208 83,-335.7208 86,-332.7208 89,-332.7208 89,-332.7208 175,-332.7208 175,-332.7208 178,-332.7208 181,-335.7208 181,-338.7208 181,-338.7208 181,-344.7208 181,-344.7208 181,-347.7208 178,-350.7208 175,-350.7208"/>
<text text-anchor="middle" x="132" y="-339.5208" font-family="Helvetica,sans-Serif" font-size="9.00" fill="#000000">runtimeMonitored.js</text>
</a>
</g>
</g>
<!-- src/runtimeMonitored.js&#45;&gt;assert -->
<g id="edge54" class="edge">
<title>src/runtimeMonitored.js&#45;&gt;assert</title>
<path fill="none" stroke="#000000" stroke-dasharray="5,2" stroke-opacity="0.200000" d="M133.0925,-332.466C137.9933,-292.5335 159.2429,-135.5295 194,-102.7208 202.8517,-94.3653 273.5192,-82.813 316.6478,-76.4317"/>
<polygon fill="#000000" fill-opacity="0.200000" stroke="#000000" stroke-opacity="0.200000" points="317.1692,-78.4778 322.8006,-75.5287 316.5593,-74.3223 317.1692,-78.4778"/>
</g>
<!-- src/runtimeMonitored.js&#45;&gt;fs -->
<g id="edge55" class="edge">
<title>src/runtimeMonitored.js&#45;&gt;fs</title>
<path fill="none" stroke="#000000" stroke-dasharray="5,2" stroke-opacity="0.200000" d="M133.3923,-332.5042C139.1752,-295.4582 162.479,-158.0396 194,-129.7208 211.6321,-113.8799 276.185,-106.679 316.5195,-103.6633"/>
<polygon fill="#000000" fill-opacity="0.200000" stroke="#000000" stroke-opacity="0.200000" points="316.9398,-105.7387 322.7741,-103.2146 316.6392,-101.5494 316.9398,-105.7387"/>
</g>
<!-- src/runtimeMonitored.js&#45;&gt;os -->
<g id="edge56" class="edge">
<title>src/runtimeMonitored.js&#45;&gt;os</title>
<path fill="none" stroke="#000000" stroke-dasharray="5,2" stroke-opacity="0.200000" d="M133.0108,-332.6461C137.7892,-291.2418 159.3388,-120.6037 194,-81.7208 198.4257,-76.756 204.3324,-73.1594 210.5213,-70.5542"/>
<polygon fill="#000000" fill-opacity="0.200000" stroke="#000000" stroke-opacity="0.200000" points="211.3545,-72.4851 216.2498,-68.4297 209.894,-68.5472 211.3545,-72.4851"/>
</g>
<!-- src/runtimeMonitored.js&#45;&gt;readline -->
<g id="edge57" class="edge">
<title>src/runtimeMonitored.js&#45;&gt;readline</title>
<path fill="none" stroke="#000000" stroke-dasharray="5,2" stroke-opacity="0.200000" d="M132.694,-332.6735C136.2896,-288.0825 154.1849,-92.1034 194,-48.7208 198.4627,-43.8582 204.4432,-40.5513 210.7021,-38.3077"/>
<polygon fill="#000000" fill-opacity="0.200000" stroke="#000000" stroke-opacity="0.200000" points="211.3721,-40.2988 216.4928,-36.532 210.1408,-36.2834 211.3721,-40.2988"/>
</g>
<!-- src/runtimeMonitored.js&#45;&gt;src/Authority.ts -->
<g id="edge36" class="edge">
<title>src/runtimeMonitored.js&#45;&gt;src/Authority.ts</title>
<path fill="none" stroke="#000000" stroke-width="2" stroke-opacity="0.200000" d="M143.5129,-332.4449C155.3737,-323.496 174.7899,-310.4835 194,-304.7208 233.1945,-292.9631 280.4008,-292.6366 312.5463,-294.3491"/>
<polygon fill="#000000" fill-opacity="0.200000" stroke="#000000" stroke-width="2" stroke-opacity="0.200000" points="312.6545,-296.459 318.7677,-294.7159 312.9018,-292.2663 312.6545,-296.459"/>
</g>
<!-- src/runtimeMonitored.js&#45;&gt;src/BaseFunction.ts -->
<g id="edge37" class="edge">
<title>src/runtimeMonitored.js&#45;&gt;src/BaseFunction.ts</title>
<path fill="none" stroke="#000000" stroke-width="2" stroke-opacity="0.200000" d="M133.5915,-350.7519C138.2209,-374.1363 153.9801,-436.9114 194,-466.7208 229.8033,-493.3894 253.3543,-463.1951 293,-483.7208 300.2562,-487.4775 299.4146,-491.8836 306,-496.7208 311.5315,-500.7839 317.8786,-504.5445 323.999,-507.7978"/>
<polygon fill="#000000" fill-opacity="0.200000" stroke="#000000" stroke-width="2" stroke-opacity="0.200000" points="323.2294,-509.7633 329.526,-510.6369 325.1486,-506.0274 323.2294,-509.7633"/>
</g>
<!-- src/runtimeMonitored.js&#45;&gt;src/Level.ts -->
<g id="edge38" class="edge">
<title>src/runtimeMonitored.js&#45;&gt;src/Level.ts</title>
<path fill="none" stroke="#000000" stroke-width="2" stroke-opacity="0.200000" d="M134.2678,-350.7832C145.185,-394.3793 191.8887,-580.518 194,-582.7208 198.4271,-587.3398 204.2242,-590.5497 210.2859,-592.7769"/>
<polygon fill="#000000" fill-opacity="0.200000" stroke="#000000" stroke-width="2" stroke-opacity="0.200000" points="210.0413,-594.901 216.3948,-594.6924 211.298,-590.8934 210.0413,-594.901"/>
</g>
<!-- src/runtimeMonitored.js&#45;&gt;src/Lval.ts -->
<g id="edge41" class="edge">
<title>src/runtimeMonitored.js&#45;&gt;src/Lval.ts</title>
<path fill="none" stroke="#000000" stroke-width="2" stroke-opacity="0.200000" d="M133.8553,-351.0502C140.7877,-384.9651 166.2024,-500.9679 194,-524.7208 227.9406,-553.7229 256.4897,-516.0287 293,-541.7208 302.6028,-548.4782 295.858,-558.8033 306,-564.7208 323.9464,-575.1919 384.1111,-578.6814 399.5,-564.7208 413.0602,-552.4192 399.1561,-499.0177 407.5,-482.7208 411.5313,-474.8471 418.3034,-468.0089 424.9922,-462.631"/>
<polygon fill="#000000" fill-opacity="0.200000" stroke="#000000" stroke-width="2" stroke-opacity="0.200000" points="426.5254,-464.1044 430.0442,-458.8102 423.9919,-460.7546 426.5254,-464.1044"/>
</g>
<!-- src/runtimeMonitored.js&#45;&gt;src/MailboxProcessor.js -->
<g id="edge42" class="edge">
<title>src/runtimeMonitored.js&#45;&gt;src/MailboxProcessor.js</title>
<path fill="none" stroke="#000000" stroke-width="2" stroke-opacity="0.200000" d="M177.673,-350.7325C182.3246,-351.6503 187.0729,-352.5872 191.7827,-353.5165"/>
<polygon fill="#000000" fill-opacity="0.200000" stroke="#000000" stroke-width="2" stroke-opacity="0.200000" points="191.4245,-355.5862 197.7176,-354.6875 192.2376,-351.4657 191.4245,-355.5862"/>
</g>
<!-- src/runtimeMonitored.js&#45;&gt;src/logger.ts -->
<g id="edge40" class="edge">
<title>src/runtimeMonitored.js&#45;&gt;src/logger.ts</title>
<path fill="none" stroke="#000000" stroke-width="2" stroke-opacity="0.200000" d="M139.7487,-332.5758C150.5489,-320.5188 171.3657,-299.6725 194,-289.7208 234.6245,-271.8592 255.973,-301.1827 293,-276.7208 302.476,-270.4604 296.1357,-260.3496 306,-254.7208 342.0927,-234.1252 358.0654,-251.5522 399.5,-254.7208 403.4621,-255.0238 407.6014,-255.4731 411.6996,-256.0005"/>
<polygon fill="#000000" fill-opacity="0.200000" stroke="#000000" stroke-width="2" stroke-opacity="0.200000" points="411.4186,-258.0816 417.6493,-256.8212 411.9925,-253.921 411.4186,-258.0816"/>
</g>
<!-- src/runtimeMonitored.js&#45;&gt;src/options.ts -->
<g id="edge44" class="edge">
<title>src/runtimeMonitored.js&#45;&gt;src/options.ts</title>
<path fill="none" stroke="#000000" stroke-width="2" stroke-opacity="0.200000" d="M181.0316,-340.5909C212.9615,-339.608 255.4989,-337.8339 293,-334.7208 300.3744,-334.1086 308.2638,-333.2631 315.7498,-332.3709"/>
<polygon fill="#000000" fill-opacity="0.200000" stroke="#000000" stroke-width="2" stroke-opacity="0.200000" points="316.2229,-334.4287 321.923,-331.6146 315.7121,-330.2599 316.2229,-334.4287"/>
</g>
<!-- src/runtimeMonitored.js&#45;&gt;src/process.js -->
<g id="edge46" class="edge">
<title>src/runtimeMonitored.js&#45;&gt;src/process.js</title>
<path fill="none" stroke="#000000" stroke-width="2" stroke-opacity="0.200000" d="M143.0208,-350.84C154.7958,-359.9405 174.4238,-373.3235 194,-378.7208 236.4174,-390.4155 250.0244,-388.1598 293,-378.7208 299.2153,-377.3557 300.0916,-375.084 306,-372.7208 309.2643,-371.4152 312.6918,-370.1195 316.1323,-368.8683"/>
<polygon fill="#000000" fill-opacity="0.200000" stroke="#000000" stroke-width="2" stroke-opacity="0.200000" points="316.9611,-370.8024 321.9084,-366.8106 315.5516,-366.846 316.9611,-370.8024"/>
</g>
<!-- src/runtimeMonitored.js&#45;&gt;src/SandboxStatus.ts -->
<g id="edge48" class="edge">
<title>src/runtimeMonitored.js&#45;&gt;src/SandboxStatus.ts</title>
<path fill="none" stroke="#000000" stroke-width="2" stroke-opacity="0.200000" d="M141.0668,-350.9276C152.3254,-361.6469 172.6658,-378.7689 194,-385.7208 228.042,-396.8136 268.5218,-396.9839 299.7146,-394.554"/>
<polygon fill="#000000" fill-opacity="0.200000" stroke="#000000" stroke-width="2" stroke-opacity="0.200000" points="300.0236,-396.6354 305.8246,-394.0358 299.6686,-392.4504 300.0236,-396.6354"/>
</g>
<!-- src/runtimeMonitored.js&#45;&gt;src/NodeManager.js -->
<g id="edge43" class="edge">
<title>src/runtimeMonitored.js&#45;&gt;src/NodeManager.js</title>
<path fill="none" stroke="#000000" stroke-width="2" stroke-opacity="0.200000" d="M133.2012,-350.9132C137.0582,-376.7855 151.467,-450.9857 194,-491.7208 196.394,-494.0136 199.1025,-496.018 201.9885,-497.7696"/>
<polygon fill="#000000" fill-opacity="0.200000" stroke="#000000" stroke-width="2" stroke-opacity="0.200000" points="201.0673,-499.6587 207.3453,-500.6574 203.0604,-495.9617 201.0673,-499.6587"/>
</g>
<!-- src/runtimeMonitored.js&#45;&gt;src/RtClosure.js -->
<g id="edge47" class="edge">
<title>src/runtimeMonitored.js&#45;&gt;src/RtClosure.js</title>
<path fill="none" stroke="#000000" stroke-width="2" stroke-opacity="0.200000" d="M135.4153,-332.6177C142.9769,-313.7066 162.9589,-269.997 194,-246.7208 197.0645,-244.4229 200.4821,-242.4743 204.0501,-240.8224"/>
<polygon fill="#000000" fill-opacity="0.200000" stroke="#000000" stroke-width="2" stroke-opacity="0.200000" points="205.0102,-242.6978 209.7514,-238.4632 203.4043,-238.8169 205.0102,-242.6978"/>
</g>
<!-- src/runtimeMonitored.js&#45;&gt;src/Scheduler.js -->
<g id="edge49" class="edge">
<title>src/runtimeMonitored.js&#45;&gt;src/Scheduler.js</title>
<path fill="none" stroke="#000000" stroke-width="2" stroke-opacity="0.200000" d="M139.0378,-350.9777C149.6257,-364.3297 170.8886,-389.002 194,-403.7208 197.9047,-406.2075 202.2008,-408.4147 206.5809,-410.3556"/>
<polygon fill="#000000" fill-opacity="0.200000" stroke="#000000" stroke-width="2" stroke-opacity="0.200000" points="205.8043,-412.3069 212.1507,-412.6726 207.4175,-408.4291 205.8043,-412.3069"/>
</g>
<!-- src/runtimeMonitored.js&#45;&gt;src/ThreadError.ts -->
<g id="edge51" class="edge">
<title>src/runtimeMonitored.js&#45;&gt;src/ThreadError.ts</title>
<path fill="none" stroke="#000000" stroke-width="2" stroke-opacity="0.200000" d="M133.6649,-351.1716C140.1112,-386.6716 164.5409,-511.3182 194,-536.7208 227.7546,-565.8274 255.6529,-528.3946 293,-552.7208 301.8834,-558.507 296.682,-567.6641 306,-572.7208 342.5239,-592.5418 363.2884,-593.1067 399.5,-572.7208 422.1936,-559.945 434.8713,-530.7732 440.7882,-512.8098"/>
<polygon fill="#000000" fill-opacity="0.200000" stroke="#000000" stroke-width="2" stroke-opacity="0.200000" points="442.896,-513.1027 442.6682,-506.7499 438.8846,-511.8582 442.896,-513.1027"/>
</g>
<!-- src/runtimeMonitored.js&#45;&gt;src/UnitBase.js -->
<g id="edge52" class="edge">
<title>src/runtimeMonitored.js&#45;&gt;src/UnitBase.js</title>
<path fill="none" stroke="#000000" stroke-width="2" stroke-opacity="0.200000" d="M133.1728,-350.8841C136.8967,-375.9067 150.8703,-445.727 194,-478.7208 229.4004,-505.8017 259.1526,-465.7222 293,-494.7208 307.1956,-506.8829 292.877,-521.4085 306,-534.7208 307.9122,-536.6606 310.0849,-538.3496 312.4163,-539.8203"/>
<polygon fill="#000000" fill-opacity="0.200000" stroke="#000000" stroke-width="2" stroke-opacity="0.200000" points="311.8166,-541.8818 318.0961,-542.8708 313.8039,-538.1817 311.8166,-541.8818"/>
</g>
<!-- src/runtimeMonitored.js&#45;&gt;src/ValuesUtil.js -->
<g id="edge53" class="edge">
<title>src/runtimeMonitored.js&#45;&gt;src/ValuesUtil.js</title>
<path fill="none" stroke="#000000" stroke-width="2" stroke-opacity="0.200000" d="M177.673,-332.7091C186.1078,-331.0448 194.8609,-329.3177 203.1251,-327.6871"/>
<polygon fill="#000000" fill-opacity="0.200000" stroke="#000000" stroke-width="2" stroke-opacity="0.200000" points="203.8561,-329.6835 209.3361,-326.4617 203.043,-325.5629 203.8561,-329.6835"/>
</g>
<!-- src/runtimeMonitored.js&#45;&gt;src/loadLibs.js -->
<g id="edge39" class="edge">
<title>src/runtimeMonitored.js&#45;&gt;src/loadLibs.js</title>
<path fill="none" stroke="#000000" stroke-width="2" stroke-opacity="0.200000" d="M139.0378,-332.4639C149.6257,-319.112 170.8886,-294.4396 194,-279.7208 198.0674,-277.1304 202.5595,-274.8435 207.1288,-272.8448"/>
<polygon fill="#000000" fill-opacity="0.200000" stroke="#000000" stroke-width="2" stroke-opacity="0.200000" points="208.1764,-274.685 212.9316,-270.4663 206.5834,-270.7988 208.1764,-274.685"/>
</g>
<!-- src/runtimeMonitored.js&#45;&gt;src/p2p/p2p.js -->
<g id="edge45" class="edge">
<title>src/runtimeMonitored.js&#45;&gt;src/p2p/p2p.js</title>
<path fill="none" stroke="#000000" stroke-width="2" stroke-opacity="0.200000" d="M133.0373,-332.3876C136.4633,-306.1559 149.8468,-231.1855 194,-192.7208 198.6729,-188.6499 204.4741,-185.8323 210.4418,-183.8872"/>
<polygon fill="#000000" fill-opacity="0.200000" stroke="#000000" stroke-width="2" stroke-opacity="0.200000" points="211.2132,-185.8523 216.4294,-182.2189 210.0859,-181.8065 211.2132,-185.8523"/>
</g>
<!-- src/runtimeMonitored.js&#45;&gt;util -->
<g id="edge58" class="edge">
<title>src/runtimeMonitored.js&#45;&gt;util</title>
<path fill="none" stroke="#000000" stroke-dasharray="5,2" stroke-opacity="0.200000" d="M132.262,-332.4621C133.844,-283.9988 143.8203,-60.1846 194,-18.7208 229.7409,10.8121 287.393,-1.3661 321.701,-12.6916"/>
<polygon fill="#000000" fill-opacity="0.200000" stroke="#000000" stroke-opacity="0.200000" points="321.0554,-14.6902 327.4121,-14.6404 322.4118,-10.7152 321.0554,-14.6902"/>
</g>
<!-- src/serialize.js -->
<g id="node37" class="node">
<title>src/serialize.js</title>
<g id="a_node37"><a xlink:href="src/serialize.js" xlink:title="serialize.js">
<path fill="#ffffcc" stroke="#000000" d="M267.5,-460.7208C267.5,-460.7208 219.5,-460.7208 219.5,-460.7208 216.5,-460.7208 213.5,-457.7208 213.5,-454.7208 213.5,-454.7208 213.5,-448.7208 213.5,-448.7208 213.5,-445.7208 216.5,-442.7208 219.5,-442.7208 219.5,-442.7208 267.5,-442.7208 267.5,-442.7208 270.5,-442.7208 273.5,-445.7208 273.5,-448.7208 273.5,-448.7208 273.5,-454.7208 273.5,-454.7208 273.5,-457.7208 270.5,-460.7208 267.5,-460.7208"/>
<text text-anchor="middle" x="243.5" y="-449.5208" font-family="Helvetica,sans-Serif" font-size="9.00" fill="#000000">serialize.js</text>
</a>
</g>
</g>
<!-- src/runtimeMonitored.js&#45;&gt;src/serialize.js -->
<g id="edge50" class="edge">
<title>src/runtimeMonitored.js&#45;&gt;src/serialize.js</title>
<path fill="none" stroke="#000000" stroke-width="2" stroke-opacity="0.200000" d="M135.4153,-350.8239C142.9769,-369.735 162.9589,-413.4447 194,-436.7208 198.0793,-439.7797 202.7842,-442.2195 207.6365,-444.1645"/>
<polygon fill="#000000" fill-opacity="0.200000" stroke="#000000" stroke-width="2" stroke-opacity="0.200000" points="207.0151,-446.1727 213.3718,-446.2279 208.437,-442.2207 207.0151,-446.1727"/>
</g>
<!-- src/serialize.js&#45;&gt;assert -->
<g id="edge59" class="edge">
<title>src/serialize.js&#45;&gt;assert</title>
<path fill="none" stroke="#000000" stroke-dasharray="5,2" stroke-opacity="0.200000" d="M273.7561,-448.7525C281.1509,-446.5359 288.2845,-442.8364 293,-436.7208 316.7627,-405.9025 282.7696,-117.9423 306,-86.7208 308.8454,-82.8966 312.72,-80.0385 316.9973,-77.9044"/>
<polygon fill="#000000" fill-opacity="0.200000" stroke="#000000" stroke-opacity="0.200000" points="317.8571,-79.8211 322.5835,-75.57 316.2377,-75.9458 317.8571,-79.8211"/>
</g>
<!-- src/serialize.js&#45;&gt;child_process -->
<g id="edge60" class="edge">
<title>src/serialize.js&#45;&gt;child_process</title>
<path fill="none" stroke="#000000" stroke-dasharray="5,2" stroke-opacity="0.200000" d="M259.4307,-460.7882C270.9336,-468.2813 285.6808,-480.0534 293,-494.7208 311.4015,-531.597 280.5225,-647.3269 306,-679.7208 306.5885,-680.469 307.217,-681.178 307.8807,-681.8497"/>
<polygon fill="#000000" fill-opacity="0.200000" stroke="#000000" stroke-opacity="0.200000" points="306.7321,-683.6217 312.7174,-685.7635 309.3742,-680.3567 306.7321,-683.6217"/>
</g>
<!-- src/troupe.ts -->
<g id="node38" class="node">
<title>src/troupe.ts</title>
<g id="a_node38"><a xlink:href="src/troupe.ts" xlink:title="troupe.ts">
<path fill="#ddfeff" stroke="#000000" d="M64,-350.7208C64,-350.7208 22,-350.7208 22,-350.7208 19,-350.7208 16,-347.7208 16,-344.7208 16,-344.7208 16,-338.7208 16,-338.7208 16,-335.7208 19,-332.7208 22,-332.7208 22,-332.7208 64,-332.7208 64,-332.7208 67,-332.7208 70,-335.7208 70,-338.7208 70,-338.7208 70,-344.7208 70,-344.7208 70,-347.7208 67,-350.7208 64,-350.7208"/>
<text text-anchor="middle" x="43" y="-339.5208" font-family="Helvetica,sans-Serif" font-size="9.00" fill="#000000">troupe.ts</text>
</a>
</g>
</g>
<!-- src/troupe.ts&#45;&gt;src/runtimeMonitored.js -->
<g id="edge61" class="edge">
<title>src/troupe.ts&#45;&gt;src/runtimeMonitored.js</title>
<path fill="none" stroke="#000000" stroke-width="2" stroke-opacity="0.200000" d="M70.1865,-341.7208C72.3591,-341.7208 74.5969,-341.7208 76.8742,-341.7208"/>
<polygon fill="#000000" fill-opacity="0.200000" stroke="#000000" stroke-width="2" stroke-opacity="0.200000" points="76.9766,-343.8209 82.9766,-341.7208 76.9765,-339.6209 76.9766,-343.8209"/>
</g>
</g>
</svg>
