<?xml version="1.0" encoding="UTF-8" standalone="no"?>
<!DOCTYPE svg PUBLIC "-//W3C//DTD SVG 1.1//EN"
 "http://www.w3.org/Graphics/SVG/1.1/DTD/svg11.dtd">
<!-- Generated by graphviz version 2.40.1 (20161225.0304)
 -->
<!-- Title: dependency&#45;cruiser output Pages: 1 -->
<svg width="528pt" height="974pt"
 viewBox="0.00 0.00 528.00 974.00" xmlns="http://www.w3.org/2000/svg" xmlns:xlink="http://www.w3.org/1999/xlink">
<g id="graph0" class="graph" transform="scale(1 1) rotate(0) translate(4 970)">
<title>dependency&#45;cruiser output</title>
<polygon fill="#ffffff" stroke="transparent" points="-4,4 -4,-970 524,-970 524,4 -4,4"/>
<g id="clust1" class="cluster">
<title>cluster_..</title>
<path fill="#ffffff" stroke="#000000" stroke-width="2" d="M243.5,-858C243.5,-858 289.5,-858 289.5,-858 295.5,-858 301.5,-864 301.5,-870 301.5,-870 301.5,-898 301.5,-898 301.5,-904 295.5,-910 289.5,-910 289.5,-910 243.5,-910 243.5,-910 237.5,-910 231.5,-904 231.5,-898 231.5,-898 231.5,-870 231.5,-870 231.5,-864 237.5,-858 243.5,-858"/>
<text text-anchor="middle" x="266.5" y="-898.8" font-family="Helvetica,sans-Serif" font-weight="bold" font-size="9.00" fill="#000000">..</text>
</g>
<g id="clust2" class="cluster">
<title>cluster_src</title>
<path fill="#ffffff" stroke="#000000" stroke-width="2" d="M20,-206C20,-206 500,-206 500,-206 506,-206 512,-212 512,-218 512,-218 512,-838 512,-838 512,-844 506,-850 500,-850 500,-850 20,-850 20,-850 14,-850 8,-844 8,-838 8,-838 8,-218 8,-218 8,-212 14,-206 20,-206"/>
<text text-anchor="middle" x="260" y="-838.8" font-family="Helvetica,sans-Serif" font-weight="bold" font-size="9.00" fill="#000000">src</text>
</g>
<g id="clust3" class="cluster">
<title>cluster_src/levels</title>
<path fill="#ffffff" stroke="#000000" stroke-width="2" d="M131.5,-742C131.5,-742 178.5,-742 178.5,-742 184.5,-742 190.5,-748 190.5,-754 190.5,-754 190.5,-812 190.5,-812 190.5,-818 184.5,-824 178.5,-824 178.5,-824 131.5,-824 131.5,-824 125.5,-824 119.5,-818 119.5,-812 119.5,-812 119.5,-754 119.5,-754 119.5,-748 125.5,-742 131.5,-742"/>
<text text-anchor="middle" x="155" y="-812.8" font-family="Helvetica,sans-Serif" font-weight="bold" font-size="9.00" fill="#000000">levels</text>
</g>
<g id="clust4" class="cluster">
<title>cluster_src/p2p</title>
<path fill="#ffffff" stroke="#000000" stroke-width="2" d="M243.5,-582C243.5,-582 492,-582 492,-582 498,-582 504,-588 504,-594 504,-594 504,-652 504,-652 504,-658 498,-664 492,-664 492,-664 243.5,-664 243.5,-664 237.5,-664 231.5,-658 231.5,-652 231.5,-652 231.5,-594 231.5,-594 231.5,-588 237.5,-582 243.5,-582"/>
<text text-anchor="middle" x="367.75" y="-652.8" font-family="Helvetica,sans-Serif" font-weight="bold" font-size="9.00" fill="#000000">p2p</text>
</g>
<!-- ../Level.js -->
<g id="node1" class="node">
<title>../Level.js</title>
<path fill="#ffffcc" stroke="#ff0000" d="M287.5,-884C287.5,-884 245.5,-884 245.5,-884 242.5,-884 239.5,-881 239.5,-878 239.5,-878 239.5,-872 239.5,-872 239.5,-869 242.5,-866 245.5,-866 245.5,-866 287.5,-866 287.5,-866 290.5,-866 293.5,-869 293.5,-872 293.5,-872 293.5,-878 293.5,-878 293.5,-881 290.5,-884 287.5,-884"/>
<text text-anchor="middle" x="266.5" y="-872.8" font-family="Helvetica,sans-Serif" font-size="9.00" fill="#ff0000">Level.js</text>
</g>
<!-- ./Authority.js -->
<g id="node2" class="node">
<title>./Authority.js</title>
<path fill="#ffffcc" stroke="#ff0000" d="M398,-876C398,-876 348,-876 348,-876 345,-876 342,-873 342,-870 342,-870 342,-864 342,-864 342,-861 345,-858 348,-858 348,-858 398,-858 398,-858 401,-858 404,-861 404,-864 404,-864 404,-870 404,-870 404,-873 401,-876 398,-876"/>
<text text-anchor="middle" x="373" y="-864.8" font-family="Helvetica,sans-Serif" font-size="9.00" fill="#ff0000">Authority.js</text>
</g>
<!-- ./BaseFunction.js -->
<g id="node3" class="node">
<title>./BaseFunction.js</title>
<path fill="#ffffcc" stroke="#ff0000" d="M408,-906C408,-906 338,-906 338,-906 335,-906 332,-903 332,-900 332,-900 332,-894 332,-894 332,-891 335,-888 338,-888 338,-888 408,-888 408,-888 411,-888 414,-891 414,-894 414,-894 414,-900 414,-900 414,-903 411,-906 408,-906"/>
<text text-anchor="middle" x="373" y="-894.8" font-family="Helvetica,sans-Serif" font-size="9.00" fill="#ff0000">BaseFunction.js</text>
</g>
<!-- ./Lval.js -->
<g id="node4" class="node">
<title>./Lval.js</title>
<path fill="#ffffcc" stroke="#ff0000" d="M394,-198C394,-198 352,-198 352,-198 349,-198 346,-195 346,-192 346,-192 346,-186 346,-186 346,-183 349,-180 352,-180 352,-180 394,-180 394,-180 397,-180 400,-183 400,-186 400,-186 400,-192 400,-192 400,-195 397,-198 394,-198"/>
<text text-anchor="middle" x="373" y="-186.8" font-family="Helvetica,sans-Serif" font-size="9.00" fill="#ff0000">Lval.js</text>
</g>
<!-- ./SandboxStatus.js -->
<g id="node5" class="node">
<title>./SandboxStatus.js</title>
<path fill="#ffffcc" stroke="#ff0000" d="M411,-138C411,-138 335,-138 335,-138 332,-138 329,-135 329,-132 329,-132 329,-126 329,-126 329,-123 332,-120 335,-120 335,-120 411,-120 411,-120 414,-120 417,-123 417,-126 417,-126 417,-132 417,-132 417,-135 414,-138 411,-138"/>
<text text-anchor="middle" x="373" y="-126.8" font-family="Helvetica,sans-Serif" font-size="9.00" fill="#ff0000">SandboxStatus.js</text>
</g>
<!-- ./Thread.js -->
<g id="node6" class="node">
<title>./Thread.js</title>
<path fill="#ffffcc" stroke="#ff0000" d="M394.5,-168C394.5,-168 351.5,-168 351.5,-168 348.5,-168 345.5,-165 345.5,-162 345.5,-162 345.5,-156 345.5,-156 345.5,-153 348.5,-150 351.5,-150 351.5,-150 394.5,-150 394.5,-150 397.5,-150 400.5,-153 400.5,-156 400.5,-156 400.5,-162 400.5,-162 400.5,-165 397.5,-168 394.5,-168"/>
<text text-anchor="middle" x="373" y="-156.8" font-family="Helvetica,sans-Serif" font-size="9.00" fill="#ff0000">Thread.js</text>
</g>
<!-- ./ThreadError.js -->
<g id="node7" class="node">
<title>./ThreadError.js</title>
<path fill="#ffffcc" stroke="#ff0000" d="M404.5,-936C404.5,-936 341.5,-936 341.5,-936 338.5,-936 335.5,-933 335.5,-930 335.5,-930 335.5,-924 335.5,-924 335.5,-921 338.5,-918 341.5,-918 341.5,-918 404.5,-918 404.5,-918 407.5,-918 410.5,-921 410.5,-924 410.5,-924 410.5,-930 410.5,-930 410.5,-933 407.5,-936 404.5,-936"/>
<text text-anchor="middle" x="373" y="-924.8" font-family="Helvetica,sans-Serif" font-size="9.00" fill="#ff0000">ThreadError.js</text>
</g>
<!-- ./options.js -->
<g id="node8" class="node">
<title>./options.js</title>
<path fill="#ffffcc" stroke="#ff0000" d="M395,-48C395,-48 351,-48 351,-48 348,-48 345,-45 345,-42 345,-42 345,-36 345,-36 345,-33 348,-30 351,-30 351,-30 395,-30 395,-30 398,-30 401,-33 401,-36 401,-36 401,-42 401,-42 401,-45 398,-48 395,-48"/>
<text text-anchor="middle" x="373" y="-36.8" font-family="Helvetica,sans-Serif" font-size="9.00" fill="#ff0000">options.js</text>
</g>
<!-- assert -->
<g id="node9" class="node">
<title>assert</title>
<path fill="#ffffcc" stroke="#c0c0c0" d="M394,-108C394,-108 352,-108 352,-108 349,-108 346,-105 346,-102 346,-102 346,-96 346,-96 346,-93 349,-90 352,-90 352,-90 394,-90 394,-90 397,-90 400,-93 400,-96 400,-96 400,-102 400,-102 400,-105 397,-108 394,-108"/>
<text text-anchor="middle" x="373" y="-96.8" font-family="Helvetica,sans-Serif" font-size="9.00" fill="#c0c0c0">assert</text>
</g>
<!-- child_process -->
<g id="node10" class="node">
<title>child_process</title>
<path fill="#ffffcc" stroke="#c0c0c0" d="M404,-966C404,-966 342,-966 342,-966 339,-966 336,-963 336,-960 336,-960 336,-954 336,-954 336,-951 339,-948 342,-948 342,-948 404,-948 404,-948 407,-948 410,-951 410,-954 410,-954 410,-960 410,-960 410,-963 407,-966 404,-966"/>
<text text-anchor="middle" x="373" y="-954.8" font-family="Helvetica,sans-Serif" font-size="9.00" fill="#c0c0c0">child_process</text>
</g>
<!-- fs -->
<g id="node11" class="node">
<title>fs</title>
<path fill="#ffffcc" stroke="#c0c0c0" d="M394,-18C394,-18 352,-18 352,-18 349,-18 346,-15 346,-12 346,-12 346,-6 346,-6 346,-3 349,0 352,0 352,0 394,0 394,0 397,0 400,-3 400,-6 400,-6 400,-12 400,-12 400,-15 397,-18 394,-18"/>
<text text-anchor="middle" x="373" y="-6.8" font-family="Helvetica,sans-Serif" font-size="9.00" fill="#c0c0c0">fs</text>
</g>
<!-- os -->
<g id="node12" class="node">
<title>os</title>
<path fill="#ffffcc" stroke="#c0c0c0" d="M287.5,-176C287.5,-176 245.5,-176 245.5,-176 242.5,-176 239.5,-173 239.5,-170 239.5,-170 239.5,-164 239.5,-164 239.5,-161 242.5,-158 245.5,-158 245.5,-158 287.5,-158 287.5,-158 290.5,-158 293.5,-161 293.5,-164 293.5,-164 293.5,-170 293.5,-170 293.5,-173 290.5,-176 287.5,-176"/>
<text text-anchor="middle" x="266.5" y="-164.8" font-family="Helvetica,sans-Serif" font-size="9.00" fill="#c0c0c0">os</text>
</g>
<!-- readline -->
<g id="node13" class="node">
<title>readline</title>
<path fill="#ffffcc" stroke="#c0c0c0" d="M287.5,-146C287.5,-146 245.5,-146 245.5,-146 242.5,-146 239.5,-143 239.5,-140 239.5,-140 239.5,-134 239.5,-134 239.5,-131 242.5,-128 245.5,-128 245.5,-128 287.5,-128 287.5,-128 290.5,-128 293.5,-131 293.5,-134 293.5,-134 293.5,-140 293.5,-140 293.5,-143 290.5,-146 287.5,-146"/>
<text text-anchor="middle" x="266.5" y="-134.8" font-family="Helvetica,sans-Serif" font-size="9.00" fill="#c0c0c0">readline</text>
</g>
<!-- src/Authority.ts -->
<g id="node14" class="node">
<title>src/Authority.ts</title>
<g id="a_node14"><a xlink:href="src/Authority.ts" xlink:title="Authority.ts">
<path fill="#ddfeff" stroke="#000000" d="M291.5,-292C291.5,-292 241.5,-292 241.5,-292 238.5,-292 235.5,-289 235.5,-286 235.5,-286 235.5,-280 235.5,-280 235.5,-277 238.5,-274 241.5,-274 241.5,-274 291.5,-274 291.5,-274 294.5,-274 297.5,-277 297.5,-280 297.5,-280 297.5,-286 297.5,-286 297.5,-289 294.5,-292 291.5,-292"/>
<text text-anchor="middle" x="266.5" y="-280.8" font-family="Helvetica,sans-Serif" font-size="9.00" fill="#000000">Authority.ts</text>
</a>
</g>
</g>
<!-- src/BaseFunction.ts -->
<g id="node15" class="node">
<title>src/BaseFunction.ts</title>
<g id="a_node15"><a xlink:href="src/BaseFunction.ts" xlink:title="BaseFunction.ts">
<path fill="#ddfeff" stroke="#000000" d="M301.5,-322C301.5,-322 231.5,-322 231.5,-322 228.5,-322 225.5,-319 225.5,-316 225.5,-316 225.5,-310 225.5,-310 225.5,-307 228.5,-304 231.5,-304 231.5,-304 301.5,-304 301.5,-304 304.5,-304 307.5,-307 307.5,-310 307.5,-310 307.5,-316 307.5,-316 307.5,-319 304.5,-322 301.5,-322"/>
<text text-anchor="middle" x="266.5" y="-310.8" font-family="Helvetica,sans-Serif" font-size="9.00" fill="#000000">BaseFunction.ts</text>
</a>
</g>
</g>
<!-- src/BaseKont.js -->
<g id="node16" class="node">
<title>src/BaseKont.js</title>
<g id="a_node16"><a xlink:href="src/BaseKont.js" xlink:title="BaseKont.js">
<path fill="#ffffcc" stroke="#000000" d="M399.5,-499C399.5,-499 346.5,-499 346.5,-499 343.5,-499 340.5,-496 340.5,-493 340.5,-493 340.5,-487 340.5,-487 340.5,-484 343.5,-481 346.5,-481 346.5,-481 399.5,-481 399.5,-481 402.5,-481 405.5,-484 405.5,-487 405.5,-487 405.5,-493 405.5,-493 405.5,-496 402.5,-499 399.5,-499"/>
<text text-anchor="middle" x="373" y="-487.8" font-family="Helvetica,sans-Serif" font-size="9.00" fill="#000000">BaseKont.js</text>
</a>
</g>
</g>
<!-- src/Level.ts -->
<g id="node17" class="node">
<title>src/Level.ts</title>
<g id="a_node17"><a xlink:href="src/Level.ts" xlink:title="Level.ts">
<path fill="#ddfeff" stroke="#000000" d="M287.5,-750C287.5,-750 245.5,-750 245.5,-750 242.5,-750 239.5,-747 239.5,-744 239.5,-744 239.5,-738 239.5,-738 239.5,-735 242.5,-732 245.5,-732 245.5,-732 287.5,-732 287.5,-732 290.5,-732 293.5,-735 293.5,-738 293.5,-738 293.5,-744 293.5,-744 293.5,-747 290.5,-750 287.5,-750"/>
<text text-anchor="middle" x="266.5" y="-738.8" font-family="Helvetica,sans-Serif" font-size="9.00" fill="#000000">Level.ts</text>
</a>
</g>
</g>
<!-- src/Lval.ts -->
<g id="node18" class="node">
<title>src/Lval.ts</title>
<g id="a_node18"><a xlink:href="src/Lval.ts" xlink:title="Lval.ts">
<path fill="#ddfeff" stroke="#000000" d="M287.5,-574C287.5,-574 245.5,-574 245.5,-574 242.5,-574 239.5,-571 239.5,-568 239.5,-568 239.5,-562 239.5,-562 239.5,-559 242.5,-556 245.5,-556 245.5,-556 287.5,-556 287.5,-556 290.5,-556 293.5,-559 293.5,-562 293.5,-562 293.5,-568 293.5,-568 293.5,-571 290.5,-574 287.5,-574"/>
<text text-anchor="middle" x="266.5" y="-562.8" font-family="Helvetica,sans-Serif" font-size="9.00" fill="#000000">Lval.ts</text>
</a>
</g>
</g>
<!-- src/MailboxProcessor.js -->
<g id="node19" class="node">
<title>src/MailboxProcessor.js</title>
<g id="a_node19"><a xlink:href="src/MailboxProcessor.js" xlink:title="MailboxProcessor.js">
<path fill="#ffffcc" stroke="#000000" d="M310,-352C310,-352 223,-352 223,-352 220,-352 217,-349 217,-346 217,-346 217,-340 217,-340 217,-337 220,-334 223,-334 223,-334 310,-334 310,-334 313,-334 316,-337 316,-340 316,-340 316,-346 316,-346 316,-349 313,-352 310,-352"/>
<text text-anchor="middle" x="266.5" y="-340.8" font-family="Helvetica,sans-Serif" font-size="9.00" fill="#000000">MailboxProcessor.js</text>
</a>
</g>
</g>
<!-- src/MailboxProcessor.js&#45;&gt;./Lval.js -->
<g id="edge2" class="edge">
<title>src/MailboxProcessor.js&#45;&gt;./Lval.js</title>
<path fill="none" stroke="#000000" stroke-width="2" stroke-opacity="0.200000" d="M309.6714,-333.7344C312.0253,-332.1124 314.1707,-330.216 316,-328 351.558,-284.9253 293.7405,-246.3194 329,-203 331.9888,-199.328 335.9405,-196.6052 340.2518,-194.589"/>
<polygon fill="#000000" fill-opacity="0.200000" stroke="#000000" stroke-width="2" stroke-opacity="0.200000" points="341.0373,-196.5367 345.8596,-192.3948 339.5069,-192.6255 341.0373,-196.5367"/>
</g>
<!-- src/MailboxProcessor.js&#45;&gt;./SandboxStatus.js -->
<g id="edge5" class="edge">
<title>src/MailboxProcessor.js&#45;&gt;./SandboxStatus.js</title>
<path fill="none" stroke="#000000" stroke-width="2" stroke-opacity="0.200000" d="M309.7562,-333.8032C312.0899,-332.1648 314.2076,-330.246 316,-328 341.5686,-295.961 303.9849,-176.473 329,-144 329.4433,-143.4246 329.9097,-142.8711 330.3973,-142.3387"/>
<polygon fill="#000000" fill-opacity="0.200000" stroke="#000000" stroke-width="2" stroke-opacity="0.200000" points="332.1357,-143.6109 335.294,-138.094 329.3847,-140.4373 332.1357,-143.6109"/>
</g>
<!-- src/MailboxProcessor.js&#45;&gt;./Thread.js -->
<g id="edge6" class="edge">
<title>src/MailboxProcessor.js&#45;&gt;./Thread.js</title>
<path fill="none" stroke="#000000" stroke-width="2" stroke-opacity="0.200000" d="M309.721,-333.7749C312.0631,-332.1433 314.1923,-330.2336 316,-328 337.6056,-301.3035 307.8556,-201.0633 329,-174 331.8011,-170.4147 335.5023,-167.6811 339.5713,-165.5979"/>
<polygon fill="#000000" fill-opacity="0.200000" stroke="#000000" stroke-width="2" stroke-opacity="0.200000" points="340.6118,-167.4367 345.298,-163.1414 338.956,-163.5768 340.6118,-167.4367"/>
</g>
<!-- src/MailboxProcessor.js&#45;&gt;./options.js -->
<g id="edge3" class="edge">
<title>src/MailboxProcessor.js&#45;&gt;./options.js</title>
<path fill="none" stroke="#000000" stroke-width="2" stroke-opacity="0.200000" d="M309.8161,-333.8505C312.1356,-332.2008 314.2337,-330.2665 316,-328 353.4695,-279.9185 292.361,-102.7174 329,-54 331.668,-50.4525 335.2205,-47.7369 339.1544,-45.6596"/>
<polygon fill="#000000" fill-opacity="0.200000" stroke="#000000" stroke-width="2" stroke-opacity="0.200000" points="340.0694,-47.5512 344.7078,-43.2042 338.371,-43.7099 340.0694,-47.5512"/>
</g>
<!-- src/logger.js -->
<g id="node20" class="node">
<title>src/logger.js</title>
<g id="a_node20"><a xlink:href="src/logger.js" xlink:title="logger.js">
<path fill="#ffffcc" stroke="#000000" d="M394,-469C394,-469 352,-469 352,-469 349,-469 346,-466 346,-463 346,-463 346,-457 346,-457 346,-454 349,-451 352,-451 352,-451 394,-451 394,-451 397,-451 400,-454 400,-457 400,-457 400,-463 400,-463 400,-466 397,-469 394,-469"/>
<text text-anchor="middle" x="373" y="-457.8" font-family="Helvetica,sans-Serif" font-size="9.00" fill="#000000">logger.js</text>
</a>
</g>
</g>
<!-- src/MailboxProcessor.js&#45;&gt;src/logger.js -->
<g id="edge1" class="edge">
<title>src/MailboxProcessor.js&#45;&gt;src/logger.js</title>
<path fill="none" stroke="#000000" stroke-width="2" stroke-opacity="0.200000" d="M279.7654,-352.0743C290.9921,-360.4218 306.6988,-373.7859 316,-389 327.0816,-407.1261 315.8944,-418.2787 329,-435 333.0665,-440.1884 338.529,-444.483 344.2198,-447.9621"/>
<polygon fill="#000000" fill-opacity="0.200000" stroke="#000000" stroke-width="2" stroke-opacity="0.200000" points="343.2196,-449.8089 349.4768,-450.9301 345.2845,-446.1515 343.2196,-449.8089"/>
</g>
<!-- src/process.js -->
<g id="node21" class="node">
<title>src/process.js</title>
<g id="a_node21"><a xlink:href="src/process.js" xlink:title="process.js">
<path fill="#ffffcc" stroke="#000000" d="M396,-374C396,-374 350,-374 350,-374 347,-374 344,-371 344,-368 344,-368 344,-362 344,-362 344,-359 347,-356 350,-356 350,-356 396,-356 396,-356 399,-356 402,-359 402,-362 402,-362 402,-368 402,-368 402,-371 399,-374 396,-374"/>
<text text-anchor="middle" x="373" y="-362.8" font-family="Helvetica,sans-Serif" font-size="9.00" fill="#000000">process.js</text>
</a>
</g>
</g>
<!-- src/MailboxProcessor.js&#45;&gt;src/process.js -->
<g id="edge4" class="edge">
<title>src/MailboxProcessor.js&#45;&gt;src/process.js</title>
<path fill="none" stroke="#000000" stroke-width="2" stroke-opacity="0.200000" d="M310.1249,-352.0117C319.3662,-353.9207 329.0076,-355.9124 337.8853,-357.7463"/>
<polygon fill="#000000" fill-opacity="0.200000" stroke="#000000" stroke-width="2" stroke-opacity="0.200000" points="337.5943,-359.8304 343.8951,-358.9877 338.444,-355.7173 337.5943,-359.8304"/>
</g>
<!-- src/NodeManager.js -->
<g id="node22" class="node">
<title>src/NodeManager.js</title>
<g id="a_node22"><a xlink:href="src/NodeManager.js" xlink:title="NodeManager.js">
<path fill="#ffffcc" stroke="#000000" d="M303,-424C303,-424 230,-424 230,-424 227,-424 224,-421 224,-418 224,-418 224,-412 224,-412 224,-409 227,-406 230,-406 230,-406 303,-406 303,-406 306,-406 309,-409 309,-412 309,-412 309,-418 309,-418 309,-421 306,-424 303,-424"/>
<text text-anchor="middle" x="266.5" y="-412.8" font-family="Helvetica,sans-Serif" font-size="9.00" fill="#000000">NodeManager.js</text>
</a>
</g>
</g>
<!-- src/RtClosure.js -->
<g id="node23" class="node">
<title>src/RtClosure.js</title>
<g id="a_node23"><a xlink:href="src/RtClosure.js" xlink:title="RtClosure.js">
<path fill="#ffffcc" stroke="#000000" d="M294,-514C294,-514 239,-514 239,-514 236,-514 233,-511 233,-508 233,-508 233,-502 233,-502 233,-499 236,-496 239,-496 239,-496 294,-496 294,-496 297,-496 300,-499 300,-502 300,-502 300,-508 300,-508 300,-511 297,-514 294,-514"/>
<text text-anchor="middle" x="266.5" y="-502.8" font-family="Helvetica,sans-Serif" font-size="9.00" fill="#000000">RtClosure.js</text>
</a>
</g>
</g>
<!-- src/SandboxStatus.ts -->
<g id="node24" class="node">
<title>src/SandboxStatus.ts</title>
<g id="a_node24"><a xlink:href="src/SandboxStatus.ts" xlink:title="SandboxStatus.ts">
<path fill="#ddfeff" stroke="#000000" d="M304.5,-544C304.5,-544 228.5,-544 228.5,-544 225.5,-544 222.5,-541 222.5,-538 222.5,-538 222.5,-532 222.5,-532 222.5,-529 225.5,-526 228.5,-526 228.5,-526 304.5,-526 304.5,-526 307.5,-526 310.5,-529 310.5,-532 310.5,-532 310.5,-538 310.5,-538 310.5,-541 307.5,-544 304.5,-544"/>
<text text-anchor="middle" x="266.5" y="-532.8" font-family="Helvetica,sans-Serif" font-size="9.00" fill="#000000">SandboxStatus.ts</text>
</a>
</g>
</g>
<!-- src/Scheduler.js -->
<g id="node25" class="node">
<title>src/Scheduler.js</title>
<g id="a_node25"><a xlink:href="src/Scheduler.js" xlink:title="Scheduler.js">
<path fill="#ffffcc" stroke="#000000" d="M294.5,-484C294.5,-484 238.5,-484 238.5,-484 235.5,-484 232.5,-481 232.5,-478 232.5,-478 232.5,-472 232.5,-472 232.5,-469 235.5,-466 238.5,-466 238.5,-466 294.5,-466 294.5,-466 297.5,-466 300.5,-469 300.5,-472 300.5,-472 300.5,-478 300.5,-478 300.5,-481 297.5,-484 294.5,-484"/>
<text text-anchor="middle" x="266.5" y="-472.8" font-family="Helvetica,sans-Serif" font-size="9.00" fill="#000000">Scheduler.js</text>
</a>
</g>
</g>
<!-- src/Scheduler.js&#45;&gt;./Authority.js -->
<g id="edge7" class="edge">
<title>src/Scheduler.js&#45;&gt;./Authority.js</title>
<path fill="none" stroke="#000000" stroke-width="2" stroke-opacity="0.200000" d="M300.7008,-479.4767C306.5916,-481.7472 312.0723,-485.0924 316,-490 328.3218,-505.396 326.152,-647.4871 329,-667 339.2052,-736.9199 360.0853,-818.822 368.9138,-851.9571"/>
<polygon fill="#000000" fill-opacity="0.200000" stroke="#000000" stroke-width="2" stroke-opacity="0.200000" points="366.9293,-852.6649 370.5121,-857.916 370.9859,-851.5767 366.9293,-852.6649"/>
</g>
<!-- src/Scheduler.js&#45;&gt;./BaseFunction.js -->
<g id="edge8" class="edge">
<title>src/Scheduler.js&#45;&gt;./BaseFunction.js</title>
<path fill="none" stroke="#000000" stroke-width="2" stroke-opacity="0.200000" d="M300.6059,-479.2563C306.5803,-481.5377 312.117,-484.9433 316,-490 342.5419,-524.5644 303.0551,-846.9852 329,-882 329.4324,-882.5836 329.8888,-883.1447 330.367,-883.6842"/>
<polygon fill="#000000" fill-opacity="0.200000" stroke="#000000" stroke-width="2" stroke-opacity="0.200000" points="329.3184,-885.5618 335.198,-887.9785 332.1088,-882.4227 329.3184,-885.5618"/>
</g>
<!-- src/Scheduler.js&#45;&gt;./Lval.js -->
<g id="edge11" class="edge">
<title>src/Scheduler.js&#45;&gt;./Lval.js</title>
<path fill="none" stroke="#000000" stroke-width="2" stroke-opacity="0.200000" d="M300.5373,-470.6905C306.517,-468.4132 312.0732,-465.0227 316,-460 351.2208,-414.9498 294.0913,-248.2925 329,-203 331.8903,-199.25 335.789,-196.4851 340.0769,-194.4504"/>
<polygon fill="#000000" fill-opacity="0.200000" stroke="#000000" stroke-width="2" stroke-opacity="0.200000" points="340.8588,-196.3996 345.6699,-192.2445 339.3178,-192.4925 340.8588,-196.3996"/>
</g>
<!-- src/Scheduler.js&#45;&gt;./SandboxStatus.js -->
<g id="edge14" class="edge">
<title>src/Scheduler.js&#45;&gt;./SandboxStatus.js</title>
<path fill="none" stroke="#000000" stroke-width="2" stroke-opacity="0.200000" d="M300.5744,-470.7194C306.5513,-468.4399 312.0969,-465.0412 316,-460 337.5132,-432.214 307.9668,-172.151 329,-144 329.4348,-143.4181 329.8933,-142.8586 330.3735,-142.3206"/>
<polygon fill="#000000" fill-opacity="0.200000" stroke="#000000" stroke-width="2" stroke-opacity="0.200000" points="332.1146,-143.5844 335.2185,-138.0368 329.3325,-140.4379 332.1146,-143.5844"/>
</g>
<!-- src/Scheduler.js&#45;&gt;./Thread.js -->
<g id="edge15" class="edge">
<title>src/Scheduler.js&#45;&gt;./Thread.js</title>
<path fill="none" stroke="#000000" stroke-width="2" stroke-opacity="0.200000" d="M300.5574,-470.7062C306.5356,-468.4277 312.086,-465.0328 316,-460 335.5285,-434.8893 309.9052,-199.4421 329,-174 331.7311,-170.3611 335.3931,-167.5974 339.4435,-165.5"/>
<polygon fill="#000000" fill-opacity="0.200000" stroke="#000000" stroke-width="2" stroke-opacity="0.200000" points="340.4807,-167.3396 345.1567,-163.0332 338.8158,-163.4837 340.4807,-167.3396"/>
</g>
<!-- src/Scheduler.js&#45;&gt;./ThreadError.js -->
<g id="edge16" class="edge">
<title>src/Scheduler.js&#45;&gt;./ThreadError.js</title>
<path fill="none" stroke="#000000" stroke-width="2" stroke-opacity="0.200000" d="M300.6153,-479.2492C306.5889,-481.5311 312.123,-484.9388 316,-490 344.5272,-527.2405 301.116,-874.2755 329,-912 329.4317,-912.5841 329.8875,-913.1457 330.3651,-913.6856"/>
<polygon fill="#000000" fill-opacity="0.200000" stroke="#000000" stroke-width="2" stroke-opacity="0.200000" points="329.3142,-915.5617 335.1919,-917.983 332.107,-912.4248 329.3142,-915.5617"/>
</g>
<!-- src/Scheduler.js&#45;&gt;./options.js -->
<g id="edge12" class="edge">
<title>src/Scheduler.js&#45;&gt;./options.js</title>
<path fill="none" stroke="#000000" stroke-width="2" stroke-opacity="0.200000" d="M300.6105,-470.7471C306.5845,-468.4655 312.1199,-465.0589 316,-460 343.4683,-424.1868 302.1502,-90.2793 329,-54 331.6406,-50.432 335.1775,-47.7048 339.1037,-45.6218"/>
<polygon fill="#000000" fill-opacity="0.200000" stroke="#000000" stroke-width="2" stroke-opacity="0.200000" points="340.0175,-47.5139 344.6513,-43.1621 338.3151,-43.6743 340.0175,-47.5139"/>
</g>
<!-- src/Scheduler.js&#45;&gt;src/BaseKont.js -->
<g id="edge9" class="edge">
<title>src/Scheduler.js&#45;&gt;src/BaseKont.js</title>
<path fill="none" stroke="#000000" stroke-width="2" stroke-opacity="0.200000" d="M300.7835,-479.8287C311.4552,-481.3317 323.2959,-482.9994 334.2504,-484.5423"/>
<polygon fill="#000000" fill-opacity="0.200000" stroke="#000000" stroke-width="2" stroke-opacity="0.200000" points="333.9977,-486.6274 340.232,-485.3848 334.5835,-482.4684 333.9977,-486.6274"/>
</g>
<!-- src/Scheduler.js&#45;&gt;src/logger.js -->
<g id="edge10" class="edge">
<title>src/Scheduler.js&#45;&gt;src/logger.js</title>
<path fill="none" stroke="#000000" stroke-width="2" stroke-opacity="0.200000" d="M300.7835,-470.1713C313.325,-468.4049 327.4811,-466.4111 339.9158,-464.6597"/>
<polygon fill="#000000" fill-opacity="0.200000" stroke="#000000" stroke-width="2" stroke-opacity="0.200000" points="340.2188,-466.7379 345.8672,-463.8215 339.633,-462.5789 340.2188,-466.7379"/>
</g>
<!-- src/Scheduler.js&#45;&gt;src/process.js -->
<g id="edge13" class="edge">
<title>src/Scheduler.js&#45;&gt;src/process.js</title>
<path fill="none" stroke="#000000" stroke-width="2" stroke-opacity="0.200000" d="M300.6124,-469.8121C306.3658,-467.5939 311.8185,-464.4497 316,-460 333.2009,-441.6958 316.247,-426.6396 329,-405 335.2801,-394.3438 345.3196,-384.9006 354.2239,-377.8691"/>
<polygon fill="#000000" fill-opacity="0.200000" stroke="#000000" stroke-width="2" stroke-opacity="0.200000" points="355.519,-379.5225 359.0229,-374.2184 352.9761,-376.1797 355.519,-379.5225"/>
</g>
<!-- src/UnitBase.js -->
<g id="node26" class="node">
<title>src/UnitBase.js</title>
<g id="a_node26"><a xlink:href="src/UnitBase.js" xlink:title="UnitBase.js">
<path fill="#ffffcc" stroke="#000000" d="M398.5,-429C398.5,-429 347.5,-429 347.5,-429 344.5,-429 341.5,-426 341.5,-423 341.5,-423 341.5,-417 341.5,-417 341.5,-414 344.5,-411 347.5,-411 347.5,-411 398.5,-411 398.5,-411 401.5,-411 404.5,-414 404.5,-417 404.5,-417 404.5,-423 404.5,-423 404.5,-426 401.5,-429 398.5,-429"/>
<text text-anchor="middle" x="373" y="-417.8" font-family="Helvetica,sans-Serif" font-size="9.00" fill="#000000">UnitBase.js</text>
</a>
</g>
</g>
<!-- src/Scheduler.js&#45;&gt;src/UnitBase.js -->
<g id="edge17" class="edge">
<title>src/Scheduler.js&#45;&gt;src/UnitBase.js</title>
<path fill="none" stroke="#000000" stroke-width="2" stroke-opacity="0.200000" d="M300.6493,-467.4334C306.0176,-465.4721 311.3293,-463.0299 316,-460 323.4011,-455.1988 322.1776,-450.593 329,-445 334.839,-440.2132 341.7161,-435.8229 348.2764,-432.1024"/>
<polygon fill="#000000" fill-opacity="0.200000" stroke="#000000" stroke-width="2" stroke-opacity="0.200000" points="349.4296,-433.8652 353.6828,-429.1407 347.4116,-430.1817 349.4296,-433.8652"/>
</g>
<!-- src/StackCallItem.ts -->
<g id="node27" class="node">
<title>src/StackCallItem.ts</title>
<g id="a_node27"><a xlink:href="src/StackCallItem.ts" xlink:title="StackCallItem.ts">
<path fill="#ddfeff" stroke="#000000" d="M190,-561C190,-561 120,-561 120,-561 117,-561 114,-558 114,-555 114,-555 114,-549 114,-549 114,-546 117,-543 120,-543 120,-543 190,-543 190,-543 193,-543 196,-546 196,-549 196,-549 196,-555 196,-555 196,-558 193,-561 190,-561"/>
<text text-anchor="middle" x="155" y="-549.8" font-family="Helvetica,sans-Serif" font-size="9.00" fill="#000000">StackCallItem.ts</text>
</a>
</g>
</g>
<!-- src/StackCallItem.ts&#45;&gt;./options.js -->
<g id="edge18" class="edge">
<title>src/StackCallItem.ts&#45;&gt;./options.js</title>
<path fill="none" stroke="#000000" stroke-width="2" stroke-opacity="0.200000" d="M158.6304,-542.9274C168.0147,-519.0232 193.1028,-452.1497 204,-394 207.8159,-373.6374 203.7829,-223.9532 217,-208 246.0231,-172.9687 286.4299,-216.5708 316,-182 353.1684,-138.5461 293.4136,-98.7587 329,-54 331.7625,-50.5255 335.3689,-47.8516 339.3291,-45.7947"/>
<polygon fill="#000000" fill-opacity="0.200000" stroke="#000000" stroke-width="2" stroke-opacity="0.200000" points="340.2483,-47.6847 344.9026,-43.3549 338.5641,-43.8372 340.2483,-47.6847"/>
</g>
<!-- src/StackItem.ts -->
<g id="node28" class="node">
<title>src/StackItem.ts</title>
<g id="a_node28"><a xlink:href="src/StackItem.ts" xlink:title="StackItem.ts">
<path fill="#ddfeff" stroke="#000000" d="M293,-810C293,-810 240,-810 240,-810 237,-810 234,-807 234,-804 234,-804 234,-798 234,-798 234,-795 237,-792 240,-792 240,-792 293,-792 293,-792 296,-792 299,-795 299,-798 299,-798 299,-804 299,-804 299,-807 296,-810 293,-810"/>
<text text-anchor="middle" x="266.5" y="-798.8" font-family="Helvetica,sans-Serif" font-size="9.00" fill="#000000">StackItem.ts</text>
</a>
</g>
</g>
<!-- src/StackCallItem.ts&#45;&gt;src/StackItem.ts -->
<g id="edge19" class="edge">
<title>src/StackCallItem.ts&#45;&gt;src/StackItem.ts</title>
<path fill="none" stroke="#000000" stroke-width="2" stroke-opacity="0.200000" d="M158.3005,-561.1429C166.8889,-585.217 190.2207,-652.4651 204,-710 211.9814,-743.3259 194.3271,-760.3045 217,-786 220.133,-789.5507 224.0758,-792.2751 228.3617,-794.3629"/>
<polygon fill="#000000" fill-opacity="0.200000" stroke="#000000" stroke-width="2" stroke-opacity="0.200000" points="227.5924,-796.3173 233.9388,-796.6813 229.2046,-792.439 227.5924,-796.3173"/>
</g>
<!-- src/StackGuardItem.ts -->
<g id="node29" class="node">
<title>src/StackGuardItem.ts</title>
<g id="a_node29"><a xlink:href="src/StackGuardItem.ts" xlink:title="StackGuardItem.ts">
<path fill="#ddfeff" stroke="#000000" d="M194.5,-734C194.5,-734 115.5,-734 115.5,-734 112.5,-734 109.5,-731 109.5,-728 109.5,-728 109.5,-722 109.5,-722 109.5,-719 112.5,-716 115.5,-716 115.5,-716 194.5,-716 194.5,-716 197.5,-716 200.5,-719 200.5,-722 200.5,-722 200.5,-728 200.5,-728 200.5,-731 197.5,-734 194.5,-734"/>
<text text-anchor="middle" x="155" y="-722.8" font-family="Helvetica,sans-Serif" font-size="9.00" fill="#000000">StackGuardItem.ts</text>
</a>
</g>
</g>
<!-- src/StackGuardItem.ts&#45;&gt;src/StackItem.ts -->
<g id="edge20" class="edge">
<title>src/StackGuardItem.ts&#45;&gt;src/StackItem.ts</title>
<path fill="none" stroke="#000000" stroke-width="2" stroke-opacity="0.200000" d="M197.7694,-734.0617C200.0274,-735.48 202.1311,-737.1153 204,-739 219.2604,-754.3899 201.8627,-770.489 217,-786 220.1476,-789.2253 223.9635,-791.7625 228.0648,-793.7574"/>
<polygon fill="#000000" fill-opacity="0.200000" stroke="#000000" stroke-width="2" stroke-opacity="0.200000" points="227.4525,-795.7776 233.7982,-796.1554 229.0731,-791.9029 227.4525,-795.7776"/>
</g>
<!-- src/StackThread.ts -->
<g id="node30" class="node">
<title>src/StackThread.ts</title>
<g id="a_node30"><a xlink:href="src/StackThread.ts" xlink:title="StackThread.ts">
<path fill="#ddfeff" stroke="#000000" d="M87,-561C87,-561 22,-561 22,-561 19,-561 16,-558 16,-555 16,-555 16,-549 16,-549 16,-546 19,-543 22,-543 22,-543 87,-543 87,-543 90,-543 93,-546 93,-549 93,-549 93,-555 93,-555 93,-558 90,-561 87,-561"/>
<text text-anchor="middle" x="54.5" y="-549.8" font-family="Helvetica,sans-Serif" font-size="9.00" fill="#000000">StackThread.ts</text>
</a>
</g>
</g>
<!-- src/StackThread.ts&#45;&gt;src/StackCallItem.ts -->
<g id="edge21" class="edge">
<title>src/StackThread.ts&#45;&gt;src/StackCallItem.ts</title>
<path fill="none" stroke="#000000" stroke-width="2" stroke-opacity="0.200000" d="M93.0685,-552C97.8169,-552 102.7126,-552 107.573,-552"/>
<polygon fill="#000000" fill-opacity="0.200000" stroke="#000000" stroke-width="2" stroke-opacity="0.200000" points="107.6968,-554.1001 113.6968,-552 107.6968,-549.9001 107.6968,-554.1001"/>
</g>
<!-- src/Thread.ts -->
<g id="node31" class="node">
<title>src/Thread.ts</title>
<g id="a_node31"><a xlink:href="src/Thread.ts" xlink:title="Thread.ts">
<path fill="#ddfeff" stroke="#000000" d="M288,-780C288,-780 245,-780 245,-780 242,-780 239,-777 239,-774 239,-774 239,-768 239,-768 239,-765 242,-762 245,-762 245,-762 288,-762 288,-762 291,-762 294,-765 294,-768 294,-768 294,-774 294,-774 294,-777 291,-780 288,-780"/>
<text text-anchor="middle" x="266.5" y="-768.8" font-family="Helvetica,sans-Serif" font-size="9.00" fill="#000000">Thread.ts</text>
</a>
</g>
</g>
<!-- src/Thread.ts&#45;&gt;./Lval.js -->
<g id="edge23" class="edge">
<title>src/Thread.ts&#45;&gt;./Lval.js</title>
<path fill="none" stroke="#000000" stroke-width="2" stroke-opacity="0.200000" d="M294.224,-768.788C302.5175,-766.6874 310.7828,-762.8624 316,-756 353.1972,-707.0728 292.1417,-252.1831 329,-203 331.8393,-199.2113 335.7106,-196.4255 339.9864,-194.3817"/>
<polygon fill="#000000" fill-opacity="0.200000" stroke="#000000" stroke-width="2" stroke-opacity="0.200000" points="340.7664,-196.3316 345.5717,-192.1699 339.22,-192.4266 340.7664,-196.3316"/>
</g>
<!-- src/Thread.ts&#45;&gt;./ThreadError.js -->
<g id="edge24" class="edge">
<title>src/Thread.ts&#45;&gt;./ThreadError.js</title>
<path fill="none" stroke="#000000" stroke-width="2" stroke-opacity="0.200000" d="M294.1685,-773.5274C302.3559,-775.6567 310.572,-779.419 316,-786 351.8217,-829.4303 293.9288,-867.9615 329,-912 329.4525,-912.5682 329.9276,-913.115 330.423,-913.6411"/>
<polygon fill="#000000" fill-opacity="0.200000" stroke="#000000" stroke-width="2" stroke-opacity="0.200000" points="329.4416,-915.5624 335.3758,-917.8419 332.1584,-912.3593 329.4416,-915.5624"/>
</g>
<!-- src/Thread.ts&#45;&gt;src/logger.js -->
<g id="edge22" class="edge">
<title>src/Thread.ts&#45;&gt;src/logger.js</title>
<path fill="none" stroke="#000000" stroke-width="2" stroke-opacity="0.200000" d="M294.133,-768.718C302.4205,-766.6128 310.7051,-762.8027 316,-756 354.3956,-706.6702 291.4565,-524.9814 329,-475 331.8628,-471.1888 335.7467,-468.3377 340.0281,-466.2066"/>
<polygon fill="#000000" fill-opacity="0.200000" stroke="#000000" stroke-width="2" stroke-opacity="0.200000" points="340.8886,-468.1231 345.617,-463.8742 339.271,-464.2471 340.8886,-468.1231"/>
</g>
<!-- src/ThreadError.ts -->
<g id="node32" class="node">
<title>src/ThreadError.ts</title>
<g id="a_node32"><a xlink:href="src/ThreadError.ts" xlink:title="ThreadError.ts">
<path fill="#ddfeff" stroke="#000000" d="M298,-690C298,-690 235,-690 235,-690 232,-690 229,-687 229,-684 229,-684 229,-678 229,-678 229,-675 232,-672 235,-672 235,-672 298,-672 298,-672 301,-672 304,-675 304,-678 304,-678 304,-684 304,-684 304,-687 301,-690 298,-690"/>
<text text-anchor="middle" x="266.5" y="-678.8" font-family="Helvetica,sans-Serif" font-size="9.00" fill="#000000">ThreadError.ts</text>
</a>
</g>
</g>
<!-- src/ValuesUtil.js -->
<g id="node33" class="node">
<title>src/ValuesUtil.js</title>
<g id="a_node33"><a xlink:href="src/ValuesUtil.js" xlink:title="ValuesUtil.js">
<path fill="#ffffcc" stroke="#000000" d="M294.5,-232C294.5,-232 238.5,-232 238.5,-232 235.5,-232 232.5,-229 232.5,-226 232.5,-226 232.5,-220 232.5,-220 232.5,-217 235.5,-214 238.5,-214 238.5,-214 294.5,-214 294.5,-214 297.5,-214 300.5,-217 300.5,-220 300.5,-220 300.5,-226 300.5,-226 300.5,-229 297.5,-232 294.5,-232"/>
<text text-anchor="middle" x="266.5" y="-220.8" font-family="Helvetica,sans-Serif" font-size="9.00" fill="#000000">ValuesUtil.js</text>
</a>
</g>
</g>
<!-- src/levels/lohi.js -->
<g id="node34" class="node">
<title>src/levels/lohi.js</title>
<g id="a_node34"><a xlink:href="src/levels/lohi.js" xlink:title="lohi.js">
<path fill="#ffffcc" stroke="#000000" d="M176,-768C176,-768 134,-768 134,-768 131,-768 128,-765 128,-762 128,-762 128,-756 128,-756 128,-753 131,-750 134,-750 134,-750 176,-750 176,-750 179,-750 182,-753 182,-756 182,-756 182,-762 182,-762 182,-765 179,-768 176,-768"/>
<text text-anchor="middle" x="155" y="-756.8" font-family="Helvetica,sans-Serif" font-size="9.00" fill="#000000">lohi.js</text>
</a>
</g>
</g>
<!-- src/levels/lohi.js&#45;&gt;src/Level.ts -->
<g id="edge25" class="edge">
<title>src/levels/lohi.js&#45;&gt;src/Level.ts</title>
<path fill="none" stroke="#000000" stroke-width="2" stroke-opacity="0.200000" d="M182.276,-754.5967C197.5295,-752.1342 216.6705,-749.0442 232.849,-746.4324"/>
<polygon fill="#000000" fill-opacity="0.200000" stroke="#000000" stroke-width="2" stroke-opacity="0.200000" points="233.5306,-748.4497 239.1192,-745.4202 232.8612,-744.3034 233.5306,-748.4497"/>
</g>
<!-- src/levels/tagsets.ts -->
<g id="node35" class="node">
<title>src/levels/tagsets.ts</title>
<g id="a_node35"><a xlink:href="src/levels/tagsets.ts" xlink:title="tagsets.ts">
<path fill="#ddfeff" stroke="#000000" d="M176.5,-798C176.5,-798 133.5,-798 133.5,-798 130.5,-798 127.5,-795 127.5,-792 127.5,-792 127.5,-786 127.5,-786 127.5,-783 130.5,-780 133.5,-780 133.5,-780 176.5,-780 176.5,-780 179.5,-780 182.5,-783 182.5,-786 182.5,-786 182.5,-792 182.5,-792 182.5,-795 179.5,-798 176.5,-798"/>
<text text-anchor="middle" x="155" y="-786.8" font-family="Helvetica,sans-Serif" font-size="9.00" fill="#000000">tagsets.ts</text>
</a>
</g>
</g>
<!-- src/levels/tagsets.ts&#45;&gt;../Level.js -->
<g id="edge26" class="edge">
<title>src/levels/tagsets.ts&#45;&gt;../Level.js</title>
<path fill="none" stroke="#000000" stroke-width="2" stroke-opacity="0.200000" d="M162.1128,-798.3565C172.7941,-811.8913 194.1722,-837.0538 217,-853 222.6075,-856.9171 229.0244,-860.3842 235.3382,-863.341"/>
<polygon fill="#000000" fill-opacity="0.200000" stroke="#000000" stroke-width="2" stroke-opacity="0.200000" points="234.7469,-865.377 241.0813,-865.9111 236.4625,-861.5433 234.7469,-865.377"/>
</g>
<!-- src/levels/tagsets.ts&#45;&gt;src/logger.js -->
<g id="edge27" class="edge">
<title>src/levels/tagsets.ts&#45;&gt;src/logger.js</title>
<path fill="none" stroke="#000000" stroke-width="2" stroke-opacity="0.200000" d="M169.3475,-798.2369C200.6191,-817.1028 275.3666,-855.1138 316,-816 343.3169,-789.7047 306.3512,-505.4087 329,-475 331.8473,-471.1772 335.7228,-468.3198 340.0006,-466.186"/>
<polygon fill="#000000" fill-opacity="0.200000" stroke="#000000" stroke-width="2" stroke-opacity="0.200000" points="340.8605,-468.1027 345.5871,-463.8519 339.2413,-464.2274 340.8605,-468.1027"/>
</g>
<!-- src/loadLibs.js -->
<g id="node36" class="node">
<title>src/loadLibs.js</title>
<g id="a_node36"><a xlink:href="src/loadLibs.js" xlink:title="loadLibs.js">
<path fill="#ffffcc" stroke="#000000" d="M291,-262C291,-262 242,-262 242,-262 239,-262 236,-259 236,-256 236,-256 236,-250 236,-250 236,-247 239,-244 242,-244 242,-244 291,-244 291,-244 294,-244 297,-247 297,-250 297,-250 297,-256 297,-256 297,-259 294,-262 291,-262"/>
<text text-anchor="middle" x="266.5" y="-250.8" font-family="Helvetica,sans-Serif" font-size="9.00" fill="#000000">loadLibs.js</text>
</a>
</g>
</g>
<!-- src/loadLibs.js&#45;&gt;fs -->
<g id="edge29" class="edge">
<title>src/loadLibs.js&#45;&gt;fs</title>
<path fill="none" stroke="#000000" stroke-dasharray="5,2" stroke-opacity="0.200000" d="M297.1768,-249.8006C304.3873,-247.5683 311.3241,-243.9188 316,-238 345.5341,-200.6153 300.1117,-61.8859 329,-24 331.8903,-20.2095 335.7889,-17.3696 340.0769,-15.2435"/>
<polygon fill="#000000" fill-opacity="0.200000" stroke="#000000" stroke-opacity="0.200000" points="340.9383,-17.1596 345.6698,-12.9143 339.3236,-13.2824 340.9383,-17.1596"/>
</g>
<!-- src/loadLibs.js&#45;&gt;src/logger.js -->
<g id="edge28" class="edge">
<title>src/loadLibs.js&#45;&gt;src/logger.js</title>
<path fill="none" stroke="#000000" stroke-width="2" stroke-opacity="0.200000" d="M297.1088,-256.2535C304.3199,-258.4854 311.274,-262.1212 316,-268 339.3225,-297.0111 309.0419,-403.5794 329,-435 332.2504,-440.1172 336.9451,-444.292 342.0694,-447.6608"/>
<polygon fill="#000000" fill-opacity="0.200000" stroke="#000000" stroke-width="2" stroke-opacity="0.200000" points="341.068,-449.5085 347.2993,-450.766 343.2122,-445.8971 341.068,-449.5085"/>
</g>
<!-- src/options.ts -->
<g id="node37" class="node">
<title>src/options.ts</title>
<g id="a_node37"><a xlink:href="src/options.ts" xlink:title="options.ts">
<path fill="#ddfeff" stroke="#000000" d="M288.5,-454C288.5,-454 244.5,-454 244.5,-454 241.5,-454 238.5,-451 238.5,-448 238.5,-448 238.5,-442 238.5,-442 238.5,-439 241.5,-436 244.5,-436 244.5,-436 288.5,-436 288.5,-436 291.5,-436 294.5,-439 294.5,-442 294.5,-442 294.5,-448 294.5,-448 294.5,-451 291.5,-454 288.5,-454"/>
<text text-anchor="middle" x="266.5" y="-442.8" font-family="Helvetica,sans-Serif" font-size="9.00" fill="#000000">options.ts</text>
</a>
</g>
</g>
<!-- src/p2p/libp2p&#45;bundle.js -->
<g id="node38" class="node">
<title>src/p2p/libp2p&#45;bundle.js</title>
<g id="a_node38"><a xlink:href="src/p2p/libp2p-bundle.js" xlink:title="libp2p&#45;bundle.js">
<path fill="#ffffcc" stroke="#000000" d="M408.5,-638C408.5,-638 337.5,-638 337.5,-638 334.5,-638 331.5,-635 331.5,-632 331.5,-632 331.5,-626 331.5,-626 331.5,-623 334.5,-620 337.5,-620 337.5,-620 408.5,-620 408.5,-620 411.5,-620 414.5,-623 414.5,-626 414.5,-626 414.5,-632 414.5,-632 414.5,-635 411.5,-638 408.5,-638"/>
<text text-anchor="middle" x="373" y="-626.8" font-family="Helvetica,sans-Serif" font-size="9.00" fill="#000000">libp2p&#45;bundle.js</text>
</a>
</g>
</g>
<!-- src/p2p/p2pconfig.js -->
<g id="node39" class="node">
<title>src/p2p/p2pconfig.js</title>
<g id="a_node39"><a xlink:href="src/p2p/p2pconfig.js" xlink:title="p2pconfig.js">
<path fill="#ffffcc" stroke="#000000" d="M490,-627C490,-627 436,-627 436,-627 433,-627 430,-624 430,-621 430,-621 430,-615 430,-615 430,-612 433,-609 436,-609 436,-609 490,-609 490,-609 493,-609 496,-612 496,-615 496,-615 496,-621 496,-621 496,-624 493,-627 490,-627"/>
<text text-anchor="middle" x="463" y="-615.8" font-family="Helvetica,sans-Serif" font-size="9.00" fill="#000000">p2pconfig.js</text>
</a>
</g>
</g>
<!-- src/p2p/libp2p&#45;bundle.js&#45;&gt;src/p2p/p2pconfig.js -->
<g id="edge30" class="edge">
<title>src/p2p/libp2p&#45;bundle.js&#45;&gt;src/p2p/p2pconfig.js</title>
<path fill="none" stroke="#000000" stroke-width="2" stroke-opacity="0.200000" d="M414.5752,-623.9186C417.6381,-623.5442 420.7222,-623.1673 423.7704,-622.7947"/>
<polygon fill="#000000" fill-opacity="0.200000" stroke="#000000" stroke-width="2" stroke-opacity="0.200000" points="424.2576,-624.8509 429.9585,-622.0384 423.748,-620.6819 424.2576,-624.8509"/>
</g>
<!-- src/p2p/mkid.js -->
<g id="node40" class="node">
<title>src/p2p/mkid.js</title>
<g id="a_node40"><a xlink:href="src/p2p/mkid.js" xlink:title="mkid.js">
<path fill="#ffffcc" stroke="#000000" d="M287.5,-608C287.5,-608 245.5,-608 245.5,-608 242.5,-608 239.5,-605 239.5,-602 239.5,-602 239.5,-596 239.5,-596 239.5,-593 242.5,-590 245.5,-590 245.5,-590 287.5,-590 287.5,-590 290.5,-590 293.5,-593 293.5,-596 293.5,-596 293.5,-602 293.5,-602 293.5,-605 290.5,-608 287.5,-608"/>
<text text-anchor="middle" x="266.5" y="-596.8" font-family="Helvetica,sans-Serif" font-size="9.00" fill="#000000">mkid.js</text>
</a>
</g>
</g>
<!-- src/p2p/mkid.js&#45;&gt;fs -->
<g id="edge31" class="edge">
<title>src/p2p/mkid.js&#45;&gt;fs</title>
<path fill="none" stroke="#000000" stroke-dasharray="5,2" stroke-opacity="0.200000" d="M293.624,-598.0651C302.0837,-596.3395 310.6027,-592.8329 316,-586 335.3582,-561.4927 310.533,-49.1857 329,-24 331.8857,-20.0644 335.8631,-17.1511 340.2554,-14.9968"/>
<polygon fill="#000000" fill-opacity="0.200000" stroke="#000000" stroke-opacity="0.200000" points="341.2298,-16.8673 345.99,-12.6541 339.6414,-12.9792 341.2298,-16.8673"/>
</g>
<!-- src/p2p/p2p.js -->
<g id="node41" class="node">
<title>src/p2p/p2p.js</title>
<g id="a_node41"><a xlink:href="src/p2p/p2p.js" xlink:title="p2p.js">
<path fill="#ffffcc" stroke="#000000" d="M287.5,-638C287.5,-638 245.5,-638 245.5,-638 242.5,-638 239.5,-635 239.5,-632 239.5,-632 239.5,-626 239.5,-626 239.5,-623 242.5,-620 245.5,-620 245.5,-620 287.5,-620 287.5,-620 290.5,-620 293.5,-623 293.5,-626 293.5,-626 293.5,-632 293.5,-632 293.5,-635 290.5,-638 287.5,-638"/>
<text text-anchor="middle" x="266.5" y="-626.8" font-family="Helvetica,sans-Serif" font-size="9.00" fill="#000000">p2p.js</text>
</a>
</g>
</g>
<!-- src/p2p/p2p.js&#45;&gt;src/logger.js -->
<g id="edge32" class="edge">
<title>src/p2p/p2p.js&#45;&gt;src/logger.js</title>
<path fill="none" stroke="#000000" stroke-width="2" stroke-opacity="0.200000" d="M293.6887,-626.6355C302.0487,-624.5332 310.4899,-620.7459 316,-614 335.6256,-589.9729 309.7895,-499.3604 329,-475 331.9516,-471.2571 335.8833,-468.4429 340.1858,-466.328"/>
<polygon fill="#000000" fill-opacity="0.200000" stroke="#000000" stroke-width="2" stroke-opacity="0.200000" points="341.0494,-468.2433 345.788,-464.0059 339.4412,-464.3634 341.0494,-468.2433"/>
</g>
<!-- src/p2p/p2p.js&#45;&gt;src/p2p/libp2p&#45;bundle.js -->
<g id="edge33" class="edge">
<title>src/p2p/p2p.js&#45;&gt;src/p2p/libp2p&#45;bundle.js</title>
<path fill="none" stroke="#000000" stroke-width="2" stroke-opacity="0.200000" d="M293.65,-629C303.2321,-629 314.3122,-629 325.0968,-629"/>
<polygon fill="#000000" fill-opacity="0.200000" stroke="#000000" stroke-width="2" stroke-opacity="0.200000" points="325.399,-631.1001 331.399,-629 325.3989,-626.9001 325.399,-631.1001"/>
</g>
<!-- src/p2p/p2p.js&#45;&gt;src/p2p/p2pconfig.js -->
<g id="edge34" class="edge">
<title>src/p2p/p2p.js&#45;&gt;src/p2p/p2pconfig.js</title>
<path fill="none" stroke="#000000" stroke-width="2" stroke-opacity="0.200000" d="M293.6289,-621.0169C304.5192,-618.2004 317.2536,-615.3898 329,-614 367.8402,-609.4044 377.9257,-612.3043 417,-614 419.2124,-614.096 421.483,-614.2179 423.7734,-614.3589"/>
<polygon fill="#000000" fill-opacity="0.200000" stroke="#000000" stroke-width="2" stroke-opacity="0.200000" points="423.7277,-616.4606 429.8564,-614.7724 424.0126,-612.2702 423.7277,-616.4606"/>
</g>
<!-- util -->
<g id="node42" class="node">
<title>util</title>
<path fill="#ffffcc" stroke="#c0c0c0" d="M394,-78C394,-78 352,-78 352,-78 349,-78 346,-75 346,-72 346,-72 346,-66 346,-66 346,-63 349,-60 352,-60 352,-60 394,-60 394,-60 397,-60 400,-63 400,-66 400,-66 400,-72 400,-72 400,-75 397,-78 394,-78"/>
<text text-anchor="middle" x="373" y="-66.8" font-family="Helvetica,sans-Serif" font-size="9.00" fill="#c0c0c0">util</text>
</g>
<!-- src/p2p/p2p.js&#45;&gt;util -->
<g id="edge35" class="edge">
<title>src/p2p/p2p.js&#45;&gt;util</title>
<path fill="none" stroke="#000000" stroke-dasharray="5,2" stroke-opacity="0.200000" d="M293.7015,-626.914C302.1674,-624.8421 310.6705,-621.0027 316,-614 351.6749,-567.1248 294.1346,-131.4805 329,-84 331.8885,-80.0664 335.8673,-77.1542 340.2602,-75.0004"/>
<polygon fill="#000000" fill-opacity="0.200000" stroke="#000000" stroke-opacity="0.200000" points="341.2347,-76.8708 345.9951,-72.6579 339.6465,-72.9826 341.2347,-76.8708"/>
</g>
<!-- src/runtimeMonitored.js -->
<g id="node43" class="node">
<title>src/runtimeMonitored.js</title>
<g id="a_node43"><a xlink:href="src/runtimeMonitored.js" xlink:title="runtimeMonitored.js">
<path fill="#ffffcc" stroke="#000000" d="M198,-388C198,-388 112,-388 112,-388 109,-388 106,-385 106,-382 106,-382 106,-376 106,-376 106,-373 109,-370 112,-370 112,-370 198,-370 198,-370 201,-370 204,-373 204,-376 204,-376 204,-382 204,-382 204,-385 201,-388 198,-388"/>
<text text-anchor="middle" x="155" y="-376.8" font-family="Helvetica,sans-Serif" font-size="9.00" fill="#000000">runtimeMonitored.js</text>
</a>
</g>
</g>
<!-- src/runtimeMonitored.js&#45;&gt;assert -->
<g id="edge54" class="edge">
<title>src/runtimeMonitored.js&#45;&gt;assert</title>
<path fill="none" stroke="#000000" stroke-dasharray="5,2" stroke-opacity="0.200000" d="M155.8574,-369.8626C159.9581,-328.1964 178.9616,-156.7484 217,-122 250.0134,-91.842 304.4037,-90.8043 339.454,-94.0046"/>
<polygon fill="#000000" fill-opacity="0.200000" stroke="#000000" stroke-opacity="0.200000" points="339.5826,-96.1284 345.7641,-94.6454 340.007,-91.9499 339.5826,-96.1284"/>
</g>
<!-- src/runtimeMonitored.js&#45;&gt;fs -->
<g id="edge55" class="edge">
<title>src/runtimeMonitored.js&#45;&gt;fs</title>
<path fill="none" stroke="#000000" stroke-dasharray="5,2" stroke-opacity="0.200000" d="M155.5452,-369.7747C158.5212,-322.4342 174.2659,-107.1378 217,-59 248.2351,-23.8152 304.245,-13.2246 339.9668,-10.1348"/>
<polygon fill="#000000" fill-opacity="0.200000" stroke="#000000" stroke-opacity="0.200000" points="340.1343,-12.2283 345.954,-9.6706 339.8096,-8.0408 340.1343,-12.2283"/>
</g>
<!-- src/runtimeMonitored.js&#45;&gt;os -->
<g id="edge56" class="edge">
<title>src/runtimeMonitored.js&#45;&gt;os</title>
<path fill="none" stroke="#000000" stroke-dasharray="5,2" stroke-opacity="0.200000" d="M156.8295,-369.7631C163.8705,-335.0428 190.1676,-212.9122 217,-185 221.5608,-180.2556 227.4694,-176.7562 233.6076,-174.1768"/>
<polygon fill="#000000" fill-opacity="0.200000" stroke="#000000" stroke-opacity="0.200000" points="234.3924,-176.1254 239.2771,-172.0572 232.9216,-172.1913 234.3924,-176.1254"/>
</g>
<!-- src/runtimeMonitored.js&#45;&gt;readline -->
<g id="edge57" class="edge">
<title>src/runtimeMonitored.js&#45;&gt;readline</title>
<path fill="none" stroke="#000000" stroke-dasharray="5,2" stroke-opacity="0.200000" d="M156.3172,-369.7714C161.9762,-331.3413 185.3805,-184.5048 217,-152 221.4612,-147.4139 227.2735,-144.2187 233.3392,-141.9954"/>
<polygon fill="#000000" fill-opacity="0.200000" stroke="#000000" stroke-opacity="0.200000" points="234.3515,-143.8789 239.4488,-140.0805 233.0953,-139.8711 234.3515,-143.8789"/>
</g>
<!-- src/runtimeMonitored.js&#45;&gt;src/Authority.ts -->
<g id="edge36" class="edge">
<title>src/runtimeMonitored.js&#45;&gt;src/Authority.ts</title>
<path fill="none" stroke="#000000" stroke-width="2" stroke-opacity="0.200000" d="M159.4469,-369.9743C168.1501,-353.244 189.0503,-317.363 217,-298 220.8406,-295.3393 225.1649,-293.1405 229.6175,-291.3258"/>
<polygon fill="#000000" fill-opacity="0.200000" stroke="#000000" stroke-width="2" stroke-opacity="0.200000" points="230.399,-293.2759 235.2994,-289.2267 228.9434,-289.3361 230.399,-293.2759"/>
</g>
<!-- src/runtimeMonitored.js&#45;&gt;src/BaseFunction.ts -->
<g id="edge37" class="edge">
<title>src/runtimeMonitored.js&#45;&gt;src/BaseFunction.ts</title>
<path fill="none" stroke="#000000" stroke-width="2" stroke-opacity="0.200000" d="M163.8179,-369.7835C175.1409,-358.4441 195.8627,-339.3096 217,-328 219.5386,-326.6417 222.2177,-325.3884 224.9624,-324.235"/>
<polygon fill="#000000" fill-opacity="0.200000" stroke="#000000" stroke-width="2" stroke-opacity="0.200000" points="225.8405,-326.1466 230.6643,-322.0064 224.3115,-322.2348 225.8405,-326.1466"/>
</g>
<!-- src/runtimeMonitored.js&#45;&gt;src/Level.ts -->
<g id="edge38" class="edge">
<title>src/runtimeMonitored.js&#45;&gt;src/Level.ts</title>
<path fill="none" stroke="#000000" stroke-width="2" stroke-opacity="0.200000" d="M158.634,-388.0719C168.0273,-411.9745 193.1349,-478.8443 204,-537 207.8658,-557.6916 203.8853,-709.5351 217,-726 221.1977,-731.2701 227.187,-734.7394 233.557,-737.011"/>
<polygon fill="#000000" fill-opacity="0.200000" stroke="#000000" stroke-width="2" stroke-opacity="0.200000" points="233.1236,-739.0731 239.4736,-738.7776 234.3253,-735.0487 233.1236,-739.0731"/>
</g>
<!-- src/runtimeMonitored.js&#45;&gt;src/Lval.ts -->
<g id="edge41" class="edge">
<title>src/runtimeMonitored.js&#45;&gt;src/Lval.ts</title>
<path fill="none" stroke="#000000" stroke-width="2" stroke-opacity="0.200000" d="M155.5589,-388.3367C157.7782,-416.899 168.4101,-503.947 217,-550 221.5948,-554.3549 227.4129,-557.4488 233.4322,-559.646"/>
<polygon fill="#000000" fill-opacity="0.200000" stroke="#000000" stroke-width="2" stroke-opacity="0.200000" points="233.1266,-561.7517 239.4806,-561.5577 234.3925,-557.747 233.1266,-561.7517"/>
</g>
<!-- src/runtimeMonitored.js&#45;&gt;src/MailboxProcessor.js -->
<g id="edge42" class="edge">
<title>src/runtimeMonitored.js&#45;&gt;src/MailboxProcessor.js</title>
<path fill="none" stroke="#000000" stroke-width="2" stroke-opacity="0.200000" d="M183.1362,-369.9157C198.0579,-365.0979 216.5107,-359.14 232.259,-354.0554"/>
<polygon fill="#000000" fill-opacity="0.200000" stroke="#000000" stroke-width="2" stroke-opacity="0.200000" points="233.3083,-355.9234 238.3728,-352.0814 232.0178,-351.9266 233.3083,-355.9234"/>
</g>
<!-- src/runtimeMonitored.js&#45;&gt;src/logger.js -->
<g id="edge40" class="edge">
<title>src/runtimeMonitored.js&#45;&gt;src/logger.js</title>
<path fill="none" stroke="#000000" stroke-width="2" stroke-opacity="0.200000" d="M204.1421,-384.7995C250.6739,-390.3827 313.781,-398.2332 316,-400 328.9816,-410.3362 318.2482,-422.3605 329,-435 333.3584,-440.1237 339.0454,-444.4187 344.8765,-447.9226"/>
<polygon fill="#000000" fill-opacity="0.200000" stroke="#000000" stroke-width="2" stroke-opacity="0.200000" points="343.976,-449.825 350.2381,-450.919 346.025,-446.1587 343.976,-449.825"/>
</g>
<!-- src/runtimeMonitored.js&#45;&gt;src/process.js -->
<g id="edge46" class="edge">
<title>src/runtimeMonitored.js&#45;&gt;src/process.js</title>
<path fill="none" stroke="#000000" stroke-width="2" stroke-opacity="0.200000" d="M204.0726,-375.8322C208.4442,-375.5505 212.802,-375.27 217,-375 258.5131,-372.3303 306.241,-369.2725 337.8587,-367.2485"/>
<polygon fill="#000000" fill-opacity="0.200000" stroke="#000000" stroke-width="2" stroke-opacity="0.200000" points="338.1072,-369.337 343.9608,-366.8579 337.8389,-365.1456 338.1072,-369.337"/>
</g>
<!-- src/runtimeMonitored.js&#45;&gt;src/NodeManager.js -->
<g id="edge43" class="edge">
<title>src/runtimeMonitored.js&#45;&gt;src/NodeManager.js</title>
<path fill="none" stroke="#000000" stroke-width="2" stroke-opacity="0.200000" d="M183.1362,-388.0843C198.0579,-392.9021 216.5107,-398.86 232.259,-403.9446"/>
<polygon fill="#000000" fill-opacity="0.200000" stroke="#000000" stroke-width="2" stroke-opacity="0.200000" points="232.0178,-406.0734 238.3728,-405.9186 233.3083,-402.0766 232.0178,-406.0734"/>
</g>
<!-- src/runtimeMonitored.js&#45;&gt;src/RtClosure.js -->
<g id="edge47" class="edge">
<title>src/runtimeMonitored.js&#45;&gt;src/RtClosure.js</title>
<path fill="none" stroke="#000000" stroke-width="2" stroke-opacity="0.200000" d="M157.4761,-388.0008C163.7453,-409.0932 182.2687,-462.0391 217,-490 220.0295,-492.439 223.4509,-494.482 227.0448,-496.1933"/>
<polygon fill="#000000" fill-opacity="0.200000" stroke="#000000" stroke-width="2" stroke-opacity="0.200000" points="226.458,-498.2248 232.8027,-498.6186 228.0884,-494.3542 226.458,-498.2248"/>
</g>
<!-- src/runtimeMonitored.js&#45;&gt;src/SandboxStatus.ts -->
<g id="edge48" class="edge">
<title>src/runtimeMonitored.js&#45;&gt;src/SandboxStatus.ts</title>
<path fill="none" stroke="#000000" stroke-width="2" stroke-opacity="0.200000" d="M156.3322,-388.1204C160.4633,-413.0803 175.3813,-483.0995 217,-520 218.0372,-520.9197 219.1294,-521.7829 220.2661,-522.5933"/>
<polygon fill="#000000" fill-opacity="0.200000" stroke="#000000" stroke-width="2" stroke-opacity="0.200000" points="219.2925,-524.46 225.5027,-525.8182 221.4949,-520.8838 219.2925,-524.46"/>
</g>
<!-- src/runtimeMonitored.js&#45;&gt;src/Scheduler.js -->
<g id="edge49" class="edge">
<title>src/runtimeMonitored.js&#45;&gt;src/Scheduler.js</title>
<path fill="none" stroke="#000000" stroke-width="2" stroke-opacity="0.200000" d="M159.4469,-388.0257C168.1501,-404.756 189.0503,-440.637 217,-460 219.9064,-462.0135 223.0898,-463.7625 226.3962,-465.2807"/>
<polygon fill="#000000" fill-opacity="0.200000" stroke="#000000" stroke-width="2" stroke-opacity="0.200000" points="226.0996,-467.4295 232.4473,-467.7714 227.6983,-463.5456 226.0996,-467.4295"/>
</g>
<!-- src/runtimeMonitored.js&#45;&gt;src/UnitBase.js -->
<g id="edge52" class="edge">
<title>src/runtimeMonitored.js&#45;&gt;src/UnitBase.js</title>
<path fill="none" stroke="#000000" stroke-width="2" stroke-opacity="0.200000" d="M204.1929,-376.5888C236.5633,-376.3235 279.5315,-378.5104 316,-389 329.8282,-392.9775 344.0478,-400.7036 354.8255,-407.4472"/>
<polygon fill="#000000" fill-opacity="0.200000" stroke="#000000" stroke-width="2" stroke-opacity="0.200000" points="353.9455,-409.3782 360.1275,-410.8591 356.2184,-405.8463 353.9455,-409.3782"/>
</g>
<!-- src/runtimeMonitored.js&#45;&gt;src/ThreadError.ts -->
<g id="edge51" class="edge">
<title>src/runtimeMonitored.js&#45;&gt;src/ThreadError.ts</title>
<path fill="none" stroke="#000000" stroke-width="2" stroke-opacity="0.200000" d="M158.5311,-388.092C167.6757,-412.043 192.235,-479.0196 204,-537 209.7735,-565.4531 198.3538,-644.7461 217,-667 218.9071,-669.2761 221.1539,-671.1972 223.6199,-672.817"/>
<polygon fill="#000000" fill-opacity="0.200000" stroke="#000000" stroke-width="2" stroke-opacity="0.200000" points="222.6797,-674.6964 228.9511,-675.736 224.6969,-671.0124 222.6797,-674.6964"/>
</g>
<!-- src/runtimeMonitored.js&#45;&gt;src/ValuesUtil.js -->
<g id="edge53" class="edge">
<title>src/runtimeMonitored.js&#45;&gt;src/ValuesUtil.js</title>
<path fill="none" stroke="#000000" stroke-width="2" stroke-opacity="0.200000" d="M156.3322,-369.8796C160.4633,-344.9197 175.3813,-274.9005 217,-238 219.8661,-235.4588 223.1514,-233.3481 226.6366,-231.5948"/>
<polygon fill="#000000" fill-opacity="0.200000" stroke="#000000" stroke-width="2" stroke-opacity="0.200000" points="227.6022,-233.4642 232.2464,-229.1235 225.9089,-229.6207 227.6022,-233.4642"/>
</g>
<!-- src/runtimeMonitored.js&#45;&gt;src/loadLibs.js -->
<g id="edge39" class="edge">
<title>src/runtimeMonitored.js&#45;&gt;src/loadLibs.js</title>
<path fill="none" stroke="#000000" stroke-width="2" stroke-opacity="0.200000" d="M157.4761,-369.9992C163.7453,-348.9068 182.2687,-295.9609 217,-268 220.9214,-264.8431 225.4992,-262.3494 230.2578,-260.38"/>
<polygon fill="#000000" fill-opacity="0.200000" stroke="#000000" stroke-width="2" stroke-opacity="0.200000" points="230.9954,-262.3464 235.8986,-258.3006 229.5426,-258.4056 230.9954,-262.3464"/>
</g>
<!-- src/runtimeMonitored.js&#45;&gt;src/options.ts -->
<g id="edge44" class="edge">
<title>src/runtimeMonitored.js&#45;&gt;src/options.ts</title>
<path fill="none" stroke="#000000" stroke-width="2" stroke-opacity="0.200000" d="M163.8179,-388.2165C175.1409,-399.5559 195.8627,-418.6904 217,-430 221.8841,-432.6133 227.2887,-434.8381 232.6792,-436.71"/>
<polygon fill="#000000" fill-opacity="0.200000" stroke="#000000" stroke-width="2" stroke-opacity="0.200000" points="232.1423,-438.7436 238.4977,-438.6042 233.4426,-434.7499 232.1423,-438.7436"/>
</g>
<!-- src/runtimeMonitored.js&#45;&gt;src/p2p/p2p.js -->
<g id="edge45" class="edge">
<title>src/runtimeMonitored.js&#45;&gt;src/p2p/p2p.js</title>
<path fill="none" stroke="#000000" stroke-width="2" stroke-opacity="0.200000" d="M158.3076,-388.1412C166.9131,-412.2112 190.2828,-479.4502 204,-537 212.047,-570.7608 194.0653,-587.9511 217,-614 221.3614,-618.9536 227.2988,-622.2993 233.5477,-624.5519"/>
<polygon fill="#000000" fill-opacity="0.200000" stroke="#000000" stroke-width="2" stroke-opacity="0.200000" points="232.9857,-626.5761 239.3378,-626.3282 234.2175,-622.5608 232.9857,-626.5761"/>
</g>
<!-- src/runtimeMonitored.js&#45;&gt;util -->
<g id="edge58" class="edge">
<title>src/runtimeMonitored.js&#45;&gt;util</title>
<path fill="none" stroke="#000000" stroke-dasharray="5,2" stroke-opacity="0.200000" d="M155.5809,-369.944C158.6352,-325.3287 174.3454,-129.4699 217,-90 249.8556,-59.5974 304.5352,-59.5039 339.6582,-63.3797"/>
<polygon fill="#000000" fill-opacity="0.200000" stroke="#000000" stroke-opacity="0.200000" points="339.7706,-65.5084 345.9792,-64.1432 340.2743,-61.3387 339.7706,-65.5084"/>
</g>
<!-- src/serialize.js -->
<g id="node44" class="node">
<title>src/serialize.js</title>
<g id="a_node44"><a xlink:href="src/serialize.js" xlink:title="serialize.js">
<path fill="#ffffcc" stroke="#000000" d="M290.5,-720C290.5,-720 242.5,-720 242.5,-720 239.5,-720 236.5,-717 236.5,-714 236.5,-714 236.5,-708 236.5,-708 236.5,-705 239.5,-702 242.5,-702 242.5,-702 290.5,-702 290.5,-702 293.5,-702 296.5,-705 296.5,-708 296.5,-708 296.5,-714 296.5,-714 296.5,-717 293.5,-720 290.5,-720"/>
<text text-anchor="middle" x="266.5" y="-708.8" font-family="Helvetica,sans-Serif" font-size="9.00" fill="#000000">serialize.js</text>
</a>
</g>
</g>
<!-- src/runtimeMonitored.js&#45;&gt;src/serialize.js -->
<g id="edge50" class="edge">
<title>src/runtimeMonitored.js&#45;&gt;src/serialize.js</title>
<path fill="none" stroke="#000000" stroke-width="2" stroke-opacity="0.200000" d="M158.5911,-388.0801C167.8808,-412.0023 192.7599,-478.9156 204,-537 210.7353,-571.8055 194.7341,-668.4134 217,-696 220.5619,-700.4131 225.3791,-703.5617 230.6153,-705.8011"/>
<polygon fill="#000000" fill-opacity="0.200000" stroke="#000000" stroke-width="2" stroke-opacity="0.200000" points="230.0655,-707.835 236.4221,-707.891 231.4878,-703.8832 230.0655,-707.835"/>
</g>
<!-- src/serialize.js&#45;&gt;assert -->
<g id="edge59" class="edge">
<title>src/serialize.js&#45;&gt;assert</title>
<path fill="none" stroke="#000000" stroke-dasharray="5,2" stroke-opacity="0.200000" d="M296.5581,-708.1543C304.0453,-705.9472 311.2755,-702.2219 316,-696 335.5583,-670.2427 309.8865,-140.0891 329,-114 331.8841,-110.0633 335.8607,-107.1494 340.2527,-104.9948"/>
<polygon fill="#000000" fill-opacity="0.200000" stroke="#000000" stroke-opacity="0.200000" points="341.227,-106.8653 345.987,-102.6519 339.6385,-102.9773 341.227,-106.8653"/>
</g>
<!-- src/serialize.js&#45;&gt;child_process -->
<g id="edge60" class="edge">
<title>src/serialize.js&#45;&gt;child_process</title>
<path fill="none" stroke="#000000" stroke-dasharray="5,2" stroke-opacity="0.200000" d="M296.6635,-714.0406C304.058,-716.2574 311.2145,-719.939 316,-726 345.7985,-763.7411 299.8534,-903.7531 329,-942 329.5809,-942.7623 330.2026,-943.4861 330.86,-944.1734"/>
<polygon fill="#000000" fill-opacity="0.200000" stroke="#000000" stroke-opacity="0.200000" points="329.7171,-945.9555 335.6646,-948.1999 332.4148,-942.7365 329.7171,-945.9555"/>
</g>
<!-- src/troupe.ts -->
<g id="node45" class="node">
<title>src/troupe.ts</title>
<g id="a_node45"><a xlink:href="src/troupe.ts" xlink:title="troupe.ts">
<path fill="#ddfeff" stroke="#000000" d="M75.5,-388C75.5,-388 33.5,-388 33.5,-388 30.5,-388 27.5,-385 27.5,-382 27.5,-382 27.5,-376 27.5,-376 27.5,-373 30.5,-370 33.5,-370 33.5,-370 75.5,-370 75.5,-370 78.5,-370 81.5,-373 81.5,-376 81.5,-376 81.5,-382 81.5,-382 81.5,-385 78.5,-388 75.5,-388"/>
<text text-anchor="middle" x="54.5" y="-376.8" font-family="Helvetica,sans-Serif" font-size="9.00" fill="#000000">troupe.ts</text>
</a>
</g>
</g>
<!-- src/troupe.ts&#45;&gt;src/runtimeMonitored.js -->
<g id="edge61" class="edge">
<title>src/troupe.ts&#45;&gt;src/runtimeMonitored.js</title>
<path fill="none" stroke="#000000" stroke-width="2" stroke-opacity="0.200000" d="M81.6967,-379C87.2774,-379 93.3424,-379 99.5139,-379"/>
<polygon fill="#000000" fill-opacity="0.200000" stroke="#000000" stroke-width="2" stroke-opacity="0.200000" points="99.7069,-381.1001 105.7069,-379 99.7068,-376.9001 99.7069,-381.1001"/>
</g>
</g>
</svg>
