<?xml version="1.0" encoding="UTF-8" standalone="no"?>
<!DOCTYPE svg PUBLIC "-//W3C//DTD SVG 1.1//EN"
 "http://www.w3.org/Graphics/SVG/1.1/DTD/svg11.dtd">
<!-- Generated by graphviz version 2.40.1 (20161225.0304)
 -->
<!-- Title: dependency&#45;cruiser output Pages: 1 -->
<svg width="528pt" height="978pt"
 viewBox="0.00 0.00 528.00 978.00" xmlns="http://www.w3.org/2000/svg" xmlns:xlink="http://www.w3.org/1999/xlink">
<g id="graph0" class="graph" transform="scale(1 1) rotate(0) translate(4 974)">
<title>dependency&#45;cruiser output</title>
<polygon fill="#ffffff" stroke="transparent" points="-4,4 -4,-974 524,-974 524,4 -4,4"/>
<g id="clust1" class="cluster">
<title>cluster_src</title>
<path fill="#ffffff" stroke="#000000" stroke-width="2" d="M20,-176C20,-176 500,-176 500,-176 506,-176 512,-182 512,-188 512,-188 512,-812 512,-812 512,-818 506,-824 500,-824 500,-824 20,-824 20,-824 14,-824 8,-818 8,-812 8,-812 8,-188 8,-188 8,-182 14,-176 20,-176"/>
<text text-anchor="middle" x="260" y="-812.8" font-family="Helvetica,sans-Serif" font-weight="bold" font-size="9.00" fill="#000000">src</text>
</g>
<g id="clust2" class="cluster">
<title>cluster_src/levels</title>
<path fill="#ffffff" stroke="#000000" stroke-width="2" d="M131.5,-679C131.5,-679 178.5,-679 178.5,-679 184.5,-679 190.5,-685 190.5,-691 190.5,-691 190.5,-749 190.5,-749 190.5,-755 184.5,-761 178.5,-761 178.5,-761 131.5,-761 131.5,-761 125.5,-761 119.5,-755 119.5,-749 119.5,-749 119.5,-691 119.5,-691 119.5,-685 125.5,-679 131.5,-679"/>
<text text-anchor="middle" x="155" y="-749.8" font-family="Helvetica,sans-Serif" font-weight="bold" font-size="9.00" fill="#000000">levels</text>
</g>
<g id="clust3" class="cluster">
<title>cluster_src/p2p</title>
<path fill="#ffffff" stroke="#000000" stroke-width="2" d="M243.5,-184C243.5,-184 492,-184 492,-184 498,-184 504,-190 504,-196 504,-196 504,-254 504,-254 504,-260 498,-266 492,-266 492,-266 243.5,-266 243.5,-266 237.5,-266 231.5,-260 231.5,-254 231.5,-254 231.5,-196 231.5,-196 231.5,-190 237.5,-184 243.5,-184"/>
<text text-anchor="middle" x="367.75" y="-254.8" font-family="Helvetica,sans-Serif" font-weight="bold" font-size="9.00" fill="#000000">p2p</text>
</g>
<!-- ./Authority.js -->
<g id="node1" class="node">
<title>./Authority.js</title>
<path fill="#ffffcc" stroke="#ff0000" d="M398,-910C398,-910 348,-910 348,-910 345,-910 342,-907 342,-904 342,-904 342,-898 342,-898 342,-895 345,-892 348,-892 348,-892 398,-892 398,-892 401,-892 404,-895 404,-898 404,-898 404,-904 404,-904 404,-907 401,-910 398,-910"/>
<text text-anchor="middle" x="373" y="-898.8" font-family="Helvetica,sans-Serif" font-size="9.00" fill="#ff0000">Authority.js</text>
</g>
<!-- ./BaseFunction.js -->
<g id="node2" class="node">
<title>./BaseFunction.js</title>
<path fill="#ffffcc" stroke="#ff0000" d="M408,-940C408,-940 338,-940 338,-940 335,-940 332,-937 332,-934 332,-934 332,-928 332,-928 332,-925 335,-922 338,-922 338,-922 408,-922 408,-922 411,-922 414,-925 414,-928 414,-928 414,-934 414,-934 414,-937 411,-940 408,-940"/>
<text text-anchor="middle" x="373" y="-928.8" font-family="Helvetica,sans-Serif" font-size="9.00" fill="#ff0000">BaseFunction.js</text>
</g>
<!-- ./Lval.js -->
<g id="node3" class="node">
<title>./Lval.js</title>
<path fill="#ffffcc" stroke="#ff0000" d="M394,-168C394,-168 352,-168 352,-168 349,-168 346,-165 346,-162 346,-162 346,-156 346,-156 346,-153 349,-150 352,-150 352,-150 394,-150 394,-150 397,-150 400,-153 400,-156 400,-156 400,-162 400,-162 400,-165 397,-168 394,-168"/>
<text text-anchor="middle" x="373" y="-156.8" font-family="Helvetica,sans-Serif" font-size="9.00" fill="#ff0000">Lval.js</text>
</g>
<!-- ./SandboxStatus.js -->
<g id="node4" class="node">
<title>./SandboxStatus.js</title>
<path fill="#ffffcc" stroke="#ff0000" d="M411,-138C411,-138 335,-138 335,-138 332,-138 329,-135 329,-132 329,-132 329,-126 329,-126 329,-123 332,-120 335,-120 335,-120 411,-120 411,-120 414,-120 417,-123 417,-126 417,-126 417,-132 417,-132 417,-135 414,-138 411,-138"/>
<text text-anchor="middle" x="373" y="-126.8" font-family="Helvetica,sans-Serif" font-size="9.00" fill="#ff0000">SandboxStatus.js</text>
</g>
<!-- ./Thread.js -->
<g id="node5" class="node">
<title>./Thread.js</title>
<path fill="#ffffcc" stroke="#ff0000" d="M394.5,-880C394.5,-880 351.5,-880 351.5,-880 348.5,-880 345.5,-877 345.5,-874 345.5,-874 345.5,-868 345.5,-868 345.5,-865 348.5,-862 351.5,-862 351.5,-862 394.5,-862 394.5,-862 397.5,-862 400.5,-865 400.5,-868 400.5,-868 400.5,-874 400.5,-874 400.5,-877 397.5,-880 394.5,-880"/>
<text text-anchor="middle" x="373" y="-868.8" font-family="Helvetica,sans-Serif" font-size="9.00" fill="#ff0000">Thread.js</text>
</g>
<!-- ./ThreadError.js -->
<g id="node6" class="node">
<title>./ThreadError.js</title>
<path fill="#ffffcc" stroke="#ff0000" d="M404.5,-970C404.5,-970 341.5,-970 341.5,-970 338.5,-970 335.5,-967 335.5,-964 335.5,-964 335.5,-958 335.5,-958 335.5,-955 338.5,-952 341.5,-952 341.5,-952 404.5,-952 404.5,-952 407.5,-952 410.5,-955 410.5,-958 410.5,-958 410.5,-964 410.5,-964 410.5,-967 407.5,-970 404.5,-970"/>
<text text-anchor="middle" x="373" y="-958.8" font-family="Helvetica,sans-Serif" font-size="9.00" fill="#ff0000">ThreadError.js</text>
</g>
<!-- ./options.js -->
<g id="node7" class="node">
<title>./options.js</title>
<path fill="#ffffcc" stroke="#ff0000" d="M395,-108C395,-108 351,-108 351,-108 348,-108 345,-105 345,-102 345,-102 345,-96 345,-96 345,-93 348,-90 351,-90 351,-90 395,-90 395,-90 398,-90 401,-93 401,-96 401,-96 401,-102 401,-102 401,-105 398,-108 395,-108"/>
<text text-anchor="middle" x="373" y="-96.8" font-family="Helvetica,sans-Serif" font-size="9.00" fill="#ff0000">options.js</text>
</g>
<!-- assert -->
<g id="node8" class="node">
<title>assert</title>
<path fill="#ffffcc" stroke="#c0c0c0" d="M394,-48C394,-48 352,-48 352,-48 349,-48 346,-45 346,-42 346,-42 346,-36 346,-36 346,-33 349,-30 352,-30 352,-30 394,-30 394,-30 397,-30 400,-33 400,-36 400,-36 400,-42 400,-42 400,-45 397,-48 394,-48"/>
<text text-anchor="middle" x="373" y="-36.8" font-family="Helvetica,sans-Serif" font-size="9.00" fill="#c0c0c0">assert</text>
</g>
<!-- child_process -->
<g id="node9" class="node">
<title>child_process</title>
<path fill="#ffffcc" stroke="#c0c0c0" d="M404,-850C404,-850 342,-850 342,-850 339,-850 336,-847 336,-844 336,-844 336,-838 336,-838 336,-835 339,-832 342,-832 342,-832 404,-832 404,-832 407,-832 410,-835 410,-838 410,-838 410,-844 410,-844 410,-847 407,-850 404,-850"/>
<text text-anchor="middle" x="373" y="-838.8" font-family="Helvetica,sans-Serif" font-size="9.00" fill="#c0c0c0">child_process</text>
</g>
<!-- fs -->
<g id="node10" class="node">
<title>fs</title>
<path fill="#ffffcc" stroke="#c0c0c0" d="M394,-78C394,-78 352,-78 352,-78 349,-78 346,-75 346,-72 346,-72 346,-66 346,-66 346,-63 349,-60 352,-60 352,-60 394,-60 394,-60 397,-60 400,-63 400,-66 400,-66 400,-72 400,-72 400,-75 397,-78 394,-78"/>
<text text-anchor="middle" x="373" y="-66.8" font-family="Helvetica,sans-Serif" font-size="9.00" fill="#c0c0c0">fs</text>
</g>
<!-- os -->
<g id="node11" class="node">
<title>os</title>
<path fill="#ffffcc" stroke="#c0c0c0" d="M287.5,-150C287.5,-150 245.5,-150 245.5,-150 242.5,-150 239.5,-147 239.5,-144 239.5,-144 239.5,-138 239.5,-138 239.5,-135 242.5,-132 245.5,-132 245.5,-132 287.5,-132 287.5,-132 290.5,-132 293.5,-135 293.5,-138 293.5,-138 293.5,-144 293.5,-144 293.5,-147 290.5,-150 287.5,-150"/>
<text text-anchor="middle" x="266.5" y="-138.8" font-family="Helvetica,sans-Serif" font-size="9.00" fill="#c0c0c0">os</text>
</g>
<!-- readline -->
<g id="node12" class="node">
<title>readline</title>
<path fill="#ffffcc" stroke="#c0c0c0" d="M287.5,-120C287.5,-120 245.5,-120 245.5,-120 242.5,-120 239.5,-117 239.5,-114 239.5,-114 239.5,-108 239.5,-108 239.5,-105 242.5,-102 245.5,-102 245.5,-102 287.5,-102 287.5,-102 290.5,-102 293.5,-105 293.5,-108 293.5,-108 293.5,-114 293.5,-114 293.5,-117 290.5,-120 287.5,-120"/>
<text text-anchor="middle" x="266.5" y="-108.8" font-family="Helvetica,sans-Serif" font-size="9.00" fill="#c0c0c0">readline</text>
</g>
<!-- src/Authority.ts -->
<g id="node13" class="node">
<title>src/Authority.ts</title>
<g id="a_node13"><a xlink:href="src/Authority.ts" xlink:title="Authority.ts">
<path fill="#ddfeff" stroke="#000000" d="M291.5,-412C291.5,-412 241.5,-412 241.5,-412 238.5,-412 235.5,-409 235.5,-406 235.5,-406 235.5,-400 235.5,-400 235.5,-397 238.5,-394 241.5,-394 241.5,-394 291.5,-394 291.5,-394 294.5,-394 297.5,-397 297.5,-400 297.5,-400 297.5,-406 297.5,-406 297.5,-409 294.5,-412 291.5,-412"/>
<text text-anchor="middle" x="266.5" y="-400.8" font-family="Helvetica,sans-Serif" font-size="9.00" fill="#000000">Authority.ts</text>
</a>
</g>
</g>
<!-- src/BaseFunction.ts -->
<g id="node14" class="node">
<title>src/BaseFunction.ts</title>
<g id="a_node14"><a xlink:href="src/BaseFunction.ts" xlink:title="BaseFunction.ts">
<path fill="#ddfeff" stroke="#000000" d="M301.5,-442C301.5,-442 231.5,-442 231.5,-442 228.5,-442 225.5,-439 225.5,-436 225.5,-436 225.5,-430 225.5,-430 225.5,-427 228.5,-424 231.5,-424 231.5,-424 301.5,-424 301.5,-424 304.5,-424 307.5,-427 307.5,-430 307.5,-430 307.5,-436 307.5,-436 307.5,-439 304.5,-442 301.5,-442"/>
<text text-anchor="middle" x="266.5" y="-430.8" font-family="Helvetica,sans-Serif" font-size="9.00" fill="#000000">BaseFunction.ts</text>
</a>
</g>
</g>
<!-- src/BaseKont.js -->
<g id="node15" class="node">
<title>src/BaseKont.js</title>
<g id="a_node15"><a xlink:href="src/BaseKont.js" xlink:title="BaseKont.js">
<path fill="#ffffcc" stroke="#000000" d="M399.5,-709C399.5,-709 346.5,-709 346.5,-709 343.5,-709 340.5,-706 340.5,-703 340.5,-703 340.5,-697 340.5,-697 340.5,-694 343.5,-691 346.5,-691 346.5,-691 399.5,-691 399.5,-691 402.5,-691 405.5,-694 405.5,-697 405.5,-697 405.5,-703 405.5,-703 405.5,-706 402.5,-709 399.5,-709"/>
<text text-anchor="middle" x="373" y="-697.8" font-family="Helvetica,sans-Serif" font-size="9.00" fill="#000000">BaseKont.js</text>
</a>
</g>
</g>
<!-- src/Level.ts -->
<g id="node16" class="node">
<title>src/Level.ts</title>
<g id="a_node16"><a xlink:href="src/Level.ts" xlink:title="Level.ts">
<path fill="#ddfeff" stroke="#000000" d="M287.5,-724C287.5,-724 245.5,-724 245.5,-724 242.5,-724 239.5,-721 239.5,-718 239.5,-718 239.5,-712 239.5,-712 239.5,-709 242.5,-706 245.5,-706 245.5,-706 287.5,-706 287.5,-706 290.5,-706 293.5,-709 293.5,-712 293.5,-712 293.5,-718 293.5,-718 293.5,-721 290.5,-724 287.5,-724"/>
<text text-anchor="middle" x="266.5" y="-712.8" font-family="Helvetica,sans-Serif" font-size="9.00" fill="#000000">Level.ts</text>
</a>
</g>
</g>
<!-- src/Lval.ts -->
<g id="node17" class="node">
<title>src/Lval.ts</title>
<g id="a_node17"><a xlink:href="src/Lval.ts" xlink:title="Lval.ts">
<path fill="#ddfeff" stroke="#000000" d="M287.5,-502C287.5,-502 245.5,-502 245.5,-502 242.5,-502 239.5,-499 239.5,-496 239.5,-496 239.5,-490 239.5,-490 239.5,-487 242.5,-484 245.5,-484 245.5,-484 287.5,-484 287.5,-484 290.5,-484 293.5,-487 293.5,-490 293.5,-490 293.5,-496 293.5,-496 293.5,-499 290.5,-502 287.5,-502"/>
<text text-anchor="middle" x="266.5" y="-490.8" font-family="Helvetica,sans-Serif" font-size="9.00" fill="#000000">Lval.ts</text>
</a>
</g>
</g>
<!-- src/MailboxProcessor.js -->
<g id="node18" class="node">
<title>src/MailboxProcessor.js</title>
<g id="a_node18"><a xlink:href="src/MailboxProcessor.js" xlink:title="MailboxProcessor.js">
<path fill="#ffffcc" stroke="#000000" d="M310,-532C310,-532 223,-532 223,-532 220,-532 217,-529 217,-526 217,-526 217,-520 217,-520 217,-517 220,-514 223,-514 223,-514 310,-514 310,-514 313,-514 316,-517 316,-520 316,-520 316,-526 316,-526 316,-529 313,-532 310,-532"/>
<text text-anchor="middle" x="266.5" y="-520.8" font-family="Helvetica,sans-Serif" font-size="9.00" fill="#000000">MailboxProcessor.js</text>
</a>
</g>
</g>
<!-- src/MailboxProcessor.js&#45;&gt;./Lval.js -->
<g id="edge2" class="edge">
<title>src/MailboxProcessor.js&#45;&gt;./Lval.js</title>
<path fill="none" stroke="#000000" stroke-width="2" stroke-opacity="0.200000" d="M309.8361,-513.866C312.1508,-512.2126 314.2424,-510.2733 316,-508 338.2409,-479.233 309.2726,-211.5455 329,-181 331.8641,-176.5653 335.9103,-172.9896 340.4008,-170.1166"/>
<polygon fill="#000000" fill-opacity="0.200000" stroke="#000000" stroke-width="2" stroke-opacity="0.200000" points="341.635,-171.8316 345.8321,-167.0573 339.5737,-168.1722 341.635,-171.8316"/>
</g>
<!-- src/MailboxProcessor.js&#45;&gt;./SandboxStatus.js -->
<g id="edge5" class="edge">
<title>src/MailboxProcessor.js&#45;&gt;./SandboxStatus.js</title>
<path fill="none" stroke="#000000" stroke-width="2" stroke-opacity="0.200000" d="M309.8467,-513.8741C312.1588,-512.2188 314.247,-510.2768 316,-508 340.6891,-475.9331 304.8648,-176.4858 329,-144 329.4332,-143.4169 329.8903,-142.8564 330.3691,-142.3174"/>
<polygon fill="#000000" fill-opacity="0.200000" stroke="#000000" stroke-width="2" stroke-opacity="0.200000" points="332.1106,-143.5796 335.2046,-138.0264 329.3229,-140.4381 332.1106,-143.5796"/>
</g>
<!-- src/MailboxProcessor.js&#45;&gt;./Thread.js -->
<g id="edge6" class="edge">
<title>src/MailboxProcessor.js&#45;&gt;./Thread.js</title>
<path fill="none" stroke="#000000" stroke-width="2" stroke-opacity="0.200000" d="M282.5379,-532.0148C294.0969,-539.4804 308.8674,-551.241 316,-566 330.0347,-595.0411 309.6468,-830.1967 329,-856 331.7299,-859.6398 335.3913,-862.4039 339.4415,-864.5015"/>
<polygon fill="#000000" fill-opacity="0.200000" stroke="#000000" stroke-width="2" stroke-opacity="0.200000" points="338.8135,-866.5178 345.1544,-866.9685 340.4786,-862.6619 338.8135,-866.5178"/>
</g>
<!-- src/MailboxProcessor.js&#45;&gt;./options.js -->
<g id="edge3" class="edge">
<title>src/MailboxProcessor.js&#45;&gt;./options.js</title>
<path fill="none" stroke="#000000" stroke-width="2" stroke-opacity="0.200000" d="M309.8538,-513.8796C312.1642,-512.223 314.2501,-510.2792 316,-508 342.6742,-473.2572 302.9258,-149.1954 329,-114 331.6423,-110.4333 335.1802,-107.7068 339.1069,-105.6241"/>
<polygon fill="#000000" fill-opacity="0.200000" stroke="#000000" stroke-width="2" stroke-opacity="0.200000" points="340.0208,-107.5162 344.6549,-103.1647 338.3186,-103.6766 340.0208,-107.5162"/>
</g>
<!-- src/logger.js -->
<g id="node19" class="node">
<title>src/logger.js</title>
<g id="a_node19"><a xlink:href="src/logger.js" xlink:title="logger.js">
<path fill="#ffffcc" stroke="#000000" d="M394,-649C394,-649 352,-649 352,-649 349,-649 346,-646 346,-643 346,-643 346,-637 346,-637 346,-634 349,-631 352,-631 352,-631 394,-631 394,-631 397,-631 400,-634 400,-637 400,-637 400,-643 400,-643 400,-646 397,-649 394,-649"/>
<text text-anchor="middle" x="373" y="-637.8" font-family="Helvetica,sans-Serif" font-size="9.00" fill="#000000">logger.js</text>
</a>
</g>
</g>
<!-- src/MailboxProcessor.js&#45;&gt;src/logger.js -->
<g id="edge1" class="edge">
<title>src/MailboxProcessor.js&#45;&gt;src/logger.js</title>
<path fill="none" stroke="#000000" stroke-width="2" stroke-opacity="0.200000" d="M284.2453,-532.1122C294.2854,-537.8163 306.6604,-545.8163 316,-555 337.7402,-576.3774 355.9463,-607.2883 365.5878,-625.3462"/>
<polygon fill="#000000" fill-opacity="0.200000" stroke="#000000" stroke-width="2" stroke-opacity="0.200000" points="363.8768,-626.6055 368.5219,-630.9452 367.5969,-624.6559 363.8768,-626.6055"/>
</g>
<!-- src/process.js -->
<g id="node20" class="node">
<title>src/process.js</title>
<g id="a_node20"><a xlink:href="src/process.js" xlink:title="process.js">
<path fill="#ffffcc" stroke="#000000" d="M396,-554C396,-554 350,-554 350,-554 347,-554 344,-551 344,-548 344,-548 344,-542 344,-542 344,-539 347,-536 350,-536 350,-536 396,-536 396,-536 399,-536 402,-539 402,-542 402,-542 402,-548 402,-548 402,-551 399,-554 396,-554"/>
<text text-anchor="middle" x="373" y="-542.8" font-family="Helvetica,sans-Serif" font-size="9.00" fill="#000000">process.js</text>
</a>
</g>
</g>
<!-- src/MailboxProcessor.js&#45;&gt;src/process.js -->
<g id="edge4" class="edge">
<title>src/MailboxProcessor.js&#45;&gt;src/process.js</title>
<path fill="none" stroke="#000000" stroke-width="2" stroke-opacity="0.200000" d="M310.1249,-532.0117C319.3662,-533.9207 329.0076,-535.9124 337.8853,-537.7463"/>
<polygon fill="#000000" fill-opacity="0.200000" stroke="#000000" stroke-width="2" stroke-opacity="0.200000" points="337.5943,-539.8304 343.8951,-538.9877 338.444,-535.7173 337.5943,-539.8304"/>
</g>
<!-- src/NodeManager.js -->
<g id="node21" class="node">
<title>src/NodeManager.js</title>
<g id="a_node21"><a xlink:href="src/NodeManager.js" xlink:title="NodeManager.js">
<path fill="#ffffcc" stroke="#000000" d="M303,-590C303,-590 230,-590 230,-590 227,-590 224,-587 224,-584 224,-584 224,-578 224,-578 224,-575 227,-572 230,-572 230,-572 303,-572 303,-572 306,-572 309,-575 309,-578 309,-578 309,-584 309,-584 309,-587 306,-590 303,-590"/>
<text text-anchor="middle" x="266.5" y="-578.8" font-family="Helvetica,sans-Serif" font-size="9.00" fill="#000000">NodeManager.js</text>
</a>
</g>
</g>
<!-- src/RtClosure.js -->
<g id="node22" class="node">
<title>src/RtClosure.js</title>
<g id="a_node22"><a xlink:href="src/RtClosure.js" xlink:title="RtClosure.js">
<path fill="#ffffcc" stroke="#000000" d="M294,-620C294,-620 239,-620 239,-620 236,-620 233,-617 233,-614 233,-614 233,-608 233,-608 233,-605 236,-602 239,-602 239,-602 294,-602 294,-602 297,-602 300,-605 300,-608 300,-608 300,-614 300,-614 300,-617 297,-620 294,-620"/>
<text text-anchor="middle" x="266.5" y="-608.8" font-family="Helvetica,sans-Serif" font-size="9.00" fill="#000000">RtClosure.js</text>
</a>
</g>
</g>
<!-- src/SandboxStatus.ts -->
<g id="node23" class="node">
<title>src/SandboxStatus.ts</title>
<g id="a_node23"><a xlink:href="src/SandboxStatus.ts" xlink:title="SandboxStatus.ts">
<path fill="#ddfeff" stroke="#000000" d="M304.5,-650C304.5,-650 228.5,-650 228.5,-650 225.5,-650 222.5,-647 222.5,-644 222.5,-644 222.5,-638 222.5,-638 222.5,-635 225.5,-632 228.5,-632 228.5,-632 304.5,-632 304.5,-632 307.5,-632 310.5,-635 310.5,-638 310.5,-638 310.5,-644 310.5,-644 310.5,-647 307.5,-650 304.5,-650"/>
<text text-anchor="middle" x="266.5" y="-638.8" font-family="Helvetica,sans-Serif" font-size="9.00" fill="#000000">SandboxStatus.ts</text>
</a>
</g>
</g>
<!-- src/Scheduler.js -->
<g id="node24" class="node">
<title>src/Scheduler.js</title>
<g id="a_node24"><a xlink:href="src/Scheduler.js" xlink:title="Scheduler.js">
<path fill="#ffffcc" stroke="#000000" d="M294.5,-694C294.5,-694 238.5,-694 238.5,-694 235.5,-694 232.5,-691 232.5,-688 232.5,-688 232.5,-682 232.5,-682 232.5,-679 235.5,-676 238.5,-676 238.5,-676 294.5,-676 294.5,-676 297.5,-676 300.5,-679 300.5,-682 300.5,-682 300.5,-688 300.5,-688 300.5,-691 297.5,-694 294.5,-694"/>
<text text-anchor="middle" x="266.5" y="-682.8" font-family="Helvetica,sans-Serif" font-size="9.00" fill="#000000">Scheduler.js</text>
</a>
</g>
</g>
<!-- src/Scheduler.js&#45;&gt;./Authority.js -->
<g id="edge7" class="edge">
<title>src/Scheduler.js&#45;&gt;./Authority.js</title>
<path fill="none" stroke="#000000" stroke-width="2" stroke-opacity="0.200000" d="M300.7145,-689.4658C306.6042,-691.7371 312.081,-695.0855 316,-700 341.8329,-732.3953 303.7268,-853.1663 329,-886 331.0306,-888.6381 333.5493,-890.8155 336.3459,-892.6121"/>
<polygon fill="#000000" fill-opacity="0.200000" stroke="#000000" stroke-width="2" stroke-opacity="0.200000" points="335.3552,-894.4637 341.6348,-895.4522 337.3422,-890.7634 335.3552,-894.4637"/>
</g>
<!-- src/Scheduler.js&#45;&gt;./BaseFunction.js -->
<g id="edge8" class="edge">
<title>src/Scheduler.js&#45;&gt;./BaseFunction.js</title>
<path fill="none" stroke="#000000" stroke-width="2" stroke-opacity="0.200000" d="M300.7522,-689.4358C306.6388,-691.7096 312.1048,-695.0666 316,-700 345.7985,-737.7411 299.8534,-877.7531 329,-916 329.4403,-916.5777 329.9039,-917.1334 330.3889,-917.6678"/>
<polygon fill="#000000" fill-opacity="0.200000" stroke="#000000" stroke-width="2" stroke-opacity="0.200000" points="329.3662,-919.5626 335.2673,-921.9264 332.1283,-916.3986 329.3662,-919.5626"/>
</g>
<!-- src/Scheduler.js&#45;&gt;./Lval.js -->
<g id="edge11" class="edge">
<title>src/Scheduler.js&#45;&gt;./Lval.js</title>
<path fill="none" stroke="#000000" stroke-width="2" stroke-opacity="0.200000" d="M292.5524,-675.8991C301.5688,-671.3736 310.7269,-664.9157 316,-656 342.8775,-610.5557 300.6309,-225.5283 329,-181 331.8366,-176.5477 335.8686,-172.9629 340.3533,-170.0861"/>
<polygon fill="#000000" fill-opacity="0.200000" stroke="#000000" stroke-width="2" stroke-opacity="0.200000" points="341.5869,-171.8014 345.7815,-167.0248 339.5237,-168.1431 341.5869,-171.8014"/>
</g>
<!-- src/Scheduler.js&#45;&gt;./SandboxStatus.js -->
<g id="edge14" class="edge">
<title>src/Scheduler.js&#45;&gt;./SandboxStatus.js</title>
<path fill="none" stroke="#000000" stroke-width="2" stroke-opacity="0.200000" d="M292.5618,-675.9046C301.5792,-671.3797 310.7357,-664.9209 316,-656 344.9212,-606.9898 295.2983,-189.8544 329,-144 329.4302,-143.4147 329.8845,-142.8521 330.3607,-142.3111"/>
<polygon fill="#000000" fill-opacity="0.200000" stroke="#000000" stroke-width="2" stroke-opacity="0.200000" points="332.1031,-143.5705 335.1779,-138.0066 329.3045,-140.4386 332.1031,-143.5705"/>
</g>
<!-- src/Scheduler.js&#45;&gt;./Thread.js -->
<g id="edge15" class="edge">
<title>src/Scheduler.js&#45;&gt;./Thread.js</title>
<path fill="none" stroke="#000000" stroke-width="2" stroke-opacity="0.200000" d="M300.6627,-689.5074C306.5566,-691.7753 312.0483,-695.1118 316,-700 337.8697,-727.0525 307.5977,-828.5762 329,-856 331.7992,-859.5868 335.4993,-862.3212 339.5678,-864.4049"/>
<polygon fill="#000000" fill-opacity="0.200000" stroke="#000000" stroke-width="2" stroke-opacity="0.200000" points="338.9521,-866.4258 345.2941,-866.8616 340.6082,-862.566 338.9521,-866.4258"/>
</g>
<!-- src/Scheduler.js&#45;&gt;./ThreadError.js -->
<g id="edge16" class="edge">
<title>src/Scheduler.js&#45;&gt;./ThreadError.js</title>
<path fill="none" stroke="#000000" stroke-width="2" stroke-opacity="0.200000" d="M300.5284,-689.3165C306.5088,-691.5932 312.0675,-694.9817 316,-700 349.7658,-743.089 295.9785,-902.338 329,-946 329.4381,-946.5793 329.8999,-947.1365 330.383,-947.6722"/>
<polygon fill="#000000" fill-opacity="0.200000" stroke="#000000" stroke-width="2" stroke-opacity="0.200000" points="329.3533,-949.5625 335.2486,-951.9406 332.123,-946.4052 329.3533,-949.5625"/>
</g>
<!-- src/Scheduler.js&#45;&gt;./options.js -->
<g id="edge12" class="edge">
<title>src/Scheduler.js&#45;&gt;./options.js</title>
<path fill="none" stroke="#000000" stroke-width="2" stroke-opacity="0.200000" d="M292.5684,-675.9085C301.5867,-671.3841 310.742,-664.9246 316,-656 346.5783,-604.0984 293.3589,-162.5645 329,-114 331.6263,-110.4215 335.155,-107.6882 339.0772,-105.6022"/>
<polygon fill="#000000" fill-opacity="0.200000" stroke="#000000" stroke-width="2" stroke-opacity="0.200000" points="339.9903,-107.4946 344.6217,-103.1403 338.2858,-103.656 339.9903,-107.4946"/>
</g>
<!-- src/Scheduler.js&#45;&gt;src/BaseKont.js -->
<g id="edge9" class="edge">
<title>src/Scheduler.js&#45;&gt;src/BaseKont.js</title>
<path fill="none" stroke="#000000" stroke-width="2" stroke-opacity="0.200000" d="M300.7835,-689.8287C311.4552,-691.3317 323.2959,-692.9994 334.2504,-694.5423"/>
<polygon fill="#000000" fill-opacity="0.200000" stroke="#000000" stroke-width="2" stroke-opacity="0.200000" points="333.9977,-696.6274 340.232,-695.3848 334.5835,-692.4684 333.9977,-696.6274"/>
</g>
<!-- src/Scheduler.js&#45;&gt;src/logger.js -->
<g id="edge10" class="edge">
<title>src/Scheduler.js&#45;&gt;src/logger.js</title>
<path fill="none" stroke="#000000" stroke-width="2" stroke-opacity="0.200000" d="M297.2201,-675.9801C303.6468,-673.5092 310.2209,-670.5201 316,-667 322.7153,-662.9096 322.2437,-659.0223 329,-655 332.4478,-652.9474 336.2161,-651.1262 340.0502,-649.5241"/>
<polygon fill="#000000" fill-opacity="0.200000" stroke="#000000" stroke-width="2" stroke-opacity="0.200000" points="340.8547,-651.4645 345.6852,-647.3321 339.332,-647.5503 340.8547,-651.4645"/>
</g>
<!-- src/Scheduler.js&#45;&gt;src/process.js -->
<g id="edge13" class="edge">
<title>src/Scheduler.js&#45;&gt;src/process.js</title>
<path fill="none" stroke="#000000" stroke-width="2" stroke-opacity="0.200000" d="M288.8927,-675.7633C298.2602,-670.9942 308.6532,-664.3942 316,-656 325.8397,-644.7576 322.502,-638.4531 329,-625 340.2977,-601.6097 355.1613,-575.3834 364.396,-559.5367"/>
<polygon fill="#000000" fill-opacity="0.200000" stroke="#000000" stroke-width="2" stroke-opacity="0.200000" points="366.3058,-560.4311 367.5266,-554.1925 362.6818,-558.3082 366.3058,-560.4311"/>
</g>
<!-- src/UnitBase.js -->
<g id="node25" class="node">
<title>src/UnitBase.js</title>
<g id="a_node25"><a xlink:href="src/UnitBase.js" xlink:title="UnitBase.js">
<path fill="#ffffcc" stroke="#000000" d="M398.5,-679C398.5,-679 347.5,-679 347.5,-679 344.5,-679 341.5,-676 341.5,-673 341.5,-673 341.5,-667 341.5,-667 341.5,-664 344.5,-661 347.5,-661 347.5,-661 398.5,-661 398.5,-661 401.5,-661 404.5,-664 404.5,-667 404.5,-667 404.5,-673 404.5,-673 404.5,-676 401.5,-679 398.5,-679"/>
<text text-anchor="middle" x="373" y="-667.8" font-family="Helvetica,sans-Serif" font-size="9.00" fill="#000000">UnitBase.js</text>
</a>
</g>
</g>
<!-- src/Scheduler.js&#45;&gt;src/UnitBase.js -->
<g id="edge17" class="edge">
<title>src/Scheduler.js&#45;&gt;src/UnitBase.js</title>
<path fill="none" stroke="#000000" stroke-width="2" stroke-opacity="0.200000" d="M300.7835,-680.1713C311.763,-678.6249 323.98,-676.9042 335.1961,-675.3245"/>
<polygon fill="#000000" fill-opacity="0.200000" stroke="#000000" stroke-width="2" stroke-opacity="0.200000" points="335.6616,-677.3797 341.3101,-674.4634 335.0758,-673.2208 335.6616,-677.3797"/>
</g>
<!-- src/StackCallItem.ts -->
<g id="node26" class="node">
<title>src/StackCallItem.ts</title>
<g id="a_node26"><a xlink:href="src/StackCallItem.ts" xlink:title="StackCallItem.ts">
<path fill="#ddfeff" stroke="#000000" d="M190,-566C190,-566 120,-566 120,-566 117,-566 114,-563 114,-560 114,-560 114,-554 114,-554 114,-551 117,-548 120,-548 120,-548 190,-548 190,-548 193,-548 196,-551 196,-554 196,-554 196,-560 196,-560 196,-563 193,-566 190,-566"/>
<text text-anchor="middle" x="155" y="-554.8" font-family="Helvetica,sans-Serif" font-size="9.00" fill="#000000">StackCallItem.ts</text>
</a>
</g>
</g>
<!-- src/StackCallItem.ts&#45;&gt;./options.js -->
<g id="edge18" class="edge">
<title>src/StackCallItem.ts&#45;&gt;./options.js</title>
<path fill="none" stroke="#000000" stroke-width="2" stroke-opacity="0.200000" d="M160.5771,-547.8038C171.31,-529.5545 194.6059,-487.1391 204,-448 210.9321,-419.1185 198.1844,-203.982 217,-181 245.7482,-145.886 283.0745,-187.2309 316,-156 330.1772,-142.5525 315.3803,-128.0118 329,-114 331.8724,-111.0449 335.3494,-108.6719 339.0757,-106.7664"/>
<polygon fill="#000000" fill-opacity="0.200000" stroke="#000000" stroke-width="2" stroke-opacity="0.200000" points="340.0313,-108.6401 344.672,-104.2956 338.3349,-104.7979 340.0313,-108.6401"/>
</g>
<!-- src/StackItem.ts -->
<g id="node27" class="node">
<title>src/StackItem.ts</title>
<g id="a_node27"><a xlink:href="src/StackItem.ts" xlink:title="StackItem.ts">
<path fill="#ddfeff" stroke="#000000" d="M293,-754C293,-754 240,-754 240,-754 237,-754 234,-751 234,-748 234,-748 234,-742 234,-742 234,-739 237,-736 240,-736 240,-736 293,-736 293,-736 296,-736 299,-739 299,-742 299,-742 299,-748 299,-748 299,-751 296,-754 293,-754"/>
<text text-anchor="middle" x="266.5" y="-742.8" font-family="Helvetica,sans-Serif" font-size="9.00" fill="#000000">StackItem.ts</text>
</a>
</g>
</g>
<!-- src/StackCallItem.ts&#45;&gt;src/StackItem.ts -->
<g id="edge19" class="edge">
<title>src/StackCallItem.ts&#45;&gt;src/StackItem.ts</title>
<path fill="none" stroke="#000000" stroke-width="2" stroke-opacity="0.200000" d="M159.3055,-566.0767C168.5075,-585.7446 190.3604,-633.9168 204,-676 211.6111,-699.4831 200.058,-712.0459 217,-730 220.1353,-733.3226 223.9794,-735.9171 228.1268,-737.9415"/>
<polygon fill="#000000" fill-opacity="0.200000" stroke="#000000" stroke-width="2" stroke-opacity="0.200000" points="227.5861,-739.9913 233.9321,-740.3636 229.2034,-736.1152 227.5861,-739.9913"/>
</g>
<!-- src/StackGuardItem.ts -->
<g id="node28" class="node">
<title>src/StackGuardItem.ts</title>
<g id="a_node28"><a xlink:href="src/StackGuardItem.ts" xlink:title="StackGuardItem.ts">
<path fill="#ddfeff" stroke="#000000" d="M194.5,-787C194.5,-787 115.5,-787 115.5,-787 112.5,-787 109.5,-784 109.5,-781 109.5,-781 109.5,-775 109.5,-775 109.5,-772 112.5,-769 115.5,-769 115.5,-769 194.5,-769 194.5,-769 197.5,-769 200.5,-772 200.5,-775 200.5,-775 200.5,-781 200.5,-781 200.5,-784 197.5,-787 194.5,-787"/>
<text text-anchor="middle" x="155" y="-775.8" font-family="Helvetica,sans-Serif" font-size="9.00" fill="#000000">StackGuardItem.ts</text>
</a>
</g>
</g>
<!-- src/StackGuardItem.ts&#45;&gt;src/StackItem.ts -->
<g id="edge20" class="edge">
<title>src/StackGuardItem.ts&#45;&gt;src/StackItem.ts</title>
<path fill="none" stroke="#000000" stroke-width="2" stroke-opacity="0.200000" d="M186.9157,-768.9652C192.6101,-767.3293 198.484,-765.6263 204,-764 212.75,-761.4202 222.1718,-758.5858 230.9794,-755.9114"/>
<polygon fill="#000000" fill-opacity="0.200000" stroke="#000000" stroke-width="2" stroke-opacity="0.200000" points="231.8343,-757.8464 236.963,-754.0906 230.6115,-753.8283 231.8343,-757.8464"/>
</g>
<!-- src/StackThread.ts -->
<g id="node29" class="node">
<title>src/StackThread.ts</title>
<g id="a_node29"><a xlink:href="src/StackThread.ts" xlink:title="StackThread.ts">
<path fill="#ddfeff" stroke="#000000" d="M87,-566C87,-566 22,-566 22,-566 19,-566 16,-563 16,-560 16,-560 16,-554 16,-554 16,-551 19,-548 22,-548 22,-548 87,-548 87,-548 90,-548 93,-551 93,-554 93,-554 93,-560 93,-560 93,-563 90,-566 87,-566"/>
<text text-anchor="middle" x="54.5" y="-554.8" font-family="Helvetica,sans-Serif" font-size="9.00" fill="#000000">StackThread.ts</text>
</a>
</g>
</g>
<!-- src/StackThread.ts&#45;&gt;src/StackCallItem.ts -->
<g id="edge21" class="edge">
<title>src/StackThread.ts&#45;&gt;src/StackCallItem.ts</title>
<path fill="none" stroke="#000000" stroke-width="2" stroke-opacity="0.200000" d="M93.0685,-557C97.8169,-557 102.7126,-557 107.573,-557"/>
<polygon fill="#000000" fill-opacity="0.200000" stroke="#000000" stroke-width="2" stroke-opacity="0.200000" points="107.6968,-559.1001 113.6968,-557 107.6968,-554.9001 107.6968,-559.1001"/>
</g>
<!-- src/Thread.ts -->
<g id="node30" class="node">
<title>src/Thread.ts</title>
<g id="a_node30"><a xlink:href="src/Thread.ts" xlink:title="Thread.ts">
<path fill="#ddfeff" stroke="#000000" d="M288,-798C288,-798 245,-798 245,-798 242,-798 239,-795 239,-792 239,-792 239,-786 239,-786 239,-783 242,-780 245,-780 245,-780 288,-780 288,-780 291,-780 294,-783 294,-786 294,-786 294,-792 294,-792 294,-795 291,-798 288,-798"/>
<text text-anchor="middle" x="266.5" y="-786.8" font-family="Helvetica,sans-Serif" font-size="9.00" fill="#000000">Thread.ts</text>
</a>
</g>
</g>
<!-- src/Thread.ts&#45;&gt;./Lval.js -->
<g id="edge23" class="edge">
<title>src/Thread.ts&#45;&gt;./Lval.js</title>
<path fill="none" stroke="#000000" stroke-width="2" stroke-opacity="0.200000" d="M292.5756,-779.9128C301.5948,-775.3889 310.7488,-768.9286 316,-760 348.6221,-704.5323 294.5572,-235.3558 329,-181 331.8256,-176.5407 335.852,-172.9523 340.3344,-170.0741"/>
<polygon fill="#000000" fill-opacity="0.200000" stroke="#000000" stroke-width="2" stroke-opacity="0.200000" points="341.5678,-171.7895 345.7614,-167.012 339.5038,-168.1316 341.5678,-171.7895"/>
</g>
<!-- src/Thread.ts&#45;&gt;./ThreadError.js -->
<g id="edge24" class="edge">
<title>src/Thread.ts&#45;&gt;./ThreadError.js</title>
<path fill="none" stroke="#000000" stroke-width="2" stroke-opacity="0.200000" d="M267.5042,-798.2735C270.8985,-825.0957 284.3545,-903.5457 329,-946 329.9979,-946.9489 331.0582,-947.838 332.1683,-948.671"/>
<polygon fill="#000000" fill-opacity="0.200000" stroke="#000000" stroke-width="2" stroke-opacity="0.200000" points="331.1305,-950.5002 337.3138,-951.9755 333.4,-946.9662 331.1305,-950.5002"/>
</g>
<!-- src/Thread.ts&#45;&gt;src/logger.js -->
<g id="edge22" class="edge">
<title>src/Thread.ts&#45;&gt;src/logger.js</title>
<path fill="none" stroke="#000000" stroke-width="2" stroke-opacity="0.200000" d="M294.234,-784.6965C302.4253,-782.065 310.6272,-777.8263 316,-771 348.086,-730.2342 296.5036,-695.4393 329,-655 331.9858,-651.2843 335.936,-648.4848 340.2466,-646.3763"/>
<polygon fill="#000000" fill-opacity="0.200000" stroke="#000000" stroke-width="2" stroke-opacity="0.200000" points="341.1113,-648.2913 345.8539,-644.0584 339.5067,-644.4099 341.1113,-648.2913"/>
</g>
<!-- src/ThreadError.ts -->
<g id="node31" class="node">
<title>src/ThreadError.ts</title>
<g id="a_node31"><a xlink:href="src/ThreadError.ts" xlink:title="ThreadError.ts">
<path fill="#ddfeff" stroke="#000000" d="M298,-322C298,-322 235,-322 235,-322 232,-322 229,-319 229,-316 229,-316 229,-310 229,-310 229,-307 232,-304 235,-304 235,-304 298,-304 298,-304 301,-304 304,-307 304,-310 304,-310 304,-316 304,-316 304,-319 301,-322 298,-322"/>
<text text-anchor="middle" x="266.5" y="-310.8" font-family="Helvetica,sans-Serif" font-size="9.00" fill="#000000">ThreadError.ts</text>
</a>
</g>
</g>
<!-- src/ValuesUtil.js -->
<g id="node32" class="node">
<title>src/ValuesUtil.js</title>
<g id="a_node32"><a xlink:href="src/ValuesUtil.js" xlink:title="ValuesUtil.js">
<path fill="#ffffcc" stroke="#000000" d="M294.5,-382C294.5,-382 238.5,-382 238.5,-382 235.5,-382 232.5,-379 232.5,-376 232.5,-376 232.5,-370 232.5,-370 232.5,-367 235.5,-364 238.5,-364 238.5,-364 294.5,-364 294.5,-364 297.5,-364 300.5,-367 300.5,-370 300.5,-370 300.5,-376 300.5,-376 300.5,-379 297.5,-382 294.5,-382"/>
<text text-anchor="middle" x="266.5" y="-370.8" font-family="Helvetica,sans-Serif" font-size="9.00" fill="#000000">ValuesUtil.js</text>
</a>
</g>
</g>
<!-- src/levels/lohi.js -->
<g id="node33" class="node">
<title>src/levels/lohi.js</title>
<g id="a_node33"><a xlink:href="src/levels/lohi.js" xlink:title="lohi.js">
<path fill="#ffffcc" stroke="#000000" d="M176,-705C176,-705 134,-705 134,-705 131,-705 128,-702 128,-699 128,-699 128,-693 128,-693 128,-690 131,-687 134,-687 134,-687 176,-687 176,-687 179,-687 182,-690 182,-693 182,-693 182,-699 182,-699 182,-702 179,-705 176,-705"/>
<text text-anchor="middle" x="155" y="-693.8" font-family="Helvetica,sans-Serif" font-size="9.00" fill="#000000">lohi.js</text>
</a>
</g>
</g>
<!-- src/levels/lohi.js&#45;&gt;src/Level.ts -->
<g id="edge25" class="edge">
<title>src/levels/lohi.js&#45;&gt;src/Level.ts</title>
<path fill="none" stroke="#000000" stroke-width="2" stroke-opacity="0.200000" d="M182.276,-700.6479C197.5295,-703.2472 216.6705,-706.5089 232.849,-709.2658"/>
<polygon fill="#000000" fill-opacity="0.200000" stroke="#000000" stroke-width="2" stroke-opacity="0.200000" points="232.8516,-711.3964 239.1192,-710.3342 233.5572,-707.2561 232.8516,-711.3964"/>
</g>
<!-- src/levels/tagsets.ts -->
<g id="node34" class="node">
<title>src/levels/tagsets.ts</title>
<g id="a_node34"><a xlink:href="src/levels/tagsets.ts" xlink:title="tagsets.ts">
<path fill="#ddfeff" stroke="#000000" d="M176.5,-735C176.5,-735 133.5,-735 133.5,-735 130.5,-735 127.5,-732 127.5,-729 127.5,-729 127.5,-723 127.5,-723 127.5,-720 130.5,-717 133.5,-717 133.5,-717 176.5,-717 176.5,-717 179.5,-717 182.5,-720 182.5,-723 182.5,-723 182.5,-729 182.5,-729 182.5,-732 179.5,-735 176.5,-735"/>
<text text-anchor="middle" x="155" y="-723.8" font-family="Helvetica,sans-Serif" font-size="9.00" fill="#000000">tagsets.ts</text>
</a>
</g>
</g>
<!-- src/levels/tagsets.ts&#45;&gt;src/Level.ts -->
<g id="edge26" class="edge">
<title>src/levels/tagsets.ts&#45;&gt;src/Level.ts</title>
<path fill="none" stroke="#000000" stroke-width="2" stroke-opacity="0.200000" d="M182.5618,-723.2809C197.8195,-721.7757 216.8997,-719.8933 233.0117,-718.3038"/>
<polygon fill="#000000" fill-opacity="0.200000" stroke="#000000" stroke-width="2" stroke-opacity="0.200000" points="233.4904,-720.3668 239.2552,-717.6878 233.078,-716.1871 233.4904,-720.3668"/>
</g>
<!-- src/levels/tagsets.ts&#45;&gt;src/logger.js -->
<g id="edge27" class="edge">
<title>src/levels/tagsets.ts&#45;&gt;src/logger.js</title>
<path fill="none" stroke="#000000" stroke-width="2" stroke-opacity="0.200000" d="M182.5718,-729.4886C190.0436,-731.4102 197.778,-734.3877 204,-739 212.8183,-745.537 207.4105,-754.6581 217,-760 236.2192,-770.7062 299.5156,-774.5693 316,-760 351.2339,-728.8594 299.3332,-691.4834 329,-655 332.0073,-651.3017 335.969,-648.5115 340.2847,-646.4071"/>
<polygon fill="#000000" fill-opacity="0.200000" stroke="#000000" stroke-width="2" stroke-opacity="0.200000" points="341.1501,-648.3219 345.8953,-644.0918 339.5478,-644.4395 341.1501,-648.3219"/>
</g>
<!-- src/loadLibs.js -->
<g id="node35" class="node">
<title>src/loadLibs.js</title>
<g id="a_node35"><a xlink:href="src/loadLibs.js" xlink:title="loadLibs.js">
<path fill="#ffffcc" stroke="#000000" d="M291,-472C291,-472 242,-472 242,-472 239,-472 236,-469 236,-466 236,-466 236,-460 236,-460 236,-457 239,-454 242,-454 242,-454 291,-454 291,-454 294,-454 297,-457 297,-460 297,-460 297,-466 297,-466 297,-469 294,-472 291,-472"/>
<text text-anchor="middle" x="266.5" y="-460.8" font-family="Helvetica,sans-Serif" font-size="9.00" fill="#000000">loadLibs.js</text>
</a>
</g>
</g>
<!-- src/loadLibs.js&#45;&gt;fs -->
<g id="edge29" class="edge">
<title>src/loadLibs.js&#45;&gt;fs</title>
<path fill="none" stroke="#000000" stroke-dasharray="5,2" stroke-opacity="0.200000" d="M297.0197,-459.9582C304.3223,-457.7332 311.3436,-454.0478 316,-448 340.6891,-415.9331 304.8648,-116.4858 329,-84 331.8427,-80.1737 335.7158,-77.3146 339.9924,-75.1799"/>
<polygon fill="#000000" fill-opacity="0.200000" stroke="#000000" stroke-opacity="0.200000" points="340.8522,-77.0967 345.5782,-72.8453 339.2325,-73.2216 340.8522,-77.0967"/>
</g>
<!-- src/loadLibs.js&#45;&gt;src/logger.js -->
<g id="edge28" class="edge">
<title>src/loadLibs.js&#45;&gt;src/logger.js</title>
<path fill="none" stroke="#000000" stroke-width="2" stroke-opacity="0.200000" d="M297.0549,-466.5945C304.178,-468.8294 311.103,-472.3815 316,-478 340.2448,-505.8167 317.0417,-525.0918 329,-560 337.3267,-584.3068 352.7491,-609.9057 362.9432,-625.4155"/>
<polygon fill="#000000" fill-opacity="0.200000" stroke="#000000" stroke-width="2" stroke-opacity="0.200000" points="361.3613,-626.8282 366.4395,-630.6521 364.8543,-624.496 361.3613,-626.8282"/>
</g>
<!-- src/options.ts -->
<g id="node36" class="node">
<title>src/options.ts</title>
<g id="a_node36"><a xlink:href="src/options.ts" xlink:title="options.ts">
<path fill="#ddfeff" stroke="#000000" d="M288.5,-352C288.5,-352 244.5,-352 244.5,-352 241.5,-352 238.5,-349 238.5,-346 238.5,-346 238.5,-340 238.5,-340 238.5,-337 241.5,-334 244.5,-334 244.5,-334 288.5,-334 288.5,-334 291.5,-334 294.5,-337 294.5,-340 294.5,-340 294.5,-346 294.5,-346 294.5,-349 291.5,-352 288.5,-352"/>
<text text-anchor="middle" x="266.5" y="-340.8" font-family="Helvetica,sans-Serif" font-size="9.00" fill="#000000">options.ts</text>
</a>
</g>
</g>
<!-- src/p2p/libp2p&#45;bundle.js -->
<g id="node37" class="node">
<title>src/p2p/libp2p&#45;bundle.js</title>
<g id="a_node37"><a xlink:href="src/p2p/libp2p-bundle.js" xlink:title="libp2p&#45;bundle.js">
<path fill="#ffffcc" stroke="#000000" d="M408.5,-222C408.5,-222 337.5,-222 337.5,-222 334.5,-222 331.5,-219 331.5,-216 331.5,-216 331.5,-210 331.5,-210 331.5,-207 334.5,-204 337.5,-204 337.5,-204 408.5,-204 408.5,-204 411.5,-204 414.5,-207 414.5,-210 414.5,-210 414.5,-216 414.5,-216 414.5,-219 411.5,-222 408.5,-222"/>
<text text-anchor="middle" x="373" y="-210.8" font-family="Helvetica,sans-Serif" font-size="9.00" fill="#000000">libp2p&#45;bundle.js</text>
</a>
</g>
</g>
<!-- src/p2p/p2pconfig.js -->
<g id="node38" class="node">
<title>src/p2p/p2pconfig.js</title>
<g id="a_node38"><a xlink:href="src/p2p/p2pconfig.js" xlink:title="p2pconfig.js">
<path fill="#ffffcc" stroke="#000000" d="M490,-233C490,-233 436,-233 436,-233 433,-233 430,-230 430,-227 430,-227 430,-221 430,-221 430,-218 433,-215 436,-215 436,-215 490,-215 490,-215 493,-215 496,-218 496,-221 496,-221 496,-227 496,-227 496,-230 493,-233 490,-233"/>
<text text-anchor="middle" x="463" y="-221.8" font-family="Helvetica,sans-Serif" font-size="9.00" fill="#000000">p2pconfig.js</text>
</a>
</g>
</g>
<!-- src/p2p/libp2p&#45;bundle.js&#45;&gt;src/p2p/p2pconfig.js -->
<g id="edge30" class="edge">
<title>src/p2p/libp2p&#45;bundle.js&#45;&gt;src/p2p/p2pconfig.js</title>
<path fill="none" stroke="#000000" stroke-width="2" stroke-opacity="0.200000" d="M414.5752,-218.0814C417.6381,-218.4558 420.7222,-218.8327 423.7704,-219.2053"/>
<polygon fill="#000000" fill-opacity="0.200000" stroke="#000000" stroke-width="2" stroke-opacity="0.200000" points="423.748,-221.3181 429.9585,-219.9616 424.2576,-217.1491 423.748,-221.3181"/>
</g>
<!-- src/p2p/mkid.js -->
<g id="node39" class="node">
<title>src/p2p/mkid.js</title>
<g id="a_node39"><a xlink:href="src/p2p/mkid.js" xlink:title="mkid.js">
<path fill="#ffffcc" stroke="#000000" d="M287.5,-210C287.5,-210 245.5,-210 245.5,-210 242.5,-210 239.5,-207 239.5,-204 239.5,-204 239.5,-198 239.5,-198 239.5,-195 242.5,-192 245.5,-192 245.5,-192 287.5,-192 287.5,-192 290.5,-192 293.5,-195 293.5,-198 293.5,-198 293.5,-204 293.5,-204 293.5,-207 290.5,-210 287.5,-210"/>
<text text-anchor="middle" x="266.5" y="-198.8" font-family="Helvetica,sans-Serif" font-size="9.00" fill="#000000">mkid.js</text>
</a>
</g>
</g>
<!-- src/p2p/mkid.js&#45;&gt;fs -->
<g id="edge31" class="edge">
<title>src/p2p/mkid.js&#45;&gt;fs</title>
<path fill="none" stroke="#000000" stroke-dasharray="5,2" stroke-opacity="0.200000" d="M281.0497,-191.7591C292.4287,-183.7274 307.6718,-171.0366 316,-156 331.7551,-127.5543 307.7933,-108.6507 329,-84 331.9672,-80.5509 335.7613,-77.8935 339.8743,-75.8463"/>
<polygon fill="#000000" fill-opacity="0.200000" stroke="#000000" stroke-opacity="0.200000" points="340.9215,-77.6838 345.6328,-73.4159 339.2883,-73.8143 340.9215,-77.6838"/>
</g>
<!-- src/p2p/p2p.js -->
<g id="node40" class="node">
<title>src/p2p/p2p.js</title>
<g id="a_node40"><a xlink:href="src/p2p/p2p.js" xlink:title="p2p.js">
<path fill="#ffffcc" stroke="#000000" d="M287.5,-240C287.5,-240 245.5,-240 245.5,-240 242.5,-240 239.5,-237 239.5,-234 239.5,-234 239.5,-228 239.5,-228 239.5,-225 242.5,-222 245.5,-222 245.5,-222 287.5,-222 287.5,-222 290.5,-222 293.5,-225 293.5,-228 293.5,-228 293.5,-234 293.5,-234 293.5,-237 290.5,-240 287.5,-240"/>
<text text-anchor="middle" x="266.5" y="-228.8" font-family="Helvetica,sans-Serif" font-size="9.00" fill="#000000">p2p.js</text>
</a>
</g>
</g>
<!-- src/p2p/p2p.js&#45;&gt;src/logger.js -->
<g id="edge32" class="edge">
<title>src/p2p/p2p.js&#45;&gt;src/logger.js</title>
<path fill="none" stroke="#000000" stroke-width="2" stroke-opacity="0.200000" d="M293.554,-231.9907C302.0081,-233.7208 310.5415,-237.2159 316,-244 338.0291,-271.3787 319.5598,-526.1509 329,-560 335.9023,-584.749 351.7041,-610.2301 362.3682,-625.594"/>
<polygon fill="#000000" fill-opacity="0.200000" stroke="#000000" stroke-width="2" stroke-opacity="0.200000" points="360.8571,-627.0939 366.0386,-630.7765 364.2845,-624.6664 360.8571,-627.0939"/>
</g>
<!-- src/p2p/p2p.js&#45;&gt;src/p2p/libp2p&#45;bundle.js -->
<g id="edge33" class="edge">
<title>src/p2p/p2p.js&#45;&gt;src/p2p/libp2p&#45;bundle.js</title>
<path fill="none" stroke="#000000" stroke-width="2" stroke-opacity="0.200000" d="M293.65,-226.4113C303.3217,-224.7766 314.5195,-222.884 325.3991,-221.0452"/>
<polygon fill="#000000" fill-opacity="0.200000" stroke="#000000" stroke-width="2" stroke-opacity="0.200000" points="325.8328,-223.1018 331.399,-220.0312 325.1329,-218.9605 325.8328,-223.1018"/>
</g>
<!-- src/p2p/p2p.js&#45;&gt;src/p2p/p2pconfig.js -->
<g id="edge34" class="edge">
<title>src/p2p/p2p.js&#45;&gt;src/p2p/p2pconfig.js</title>
<path fill="none" stroke="#000000" stroke-width="2" stroke-opacity="0.200000" d="M293.7082,-231.0037C323.8668,-230.8805 373.9408,-230.2987 417,-228 419.2113,-227.8819 421.4811,-227.7428 423.7709,-227.5885"/>
<polygon fill="#000000" fill-opacity="0.200000" stroke="#000000" stroke-width="2" stroke-opacity="0.200000" points="424.0197,-229.6761 429.8525,-227.1486 423.7166,-225.487 424.0197,-229.6761"/>
</g>
<!-- util -->
<g id="node41" class="node">
<title>util</title>
<path fill="#ffffcc" stroke="#c0c0c0" d="M394,-18C394,-18 352,-18 352,-18 349,-18 346,-15 346,-12 346,-12 346,-6 346,-6 346,-3 349,0 352,0 352,0 394,0 394,0 397,0 400,-3 400,-6 400,-6 400,-12 400,-12 400,-15 397,-18 394,-18"/>
<text text-anchor="middle" x="373" y="-6.8" font-family="Helvetica,sans-Serif" font-size="9.00" fill="#c0c0c0">util</text>
</g>
<!-- src/p2p/p2p.js&#45;&gt;util -->
<g id="edge35" class="edge">
<title>src/p2p/p2p.js&#45;&gt;util</title>
<path fill="none" stroke="#000000" stroke-dasharray="5,2" stroke-opacity="0.200000" d="M293.5306,-228.7809C301.9828,-226.6984 310.5209,-222.8863 316,-216 342.6258,-182.5358 302.9523,-57.9162 329,-24 331.9034,-20.2196 335.8091,-17.3851 340.1002,-15.2613"/>
<polygon fill="#000000" fill-opacity="0.200000" stroke="#000000" stroke-opacity="0.200000" points="340.9621,-17.1773 345.6951,-12.9336 339.3487,-13.2995 340.9621,-17.1773"/>
</g>
<!-- src/runtimeMonitored.js -->
<g id="node42" class="node">
<title>src/runtimeMonitored.js</title>
<g id="a_node42"><a xlink:href="src/runtimeMonitored.js" xlink:title="runtimeMonitored.js">
<path fill="#ffffcc" stroke="#000000" d="M198,-442C198,-442 112,-442 112,-442 109,-442 106,-439 106,-436 106,-436 106,-430 106,-430 106,-427 109,-424 112,-424 112,-424 198,-424 198,-424 201,-424 204,-427 204,-430 204,-430 204,-436 204,-436 204,-439 201,-442 198,-442"/>
<text text-anchor="middle" x="155" y="-430.8" font-family="Helvetica,sans-Serif" font-size="9.00" fill="#000000">runtimeMonitored.js</text>
</a>
</g>
</g>
<!-- src/runtimeMonitored.js&#45;&gt;assert -->
<g id="edge54" class="edge">
<title>src/runtimeMonitored.js&#45;&gt;assert</title>
<path fill="none" stroke="#000000" stroke-dasharray="5,2" stroke-opacity="0.200000" d="M155.1206,-423.8947C156.0049,-371.9531 163.0956,-113.5709 217,-61 249.0746,-29.7189 303.9726,-29.4617 339.3543,-33.3335"/>
<polygon fill="#000000" fill-opacity="0.200000" stroke="#000000" stroke-opacity="0.200000" points="339.5163,-35.4679 345.7238,-34.098 340.0168,-31.2979 339.5163,-35.4679"/>
</g>
<!-- src/runtimeMonitored.js&#45;&gt;fs -->
<g id="edge55" class="edge">
<title>src/runtimeMonitored.js&#45;&gt;fs</title>
<path fill="none" stroke="#000000" stroke-dasharray="5,2" stroke-opacity="0.200000" d="M155.3201,-423.824C157.2253,-374.757 168.6876,-143.8047 217,-96 249.004,-64.3323 303.9218,-62.1361 339.3268,-64.6615"/>
<polygon fill="#000000" fill-opacity="0.200000" stroke="#000000" stroke-opacity="0.200000" points="339.5497,-66.7866 345.7007,-65.1819 339.8916,-62.6005 339.5497,-66.7866"/>
</g>
<!-- src/runtimeMonitored.js&#45;&gt;os -->
<g id="edge56" class="edge">
<title>src/runtimeMonitored.js&#45;&gt;os</title>
<path fill="none" stroke="#000000" stroke-dasharray="5,2" stroke-opacity="0.200000" d="M155.9116,-423.7305C160.3215,-380.6289 180.7267,-200.168 217,-159 221.4433,-153.9572 227.4155,-150.3263 233.6725,-147.7122"/>
<polygon fill="#000000" fill-opacity="0.200000" stroke="#000000" stroke-opacity="0.200000" points="234.5545,-149.6255 239.463,-145.5861 233.1068,-145.6829 234.5545,-149.6255"/>
</g>
<!-- src/runtimeMonitored.js&#45;&gt;readline -->
<g id="edge57" class="edge">
<title>src/runtimeMonitored.js&#45;&gt;readline</title>
<path fill="none" stroke="#000000" stroke-dasharray="5,2" stroke-opacity="0.200000" d="M155.6082,-423.8316C158.8446,-377.7301 175.4811,-171.6613 217,-126 221.4402,-121.1168 227.4111,-117.8012 233.6678,-115.5555"/>
<polygon fill="#000000" fill-opacity="0.200000" stroke="#000000" stroke-opacity="0.200000" points="234.3377,-117.5466 239.4583,-113.7796 233.1062,-113.5312 234.3377,-117.5466"/>
</g>
<!-- src/runtimeMonitored.js&#45;&gt;src/Authority.ts -->
<g id="edge36" class="edge">
<title>src/runtimeMonitored.js&#45;&gt;src/Authority.ts</title>
<path fill="none" stroke="#000000" stroke-width="2" stroke-opacity="0.200000" d="M188.4537,-423.999C201.3592,-420.5267 216.1731,-416.5409 229.4031,-412.9812"/>
<polygon fill="#000000" fill-opacity="0.200000" stroke="#000000" stroke-width="2" stroke-opacity="0.200000" points="230.1094,-414.966 235.3577,-411.3791 229.0181,-410.9102 230.1094,-414.966"/>
</g>
<!-- src/runtimeMonitored.js&#45;&gt;src/BaseFunction.ts -->
<g id="edge37" class="edge">
<title>src/runtimeMonitored.js&#45;&gt;src/BaseFunction.ts</title>
<path fill="none" stroke="#000000" stroke-width="2" stroke-opacity="0.200000" d="M204.2301,-433C209.1524,-433 214.1435,-433 219.0469,-433"/>
<polygon fill="#000000" fill-opacity="0.200000" stroke="#000000" stroke-width="2" stroke-opacity="0.200000" points="219.1994,-435.1001 225.1994,-433 219.1993,-430.9001 219.1994,-435.1001"/>
</g>
<!-- src/runtimeMonitored.js&#45;&gt;src/Level.ts -->
<g id="edge38" class="edge">
<title>src/runtimeMonitored.js&#45;&gt;src/Level.ts</title>
<path fill="none" stroke="#000000" stroke-width="2" stroke-opacity="0.200000" d="M160.4622,-442.2248C170.9937,-460.5242 193.9528,-503.0234 204,-542 212.7939,-576.1146 194.8662,-672.5914 217,-700 221.1898,-705.1883 227.1145,-708.6287 233.4149,-710.8987"/>
<polygon fill="#000000" fill-opacity="0.200000" stroke="#000000" stroke-width="2" stroke-opacity="0.200000" points="232.9165,-712.9419 239.2676,-712.671 234.1338,-708.9222 232.9165,-712.9419"/>
</g>
<!-- src/runtimeMonitored.js&#45;&gt;src/Lval.ts -->
<g id="edge41" class="edge">
<title>src/runtimeMonitored.js&#45;&gt;src/Lval.ts</title>
<path fill="none" stroke="#000000" stroke-width="2" stroke-opacity="0.200000" d="M165.2692,-442.1329C177.0277,-452.1726 197.2268,-468.1779 217,-478 222.1382,-480.5523 227.7948,-482.765 233.3911,-484.6485"/>
<polygon fill="#000000" fill-opacity="0.200000" stroke="#000000" stroke-width="2" stroke-opacity="0.200000" points="233.0583,-486.7463 239.4126,-486.5637 234.3314,-482.7438 233.0583,-486.7463"/>
</g>
<!-- src/runtimeMonitored.js&#45;&gt;src/MailboxProcessor.js -->
<g id="edge42" class="edge">
<title>src/runtimeMonitored.js&#45;&gt;src/MailboxProcessor.js</title>
<path fill="none" stroke="#000000" stroke-width="2" stroke-opacity="0.200000" d="M160.055,-442.0881C169.292,-457.8621 190.4175,-490.3122 217,-508 218.7195,-509.1441 220.5295,-510.2037 222.4,-511.1848"/>
<polygon fill="#000000" fill-opacity="0.200000" stroke="#000000" stroke-width="2" stroke-opacity="0.200000" points="221.8397,-513.2421 228.1626,-513.8982 223.6289,-509.4422 221.8397,-513.2421"/>
</g>
<!-- src/runtimeMonitored.js&#45;&gt;src/logger.js -->
<g id="edge40" class="edge">
<title>src/runtimeMonitored.js&#45;&gt;src/logger.js</title>
<path fill="none" stroke="#000000" stroke-width="2" stroke-opacity="0.200000" d="M160.3545,-442.2535C170.6974,-460.6031 193.3411,-503.1862 204,-542 210.752,-566.5873 197.9766,-639.0226 217,-656 233.414,-670.6486 294.2056,-659.0009 316,-656 324.114,-654.8828 332.6995,-652.9108 340.6769,-650.7244"/>
<polygon fill="#000000" fill-opacity="0.200000" stroke="#000000" stroke-width="2" stroke-opacity="0.200000" points="341.4481,-652.6882 346.6408,-649.0213 340.2947,-648.6497 341.4481,-652.6882"/>
</g>
<!-- src/runtimeMonitored.js&#45;&gt;src/process.js -->
<g id="edge46" class="edge">
<title>src/runtimeMonitored.js&#45;&gt;src/process.js</title>
<path fill="none" stroke="#000000" stroke-width="2" stroke-opacity="0.200000" d="M157.2195,-442.1045C162.9344,-463.3322 180.3464,-515.9727 217,-538 236.5758,-549.7643 297.9571,-549.0754 337.6359,-547.2296"/>
<polygon fill="#000000" fill-opacity="0.200000" stroke="#000000" stroke-width="2" stroke-opacity="0.200000" points="337.9188,-549.3183 343.808,-546.9251 337.7118,-545.1234 337.9188,-549.3183"/>
</g>
<!-- src/runtimeMonitored.js&#45;&gt;src/NodeManager.js -->
<g id="edge43" class="edge">
<title>src/runtimeMonitored.js&#45;&gt;src/NodeManager.js</title>
<path fill="none" stroke="#000000" stroke-width="2" stroke-opacity="0.200000" d="M158.8258,-442.0135C170.7675,-469.997 207.1428,-554.0486 217,-563 219.5386,-565.3053 222.3956,-567.3215 225.4233,-569.0837"/>
<polygon fill="#000000" fill-opacity="0.200000" stroke="#000000" stroke-width="2" stroke-opacity="0.200000" points="224.7324,-571.091 231.0255,-571.9892 226.666,-567.3626 224.7324,-571.091"/>
</g>
<!-- src/runtimeMonitored.js&#45;&gt;src/RtClosure.js -->
<g id="edge47" class="edge">
<title>src/runtimeMonitored.js&#45;&gt;src/RtClosure.js</title>
<path fill="none" stroke="#000000" stroke-width="2" stroke-opacity="0.200000" d="M159.7916,-442.0961C169.3333,-460.512 190.9143,-503.7164 204,-542 211.9842,-565.3588 200.058,-578.0459 217,-596 219.8985,-599.0716 223.4026,-601.5209 227.1921,-603.4728"/>
<polygon fill="#000000" fill-opacity="0.200000" stroke="#000000" stroke-width="2" stroke-opacity="0.200000" points="226.5735,-605.495 232.911,-605.9913 228.2663,-601.6512 226.5735,-605.495"/>
</g>
<!-- src/runtimeMonitored.js&#45;&gt;src/SandboxStatus.ts -->
<g id="edge48" class="edge">
<title>src/runtimeMonitored.js&#45;&gt;src/SandboxStatus.ts</title>
<path fill="none" stroke="#000000" stroke-width="2" stroke-opacity="0.200000" d="M160.0631,-442.0095C170.0928,-460.2698 192.5081,-503.2082 204,-542 214.7305,-578.2218 192.2307,-597.4756 217,-626 217.6256,-626.7204 218.2845,-627.4068 218.9728,-628.0609"/>
<polygon fill="#000000" fill-opacity="0.200000" stroke="#000000" stroke-width="2" stroke-opacity="0.200000" points="217.8854,-629.8767 223.9036,-631.9242 220.4758,-626.5706 217.8854,-629.8767"/>
</g>
<!-- src/runtimeMonitored.js&#45;&gt;src/Scheduler.js -->
<g id="edge49" class="edge">
<title>src/runtimeMonitored.js&#45;&gt;src/Scheduler.js</title>
<path fill="none" stroke="#000000" stroke-width="2" stroke-opacity="0.200000" d="M160.3884,-442.2443C170.7907,-460.5777 193.5337,-503.1338 204,-542 211.2619,-568.9669 199.8148,-644.9859 217,-667 219.708,-670.4689 223.1471,-673.2696 226.9468,-675.5309"/>
<polygon fill="#000000" fill-opacity="0.200000" stroke="#000000" stroke-width="2" stroke-opacity="0.200000" points="226.0207,-677.416 232.3169,-678.2921 227.9413,-673.6808 226.0207,-677.416"/>
</g>
<!-- src/runtimeMonitored.js&#45;&gt;src/UnitBase.js -->
<g id="edge52" class="edge">
<title>src/runtimeMonitored.js&#45;&gt;src/UnitBase.js</title>
<path fill="none" stroke="#000000" stroke-width="2" stroke-opacity="0.200000" d="M157.1241,-442.1655C162.7256,-464.1427 180.0761,-520.0134 217,-547 253.1718,-573.4369 285.0333,-533.6214 316,-566 343.6299,-594.8897 303.4421,-624.2621 329,-655 330.9607,-657.3581 333.3089,-659.3467 335.8862,-661.0235"/>
<polygon fill="#000000" fill-opacity="0.200000" stroke="#000000" stroke-width="2" stroke-opacity="0.200000" points="335.1731,-663.026 341.4477,-664.0459 337.1786,-659.3357 335.1731,-663.026"/>
</g>
<!-- src/runtimeMonitored.js&#45;&gt;src/ThreadError.ts -->
<g id="edge51" class="edge">
<title>src/runtimeMonitored.js&#45;&gt;src/ThreadError.ts</title>
<path fill="none" stroke="#000000" stroke-width="2" stroke-opacity="0.200000" d="M157.8226,-423.8794C164.591,-403.5291 183.7036,-354.1535 217,-328 218.9861,-326.44 221.1333,-325.0417 223.3821,-323.7884"/>
<polygon fill="#000000" fill-opacity="0.200000" stroke="#000000" stroke-width="2" stroke-opacity="0.200000" points="224.3364,-325.6593 228.7861,-321.1194 222.4765,-321.8935 224.3364,-325.6593"/>
</g>
<!-- src/runtimeMonitored.js&#45;&gt;src/ValuesUtil.js -->
<g id="edge53" class="edge">
<title>src/runtimeMonitored.js&#45;&gt;src/ValuesUtil.js</title>
<path fill="none" stroke="#000000" stroke-width="2" stroke-opacity="0.200000" d="M165.2692,-423.8671C177.0277,-413.8274 197.2268,-397.8221 217,-388 220.0158,-386.5019 223.2102,-385.1209 226.4662,-383.8547"/>
<polygon fill="#000000" fill-opacity="0.200000" stroke="#000000" stroke-width="2" stroke-opacity="0.200000" points="227.4527,-385.7302 232.3682,-381.6993 226.0119,-381.785 227.4527,-385.7302"/>
</g>
<!-- src/runtimeMonitored.js&#45;&gt;src/loadLibs.js -->
<g id="edge39" class="edge">
<title>src/runtimeMonitored.js&#45;&gt;src/loadLibs.js</title>
<path fill="none" stroke="#000000" stroke-width="2" stroke-opacity="0.200000" d="M188.4537,-442.001C201.4704,-445.5032 216.4287,-449.5279 229.7449,-453.1107"/>
<polygon fill="#000000" fill-opacity="0.200000" stroke="#000000" stroke-width="2" stroke-opacity="0.200000" points="229.3951,-455.1912 235.7347,-454.7223 230.4864,-451.1355 229.3951,-455.1912"/>
</g>
<!-- src/runtimeMonitored.js&#45;&gt;src/options.ts -->
<g id="edge44" class="edge">
<title>src/runtimeMonitored.js&#45;&gt;src/options.ts</title>
<path fill="none" stroke="#000000" stroke-width="2" stroke-opacity="0.200000" d="M160.055,-423.9119C169.292,-408.1379 190.4175,-375.6878 217,-358 221.6666,-354.8949 227.0005,-352.4122 232.3988,-350.433"/>
<polygon fill="#000000" fill-opacity="0.200000" stroke="#000000" stroke-width="2" stroke-opacity="0.200000" points="233.2278,-352.3703 238.2533,-348.4774 231.8971,-348.3866 233.2278,-352.3703"/>
</g>
<!-- src/runtimeMonitored.js&#45;&gt;src/p2p/p2p.js -->
<g id="edge45" class="edge">
<title>src/runtimeMonitored.js&#45;&gt;src/p2p/p2p.js</title>
<path fill="none" stroke="#000000" stroke-width="2" stroke-opacity="0.200000" d="M156.7858,-423.9215C163.6688,-389.8083 189.4698,-269.922 217,-244 221.5606,-239.7059 227.3633,-236.7909 233.3782,-234.8212"/>
<polygon fill="#000000" fill-opacity="0.200000" stroke="#000000" stroke-width="2" stroke-opacity="0.200000" points="234.2016,-236.7725 239.4257,-233.1505 233.0831,-232.7242 234.2016,-236.7725"/>
</g>
<!-- src/runtimeMonitored.js&#45;&gt;util -->
<g id="edge58" class="edge">
<title>src/runtimeMonitored.js&#45;&gt;util</title>
<path fill="none" stroke="#000000" stroke-dasharray="5,2" stroke-opacity="0.200000" d="M155.7558,-423.7712C160.5562,-366.1895 187.5396,-57.7396 217,-29 249.0159,2.2326 303.9303,1.6846 339.3314,-2.761"/>
<polygon fill="#000000" fill-opacity="0.200000" stroke="#000000" stroke-opacity="0.200000" points="339.4759,-4.9001 345.7046,-3.6297 340.0432,-.7385 339.4759,-4.9001"/>
</g>
<!-- src/serialize.js -->
<g id="node43" class="node">
<title>src/serialize.js</title>
<g id="a_node43"><a xlink:href="src/serialize.js" xlink:title="serialize.js">
<path fill="#ffffcc" stroke="#000000" d="M290.5,-292C290.5,-292 242.5,-292 242.5,-292 239.5,-292 236.5,-289 236.5,-286 236.5,-286 236.5,-280 236.5,-280 236.5,-277 239.5,-274 242.5,-274 242.5,-274 290.5,-274 290.5,-274 293.5,-274 296.5,-277 296.5,-280 296.5,-280 296.5,-286 296.5,-286 296.5,-289 293.5,-292 290.5,-292"/>
<text text-anchor="middle" x="266.5" y="-280.8" font-family="Helvetica,sans-Serif" font-size="9.00" fill="#000000">serialize.js</text>
</a>
</g>
</g>
<!-- src/runtimeMonitored.js&#45;&gt;src/serialize.js -->
<g id="edge50" class="edge">
<title>src/runtimeMonitored.js&#45;&gt;src/serialize.js</title>
<path fill="none" stroke="#000000" stroke-width="2" stroke-opacity="0.200000" d="M156.5228,-423.9126C161.061,-399.7 176.7664,-333.0924 217,-298 220.9398,-294.5637 225.6477,-291.9145 230.5706,-289.8722"/>
<polygon fill="#000000" fill-opacity="0.200000" stroke="#000000" stroke-width="2" stroke-opacity="0.200000" points="231.4967,-291.7699 236.4152,-287.7427 230.0588,-287.8237 231.4967,-291.7699"/>
</g>
<!-- src/serialize.js&#45;&gt;assert -->
<g id="edge59" class="edge">
<title>src/serialize.js&#45;&gt;assert</title>
<path fill="none" stroke="#000000" stroke-dasharray="5,2" stroke-opacity="0.200000" d="M296.6229,-280.5933C304.0172,-278.526 311.1838,-274.9829 316,-269 346.0145,-231.7147 299.9826,-92.0664 329,-54 331.8897,-50.2091 335.7881,-47.369 340.0759,-45.2428"/>
<polygon fill="#000000" fill-opacity="0.200000" stroke="#000000" stroke-opacity="0.200000" points="340.9374,-47.1589 345.6688,-42.9135 339.3226,-43.2817 340.9374,-47.1589"/>
</g>
<!-- src/serialize.js&#45;&gt;child_process -->
<g id="edge60" class="edge">
<title>src/serialize.js&#45;&gt;child_process</title>
<path fill="none" stroke="#000000" stroke-dasharray="5,2" stroke-opacity="0.200000" d="M296.549,-285.8526C304.0361,-288.0598 311.2686,-291.7834 316,-298 351.6087,-344.786 293.7154,-779.9691 329,-827 329.6013,-827.8015 330.2489,-828.5582 330.9366,-829.2724"/>
<polygon fill="#000000" fill-opacity="0.200000" stroke="#000000" stroke-opacity="0.200000" points="330.0191,-831.2337 335.9968,-833.3965 332.6726,-827.978 330.0191,-831.2337"/>
</g>
<!-- src/troupe.ts -->
<g id="node44" class="node">
<title>src/troupe.ts</title>
<g id="a_node44"><a xlink:href="src/troupe.ts" xlink:title="troupe.ts">
<path fill="#ddfeff" stroke="#000000" d="M75.5,-442C75.5,-442 33.5,-442 33.5,-442 30.5,-442 27.5,-439 27.5,-436 27.5,-436 27.5,-430 27.5,-430 27.5,-427 30.5,-424 33.5,-424 33.5,-424 75.5,-424 75.5,-424 78.5,-424 81.5,-427 81.5,-430 81.5,-430 81.5,-436 81.5,-436 81.5,-439 78.5,-442 75.5,-442"/>
<text text-anchor="middle" x="54.5" y="-430.8" font-family="Helvetica,sans-Serif" font-size="9.00" fill="#000000">troupe.ts</text>
</a>
</g>
</g>
<!-- src/troupe.ts&#45;&gt;src/runtimeMonitored.js -->
<g id="edge61" class="edge">
<title>src/troupe.ts&#45;&gt;src/runtimeMonitored.js</title>
<path fill="none" stroke="#000000" stroke-width="2" stroke-opacity="0.200000" d="M81.6967,-433C87.2774,-433 93.3424,-433 99.5139,-433"/>
<polygon fill="#000000" fill-opacity="0.200000" stroke="#000000" stroke-width="2" stroke-opacity="0.200000" points="99.7069,-435.1001 105.7069,-433 99.7068,-430.9001 99.7069,-435.1001"/>
</g>
</g>
</svg>
