<?xml version="1.0" encoding="UTF-8" standalone="no"?>
<!DOCTYPE svg PUBLIC "-//W3C//DTD SVG 1.1//EN"
 "http://www.w3.org/Graphics/SVG/1.1/DTD/svg11.dtd">
<!-- Generated by graphviz version 2.40.1 (20161225.0304)
 -->
<!-- Title: dependency&#45;cruiser output Pages: 1 -->
<svg width="528pt" height="1110pt"
 viewBox="0.00 0.00 528.00 1110.00" xmlns="http://www.w3.org/2000/svg" xmlns:xlink="http://www.w3.org/1999/xlink">
<g id="graph0" class="graph" transform="scale(1 1) rotate(0) translate(4 1106)">
<title>dependency&#45;cruiser output</title>
<polygon fill="#ffffff" stroke="transparent" points="-4,4 -4,-1106 524,-1106 524,4 -4,4"/>
<g id="clust1" class="cluster">
<title>cluster_..</title>
<path fill="#ffffff" stroke="#000000" stroke-width="2" d="M350,-964C350,-964 396,-964 396,-964 402,-964 408,-970 408,-976 408,-976 408,-1004 408,-1004 408,-1010 402,-1016 396,-1016 396,-1016 350,-1016 350,-1016 344,-1016 338,-1010 338,-1004 338,-1004 338,-976 338,-976 338,-970 344,-964 350,-964"/>
<text text-anchor="middle" x="373" y="-1004.8" font-family="Helvetica,sans-Serif" font-weight="bold" font-size="9.00" fill="#000000">..</text>
</g>
<g id="clust2" class="cluster">
<title>cluster_src</title>
<path fill="#ffffff" stroke="#000000" stroke-width="2" d="M20,-236C20,-236 500,-236 500,-236 506,-236 512,-242 512,-248 512,-248 512,-944 512,-944 512,-950 506,-956 500,-956 500,-956 20,-956 20,-956 14,-956 8,-950 8,-944 8,-944 8,-248 8,-248 8,-242 14,-236 20,-236"/>
<text text-anchor="middle" x="260" y="-944.8" font-family="Helvetica,sans-Serif" font-weight="bold" font-size="9.00" fill="#000000">src</text>
</g>
<g id="clust3" class="cluster">
<title>cluster_src/levels</title>
<path fill="#ffffff" stroke="#000000" stroke-width="2" d="M243,-848C243,-848 290,-848 290,-848 296,-848 302,-854 302,-860 302,-860 302,-918 302,-918 302,-924 296,-930 290,-930 290,-930 243,-930 243,-930 237,-930 231,-924 231,-918 231,-918 231,-860 231,-860 231,-854 237,-848 243,-848"/>
<text text-anchor="middle" x="266.5" y="-918.8" font-family="Helvetica,sans-Serif" font-weight="bold" font-size="9.00" fill="#000000">levels</text>
</g>
<g id="clust4" class="cluster">
<title>cluster_src/p2p</title>
<path fill="#ffffff" stroke="#000000" stroke-width="2" d="M243.5,-732C243.5,-732 492,-732 492,-732 498,-732 504,-738 504,-744 504,-744 504,-802 504,-802 504,-808 498,-814 492,-814 492,-814 243.5,-814 243.5,-814 237.5,-814 231.5,-808 231.5,-802 231.5,-802 231.5,-744 231.5,-744 231.5,-738 237.5,-732 243.5,-732"/>
<text text-anchor="middle" x="367.75" y="-802.8" font-family="Helvetica,sans-Serif" font-weight="bold" font-size="9.00" fill="#000000">p2p</text>
</g>
<!-- ../Level.js -->
<g id="node1" class="node">
<title>../Level.js</title>
<path fill="#ffffcc" stroke="#ff0000" d="M394,-990C394,-990 352,-990 352,-990 349,-990 346,-987 346,-984 346,-984 346,-978 346,-978 346,-975 349,-972 352,-972 352,-972 394,-972 394,-972 397,-972 400,-975 400,-978 400,-978 400,-984 400,-984 400,-987 397,-990 394,-990"/>
<text text-anchor="middle" x="373" y="-978.8" font-family="Helvetica,sans-Serif" font-size="9.00" fill="#ff0000">Level.js</text>
</g>
<!-- ./Authority.js -->
<g id="node2" class="node">
<title>./Authority.js</title>
<path fill="#ffffcc" stroke="#ff0000" d="M398,-198C398,-198 348,-198 348,-198 345,-198 342,-195 342,-192 342,-192 342,-186 342,-186 342,-183 345,-180 348,-180 348,-180 398,-180 398,-180 401,-180 404,-183 404,-186 404,-186 404,-192 404,-192 404,-195 401,-198 398,-198"/>
<text text-anchor="middle" x="373" y="-186.8" font-family="Helvetica,sans-Serif" font-size="9.00" fill="#ff0000">Authority.js</text>
</g>
<!-- ./BaseFunction.js -->
<g id="node3" class="node">
<title>./BaseFunction.js</title>
<path fill="#ffffcc" stroke="#ff0000" d="M408,-1072C408,-1072 338,-1072 338,-1072 335,-1072 332,-1069 332,-1066 332,-1066 332,-1060 332,-1060 332,-1057 335,-1054 338,-1054 338,-1054 408,-1054 408,-1054 411,-1054 414,-1057 414,-1060 414,-1060 414,-1066 414,-1066 414,-1069 411,-1072 408,-1072"/>
<text text-anchor="middle" x="373" y="-1060.8" font-family="Helvetica,sans-Serif" font-size="9.00" fill="#ff0000">BaseFunction.js</text>
</g>
<!-- ./Lval.js -->
<g id="node4" class="node">
<title>./Lval.js</title>
<path fill="#ffffcc" stroke="#ff0000" d="M394,-228C394,-228 352,-228 352,-228 349,-228 346,-225 346,-222 346,-222 346,-216 346,-216 346,-213 349,-210 352,-210 352,-210 394,-210 394,-210 397,-210 400,-213 400,-216 400,-216 400,-222 400,-222 400,-225 397,-228 394,-228"/>
<text text-anchor="middle" x="373" y="-216.8" font-family="Helvetica,sans-Serif" font-size="9.00" fill="#ff0000">Lval.js</text>
</g>
<!-- ./SandboxStatus.js -->
<g id="node5" class="node">
<title>./SandboxStatus.js</title>
<path fill="#ffffcc" stroke="#ff0000" d="M411,-138C411,-138 335,-138 335,-138 332,-138 329,-135 329,-132 329,-132 329,-126 329,-126 329,-123 332,-120 335,-120 335,-120 411,-120 411,-120 414,-120 417,-123 417,-126 417,-126 417,-132 417,-132 417,-135 414,-138 411,-138"/>
<text text-anchor="middle" x="373" y="-126.8" font-family="Helvetica,sans-Serif" font-size="9.00" fill="#ff0000">SandboxStatus.js</text>
</g>
<!-- ./Thread.js -->
<g id="node6" class="node">
<title>./Thread.js</title>
<path fill="#ffffcc" stroke="#ff0000" d="M394.5,-108C394.5,-108 351.5,-108 351.5,-108 348.5,-108 345.5,-105 345.5,-102 345.5,-102 345.5,-96 345.5,-96 345.5,-93 348.5,-90 351.5,-90 351.5,-90 394.5,-90 394.5,-90 397.5,-90 400.5,-93 400.5,-96 400.5,-96 400.5,-102 400.5,-102 400.5,-105 397.5,-108 394.5,-108"/>
<text text-anchor="middle" x="373" y="-96.8" font-family="Helvetica,sans-Serif" font-size="9.00" fill="#ff0000">Thread.js</text>
</g>
<!-- ./ThreadError.js -->
<g id="node7" class="node">
<title>./ThreadError.js</title>
<path fill="#ffffcc" stroke="#ff0000" d="M404.5,-1102C404.5,-1102 341.5,-1102 341.5,-1102 338.5,-1102 335.5,-1099 335.5,-1096 335.5,-1096 335.5,-1090 335.5,-1090 335.5,-1087 338.5,-1084 341.5,-1084 341.5,-1084 404.5,-1084 404.5,-1084 407.5,-1084 410.5,-1087 410.5,-1090 410.5,-1090 410.5,-1096 410.5,-1096 410.5,-1099 407.5,-1102 404.5,-1102"/>
<text text-anchor="middle" x="373" y="-1090.8" font-family="Helvetica,sans-Serif" font-size="9.00" fill="#ff0000">ThreadError.js</text>
</g>
<!-- ./options.js -->
<g id="node8" class="node">
<title>./options.js</title>
<path fill="#ffffcc" stroke="#ff0000" d="M395,-48C395,-48 351,-48 351,-48 348,-48 345,-45 345,-42 345,-42 345,-36 345,-36 345,-33 348,-30 351,-30 351,-30 395,-30 395,-30 398,-30 401,-33 401,-36 401,-36 401,-42 401,-42 401,-45 398,-48 395,-48"/>
<text text-anchor="middle" x="373" y="-36.8" font-family="Helvetica,sans-Serif" font-size="9.00" fill="#ff0000">options.js</text>
</g>
<!-- assert -->
<g id="node9" class="node">
<title>assert</title>
<path fill="#ffffcc" stroke="#c0c0c0" d="M394,-18C394,-18 352,-18 352,-18 349,-18 346,-15 346,-12 346,-12 346,-6 346,-6 346,-3 349,0 352,0 352,0 394,0 394,0 397,0 400,-3 400,-6 400,-6 400,-12 400,-12 400,-15 397,-18 394,-18"/>
<text text-anchor="middle" x="373" y="-6.8" font-family="Helvetica,sans-Serif" font-size="9.00" fill="#c0c0c0">assert</text>
</g>
<!-- child_process -->
<g id="node10" class="node">
<title>child_process</title>
<path fill="#ffffcc" stroke="#c0c0c0" d="M404,-1042C404,-1042 342,-1042 342,-1042 339,-1042 336,-1039 336,-1036 336,-1036 336,-1030 336,-1030 336,-1027 339,-1024 342,-1024 342,-1024 404,-1024 404,-1024 407,-1024 410,-1027 410,-1030 410,-1030 410,-1036 410,-1036 410,-1039 407,-1042 404,-1042"/>
<text text-anchor="middle" x="373" y="-1030.8" font-family="Helvetica,sans-Serif" font-size="9.00" fill="#c0c0c0">child_process</text>
</g>
<!-- fs -->
<g id="node11" class="node">
<title>fs</title>
<path fill="#ffffcc" stroke="#c0c0c0" d="M394,-78C394,-78 352,-78 352,-78 349,-78 346,-75 346,-72 346,-72 346,-66 346,-66 346,-63 349,-60 352,-60 352,-60 394,-60 394,-60 397,-60 400,-63 400,-66 400,-66 400,-72 400,-72 400,-75 397,-78 394,-78"/>
<text text-anchor="middle" x="373" y="-66.8" font-family="Helvetica,sans-Serif" font-size="9.00" fill="#c0c0c0">fs</text>
</g>
<!-- os -->
<g id="node12" class="node">
<title>os</title>
<path fill="#ffffcc" stroke="#c0c0c0" d="M287.5,-206C287.5,-206 245.5,-206 245.5,-206 242.5,-206 239.5,-203 239.5,-200 239.5,-200 239.5,-194 239.5,-194 239.5,-191 242.5,-188 245.5,-188 245.5,-188 287.5,-188 287.5,-188 290.5,-188 293.5,-191 293.5,-194 293.5,-194 293.5,-200 293.5,-200 293.5,-203 290.5,-206 287.5,-206"/>
<text text-anchor="middle" x="266.5" y="-194.8" font-family="Helvetica,sans-Serif" font-size="9.00" fill="#c0c0c0">os</text>
</g>
<!-- readline -->
<g id="node13" class="node">
<title>readline</title>
<path fill="#ffffcc" stroke="#c0c0c0" d="M287.5,-176C287.5,-176 245.5,-176 245.5,-176 242.5,-176 239.5,-173 239.5,-170 239.5,-170 239.5,-164 239.5,-164 239.5,-161 242.5,-158 245.5,-158 245.5,-158 287.5,-158 287.5,-158 290.5,-158 293.5,-161 293.5,-164 293.5,-164 293.5,-170 293.5,-170 293.5,-173 290.5,-176 287.5,-176"/>
<text text-anchor="middle" x="266.5" y="-164.8" font-family="Helvetica,sans-Serif" font-size="9.00" fill="#c0c0c0">readline</text>
</g>
<!-- src/Authority.ts -->
<g id="node14" class="node">
<title>src/Authority.ts</title>
<g id="a_node14"><a xlink:href="src/Authority.ts" xlink:title="Authority.ts">
<path fill="#ddfeff" stroke="#000000" d="M291.5,-590C291.5,-590 241.5,-590 241.5,-590 238.5,-590 235.5,-587 235.5,-584 235.5,-584 235.5,-578 235.5,-578 235.5,-575 238.5,-572 241.5,-572 241.5,-572 291.5,-572 291.5,-572 294.5,-572 297.5,-575 297.5,-578 297.5,-578 297.5,-584 297.5,-584 297.5,-587 294.5,-590 291.5,-590"/>
<text text-anchor="middle" x="266.5" y="-578.8" font-family="Helvetica,sans-Serif" font-size="9.00" fill="#000000">Authority.ts</text>
</a>
</g>
</g>
<!-- src/BaseFunction.ts -->
<g id="node15" class="node">
<title>src/BaseFunction.ts</title>
<g id="a_node15"><a xlink:href="src/BaseFunction.ts" xlink:title="BaseFunction.ts">
<path fill="#ddfeff" stroke="#000000" d="M301.5,-664C301.5,-664 231.5,-664 231.5,-664 228.5,-664 225.5,-661 225.5,-658 225.5,-658 225.5,-652 225.5,-652 225.5,-649 228.5,-646 231.5,-646 231.5,-646 301.5,-646 301.5,-646 304.5,-646 307.5,-649 307.5,-652 307.5,-652 307.5,-658 307.5,-658 307.5,-661 304.5,-664 301.5,-664"/>
<text text-anchor="middle" x="266.5" y="-652.8" font-family="Helvetica,sans-Serif" font-size="9.00" fill="#000000">BaseFunction.ts</text>
</a>
</g>
</g>
<!-- src/BaseKont.js -->
<g id="node16" class="node">
<title>src/BaseKont.js</title>
<g id="a_node16"><a xlink:href="src/BaseKont.js" xlink:title="BaseKont.js">
<path fill="#ffffcc" stroke="#000000" d="M399.5,-500C399.5,-500 346.5,-500 346.5,-500 343.5,-500 340.5,-497 340.5,-494 340.5,-494 340.5,-488 340.5,-488 340.5,-485 343.5,-482 346.5,-482 346.5,-482 399.5,-482 399.5,-482 402.5,-482 405.5,-485 405.5,-488 405.5,-488 405.5,-494 405.5,-494 405.5,-497 402.5,-500 399.5,-500"/>
<text text-anchor="middle" x="373" y="-488.8" font-family="Helvetica,sans-Serif" font-size="9.00" fill="#000000">BaseKont.js</text>
</a>
</g>
</g>
<!-- src/Level.ts -->
<g id="node17" class="node">
<title>src/Level.ts</title>
<g id="a_node17"><a xlink:href="src/Level.ts" xlink:title="Level.ts">
<path fill="#ddfeff" stroke="#000000" d="M287.5,-262C287.5,-262 245.5,-262 245.5,-262 242.5,-262 239.5,-259 239.5,-256 239.5,-256 239.5,-250 239.5,-250 239.5,-247 242.5,-244 245.5,-244 245.5,-244 287.5,-244 287.5,-244 290.5,-244 293.5,-247 293.5,-250 293.5,-250 293.5,-256 293.5,-256 293.5,-259 290.5,-262 287.5,-262"/>
<text text-anchor="middle" x="266.5" y="-250.8" font-family="Helvetica,sans-Serif" font-size="9.00" fill="#000000">Level.ts</text>
</a>
</g>
</g>
<!-- src/Lval.ts -->
<g id="node18" class="node">
<title>src/Lval.ts</title>
<g id="a_node18"><a xlink:href="src/Lval.ts" xlink:title="Lval.ts">
<path fill="#ddfeff" stroke="#000000" d="M287.5,-470C287.5,-470 245.5,-470 245.5,-470 242.5,-470 239.5,-467 239.5,-464 239.5,-464 239.5,-458 239.5,-458 239.5,-455 242.5,-452 245.5,-452 245.5,-452 287.5,-452 287.5,-452 290.5,-452 293.5,-455 293.5,-458 293.5,-458 293.5,-464 293.5,-464 293.5,-467 290.5,-470 287.5,-470"/>
<text text-anchor="middle" x="266.5" y="-458.8" font-family="Helvetica,sans-Serif" font-size="9.00" fill="#000000">Lval.ts</text>
</a>
</g>
</g>
<!-- src/MailboxProcessor.js -->
<g id="node19" class="node">
<title>src/MailboxProcessor.js</title>
<g id="a_node19"><a xlink:href="src/MailboxProcessor.js" xlink:title="MailboxProcessor.js">
<path fill="#ffffcc" stroke="#000000" d="M310,-292C310,-292 223,-292 223,-292 220,-292 217,-289 217,-286 217,-286 217,-280 217,-280 217,-277 220,-274 223,-274 223,-274 310,-274 310,-274 313,-274 316,-277 316,-280 316,-280 316,-286 316,-286 316,-289 313,-292 310,-292"/>
<text text-anchor="middle" x="266.5" y="-280.8" font-family="Helvetica,sans-Serif" font-size="9.00" fill="#000000">MailboxProcessor.js</text>
</a>
</g>
</g>
<!-- src/MailboxProcessor.js&#45;&gt;./Lval.js -->
<g id="edge2" class="edge">
<title>src/MailboxProcessor.js&#45;&gt;./Lval.js</title>
<path fill="none" stroke="#000000" stroke-width="2" stroke-opacity="0.200000" d="M307.6441,-273.9789C310.6758,-272.3118 313.5142,-270.3376 316,-268 328.0883,-256.632 316.9905,-244.4512 329,-233 332.1909,-229.9575 336.0416,-227.5761 340.1214,-225.7121"/>
<polygon fill="#000000" fill-opacity="0.200000" stroke="#000000" stroke-width="2" stroke-opacity="0.200000" points="340.9753,-227.6328 345.7863,-223.4777 339.4342,-223.7258 340.9753,-227.6328"/>
</g>
<!-- src/MailboxProcessor.js&#45;&gt;./SandboxStatus.js -->
<g id="edge5" class="edge">
<title>src/MailboxProcessor.js&#45;&gt;./SandboxStatus.js</title>
<path fill="none" stroke="#000000" stroke-width="2" stroke-opacity="0.200000" d="M309.6693,-273.7327C312.0237,-272.111 314.1698,-270.2152 316,-268 351.2943,-225.2808 294.4439,-187.3185 329,-144 329.453,-143.4322 329.9285,-142.8858 330.4243,-142.3599"/>
<polygon fill="#000000" fill-opacity="0.200000" stroke="#000000" stroke-width="2" stroke-opacity="0.200000" points="332.1595,-143.6422 335.3799,-138.1614 329.4445,-140.4377 332.1595,-143.6422"/>
</g>
<!-- src/MailboxProcessor.js&#45;&gt;./Thread.js -->
<g id="edge6" class="edge">
<title>src/MailboxProcessor.js&#45;&gt;./Thread.js</title>
<path fill="none" stroke="#000000" stroke-width="2" stroke-opacity="0.200000" d="M309.721,-273.7749C312.0631,-272.1433 314.1923,-270.2336 316,-268 337.6056,-241.3035 307.8556,-141.0633 329,-114 331.8011,-110.4147 335.5023,-107.6811 339.5713,-105.5979"/>
<polygon fill="#000000" fill-opacity="0.200000" stroke="#000000" stroke-width="2" stroke-opacity="0.200000" points="340.6118,-107.4367 345.298,-103.1414 338.956,-103.5768 340.6118,-107.4367"/>
</g>
<!-- src/MailboxProcessor.js&#45;&gt;./options.js -->
<g id="edge3" class="edge">
<title>src/MailboxProcessor.js&#45;&gt;./options.js</title>
<path fill="none" stroke="#000000" stroke-width="2" stroke-opacity="0.200000" d="M309.7817,-273.8235C312.1093,-272.1802 314.2187,-270.2548 316,-268 345.5341,-230.6153 300.1117,-91.8859 329,-54 331.6915,-50.4702 335.2574,-47.7648 339.1978,-45.6924"/>
<polygon fill="#000000" fill-opacity="0.200000" stroke="#000000" stroke-width="2" stroke-opacity="0.200000" points="340.1139,-47.5836 344.7562,-43.2409 338.419,-43.7408 340.1139,-47.5836"/>
</g>
<!-- src/logger.js -->
<g id="node20" class="node">
<title>src/logger.js</title>
<g id="a_node20"><a xlink:href="src/logger.js" xlink:title="logger.js">
<path fill="#ffffcc" stroke="#000000" d="M394,-560C394,-560 352,-560 352,-560 349,-560 346,-557 346,-554 346,-554 346,-548 346,-548 346,-545 349,-542 352,-542 352,-542 394,-542 394,-542 397,-542 400,-545 400,-548 400,-548 400,-554 400,-554 400,-557 397,-560 394,-560"/>
<text text-anchor="middle" x="373" y="-548.8" font-family="Helvetica,sans-Serif" font-size="9.00" fill="#000000">logger.js</text>
</a>
</g>
</g>
<!-- src/MailboxProcessor.js&#45;&gt;src/logger.js -->
<g id="edge1" class="edge">
<title>src/MailboxProcessor.js&#45;&gt;src/logger.js</title>
<path fill="none" stroke="#000000" stroke-width="2" stroke-opacity="0.200000" d="M289.3561,-292.0426C299.2974,-297.2134 310.0213,-304.7451 316,-315 340.7782,-357.5005 299.2077,-496.8507 329,-536 331.8866,-539.7932 335.7833,-542.6346 340.0704,-544.7614"/>
<polygon fill="#000000" fill-opacity="0.200000" stroke="#000000" stroke-width="2" stroke-opacity="0.200000" points="339.3166,-546.7223 345.6628,-547.0911 340.9317,-542.8452 339.3166,-546.7223"/>
</g>
<!-- src/process.js -->
<g id="node21" class="node">
<title>src/process.js</title>
<g id="a_node21"><a xlink:href="src/process.js" xlink:title="process.js">
<path fill="#ffffcc" stroke="#000000" d="M396,-530C396,-530 350,-530 350,-530 347,-530 344,-527 344,-524 344,-524 344,-518 344,-518 344,-515 347,-512 350,-512 350,-512 396,-512 396,-512 399,-512 402,-515 402,-518 402,-518 402,-524 402,-524 402,-527 399,-530 396,-530"/>
<text text-anchor="middle" x="373" y="-518.8" font-family="Helvetica,sans-Serif" font-size="9.00" fill="#000000">process.js</text>
</a>
</g>
</g>
<!-- src/MailboxProcessor.js&#45;&gt;src/process.js -->
<g id="edge4" class="edge">
<title>src/MailboxProcessor.js&#45;&gt;src/process.js</title>
<path fill="none" stroke="#000000" stroke-width="2" stroke-opacity="0.200000" d="M289.3138,-292.0674C299.2458,-297.2436 309.9742,-304.7728 316,-315 337.596,-351.6536 303.0814,-472.2643 329,-506 331.5107,-509.2679 334.7704,-511.829 338.3804,-513.8351"/>
<polygon fill="#000000" fill-opacity="0.200000" stroke="#000000" stroke-width="2" stroke-opacity="0.200000" points="337.5481,-515.7641 343.8736,-516.395 339.3222,-511.9571 337.5481,-515.7641"/>
</g>
<!-- src/NodeManager.js -->
<g id="node22" class="node">
<title>src/NodeManager.js</title>
<g id="a_node22"><a xlink:href="src/NodeManager.js" xlink:title="NodeManager.js">
<path fill="#ffffcc" stroke="#000000" d="M303,-350C303,-350 230,-350 230,-350 227,-350 224,-347 224,-344 224,-344 224,-338 224,-338 224,-335 227,-332 230,-332 230,-332 303,-332 303,-332 306,-332 309,-335 309,-338 309,-338 309,-344 309,-344 309,-347 306,-350 303,-350"/>
<text text-anchor="middle" x="266.5" y="-338.8" font-family="Helvetica,sans-Serif" font-size="9.00" fill="#000000">NodeManager.js</text>
</a>
</g>
</g>
<!-- src/RtClosure.js -->
<g id="node23" class="node">
<title>src/RtClosure.js</title>
<g id="a_node23"><a xlink:href="src/RtClosure.js" xlink:title="RtClosure.js">
<path fill="#ffffcc" stroke="#000000" d="M294,-410C294,-410 239,-410 239,-410 236,-410 233,-407 233,-404 233,-404 233,-398 233,-398 233,-395 236,-392 239,-392 239,-392 294,-392 294,-392 297,-392 300,-395 300,-398 300,-398 300,-404 300,-404 300,-407 297,-410 294,-410"/>
<text text-anchor="middle" x="266.5" y="-398.8" font-family="Helvetica,sans-Serif" font-size="9.00" fill="#000000">RtClosure.js</text>
</a>
</g>
</g>
<!-- src/SandboxStatus.ts -->
<g id="node24" class="node">
<title>src/SandboxStatus.ts</title>
<g id="a_node24"><a xlink:href="src/SandboxStatus.ts" xlink:title="SandboxStatus.ts">
<path fill="#ddfeff" stroke="#000000" d="M304.5,-440C304.5,-440 228.5,-440 228.5,-440 225.5,-440 222.5,-437 222.5,-434 222.5,-434 222.5,-428 222.5,-428 222.5,-425 225.5,-422 228.5,-422 228.5,-422 304.5,-422 304.5,-422 307.5,-422 310.5,-425 310.5,-428 310.5,-428 310.5,-434 310.5,-434 310.5,-437 307.5,-440 304.5,-440"/>
<text text-anchor="middle" x="266.5" y="-428.8" font-family="Helvetica,sans-Serif" font-size="9.00" fill="#000000">SandboxStatus.ts</text>
</a>
</g>
</g>
<!-- src/Scheduler.js -->
<g id="node25" class="node">
<title>src/Scheduler.js</title>
<g id="a_node25"><a xlink:href="src/Scheduler.js" xlink:title="Scheduler.js">
<path fill="#ffffcc" stroke="#000000" d="M294.5,-530C294.5,-530 238.5,-530 238.5,-530 235.5,-530 232.5,-527 232.5,-524 232.5,-524 232.5,-518 232.5,-518 232.5,-515 235.5,-512 238.5,-512 238.5,-512 294.5,-512 294.5,-512 297.5,-512 300.5,-515 300.5,-518 300.5,-518 300.5,-524 300.5,-524 300.5,-527 297.5,-530 294.5,-530"/>
<text text-anchor="middle" x="266.5" y="-518.8" font-family="Helvetica,sans-Serif" font-size="9.00" fill="#000000">Scheduler.js</text>
</a>
</g>
</g>
<!-- src/Scheduler.js&#45;&gt;./Authority.js -->
<g id="edge7" class="edge">
<title>src/Scheduler.js&#45;&gt;./Authority.js</title>
<path fill="none" stroke="#000000" stroke-width="2" stroke-opacity="0.200000" d="M300.5669,-516.7136C306.5443,-514.4345 312.0921,-511.0375 316,-506 336.587,-479.4625 308.8714,-230.8868 329,-204 331.0556,-201.2542 333.6414,-199.0067 336.5246,-197.1677"/>
<polygon fill="#000000" fill-opacity="0.200000" stroke="#000000" stroke-width="2" stroke-opacity="0.200000" points="337.6636,-198.941 341.9855,-194.2793 335.6998,-195.2283 337.6636,-198.941"/>
</g>
<!-- src/Scheduler.js&#45;&gt;./BaseFunction.js -->
<g id="edge8" class="edge">
<title>src/Scheduler.js&#45;&gt;./BaseFunction.js</title>
<path fill="none" stroke="#000000" stroke-width="2" stroke-opacity="0.200000" d="M300.6368,-525.2328C306.6088,-527.516 312.1367,-530.9283 316,-536 350.4836,-581.2694 295.2983,-1002.1456 329,-1048 329.4302,-1048.5853 329.8845,-1049.1479 330.3607,-1049.6889"/>
<polygon fill="#000000" fill-opacity="0.200000" stroke="#000000" stroke-width="2" stroke-opacity="0.200000" points="329.3045,-1051.5614 335.1779,-1053.9934 332.1031,-1048.4295 329.3045,-1051.5614"/>
</g>
<!-- src/Scheduler.js&#45;&gt;./Lval.js -->
<g id="edge11" class="edge">
<title>src/Scheduler.js&#45;&gt;./Lval.js</title>
<path fill="none" stroke="#000000" stroke-width="2" stroke-opacity="0.200000" d="M300.5489,-516.6996C306.5277,-514.4216 312.0806,-511.0285 316,-506 353.3373,-458.0968 291.9946,-281.16 329,-233 331.8847,-229.2457 335.7804,-226.4785 340.0671,-224.4429"/>
<polygon fill="#000000" fill-opacity="0.200000" stroke="#000000" stroke-width="2" stroke-opacity="0.200000" points="340.8488,-226.3921 345.6592,-222.2363 339.3071,-222.4852 340.8488,-226.3921"/>
</g>
<!-- src/Scheduler.js&#45;&gt;./SandboxStatus.js -->
<g id="edge14" class="edge">
<title>src/Scheduler.js&#45;&gt;./SandboxStatus.js</title>
<path fill="none" stroke="#000000" stroke-width="2" stroke-opacity="0.200000" d="M300.5951,-516.7353C306.5703,-514.4546 312.1101,-511.0513 316,-506 340.5567,-474.1114 304.994,-176.3052 329,-144 329.4332,-143.417 329.8904,-142.8564 330.3692,-142.3175"/>
<polygon fill="#000000" fill-opacity="0.200000" stroke="#000000" stroke-width="2" stroke-opacity="0.200000" points="332.1108,-143.5797 335.2051,-138.0267 329.3232,-140.4381 332.1108,-143.5797"/>
</g>
<!-- src/Scheduler.js&#45;&gt;./Thread.js -->
<g id="edge15" class="edge">
<title>src/Scheduler.js&#45;&gt;./Thread.js</title>
<path fill="none" stroke="#000000" stroke-width="2" stroke-opacity="0.200000" d="M300.6059,-516.7437C306.5803,-514.4623 312.117,-511.0567 316,-506 342.5419,-471.4356 303.0551,-149.0148 329,-114 331.7087,-110.3444 335.3582,-107.5714 339.4027,-105.4696"/>
<polygon fill="#000000" fill-opacity="0.200000" stroke="#000000" stroke-width="2" stroke-opacity="0.200000" points="340.4388,-107.3095 345.1116,-102.9996 338.771,-103.4548 340.4388,-107.3095"/>
</g>
<!-- src/Scheduler.js&#45;&gt;./ThreadError.js -->
<g id="edge16" class="edge">
<title>src/Scheduler.js&#45;&gt;./ThreadError.js</title>
<path fill="none" stroke="#000000" stroke-width="2" stroke-opacity="0.200000" d="M300.6423,-525.2285C306.6139,-527.5121 312.1402,-530.9256 316,-536 352.4692,-583.9458 293.3589,-1029.4355 329,-1078 329.4298,-1078.5856 329.8837,-1079.1485 330.3595,-1079.6897"/>
<polygon fill="#000000" fill-opacity="0.200000" stroke="#000000" stroke-width="2" stroke-opacity="0.200000" points="329.302,-1081.5613 335.1742,-1083.996 332.102,-1078.4308 329.302,-1081.5613"/>
</g>
<!-- src/Scheduler.js&#45;&gt;./options.js -->
<g id="edge12" class="edge">
<title>src/Scheduler.js&#45;&gt;./options.js</title>
<path fill="none" stroke="#000000" stroke-width="2" stroke-opacity="0.200000" d="M300.6234,-516.757C306.5964,-514.4746 312.1281,-511.0652 316,-506 346.5126,-466.0833 299.1768,-94.4344 329,-54 331.6348,-50.4277 335.1684,-47.6981 339.093,-45.6138"/>
<polygon fill="#000000" fill-opacity="0.200000" stroke="#000000" stroke-width="2" stroke-opacity="0.200000" points="340.0065,-47.506 344.6393,-43.1532 338.3032,-43.6669 340.0065,-47.506"/>
</g>
<!-- src/Scheduler.js&#45;&gt;src/BaseKont.js -->
<g id="edge9" class="edge">
<title>src/Scheduler.js&#45;&gt;src/BaseKont.js</title>
<path fill="none" stroke="#000000" stroke-width="2" stroke-opacity="0.200000" d="M298.4535,-511.999C309.8277,-508.795 322.754,-505.1538 334.6115,-501.8137"/>
<polygon fill="#000000" fill-opacity="0.200000" stroke="#000000" stroke-width="2" stroke-opacity="0.200000" points="335.4951,-503.7466 340.7009,-500.0983 334.3563,-499.7039 335.4951,-503.7466"/>
</g>
<!-- src/Scheduler.js&#45;&gt;src/logger.js -->
<g id="edge10" class="edge">
<title>src/Scheduler.js&#45;&gt;src/logger.js</title>
<path fill="none" stroke="#000000" stroke-width="2" stroke-opacity="0.200000" d="M298.4535,-530.001C311.5241,-533.6829 326.6443,-537.9421 339.837,-541.6583"/>
<polygon fill="#000000" fill-opacity="0.200000" stroke="#000000" stroke-width="2" stroke-opacity="0.200000" points="339.4039,-543.718 345.7486,-543.3235 340.5428,-539.6753 339.4039,-543.718"/>
</g>
<!-- src/Scheduler.js&#45;&gt;src/process.js -->
<g id="edge13" class="edge">
<title>src/Scheduler.js&#45;&gt;src/process.js</title>
<path fill="none" stroke="#000000" stroke-width="2" stroke-opacity="0.200000" d="M300.7835,-521C312.5896,-521 325.8265,-521 337.7114,-521"/>
<polygon fill="#000000" fill-opacity="0.200000" stroke="#000000" stroke-width="2" stroke-opacity="0.200000" points="337.7884,-523.1001 343.7884,-521 337.7883,-518.9001 337.7884,-523.1001"/>
</g>
<!-- src/UnitBase.js -->
<g id="node26" class="node">
<title>src/UnitBase.js</title>
<g id="a_node26"><a xlink:href="src/UnitBase.js" xlink:title="UnitBase.js">
<path fill="#ffffcc" stroke="#000000" d="M398.5,-392C398.5,-392 347.5,-392 347.5,-392 344.5,-392 341.5,-389 341.5,-386 341.5,-386 341.5,-380 341.5,-380 341.5,-377 344.5,-374 347.5,-374 347.5,-374 398.5,-374 398.5,-374 401.5,-374 404.5,-377 404.5,-380 404.5,-380 404.5,-386 404.5,-386 404.5,-389 401.5,-392 398.5,-392"/>
<text text-anchor="middle" x="373" y="-380.8" font-family="Helvetica,sans-Serif" font-size="9.00" fill="#000000">UnitBase.js</text>
</a>
</g>
</g>
<!-- src/Scheduler.js&#45;&gt;src/UnitBase.js -->
<g id="edge17" class="edge">
<title>src/Scheduler.js&#45;&gt;src/UnitBase.js</title>
<path fill="none" stroke="#000000" stroke-width="2" stroke-opacity="0.200000" d="M300.5153,-514.994C306.143,-512.8509 311.576,-509.9437 316,-506 326.8472,-496.3305 323.003,-489.2362 329,-476 341.5832,-448.2271 356.9492,-416.1417 365.7918,-397.8437"/>
<polygon fill="#000000" fill-opacity="0.200000" stroke="#000000" stroke-width="2" stroke-opacity="0.200000" points="367.803,-398.5086 368.5271,-392.1931 364.0226,-396.6786 367.803,-398.5086"/>
</g>
<!-- src/StackCallItem.ts -->
<g id="node27" class="node">
<title>src/StackCallItem.ts</title>
<g id="a_node27"><a xlink:href="src/StackCallItem.ts" xlink:title="StackCallItem.ts">
<path fill="#ddfeff" stroke="#000000" d="M190,-625C190,-625 120,-625 120,-625 117,-625 114,-622 114,-619 114,-619 114,-613 114,-613 114,-610 117,-607 120,-607 120,-607 190,-607 190,-607 193,-607 196,-610 196,-613 196,-613 196,-619 196,-619 196,-622 193,-625 190,-625"/>
<text text-anchor="middle" x="155" y="-613.8" font-family="Helvetica,sans-Serif" font-size="9.00" fill="#000000">StackCallItem.ts</text>
</a>
</g>
</g>
<!-- src/StackCallItem.ts&#45;&gt;./options.js -->
<g id="edge18" class="edge">
<title>src/StackCallItem.ts&#45;&gt;./options.js</title>
<path fill="none" stroke="#000000" stroke-width="2" stroke-opacity="0.200000" d="M157.7975,-606.9407C166.3335,-578.8917 192.1811,-490.8609 204,-416 207.0925,-396.4122 204.3247,-253.2507 217,-238 246.0778,-203.0141 286.7617,-246.8519 316,-212 338.6426,-185.0102 307.3397,-81.7843 329,-54 331.7291,-50.4993 335.3165,-47.8104 339.2674,-45.7461"/>
<polygon fill="#000000" fill-opacity="0.200000" stroke="#000000" stroke-width="2" stroke-opacity="0.200000" points="340.1852,-47.6367 344.8339,-43.3008 338.4959,-43.7914 340.1852,-47.6367"/>
</g>
<!-- src/StackItem.ts -->
<g id="node28" class="node">
<title>src/StackItem.ts</title>
<g id="a_node28"><a xlink:href="src/StackItem.ts" xlink:title="StackItem.ts">
<path fill="#ddfeff" stroke="#000000" d="M293,-840C293,-840 240,-840 240,-840 237,-840 234,-837 234,-834 234,-834 234,-828 234,-828 234,-825 237,-822 240,-822 240,-822 293,-822 293,-822 296,-822 299,-825 299,-828 299,-828 299,-834 299,-834 299,-837 296,-840 293,-840"/>
<text text-anchor="middle" x="266.5" y="-828.8" font-family="Helvetica,sans-Serif" font-size="9.00" fill="#000000">StackItem.ts</text>
</a>
</g>
</g>
<!-- src/StackCallItem.ts&#45;&gt;src/StackItem.ts -->
<g id="edge19" class="edge">
<title>src/StackCallItem.ts&#45;&gt;src/StackItem.ts</title>
<path fill="none" stroke="#000000" stroke-width="2" stroke-opacity="0.200000" d="M156.6285,-625.1415C163.1291,-660.6623 188.2627,-788.9322 217,-817 220.2065,-820.1318 224.0582,-822.5737 228.179,-824.4759"/>
<polygon fill="#000000" fill-opacity="0.200000" stroke="#000000" stroke-width="2" stroke-opacity="0.200000" points="227.5777,-826.4963 233.9295,-826.7493 229.1218,-822.5904 227.5777,-826.4963"/>
</g>
<!-- src/StackGuardItem.ts -->
<g id="node29" class="node">
<title>src/StackGuardItem.ts</title>
<g id="a_node29"><a xlink:href="src/StackGuardItem.ts" xlink:title="StackGuardItem.ts">
<path fill="#ddfeff" stroke="#000000" d="M194.5,-840C194.5,-840 115.5,-840 115.5,-840 112.5,-840 109.5,-837 109.5,-834 109.5,-834 109.5,-828 109.5,-828 109.5,-825 112.5,-822 115.5,-822 115.5,-822 194.5,-822 194.5,-822 197.5,-822 200.5,-825 200.5,-828 200.5,-828 200.5,-834 200.5,-834 200.5,-837 197.5,-840 194.5,-840"/>
<text text-anchor="middle" x="155" y="-828.8" font-family="Helvetica,sans-Serif" font-size="9.00" fill="#000000">StackGuardItem.ts</text>
</a>
</g>
</g>
<!-- src/StackGuardItem.ts&#45;&gt;src/StackItem.ts -->
<g id="edge20" class="edge">
<title>src/StackGuardItem.ts&#45;&gt;src/StackItem.ts</title>
<path fill="none" stroke="#000000" stroke-width="2" stroke-opacity="0.200000" d="M200.673,-831C209.5777,-831 218.8371,-831 227.5014,-831"/>
<polygon fill="#000000" fill-opacity="0.200000" stroke="#000000" stroke-width="2" stroke-opacity="0.200000" points="227.6917,-833.1001 233.6917,-831 227.6916,-828.9001 227.6917,-833.1001"/>
</g>
<!-- src/StackThread.ts -->
<g id="node30" class="node">
<title>src/StackThread.ts</title>
<g id="a_node30"><a xlink:href="src/StackThread.ts" xlink:title="StackThread.ts">
<path fill="#ddfeff" stroke="#000000" d="M87,-625C87,-625 22,-625 22,-625 19,-625 16,-622 16,-619 16,-619 16,-613 16,-613 16,-610 19,-607 22,-607 22,-607 87,-607 87,-607 90,-607 93,-610 93,-613 93,-613 93,-619 93,-619 93,-622 90,-625 87,-625"/>
<text text-anchor="middle" x="54.5" y="-613.8" font-family="Helvetica,sans-Serif" font-size="9.00" fill="#000000">StackThread.ts</text>
</a>
</g>
</g>
<!-- src/StackThread.ts&#45;&gt;src/StackCallItem.ts -->
<g id="edge21" class="edge">
<title>src/StackThread.ts&#45;&gt;src/StackCallItem.ts</title>
<path fill="none" stroke="#000000" stroke-width="2" stroke-opacity="0.200000" d="M93.0685,-616C97.8169,-616 102.7126,-616 107.573,-616"/>
<polygon fill="#000000" fill-opacity="0.200000" stroke="#000000" stroke-width="2" stroke-opacity="0.200000" points="107.6968,-618.1001 113.6968,-616 107.6968,-613.9001 107.6968,-618.1001"/>
</g>
<!-- src/Thread.ts -->
<g id="node31" class="node">
<title>src/Thread.ts</title>
<g id="a_node31"><a xlink:href="src/Thread.ts" xlink:title="Thread.ts">
<path fill="#ddfeff" stroke="#000000" d="M288,-694C288,-694 245,-694 245,-694 242,-694 239,-691 239,-688 239,-688 239,-682 239,-682 239,-679 242,-676 245,-676 245,-676 288,-676 288,-676 291,-676 294,-679 294,-682 294,-682 294,-688 294,-688 294,-691 291,-694 288,-694"/>
<text text-anchor="middle" x="266.5" y="-682.8" font-family="Helvetica,sans-Serif" font-size="9.00" fill="#000000">Thread.ts</text>
</a>
</g>
</g>
<!-- src/Thread.ts&#45;&gt;./Lval.js -->
<g id="edge23" class="edge">
<title>src/Thread.ts&#45;&gt;./Lval.js</title>
<path fill="none" stroke="#000000" stroke-width="2" stroke-opacity="0.200000" d="M294.1989,-682.7689C302.4908,-680.6671 310.7614,-676.8461 316,-670 345.5199,-631.4214 299.7474,-271.7816 329,-233 331.8511,-229.2201 335.7287,-226.4392 340.0074,-224.3974"/>
<polygon fill="#000000" fill-opacity="0.200000" stroke="#000000" stroke-width="2" stroke-opacity="0.200000" points="340.7878,-226.3471 345.5944,-222.187 339.2426,-222.4417 340.7878,-226.3471"/>
</g>
<!-- src/Thread.ts&#45;&gt;./ThreadError.js -->
<g id="edge24" class="edge">
<title>src/Thread.ts&#45;&gt;./ThreadError.js</title>
<path fill="none" stroke="#000000" stroke-width="2" stroke-opacity="0.200000" d="M294.1803,-687.2453C302.471,-689.3482 310.7455,-693.166 316,-700 341.6155,-733.3157 303.9599,-1044.2497 329,-1078 329.4328,-1078.5833 329.8895,-1079.1442 330.368,-1079.6834"/>
<polygon fill="#000000" fill-opacity="0.200000" stroke="#000000" stroke-width="2" stroke-opacity="0.200000" points="329.3205,-1081.5618 335.2011,-1083.9762 332.1097,-1078.4216 329.3205,-1081.5618"/>
</g>
<!-- src/Thread.ts&#45;&gt;src/logger.js -->
<g id="edge22" class="edge">
<title>src/Thread.ts&#45;&gt;src/logger.js</title>
<path fill="none" stroke="#000000" stroke-width="2" stroke-opacity="0.200000" d="M294.2111,-680.8968C301.9279,-678.6791 309.8668,-675.2628 316,-670 348.3958,-642.2019 363.831,-591.8191 369.832,-566.4606"/>
<polygon fill="#000000" fill-opacity="0.200000" stroke="#000000" stroke-width="2" stroke-opacity="0.200000" points="371.9507,-566.6107 371.2201,-560.2959 367.8533,-565.688 371.9507,-566.6107"/>
</g>
<!-- src/ThreadError.ts -->
<g id="node32" class="node">
<title>src/ThreadError.ts</title>
<g id="a_node32"><a xlink:href="src/ThreadError.ts" xlink:title="ThreadError.ts">
<path fill="#ddfeff" stroke="#000000" d="M298,-560C298,-560 235,-560 235,-560 232,-560 229,-557 229,-554 229,-554 229,-548 229,-548 229,-545 232,-542 235,-542 235,-542 298,-542 298,-542 301,-542 304,-545 304,-548 304,-548 304,-554 304,-554 304,-557 301,-560 298,-560"/>
<text text-anchor="middle" x="266.5" y="-548.8" font-family="Helvetica,sans-Serif" font-size="9.00" fill="#000000">ThreadError.ts</text>
</a>
</g>
</g>
<!-- src/ValuesUtil.js -->
<g id="node33" class="node">
<title>src/ValuesUtil.js</title>
<g id="a_node33"><a xlink:href="src/ValuesUtil.js" xlink:title="ValuesUtil.js">
<path fill="#ffffcc" stroke="#000000" d="M294.5,-620C294.5,-620 238.5,-620 238.5,-620 235.5,-620 232.5,-617 232.5,-614 232.5,-614 232.5,-608 232.5,-608 232.5,-605 235.5,-602 238.5,-602 238.5,-602 294.5,-602 294.5,-602 297.5,-602 300.5,-605 300.5,-608 300.5,-608 300.5,-614 300.5,-614 300.5,-617 297.5,-620 294.5,-620"/>
<text text-anchor="middle" x="266.5" y="-608.8" font-family="Helvetica,sans-Serif" font-size="9.00" fill="#000000">ValuesUtil.js</text>
</a>
</g>
</g>
<!-- src/levels/lohi.js -->
<g id="node34" class="node">
<title>src/levels/lohi.js</title>
<g id="a_node34"><a xlink:href="src/levels/lohi.js" xlink:title="lohi.js">
<path fill="#ffffcc" stroke="#000000" d="M287.5,-904C287.5,-904 245.5,-904 245.5,-904 242.5,-904 239.5,-901 239.5,-898 239.5,-898 239.5,-892 239.5,-892 239.5,-889 242.5,-886 245.5,-886 245.5,-886 287.5,-886 287.5,-886 290.5,-886 293.5,-889 293.5,-892 293.5,-892 293.5,-898 293.5,-898 293.5,-901 290.5,-904 287.5,-904"/>
<text text-anchor="middle" x="266.5" y="-892.8" font-family="Helvetica,sans-Serif" font-size="9.00" fill="#000000">lohi.js</text>
</a>
</g>
</g>
<!-- src/levels/lohi.js&#45;&gt;../Level.js -->
<g id="edge25" class="edge">
<title>src/levels/lohi.js&#45;&gt;../Level.js</title>
<path fill="none" stroke="#000000" stroke-width="2" stroke-opacity="0.200000" d="M277.8974,-904.2035C296.8743,-919.5276 335.0086,-950.3215 356.7818,-967.9036"/>
<polygon fill="#000000" fill-opacity="0.200000" stroke="#000000" stroke-width="2" stroke-opacity="0.200000" points="355.6972,-969.7269 361.6846,-971.8627 358.3358,-966.4593 355.6972,-969.7269"/>
</g>
<!-- src/levels/tagsets.ts -->
<g id="node35" class="node">
<title>src/levels/tagsets.ts</title>
<g id="a_node35"><a xlink:href="src/levels/tagsets.ts" xlink:title="tagsets.ts">
<path fill="#ddfeff" stroke="#000000" d="M288,-874C288,-874 245,-874 245,-874 242,-874 239,-871 239,-868 239,-868 239,-862 239,-862 239,-859 242,-856 245,-856 245,-856 288,-856 288,-856 291,-856 294,-859 294,-862 294,-862 294,-868 294,-868 294,-871 291,-874 288,-874"/>
<text text-anchor="middle" x="266.5" y="-862.8" font-family="Helvetica,sans-Serif" font-size="9.00" fill="#000000">tagsets.ts</text>
</a>
</g>
</g>
<!-- src/levels/tagsets.ts&#45;&gt;../Level.js -->
<g id="edge26" class="edge">
<title>src/levels/tagsets.ts&#45;&gt;../Level.js</title>
<path fill="none" stroke="#000000" stroke-width="2" stroke-opacity="0.200000" d="M294.2499,-869.441C301.8808,-871.6663 309.7638,-875.002 316,-880 344.4565,-902.8061 361.1789,-943.8981 368.5267,-965.9855"/>
<polygon fill="#000000" fill-opacity="0.200000" stroke="#000000" stroke-width="2" stroke-opacity="0.200000" points="366.6018,-966.8607 370.4309,-971.935 370.602,-965.5804 366.6018,-966.8607"/>
</g>
<!-- src/levels/tagsets.ts&#45;&gt;src/logger.js -->
<g id="edge27" class="edge">
<title>src/levels/tagsets.ts&#45;&gt;src/logger.js</title>
<path fill="none" stroke="#000000" stroke-width="2" stroke-opacity="0.200000" d="M294.0834,-863.64C302.2657,-861.8444 310.5003,-858.4033 316,-852 333.9084,-831.1495 324.2466,-756.0714 329,-729 339.7419,-667.8232 359.6702,-596.4966 368.541,-566.0323"/>
<polygon fill="#000000" fill-opacity="0.200000" stroke="#000000" stroke-width="2" stroke-opacity="0.200000" points="370.5867,-566.5185 370.2588,-560.1701 366.5562,-565.3374 370.5867,-566.5185"/>
</g>
<!-- src/loadLibs.js -->
<g id="node36" class="node">
<title>src/loadLibs.js</title>
<g id="a_node36"><a xlink:href="src/loadLibs.js" xlink:title="loadLibs.js">
<path fill="#ffffcc" stroke="#000000" d="M291,-380C291,-380 242,-380 242,-380 239,-380 236,-377 236,-374 236,-374 236,-368 236,-368 236,-365 239,-362 242,-362 242,-362 291,-362 291,-362 294,-362 297,-365 297,-368 297,-368 297,-374 297,-374 297,-377 294,-380 291,-380"/>
<text text-anchor="middle" x="266.5" y="-368.8" font-family="Helvetica,sans-Serif" font-size="9.00" fill="#000000">loadLibs.js</text>
</a>
</g>
</g>
<!-- src/loadLibs.js&#45;&gt;fs -->
<g id="edge29" class="edge">
<title>src/loadLibs.js&#45;&gt;fs</title>
<path fill="none" stroke="#000000" stroke-dasharray="5,2" stroke-opacity="0.200000" d="M297.2287,-367.8413C304.4388,-365.6087 311.3625,-361.9488 316,-356 353.205,-308.2751 292.6194,-132.3563 329,-84 331.8657,-80.1909 335.7512,-77.3411 340.0333,-75.2105"/>
<polygon fill="#000000" fill-opacity="0.200000" stroke="#000000" stroke-opacity="0.200000" points="340.8939,-77.127 345.6226,-72.8785 339.2766,-73.2508 340.8939,-77.127"/>
</g>
<!-- src/loadLibs.js&#45;&gt;src/logger.js -->
<g id="edge28" class="edge">
<title>src/loadLibs.js&#45;&gt;src/logger.js</title>
<path fill="none" stroke="#000000" stroke-width="2" stroke-opacity="0.200000" d="M297.074,-374.2817C304.2854,-376.5133 311.2482,-380.142 316,-386 337.0775,-411.9845 308.3715,-509.6576 329,-536 331.9389,-539.7529 335.8637,-542.5726 340.1632,-544.6898"/>
<polygon fill="#000000" fill-opacity="0.200000" stroke="#000000" stroke-width="2" stroke-opacity="0.200000" points="339.4167,-546.6536 345.7635,-547.0134 341.0263,-542.7743 339.4167,-546.6536"/>
</g>
<!-- src/options.ts -->
<g id="node37" class="node">
<title>src/options.ts</title>
<g id="a_node37"><a xlink:href="src/options.ts" xlink:title="options.ts">
<path fill="#ddfeff" stroke="#000000" d="M288.5,-724C288.5,-724 244.5,-724 244.5,-724 241.5,-724 238.5,-721 238.5,-718 238.5,-718 238.5,-712 238.5,-712 238.5,-709 241.5,-706 244.5,-706 244.5,-706 288.5,-706 288.5,-706 291.5,-706 294.5,-709 294.5,-712 294.5,-712 294.5,-718 294.5,-718 294.5,-721 291.5,-724 288.5,-724"/>
<text text-anchor="middle" x="266.5" y="-712.8" font-family="Helvetica,sans-Serif" font-size="9.00" fill="#000000">options.ts</text>
</a>
</g>
</g>
<!-- src/p2p/libp2p&#45;bundle.js -->
<g id="node38" class="node">
<title>src/p2p/libp2p&#45;bundle.js</title>
<g id="a_node38"><a xlink:href="src/p2p/libp2p-bundle.js" xlink:title="libp2p&#45;bundle.js">
<path fill="#ffffcc" stroke="#000000" d="M408.5,-770C408.5,-770 337.5,-770 337.5,-770 334.5,-770 331.5,-767 331.5,-764 331.5,-764 331.5,-758 331.5,-758 331.5,-755 334.5,-752 337.5,-752 337.5,-752 408.5,-752 408.5,-752 411.5,-752 414.5,-755 414.5,-758 414.5,-758 414.5,-764 414.5,-764 414.5,-767 411.5,-770 408.5,-770"/>
<text text-anchor="middle" x="373" y="-758.8" font-family="Helvetica,sans-Serif" font-size="9.00" fill="#000000">libp2p&#45;bundle.js</text>
</a>
</g>
</g>
<!-- src/p2p/p2pconfig.js -->
<g id="node39" class="node">
<title>src/p2p/p2pconfig.js</title>
<g id="a_node39"><a xlink:href="src/p2p/p2pconfig.js" xlink:title="p2pconfig.js">
<path fill="#ffffcc" stroke="#000000" d="M490,-781C490,-781 436,-781 436,-781 433,-781 430,-778 430,-775 430,-775 430,-769 430,-769 430,-766 433,-763 436,-763 436,-763 490,-763 490,-763 493,-763 496,-766 496,-769 496,-769 496,-775 496,-775 496,-778 493,-781 490,-781"/>
<text text-anchor="middle" x="463" y="-769.8" font-family="Helvetica,sans-Serif" font-size="9.00" fill="#000000">p2pconfig.js</text>
</a>
</g>
</g>
<!-- src/p2p/libp2p&#45;bundle.js&#45;&gt;src/p2p/p2pconfig.js -->
<g id="edge30" class="edge">
<title>src/p2p/libp2p&#45;bundle.js&#45;&gt;src/p2p/p2pconfig.js</title>
<path fill="none" stroke="#000000" stroke-width="2" stroke-opacity="0.200000" d="M414.5752,-766.0814C417.6381,-766.4558 420.7222,-766.8327 423.7704,-767.2053"/>
<polygon fill="#000000" fill-opacity="0.200000" stroke="#000000" stroke-width="2" stroke-opacity="0.200000" points="423.748,-769.3181 429.9585,-767.9616 424.2576,-765.1491 423.748,-769.3181"/>
</g>
<!-- src/p2p/mkid.js -->
<g id="node40" class="node">
<title>src/p2p/mkid.js</title>
<g id="a_node40"><a xlink:href="src/p2p/mkid.js" xlink:title="mkid.js">
<path fill="#ffffcc" stroke="#000000" d="M287.5,-758C287.5,-758 245.5,-758 245.5,-758 242.5,-758 239.5,-755 239.5,-752 239.5,-752 239.5,-746 239.5,-746 239.5,-743 242.5,-740 245.5,-740 245.5,-740 287.5,-740 287.5,-740 290.5,-740 293.5,-743 293.5,-746 293.5,-746 293.5,-752 293.5,-752 293.5,-755 290.5,-758 287.5,-758"/>
<text text-anchor="middle" x="266.5" y="-746.8" font-family="Helvetica,sans-Serif" font-size="9.00" fill="#000000">mkid.js</text>
</a>
</g>
</g>
<!-- src/p2p/mkid.js&#45;&gt;fs -->
<g id="edge31" class="edge">
<title>src/p2p/mkid.js&#45;&gt;fs</title>
<path fill="none" stroke="#000000" stroke-dasharray="5,2" stroke-opacity="0.200000" d="M293.6365,-748.0749C302.0972,-746.3501 310.6136,-742.8415 316,-736 338.4113,-707.5342 307.6237,-113.2511 329,-84 331.8794,-80.0598 335.8535,-77.1441 340.2444,-74.9888"/>
<polygon fill="#000000" fill-opacity="0.200000" stroke="#000000" stroke-opacity="0.200000" points="341.2186,-76.8593 345.9782,-72.6454 339.6296,-72.9715 341.2186,-76.8593"/>
</g>
<!-- src/p2p/p2p.js -->
<g id="node41" class="node">
<title>src/p2p/p2p.js</title>
<g id="a_node41"><a xlink:href="src/p2p/p2p.js" xlink:title="p2p.js">
<path fill="#ffffcc" stroke="#000000" d="M287.5,-788C287.5,-788 245.5,-788 245.5,-788 242.5,-788 239.5,-785 239.5,-782 239.5,-782 239.5,-776 239.5,-776 239.5,-773 242.5,-770 245.5,-770 245.5,-770 287.5,-770 287.5,-770 290.5,-770 293.5,-773 293.5,-776 293.5,-776 293.5,-782 293.5,-782 293.5,-785 290.5,-788 287.5,-788"/>
<text text-anchor="middle" x="266.5" y="-776.8" font-family="Helvetica,sans-Serif" font-size="9.00" fill="#000000">p2p.js</text>
</a>
</g>
</g>
<!-- src/p2p/p2p.js&#45;&gt;src/logger.js -->
<g id="edge32" class="edge">
<title>src/p2p/p2p.js&#45;&gt;src/logger.js</title>
<path fill="none" stroke="#000000" stroke-width="2" stroke-opacity="0.200000" d="M293.5699,-775.9376C301.7214,-773.7761 310.0675,-770.1301 316,-764 323.1032,-756.6602 357.9911,-613.4683 369.3897,-566.0821"/>
<polygon fill="#000000" fill-opacity="0.200000" stroke="#000000" stroke-width="2" stroke-opacity="0.200000" points="371.4777,-566.3801 370.8368,-560.0556 367.3938,-565.3994 371.4777,-566.3801"/>
</g>
<!-- src/p2p/p2p.js&#45;&gt;src/p2p/libp2p&#45;bundle.js -->
<g id="edge33" class="edge">
<title>src/p2p/p2p.js&#45;&gt;src/p2p/libp2p&#45;bundle.js</title>
<path fill="none" stroke="#000000" stroke-width="2" stroke-opacity="0.200000" d="M293.65,-774.4113C303.3217,-772.7766 314.5195,-770.884 325.3991,-769.0452"/>
<polygon fill="#000000" fill-opacity="0.200000" stroke="#000000" stroke-width="2" stroke-opacity="0.200000" points="325.8328,-771.1018 331.399,-768.0312 325.1329,-766.9605 325.8328,-771.1018"/>
</g>
<!-- src/p2p/p2p.js&#45;&gt;src/p2p/p2pconfig.js -->
<g id="edge34" class="edge">
<title>src/p2p/p2p.js&#45;&gt;src/p2p/p2pconfig.js</title>
<path fill="none" stroke="#000000" stroke-width="2" stroke-opacity="0.200000" d="M293.7082,-779.0037C323.8668,-778.8805 373.9408,-778.2987 417,-776 419.2113,-775.8819 421.4811,-775.7428 423.7709,-775.5885"/>
<polygon fill="#000000" fill-opacity="0.200000" stroke="#000000" stroke-width="2" stroke-opacity="0.200000" points="424.0197,-777.6761 429.8525,-775.1486 423.7166,-773.487 424.0197,-777.6761"/>
</g>
<!-- util -->
<g id="node42" class="node">
<title>util</title>
<path fill="#ffffcc" stroke="#c0c0c0" d="M394,-168C394,-168 352,-168 352,-168 349,-168 346,-165 346,-162 346,-162 346,-156 346,-156 346,-153 349,-150 352,-150 352,-150 394,-150 394,-150 397,-150 400,-153 400,-156 400,-156 400,-162 400,-162 400,-165 397,-168 394,-168"/>
<text text-anchor="middle" x="373" y="-156.8" font-family="Helvetica,sans-Serif" font-size="9.00" fill="#c0c0c0">util</text>
</g>
<!-- src/p2p/p2p.js&#45;&gt;util -->
<g id="edge35" class="edge">
<title>src/p2p/p2p.js&#45;&gt;util</title>
<path fill="none" stroke="#000000" stroke-dasharray="5,2" stroke-opacity="0.200000" d="M293.7115,-776.9216C302.1782,-774.8503 310.6793,-771.0093 316,-764 335.8231,-737.8858 309.6279,-200.4504 329,-174 331.8836,-170.0628 335.8598,-167.1487 340.2516,-164.9941"/>
<polygon fill="#000000" fill-opacity="0.200000" stroke="#000000" stroke-opacity="0.200000" points="341.226,-166.8646 345.9859,-162.6511 339.6373,-162.9766 341.226,-166.8646"/>
</g>
<!-- src/runtimeMonitored.js -->
<g id="node43" class="node">
<title>src/runtimeMonitored.js</title>
<g id="a_node43"><a xlink:href="src/runtimeMonitored.js" xlink:title="runtimeMonitored.js">
<path fill="#ffffcc" stroke="#000000" d="M198,-410C198,-410 112,-410 112,-410 109,-410 106,-407 106,-404 106,-404 106,-398 106,-398 106,-395 109,-392 112,-392 112,-392 198,-392 198,-392 201,-392 204,-395 204,-398 204,-398 204,-404 204,-404 204,-407 201,-410 198,-410"/>
<text text-anchor="middle" x="155" y="-398.8" font-family="Helvetica,sans-Serif" font-size="9.00" fill="#000000">runtimeMonitored.js</text>
</a>
</g>
</g>
<!-- src/runtimeMonitored.js&#45;&gt;assert -->
<g id="edge54" class="edge">
<title>src/runtimeMonitored.js&#45;&gt;assert</title>
<path fill="none" stroke="#000000" stroke-dasharray="5,2" stroke-opacity="0.200000" d="M155.6833,-391.863C159.3482,-344.9588 177.9798,-131.4381 217,-80 246.8356,-40.6693 303.5173,-22.4973 339.7193,-14.5779"/>
<polygon fill="#000000" fill-opacity="0.200000" stroke="#000000" stroke-opacity="0.200000" points="340.3468,-16.592 345.7875,-13.3042 339.484,-12.4816 340.3468,-16.592"/>
</g>
<!-- src/runtimeMonitored.js&#45;&gt;fs -->
<g id="edge55" class="edge">
<title>src/runtimeMonitored.js&#45;&gt;fs</title>
<path fill="none" stroke="#000000" stroke-dasharray="5,2" stroke-opacity="0.200000" d="M156.1682,-391.7828C161.5534,-350.4926 185.0885,-182.7828 217,-142 247.4835,-103.0422 303.7131,-83.9503 339.6845,-75.3176"/>
<polygon fill="#000000" fill-opacity="0.200000" stroke="#000000" stroke-opacity="0.200000" points="340.3429,-77.3208 345.7152,-73.9225 339.3963,-73.2289 340.3429,-77.3208"/>
</g>
<!-- src/runtimeMonitored.js&#45;&gt;os -->
<g id="edge56" class="edge">
<title>src/runtimeMonitored.js&#45;&gt;os</title>
<path fill="none" stroke="#000000" stroke-dasharray="5,2" stroke-opacity="0.200000" d="M155.3563,-391.8383C157.004,-362.1028 166.1933,-267.1984 217,-215 221.5902,-210.2841 227.5117,-206.7971 233.6531,-204.2208"/>
<polygon fill="#000000" fill-opacity="0.200000" stroke="#000000" stroke-opacity="0.200000" points="234.438,-206.1694 239.3232,-202.1017 232.9676,-202.2352 234.438,-206.1694"/>
</g>
<!-- src/runtimeMonitored.js&#45;&gt;readline -->
<g id="edge57" class="edge">
<title>src/runtimeMonitored.js&#45;&gt;readline</title>
<path fill="none" stroke="#000000" stroke-dasharray="5,2" stroke-opacity="0.200000" d="M156.4041,-391.8412C162.3211,-354.3669 186.3401,-213.2277 217,-182 221.4824,-177.4346 227.3041,-174.2486 233.3723,-172.0277"/>
<polygon fill="#000000" fill-opacity="0.200000" stroke="#000000" stroke-opacity="0.200000" points="234.3847,-173.9113 239.4823,-170.1133 233.1289,-169.9034 234.3847,-173.9113"/>
</g>
<!-- src/runtimeMonitored.js&#45;&gt;src/Authority.ts -->
<g id="edge36" class="edge">
<title>src/runtimeMonitored.js&#45;&gt;src/Authority.ts</title>
<path fill="none" stroke="#000000" stroke-width="2" stroke-opacity="0.200000" d="M155.6692,-410.0165C158.2063,-437.5978 169.6556,-521.6461 217,-566 220.594,-569.367 224.9199,-571.9798 229.4993,-574.007"/>
<polygon fill="#000000" fill-opacity="0.200000" stroke="#000000" stroke-width="2" stroke-opacity="0.200000" points="229.0452,-576.0822 235.3992,-576.2743 230.5519,-572.1617 229.0452,-576.0822"/>
</g>
<!-- src/runtimeMonitored.js&#45;&gt;src/BaseFunction.ts -->
<g id="edge37" class="edge">
<title>src/runtimeMonitored.js&#45;&gt;src/BaseFunction.ts</title>
<path fill="none" stroke="#000000" stroke-width="2" stroke-opacity="0.200000" d="M157.1541,-410.1565C167.1619,-452.5637 208.9709,-628.1973 217,-637 218.9758,-639.1662 221.2331,-641.0721 223.6705,-642.749"/>
<polygon fill="#000000" fill-opacity="0.200000" stroke="#000000" stroke-width="2" stroke-opacity="0.200000" points="222.6677,-644.5962 228.8938,-645.8793 224.8268,-640.9936 222.6677,-644.5962"/>
</g>
<!-- src/runtimeMonitored.js&#45;&gt;src/Level.ts -->
<g id="edge38" class="edge">
<title>src/runtimeMonitored.js&#45;&gt;src/Level.ts</title>
<path fill="none" stroke="#000000" stroke-width="2" stroke-opacity="0.200000" d="M156.6341,-391.6961C161.3662,-367.5515 177.352,-302.3836 217,-268 221.6809,-263.9406 227.4346,-260.9798 233.3426,-258.8202"/>
<polygon fill="#000000" fill-opacity="0.200000" stroke="#000000" stroke-width="2" stroke-opacity="0.200000" points="234.1979,-260.7512 239.2681,-256.9167 232.9133,-256.7525 234.1979,-260.7512"/>
</g>
<!-- src/runtimeMonitored.js&#45;&gt;src/Lval.ts -->
<g id="edge41" class="edge">
<title>src/runtimeMonitored.js&#45;&gt;src/Lval.ts</title>
<path fill="none" stroke="#000000" stroke-width="2" stroke-opacity="0.200000" d="M165.2692,-410.1329C177.0277,-420.1726 197.2268,-436.1779 217,-446 222.1382,-448.5523 227.7948,-450.765 233.3911,-452.6485"/>
<polygon fill="#000000" fill-opacity="0.200000" stroke="#000000" stroke-width="2" stroke-opacity="0.200000" points="233.0583,-454.7463 239.4126,-454.5637 234.3314,-450.7438 233.0583,-454.7463"/>
</g>
<!-- src/runtimeMonitored.js&#45;&gt;src/MailboxProcessor.js -->
<g id="edge42" class="edge">
<title>src/runtimeMonitored.js&#45;&gt;src/MailboxProcessor.js</title>
<path fill="none" stroke="#000000" stroke-width="2" stroke-opacity="0.200000" d="M158.2714,-391.8541C165.6871,-372.377 185.6087,-326.5039 217,-301 219.9342,-298.6161 223.2118,-296.5327 226.6452,-294.7149"/>
<polygon fill="#000000" fill-opacity="0.200000" stroke="#000000" stroke-width="2" stroke-opacity="0.200000" points="227.6445,-296.5646 232.142,-292.0721 225.8245,-292.7794 227.6445,-296.5646"/>
</g>
<!-- src/runtimeMonitored.js&#45;&gt;src/logger.js -->
<g id="edge40" class="edge">
<title>src/runtimeMonitored.js&#45;&gt;src/logger.js</title>
<path fill="none" stroke="#000000" stroke-width="2" stroke-opacity="0.200000" d="M159.185,-391.8717C167.4516,-375.0955 187.6533,-339.816 217,-326 236.9045,-316.6293 299.9703,-310.9319 316,-326 350.0676,-358.0238 300.6282,-498.836 329,-536 331.8924,-539.7888 335.7923,-542.6278 340.0807,-544.7535"/>
<polygon fill="#000000" fill-opacity="0.200000" stroke="#000000" stroke-width="2" stroke-opacity="0.200000" points="339.3278,-546.7147 345.674,-547.0825 340.9423,-542.8374 339.3278,-546.7147"/>
</g>
<!-- src/runtimeMonitored.js&#45;&gt;src/process.js -->
<g id="edge46" class="edge">
<title>src/runtimeMonitored.js&#45;&gt;src/process.js</title>
<path fill="none" stroke="#000000" stroke-width="2" stroke-opacity="0.200000" d="M156.818,-410.0235C165.0187,-450.2971 198.9498,-612.2509 217,-626 234.5011,-639.3309 299.3688,-640.4015 316,-626 346.5524,-599.5437 303.1856,-567.0966 329,-536 331.5034,-532.9844 334.6403,-530.5731 338.0804,-528.6454"/>
<polygon fill="#000000" fill-opacity="0.200000" stroke="#000000" stroke-width="2" stroke-opacity="0.200000" points="339.1597,-530.4581 343.6882,-525.9968 337.366,-526.6604 339.1597,-530.4581"/>
</g>
<!-- src/runtimeMonitored.js&#45;&gt;src/NodeManager.js -->
<g id="edge43" class="edge">
<title>src/runtimeMonitored.js&#45;&gt;src/NodeManager.js</title>
<path fill="none" stroke="#000000" stroke-width="2" stroke-opacity="0.200000" d="M165.2692,-391.8671C177.0277,-381.8274 197.2268,-365.8221 217,-356 219.674,-354.6717 222.4884,-353.4354 225.3617,-352.2897"/>
<polygon fill="#000000" fill-opacity="0.200000" stroke="#000000" stroke-width="2" stroke-opacity="0.200000" points="226.4308,-354.132 231.316,-350.0644 224.9605,-350.1978 226.4308,-354.132"/>
</g>
<!-- src/runtimeMonitored.js&#45;&gt;src/RtClosure.js -->
<g id="edge47" class="edge">
<title>src/runtimeMonitored.js&#45;&gt;src/RtClosure.js</title>
<path fill="none" stroke="#000000" stroke-width="2" stroke-opacity="0.200000" d="M204.2301,-401C211.7959,-401 219.524,-401 226.8469,-401"/>
<polygon fill="#000000" fill-opacity="0.200000" stroke="#000000" stroke-width="2" stroke-opacity="0.200000" points="226.8904,-403.1001 232.8904,-401 226.8904,-398.9001 226.8904,-403.1001"/>
</g>
<!-- src/runtimeMonitored.js&#45;&gt;src/SandboxStatus.ts -->
<g id="edge48" class="edge">
<title>src/runtimeMonitored.js&#45;&gt;src/SandboxStatus.ts</title>
<path fill="none" stroke="#000000" stroke-width="2" stroke-opacity="0.200000" d="M188.4537,-410.001C200.4711,-413.2344 214.1435,-416.913 226.6506,-420.2782"/>
<polygon fill="#000000" fill-opacity="0.200000" stroke="#000000" stroke-width="2" stroke-opacity="0.200000" points="226.345,-422.3706 232.6846,-421.9017 227.4363,-418.3148 226.345,-422.3706"/>
</g>
<!-- src/runtimeMonitored.js&#45;&gt;src/Scheduler.js -->
<g id="edge49" class="edge">
<title>src/runtimeMonitored.js&#45;&gt;src/Scheduler.js</title>
<path fill="none" stroke="#000000" stroke-width="2" stroke-opacity="0.200000" d="M157.8226,-410.1206C164.591,-430.4709 183.7036,-479.8465 217,-506 219.9659,-508.3296 223.291,-510.2986 226.7776,-511.9626"/>
<polygon fill="#000000" fill-opacity="0.200000" stroke="#000000" stroke-width="2" stroke-opacity="0.200000" points="226.0175,-513.9213 232.361,-514.3343 227.6596,-510.0556 226.0175,-513.9213"/>
</g>
<!-- src/runtimeMonitored.js&#45;&gt;src/UnitBase.js -->
<g id="edge52" class="edge">
<title>src/runtimeMonitored.js&#45;&gt;src/UnitBase.js</title>
<path fill="none" stroke="#000000" stroke-width="2" stroke-opacity="0.200000" d="M158.3287,-391.7508C165.6035,-373.1166 184.8864,-331.4373 217,-315 256.1674,-294.9523 276.1272,-296.3947 316,-315 339.3736,-325.9065 356.5558,-351.6355 365.6467,-368.132"/>
<polygon fill="#000000" fill-opacity="0.200000" stroke="#000000" stroke-width="2" stroke-opacity="0.200000" points="363.959,-369.4317 368.6264,-373.7474 367.669,-367.463 363.959,-369.4317"/>
</g>
<!-- src/runtimeMonitored.js&#45;&gt;src/ThreadError.ts -->
<g id="edge51" class="edge">
<title>src/runtimeMonitored.js&#45;&gt;src/ThreadError.ts</title>
<path fill="none" stroke="#000000" stroke-width="2" stroke-opacity="0.200000" d="M156.5228,-410.0874C161.061,-434.3 176.7664,-500.9076 217,-536 218.9413,-537.6933 221.0692,-539.1954 223.3174,-540.528"/>
<polygon fill="#000000" fill-opacity="0.200000" stroke="#000000" stroke-width="2" stroke-opacity="0.200000" points="222.4564,-542.447 228.7503,-543.3398 224.3869,-538.7169 222.4564,-542.447"/>
</g>
<!-- src/runtimeMonitored.js&#45;&gt;src/ValuesUtil.js -->
<g id="edge53" class="edge">
<title>src/runtimeMonitored.js&#45;&gt;src/ValuesUtil.js</title>
<path fill="none" stroke="#000000" stroke-width="2" stroke-opacity="0.200000" d="M156.7756,-410.3308C163.622,-445.3972 189.3078,-568.682 217,-596 219.8777,-598.8388 223.2739,-601.143 226.9173,-603.0129"/>
<polygon fill="#000000" fill-opacity="0.200000" stroke="#000000" stroke-width="2" stroke-opacity="0.200000" points="226.0651,-604.9322 232.4006,-605.4535 227.7729,-601.0951 226.0651,-604.9322"/>
</g>
<!-- src/runtimeMonitored.js&#45;&gt;src/loadLibs.js -->
<g id="edge39" class="edge">
<title>src/runtimeMonitored.js&#45;&gt;src/loadLibs.js</title>
<path fill="none" stroke="#000000" stroke-width="2" stroke-opacity="0.200000" d="M188.4537,-391.999C201.4704,-388.4968 216.4287,-384.4721 229.7449,-380.8893"/>
<polygon fill="#000000" fill-opacity="0.200000" stroke="#000000" stroke-width="2" stroke-opacity="0.200000" points="230.4864,-382.8645 235.7347,-379.2777 229.3951,-378.8088 230.4864,-382.8645"/>
</g>
<!-- src/runtimeMonitored.js&#45;&gt;src/options.ts -->
<g id="edge44" class="edge">
<title>src/runtimeMonitored.js&#45;&gt;src/options.ts</title>
<path fill="none" stroke="#000000" stroke-width="2" stroke-opacity="0.200000" d="M157.6067,-410.0922C165.5934,-438.2362 190.028,-526.5109 204,-601 208.0907,-622.8085 202.6451,-683.0801 217,-700 221.052,-704.776 226.5706,-708.063 232.4558,-710.3178"/>
<polygon fill="#000000" fill-opacity="0.200000" stroke="#000000" stroke-width="2" stroke-opacity="0.200000" points="232.0674,-712.3992 238.4225,-712.2455 233.3587,-708.4026 232.0674,-712.3992"/>
</g>
<!-- src/runtimeMonitored.js&#45;&gt;src/p2p/p2p.js -->
<g id="edge45" class="edge">
<title>src/runtimeMonitored.js&#45;&gt;src/p2p/p2p.js</title>
<path fill="none" stroke="#000000" stroke-width="2" stroke-opacity="0.200000" d="M157.7754,-410.0628C166.2475,-438.1221 191.931,-526.179 204,-601 209.7866,-636.8735 194.2059,-735.7012 217,-764 221.1833,-769.1935 227.1053,-772.6362 233.4051,-774.9067"/>
<polygon fill="#000000" fill-opacity="0.200000" stroke="#000000" stroke-width="2" stroke-opacity="0.200000" points="232.9067,-776.9498 239.2578,-776.6789 234.1239,-772.9301 232.9067,-776.9498"/>
</g>
<!-- src/runtimeMonitored.js&#45;&gt;util -->
<g id="edge58" class="edge">
<title>src/runtimeMonitored.js&#45;&gt;util</title>
<path fill="none" stroke="#000000" stroke-dasharray="5,2" stroke-opacity="0.200000" d="M155.8213,-391.741C159.703,-350.3218 177.687,-182.7246 217,-152 235.4006,-137.6193 299.6876,-145.7648 339.766,-152.6302"/>
<polygon fill="#000000" fill-opacity="0.200000" stroke="#000000" stroke-opacity="0.200000" points="339.7076,-154.7518 345.9798,-153.7174 340.4315,-150.6146 339.7076,-154.7518"/>
</g>
<!-- src/serialize.js -->
<g id="node44" class="node">
<title>src/serialize.js</title>
<g id="a_node44"><a xlink:href="src/serialize.js" xlink:title="serialize.js">
<path fill="#ffffcc" stroke="#000000" d="M290.5,-500C290.5,-500 242.5,-500 242.5,-500 239.5,-500 236.5,-497 236.5,-494 236.5,-494 236.5,-488 236.5,-488 236.5,-485 239.5,-482 242.5,-482 242.5,-482 290.5,-482 290.5,-482 293.5,-482 296.5,-485 296.5,-488 296.5,-488 296.5,-494 296.5,-494 296.5,-497 293.5,-500 290.5,-500"/>
<text text-anchor="middle" x="266.5" y="-488.8" font-family="Helvetica,sans-Serif" font-size="9.00" fill="#000000">serialize.js</text>
</a>
</g>
</g>
<!-- src/runtimeMonitored.js&#45;&gt;src/serialize.js -->
<g id="edge50" class="edge">
<title>src/runtimeMonitored.js&#45;&gt;src/serialize.js</title>
<path fill="none" stroke="#000000" stroke-width="2" stroke-opacity="0.200000" d="M160.055,-410.0881C169.292,-425.8621 190.4175,-458.3122 217,-476 221.1912,-478.7888 225.9206,-481.0755 230.7516,-482.9463"/>
<polygon fill="#000000" fill-opacity="0.200000" stroke="#000000" stroke-width="2" stroke-opacity="0.200000" points="230.0862,-484.9384 236.4431,-484.9565 231.485,-480.9781 230.0862,-484.9384"/>
</g>
<!-- src/serialize.js&#45;&gt;assert -->
<g id="edge59" class="edge">
<title>src/serialize.js&#45;&gt;assert</title>
<path fill="none" stroke="#000000" stroke-dasharray="5,2" stroke-opacity="0.200000" d="M296.532,-488.1344C304.019,-485.9271 311.2556,-482.2067 316,-476 346.5126,-436.0833 299.1768,-64.4344 329,-24 331.8294,-20.1639 335.6953,-17.2994 339.9688,-15.1625"/>
<polygon fill="#000000" fill-opacity="0.200000" stroke="#000000" stroke-opacity="0.200000" points="340.828,-17.0794 345.5526,-12.8263 339.207,-13.2049 340.828,-17.0794"/>
</g>
<!-- src/serialize.js&#45;&gt;child_process -->
<g id="edge60" class="edge">
<title>src/serialize.js&#45;&gt;child_process</title>
<path fill="none" stroke="#000000" stroke-dasharray="5,2" stroke-opacity="0.200000" d="M296.5459,-493.855C304.033,-496.0622 311.2662,-499.7852 316,-506 350.5497,-551.3586 294.7645,-973.4038 329,-1019 329.6017,-1019.8013 330.2494,-1020.5577 330.9375,-1021.2718"/>
<polygon fill="#000000" fill-opacity="0.200000" stroke="#000000" stroke-opacity="0.200000" points="330.0207,-1023.2335 335.9989,-1025.395 332.6734,-1019.9773 330.0207,-1023.2335"/>
</g>
<!-- src/troupe.ts -->
<g id="node45" class="node">
<title>src/troupe.ts</title>
<g id="a_node45"><a xlink:href="src/troupe.ts" xlink:title="troupe.ts">
<path fill="#ddfeff" stroke="#000000" d="M75.5,-410C75.5,-410 33.5,-410 33.5,-410 30.5,-410 27.5,-407 27.5,-404 27.5,-404 27.5,-398 27.5,-398 27.5,-395 30.5,-392 33.5,-392 33.5,-392 75.5,-392 75.5,-392 78.5,-392 81.5,-395 81.5,-398 81.5,-398 81.5,-404 81.5,-404 81.5,-407 78.5,-410 75.5,-410"/>
<text text-anchor="middle" x="54.5" y="-398.8" font-family="Helvetica,sans-Serif" font-size="9.00" fill="#000000">troupe.ts</text>
</a>
</g>
</g>
<!-- src/troupe.ts&#45;&gt;src/runtimeMonitored.js -->
<g id="edge61" class="edge">
<title>src/troupe.ts&#45;&gt;src/runtimeMonitored.js</title>
<path fill="none" stroke="#000000" stroke-width="2" stroke-opacity="0.200000" d="M81.6967,-401C87.2774,-401 93.3424,-401 99.5139,-401"/>
<polygon fill="#000000" fill-opacity="0.200000" stroke="#000000" stroke-width="2" stroke-opacity="0.200000" points="99.7069,-403.1001 105.7069,-401 99.7068,-398.9001 99.7069,-403.1001"/>
</g>
</g>
</svg>
