<?xml version="1.0" encoding="UTF-8" standalone="no"?>
<!DOCTYPE svg PUBLIC "-//W3C//DTD SVG 1.1//EN"
 "http://www.w3.org/Graphics/SVG/1.1/DTD/svg11.dtd">
<!-- Generated by graphviz version 2.40.1 (20161225.0304)
 -->
<!-- Title: dependency&#45;cruiser output Pages: 1 -->
<svg width="521pt" height="716pt"
 viewBox="0.00 0.00 520.50 716.00" xmlns="http://www.w3.org/2000/svg" xmlns:xlink="http://www.w3.org/1999/xlink">
<g id="graph0" class="graph" transform="scale(1 1) rotate(0) translate(4 712)">
<title>dependency&#45;cruiser output</title>
<polygon fill="#ffffff" stroke="transparent" points="-4,4 -4,-712 516.5,-712 516.5,4 -4,4"/>
<g id="clust1" class="cluster">
<title>cluster_src</title>
<path fill="#ffffff" stroke="#000000" stroke-width="2" d="M20,-100C20,-100 492.5,-100 492.5,-100 498.5,-100 504.5,-106 504.5,-112 504.5,-112 504.5,-640 504.5,-640 504.5,-646 498.5,-652 492.5,-652 492.5,-652 20,-652 20,-652 14,-652 8,-646 8,-640 8,-640 8,-112 8,-112 8,-106 14,-100 20,-100"/>
<text text-anchor="middle" x="256.25" y="-640.8" font-family="Helvetica,sans-Serif" font-weight="bold" font-size="9.00" fill="#000000">src</text>
</g>
<g id="clust2" class="cluster">
<title>cluster_src/levels</title>
<path fill="#ffffff" stroke="#000000" stroke-width="2" d="M119.5,-544C119.5,-544 166.5,-544 166.5,-544 172.5,-544 178.5,-550 178.5,-556 178.5,-556 178.5,-614 178.5,-614 178.5,-620 172.5,-626 166.5,-626 166.5,-626 119.5,-626 119.5,-626 113.5,-626 107.5,-620 107.5,-614 107.5,-614 107.5,-556 107.5,-556 107.5,-550 113.5,-544 119.5,-544"/>
<text text-anchor="middle" x="143" y="-614.8" font-family="Helvetica,sans-Serif" font-weight="bold" font-size="9.00" fill="#000000">levels</text>
</g>
<g id="clust3" class="cluster">
<title>cluster_src/p2p</title>
<path fill="#ffffff" stroke="#000000" stroke-width="2" d="M231.5,-108C231.5,-108 484.5,-108 484.5,-108 490.5,-108 496.5,-114 496.5,-120 496.5,-120 496.5,-178 496.5,-178 496.5,-184 490.5,-190 484.5,-190 484.5,-190 231.5,-190 231.5,-190 225.5,-190 219.5,-184 219.5,-178 219.5,-178 219.5,-120 219.5,-120 219.5,-114 225.5,-108 231.5,-108"/>
<text text-anchor="middle" x="358" y="-178.8" font-family="Helvetica,sans-Serif" font-weight="bold" font-size="9.00" fill="#000000">p2p</text>
</g>
<!-- assert -->
<g id="node1" class="node">
<title>assert</title>
<path fill="#ffffcc" stroke="#c0c0c0" d="M382,-708C382,-708 340,-708 340,-708 337,-708 334,-705 334,-702 334,-702 334,-696 334,-696 334,-693 337,-690 340,-690 340,-690 382,-690 382,-690 385,-690 388,-693 388,-696 388,-696 388,-702 388,-702 388,-705 385,-708 382,-708"/>
<text text-anchor="middle" x="361" y="-696.8" font-family="Helvetica,sans-Serif" font-size="9.00" fill="#c0c0c0">assert</text>
</g>
<!-- child_process -->
<g id="node2" class="node">
<title>child_process</title>
<path fill="#ffffcc" stroke="#c0c0c0" d="M392,-678C392,-678 330,-678 330,-678 327,-678 324,-675 324,-672 324,-672 324,-666 324,-666 324,-663 327,-660 330,-660 330,-660 392,-660 392,-660 395,-660 398,-663 398,-666 398,-666 398,-672 398,-672 398,-675 395,-678 392,-678"/>
<text text-anchor="middle" x="361" y="-666.8" font-family="Helvetica,sans-Serif" font-size="9.00" fill="#c0c0c0">child_process</text>
</g>
<!-- fs -->
<g id="node3" class="node">
<title>fs</title>
<path fill="#ffffcc" stroke="#c0c0c0" d="M382,-92C382,-92 340,-92 340,-92 337,-92 334,-89 334,-86 334,-86 334,-80 334,-80 334,-77 337,-74 340,-74 340,-74 382,-74 382,-74 385,-74 388,-77 388,-80 388,-80 388,-86 388,-86 388,-89 385,-92 382,-92"/>
<text text-anchor="middle" x="361" y="-80.8" font-family="Helvetica,sans-Serif" font-size="9.00" fill="#c0c0c0">fs</text>
</g>
<!-- os -->
<g id="node4" class="node">
<title>os</title>
<path fill="#ffffcc" stroke="#c0c0c0" d="M275.5,-48C275.5,-48 233.5,-48 233.5,-48 230.5,-48 227.5,-45 227.5,-42 227.5,-42 227.5,-36 227.5,-36 227.5,-33 230.5,-30 233.5,-30 233.5,-30 275.5,-30 275.5,-30 278.5,-30 281.5,-33 281.5,-36 281.5,-36 281.5,-42 281.5,-42 281.5,-45 278.5,-48 275.5,-48"/>
<text text-anchor="middle" x="254.5" y="-36.8" font-family="Helvetica,sans-Serif" font-size="9.00" fill="#c0c0c0">os</text>
</g>
<!-- readline -->
<g id="node5" class="node">
<title>readline</title>
<path fill="#ffffcc" stroke="#c0c0c0" d="M275.5,-18C275.5,-18 233.5,-18 233.5,-18 230.5,-18 227.5,-15 227.5,-12 227.5,-12 227.5,-6 227.5,-6 227.5,-3 230.5,0 233.5,0 233.5,0 275.5,0 275.5,0 278.5,0 281.5,-3 281.5,-6 281.5,-6 281.5,-12 281.5,-12 281.5,-15 278.5,-18 275.5,-18"/>
<text text-anchor="middle" x="254.5" y="-6.8" font-family="Helvetica,sans-Serif" font-size="9.00" fill="#c0c0c0">readline</text>
</g>
<!-- src/Authority.ts -->
<g id="node6" class="node">
<title>src/Authority.ts</title>
<g id="a_node6"><a xlink:href="src/Authority.ts" xlink:title="Authority.ts">
<path fill="#ddfeff" stroke="#000000" d="M386,-465C386,-465 336,-465 336,-465 333,-465 330,-462 330,-459 330,-459 330,-453 330,-453 330,-450 333,-447 336,-447 336,-447 386,-447 386,-447 389,-447 392,-450 392,-453 392,-453 392,-459 392,-459 392,-462 389,-465 386,-465"/>
<text text-anchor="middle" x="361" y="-453.8" font-family="Helvetica,sans-Serif" font-size="9.00" fill="#000000">Authority.ts</text>
</a>
</g>
</g>
<!-- src/BaseFunction.ts -->
<g id="node7" class="node">
<title>src/BaseFunction.ts</title>
<g id="a_node7"><a xlink:href="src/BaseFunction.ts" xlink:title="BaseFunction.ts">
<path fill="#ddfeff" stroke="#000000" d="M396,-495C396,-495 326,-495 326,-495 323,-495 320,-492 320,-489 320,-489 320,-483 320,-483 320,-480 323,-477 326,-477 326,-477 396,-477 396,-477 399,-477 402,-480 402,-483 402,-483 402,-489 402,-489 402,-492 399,-495 396,-495"/>
<text text-anchor="middle" x="361" y="-483.8" font-family="Helvetica,sans-Serif" font-size="9.00" fill="#000000">BaseFunction.ts</text>
</a>
</g>
</g>
<!-- src/BaseKont.ts -->
<g id="node8" class="node">
<title>src/BaseKont.ts</title>
<g id="a_node8"><a xlink:href="src/BaseKont.ts" xlink:title="BaseKont.ts">
<path fill="#ccffcc" stroke="#000000" d="M75,-506C75,-506 22,-506 22,-506 19,-506 16,-503 16,-500 16,-500 16,-494 16,-494 16,-491 19,-488 22,-488 22,-488 75,-488 75,-488 78,-488 81,-491 81,-494 81,-494 81,-500 81,-500 81,-503 78,-506 75,-506"/>
<text text-anchor="middle" x="48.5" y="-494.8" font-family="Helvetica,sans-Serif" font-size="9.00" fill="#000000">BaseKont.ts</text>
</a>
</g>
</g>
<!-- src/Level.ts -->
<g id="node9" class="node">
<title>src/Level.ts</title>
<g id="a_node9"><a xlink:href="src/Level.ts" xlink:title="Level.ts">
<path fill="#ddfeff" stroke="#000000" d="M275.5,-612C275.5,-612 233.5,-612 233.5,-612 230.5,-612 227.5,-609 227.5,-606 227.5,-606 227.5,-600 227.5,-600 227.5,-597 230.5,-594 233.5,-594 233.5,-594 275.5,-594 275.5,-594 278.5,-594 281.5,-597 281.5,-600 281.5,-600 281.5,-606 281.5,-606 281.5,-609 278.5,-612 275.5,-612"/>
<text text-anchor="middle" x="254.5" y="-600.8" font-family="Helvetica,sans-Serif" font-size="9.00" fill="#000000">Level.ts</text>
</a>
</g>
</g>
<!-- src/Lval.ts -->
<g id="node10" class="node">
<title>src/Lval.ts</title>
<g id="a_node10"><a xlink:href="src/Lval.ts" xlink:title="Lval.ts">
<path fill="#ddfeff" stroke="#000000" d="M476.5,-380C476.5,-380 434.5,-380 434.5,-380 431.5,-380 428.5,-377 428.5,-374 428.5,-374 428.5,-368 428.5,-368 428.5,-365 431.5,-362 434.5,-362 434.5,-362 476.5,-362 476.5,-362 479.5,-362 482.5,-365 482.5,-368 482.5,-368 482.5,-374 482.5,-374 482.5,-377 479.5,-380 476.5,-380"/>
<text text-anchor="middle" x="455.5" y="-368.8" font-family="Helvetica,sans-Serif" font-size="9.00" fill="#000000">Lval.ts</text>
</a>
</g>
</g>
<!-- src/MailboxProcessor.js -->
<g id="node11" class="node">
<title>src/MailboxProcessor.js</title>
<g id="a_node11"><a xlink:href="src/MailboxProcessor.js" xlink:title="MailboxProcessor.js">
<path fill="#ffffcc" stroke="#000000" d="M298,-334C298,-334 211,-334 211,-334 208,-334 205,-331 205,-328 205,-328 205,-322 205,-322 205,-319 208,-316 211,-316 211,-316 298,-316 298,-316 301,-316 304,-319 304,-322 304,-322 304,-328 304,-328 304,-331 301,-334 298,-334"/>
<text text-anchor="middle" x="254.5" y="-322.8" font-family="Helvetica,sans-Serif" font-size="9.00" fill="#000000">MailboxProcessor.js</text>
</a>
</g>
</g>
<!-- src/MailboxProcessor.js&#45;&gt;src/Lval.ts -->
<g id="edge2" class="edge">
<title>src/MailboxProcessor.js&#45;&gt;src/Lval.ts</title>
<path fill="none" stroke="#000000" stroke-width="2" stroke-opacity="0.200000" d="M277.9212,-315.9374C287.2449,-311.2621 297.3231,-304.6863 304,-296 317.2084,-278.8166 299.7525,-262.1245 317,-249 332.5623,-237.1579 388.7414,-238.1336 405,-249 441.1935,-273.1899 451.4789,-328.6271 454.3773,-355.6401"/>
<polygon fill="#000000" fill-opacity="0.200000" stroke="#000000" stroke-width="2" stroke-opacity="0.200000" points="452.3098,-356.0838 454.9663,-361.8591 456.4911,-355.6878 452.3098,-356.0838"/>
</g>
<!-- src/logger.ts -->
<g id="node12" class="node">
<title>src/logger.ts</title>
<g id="a_node12"><a xlink:href="src/logger.ts" xlink:title="logger.ts">
<path fill="#ddfeff" stroke="#000000" d="M476.5,-237C476.5,-237 434.5,-237 434.5,-237 431.5,-237 428.5,-234 428.5,-231 428.5,-231 428.5,-225 428.5,-225 428.5,-222 431.5,-219 434.5,-219 434.5,-219 476.5,-219 476.5,-219 479.5,-219 482.5,-222 482.5,-225 482.5,-225 482.5,-231 482.5,-231 482.5,-234 479.5,-237 476.5,-237"/>
<text text-anchor="middle" x="455.5" y="-225.8" font-family="Helvetica,sans-Serif" font-size="9.00" fill="#000000">logger.ts</text>
</a>
</g>
</g>
<!-- src/MailboxProcessor.js&#45;&gt;src/logger.ts -->
<g id="edge1" class="edge">
<title>src/MailboxProcessor.js&#45;&gt;src/logger.ts</title>
<path fill="none" stroke="#000000" stroke-width="2" stroke-opacity="0.200000" d="M278.4034,-315.9798C287.6923,-311.3402 297.6141,-304.7795 304,-296 319.7944,-274.2854 296.6267,-254.4904 317,-237 332.2521,-223.9061 386.4547,-224.0571 422.3571,-225.7502"/>
<polygon fill="#000000" fill-opacity="0.200000" stroke="#000000" stroke-width="2" stroke-opacity="0.200000" points="422.2943,-227.8497 428.3933,-226.0573 422.5078,-223.6551 422.2943,-227.8497"/>
</g>
<!-- src/options.ts -->
<g id="node13" class="node">
<title>src/options.ts</title>
<g id="a_node13"><a xlink:href="src/options.ts" xlink:title="options.ts">
<path fill="#ddfeff" stroke="#000000" d="M383,-273C383,-273 339,-273 339,-273 336,-273 333,-270 333,-267 333,-267 333,-261 333,-261 333,-258 336,-255 339,-255 339,-255 383,-255 383,-255 386,-255 389,-258 389,-261 389,-261 389,-267 389,-267 389,-270 386,-273 383,-273"/>
<text text-anchor="middle" x="361" y="-261.8" font-family="Helvetica,sans-Serif" font-size="9.00" fill="#000000">options.ts</text>
</a>
</g>
</g>
<!-- src/MailboxProcessor.js&#45;&gt;src/options.ts -->
<g id="edge3" class="edge">
<title>src/MailboxProcessor.js&#45;&gt;src/options.ts</title>
<path fill="none" stroke="#000000" stroke-width="2" stroke-opacity="0.200000" d="M290.2621,-315.9077C295.2527,-313.57 300.0248,-310.6476 304,-307 314.1093,-297.7238 306.7974,-288.1736 317,-279 319.9144,-276.3795 323.3065,-274.2135 326.8901,-272.4237"/>
<polygon fill="#000000" fill-opacity="0.200000" stroke="#000000" stroke-width="2" stroke-opacity="0.200000" points="327.9823,-274.2382 332.638,-269.9098 326.2992,-270.3901 327.9823,-274.2382"/>
</g>
<!-- src/process.ts -->
<g id="node14" class="node">
<title>src/process.ts</title>
<g id="a_node14"><a xlink:href="src/process.ts" xlink:title="process.ts">
<path fill="#ddfeff" stroke="#000000" d="M384,-303C384,-303 338,-303 338,-303 335,-303 332,-300 332,-297 332,-297 332,-291 332,-291 332,-288 335,-285 338,-285 338,-285 384,-285 384,-285 387,-285 390,-288 390,-291 390,-291 390,-297 390,-297 390,-300 387,-303 384,-303"/>
<text text-anchor="middle" x="361" y="-291.8" font-family="Helvetica,sans-Serif" font-size="9.00" fill="#000000">process.ts</text>
</a>
</g>
</g>
<!-- src/MailboxProcessor.js&#45;&gt;src/process.ts -->
<g id="edge4" class="edge">
<title>src/MailboxProcessor.js&#45;&gt;src/process.ts</title>
<path fill="none" stroke="#000000" stroke-width="2" stroke-opacity="0.200000" d="M285.5905,-315.9502C298.2621,-312.2617 312.9714,-307.9802 326.0164,-304.183"/>
<polygon fill="#000000" fill-opacity="0.200000" stroke="#000000" stroke-width="2" stroke-opacity="0.200000" points="326.7057,-306.1696 331.8797,-302.4763 325.5319,-302.137 326.7057,-306.1696"/>
</g>
<!-- src/SandboxStatus.ts -->
<g id="node15" class="node">
<title>src/SandboxStatus.ts</title>
<g id="a_node15"><a xlink:href="src/SandboxStatus.ts" xlink:title="SandboxStatus.ts">
<path fill="#ddfeff" stroke="#000000" d="M399,-333C399,-333 323,-333 323,-333 320,-333 317,-330 317,-327 317,-327 317,-321 317,-321 317,-318 320,-315 323,-315 323,-315 399,-315 399,-315 402,-315 405,-318 405,-321 405,-321 405,-327 405,-327 405,-330 402,-333 399,-333"/>
<text text-anchor="middle" x="361" y="-321.8" font-family="Helvetica,sans-Serif" font-size="9.00" fill="#000000">SandboxStatus.ts</text>
</a>
</g>
</g>
<!-- src/MailboxProcessor.js&#45;&gt;src/SandboxStatus.ts -->
<g id="edge5" class="edge">
<title>src/MailboxProcessor.js&#45;&gt;src/SandboxStatus.ts</title>
<path fill="none" stroke="#000000" stroke-width="2" stroke-opacity="0.200000" d="M304.0086,-324.5351C306.1271,-324.5152 308.2535,-324.4953 310.3743,-324.4754"/>
<polygon fill="#000000" fill-opacity="0.200000" stroke="#000000" stroke-width="2" stroke-opacity="0.200000" points="310.7267,-326.5722 316.7067,-324.4159 310.6872,-322.3724 310.7267,-326.5722"/>
</g>
<!-- src/Thread.ts -->
<g id="node16" class="node">
<title>src/Thread.ts</title>
<g id="a_node16"><a xlink:href="src/Thread.ts" xlink:title="Thread.ts">
<path fill="#ddfeff" stroke="#000000" d="M382.5,-377C382.5,-377 339.5,-377 339.5,-377 336.5,-377 333.5,-374 333.5,-371 333.5,-371 333.5,-365 333.5,-365 333.5,-362 336.5,-359 339.5,-359 339.5,-359 382.5,-359 382.5,-359 385.5,-359 388.5,-362 388.5,-365 388.5,-365 388.5,-371 388.5,-371 388.5,-374 385.5,-377 382.5,-377"/>
<text text-anchor="middle" x="361" y="-365.8" font-family="Helvetica,sans-Serif" font-size="9.00" fill="#000000">Thread.ts</text>
</a>
</g>
</g>
<!-- src/MailboxProcessor.js&#45;&gt;src/Thread.ts -->
<g id="edge6" class="edge">
<title>src/MailboxProcessor.js&#45;&gt;src/Thread.ts</title>
<path fill="none" stroke="#000000" stroke-width="2" stroke-opacity="0.200000" d="M276.8259,-334.0142C293.1562,-340.6077 315.4246,-349.5987 332.9553,-356.6768"/>
<polygon fill="#000000" fill-opacity="0.200000" stroke="#000000" stroke-width="2" stroke-opacity="0.200000" points="332.3536,-358.6985 338.7035,-358.9977 333.9261,-354.804 332.3536,-358.6985"/>
</g>
<!-- src/Thread.ts&#45;&gt;src/Lval.ts -->
<g id="edge22" class="edge">
<title>src/Thread.ts&#45;&gt;src/Lval.ts</title>
<path fill="none" stroke="#000000" stroke-width="2" stroke-opacity="0.200000" d="M388.5873,-368.8758C399.1596,-369.2114 411.3303,-369.5978 422.3689,-369.9482"/>
<polygon fill="#000000" fill-opacity="0.200000" stroke="#000000" stroke-width="2" stroke-opacity="0.200000" points="422.304,-372.0471 428.3677,-370.1387 422.4374,-367.8492 422.304,-372.0471"/>
</g>
<!-- src/Thread.ts&#45;&gt;src/logger.ts -->
<g id="edge21" class="edge">
<title>src/Thread.ts&#45;&gt;src/logger.ts</title>
<path fill="none" stroke="#000000" stroke-width="2" stroke-opacity="0.200000" d="M388.6191,-360.5834C394.5719,-357.9882 400.4385,-354.5427 405,-350 435.2681,-319.857 448.229,-268.9535 453.0411,-243.4853"/>
<polygon fill="#000000" fill-opacity="0.200000" stroke="#000000" stroke-width="2" stroke-opacity="0.200000" points="455.1581,-243.5752 454.1425,-237.2999 451.0231,-242.8389 455.1581,-243.5752"/>
</g>
<!-- src/ThreadError.ts -->
<g id="node20" class="node">
<title>src/ThreadError.ts</title>
<g id="a_node20"><a xlink:href="src/ThreadError.ts" xlink:title="ThreadError.ts">
<path fill="#ddfeff" stroke="#000000" d="M487,-413C487,-413 424,-413 424,-413 421,-413 418,-410 418,-407 418,-407 418,-401 418,-401 418,-398 421,-395 424,-395 424,-395 487,-395 487,-395 490,-395 493,-398 493,-401 493,-401 493,-407 493,-407 493,-410 490,-413 487,-413"/>
<text text-anchor="middle" x="455.5" y="-401.8" font-family="Helvetica,sans-Serif" font-size="9.00" fill="#000000">ThreadError.ts</text>
</a>
</g>
</g>
<!-- src/Thread.ts&#45;&gt;src/ThreadError.ts -->
<g id="edge23" class="edge">
<title>src/Thread.ts&#45;&gt;src/ThreadError.ts</title>
<path fill="none" stroke="#000000" stroke-width="2" stroke-opacity="0.200000" d="M384.8463,-377.0843C397.2692,-381.8168 412.5797,-387.6494 425.7687,-392.6738"/>
<polygon fill="#000000" fill-opacity="0.200000" stroke="#000000" stroke-width="2" stroke-opacity="0.200000" points="425.3067,-394.745 431.6613,-394.9186 426.802,-390.8201 425.3067,-394.745"/>
</g>
<!-- src/NodeManager.ts -->
<g id="node17" class="node">
<title>src/NodeManager.ts</title>
<g id="a_node17"><a xlink:href="src/NodeManager.ts" xlink:title="NodeManager.ts">
<path fill="#ddfeff" stroke="#000000" d="M291,-478C291,-478 218,-478 218,-478 215,-478 212,-475 212,-472 212,-472 212,-466 212,-466 212,-463 215,-460 218,-460 218,-460 291,-460 291,-460 294,-460 297,-463 297,-466 297,-466 297,-472 297,-472 297,-475 294,-478 291,-478"/>
<text text-anchor="middle" x="254.5" y="-466.8" font-family="Helvetica,sans-Serif" font-size="9.00" fill="#000000">NodeManager.ts</text>
</a>
</g>
</g>
<!-- src/RtClosure.ts -->
<g id="node18" class="node">
<title>src/RtClosure.ts</title>
<g id="a_node18"><a xlink:href="src/RtClosure.ts" xlink:title="RtClosure.ts">
<path fill="#ddfeff" stroke="#000000" d="M282,-216C282,-216 227,-216 227,-216 224,-216 221,-213 221,-210 221,-210 221,-204 221,-204 221,-201 224,-198 227,-198 227,-198 282,-198 282,-198 285,-198 288,-201 288,-204 288,-204 288,-210 288,-210 288,-213 285,-216 282,-216"/>
<text text-anchor="middle" x="254.5" y="-204.8" font-family="Helvetica,sans-Serif" font-size="9.00" fill="#000000">RtClosure.ts</text>
</a>
</g>
</g>
<!-- src/Scheduler.ts -->
<g id="node19" class="node">
<title>src/Scheduler.ts</title>
<g id="a_node19"><a xlink:href="src/Scheduler.ts" xlink:title="Scheduler.ts">
<path fill="#ddfeff" stroke="#000000" d="M282.5,-392C282.5,-392 226.5,-392 226.5,-392 223.5,-392 220.5,-389 220.5,-386 220.5,-386 220.5,-380 220.5,-380 220.5,-377 223.5,-374 226.5,-374 226.5,-374 282.5,-374 282.5,-374 285.5,-374 288.5,-377 288.5,-380 288.5,-380 288.5,-386 288.5,-386 288.5,-389 285.5,-392 282.5,-392"/>
<text text-anchor="middle" x="254.5" y="-380.8" font-family="Helvetica,sans-Serif" font-size="9.00" fill="#000000">Scheduler.ts</text>
</a>
</g>
</g>
<!-- src/Scheduler.ts&#45;&gt;src/Authority.ts -->
<g id="edge7" class="edge">
<title>src/Scheduler.ts&#45;&gt;src/Authority.ts</title>
<path fill="none" stroke="#000000" stroke-width="2" stroke-opacity="0.200000" d="M273.6584,-392.2098C283.6572,-397.7436 295.5354,-405.5468 304,-415 312.6183,-424.6249 307.2688,-432.502 317,-441 319.2378,-442.9542 321.7419,-444.6566 324.3893,-446.1391"/>
<polygon fill="#000000" fill-opacity="0.200000" stroke="#000000" stroke-width="2" stroke-opacity="0.200000" points="323.6739,-448.1271 329.9856,-448.8837 325.5233,-444.3562 323.6739,-448.1271"/>
</g>
<!-- src/Scheduler.ts&#45;&gt;src/BaseFunction.ts -->
<g id="edge8" class="edge">
<title>src/Scheduler.ts&#45;&gt;src/BaseFunction.ts</title>
<path fill="none" stroke="#000000" stroke-width="2" stroke-opacity="0.200000" d="M267.6726,-392.1319C278.8397,-400.5162 294.5112,-413.9022 304,-429 314.3978,-445.5443 303.3803,-456.9882 317,-471 317.8438,-471.8681 318.7397,-472.6859 319.6789,-473.4564"/>
<polygon fill="#000000" fill-opacity="0.200000" stroke="#000000" stroke-width="2" stroke-opacity="0.200000" points="318.5642,-475.2389 324.6926,-476.9282 320.9552,-471.7859 318.5642,-475.2389"/>
</g>
<!-- src/Scheduler.ts&#45;&gt;src/Lval.ts -->
<g id="edge10" class="edge">
<title>src/Scheduler.ts&#45;&gt;src/Lval.ts</title>
<path fill="none" stroke="#000000" stroke-width="2" stroke-opacity="0.200000" d="M288.7021,-385.2595C319.2924,-386.7439 365.2951,-387.6526 405,-383 410.6526,-382.3376 416.5898,-381.2717 422.3271,-380.0417"/>
<polygon fill="#000000" fill-opacity="0.200000" stroke="#000000" stroke-width="2" stroke-opacity="0.200000" points="423.0637,-382.0281 428.4512,-378.6539 422.1354,-377.9319 423.0637,-382.0281"/>
</g>
<!-- src/Scheduler.ts&#45;&gt;src/logger.ts -->
<g id="edge9" class="edge">
<title>src/Scheduler.ts&#45;&gt;src/logger.ts</title>
<path fill="none" stroke="#000000" stroke-width="2" stroke-opacity="0.200000" d="M273.1212,-373.9829C291.1175,-365.2803 315.8367,-353.3632 317,-353 354.8031,-341.1965 373.4919,-362.9924 405,-339 436.2338,-315.2165 448.7155,-267.6501 453.2236,-243.2326"/>
<polygon fill="#000000" fill-opacity="0.200000" stroke="#000000" stroke-width="2" stroke-opacity="0.200000" points="455.3008,-243.5439 454.2488,-237.2747 451.1616,-242.8316 455.3008,-243.5439"/>
</g>
<!-- src/Scheduler.ts&#45;&gt;src/options.ts -->
<g id="edge11" class="edge">
<title>src/Scheduler.ts&#45;&gt;src/options.ts</title>
<path fill="none" stroke="#000000" stroke-width="2" stroke-opacity="0.200000" d="M269.388,-373.9351C280.6454,-366.2892 295.5585,-354.3164 304,-340 318.0794,-316.1219 298.5949,-299.728 317,-279 319.8082,-275.8373 323.3106,-273.3409 327.1053,-271.3706"/>
<polygon fill="#000000" fill-opacity="0.200000" stroke="#000000" stroke-width="2" stroke-opacity="0.200000" points="328.1869,-273.1886 332.8272,-268.8438 326.4902,-269.3466 328.1869,-273.1886"/>
</g>
<!-- src/Scheduler.ts&#45;&gt;src/process.ts -->
<g id="edge12" class="edge">
<title>src/Scheduler.ts&#45;&gt;src/process.ts</title>
<path fill="none" stroke="#000000" stroke-width="2" stroke-opacity="0.200000" d="M275.2872,-373.788C285.2427,-368.4294 296.5827,-360.7865 304,-351 315.8029,-335.427 303.3803,-323.0118 317,-309 319.6579,-306.2656 322.8336,-304.0295 326.2454,-302.2011"/>
<polygon fill="#000000" fill-opacity="0.200000" stroke="#000000" stroke-width="2" stroke-opacity="0.200000" points="327.1964,-304.075 331.7606,-299.6502 325.4333,-300.263 327.1964,-304.075"/>
</g>
<!-- src/Scheduler.ts&#45;&gt;src/SandboxStatus.ts -->
<g id="edge13" class="edge">
<title>src/Scheduler.ts&#45;&gt;src/SandboxStatus.ts</title>
<path fill="none" stroke="#000000" stroke-width="2" stroke-opacity="0.200000" d="M288.7285,-374.194C294.2066,-371.7974 299.5335,-368.7816 304,-365 312.9615,-357.4126 308.1903,-349.7631 317,-342 319.5543,-339.7492 322.4278,-337.7563 325.4514,-335.9968"/>
<polygon fill="#000000" fill-opacity="0.200000" stroke="#000000" stroke-width="2" stroke-opacity="0.200000" points="326.6814,-337.7231 331.0194,-333.0763 324.7305,-334.0037 326.6814,-337.7231"/>
</g>
<!-- src/Scheduler.ts&#45;&gt;src/Thread.ts -->
<g id="edge14" class="edge">
<title>src/Scheduler.ts&#45;&gt;src/Thread.ts</title>
<path fill="none" stroke="#000000" stroke-width="2" stroke-opacity="0.200000" d="M288.7835,-378.1713C301.0039,-376.4502 314.7572,-374.5131 326.9573,-372.7947"/>
<polygon fill="#000000" fill-opacity="0.200000" stroke="#000000" stroke-width="2" stroke-opacity="0.200000" points="327.5308,-374.8348 333.1792,-371.9184 326.9449,-370.6758 327.5308,-374.8348"/>
</g>
<!-- src/Scheduler.ts&#45;&gt;src/ThreadError.ts -->
<g id="edge15" class="edge">
<title>src/Scheduler.ts&#45;&gt;src/ThreadError.ts</title>
<path fill="none" stroke="#000000" stroke-width="2" stroke-opacity="0.200000" d="M288.5969,-386.5624C322.4782,-390.1022 374.5846,-395.5462 411.5537,-399.4086"/>
<polygon fill="#000000" fill-opacity="0.200000" stroke="#000000" stroke-width="2" stroke-opacity="0.200000" points="411.6256,-401.5275 417.8114,-400.0624 412.0621,-397.3502 411.6256,-401.5275"/>
</g>
<!-- src/UnitBase.ts -->
<g id="node21" class="node">
<title>src/UnitBase.ts</title>
<g id="a_node21"><a xlink:href="src/UnitBase.ts" xlink:title="UnitBase.ts">
<path fill="#ddfeff" stroke="#000000" d="M386.5,-435C386.5,-435 335.5,-435 335.5,-435 332.5,-435 329.5,-432 329.5,-429 329.5,-429 329.5,-423 329.5,-423 329.5,-420 332.5,-417 335.5,-417 335.5,-417 386.5,-417 386.5,-417 389.5,-417 392.5,-420 392.5,-423 392.5,-423 392.5,-429 392.5,-429 392.5,-432 389.5,-435 386.5,-435"/>
<text text-anchor="middle" x="361" y="-423.8" font-family="Helvetica,sans-Serif" font-size="9.00" fill="#000000">UnitBase.ts</text>
</a>
</g>
</g>
<!-- src/Scheduler.ts&#45;&gt;src/UnitBase.ts -->
<g id="edge16" class="edge">
<title>src/Scheduler.ts&#45;&gt;src/UnitBase.ts</title>
<path fill="none" stroke="#000000" stroke-width="2" stroke-opacity="0.200000" d="M281.5007,-392.0156C288.8828,-394.6968 296.8237,-397.7836 304,-401 309.9882,-403.6839 311.0661,-405.1982 317,-408 321.7205,-410.2289 326.7944,-412.4551 331.7588,-414.544"/>
<polygon fill="#000000" fill-opacity="0.200000" stroke="#000000" stroke-width="2" stroke-opacity="0.200000" points="331.1616,-416.5696 337.5086,-416.9251 332.7686,-412.6892 331.1616,-416.5696"/>
</g>
<!-- src/StackCallItem.ts -->
<g id="node22" class="node">
<title>src/StackCallItem.ts</title>
<g id="a_node22"><a xlink:href="src/StackCallItem.ts" xlink:title="StackCallItem.ts">
<path fill="#ddfeff" stroke="#000000" d="M289.5,-522C289.5,-522 219.5,-522 219.5,-522 216.5,-522 213.5,-519 213.5,-516 213.5,-516 213.5,-510 213.5,-510 213.5,-507 216.5,-504 219.5,-504 219.5,-504 289.5,-504 289.5,-504 292.5,-504 295.5,-507 295.5,-510 295.5,-510 295.5,-516 295.5,-516 295.5,-519 292.5,-522 289.5,-522"/>
<text text-anchor="middle" x="254.5" y="-510.8" font-family="Helvetica,sans-Serif" font-size="9.00" fill="#000000">StackCallItem.ts</text>
</a>
</g>
</g>
<!-- src/StackCallItem.ts&#45;&gt;src/options.ts -->
<g id="edge17" class="edge">
<title>src/StackCallItem.ts&#45;&gt;src/options.ts</title>
<path fill="none" stroke="#000000" stroke-width="2" stroke-opacity="0.200000" d="M280.1243,-503.9277C289.2023,-499.3829 298.5152,-492.9043 304,-484 327.9402,-445.1346 289.2739,-315.2618 317,-279 319.6961,-275.4738 323.2647,-272.7704 327.2065,-270.6991"/>
<polygon fill="#000000" fill-opacity="0.200000" stroke="#000000" stroke-width="2" stroke-opacity="0.200000" points="328.1228,-272.5902 332.7659,-268.2483 326.4286,-268.747 328.1228,-272.5902"/>
</g>
<!-- src/StackItem.ts -->
<g id="node23" class="node">
<title>src/StackItem.ts</title>
<g id="a_node23"><a xlink:href="src/StackItem.ts" xlink:title="StackItem.ts">
<path fill="#ddfeff" stroke="#000000" d="M387.5,-553C387.5,-553 334.5,-553 334.5,-553 331.5,-553 328.5,-550 328.5,-547 328.5,-547 328.5,-541 328.5,-541 328.5,-538 331.5,-535 334.5,-535 334.5,-535 387.5,-535 387.5,-535 390.5,-535 393.5,-538 393.5,-541 393.5,-541 393.5,-547 393.5,-547 393.5,-550 390.5,-553 387.5,-553"/>
<text text-anchor="middle" x="361" y="-541.8" font-family="Helvetica,sans-Serif" font-size="9.00" fill="#000000">StackItem.ts</text>
</a>
</g>
</g>
<!-- src/StackCallItem.ts&#45;&gt;src/StackItem.ts -->
<g id="edge18" class="edge">
<title>src/StackCallItem.ts&#45;&gt;src/StackItem.ts</title>
<path fill="none" stroke="#000000" stroke-width="2" stroke-opacity="0.200000" d="M285.5905,-522.0498C297.6204,-525.5515 311.4867,-529.5877 324.022,-533.2365"/>
<polygon fill="#000000" fill-opacity="0.200000" stroke="#000000" stroke-width="2" stroke-opacity="0.200000" points="323.7071,-535.3319 330.055,-534.9925 324.881,-531.2993 323.7071,-535.3319"/>
</g>
<!-- src/StackGuardItem.ts -->
<g id="node24" class="node">
<title>src/StackGuardItem.ts</title>
<g id="a_node24"><a xlink:href="src/StackGuardItem.ts" xlink:title="StackGuardItem.ts">
<path fill="#ddfeff" stroke="#000000" d="M294,-552C294,-552 215,-552 215,-552 212,-552 209,-549 209,-546 209,-546 209,-540 209,-540 209,-537 212,-534 215,-534 215,-534 294,-534 294,-534 297,-534 300,-537 300,-540 300,-540 300,-546 300,-546 300,-549 297,-552 294,-552"/>
<text text-anchor="middle" x="254.5" y="-540.8" font-family="Helvetica,sans-Serif" font-size="9.00" fill="#000000">StackGuardItem.ts</text>
</a>
</g>
</g>
<!-- src/StackGuardItem.ts&#45;&gt;src/StackItem.ts -->
<g id="edge19" class="edge">
<title>src/StackGuardItem.ts&#45;&gt;src/StackItem.ts</title>
<path fill="none" stroke="#000000" stroke-width="2" stroke-opacity="0.200000" d="M300.2837,-543.4299C307.5352,-543.498 314.9752,-543.5678 322.0512,-543.6343"/>
<polygon fill="#000000" fill-opacity="0.200000" stroke="#000000" stroke-width="2" stroke-opacity="0.200000" points="322.4121,-545.7377 328.4315,-543.6942 322.4516,-541.5379 322.4121,-545.7377"/>
</g>
<!-- src/StackThread.ts -->
<g id="node25" class="node">
<title>src/StackThread.ts</title>
<g id="a_node25"><a xlink:href="src/StackThread.ts" xlink:title="StackThread.ts">
<path fill="#ddfeff" stroke="#000000" d="M175.5,-522C175.5,-522 110.5,-522 110.5,-522 107.5,-522 104.5,-519 104.5,-516 104.5,-516 104.5,-510 104.5,-510 104.5,-507 107.5,-504 110.5,-504 110.5,-504 175.5,-504 175.5,-504 178.5,-504 181.5,-507 181.5,-510 181.5,-510 181.5,-516 181.5,-516 181.5,-519 178.5,-522 175.5,-522"/>
<text text-anchor="middle" x="143" y="-510.8" font-family="Helvetica,sans-Serif" font-size="9.00" fill="#000000">StackThread.ts</text>
</a>
</g>
</g>
<!-- src/StackThread.ts&#45;&gt;src/StackCallItem.ts -->
<g id="edge20" class="edge">
<title>src/StackThread.ts&#45;&gt;src/StackCallItem.ts</title>
<path fill="none" stroke="#000000" stroke-width="2" stroke-opacity="0.200000" d="M181.6844,-513C189.8041,-513 198.4584,-513 206.8615,-513"/>
<polygon fill="#000000" fill-opacity="0.200000" stroke="#000000" stroke-width="2" stroke-opacity="0.200000" points="207.2254,-515.1001 213.2253,-513 207.2253,-510.9001 207.2254,-515.1001"/>
</g>
<!-- src/ValuesUtil.js -->
<g id="node26" class="node">
<title>src/ValuesUtil.js</title>
<g id="a_node26"><a xlink:href="src/ValuesUtil.js" xlink:title="ValuesUtil.js">
<path fill="#ffffcc" stroke="#000000" d="M282.5,-290C282.5,-290 226.5,-290 226.5,-290 223.5,-290 220.5,-287 220.5,-284 220.5,-284 220.5,-278 220.5,-278 220.5,-275 223.5,-272 226.5,-272 226.5,-272 282.5,-272 282.5,-272 285.5,-272 288.5,-275 288.5,-278 288.5,-278 288.5,-284 288.5,-284 288.5,-287 285.5,-290 282.5,-290"/>
<text text-anchor="middle" x="254.5" y="-278.8" font-family="Helvetica,sans-Serif" font-size="9.00" fill="#000000">ValuesUtil.js</text>
</a>
</g>
</g>
<!-- src/levels/lohi.ts -->
<g id="node27" class="node">
<title>src/levels/lohi.ts</title>
<g id="a_node27"><a xlink:href="src/levels/lohi.ts" xlink:title="lohi.ts">
<path fill="#ddfeff" stroke="#000000" d="M164,-570C164,-570 122,-570 122,-570 119,-570 116,-567 116,-564 116,-564 116,-558 116,-558 116,-555 119,-552 122,-552 122,-552 164,-552 164,-552 167,-552 170,-555 170,-558 170,-558 170,-564 170,-564 170,-567 167,-570 164,-570"/>
<text text-anchor="middle" x="143" y="-558.8" font-family="Helvetica,sans-Serif" font-size="9.00" fill="#000000">lohi.ts</text>
</a>
</g>
</g>
<!-- src/levels/lohi.ts&#45;&gt;src/Level.ts -->
<g id="edge24" class="edge">
<title>src/levels/lohi.ts&#45;&gt;src/Level.ts</title>
<path fill="none" stroke="#000000" stroke-width="2" stroke-opacity="0.200000" d="M170.0933,-566.9412C177.4786,-569.1788 185.2878,-572.1458 192,-576 198.8188,-579.9155 198.1756,-584.0942 205,-588 210.0365,-590.8826 215.6847,-593.2657 221.3147,-595.2178"/>
<polygon fill="#000000" fill-opacity="0.200000" stroke="#000000" stroke-width="2" stroke-opacity="0.200000" points="221.0321,-597.3328 227.3869,-597.1702 222.3177,-593.3344 221.0321,-597.3328"/>
</g>
<!-- src/levels/tagsets.ts -->
<g id="node28" class="node">
<title>src/levels/tagsets.ts</title>
<g id="a_node28"><a xlink:href="src/levels/tagsets.ts" xlink:title="tagsets.ts">
<path fill="#ddfeff" stroke="#000000" d="M164.5,-600C164.5,-600 121.5,-600 121.5,-600 118.5,-600 115.5,-597 115.5,-594 115.5,-594 115.5,-588 115.5,-588 115.5,-585 118.5,-582 121.5,-582 121.5,-582 164.5,-582 164.5,-582 167.5,-582 170.5,-585 170.5,-588 170.5,-588 170.5,-594 170.5,-594 170.5,-597 167.5,-600 164.5,-600"/>
<text text-anchor="middle" x="143" y="-588.8" font-family="Helvetica,sans-Serif" font-size="9.00" fill="#000000">tagsets.ts</text>
</a>
</g>
</g>
<!-- src/levels/tagsets.ts&#45;&gt;src/Level.ts -->
<g id="edge25" class="edge">
<title>src/levels/tagsets.ts&#45;&gt;src/Level.ts</title>
<path fill="none" stroke="#000000" stroke-width="2" stroke-opacity="0.200000" d="M170.5618,-593.9663C185.8195,-595.6084 204.8997,-597.6619 221.0117,-599.3959"/>
<polygon fill="#000000" fill-opacity="0.200000" stroke="#000000" stroke-width="2" stroke-opacity="0.200000" points="221.0649,-601.5137 227.2552,-600.0678 221.5144,-597.3378 221.0649,-601.5137"/>
</g>
<!-- src/levels/tagsets.ts&#45;&gt;src/logger.ts -->
<g id="edge26" class="edge">
<title>src/levels/tagsets.ts&#45;&gt;src/logger.ts</title>
<path fill="none" stroke="#000000" stroke-width="2" stroke-opacity="0.200000" d="M158.714,-600.0024C170.9009,-606.4405 188.4492,-614.5526 205,-618 295.7287,-636.8983 356.3203,-637.8615 405,-559 428.7439,-520.5346 410.1532,-400.5172 418,-356 425.3799,-314.132 441.4617,-266.483 449.9684,-242.8786"/>
<polygon fill="#000000" fill-opacity="0.200000" stroke="#000000" stroke-width="2" stroke-opacity="0.200000" points="451.9754,-243.5043 452.0559,-237.1479 448.0291,-242.0668 451.9754,-243.5043"/>
</g>
<!-- src/loadLibs.js -->
<g id="node29" class="node">
<title>src/loadLibs.js</title>
<g id="a_node29"><a xlink:href="src/loadLibs.js" xlink:title="loadLibs.js">
<path fill="#ffffcc" stroke="#000000" d="M279,-246C279,-246 230,-246 230,-246 227,-246 224,-243 224,-240 224,-240 224,-234 224,-234 224,-231 227,-228 230,-228 230,-228 279,-228 279,-228 282,-228 285,-231 285,-234 285,-234 285,-240 285,-240 285,-243 282,-246 279,-246"/>
<text text-anchor="middle" x="254.5" y="-234.8" font-family="Helvetica,sans-Serif" font-size="9.00" fill="#000000">loadLibs.js</text>
</a>
</g>
</g>
<!-- src/loadLibs.js&#45;&gt;fs -->
<g id="edge28" class="edge">
<title>src/loadLibs.js&#45;&gt;fs</title>
<path fill="none" stroke="#000000" stroke-dasharray="5,2" stroke-opacity="0.200000" d="M285.2359,-233.5596C292.3566,-231.3226 299.2351,-227.731 304,-222 337.4491,-181.7689 287.0746,-147.9168 317,-105 319.9493,-100.7704 323.9547,-97.3121 328.3541,-94.4967"/>
<polygon fill="#000000" fill-opacity="0.200000" stroke="#000000" stroke-opacity="0.200000" points="329.4826,-96.2708 333.66,-91.4791 327.4063,-92.6199 329.4826,-96.2708"/>
</g>
<!-- src/loadLibs.js&#45;&gt;src/logger.ts -->
<g id="edge27" class="edge">
<title>src/loadLibs.js&#45;&gt;src/logger.ts</title>
<path fill="none" stroke="#000000" stroke-width="2" stroke-opacity="0.200000" d="M285.2382,-230.0404C291.6637,-227.9466 298.2328,-225.3007 304,-222 310.8244,-218.0942 309.6768,-212.8632 317,-210 353.6844,-195.657 399.5804,-206.7646 428.2263,-216.7986"/>
<polygon fill="#000000" fill-opacity="0.200000" stroke="#000000" stroke-width="2" stroke-opacity="0.200000" points="427.7111,-218.8454 434.0677,-218.9139 429.1412,-214.8964 427.7111,-218.8454"/>
</g>
<!-- src/p2p/libp2p&#45;bundle.ts -->
<g id="node30" class="node">
<title>src/p2p/libp2p&#45;bundle.ts</title>
<g id="a_node30"><a xlink:href="src/p2p/libp2p-bundle.ts" xlink:title="libp2p&#45;bundle.ts">
<path fill="#ddfeff" stroke="#000000" d="M396.5,-146C396.5,-146 325.5,-146 325.5,-146 322.5,-146 319.5,-143 319.5,-140 319.5,-140 319.5,-134 319.5,-134 319.5,-131 322.5,-128 325.5,-128 325.5,-128 396.5,-128 396.5,-128 399.5,-128 402.5,-131 402.5,-134 402.5,-134 402.5,-140 402.5,-140 402.5,-143 399.5,-146 396.5,-146"/>
<text text-anchor="middle" x="361" y="-134.8" font-family="Helvetica,sans-Serif" font-size="9.00" fill="#000000">libp2p&#45;bundle.ts</text>
</a>
</g>
</g>
<!-- src/p2p/p2pconfig.ts -->
<g id="node31" class="node">
<title>src/p2p/p2pconfig.ts</title>
<g id="a_node31"><a xlink:href="src/p2p/p2pconfig.ts" xlink:title="p2pconfig.ts">
<path fill="#ddfeff" stroke="#000000" d="M482.5,-157C482.5,-157 428.5,-157 428.5,-157 425.5,-157 422.5,-154 422.5,-151 422.5,-151 422.5,-145 422.5,-145 422.5,-142 425.5,-139 428.5,-139 428.5,-139 482.5,-139 482.5,-139 485.5,-139 488.5,-142 488.5,-145 488.5,-145 488.5,-151 488.5,-151 488.5,-154 485.5,-157 482.5,-157"/>
<text text-anchor="middle" x="455.5" y="-145.8" font-family="Helvetica,sans-Serif" font-size="9.00" fill="#000000">p2pconfig.ts</text>
</a>
</g>
</g>
<!-- src/p2p/libp2p&#45;bundle.ts&#45;&gt;src/p2p/p2pconfig.ts -->
<g id="edge29" class="edge">
<title>src/p2p/libp2p&#45;bundle.ts&#45;&gt;src/p2p/p2pconfig.ts</title>
<path fill="none" stroke="#000000" stroke-width="2" stroke-opacity="0.200000" d="M402.7242,-141.8568C407.2112,-142.3791 411.7656,-142.9092 416.2226,-143.428"/>
<polygon fill="#000000" fill-opacity="0.200000" stroke="#000000" stroke-width="2" stroke-opacity="0.200000" points="416.0218,-145.5187 422.2244,-144.1266 416.5074,-141.3469 416.0218,-145.5187"/>
</g>
<!-- src/p2p/mkid.js -->
<g id="node32" class="node">
<title>src/p2p/mkid.js</title>
<g id="a_node32"><a xlink:href="src/p2p/mkid.js" xlink:title="mkid.js">
<path fill="#ffffcc" stroke="#000000" d="M275.5,-134C275.5,-134 233.5,-134 233.5,-134 230.5,-134 227.5,-131 227.5,-128 227.5,-128 227.5,-122 227.5,-122 227.5,-119 230.5,-116 233.5,-116 233.5,-116 275.5,-116 275.5,-116 278.5,-116 281.5,-119 281.5,-122 281.5,-122 281.5,-128 281.5,-128 281.5,-131 278.5,-134 275.5,-134"/>
<text text-anchor="middle" x="254.5" y="-122.8" font-family="Helvetica,sans-Serif" font-size="9.00" fill="#000000">mkid.js</text>
</a>
</g>
</g>
<!-- src/p2p/mkid.js&#45;&gt;fs -->
<g id="edge30" class="edge">
<title>src/p2p/mkid.js&#45;&gt;fs</title>
<path fill="none" stroke="#000000" stroke-dasharray="5,2" stroke-opacity="0.200000" d="M277.3469,-115.9899C293.3813,-109.6665 314.9465,-101.1619 332.165,-94.3716"/>
<polygon fill="#000000" fill-opacity="0.200000" stroke="#000000" stroke-opacity="0.200000" points="333.0122,-96.2949 337.8234,-92.1401 331.4713,-92.3878 333.0122,-96.2949"/>
</g>
<!-- src/p2p/p2p.js -->
<g id="node33" class="node">
<title>src/p2p/p2p.js</title>
<g id="a_node33"><a xlink:href="src/p2p/p2p.js" xlink:title="p2p.js">
<path fill="#ffffcc" stroke="#000000" d="M275.5,-164C275.5,-164 233.5,-164 233.5,-164 230.5,-164 227.5,-161 227.5,-158 227.5,-158 227.5,-152 227.5,-152 227.5,-149 230.5,-146 233.5,-146 233.5,-146 275.5,-146 275.5,-146 278.5,-146 281.5,-149 281.5,-152 281.5,-152 281.5,-158 281.5,-158 281.5,-161 278.5,-164 275.5,-164"/>
<text text-anchor="middle" x="254.5" y="-152.8" font-family="Helvetica,sans-Serif" font-size="9.00" fill="#000000">p2p.js</text>
</a>
</g>
</g>
<!-- src/p2p/p2p.js&#45;&gt;src/logger.ts -->
<g id="edge31" class="edge">
<title>src/p2p/p2p.js&#45;&gt;src/logger.ts</title>
<path fill="none" stroke="#000000" stroke-width="2" stroke-opacity="0.200000" d="M281.5304,-161.0708C312.1757,-168.4098 363.294,-182.0445 405,-200 415.3702,-204.4646 426.39,-210.4203 435.4808,-215.6909"/>
<polygon fill="#000000" fill-opacity="0.200000" stroke="#000000" stroke-width="2" stroke-opacity="0.200000" points="434.6331,-217.6288 440.8687,-218.8646 436.7647,-214.0099 434.6331,-217.6288"/>
</g>
<!-- src/p2p/p2p.js&#45;&gt;src/p2p/libp2p&#45;bundle.ts -->
<g id="edge32" class="edge">
<title>src/p2p/p2p.js&#45;&gt;src/p2p/libp2p&#45;bundle.ts</title>
<path fill="none" stroke="#000000" stroke-width="2" stroke-opacity="0.200000" d="M281.65,-150.4113C291.3217,-148.7766 302.5195,-146.884 313.3991,-145.0452"/>
<polygon fill="#000000" fill-opacity="0.200000" stroke="#000000" stroke-width="2" stroke-opacity="0.200000" points="313.8328,-147.1018 319.399,-144.0312 313.1329,-142.9605 313.8328,-147.1018"/>
</g>
<!-- src/p2p/p2p.js&#45;&gt;src/p2p/p2pconfig.ts -->
<g id="edge33" class="edge">
<title>src/p2p/p2p.js&#45;&gt;src/p2p/p2pconfig.ts</title>
<path fill="none" stroke="#000000" stroke-width="2" stroke-opacity="0.200000" d="M281.705,-154.9409C311.8607,-154.7627 361.9322,-154.133 405,-152 408.6893,-151.8173 412.5273,-151.5868 416.366,-151.3293"/>
<polygon fill="#000000" fill-opacity="0.200000" stroke="#000000" stroke-width="2" stroke-opacity="0.200000" points="416.5401,-153.4223 422.3774,-150.9051 416.2445,-149.2327 416.5401,-153.4223"/>
</g>
<!-- util -->
<g id="node34" class="node">
<title>util</title>
<path fill="#ffffcc" stroke="#c0c0c0" d="M382,-62C382,-62 340,-62 340,-62 337,-62 334,-59 334,-56 334,-56 334,-50 334,-50 334,-47 337,-44 340,-44 340,-44 382,-44 382,-44 385,-44 388,-47 388,-50 388,-50 388,-56 388,-56 388,-59 385,-62 382,-62"/>
<text text-anchor="middle" x="361" y="-50.8" font-family="Helvetica,sans-Serif" font-size="9.00" fill="#c0c0c0">util</text>
</g>
<!-- src/p2p/p2p.js&#45;&gt;util -->
<g id="edge34" class="edge">
<title>src/p2p/p2p.js&#45;&gt;util</title>
<path fill="none" stroke="#000000" stroke-dasharray="5,2" stroke-opacity="0.200000" d="M281.6192,-152.2901C289.8725,-150.1563 298.2667,-146.4376 304,-140 325.6266,-115.7168 295.7933,-92.6507 317,-68 319.9672,-64.5509 323.7613,-61.8935 327.8743,-59.8463"/>
<polygon fill="#000000" fill-opacity="0.200000" stroke="#000000" stroke-opacity="0.200000" points="328.9215,-61.6838 333.6328,-57.4159 327.2883,-57.8143 328.9215,-61.6838"/>
</g>
<!-- src/runtimeMonitored.js -->
<g id="node35" class="node">
<title>src/runtimeMonitored.js</title>
<g id="a_node35"><a xlink:href="src/runtimeMonitored.js" xlink:title="runtimeMonitored.js">
<path fill="#ffffcc" stroke="#000000" d="M186,-356C186,-356 100,-356 100,-356 97,-356 94,-353 94,-350 94,-350 94,-344 94,-344 94,-341 97,-338 100,-338 100,-338 186,-338 186,-338 189,-338 192,-341 192,-344 192,-344 192,-350 192,-350 192,-353 189,-356 186,-356"/>
<text text-anchor="middle" x="143" y="-344.8" font-family="Helvetica,sans-Serif" font-size="9.00" fill="#000000">runtimeMonitored.js</text>
</a>
</g>
</g>
<!-- src/runtimeMonitored.js&#45;&gt;assert -->
<g id="edge53" class="edge">
<title>src/runtimeMonitored.js&#45;&gt;assert</title>
<path fill="none" stroke="#000000" stroke-dasharray="5,2" stroke-opacity="0.200000" d="M146.6514,-356.0128C155.8673,-379.158 180.1752,-442.7512 192,-498 197.6137,-524.2287 190.4556,-595.463 205,-618 232.6871,-660.9021 290.823,-682.3251 327.7777,-692.0191"/>
<polygon fill="#000000" fill-opacity="0.200000" stroke="#000000" stroke-opacity="0.200000" points="327.6369,-694.1496 333.9687,-693.5856 328.6672,-690.0779 327.6369,-694.1496"/>
</g>
<!-- src/runtimeMonitored.js&#45;&gt;fs -->
<g id="edge54" class="edge">
<title>src/runtimeMonitored.js&#45;&gt;fs</title>
<path fill="none" stroke="#000000" stroke-dasharray="5,2" stroke-opacity="0.200000" d="M144.7076,-337.9293C152.7039,-295.8796 186.8214,-121.2699 205,-105 222.5562,-89.2871 287.1354,-84.7593 327.4951,-83.4783"/>
<polygon fill="#000000" fill-opacity="0.200000" stroke="#000000" stroke-opacity="0.200000" points="327.8163,-85.5701 333.7538,-83.2994 327.6962,-81.3718 327.8163,-85.5701"/>
</g>
<!-- src/runtimeMonitored.js&#45;&gt;os -->
<g id="edge55" class="edge">
<title>src/runtimeMonitored.js&#45;&gt;os</title>
<path fill="none" stroke="#000000" stroke-dasharray="5,2" stroke-opacity="0.200000" d="M143.7809,-337.7935C147.7265,-293.298 166.7993,-100.8793 205,-57 209.4132,-51.9308 215.3726,-48.2887 221.6266,-45.672"/>
<polygon fill="#000000" fill-opacity="0.200000" stroke="#000000" stroke-opacity="0.200000" points="222.5086,-47.5853 227.4169,-43.5457 221.0608,-43.6427 222.5086,-47.5853"/>
</g>
<!-- src/runtimeMonitored.js&#45;&gt;readline -->
<g id="edge56" class="edge">
<title>src/runtimeMonitored.js&#45;&gt;readline</title>
<path fill="none" stroke="#000000" stroke-dasharray="5,2" stroke-opacity="0.200000" d="M143.4996,-337.9892C146.2921,-290.789 161.4404,-72.3716 205,-24 209.4166,-19.0955 215.3775,-15.7708 221.6318,-13.523"/>
<polygon fill="#000000" fill-opacity="0.200000" stroke="#000000" stroke-opacity="0.200000" points="222.3018,-15.5141 227.4222,-11.747 221.0702,-11.4987 222.3018,-15.5141"/>
</g>
<!-- src/runtimeMonitored.js&#45;&gt;src/Authority.ts -->
<g id="edge35" class="edge">
<title>src/runtimeMonitored.js&#45;&gt;src/Authority.ts</title>
<path fill="none" stroke="#000000" stroke-width="2" stroke-opacity="0.200000" d="M149.3743,-356.4448C159.428,-370.5374 180.377,-396.8187 205,-410 244.4994,-431.145 264.0048,-408.8086 304,-429 311.0192,-432.5436 310.2437,-436.9777 317,-441 319.2624,-442.3469 321.6628,-443.5942 324.1293,-444.7452"/>
<polygon fill="#000000" fill-opacity="0.200000" stroke="#000000" stroke-width="2" stroke-opacity="0.200000" points="323.6289,-446.816 329.9704,-447.2582 325.2888,-442.9579 323.6289,-446.816"/>
</g>
<!-- src/runtimeMonitored.js&#45;&gt;src/BaseFunction.ts -->
<g id="edge36" class="edge">
<title>src/runtimeMonitored.js&#45;&gt;src/BaseFunction.ts</title>
<path fill="none" stroke="#000000" stroke-width="2" stroke-opacity="0.200000" d="M147.7144,-356.2169C156.5644,-372.5173 177.299,-406.2851 205,-423 243.434,-446.1913 268.752,-415.2045 304,-443 314.7736,-451.4957 306.7974,-461.8264 317,-471 318.024,-471.9207 319.1069,-472.7853 320.2364,-473.5972"/>
<polygon fill="#000000" fill-opacity="0.200000" stroke="#000000" stroke-width="2" stroke-opacity="0.200000" points="319.2427,-475.452 325.4485,-476.8299 321.4565,-471.8827 319.2427,-475.452"/>
</g>
<!-- src/runtimeMonitored.js&#45;&gt;src/Level.ts -->
<g id="edge37" class="edge">
<title>src/runtimeMonitored.js&#45;&gt;src/Level.ts</title>
<path fill="none" stroke="#000000" stroke-width="2" stroke-opacity="0.200000" d="M146.5347,-356.0388C155.4769,-379.2452 179.1953,-442.97 192,-498 196.5797,-517.6818 191.8279,-572.6754 205,-588 209.3022,-593.0052 215.2143,-596.3728 221.4573,-598.6305"/>
<polygon fill="#000000" fill-opacity="0.200000" stroke="#000000" stroke-width="2" stroke-opacity="0.200000" points="220.895,-600.6546 227.2471,-600.4071 222.1271,-596.6393 220.895,-600.6546"/>
</g>
<!-- src/runtimeMonitored.js&#45;&gt;src/Lval.ts -->
<g id="edge40" class="edge">
<title>src/runtimeMonitored.js&#45;&gt;src/Lval.ts</title>
<path fill="none" stroke="#000000" stroke-width="2" stroke-opacity="0.200000" d="M146.4573,-356.2131C153.9695,-374.8542 173.6672,-416.9691 205,-437 242.6144,-461.0467 270.8968,-424.0457 304,-454 320.0705,-468.5419 299.7525,-487.8755 317,-501 332.5623,-512.8421 390.3967,-514.0063 405,-501 423.7108,-484.3354 403.4535,-409.401 418,-389 419.5093,-386.8832 421.3357,-385.0058 423.3602,-383.3424"/>
<polygon fill="#000000" fill-opacity="0.200000" stroke="#000000" stroke-width="2" stroke-opacity="0.200000" points="424.6667,-384.9915 428.3873,-379.8372 422.2645,-381.5463 424.6667,-384.9915"/>
</g>
<!-- src/runtimeMonitored.js&#45;&gt;src/MailboxProcessor.js -->
<g id="edge41" class="edge">
<title>src/runtimeMonitored.js&#45;&gt;src/MailboxProcessor.js</title>
<path fill="none" stroke="#000000" stroke-width="2" stroke-opacity="0.200000" d="M188.673,-337.9883C193.3246,-337.0705 198.0729,-336.1336 202.7827,-335.2043"/>
<polygon fill="#000000" fill-opacity="0.200000" stroke="#000000" stroke-width="2" stroke-opacity="0.200000" points="203.2376,-337.2551 208.7176,-334.0333 202.4245,-333.1346 203.2376,-337.2551"/>
</g>
<!-- src/runtimeMonitored.js&#45;&gt;src/logger.ts -->
<g id="edge39" class="edge">
<title>src/runtimeMonitored.js&#45;&gt;src/logger.ts</title>
<path fill="none" stroke="#000000" stroke-width="2" stroke-opacity="0.200000" d="M147.0554,-337.8317C155.2377,-320.5279 175.4929,-283.2486 205,-266 243.364,-243.5741 268.8156,-279.1436 304,-252 315.8292,-242.8742 304.5595,-229.2731 317,-221 333.6297,-209.941 386.8722,-216.1555 422.2891,-221.8997"/>
<polygon fill="#000000" fill-opacity="0.200000" stroke="#000000" stroke-width="2" stroke-opacity="0.200000" points="421.9835,-223.9776 428.2464,-222.8885 422.6712,-219.8343 421.9835,-223.9776"/>
</g>
<!-- src/runtimeMonitored.js&#45;&gt;src/options.ts -->
<g id="edge43" class="edge">
<title>src/runtimeMonitored.js&#45;&gt;src/options.ts</title>
<path fill="none" stroke="#000000" stroke-width="2" stroke-opacity="0.200000" d="M155.0904,-337.7825C167.0839,-329.1403 186.3237,-316.591 205,-310 246.9048,-295.2114 265.6412,-318.4347 304,-296 312.2104,-291.198 309.2768,-284.5517 317,-279 320.0964,-276.7742 323.5487,-274.8591 327.12,-273.2157"/>
<polygon fill="#000000" fill-opacity="0.200000" stroke="#000000" stroke-width="2" stroke-opacity="0.200000" points="328.0649,-275.0971 332.7961,-270.8515 326.4499,-271.22 328.0649,-275.0971"/>
</g>
<!-- src/runtimeMonitored.js&#45;&gt;src/process.ts -->
<g id="edge45" class="edge">
<title>src/runtimeMonitored.js&#45;&gt;src/process.ts</title>
<path fill="none" stroke="#000000" stroke-width="2" stroke-opacity="0.200000" d="M192.0871,-350.4733C232.7145,-352.3458 286.4971,-352.1962 304,-340 316.2578,-331.4586 306.08,-319.1962 317,-309 319.5808,-306.5903 322.5645,-304.5661 325.7381,-302.8661"/>
<polygon fill="#000000" fill-opacity="0.200000" stroke="#000000" stroke-width="2" stroke-opacity="0.200000" points="327.0502,-304.5725 331.6097,-300.1428 325.283,-300.7623 327.0502,-304.5725"/>
</g>
<!-- src/runtimeMonitored.js&#45;&gt;src/SandboxStatus.ts -->
<g id="edge47" class="edge">
<title>src/runtimeMonitored.js&#45;&gt;src/SandboxStatus.ts</title>
<path fill="none" stroke="#000000" stroke-width="2" stroke-opacity="0.200000" d="M189.9026,-356.0043C222.6262,-360.413 266.9034,-362.5881 304,-351 310.7076,-348.9047 310.8227,-345.3501 317,-342 321.183,-339.7314 325.7137,-337.5717 330.2233,-335.5868"/>
<polygon fill="#000000" fill-opacity="0.200000" stroke="#000000" stroke-width="2" stroke-opacity="0.200000" points="331.1987,-337.454 335.8963,-333.1711 329.5532,-333.5897 331.1987,-337.454"/>
</g>
<!-- src/runtimeMonitored.js&#45;&gt;src/NodeManager.ts -->
<g id="edge42" class="edge">
<title>src/runtimeMonitored.js&#45;&gt;src/NodeManager.ts</title>
<path fill="none" stroke="#000000" stroke-width="2" stroke-opacity="0.200000" d="M146.058,-356.2068C153.1808,-376.2851 172.7644,-424.3411 205,-451 207.9134,-453.4094 211.1768,-455.51 214.6012,-457.3388"/>
<polygon fill="#000000" fill-opacity="0.200000" stroke="#000000" stroke-width="2" stroke-opacity="0.200000" points="213.7722,-459.2705 220.0878,-459.9941 215.6018,-455.49 213.7722,-459.2705"/>
</g>
<!-- src/runtimeMonitored.js&#45;&gt;src/RtClosure.ts -->
<g id="edge46" class="edge">
<title>src/runtimeMonitored.js&#45;&gt;src/RtClosure.ts</title>
<path fill="none" stroke="#000000" stroke-width="2" stroke-opacity="0.200000" d="M144.888,-337.913C150.1384,-314.9377 167.0917,-254.0786 205,-222 208.0857,-219.3888 211.6168,-217.2322 215.3412,-215.4509"/>
<polygon fill="#000000" fill-opacity="0.200000" stroke="#000000" stroke-width="2" stroke-opacity="0.200000" points="216.1965,-217.3693 220.9068,-213.1005 214.5625,-213.5002 216.1965,-217.3693"/>
</g>
<!-- src/runtimeMonitored.js&#45;&gt;src/Scheduler.ts -->
<g id="edge48" class="edge">
<title>src/runtimeMonitored.js&#45;&gt;src/Scheduler.ts</title>
<path fill="none" stroke="#000000" stroke-width="2" stroke-opacity="0.200000" d="M171.1362,-356.0843C186.0579,-360.9021 204.5107,-366.86 220.259,-371.9446"/>
<polygon fill="#000000" fill-opacity="0.200000" stroke="#000000" stroke-width="2" stroke-opacity="0.200000" points="220.0178,-374.0734 226.3728,-373.9186 221.3083,-370.0766 220.0178,-374.0734"/>
</g>
<!-- src/runtimeMonitored.js&#45;&gt;src/ThreadError.ts -->
<g id="edge50" class="edge">
<title>src/runtimeMonitored.js&#45;&gt;src/ThreadError.ts</title>
<path fill="none" stroke="#000000" stroke-width="2" stroke-opacity="0.200000" d="M144.1387,-356.2083C147.7753,-381.3462 161.5466,-451.4337 205,-484 240.5595,-510.6502 263.4492,-479.8245 304,-498 310.9066,-501.0956 309.8932,-506.3967 317,-509 353.7248,-522.4526 371.8889,-529.8167 405,-509 436.6193,-489.1212 448.8979,-443.2961 453.2864,-419.2935"/>
<polygon fill="#000000" fill-opacity="0.200000" stroke="#000000" stroke-width="2" stroke-opacity="0.200000" points="455.3968,-419.4077 454.3245,-413.1419 451.2553,-418.7088 455.3968,-419.4077"/>
</g>
<!-- src/runtimeMonitored.js&#45;&gt;src/UnitBase.ts -->
<g id="edge51" class="edge">
<title>src/runtimeMonitored.js&#45;&gt;src/UnitBase.ts</title>
<path fill="none" stroke="#000000" stroke-width="2" stroke-opacity="0.200000" d="M151.2209,-356.2393C162.2306,-367.9739 182.9482,-387.9077 205,-398 245.5946,-416.5787 260.0801,-406.9921 304,-415 310.1721,-416.1254 316.7128,-417.3538 323.078,-418.5687"/>
<polygon fill="#000000" fill-opacity="0.200000" stroke="#000000" stroke-width="2" stroke-opacity="0.200000" points="323.0763,-420.7066 329.3645,-419.7748 323.8677,-416.5819 323.0763,-420.7066"/>
</g>
<!-- src/runtimeMonitored.js&#45;&gt;src/ValuesUtil.js -->
<g id="edge52" class="edge">
<title>src/runtimeMonitored.js&#45;&gt;src/ValuesUtil.js</title>
<path fill="none" stroke="#000000" stroke-width="2" stroke-opacity="0.200000" d="M152.842,-337.7974C164.5295,-327.2619 184.9719,-310.0401 205,-299 209.4896,-296.5252 214.3868,-294.2711 219.2976,-292.2597"/>
<polygon fill="#000000" fill-opacity="0.200000" stroke="#000000" stroke-width="2" stroke-opacity="0.200000" points="220.2227,-294.1528 225.0453,-290.0112 218.6926,-290.2414 220.2227,-294.1528"/>
</g>
<!-- src/runtimeMonitored.js&#45;&gt;src/loadLibs.js -->
<g id="edge38" class="edge">
<title>src/runtimeMonitored.js&#45;&gt;src/loadLibs.js</title>
<path fill="none" stroke="#000000" stroke-width="2" stroke-opacity="0.200000" d="M146.8421,-337.7576C154.9228,-319.4003 175.405,-278.1249 205,-255 208.9878,-251.884 213.5648,-249.2741 218.29,-247.097"/>
<polygon fill="#000000" fill-opacity="0.200000" stroke="#000000" stroke-width="2" stroke-opacity="0.200000" points="219.1689,-249.0054 223.8785,-244.7357 217.5342,-245.1366 219.1689,-249.0054"/>
</g>
<!-- src/runtimeMonitored.js&#45;&gt;src/p2p/p2p.js -->
<g id="edge44" class="edge">
<title>src/runtimeMonitored.js&#45;&gt;src/p2p/p2p.js</title>
<path fill="none" stroke="#000000" stroke-width="2" stroke-opacity="0.200000" d="M143.2894,-337.9885C144.7321,-308.7758 153.3647,-215.8237 205,-168 209.5957,-163.7435 215.4143,-160.8455 221.4336,-158.8806"/>
<polygon fill="#000000" fill-opacity="0.200000" stroke="#000000" stroke-width="2" stroke-opacity="0.200000" points="222.2572,-160.8318 227.4821,-157.2109 221.1396,-156.7833 222.2572,-160.8318"/>
</g>
<!-- src/runtimeMonitored.js&#45;&gt;util -->
<g id="edge57" class="edge">
<title>src/runtimeMonitored.js&#45;&gt;util</title>
<path fill="none" stroke="#000000" stroke-dasharray="5,2" stroke-opacity="0.200000" d="M143.8058,-337.8592C147.7392,-295.3765 166.3221,-117.7394 205,-81 222.2684,-64.5971 287.5176,-57.5745 327.9597,-54.7465"/>
<polygon fill="#000000" fill-opacity="0.200000" stroke="#000000" stroke-opacity="0.200000" points="328.1356,-56.8395 333.982,-54.3434 327.8551,-52.6489 328.1356,-56.8395"/>
</g>
<!-- src/serialize.js -->
<g id="node36" class="node">
<title>src/serialize.js</title>
<g id="a_node36"><a xlink:href="src/serialize.js" xlink:title="serialize.js">
<path fill="#ffffcc" stroke="#000000" d="M278.5,-582C278.5,-582 230.5,-582 230.5,-582 227.5,-582 224.5,-579 224.5,-576 224.5,-576 224.5,-570 224.5,-570 224.5,-567 227.5,-564 230.5,-564 230.5,-564 278.5,-564 278.5,-564 281.5,-564 284.5,-567 284.5,-570 284.5,-570 284.5,-576 284.5,-576 284.5,-579 281.5,-582 278.5,-582"/>
<text text-anchor="middle" x="254.5" y="-570.8" font-family="Helvetica,sans-Serif" font-size="9.00" fill="#000000">serialize.js</text>
</a>
</g>
</g>
<!-- src/runtimeMonitored.js&#45;&gt;src/serialize.js -->
<g id="edge49" class="edge">
<title>src/runtimeMonitored.js&#45;&gt;src/serialize.js</title>
<path fill="none" stroke="#000000" stroke-width="2" stroke-opacity="0.200000" d="M146.3067,-356.0961C154.7136,-379.4369 177.2798,-443.4512 192,-498 199.1088,-524.3431 186.502,-537.9422 205,-558 208.7554,-562.072 213.5751,-565.0526 218.7282,-567.2312"/>
<polygon fill="#000000" fill-opacity="0.200000" stroke="#000000" stroke-width="2" stroke-opacity="0.200000" points="218.0596,-569.2225 224.4161,-569.2943 219.4918,-565.2742 218.0596,-569.2225"/>
</g>
<!-- src/serialize.js&#45;&gt;assert -->
<g id="edge58" class="edge">
<title>src/serialize.js&#45;&gt;assert</title>
<path fill="none" stroke="#000000" stroke-dasharray="5,2" stroke-opacity="0.200000" d="M284.6272,-576.3598C291.9305,-578.5841 299.0504,-582.1897 304,-588 331.9208,-620.7758 289.6457,-650.7499 317,-684 320.0284,-687.6811 324.0014,-690.462 328.3221,-692.5623"/>
<polygon fill="#000000" fill-opacity="0.200000" stroke="#000000" stroke-opacity="0.200000" points="327.5882,-694.5311 333.9358,-694.875 329.1881,-690.6478 327.5882,-694.5311"/>
</g>
<!-- src/serialize.js&#45;&gt;child_process -->
<g id="edge59" class="edge">
<title>src/serialize.js&#45;&gt;child_process</title>
<path fill="none" stroke="#000000" stroke-dasharray="5,2" stroke-opacity="0.200000" d="M284.6658,-576.631C291.8803,-578.8599 298.9468,-582.3999 304,-588 324.3209,-610.5202 296.8352,-632.3399 317,-655 317.4796,-655.539 317.9799,-656.0573 318.4988,-656.5559"/>
<polygon fill="#000000" fill-opacity="0.200000" stroke="#000000" stroke-opacity="0.200000" points="317.589,-658.5082 323.6161,-660.5291 320.1648,-655.1907 317.589,-658.5082"/>
</g>
<!-- src/troupe.ts -->
<g id="node37" class="node">
<title>src/troupe.ts</title>
<g id="a_node37"><a xlink:href="src/troupe.ts" xlink:title="troupe.ts">
<path fill="#ddfeff" stroke="#000000" d="M69.5,-356C69.5,-356 27.5,-356 27.5,-356 24.5,-356 21.5,-353 21.5,-350 21.5,-350 21.5,-344 21.5,-344 21.5,-341 24.5,-338 27.5,-338 27.5,-338 69.5,-338 69.5,-338 72.5,-338 75.5,-341 75.5,-344 75.5,-344 75.5,-350 75.5,-350 75.5,-353 72.5,-356 69.5,-356"/>
<text text-anchor="middle" x="48.5" y="-344.8" font-family="Helvetica,sans-Serif" font-size="9.00" fill="#000000">troupe.ts</text>
</a>
</g>
</g>
<!-- src/troupe.ts&#45;&gt;src/runtimeMonitored.js -->
<g id="edge60" class="edge">
<title>src/troupe.ts&#45;&gt;src/runtimeMonitored.js</title>
<path fill="none" stroke="#000000" stroke-width="2" stroke-opacity="0.200000" d="M75.5799,-347C79.4642,-347 83.5724,-347 87.767,-347"/>
<polygon fill="#000000" fill-opacity="0.200000" stroke="#000000" stroke-width="2" stroke-opacity="0.200000" points="87.9584,-349.1001 93.9584,-347 87.9584,-344.9001 87.9584,-349.1001"/>
</g>
</g>
</svg>
