<?xml version="1.0" encoding="UTF-8" standalone="no"?>
<!DOCTYPE svg PUBLIC "-//W3C//DTD SVG 1.1//EN"
 "http://www.w3.org/Graphics/SVG/1.1/DTD/svg11.dtd">
<!-- Generated by graphviz version 2.40.1 (20161225.0304)
 -->
<!-- Title: dependency&#45;cruiser output Pages: 1 -->
<svg width="757pt" height="657pt"
 viewBox="0.00 0.00 757.00 656.52" xmlns="http://www.w3.org/2000/svg" xmlns:xlink="http://www.w3.org/1999/xlink">
<g id="graph0" class="graph" transform="scale(1 1) rotate(0) translate(4 652.516)">
<title>dependency&#45;cruiser output</title>
<polygon fill="#ffffff" stroke="transparent" points="-4,4 -4,-652.516 753,-652.516 753,4 -4,4"/>
<g id="clust1" class="cluster">
<title>cluster_src</title>
<path fill="#ffffff" stroke="#000000" stroke-width="2" d="M20,-56C20,-56 729,-56 729,-56 735,-56 741,-62 741,-68 741,-68 741,-576 741,-576 741,-582 735,-588 729,-588 729,-588 20,-588 20,-588 14,-588 8,-582 8,-576 8,-576 8,-68 8,-68 8,-62 14,-56 20,-56"/>
<text text-anchor="middle" x="374.5" y="-576.8" font-family="Helvetica,sans-Serif" font-weight="bold" font-size="9.00" fill="#000000">src</text>
</g>
<g id="clust2" class="cluster">
<title>cluster_src/levels</title>
<path fill="#ffffff" stroke="#000000" stroke-width="2" d="M610,-136C610,-136 657,-136 657,-136 663,-136 669,-142 669,-148 669,-148 669,-206 669,-206 669,-212 663,-218 657,-218 657,-218 610,-218 610,-218 604,-218 598,-212 598,-206 598,-206 598,-148 598,-148 598,-142 604,-136 610,-136"/>
<text text-anchor="middle" x="633.5" y="-206.8" font-family="Helvetica,sans-Serif" font-weight="bold" font-size="9.00" fill="#000000">levels</text>
</g>
<g id="clust3" class="cluster">
<title>cluster_src/p2p</title>
<path fill="#ffffff" stroke="#000000" stroke-width="2" d="M214,-380C214,-380 474.5,-380 474.5,-380 480.5,-380 486.5,-386 486.5,-392 486.5,-392 486.5,-480 486.5,-480 486.5,-486 480.5,-492 474.5,-492 474.5,-492 214,-492 214,-492 208,-492 202,-486 202,-480 202,-480 202,-392 202,-392 202,-386 208,-380 214,-380"/>
<text text-anchor="middle" x="344.25" y="-480.8" font-family="Helvetica,sans-Serif" font-weight="bold" font-size="9.00" fill="#000000">p2p</text>
</g>
<!-- assert -->
<g id="node1" class="node">
<title>assert</title>
<path fill="#ffffcc" stroke="#c0c0c0" d="M371,-18C371,-18 329,-18 329,-18 326,-18 323,-15 323,-12 323,-12 323,-6 323,-6 323,-3 326,0 329,0 329,0 371,0 371,0 374,0 377,-3 377,-6 377,-6 377,-12 377,-12 377,-15 374,-18 371,-18"/>
<text text-anchor="middle" x="350" y="-6.8" font-family="Helvetica,sans-Serif" font-size="9.00" fill="#c0c0c0">assert</text>
</g>
<!-- fs -->
<g id="node2" class="node">
<title>fs</title>
<path fill="#ffffcc" stroke="#c0c0c0" d="M371,-614C371,-614 329,-614 329,-614 326,-614 323,-611 323,-608 323,-608 323,-602 323,-602 323,-599 326,-596 329,-596 329,-596 371,-596 371,-596 374,-596 377,-599 377,-602 377,-602 377,-608 377,-608 377,-611 374,-614 371,-614"/>
<text text-anchor="middle" x="350" y="-602.8" font-family="Helvetica,sans-Serif" font-size="9.00" fill="#c0c0c0">fs</text>
</g>
<!-- path -->
<g id="node3" class="node">
<title>path</title>
<path fill="#ffffcc" stroke="#c0c0c0" d="M371,-48C371,-48 329,-48 329,-48 326,-48 323,-45 323,-42 323,-42 323,-36 323,-36 323,-33 326,-30 329,-30 329,-30 371,-30 371,-30 374,-30 377,-33 377,-36 377,-36 377,-42 377,-42 377,-45 374,-48 371,-48"/>
<text text-anchor="middle" x="350" y="-36.8" font-family="Helvetica,sans-Serif" font-size="9.00" fill="#c0c0c0">path</text>
</g>
<!-- readline -->
<g id="node4" class="node">
<title>readline</title>
<path fill="#ffffcc" stroke="#c0c0c0" d="M264.5,-618C264.5,-618 222.5,-618 222.5,-618 219.5,-618 216.5,-615 216.5,-612 216.5,-612 216.5,-606 216.5,-606 216.5,-603 219.5,-600 222.5,-600 222.5,-600 264.5,-600 264.5,-600 267.5,-600 270.5,-603 270.5,-606 270.5,-606 270.5,-612 270.5,-612 270.5,-615 267.5,-618 264.5,-618"/>
<text text-anchor="middle" x="243.5" y="-606.8" font-family="Helvetica,sans-Serif" font-size="9.00" fill="#c0c0c0">readline</text>
</g>
<!-- src/Authority.ts -->
<g id="node5" class="node">
<title>src/Authority.ts</title>
<g id="a_node5"><a xlink:href="src/Authority.ts" xlink:title="Authority.ts">
<path fill="#ddfeff" stroke="#000000" d="M268.5,-364C268.5,-364 218.5,-364 218.5,-364 215.5,-364 212.5,-361 212.5,-358 212.5,-358 212.5,-352 212.5,-352 212.5,-349 215.5,-346 218.5,-346 218.5,-346 268.5,-346 268.5,-346 271.5,-346 274.5,-349 274.5,-352 274.5,-352 274.5,-358 274.5,-358 274.5,-361 271.5,-364 268.5,-364"/>
<text text-anchor="middle" x="243.5" y="-352.8" font-family="Helvetica,sans-Serif" font-size="9.00" fill="#000000">Authority.ts</text>
</a>
</g>
</g>
<!-- src/BaseFunction.ts -->
<g id="node6" class="node">
<title>src/BaseFunction.ts</title>
<g id="a_node6"><a xlink:href="src/BaseFunction.ts" xlink:title="BaseFunction.ts">
<path fill="#ddfeff" stroke="#000000" d="M385,-166C385,-166 315,-166 315,-166 312,-166 309,-163 309,-160 309,-160 309,-154 309,-154 309,-151 312,-148 315,-148 315,-148 385,-148 385,-148 388,-148 391,-151 391,-154 391,-154 391,-160 391,-160 391,-163 388,-166 385,-166"/>
<text text-anchor="middle" x="350" y="-154.8" font-family="Helvetica,sans-Serif" font-size="9.00" fill="#000000">BaseFunction.ts</text>
</a>
</g>
</g>
<!-- src/BaseKont.ts -->
<g id="node7" class="node">
<title>src/BaseKont.ts</title>
<g id="a_node7"><a xlink:href="src/BaseKont.ts" xlink:title="BaseKont.ts">
<path fill="#ddfeff" stroke="#000000" d="M376.5,-342C376.5,-342 323.5,-342 323.5,-342 320.5,-342 317.5,-339 317.5,-336 317.5,-336 317.5,-330 317.5,-330 317.5,-327 320.5,-324 323.5,-324 323.5,-324 376.5,-324 376.5,-324 379.5,-324 382.5,-327 382.5,-330 382.5,-330 382.5,-336 382.5,-336 382.5,-339 379.5,-342 376.5,-342"/>
<text text-anchor="middle" x="350" y="-330.8" font-family="Helvetica,sans-Serif" font-size="9.00" fill="#000000">BaseKont.ts</text>
</a>
</g>
</g>
<!-- src/Level.ts -->
<g id="node8" class="node">
<title>src/Level.ts</title>
<g id="a_node8"><a xlink:href="src/Level.ts" xlink:title="Level.ts">
<path fill="#ddfeff" stroke="#000000" d="M727,-162C727,-162 685,-162 685,-162 682,-162 679,-159 679,-156 679,-156 679,-150 679,-150 679,-147 682,-144 685,-144 685,-144 727,-144 727,-144 730,-144 733,-147 733,-150 733,-150 733,-156 733,-156 733,-159 730,-162 727,-162"/>
<text text-anchor="middle" x="706" y="-150.8" font-family="Helvetica,sans-Serif" font-size="9.00" fill="#000000">Level.ts</text>
</a>
</g>
</g>
<!-- src/Lval.ts -->
<g id="node9" class="node">
<title>src/Lval.ts</title>
<g id="a_node9"><a xlink:href="src/Lval.ts" xlink:title="Lval.ts">
<path fill="#ddfeff" stroke="#000000" d="M466.5,-182C466.5,-182 424.5,-182 424.5,-182 421.5,-182 418.5,-179 418.5,-176 418.5,-176 418.5,-170 418.5,-170 418.5,-167 421.5,-164 424.5,-164 424.5,-164 466.5,-164 466.5,-164 469.5,-164 472.5,-167 472.5,-170 472.5,-170 472.5,-176 472.5,-176 472.5,-179 469.5,-182 466.5,-182"/>
<text text-anchor="middle" x="445.5" y="-170.8" font-family="Helvetica,sans-Serif" font-size="9.00" fill="#000000">Lval.ts</text>
</a>
</g>
</g>
<!-- src/options.ts -->
<g id="node10" class="node">
<title>src/options.ts</title>
<g id="a_node10"><a xlink:href="src/options.ts" xlink:title="options.ts">
<path fill="#ddfeff" stroke="#000000" d="M564.5,-192C564.5,-192 520.5,-192 520.5,-192 517.5,-192 514.5,-189 514.5,-186 514.5,-186 514.5,-180 514.5,-180 514.5,-177 517.5,-174 520.5,-174 520.5,-174 564.5,-174 564.5,-174 567.5,-174 570.5,-177 570.5,-180 570.5,-180 570.5,-186 570.5,-186 570.5,-189 567.5,-192 564.5,-192"/>
<text text-anchor="middle" x="542.5" y="-180.8" font-family="Helvetica,sans-Serif" font-size="9.00" fill="#000000">options.ts</text>
</a>
</g>
</g>
<!-- src/Lval.ts&#45;&gt;src/options.ts -->
<g id="edge1" class="edge">
<title>src/Lval.ts&#45;&gt;src/options.ts</title>
<path fill="none" stroke="#000000" stroke-width="2" stroke-opacity="0.200000" d="M472.5199,-175.7856C483.5948,-176.9273 496.5423,-178.2621 508.2683,-179.471"/>
<polygon fill="#000000" fill-opacity="0.200000" stroke="#000000" stroke-width="2" stroke-opacity="0.200000" points="508.0888,-181.5635 514.2725,-180.09 508.5195,-177.3856 508.0888,-181.5635"/>
</g>
<!-- src/levels/tagsets.ts -->
<g id="node27" class="node">
<title>src/levels/tagsets.ts</title>
<g id="a_node27"><a xlink:href="src/levels/tagsets.ts" xlink:title="tagsets.ts">
<path fill="#ddfeff" stroke="#000000" d="M655,-192C655,-192 612,-192 612,-192 609,-192 606,-189 606,-186 606,-186 606,-180 606,-180 606,-177 609,-174 612,-174 612,-174 655,-174 655,-174 658,-174 661,-177 661,-180 661,-180 661,-186 661,-186 661,-189 658,-192 655,-192"/>
<text text-anchor="middle" x="633.5" y="-180.8" font-family="Helvetica,sans-Serif" font-size="9.00" fill="#000000">tagsets.ts</text>
</a>
</g>
</g>
<!-- src/options.ts&#45;&gt;src/levels/tagsets.ts -->
<g id="edge29" class="edge">
<title>src/options.ts&#45;&gt;src/levels/tagsets.ts</title>
<path fill="none" stroke="#000000" stroke-width="2" stroke-opacity="0.200000" d="M570.7941,-183C579.9532,-183 590.2031,-183 599.7191,-183"/>
<polygon fill="#000000" fill-opacity="0.200000" stroke="#000000" stroke-width="2" stroke-opacity="0.200000" points="599.8477,-185.1001 605.8476,-183 599.8476,-180.9001 599.8477,-185.1001"/>
</g>
<!-- src/MailboxProcessor.ts -->
<g id="node11" class="node">
<title>src/MailboxProcessor.ts</title>
<g id="a_node11"><a xlink:href="src/MailboxProcessor.ts" xlink:title="MailboxProcessor.ts">
<path fill="#ddfeff" stroke="#000000" d="M287,-144C287,-144 200,-144 200,-144 197,-144 194,-141 194,-138 194,-138 194,-132 194,-132 194,-129 197,-126 200,-126 200,-126 287,-126 287,-126 290,-126 293,-129 293,-132 293,-132 293,-138 293,-138 293,-141 290,-144 287,-144"/>
<text text-anchor="middle" x="243.5" y="-132.8" font-family="Helvetica,sans-Serif" font-size="9.00" fill="#000000">MailboxProcessor.ts</text>
</a>
</g>
</g>
<!-- src/MailboxProcessor.ts&#45;&gt;src/Lval.ts -->
<g id="edge3" class="edge">
<title>src/MailboxProcessor.ts&#45;&gt;src/Lval.ts</title>
<path fill="none" stroke="#000000" stroke-width="2" stroke-opacity="0.200000" d="M285.3264,-125.9708C316.2543,-121.1609 358.9117,-118.5062 394,-131 409.6919,-136.5874 424.0644,-149.231 433.6147,-159.1947"/>
<polygon fill="#000000" fill-opacity="0.200000" stroke="#000000" stroke-width="2" stroke-opacity="0.200000" points="432.2845,-160.8493 437.9003,-163.8281 435.3678,-157.9974 432.2845,-160.8493"/>
</g>
<!-- src/MailboxProcessor.ts&#45;&gt;src/options.ts -->
<g id="edge4" class="edge">
<title>src/MailboxProcessor.ts&#45;&gt;src/options.ts</title>
<path fill="none" stroke="#000000" stroke-width="2" stroke-opacity="0.200000" d="M270.5586,-125.9556C281.4392,-122.764 294.1853,-119.5781 306,-118 344.7668,-112.8218 355.7005,-110.0737 394,-118 442.5724,-128.0523 494.6519,-155.0731 522.386,-170.9327"/>
<polygon fill="#000000" fill-opacity="0.200000" stroke="#000000" stroke-width="2" stroke-opacity="0.200000" points="521.3546,-172.7621 527.6,-173.9475 523.457,-169.1261 521.3546,-172.7621"/>
</g>
<!-- src/logger.ts -->
<g id="node12" class="node">
<title>src/logger.ts</title>
<g id="a_node12"><a xlink:href="src/logger.ts" xlink:title="logger.ts">
<path fill="#ddfeff" stroke="#000000" d="M727,-320C727,-320 685,-320 685,-320 682,-320 679,-317 679,-314 679,-314 679,-308 679,-308 679,-305 682,-302 685,-302 685,-302 727,-302 727,-302 730,-302 733,-305 733,-308 733,-308 733,-314 733,-314 733,-317 730,-320 727,-320"/>
<text text-anchor="middle" x="706" y="-308.8" font-family="Helvetica,sans-Serif" font-size="9.00" fill="#000000">logger.ts</text>
</a>
</g>
</g>
<!-- src/MailboxProcessor.ts&#45;&gt;src/logger.ts -->
<g id="edge2" class="edge">
<title>src/MailboxProcessor.ts&#45;&gt;src/logger.ts</title>
<path fill="none" stroke="#000000" stroke-width="2" stroke-opacity="0.200000" d="M293.0625,-134.1412C334.0659,-133.9441 386.7263,-135.0828 394,-142 415.6795,-162.617 385.8284,-254.8618 407,-276 417.3472,-286.3309 654.6134,-298.3888 669,-301 670.1785,-301.2139 671.3742,-301.4472 672.5788,-301.696"/>
<polygon fill="#000000" fill-opacity="0.200000" stroke="#000000" stroke-width="2" stroke-opacity="0.200000" points="672.3245,-303.791 678.6384,-303.0525 673.2421,-299.6924 672.3245,-303.791"/>
</g>
<!-- src/SandboxStatus.ts -->
<g id="node13" class="node">
<title>src/SandboxStatus.ts</title>
<g id="a_node13"><a xlink:href="src/SandboxStatus.ts" xlink:title="SandboxStatus.ts">
<path fill="#ddfeff" stroke="#000000" d="M388,-298C388,-298 312,-298 312,-298 309,-298 306,-295 306,-292 306,-292 306,-286 306,-286 306,-283 309,-280 312,-280 312,-280 388,-280 388,-280 391,-280 394,-283 394,-286 394,-286 394,-292 394,-292 394,-295 391,-298 388,-298"/>
<text text-anchor="middle" x="350" y="-286.8" font-family="Helvetica,sans-Serif" font-size="9.00" fill="#000000">SandboxStatus.ts</text>
</a>
</g>
</g>
<!-- src/MailboxProcessor.ts&#45;&gt;src/SandboxStatus.ts -->
<g id="edge5" class="edge">
<title>src/MailboxProcessor.ts&#45;&gt;src/SandboxStatus.ts</title>
<path fill="none" stroke="#000000" stroke-width="2" stroke-opacity="0.200000" d="M254.4465,-144.3018C265.9375,-154.7094 283.612,-172.6639 293,-192 306.4389,-219.6796 288.92,-234.4063 306,-260 310.5325,-266.7918 317.2527,-272.3727 324.0841,-276.7616"/>
<polygon fill="#000000" fill-opacity="0.200000" stroke="#000000" stroke-width="2" stroke-opacity="0.200000" points="323.0696,-278.6018 329.2955,-279.8857 325.2291,-274.9995 323.0696,-278.6018"/>
</g>
<!-- src/NodeManager.ts -->
<g id="node14" class="node">
<title>src/NodeManager.ts</title>
<g id="a_node14"><a xlink:href="src/NodeManager.ts" xlink:title="NodeManager.ts">
<path fill="#ddfeff" stroke="#000000" d="M280,-216C280,-216 207,-216 207,-216 204,-216 201,-213 201,-210 201,-210 201,-204 201,-204 201,-201 204,-198 207,-198 207,-198 280,-198 280,-198 283,-198 286,-201 286,-204 286,-204 286,-210 286,-210 286,-213 283,-216 280,-216"/>
<text text-anchor="middle" x="243.5" y="-204.8" font-family="Helvetica,sans-Serif" font-size="9.00" fill="#000000">NodeManager.ts</text>
</a>
</g>
</g>
<!-- src/RtClosure.ts -->
<g id="node15" class="node">
<title>src/RtClosure.ts</title>
<g id="a_node15"><a xlink:href="src/RtClosure.ts" xlink:title="RtClosure.ts">
<path fill="#ddfeff" stroke="#000000" d="M271,-306C271,-306 216,-306 216,-306 213,-306 210,-303 210,-300 210,-300 210,-294 210,-294 210,-291 213,-288 216,-288 216,-288 271,-288 271,-288 274,-288 277,-291 277,-294 277,-294 277,-300 277,-300 277,-303 274,-306 271,-306"/>
<text text-anchor="middle" x="243.5" y="-294.8" font-family="Helvetica,sans-Serif" font-size="9.00" fill="#000000">RtClosure.ts</text>
</a>
</g>
</g>
<!-- src/Scheduler.ts -->
<g id="node16" class="node">
<title>src/Scheduler.ts</title>
<g id="a_node16"><a xlink:href="src/Scheduler.ts" xlink:title="Scheduler.ts">
<path fill="#ddfeff" stroke="#000000" d="M271.5,-276C271.5,-276 215.5,-276 215.5,-276 212.5,-276 209.5,-273 209.5,-270 209.5,-270 209.5,-264 209.5,-264 209.5,-261 212.5,-258 215.5,-258 215.5,-258 271.5,-258 271.5,-258 274.5,-258 277.5,-261 277.5,-264 277.5,-264 277.5,-270 277.5,-270 277.5,-273 274.5,-276 271.5,-276"/>
<text text-anchor="middle" x="243.5" y="-264.8" font-family="Helvetica,sans-Serif" font-size="9.00" fill="#000000">Scheduler.ts</text>
</a>
</g>
</g>
<!-- src/Scheduler.ts&#45;&gt;src/BaseFunction.ts -->
<g id="edge6" class="edge">
<title>src/Scheduler.ts&#45;&gt;src/BaseFunction.ts</title>
<path fill="none" stroke="#000000" stroke-width="2" stroke-opacity="0.200000" d="M277.6192,-262.1459C283.4433,-259.902 288.9199,-256.663 293,-252 316.7205,-224.8907 282.7481,-199.5124 306,-172 306.6186,-171.268 307.2745,-170.5717 307.9629,-169.9092"/>
<polygon fill="#000000" fill-opacity="0.200000" stroke="#000000" stroke-width="2" stroke-opacity="0.200000" points="309.5053,-171.3682 312.9272,-166.0109 306.9113,-168.065 309.5053,-171.3682"/>
</g>
<!-- src/Scheduler.ts&#45;&gt;src/BaseKont.ts -->
<g id="edge7" class="edge">
<title>src/Scheduler.ts&#45;&gt;src/BaseKont.ts</title>
<path fill="none" stroke="#000000" stroke-width="2" stroke-opacity="0.200000" d="M277.626,-272.884C283.2424,-275.0395 288.643,-277.9825 293,-282 304.589,-292.6859 294.9263,-303.7809 306,-315 308.1343,-317.1624 310.5647,-319.075 313.1617,-320.7651"/>
<polygon fill="#000000" fill-opacity="0.200000" stroke="#000000" stroke-width="2" stroke-opacity="0.200000" points="312.4354,-322.7692 318.6854,-323.9303 314.5236,-319.1251 312.4354,-322.7692"/>
</g>
<!-- src/Scheduler.ts&#45;&gt;src/Lval.ts -->
<g id="edge9" class="edge">
<title>src/Scheduler.ts&#45;&gt;src/Lval.ts</title>
<path fill="none" stroke="#000000" stroke-width="2" stroke-opacity="0.200000" d="M277.626,-261.116C283.2424,-258.9605 288.643,-256.0175 293,-252 304.589,-241.3141 293.8743,-229.0728 306,-219 336.6412,-193.5465 358.0717,-219.2025 394,-202 400.8265,-198.7315 400.6271,-195.083 407,-191 410.4228,-188.807 414.1556,-186.7243 417.9062,-184.8059"/>
<polygon fill="#000000" fill-opacity="0.200000" stroke="#000000" stroke-width="2" stroke-opacity="0.200000" points="418.9194,-186.648 423.3803,-182.1191 417.0688,-182.8777 418.9194,-186.648"/>
</g>
<!-- src/Scheduler.ts&#45;&gt;src/options.ts -->
<g id="edge10" class="edge">
<title>src/Scheduler.ts&#45;&gt;src/options.ts</title>
<path fill="none" stroke="#000000" stroke-width="2" stroke-opacity="0.200000" d="M277.638,-260.3331C283.1262,-258.2613 288.48,-255.5492 293,-252 301.9326,-244.986 296.6811,-236.492 306,-230 338.6177,-207.277 359.1357,-233.0979 394,-214 401.447,-209.9207 399.4436,-203.8728 407,-200 415.8257,-195.4766 470.9983,-189.604 508.1634,-186.0782"/>
<polygon fill="#000000" fill-opacity="0.200000" stroke="#000000" stroke-width="2" stroke-opacity="0.200000" points="508.6429,-188.1425 514.4202,-185.4905 508.2501,-183.9609 508.6429,-188.1425"/>
</g>
<!-- src/Scheduler.ts&#45;&gt;src/logger.ts -->
<g id="edge8" class="edge">
<title>src/Scheduler.ts&#45;&gt;src/logger.ts</title>
<path fill="none" stroke="#000000" stroke-width="2" stroke-opacity="0.200000" d="M277.638,-273.6669C283.1262,-275.7387 288.48,-278.4508 293,-282 301.9326,-289.014 296.2799,-298.1257 306,-304 332.5646,-320.0543 414.461,-311 445.5,-311 445.5,-311 445.5,-311 542.5,-311 587.4731,-311 639.4047,-311 672.4554,-311"/>
<polygon fill="#000000" fill-opacity="0.200000" stroke="#000000" stroke-width="2" stroke-opacity="0.200000" points="672.8062,-313.1001 678.8062,-311 672.8061,-308.9001 672.8062,-313.1001"/>
</g>
<!-- src/Scheduler.ts&#45;&gt;src/SandboxStatus.ts -->
<g id="edge12" class="edge">
<title>src/Scheduler.ts&#45;&gt;src/SandboxStatus.ts</title>
<path fill="none" stroke="#000000" stroke-width="2" stroke-opacity="0.200000" d="M277.7835,-274.082C284.9093,-275.554 292.5564,-277.1337 300.1129,-278.6947"/>
<polygon fill="#000000" fill-opacity="0.200000" stroke="#000000" stroke-width="2" stroke-opacity="0.200000" points="300.1247,-280.8414 306.4255,-279.9987 300.9744,-276.7282 300.1247,-280.8414"/>
</g>
<!-- src/process.ts -->
<g id="node17" class="node">
<title>src/process.ts</title>
<g id="a_node17"><a xlink:href="src/process.ts" xlink:title="process.ts">
<path fill="#ddfeff" stroke="#000000" d="M373,-196C373,-196 327,-196 327,-196 324,-196 321,-193 321,-190 321,-190 321,-184 321,-184 321,-181 324,-178 327,-178 327,-178 373,-178 373,-178 376,-178 379,-181 379,-184 379,-184 379,-190 379,-190 379,-193 376,-196 373,-196"/>
<text text-anchor="middle" x="350" y="-184.8" font-family="Helvetica,sans-Serif" font-size="9.00" fill="#000000">process.ts</text>
</a>
</g>
</g>
<!-- src/Scheduler.ts&#45;&gt;src/process.ts -->
<g id="edge11" class="edge">
<title>src/Scheduler.ts&#45;&gt;src/process.ts</title>
<path fill="none" stroke="#000000" stroke-width="2" stroke-opacity="0.200000" d="M277.7319,-261.5852C283.4049,-259.3852 288.798,-256.3058 293,-252 308.1373,-236.489 291.6089,-221.2057 306,-205 308.5894,-202.0841 311.7219,-199.6313 315.1088,-197.5702"/>
<polygon fill="#000000" fill-opacity="0.200000" stroke="#000000" stroke-width="2" stroke-opacity="0.200000" points="316.2923,-199.319 320.5989,-194.6431 314.3164,-195.6128 316.2923,-199.319"/>
</g>
<!-- src/Thread.ts -->
<g id="node18" class="node">
<title>src/Thread.ts</title>
<g id="a_node18"><a xlink:href="src/Thread.ts" xlink:title="Thread.ts">
<path fill="#ddfeff" stroke="#000000" d="M371.5,-254C371.5,-254 328.5,-254 328.5,-254 325.5,-254 322.5,-251 322.5,-248 322.5,-248 322.5,-242 322.5,-242 322.5,-239 325.5,-236 328.5,-236 328.5,-236 371.5,-236 371.5,-236 374.5,-236 377.5,-239 377.5,-242 377.5,-242 377.5,-248 377.5,-248 377.5,-251 374.5,-254 371.5,-254"/>
<text text-anchor="middle" x="350" y="-242.8" font-family="Helvetica,sans-Serif" font-size="9.00" fill="#000000">Thread.ts</text>
</a>
</g>
</g>
<!-- src/Scheduler.ts&#45;&gt;src/Thread.ts -->
<g id="edge13" class="edge">
<title>src/Scheduler.ts&#45;&gt;src/Thread.ts</title>
<path fill="none" stroke="#000000" stroke-width="2" stroke-opacity="0.200000" d="M277.7835,-259.918C290.116,-257.3704 304.0097,-254.5003 316.2927,-251.963"/>
<polygon fill="#000000" fill-opacity="0.200000" stroke="#000000" stroke-width="2" stroke-opacity="0.200000" points="316.7281,-254.0175 322.1792,-250.747 315.8784,-249.9043 316.7281,-254.0175"/>
</g>
<!-- src/ThreadError.ts -->
<g id="node19" class="node">
<title>src/ThreadError.ts</title>
<g id="a_node19"><a xlink:href="src/ThreadError.ts" xlink:title="ThreadError.ts">
<path fill="#ddfeff" stroke="#000000" d="M477,-240C477,-240 414,-240 414,-240 411,-240 408,-237 408,-234 408,-234 408,-228 408,-228 408,-225 411,-222 414,-222 414,-222 477,-222 477,-222 480,-222 483,-225 483,-228 483,-228 483,-234 483,-234 483,-237 480,-240 477,-240"/>
<text text-anchor="middle" x="445.5" y="-228.8" font-family="Helvetica,sans-Serif" font-size="9.00" fill="#000000">ThreadError.ts</text>
</a>
</g>
</g>
<!-- src/Scheduler.ts&#45;&gt;src/ThreadError.ts -->
<g id="edge14" class="edge">
<title>src/Scheduler.ts&#45;&gt;src/ThreadError.ts</title>
<path fill="none" stroke="#000000" stroke-width="2" stroke-opacity="0.200000" d="M277.5596,-268.3656C315.4828,-269.3727 374.0695,-269.2481 394,-260 401.7023,-256.426 399.9775,-250.7732 407,-246 408.6612,-244.8709 410.4195,-243.8094 412.2339,-242.8141"/>
<polygon fill="#000000" fill-opacity="0.200000" stroke="#000000" stroke-width="2" stroke-opacity="0.200000" points="413.3788,-244.5895 417.8042,-240.0259 411.4988,-240.8337 413.3788,-244.5895"/>
</g>
<!-- src/UnitBase.ts -->
<g id="node20" class="node">
<title>src/UnitBase.ts</title>
<g id="a_node20"><a xlink:href="src/UnitBase.ts" xlink:title="UnitBase.ts">
<path fill="#ddfeff" stroke="#000000" d="M375.5,-372C375.5,-372 324.5,-372 324.5,-372 321.5,-372 318.5,-369 318.5,-366 318.5,-366 318.5,-360 318.5,-360 318.5,-357 321.5,-354 324.5,-354 324.5,-354 375.5,-354 375.5,-354 378.5,-354 381.5,-357 381.5,-360 381.5,-360 381.5,-366 381.5,-366 381.5,-369 378.5,-372 375.5,-372"/>
<text text-anchor="middle" x="350" y="-360.8" font-family="Helvetica,sans-Serif" font-size="9.00" fill="#000000">UnitBase.ts</text>
</a>
</g>
</g>
<!-- src/Scheduler.ts&#45;&gt;src/UnitBase.ts -->
<g id="edge15" class="edge">
<title>src/Scheduler.ts&#45;&gt;src/UnitBase.ts</title>
<path fill="none" stroke="#000000" stroke-width="2" stroke-opacity="0.200000" d="M277.749,-272.0619C283.4899,-274.2917 288.9029,-277.4724 293,-282 313.0601,-304.168 286.3233,-325.491 306,-348 307.9554,-350.2368 310.2582,-352.1405 312.7681,-353.7606"/>
<polygon fill="#000000" fill-opacity="0.200000" stroke="#000000" stroke-width="2" stroke-opacity="0.200000" points="311.8929,-355.6752 318.1661,-356.7037 313.9035,-351.9877 311.8929,-355.6752"/>
</g>
<!-- src/Thread.ts&#45;&gt;src/Lval.ts -->
<g id="edge21" class="edge">
<title>src/Thread.ts&#45;&gt;src/Lval.ts</title>
<path fill="none" stroke="#000000" stroke-width="2" stroke-opacity="0.200000" d="M362.7859,-235.8633C371.6088,-229.5191 383.5807,-220.8321 394,-213 405.8676,-204.0792 419.0909,-193.8014 429.1668,-185.8978"/>
<polygon fill="#000000" fill-opacity="0.200000" stroke="#000000" stroke-width="2" stroke-opacity="0.200000" points="430.7053,-187.3596 434.125,-182.0009 428.1099,-184.0574 430.7053,-187.3596"/>
</g>
<!-- src/Thread.ts&#45;&gt;src/options.ts -->
<g id="edge22" class="edge">
<title>src/Thread.ts&#45;&gt;src/options.ts</title>
<path fill="none" stroke="#000000" stroke-width="2" stroke-opacity="0.200000" d="M376.252,-235.8376C382.2612,-233.3143 388.496,-230.339 394,-227 400.471,-223.0744 400.2063,-219.336 407,-216 439.4329,-200.0739 451.4423,-207.7459 486.5,-199 493.628,-197.2218 501.2208,-195.1641 508.4403,-193.1289"/>
<polygon fill="#000000" fill-opacity="0.200000" stroke="#000000" stroke-width="2" stroke-opacity="0.200000" points="509.2037,-195.095 514.3986,-191.4312 508.0527,-191.0558 509.2037,-195.095"/>
</g>
<!-- src/Thread.ts&#45;&gt;src/logger.ts -->
<g id="edge20" class="edge">
<title>src/Thread.ts&#45;&gt;src/logger.ts</title>
<path fill="none" stroke="#000000" stroke-width="2" stroke-opacity="0.200000" d="M365.6041,-254.2041C374.2676,-259.5761 385.0661,-266.7152 394,-274 400.3326,-279.1637 399.5755,-283.5879 407,-287 460.0567,-311.3838 610.855,-301.6391 669,-307 670.2063,-307.1112 671.4344,-307.2276 672.6747,-307.3478"/>
<polygon fill="#000000" fill-opacity="0.200000" stroke="#000000" stroke-width="2" stroke-opacity="0.200000" points="672.7526,-309.466 678.932,-307.9743 673.1711,-305.2869 672.7526,-309.466"/>
</g>
<!-- src/Thread.ts&#45;&gt;src/ThreadError.ts -->
<g id="edge23" class="edge">
<title>src/Thread.ts&#45;&gt;src/ThreadError.ts</title>
<path fill="none" stroke="#000000" stroke-width="2" stroke-opacity="0.200000" d="M377.6226,-240.9506C385.173,-239.8438 393.5452,-238.6164 401.7582,-237.4124"/>
<polygon fill="#000000" fill-opacity="0.200000" stroke="#000000" stroke-width="2" stroke-opacity="0.200000" points="402.3595,-239.4468 407.9914,-236.4986 401.7503,-235.2912 402.3595,-239.4468"/>
</g>
<!-- src/StackCallItem.ts -->
<g id="node21" class="node">
<title>src/StackCallItem.ts</title>
<g id="a_node21"><a xlink:href="src/StackCallItem.ts" xlink:title="StackCallItem.ts">
<path fill="#ddfeff" stroke="#000000" d="M577.5,-240C577.5,-240 507.5,-240 507.5,-240 504.5,-240 501.5,-237 501.5,-234 501.5,-234 501.5,-228 501.5,-228 501.5,-225 504.5,-222 507.5,-222 507.5,-222 577.5,-222 577.5,-222 580.5,-222 583.5,-225 583.5,-228 583.5,-228 583.5,-234 583.5,-234 583.5,-237 580.5,-240 577.5,-240"/>
<text text-anchor="middle" x="542.5" y="-228.8" font-family="Helvetica,sans-Serif" font-size="9.00" fill="#000000">StackCallItem.ts</text>
</a>
</g>
</g>
<!-- src/StackItem.ts -->
<g id="node22" class="node">
<title>src/StackItem.ts</title>
<g id="a_node22"><a xlink:href="src/StackItem.ts" xlink:title="StackItem.ts">
<path fill="#ddfeff" stroke="#000000" d="M660,-255C660,-255 607,-255 607,-255 604,-255 601,-252 601,-249 601,-249 601,-243 601,-243 601,-240 604,-237 607,-237 607,-237 660,-237 660,-237 663,-237 666,-240 666,-243 666,-243 666,-249 666,-249 666,-252 663,-255 660,-255"/>
<text text-anchor="middle" x="633.5" y="-243.8" font-family="Helvetica,sans-Serif" font-size="9.00" fill="#000000">StackItem.ts</text>
</a>
</g>
</g>
<!-- src/StackCallItem.ts&#45;&gt;src/StackItem.ts -->
<g id="edge16" class="edge">
<title>src/StackCallItem.ts&#45;&gt;src/StackItem.ts</title>
<path fill="none" stroke="#000000" stroke-width="2" stroke-opacity="0.200000" d="M583.7399,-237.7978C587.4153,-238.4036 591.1281,-239.0156 594.7813,-239.6178"/>
<polygon fill="#000000" fill-opacity="0.200000" stroke="#000000" stroke-width="2" stroke-opacity="0.200000" points="594.5941,-241.7152 600.8558,-240.6191 595.2772,-237.5711 594.5941,-241.7152"/>
</g>
<!-- src/StackGuardItem.ts -->
<g id="node23" class="node">
<title>src/StackGuardItem.ts</title>
<g id="a_node23"><a xlink:href="src/StackGuardItem.ts" xlink:title="StackGuardItem.ts">
<path fill="#ddfeff" stroke="#000000" d="M582,-270C582,-270 503,-270 503,-270 500,-270 497,-267 497,-264 497,-264 497,-258 497,-258 497,-255 500,-252 503,-252 503,-252 582,-252 582,-252 585,-252 588,-255 588,-258 588,-258 588,-264 588,-264 588,-267 585,-270 582,-270"/>
<text text-anchor="middle" x="542.5" y="-258.8" font-family="Helvetica,sans-Serif" font-size="9.00" fill="#000000">StackGuardItem.ts</text>
</a>
</g>
</g>
<!-- src/StackGuardItem.ts&#45;&gt;src/StackItem.ts -->
<g id="edge17" class="edge">
<title>src/StackGuardItem.ts&#45;&gt;src/StackItem.ts</title>
<path fill="none" stroke="#000000" stroke-width="2" stroke-opacity="0.200000" d="M588.2666,-253.4561C590.391,-253.1059 592.5147,-252.7558 594.6191,-252.4089"/>
<polygon fill="#000000" fill-opacity="0.200000" stroke="#000000" stroke-width="2" stroke-opacity="0.200000" points="595.2772,-254.4289 600.8558,-251.3809 594.5941,-250.2848 595.2772,-254.4289"/>
</g>
<!-- src/StackThread.ts -->
<g id="node24" class="node">
<title>src/StackThread.ts</title>
<g id="a_node24"><a xlink:href="src/StackThread.ts" xlink:title="StackThread.ts">
<path fill="#ddfeff" stroke="#000000" d="M478,-270C478,-270 413,-270 413,-270 410,-270 407,-267 407,-264 407,-264 407,-258 407,-258 407,-255 410,-252 413,-252 413,-252 478,-252 478,-252 481,-252 484,-255 484,-258 484,-258 484,-264 484,-264 484,-267 481,-270 478,-270"/>
<text text-anchor="middle" x="445.5" y="-258.8" font-family="Helvetica,sans-Serif" font-size="9.00" fill="#000000">StackThread.ts</text>
</a>
</g>
</g>
<!-- src/StackThread.ts&#45;&gt;src/options.ts -->
<g id="edge18" class="edge">
<title>src/StackThread.ts&#45;&gt;src/options.ts</title>
<path fill="none" stroke="#000000" stroke-width="2" stroke-opacity="0.200000" d="M478.8657,-251.8307C481.6596,-250.1935 484.2649,-248.2667 486.5,-246 496.4184,-235.9412 488.5639,-227.3308 497,-216 502.9659,-207.9871 511.4367,-201.1055 519.4549,-195.7318"/>
<polygon fill="#000000" fill-opacity="0.200000" stroke="#000000" stroke-width="2" stroke-opacity="0.200000" points="520.9701,-197.256 524.8972,-192.2572 518.71,-193.7159 520.9701,-197.256"/>
</g>
<!-- src/StackThread.ts&#45;&gt;src/StackCallItem.ts -->
<g id="edge19" class="edge">
<title>src/StackThread.ts&#45;&gt;src/StackCallItem.ts</title>
<path fill="none" stroke="#000000" stroke-width="2" stroke-opacity="0.200000" d="M474.6032,-251.999C484.8678,-248.8244 496.5201,-245.2206 507.2384,-241.9057"/>
<polygon fill="#000000" fill-opacity="0.200000" stroke="#000000" stroke-width="2" stroke-opacity="0.200000" points="507.9705,-243.8775 513.0821,-240.0983 506.7295,-239.865 507.9705,-243.8775"/>
</g>
<!-- src/ValuesUtil.ts -->
<g id="node25" class="node">
<title>src/ValuesUtil.ts</title>
<g id="a_node25"><a xlink:href="src/ValuesUtil.ts" xlink:title="ValuesUtil.ts">
<path fill="#ddfeff" stroke="#000000" d="M271.5,-548C271.5,-548 215.5,-548 215.5,-548 212.5,-548 209.5,-545 209.5,-542 209.5,-542 209.5,-536 209.5,-536 209.5,-533 212.5,-530 215.5,-530 215.5,-530 271.5,-530 271.5,-530 274.5,-530 277.5,-533 277.5,-536 277.5,-536 277.5,-542 277.5,-542 277.5,-545 274.5,-548 271.5,-548"/>
<text text-anchor="middle" x="243.5" y="-536.8" font-family="Helvetica,sans-Serif" font-size="9.00" fill="#000000">ValuesUtil.ts</text>
</a>
</g>
</g>
<!-- src/levels/lohi.ts -->
<g id="node26" class="node">
<title>src/levels/lohi.ts</title>
<g id="a_node26"><a xlink:href="src/levels/lohi.ts" xlink:title="lohi.ts">
<path fill="#ddfeff" stroke="#000000" d="M654.5,-162C654.5,-162 612.5,-162 612.5,-162 609.5,-162 606.5,-159 606.5,-156 606.5,-156 606.5,-150 606.5,-150 606.5,-147 609.5,-144 612.5,-144 612.5,-144 654.5,-144 654.5,-144 657.5,-144 660.5,-147 660.5,-150 660.5,-150 660.5,-156 660.5,-156 660.5,-159 657.5,-162 654.5,-162"/>
<text text-anchor="middle" x="633.5" y="-150.8" font-family="Helvetica,sans-Serif" font-size="9.00" fill="#000000">lohi.ts</text>
</a>
</g>
</g>
<!-- src/levels/lohi.ts&#45;&gt;src/Level.ts -->
<g id="edge24" class="edge">
<title>src/levels/lohi.ts&#45;&gt;src/Level.ts</title>
<path fill="none" stroke="#000000" stroke-width="2" stroke-opacity="0.200000" d="M660.9091,-153C664.6985,-153 668.6251,-153 672.5093,-153"/>
<polygon fill="#000000" fill-opacity="0.200000" stroke="#000000" stroke-width="2" stroke-opacity="0.200000" points="672.5521,-155.1001 678.5521,-153 672.5521,-150.9001 672.5521,-155.1001"/>
</g>
<!-- src/levels/tagsets.ts&#45;&gt;src/Level.ts -->
<g id="edge25" class="edge">
<title>src/levels/tagsets.ts&#45;&gt;src/Level.ts</title>
<path fill="none" stroke="#000000" stroke-width="2" stroke-opacity="0.200000" d="M655.2524,-173.999C662.4981,-171.0008 670.6691,-167.6197 678.3033,-164.4607"/>
<polygon fill="#000000" fill-opacity="0.200000" stroke="#000000" stroke-width="2" stroke-opacity="0.200000" points="679.2712,-166.3329 684.0124,-162.0983 677.6653,-162.4521 679.2712,-166.3329"/>
</g>
<!-- src/levels/tagsets.ts&#45;&gt;src/logger.ts -->
<g id="edge26" class="edge">
<title>src/levels/tagsets.ts&#45;&gt;src/logger.ts</title>
<path fill="none" stroke="#000000" stroke-width="2" stroke-opacity="0.200000" d="M661.049,-190.1095C663.9861,-191.696 666.7261,-193.6338 669,-196 682.9249,-210.4898 696.7358,-267.7289 702.8002,-295.5951"/>
<polygon fill="#000000" fill-opacity="0.200000" stroke="#000000" stroke-width="2" stroke-opacity="0.200000" points="700.7962,-296.2659 704.1055,-301.6935 704.9032,-295.3869 700.7962,-296.2659"/>
</g>
<!-- src/loadLibs.js -->
<g id="node28" class="node">
<title>src/loadLibs.js</title>
<g id="a_node28"><a xlink:href="src/loadLibs.js" xlink:title="loadLibs.js">
<path fill="#ffffcc" stroke="#000000" d="M268,-518C268,-518 219,-518 219,-518 216,-518 213,-515 213,-512 213,-512 213,-506 213,-506 213,-503 216,-500 219,-500 219,-500 268,-500 268,-500 271,-500 274,-503 274,-506 274,-506 274,-512 274,-512 274,-515 271,-518 268,-518"/>
<text text-anchor="middle" x="243.5" y="-506.8" font-family="Helvetica,sans-Serif" font-size="9.00" fill="#000000">loadLibs.js</text>
</a>
</g>
</g>
<!-- src/loadLibs.js&#45;&gt;fs -->
<g id="edge28" class="edge">
<title>src/loadLibs.js&#45;&gt;fs</title>
<path fill="none" stroke="#000000" stroke-dasharray="5,2" stroke-opacity="0.200000" d="M274.1809,-512.7924C281.2157,-515.0296 288.0671,-518.5332 293,-524 313.3209,-546.5202 285.8352,-568.3399 306,-591 309.0042,-594.376 312.8191,-596.944 316.9418,-598.8962"/>
<polygon fill="#000000" fill-opacity="0.200000" stroke="#000000" stroke-opacity="0.200000" points="316.3563,-600.9235 322.7074,-601.1947 317.9116,-597.022 316.3563,-600.9235"/>
</g>
<!-- src/loadLibs.js&#45;&gt;src/logger.ts -->
<g id="edge27" class="edge">
<title>src/loadLibs.js&#45;&gt;src/logger.ts</title>
<path fill="none" stroke="#000000" stroke-width="2" stroke-opacity="0.200000" d="M274.2963,-508.0112C313.9021,-506.8267 384.818,-505 445.5,-505 445.5,-505 445.5,-505 542.5,-505 636.1014,-505 686.9678,-371.3221 701.5505,-325.8976"/>
<polygon fill="#000000" fill-opacity="0.200000" stroke="#000000" stroke-width="2" stroke-opacity="0.200000" points="703.578,-326.4503 703.3681,-320.0968 699.5701,-325.1944 703.578,-326.4503"/>
</g>
<!-- src/p2p/libp2p&#45;bundle.ts -->
<g id="node29" class="node">
<title>src/p2p/libp2p&#45;bundle.ts</title>
<g id="a_node29"><a xlink:href="src/p2p/libp2p-bundle.ts" xlink:title="libp2p&#45;bundle.ts">
<path fill="#ddfeff" stroke="#000000" d="M385.5,-426C385.5,-426 314.5,-426 314.5,-426 311.5,-426 308.5,-423 308.5,-420 308.5,-420 308.5,-414 308.5,-414 308.5,-411 311.5,-408 314.5,-408 314.5,-408 385.5,-408 385.5,-408 388.5,-408 391.5,-411 391.5,-414 391.5,-414 391.5,-420 391.5,-420 391.5,-423 388.5,-426 385.5,-426"/>
<text text-anchor="middle" x="350" y="-414.8" font-family="Helvetica,sans-Serif" font-size="9.00" fill="#000000">libp2p&#45;bundle.ts</text>
</a>
</g>
</g>
<!-- src/p2p/p2pconfig.ts -->
<g id="node30" class="node">
<title>src/p2p/p2pconfig.ts</title>
<g id="a_node30"><a xlink:href="src/p2p/p2pconfig.ts" xlink:title="p2pconfig.ts">
<path fill="#ddfeff" stroke="#000000" d="M472.5,-431C472.5,-431 418.5,-431 418.5,-431 415.5,-431 412.5,-428 412.5,-425 412.5,-425 412.5,-419 412.5,-419 412.5,-416 415.5,-413 418.5,-413 418.5,-413 472.5,-413 472.5,-413 475.5,-413 478.5,-416 478.5,-419 478.5,-419 478.5,-425 478.5,-425 478.5,-428 475.5,-431 472.5,-431"/>
<text text-anchor="middle" x="445.5" y="-419.8" font-family="Helvetica,sans-Serif" font-size="9.00" fill="#000000">p2pconfig.ts</text>
</a>
</g>
</g>
<!-- src/p2p/libp2p&#45;bundle.ts&#45;&gt;src/p2p/p2pconfig.ts -->
<g id="edge30" class="edge">
<title>src/p2p/libp2p&#45;bundle.ts&#45;&gt;src/p2p/p2pconfig.ts</title>
<path fill="none" stroke="#000000" stroke-width="2" stroke-opacity="0.200000" d="M391.6099,-419.1785C396.4871,-419.4339 401.4512,-419.6938 406.2941,-419.9473"/>
<polygon fill="#000000" fill-opacity="0.200000" stroke="#000000" stroke-width="2" stroke-opacity="0.200000" points="406.2463,-422.0476 412.3479,-420.2643 406.466,-417.8534 406.2463,-422.0476"/>
</g>
<!-- src/p2p/mkaliases.ts -->
<g id="node31" class="node">
<title>src/p2p/mkaliases.ts</title>
<g id="a_node31"><a xlink:href="src/p2p/mkaliases.ts" xlink:title="mkaliases.ts">
<path fill="#ddfeff" stroke="#000000" d="M271,-406C271,-406 216,-406 216,-406 213,-406 210,-403 210,-400 210,-400 210,-394 210,-394 210,-391 213,-388 216,-388 216,-388 271,-388 271,-388 274,-388 277,-391 277,-394 277,-394 277,-400 277,-400 277,-403 274,-406 271,-406"/>
<text text-anchor="middle" x="243.5" y="-394.8" font-family="Helvetica,sans-Serif" font-size="9.00" fill="#000000">mkaliases.ts</text>
</a>
</g>
</g>
<!-- src/p2p/mkaliases.ts&#45;&gt;fs -->
<g id="edge31" class="edge">
<title>src/p2p/mkaliases.ts&#45;&gt;fs</title>
<path fill="none" stroke="#000000" stroke-dasharray="5,2" stroke-opacity="0.200000" d="M277.1335,-401.6426C283.1445,-403.8941 288.8154,-407.1899 293,-412 317.507,-440.1706 296.1149,-458.9936 306,-495 315.6643,-530.2023 333.0766,-569.4648 342.8488,-590.2381"/>
<polygon fill="#000000" fill-opacity="0.200000" stroke="#000000" stroke-opacity="0.200000" points="341.0328,-591.3095 345.5045,-595.8277 344.8264,-589.5071 341.0328,-591.3095"/>
</g>
<!-- src/p2p/mkaliases.ts&#45;&gt;path -->
<g id="edge32" class="edge">
<title>src/p2p/mkaliases.ts&#45;&gt;path</title>
<path fill="none" stroke="#000000" stroke-dasharray="5,2" stroke-opacity="0.200000" d="M277.2478,-394.2369C283.3263,-392.1985 288.9943,-388.988 293,-384 316.0464,-355.3023 283.6962,-82.2785 306,-53 308.8691,-49.2337 312.7563,-46.4601 317.0393,-44.4216"/>
<polygon fill="#000000" fill-opacity="0.200000" stroke="#000000" stroke-opacity="0.200000" points="317.8204,-46.371 322.629,-42.2132 316.2771,-42.4648 317.8204,-46.371"/>
</g>
<!-- src/p2p/mkid.ts -->
<g id="node32" class="node">
<title>src/p2p/mkid.ts</title>
<g id="a_node32"><a xlink:href="src/p2p/mkid.ts" xlink:title="mkid.ts">
<path fill="#ddfeff" stroke="#000000" d="M264.5,-466C264.5,-466 222.5,-466 222.5,-466 219.5,-466 216.5,-463 216.5,-460 216.5,-460 216.5,-454 216.5,-454 216.5,-451 219.5,-448 222.5,-448 222.5,-448 264.5,-448 264.5,-448 267.5,-448 270.5,-451 270.5,-454 270.5,-454 270.5,-460 270.5,-460 270.5,-463 267.5,-466 264.5,-466"/>
<text text-anchor="middle" x="243.5" y="-454.8" font-family="Helvetica,sans-Serif" font-size="9.00" fill="#000000">mkid.ts</text>
</a>
</g>
</g>
<!-- src/p2p/mkid.ts&#45;&gt;fs -->
<g id="edge33" class="edge">
<title>src/p2p/mkid.ts&#45;&gt;fs</title>
<path fill="none" stroke="#000000" stroke-dasharray="5,2" stroke-opacity="0.200000" d="M270.5535,-459.5178C278.5152,-461.393 286.7554,-464.5884 293,-470 297.8416,-474.1958 330.3631,-555.3934 344.0003,-589.8002"/>
<polygon fill="#000000" fill-opacity="0.200000" stroke="#000000" stroke-opacity="0.200000" points="342.1553,-590.8449 346.316,-595.651 346.0605,-589.2992 342.1553,-590.8449"/>
</g>
<!-- src/p2p/p2p.js -->
<g id="node33" class="node">
<title>src/p2p/p2p.js</title>
<g id="a_node33"><a xlink:href="src/p2p/p2p.js" xlink:title="p2p.js">
<path fill="#ffffcc" stroke="#000000" d="M264.5,-436C264.5,-436 222.5,-436 222.5,-436 219.5,-436 216.5,-433 216.5,-430 216.5,-430 216.5,-424 216.5,-424 216.5,-421 219.5,-418 222.5,-418 222.5,-418 264.5,-418 264.5,-418 267.5,-418 270.5,-421 270.5,-424 270.5,-424 270.5,-430 270.5,-430 270.5,-433 267.5,-436 264.5,-436"/>
<text text-anchor="middle" x="243.5" y="-424.8" font-family="Helvetica,sans-Serif" font-size="9.00" fill="#000000">p2p.js</text>
</a>
</g>
</g>
<!-- src/p2p/p2p.js&#45;&gt;src/logger.ts -->
<g id="edge34" class="edge">
<title>src/p2p/p2p.js&#45;&gt;src/logger.ts</title>
<path fill="none" stroke="#000000" stroke-width="2" stroke-opacity="0.200000" d="M270.6516,-420.6906C278.1101,-418.4494 286.0525,-415.5726 293,-412 299.4826,-408.6665 299.2059,-404.6411 306,-402 364.0008,-379.4534 383.271,-390 445.5,-390 445.5,-390 445.5,-390 542.5,-390 602.4497,-390 663.553,-346.4083 691.0162,-323.9872"/>
<polygon fill="#000000" fill-opacity="0.200000" stroke="#000000" stroke-width="2" stroke-opacity="0.200000" points="692.4692,-325.5103 695.7449,-320.0623 689.7868,-322.2785 692.4692,-325.5103"/>
</g>
<!-- src/p2p/p2p.js&#45;&gt;src/p2p/libp2p&#45;bundle.ts -->
<g id="edge35" class="edge">
<title>src/p2p/p2p.js&#45;&gt;src/p2p/libp2p&#45;bundle.ts</title>
<path fill="none" stroke="#000000" stroke-width="2" stroke-opacity="0.200000" d="M270.65,-424.4507C280.3217,-423.5426 291.5195,-422.4911 302.3991,-421.4696"/>
<polygon fill="#000000" fill-opacity="0.200000" stroke="#000000" stroke-width="2" stroke-opacity="0.200000" points="302.6216,-423.558 308.399,-420.9062 302.2289,-419.3764 302.6216,-423.558"/>
</g>
<!-- src/p2p/p2p.js&#45;&gt;src/p2p/p2pconfig.ts -->
<g id="edge36" class="edge">
<title>src/p2p/p2p.js&#45;&gt;src/p2p/p2pconfig.ts</title>
<path fill="none" stroke="#000000" stroke-width="2" stroke-opacity="0.200000" d="M270.7543,-430.0118C300.9533,-432.8592 351.0624,-436.1301 394,-432 398.0203,-431.6133 402.193,-431.0605 406.3447,-430.4108"/>
<polygon fill="#000000" fill-opacity="0.200000" stroke="#000000" stroke-width="2" stroke-opacity="0.200000" points="406.8218,-432.4602 412.3923,-429.3976 406.1278,-428.318 406.8218,-432.4602"/>
</g>
<!-- util -->
<g id="node34" class="node">
<title>util</title>
<path fill="#ffffcc" stroke="#c0c0c0" d="M371,-645C371,-645 329,-645 329,-645 326,-645 323,-642 323,-639 323,-639 323,-633 323,-633 323,-630 326,-627 329,-627 329,-627 371,-627 371,-627 374,-627 377,-630 377,-633 377,-633 377,-639 377,-639 377,-642 374,-645 371,-645"/>
<text text-anchor="middle" x="350" y="-633.8" font-family="Helvetica,sans-Serif" font-size="9.00" fill="#c0c0c0">util</text>
</g>
<!-- src/p2p/p2p.js&#45;&gt;util -->
<g id="edge37" class="edge">
<title>src/p2p/p2p.js&#45;&gt;util</title>
<path fill="none" stroke="#000000" stroke-dasharray="5,2" stroke-opacity="0.200000" d="M270.5097,-429.2357C278.9603,-431.3195 287.5027,-435.1283 293,-442 317.7757,-472.9702 282.0779,-588.3658 306,-620 308.8957,-623.8292 312.7972,-626.7431 317.0864,-628.9603"/>
<polygon fill="#000000" fill-opacity="0.200000" stroke="#000000" stroke-opacity="0.200000" points="316.3419,-630.9268 322.6802,-631.4126 318.0283,-627.0802 316.3419,-630.9268"/>
</g>
<!-- src/runtimeMonitored.ts -->
<g id="node35" class="node">
<title>src/runtimeMonitored.ts</title>
<g id="a_node35"><a xlink:href="src/runtimeMonitored.ts" xlink:title="runtimeMonitored.ts">
<path fill="#ddfeff" stroke="#000000" d="M175,-306C175,-306 89,-306 89,-306 86,-306 83,-303 83,-300 83,-300 83,-294 83,-294 83,-291 86,-288 89,-288 89,-288 175,-288 175,-288 178,-288 181,-291 181,-294 181,-294 181,-300 181,-300 181,-303 178,-306 175,-306"/>
<text text-anchor="middle" x="132" y="-294.8" font-family="Helvetica,sans-Serif" font-size="9.00" fill="#000000">runtimeMonitored.ts</text>
</a>
</g>
</g>
<!-- src/runtimeMonitored.ts&#45;&gt;fs -->
<g id="edge55" class="edge">
<title>src/runtimeMonitored.ts&#45;&gt;fs</title>
<path fill="none" stroke="#000000" stroke-dasharray="5,2" stroke-opacity="0.200000" d="M132.8559,-306.147C137.0152,-348.6674 156.4619,-526.5631 194,-565 202.6291,-573.8357 273.6599,-589.5294 316.8433,-598.4054"/>
<polygon fill="#000000" fill-opacity="0.200000" stroke="#000000" stroke-opacity="0.200000" points="316.4435,-600.467 322.7425,-599.6111 317.2846,-596.352 316.4435,-600.467"/>
</g>
<!-- src/runtimeMonitored.ts&#45;&gt;readline -->
<g id="edge56" class="edge">
<title>src/runtimeMonitored.ts&#45;&gt;readline</title>
<path fill="none" stroke="#000000" stroke-dasharray="5,2" stroke-opacity="0.200000" d="M132.7373,-306.0351C136.5401,-350.5725 155.2717,-546.3894 194,-591 198.4061,-596.0753 204.3625,-599.7201 210.6158,-602.3373"/>
<polygon fill="#000000" fill-opacity="0.200000" stroke="#000000" stroke-opacity="0.200000" points="210.05,-604.3666 216.4061,-604.4637 211.4978,-600.424 210.05,-604.3666"/>
</g>
<!-- src/runtimeMonitored.ts&#45;&gt;src/Authority.ts -->
<g id="edge38" class="edge">
<title>src/runtimeMonitored.ts&#45;&gt;src/Authority.ts</title>
<path fill="none" stroke="#000000" stroke-width="2" stroke-opacity="0.200000" d="M144.3316,-306.1404C156.504,-314.8719 175.8724,-327.9991 194,-337 198.9321,-339.4489 204.2828,-341.7417 209.5823,-343.8163"/>
<polygon fill="#000000" fill-opacity="0.200000" stroke="#000000" stroke-width="2" stroke-opacity="0.200000" points="208.9356,-345.8169 215.2904,-345.9789 210.4236,-341.8894 208.9356,-345.8169"/>
</g>
<!-- src/runtimeMonitored.ts&#45;&gt;src/BaseFunction.ts -->
<g id="edge39" class="edge">
<title>src/runtimeMonitored.ts&#45;&gt;src/BaseFunction.ts</title>
<path fill="none" stroke="#000000" stroke-width="2" stroke-opacity="0.200000" d="M133.4328,-287.7104C137.6788,-263.6895 152.5925,-199.4203 194,-171 211.1312,-159.2419 263.4029,-156.533 302.7544,-156.2594"/>
<polygon fill="#000000" fill-opacity="0.200000" stroke="#000000" stroke-width="2" stroke-opacity="0.200000" points="302.96,-158.3588 308.9518,-156.2354 302.9437,-154.1588 302.96,-158.3588"/>
</g>
<!-- src/runtimeMonitored.ts&#45;&gt;src/Level.ts -->
<g id="edge40" class="edge">
<title>src/runtimeMonitored.ts&#45;&gt;src/Level.ts</title>
<path fill="none" stroke="#000000" stroke-width="2" stroke-opacity="0.200000" d="M134.4081,-287.8985C145.5604,-245.7831 191.7451,-71.7795 194,-70 207.6136,-59.2565 332.6578,-65 350,-65 350,-65 350,-65 542.5,-65 604.7112,-65 666.0432,-115.0109 692.4667,-139.6302"/>
<polygon fill="#000000" fill-opacity="0.200000" stroke="#000000" stroke-width="2" stroke-opacity="0.200000" points="691.1871,-141.3108 696.9866,-143.9139 694.0762,-138.2623 691.1871,-141.3108"/>
</g>
<!-- src/runtimeMonitored.ts&#45;&gt;src/Lval.ts -->
<g id="edge43" class="edge">
<title>src/runtimeMonitored.ts&#45;&gt;src/Lval.ts</title>
<path fill="none" stroke="#000000" stroke-width="2" stroke-opacity="0.200000" d="M133.7914,-287.8322C140.501,-254.5251 165.2367,-140.7901 194,-120 266.0443,-67.9266 312.4431,-82.6376 394,-118 412.9025,-126.1959 428.0395,-145.1253 436.8895,-158.4786"/>
<polygon fill="#000000" fill-opacity="0.200000" stroke="#000000" stroke-width="2" stroke-opacity="0.200000" points="435.2938,-159.8822 440.2901,-163.8125 438.8353,-157.6243 435.2938,-159.8822"/>
</g>
<!-- src/runtimeMonitored.ts&#45;&gt;src/options.ts -->
<g id="edge46" class="edge">
<title>src/runtimeMonitored.ts&#45;&gt;src/options.ts</title>
<path fill="none" stroke="#000000" stroke-width="2" stroke-opacity="0.200000" d="M134.3279,-287.8851C144.5578,-247.9907 185.3939,-90.4582 194,-84 229.5483,-57.3237 350.2431,-76.2129 394,-84 437.1228,-91.6743 450.4976,-93.0542 486.5,-118 506.1716,-131.6303 523.2096,-153.7555 533.1708,-168.3432"/>
<polygon fill="#000000" fill-opacity="0.200000" stroke="#000000" stroke-width="2" stroke-opacity="0.200000" points="531.6776,-169.8893 536.7532,-173.7166 535.1722,-167.5594 531.6776,-169.8893"/>
</g>
<!-- src/runtimeMonitored.ts&#45;&gt;src/MailboxProcessor.ts -->
<g id="edge44" class="edge">
<title>src/runtimeMonitored.ts&#45;&gt;src/MailboxProcessor.ts</title>
<path fill="none" stroke="#000000" stroke-width="2" stroke-opacity="0.200000" d="M133.9134,-287.807C139.3193,-263.8791 156.7921,-198.8317 194,-160 199.0997,-154.6777 205.5765,-150.3028 212.1506,-146.7847"/>
<polygon fill="#000000" fill-opacity="0.200000" stroke="#000000" stroke-width="2" stroke-opacity="0.200000" points="213.2384,-148.5888 217.6677,-144.029 211.3616,-144.8315 213.2384,-148.5888"/>
</g>
<!-- src/runtimeMonitored.ts&#45;&gt;src/logger.ts -->
<g id="edge42" class="edge">
<title>src/runtimeMonitored.ts&#45;&gt;src/logger.ts</title>
<path fill="none" stroke="#000000" stroke-width="2" stroke-opacity="0.200000" d="M132.7795,-306.2272C136.5362,-348.2897 154.2472,-521.2268 194,-554 207.3877,-565.0372 332.6492,-561 350,-561 350,-561 350,-561 542.5,-561 617.2978,-561 629.5628,-513.5565 669,-450 693.8829,-409.8991 702.1915,-353.2541 704.8364,-326.3451"/>
<polygon fill="#000000" fill-opacity="0.200000" stroke="#000000" stroke-width="2" stroke-opacity="0.200000" points="706.9456,-326.3372 705.3934,-320.1727 702.7626,-325.9596 706.9456,-326.3372"/>
</g>
<!-- src/runtimeMonitored.ts&#45;&gt;src/SandboxStatus.ts -->
<g id="edge50" class="edge">
<title>src/runtimeMonitored.ts&#45;&gt;src/SandboxStatus.ts</title>
<path fill="none" stroke="#000000" stroke-width="2" stroke-opacity="0.200000" d="M162.9598,-306.0163C172.7945,-308.4674 183.7732,-310.7805 194,-312 237.6905,-317.21 249.8065,-320.386 293,-312 304.559,-309.7558 316.7433,-305.1732 326.8664,-300.6849"/>
<polygon fill="#000000" fill-opacity="0.200000" stroke="#000000" stroke-width="2" stroke-opacity="0.200000" points="327.9888,-302.4806 332.5682,-298.0715 326.2388,-298.6625 327.9888,-302.4806"/>
</g>
<!-- src/runtimeMonitored.ts&#45;&gt;src/NodeManager.ts -->
<g id="edge45" class="edge">
<title>src/runtimeMonitored.ts&#45;&gt;src/NodeManager.ts</title>
<path fill="none" stroke="#000000" stroke-width="2" stroke-opacity="0.200000" d="M137.055,-287.9119C146.292,-272.1379 167.4175,-239.6878 194,-222 195.7195,-220.8559 197.5295,-219.7963 199.4,-218.8152"/>
<polygon fill="#000000" fill-opacity="0.200000" stroke="#000000" stroke-width="2" stroke-opacity="0.200000" points="200.6289,-220.5578 205.1626,-216.1018 198.8397,-216.7579 200.6289,-220.5578"/>
</g>
<!-- src/runtimeMonitored.ts&#45;&gt;src/RtClosure.ts -->
<g id="edge49" class="edge">
<title>src/runtimeMonitored.ts&#45;&gt;src/RtClosure.ts</title>
<path fill="none" stroke="#000000" stroke-width="2" stroke-opacity="0.200000" d="M181.2301,-297C188.7959,-297 196.524,-297 203.8469,-297"/>
<polygon fill="#000000" fill-opacity="0.200000" stroke="#000000" stroke-width="2" stroke-opacity="0.200000" points="203.8904,-299.1001 209.8904,-297 203.8904,-294.9001 203.8904,-299.1001"/>
</g>
<!-- src/runtimeMonitored.ts&#45;&gt;src/Scheduler.ts -->
<g id="edge51" class="edge">
<title>src/runtimeMonitored.ts&#45;&gt;src/Scheduler.ts</title>
<path fill="none" stroke="#000000" stroke-width="2" stroke-opacity="0.200000" d="M165.4537,-287.999C177.4711,-284.7656 191.1435,-281.087 203.6506,-277.7218"/>
<polygon fill="#000000" fill-opacity="0.200000" stroke="#000000" stroke-width="2" stroke-opacity="0.200000" points="204.4363,-279.6852 209.6846,-276.0983 203.345,-275.6294 204.4363,-279.6852"/>
</g>
<!-- src/runtimeMonitored.ts&#45;&gt;src/process.ts -->
<g id="edge48" class="edge">
<title>src/runtimeMonitored.ts&#45;&gt;src/process.ts</title>
<path fill="none" stroke="#000000" stroke-width="2" stroke-opacity="0.200000" d="M134.2008,-287.8641C139.8752,-266.5687 157.2062,-213.7923 194,-192 230.7639,-170.2254 281.425,-173.3783 314.9146,-179.0115"/>
<polygon fill="#000000" fill-opacity="0.200000" stroke="#000000" stroke-width="2" stroke-opacity="0.200000" points="314.6858,-181.1036 320.9608,-180.0867 315.4212,-176.9685 314.6858,-181.1036"/>
</g>
<!-- src/runtimeMonitored.ts&#45;&gt;src/UnitBase.ts -->
<g id="edge53" class="edge">
<title>src/runtimeMonitored.ts&#45;&gt;src/UnitBase.ts</title>
<path fill="none" stroke="#000000" stroke-width="2" stroke-opacity="0.200000" d="M156.8471,-306.1004C168.1029,-310.0453 181.6323,-314.5422 194,-318 237.4087,-330.1365 251.2289,-323.0655 293,-340 299.2871,-342.5489 299.8623,-345.1097 306,-348 308.6879,-349.2657 311.5126,-350.4776 314.3791,-351.625"/>
<polygon fill="#000000" fill-opacity="0.200000" stroke="#000000" stroke-width="2" stroke-opacity="0.200000" points="313.9372,-353.7043 320.2915,-353.886 315.4375,-349.7813 313.9372,-353.7043"/>
</g>
<!-- src/runtimeMonitored.ts&#45;&gt;src/ValuesUtil.ts -->
<g id="edge54" class="edge">
<title>src/runtimeMonitored.ts&#45;&gt;src/ValuesUtil.ts</title>
<path fill="none" stroke="#000000" stroke-width="2" stroke-opacity="0.200000" d="M133.3172,-306.2286C138.9762,-344.6587 162.3805,-491.4952 194,-524 196.753,-526.8301 200.0206,-529.1305 203.5447,-530.9998"/>
<polygon fill="#000000" fill-opacity="0.200000" stroke="#000000" stroke-width="2" stroke-opacity="0.200000" points="202.9255,-533.025 209.2567,-533.5963 204.6636,-529.2015 202.9255,-533.025"/>
</g>
<!-- src/runtimeMonitored.ts&#45;&gt;src/loadLibs.js -->
<g id="edge41" class="edge">
<title>src/runtimeMonitored.ts&#45;&gt;src/loadLibs.js</title>
<path fill="none" stroke="#000000" stroke-width="2" stroke-opacity="0.200000" d="M133.6482,-306.0064C140.2226,-341.0024 165.5952,-467.3749 194,-495 197.6813,-498.5803 202.2062,-501.2585 207.0099,-503.2593"/>
<polygon fill="#000000" fill-opacity="0.200000" stroke="#000000" stroke-width="2" stroke-opacity="0.200000" points="206.3866,-505.2666 212.7434,-505.3104 207.8013,-501.312 206.3866,-505.2666"/>
</g>
<!-- src/runtimeMonitored.ts&#45;&gt;src/p2p/p2p.js -->
<g id="edge47" class="edge">
<title>src/runtimeMonitored.ts&#45;&gt;src/p2p/p2p.js</title>
<path fill="none" stroke="#000000" stroke-width="2" stroke-opacity="0.200000" d="M134.377,-306.3212C140.4321,-328.1653 158.5262,-383.0023 194,-412 198.7972,-415.9214 204.6044,-418.8186 210.5287,-420.9589"/>
<polygon fill="#000000" fill-opacity="0.200000" stroke="#000000" stroke-width="2" stroke-opacity="0.200000" points="210.1043,-423.0279 216.4589,-422.8567 211.3845,-419.0278 210.1043,-423.0279"/>
</g>
<!-- src/runtimeMonitored.ts&#45;&gt;util -->
<g id="edge57" class="edge">
<title>src/runtimeMonitored.ts&#45;&gt;util</title>
<path fill="none" stroke="#000000" stroke-dasharray="5,2" stroke-opacity="0.200000" d="M132.3014,-306.3032C134.0842,-355.0091 144.9182,-580.0675 194,-624 227.0583,-653.5901 281.4362,-650.3068 316.4717,-644.0526"/>
<polygon fill="#000000" fill-opacity="0.200000" stroke="#000000" stroke-opacity="0.200000" points="317.2749,-646.0379 322.779,-642.8575 316.4929,-641.9113 317.2749,-646.0379"/>
</g>
<!-- src/serialize.js -->
<g id="node36" class="node">
<title>src/serialize.js</title>
<g id="a_node36"><a xlink:href="src/serialize.js" xlink:title="serialize.js">
<path fill="#ffffcc" stroke="#000000" d="M267.5,-246C267.5,-246 219.5,-246 219.5,-246 216.5,-246 213.5,-243 213.5,-240 213.5,-240 213.5,-234 213.5,-234 213.5,-231 216.5,-228 219.5,-228 219.5,-228 267.5,-228 267.5,-228 270.5,-228 273.5,-231 273.5,-234 273.5,-234 273.5,-240 273.5,-240 273.5,-243 270.5,-246 267.5,-246"/>
<text text-anchor="middle" x="243.5" y="-234.8" font-family="Helvetica,sans-Serif" font-size="9.00" fill="#000000">serialize.js</text>
</a>
</g>
</g>
<!-- src/runtimeMonitored.ts&#45;&gt;src/serialize.js -->
<g id="edge52" class="edge">
<title>src/runtimeMonitored.ts&#45;&gt;src/serialize.js</title>
<path fill="none" stroke="#000000" stroke-width="2" stroke-opacity="0.200000" d="M142.2692,-287.8671C154.0277,-277.8274 174.2268,-261.8221 194,-252 198.241,-249.8934 202.8351,-248.0181 207.4571,-246.3683"/>
<polygon fill="#000000" fill-opacity="0.200000" stroke="#000000" stroke-width="2" stroke-opacity="0.200000" points="208.2866,-248.3049 213.3019,-244.3988 206.9454,-244.3248 208.2866,-248.3049"/>
</g>
<!-- src/serialize.js&#45;&gt;assert -->
<g id="edge58" class="edge">
<title>src/serialize.js&#45;&gt;assert</title>
<path fill="none" stroke="#000000" stroke-dasharray="5,2" stroke-opacity="0.200000" d="M273.6417,-233.9422C281.0361,-231.7253 288.198,-228.048 293,-222 320.4189,-187.4667 279.1777,-58.9987 306,-24 308.8995,-20.2166 312.8032,-17.3805 317.0933,-15.2561"/>
<polygon fill="#000000" fill-opacity="0.200000" stroke="#000000" stroke-opacity="0.200000" points="317.9551,-17.1721 322.6877,-12.9279 316.3413,-13.2945 317.9551,-17.1721"/>
</g>
<!-- src/troupe.ts -->
<g id="node37" class="node">
<title>src/troupe.ts</title>
<g id="a_node37"><a xlink:href="src/troupe.ts" xlink:title="troupe.ts">
<path fill="#ddfeff" stroke="#000000" d="M64,-194C64,-194 22,-194 22,-194 19,-194 16,-191 16,-188 16,-188 16,-182 16,-182 16,-179 19,-176 22,-176 22,-176 64,-176 64,-176 67,-176 70,-179 70,-182 70,-182 70,-188 70,-188 70,-191 67,-194 64,-194"/>
<text text-anchor="middle" x="43" y="-182.8" font-family="Helvetica,sans-Serif" font-size="9.00" fill="#000000">troupe.ts</text>
</a>
</g>
</g>
<!-- src/troupe.ts&#45;&gt;path -->
<g id="edge60" class="edge">
<title>src/troupe.ts&#45;&gt;path</title>
<path fill="none" stroke="#000000" stroke-dasharray="5,2" stroke-opacity="0.200000" d="M50.7085,-175.8727C71.2318,-152.2688 130.0194,-89.0987 194,-61 233.677,-43.5748 283.9952,-39.2917 316.5854,-38.5579"/>
<polygon fill="#000000" fill-opacity="0.200000" stroke="#000000" stroke-opacity="0.200000" points="316.8938,-40.6532 322.8587,-38.4556 316.8252,-36.4538 316.8938,-40.6532"/>
</g>
<!-- src/troupe.ts&#45;&gt;src/runtimeMonitored.ts -->
<g id="edge59" class="edge">
<title>src/troupe.ts&#45;&gt;src/runtimeMonitored.ts</title>
<path fill="none" stroke="#000000" stroke-width="2" stroke-opacity="0.200000" d="M50.2832,-194.1654C65.7989,-213.6908 102.2041,-259.5041 120.7351,-282.824"/>
<polygon fill="#000000" fill-opacity="0.200000" stroke="#000000" stroke-width="2" stroke-opacity="0.200000" points="119.2392,-284.3169 124.6161,-287.7079 122.5274,-281.7039 119.2392,-284.3169"/>
</g>
</g>
</svg>
